<svg xmlns="http://www.w3.org/2000/svg" width="14" height="14"><path d="M12.25 0H6.125a1.762 1.762 0 00-1.75 1.75v6.125a1.762 1.762 0 001.75 1.75h6.125A1.762 1.762 0 0014 7.875V1.75A1.762 1.762 0 0012.25 0zm.438 7.875a.432.432 0 01-.437.438H6.125a.432.432 0 01-.437-.437V1.75a.432.432 0 01.438-.437h6.124a.432.432 0 01.438.438zM8.313 12.25a.432.432 0 01-.437.438H1.75a.432.432 0 01-.437-.438V6.125a.432.432 0 01.438-.437h1.75V4.375h-1.75A1.762 1.762 0 000 6.125v6.125A1.762 1.762 0 001.75 14h6.125a1.762 1.762 0 001.75-1.75V10.5H8.313z" fill="#343333"/></svg>