<svg xmlns="http://www.w3.org/2000/svg" width="26.25" height="30"><path d="M13.125 5.625a5.648 5.648 0 015.156 3.34 5.593 5.593 0 01-1 6.035h.527a2.854 2.854 0 002.407-1.35 7.938 7.938 0 00.41-2.4 7.477 7.477 0 00-7.5-7.5 7.477 7.477 0 00-7.5 7.5 7.421 7.421 0 002.813 5.8v-.176A3.635 3.635 0 018.965 15a5.593 5.593 0 01-1-6.035 5.648 5.648 0 015.16-3.34zm-10.312 7.5a.926.926 0 00.938-.937v-.938a9.4 9.4 0 019.374-9.375A9.4 9.4 0 0122.5 11.25v.938a4.7 4.7 0 01-4.687 4.687h-1.875A1.851 1.851 0 0014.063 15h-1.875a1.851 1.851 0 00-1.875 1.875 1.851 1.851 0 001.875 1.875h5.625a6.552 6.552 0 006.563-6.562v-.938A11.253 11.253 0 0013.125 0a11.253 11.253 0 00-11.25 11.25v.938a.926.926 0 00.938.937zm15.645 7.5H7.793A7.827 7.827 0 000 28.418 1.575 1.575 0 001.582 30h23.086a1.575 1.575 0 001.582-1.582 7.827 7.827 0 00-7.793-7.793zm-16.582 7.5A5.964 5.964 0 017.793 22.5h10.664a5.964 5.964 0 015.918 5.625z" fill="#fff"/></svg>