<svg xmlns="http://www.w3.org/2000/svg" width="77" height="62.216"><g data-name="Group 127651" transform="translate(-1384.799 -590)"><circle data-name="Ellipse 540" cx="20.5" cy="20.5" r="20.5" transform="translate(1417.799 611.216)" fill="#ddbe86" opacity=".2"/><g data-name="883365"><g data-name="Group 127270"><g data-name="Group 127269"><path data-name="Path 148831" d="M1415.338 617.511a1.5 1.5 0 100 2.126 1.5 1.5 0 000-2.126z" fill="#ddbe86"/></g></g><g data-name="Group 127272"><g data-name="Group 127271"><path data-name="Path 148832" d="M1423.299 620.078a4.512 4.512 0 104.512 4.512 4.517 4.517 0 00-4.512-4.512zm0 6.016a1.5 1.5 0 111.5-1.5 1.506 1.506 0 01-1.5 1.5z" fill="#ddbe86"/></g></g><g data-name="Group 127274"><g data-name="Group 127273"><path data-name="Path 148833" d="M1423.299 612.559a11.931 11.931 0 00-4.831 1.01 1.504 1.504 0 001.21 2.754 8.942 8.942 0 013.621-.756 9.023 9.023 0 11-9.023 9.023v-.153a1.504 1.504 0 00-3.007-.07v.223a12.031 12.031 0 1012.03-12.031z" fill="#ddbe86"/></g></g><g data-name="Group 127276"><g data-name="Group 127275"><path data-name="Path 148834" d="M1423.295 590a1.5 1.5 0 00-1.5 1.5v9.023a1.504 1.504 0 103.008 0V591.5a1.5 1.5 0 00-1.508-1.5z" fill="#ddbe86"/></g></g><g data-name="Group 127278"><g data-name="Group 127277"><path data-name="Path 148835" d="M1406.497 601.15l-6.38-6.38a1.504 1.504 0 00-2.127 2.127l6.38 6.38a1.504 1.504 0 002.127-2.127z" fill="#ddbe86"/></g></g><g data-name="Group 127280"><g data-name="Group 127279"><path data-name="Path 148836" d="M1448.607 594.771a1.5 1.5 0 00-2.127 0l-6.38 6.38a1.504 1.504 0 002.127 2.127l6.38-6.38a1.5 1.5 0 000-2.127z" fill="#ddbe86"/></g></g><g data-name="Group 127282"><g data-name="Group 127281"><path data-name="Path 148837" d="M1461.422 624.847c-9.553-10.816-23.739-19.808-38.123-19.808s-28.571 8.994-38.123 19.808a1.504 1.504 0 102.254 1.992c.32-.363.649-.724.981-1.084 7.432 11.228 20.904 18.384 34.888 18.384s27.456-7.157 34.888-18.386c.333.359.661.721.981 1.084a1.504 1.504 0 002.254-1.991zm-38.123 16.286c-13.222 0-25.938-6.87-32.738-17.593 5.358-5.25 17.739-15.493 32.738-15.493s27.38 10.243 32.738 15.492c-6.8 10.724-19.516 17.594-32.738 17.594z" fill="#ddbe86"/></g></g></g></g></svg>