<svg xmlns="http://www.w3.org/2000/svg" width="26" height="21.117"><path d="M23.327 5.262A11.454 11.454 0 0026 2.508a10.683 10.683 0 01-3.068.825A5.314 5.314 0 0025.275.396a10.491 10.491 0 01-3.382 1.287A5.316 5.316 0 0018 0a5.326 5.326 0 00-5.33 5.328 6.015 6.015 0 00.13 1.221A15.146 15.146 0 011.813.973a5.288 5.288 0 00-.726 2.689A5.325 5.325 0 003.463 8.1a5.366 5.366 0 01-2.409-.676v.066a5.329 5.329 0 004.273 5.23 5.634 5.634 0 01-1.4.181 6.716 6.716 0 01-1.007-.083 5.338 5.338 0 004.98 3.696 10.672 10.672 0 01-6.615 2.277A11.028 11.028 0 010 18.724a15.058 15.058 0 008.183 2.392A15.057 15.057 0 0023.344 5.955c0-.231 0-.462-.017-.693z" fill="#fff"/></svg>