<svg xmlns="http://www.w3.org/2000/svg" width="28.125" height="28.125"><path d="M24.61 23.321a13.946 13.946 0 003.516-9.258 13.946 13.946 0 00-3.516-9.258l.41-.41a.829.829 0 000-1.289.869.869 0 00-1.289 0l-.41.41A13.946 13.946 0 0014.063.001a13.946 13.946 0 00-9.258 3.512l-.41-.41a.829.829 0 00-1.289 0 .869.869 0 000 1.289l.41.41A13.946 13.946 0 000 14.06a13.946 13.946 0 003.516 9.258l-.41.41a.829.829 0 000 1.289.941.941 0 00.645.296.941.941 0 00.645-.293l.41-.41a13.946 13.946 0 009.257 3.516 13.946 13.946 0 009.258-3.513l.41.41a.941.941 0 00.645.29.941.941 0 00.645-.293.829.829 0 000-1.289zm1.641-9.258a12.065 12.065 0 01-2.93 7.91l-4.688-4.687a5.44 5.44 0 001.055-3.223 5.44 5.44 0 00-1.055-3.223l4.688-4.687a12.065 12.065 0 012.93 7.91zm-15.937 0a3.776 3.776 0 013.749-3.75 3.776 3.776 0 013.75 3.75 3.776 3.776 0 01-3.75 3.75 3.776 3.776 0 01-3.75-3.75zm3.749-12.187a12.065 12.065 0 017.91 2.93l-4.687 4.687a5.44 5.44 0 00-3.223-1.055 5.44 5.44 0 00-3.223 1.055L6.153 4.805a12.065 12.065 0 017.91-2.929zM1.876 14.063a12.065 12.065 0 012.93-7.91l4.688 4.688a5.44 5.44 0 00-1.056 3.222 5.44 5.44 0 001.055 3.223l-4.688 4.687a12.065 12.065 0 01-2.929-7.91zm12.187 12.188a12.065 12.065 0 01-7.91-2.93l4.687-4.688a5.44 5.44 0 003.223 1.055 5.44 5.44 0 003.223-1.055l4.687 4.688a12.065 12.065 0 01-7.91 2.93z" fill="#fff"/></svg>