<svg xmlns="http://www.w3.org/2000/svg" width="22.763" height="22.757"><path d="M11.384 5.544a5.826 5.826 0 00-5.835 5.835 5.826 5.826 0 005.835 5.835 5.826 5.826 0 005.835-5.835 5.826 5.826 0 00-5.835-5.835zm0 9.628a3.8 3.8 0 01-3.793-3.793 3.8 3.8 0 013.793-3.793 3.8 3.8 0 013.795 3.793 3.8 3.8 0 01-3.795 3.793zm7.434-9.867a1.361 1.361 0 00-1.361-1.361 1.361 1.361 0 00-1.361 1.361 1.358 1.358 0 001.361 1.361 1.358 1.358 0 001.361-1.361zm3.861 1.382a6.735 6.735 0 00-1.838-4.768A6.779 6.779 0 0016.079.08C14.2-.027 8.568-.027 6.69.08a6.769 6.769 0 00-4.768 1.833A6.757 6.757 0 00.079 6.682c-.107 1.879-.107 7.511 0 9.389a6.735 6.735 0 001.839 4.768 6.788 6.788 0 004.769 1.839c1.879.107 7.511.107 9.389 0a6.735 6.735 0 004.769-1.839 6.779 6.779 0 001.834-4.768c.111-1.879.111-7.505 0-9.384zm-2.423 11.4a3.84 3.84 0 01-2.164 2.163c-1.5.594-5.053.457-6.708.457s-5.215.132-6.705-.457a3.84 3.84 0 01-2.166-2.163c-.594-1.5-.457-5.053-.457-6.708s-.132-5.215.457-6.708a3.84 3.84 0 012.166-2.164c1.5-.594 5.053-.457 6.708-.457s5.215-.132 6.708.457a3.84 3.84 0 012.163 2.163c.594 1.5.457 5.053.457 6.708s.135 5.216-.459 6.709z" fill="#fff"/></svg>