<svg xmlns="http://www.w3.org/2000/svg" width="12.25" height="12.25"><path d="M11.375 0H.875a.879.879 0 00-.872.883v10.484a.879.879 0 00.872.883h10.5a.881.881 0 00.875-.883V.883A.881.881 0 0011.375 0zM3.702 10.5H1.887V4.654h1.818V10.5zm-.907-6.645a1.053 1.053 0 01-1.053-1.052A1.053 1.053 0 012.795 1.75a1.055 1.055 0 011.052 1.053 1.051 1.051 0 01-1.052 1.052zm7.713 6.645H8.693V7.656c0-.678-.014-1.55-.943-1.55-.946 0-1.091.738-1.091 1.5V10.5H4.843V4.654h1.741v.8h.025a1.912 1.912 0 011.716-.945c1.838 0 2.179 1.211 2.179 2.786z" fill="#ddbe86"/></svg>