<svg xmlns="http://www.w3.org/2000/svg" width="121.455" height="103.523"><g data-name="Group 120682" fill="#343333"><path data-name="Path 140558" d="M52.019 100.57c.026 0 .039.01.039.031v.888a.035.035 0 01-.039.039h-2.42a2.588 2.588 0 01-1.718-.516 1.782 1.782 0 01-.611-1.44 1.952 1.952 0 01.28-1.044 1.836 1.836 0 01.8-.7 2.893 2.893 0 011.245-.247h.222v-.39h1.2v3.379zm-2.186 0v-2.034h-.21a1.2 1.2 0 00-.84.269 1 1 0 00-.294.775.929.929 0 00.288.732 1.207 1.207 0 00.83.257zm-.744-3.884a.508.508 0 01-.39-.154.588.588 0 01-.144-.419.6.6 0 01.142-.423.507.507 0 01.392-.154.5.5 0 01.386.152.6.6 0 01.14.425.586.586 0 01-.144.423.506.506 0 01-.382.15zm1.356 0a.507.507 0 01-.39-.154.587.587 0 01-.144-.419.6.6 0 01.142-.423.507.507 0 01.392-.154.5.5 0 01.39.154.6.6 0 01.14.423.584.584 0 01-.146.419.5.5 0 01-.384.154zm1.494 4.843a.035.035 0 01-.039-.039v-.888c0-.021.013-.031.039-.031h.939v-2.992h1.192v1.4a2.318 2.318 0 012.162-1.477 1.962 1.962 0 011.476.516 2.223 2.223 0 01.5 1.6v.959h1.04c.026 0 .039.01.039.031v.888a.035.035 0 01-.039.039zm5.08-.959v-.982a1.19 1.19 0 00-.267-.855 1.1 1.1 0 00-.824-.275q-1.075 0-1.858 1.488v.623zm-1.184-3.678a.514.514 0 01-.394-.154.588.588 0 01-.144-.419.6.6 0 01.142-.423.511.511 0 01.4-.154.5.5 0 01.384.152.6.6 0 01.142.425.583.583 0 01-.146.419.5.5 0 01-.384.154zm3.333 4.636a.035.035 0 01-.039-.039v-.888c0-.021.013-.031.039-.031h1v-2.992h1.188v3.951zm1.524 1.995a.512.512 0 01-.393-.154.588.588 0 01-.144-.419.6.6 0 01.142-.422.512.512 0 01.4-.154.5.5 0 01.383.152.6.6 0 01.142.425.583.583 0 01-.146.419.5.5 0 01-.384.153zm4.8-2.953c.026 0 .039.01.039.031v.888a.034.034 0 01-.039.039h-2.186V95.47h1.188v5.1zm5.426 0c.026 0 .039.01.039.031v.888a.035.035 0 01-.039.039h-5.499a.034.034 0 01-.039-.039v-.888c0-.021.013-.031.039-.031h1.141a1.582 1.582 0 01-.386-1.052 1.764 1.764 0 01.616-1.416 2.564 2.564 0 011.714-.524h1.422v2.992zm-3.019-3.678a.509.509 0 01-.39-.154.588.588 0 01-.144-.419.6.6 0 01.142-.423.507.507 0 01.392-.154.5.5 0 01.386.152.6.6 0 01.14.425.586.586 0 01-.144.423.506.506 0 01-.378.15zm.834 3.678v-2.034h-.21a1.2 1.2 0 00-.834.267.994.994 0 00-.3.777.933.933 0 00.286.732 1.2 1.2 0 00.828.257zm.522-3.678a.509.509 0 01-.39-.154.588.588 0 01-.144-.419.6.6 0 01.142-.423.507.507 0 01.392-.154.5.5 0 01.389.154.6.6 0 01.14.423.584.584 0 01-.146.419.506.506 0 01-.38.154zm1.584 4.636a.035.035 0 01-.039-.039v-.888c0-.021.013-.031.039-.031h1v-5.1h1.188v6.063zm4.262-6.063h1.188v6.063h-1.188z"/><path data-name="Rectangle 15382" d="M53.212 0h4.365v44.924h-4.365z"/><path data-name="Rectangle 15383" d="M59.777 0h4.365v44.924h-4.365z"/><path data-name="Rectangle 15384" d="M66.341 0h4.365v44.924h-4.365z"/><path data-name="Path 140559" d="M120.547 72.726a1.135 1.135 0 00-.335.753v10.306H117.9v-9.83a9.618 9.618 0 01.008-1.035 2.429 2.429 0 011.6-2.108 6.04 6.04 0 011.814-.236l.127 1.789a1.738 1.738 0 00-.907.36"/><path data-name="Path 140560" d="M84.991 85.516a20.411 20.411 0 001.394-6.831 5.489 5.489 0 00-.309-1.79 2.85 2.85 0 00-.932-1.292 3.876 3.876 0 00-1.615-.795 14.992 14.992 0 00-3.379-.273h-7.748v2.335h7.7a17.869 17.869 0 012.546.174c3.4.44.352 7.856.352 7.856z"/><path data-name="Path 140561" d="M70.243 72.674a2.02 2.02 0 00.487 1.4 2.222 2.222 0 001.588.475h.108v2.324h-.108a4.22 4.22 0 01-3.113-1 4.42 4.42 0 01-.987-3.2c0-.077 0-.157.008-.236h2.02c0 .079-.007.161 0 .236"/><path data-name="Path 140562" d="M68.379 81.446h-3.876v2.339h3.827z"/><path data-name="Path 140563" d="M62.347 79.584a2.021 2.021 0 00.487 1.4 2.224 2.224 0 001.588.475h.108v2.324h-.108a4.22 4.22 0 01-3.113-1 4.421 4.421 0 01-.987-3.2c0-.077 0-.157.008-.236h2.019c0 .079-.007.16 0 .236"/><path data-name="Path 140564" d="M55.086 81.446h2.871v2.339h-2.822z"/><path data-name="Path 140565" d="M60.115 79.584a2.019 2.019 0 01-.487 1.4 2.225 2.225 0 01-1.588.475h-.108v2.324h.108a4.22 4.22 0 003.113-1 4.421 4.421 0 00.987-3.2c0-.077 0-.157-.008-.236h-2.02c0 .079.007.16 0 .236"/><path data-name="Path 140566" d="M112.172 71.505v7.9a2.221 2.221 0 01-.475 1.588 2.017 2.017 0 01-1.4.487h-.236l-.014 2.3h.25a4.42 4.42 0 003.2-.987 4.223 4.223 0 001.011-3.113v-8.175z"/><path data-name="Path 140567" d="M25.833 74.043v5.316a2.248 2.248 0 00.479 1.6 2.044 2.044 0 001.416.492h.239l.014 2.328h-.253a4.467 4.467 0 01-3.234-1 4.268 4.268 0 01-1.021-3.146v-5.595z"/><path data-name="Path 140568" d="M95.992 81.473h-29.5v2.311h31.93a4.586 4.586 0 01-2.434-2.311"/><path data-name="Path 140569" d="M103.576 81.473a4.586 4.586 0 01-2.433 2.311h8.932v-2.311z"/><path data-name="Path 140570" d="M105.047 78.871c0-.172.005-.367.005-.593q-.007-5.545-5.07-5.545h-.272q-5.07 0-5.07 5.545v1.004a6.853 6.853 0 001.217 4.506 4.011 4.011 0 002.28 1.247h3.417a4.014 4.014 0 002.281-1.247 6.856 6.856 0 001.217-4.506q0-.209-.005-.411m-2.679 3.029a1.959 1.959 0 01-1.043 1.015 3.861 3.861 0 01-2.957 0 2.467 2.467 0 01-1.182-1.136c-.216-.47-.374-1.122-.234-3.671a4.2 4.2 0 01.744-2.662 3.16 3.16 0 014.3 0 4.2 4.2 0 01.744 2.662v.051a10.936 10.936 0 01-.373 3.741"/><path data-name="Rectangle 15385" d="M60.108 77.449h2.311v2.741h-2.311z"/><path data-name="Path 140571" d="M47.926 81.446h1.339v2.339h-1.452z"/><path data-name="Path 140572" d="M51.426 79.584a2.02 2.02 0 01-.487 1.4 2.223 2.223 0 01-1.588.475h-.108v2.324h.108a4.219 4.219 0 003.113-1 4.421 4.421 0 00.987-3.2c0-.077 0-.157-.008-.236h-2.019c0 .079.007.16 0 .236"/><path data-name="Path 140573" d="M58.756 81.446H55.81v2.339h2.9z"/><path data-name="Path 140574" d="M53.657 79.584a2.02 2.02 0 00.487 1.4 2.224 2.224 0 001.588.475h.108v2.324h-.108a4.219 4.219 0 01-3.113-1 4.421 4.421 0 01-.987-3.2c0-.077 0-.157.008-.236h2.02c0 .079-.007.16 0 .236"/><path data-name="Rectangle 15386" d="M51.353 73.882h2.311v6.307h-2.311z"/><path data-name="Path 140575" d="M39.868 81.446h1.483v2.339h-1.433z"/><path data-name="Path 140576" d="M43.509 79.584a2.02 2.02 0 01-.487 1.4 2.223 2.223 0 01-1.588.475h-.108v2.324h.108a4.219 4.219 0 003.113-1 4.42 4.42 0 00.987-3.2c0-.077 0-.157-.008-.236h-2.019c0 .079.007.16 0 .236"/><path data-name="Path 140577" d="M45.741 79.584a2.019 2.019 0 00.487 1.4 2.223 2.223 0 001.588.475h.108v2.324h-.108a4.219 4.219 0 01-3.113-1 4.421 4.421 0 01-.987-3.2c0-.077 0-.157.008-.236h2.019c0 .079-.007.16 0 .236"/><path data-name="Rectangle 15387" d="M43.437 75.887h2.311v4.303h-2.311z"/><path data-name="Path 140578" d="M27.83 81.446h5.623v2.339H27.88z"/><path data-name="Path 140579" d="M35.611 79.584a2.02 2.02 0 01-.487 1.4 2.223 2.223 0 01-1.588.475h-.108v2.324h.108a4.219 4.219 0 003.113-1 4.421 4.421 0 00.987-3.2c0-.077 0-.157-.008-.236h-2.019c0 .079.007.16 0 .236"/><path data-name="Path 140580" d="M37.843 79.584a2.019 2.019 0 00.487 1.4 2.223 2.223 0 001.588.475h.108v2.324h-.108a4.219 4.219 0 01-3.113-1 4.42 4.42 0 01-.987-3.2c0-.077 0-.157.008-.236h2.02c0 .079-.007.16 0 .236"/><path data-name="Rectangle 15388" d="M35.539 76.942h2.311v3.247h-2.311z"/><path data-name="Rectangle 15389" d="M54.976 85.61h2.272v2.341h-2.272z"/><path data-name="Rectangle 15390" d="M58.616 85.61h2.272v2.341h-2.272z"/><path data-name="Rectangle 15391" d="M23.473 70.152h2.272v2.342h-2.272z"/><path data-name="Path 140581" d="M25.605 74.043v2.179H18.41l1.3 2.227a5.978 5.978 0 01.977 2.989 3.54 3.54 0 01-1.136 2.736 5 5 0 01-3.477 1.043H5.448a6.933 6.933 0 01-2.62-.452 3.816 3.816 0 01-1.7-1.263 5.57 5.57 0 01-.858-1.715 7.015 7.015 0 01-.267-1.994v-1.441h2.152v1.229q0 3.431 3.71 3.431h10.227q2.318 0 2.318-1.814a5.082 5.082 0 00-.857-2.3l-1.925-3.309v-1.546zM4.355 86.752h2.272v2.341H4.355zm3.64 0h2.272v2.341H7.995z"/><path data-name="Path 140582" d="M94.628 55.3a1.134 1.134 0 00-.335.753v9.193h-2.312V56.53a9.743 9.743 0 01.009-1.035 2.428 2.428 0 011.6-2.108 6.042 6.042 0 011.814-.236l.127 1.789a1.736 1.736 0 00-.907.36"/><path data-name="Path 140583" d="M85.632 66.978a20.428 20.428 0 001.394-6.831 5.5 5.5 0 00-.309-1.79 2.851 2.851 0 00-.932-1.292 3.876 3.876 0 00-1.616-.795 14.981 14.981 0 00-3.379-.273h-7.748v2.335h7.7a17.869 17.869 0 012.547.174c3.4.44.352 7.856.352 7.856z"/><path data-name="Path 140584" d="M70.884 54.135a2.019 2.019 0 00.487 1.4 2.223 2.223 0 001.588.475h.108v2.324h-.108a4.221 4.221 0 01-3.113-1 4.421 4.421 0 01-.986-3.2c0-.077 0-.157.008-.236h2.02c0 .079-.007.161 0 .236"/><path data-name="Path 140585" d="M42.689 63.74a16.116 16.116 0 00.427-3.593 5.489 5.489 0 00-.31-1.79 2.849 2.849 0 00-.932-1.292 3.87 3.87 0 00-1.615-.795 14.983 14.983 0 00-3.379-.273h-7.748v2.335h7.7a17.818 17.818 0 012.546.174c2.046.265 1.758 3.053 1.2 5.233-.367 1.445 1.779 1.537 2.11 0"/><path data-name="Path 140586" d="M26.974 54.135a2.02 2.02 0 00.487 1.4 2.222 2.222 0 001.588.475h.108v2.324h-.108a4.22 4.22 0 01-3.113-1 4.419 4.419 0 01-.987-3.2c0-.077 0-.157.008-.236h2.02c0 .079-.007.161 0 .236"/><path data-name="Path 140587" d="M52.257 62.935H24.949v2.311h27.909a5.648 5.648 0 01-.6-2.311"/><path data-name="Path 140588" d="M60.969 62.935a5.642 5.642 0 01-.6 2.311h28.033v-2.311z"/><path data-name="Path 140589" d="M61.876 62.573c0-.171.005-.367.005-.593q-.007-5.544-5.07-5.545h-.272q-5.07 0-5.07 5.545c0 .225 0 .422.005.593q-.005.2-.005.411a6.855 6.855 0 001.217 4.506 4.016 4.016 0 002.28 1.247h3.417a4.018 4.018 0 002.281-1.247 6.854 6.854 0 001.217-4.506q0-.209-.005-.411m-2.679 3.029a1.965 1.965 0 01-1.044 1.015 3.864 3.864 0 01-2.957 0 2.467 2.467 0 01-1.182-1.136c-.216-.47-.374-1.122-.234-3.671a4.2 4.2 0 01.744-2.662 3.16 3.16 0 014.3 0 4.2 4.2 0 01.744 2.662v.051a10.948 10.948 0 01-.372 3.741"/><path data-name="Path 140590" d="M95.325 50.695l1.183-.206v1.083l-5.053.881V51.37l1.639-.286a2.046 2.046 0 01-.9-1.708 1.912 1.912 0 01.545-1.449 2.307 2.307 0 012.817-.081l-.487.927a1.392 1.392 0 00-.811-.278.891.891 0 00-.7.281 1.068 1.068 0 00-.255.748 1.11 1.11 0 00.521.994 2.093 2.093 0 001.495.176"/><path data-name="Path 140591" d="M84.129 41.673a2.606 2.606 0 112.605-2.6 2.609 2.609 0 01-2.605 2.6m0-4.835a2.23 2.23 0 102.23 2.23 2.233 2.233 0 00-2.23-2.23"/><path data-name="Path 140592" d="M83.303 37.844a3.373 3.373 0 01.628-.053 1.037 1.037 0 01.733.207.631.631 0 01.2.481.665.665 0 01-.478.647v.011a.632.632 0 01.373.512 3.906 3.906 0 00.2.7h-.339a3.321 3.321 0 01-.169-.605c-.076-.35-.211-.481-.508-.492h-.308v1.1h-.328zm.328 1.154h.334c.349 0 .572-.191.572-.481 0-.327-.237-.47-.583-.474a1.31 1.31 0 00-.323.031z"/></g></svg>