<svg xmlns="http://www.w3.org/2000/svg" width="224.829" height="191.636"><g data-name="Group 120682" fill="#fff"><path data-name="Path 140558" d="M96.295 186.169c.048 0 .072.019.072.058v1.645a.064.064 0 01-.072.072h-4.479a4.791 4.791 0 01-3.181-.956 3.3 3.3 0 01-1.132-2.665 3.614 3.614 0 01.519-1.933 3.4 3.4 0 011.49-1.3 5.354 5.354 0 012.3-.458h.411v-.722h2.229v6.261zm-4.046 0v-3.764h-.39a2.227 2.227 0 00-1.554.5 1.848 1.848 0 00-.544 1.436 1.721 1.721 0 00.533 1.356 2.235 2.235 0 001.536.476zm-1.377-7.191a.94.94 0 01-.721-.285 1.088 1.088 0 01-.266-.775 1.107 1.107 0 01.263-.782.939.939 0 01.725-.285.925.925 0 01.714.281 1.117 1.117 0 01.26.786 1.085 1.085 0 01-.267.783.937.937 0 01-.709.278zm2.51 0a.939.939 0 01-.721-.285 1.087 1.087 0 01-.267-.775 1.107 1.107 0 01.263-.782.938.938 0 01.725-.285.927.927 0 01.721.285 1.119 1.119 0 01.259.782 1.081 1.081 0 01-.27.775.934.934 0 01-.711.286zm2.766 8.965a.064.064 0 01-.073-.072v-1.646c0-.038.024-.058.073-.058h1.738v-5.539h2.207v2.589a4.291 4.291 0 014-2.733 3.632 3.632 0 012.733.955 4.115 4.115 0 01.923 2.953v1.774h1.926c.048 0 .073.019.073.058v1.645a.064.064 0 01-.073.072zm9.4-1.774v-1.817a2.2 2.2 0 00-.494-1.583 2.043 2.043 0 00-1.526-.509q-1.99 0-3.44 2.755v1.154zm-2.193-6.808a.951.951 0 01-.729-.285 1.089 1.089 0 01-.267-.776 1.108 1.108 0 01.263-.782.945.945 0 01.732-.285.926.926 0 01.711.281 1.107 1.107 0 01.263.786 1.08 1.08 0 01-.27.776.926.926 0 01-.699.285zm6.17 8.583a.064.064 0 01-.072-.072v-1.647c0-.038.025-.058.072-.058h1.847v-5.539h2.2v7.313zm2.82 3.692a.948.948 0 01-.729-.285 1.09 1.09 0 01-.267-.776 1.106 1.106 0 01.263-.782.948.948 0 01.733-.286.927.927 0 01.71.281 1.106 1.106 0 01.263.786 1.08 1.08 0 01-.27.776.924.924 0 01-.696.286zm8.893-5.467c.048 0 .072.019.072.058v1.645a.064.064 0 01-.072.072h-4.046v-11.219h2.2v9.448zm10.045 0c.048 0 .072.019.072.058v1.645a.064.064 0 01-.072.072h-10.187a.064.064 0 01-.072-.072v-1.647c0-.038.024-.058.072-.058h2.113a2.929 2.929 0 01-.714-1.947 3.266 3.266 0 011.14-2.622 4.747 4.747 0 013.173-.97h2.632v5.539zm-5.589-6.808a.942.942 0 01-.721-.285 1.089 1.089 0 01-.266-.776 1.107 1.107 0 01.263-.782.937.937 0 01.725-.285.923.923 0 01.714.281 1.114 1.114 0 01.26.786 1.084 1.084 0 01-.267.783.937.937 0 01-.705.278zm1.543 6.808v-3.764h-.385a2.228 2.228 0 00-1.544.494 1.839 1.839 0 00-.548 1.439 1.728 1.728 0 00.53 1.356 2.222 2.222 0 001.533.476zm.966-6.808a.942.942 0 01-.721-.285 1.088 1.088 0 01-.267-.776 1.108 1.108 0 01.263-.782.938.938 0 01.725-.285.925.925 0 01.721.285 1.117 1.117 0 01.26.782 1.081 1.081 0 01-.27.776.937.937 0 01-.707.285zm2.933 8.583a.064.064 0 01-.072-.072v-1.647c0-.038.025-.058.072-.058h1.846v-9.442h2.2v11.223zm7.889-11.223h2.2v11.223h-2.2z"/><path data-name="Rectangle 15382" d="M98.503 0h8.081v83.16h-8.081z"/><path data-name="Rectangle 15383" d="M110.656 0h8.081v83.16h-8.081z"/><path data-name="Rectangle 15384" d="M122.807 0h8.081v83.16h-8.081z"/><path data-name="Path 140559" d="M223.149 134.626a2.1 2.1 0 00-.619 1.394v19.077h-4.279v-18.2a17.78 17.78 0 01.016-1.916 4.5 4.5 0 012.97-3.9 11.184 11.184 0 013.357-.437l.235 3.312a3.219 3.219 0 00-1.679.667"/><path data-name="Path 140560" d="M157.329 158.301a37.781 37.781 0 002.581-12.645 10.164 10.164 0 00-.573-3.313 5.277 5.277 0 00-1.726-2.392 7.174 7.174 0 00-2.989-1.471 27.751 27.751 0 00-6.256-.505h-14.342v4.323h14.25a33.079 33.079 0 014.713.322c6.295.815.651 14.542.651 14.542z"/><path data-name="Path 140561" d="M130.031 134.529a3.738 3.738 0 00.9 2.592 4.114 4.114 0 002.939.88h.2v4.3h-.2q-3.934 0-5.762-1.852t-1.827-5.923c0-.143.008-.291.014-.437h3.736c0 .147-.012.3 0 .437"/><path data-name="Path 140562" d="M126.581 150.768h-7.175v4.323h7.084z"/><path data-name="Path 140563" d="M115.413 147.321a3.741 3.741 0 00.9 2.593 4.118 4.118 0 002.939.878h.2v4.3h-.2q-3.934 0-5.763-1.851t-1.827-5.924c0-.142.009-.291.015-.437h3.738c0 .147-.012.3 0 .437"/><path data-name="Path 140564" d="M101.973 150.768h5.315v4.323h-5.224z"/><path data-name="Path 140565" d="M111.282 147.321a3.738 3.738 0 01-.9 2.593 4.119 4.119 0 01-2.94.878h-.2v4.3h.2q3.934 0 5.763-1.851t1.826-5.924c0-.142-.008-.291-.014-.437h-3.739c0 .147.013.3 0 .437"/><path data-name="Path 140566" d="M207.648 132.363v14.636a4.112 4.112 0 01-.879 2.939 3.735 3.735 0 01-2.592.9c-.14.008-.29 0-.437 0l-.026 4.265h.463q4.073 0 5.924-1.826c1.235-1.22 1.872-3.14 1.872-5.763v-15.151z"/><path data-name="Path 140567" d="M47.821 137.064v9.84a4.162 4.162 0 00.888 2.97 3.783 3.783 0 002.62.912c.141.008.293 0 .442 0l.026 4.309h-.467q-4.117 0-5.987-1.847c-1.246-1.232-1.891-3.172-1.891-5.823v-10.361z"/><path data-name="Path 140568" d="M177.696 150.818h-54.6v4.278h59.107a8.489 8.489 0 01-4.505-4.278"/><path data-name="Path 140569" d="M191.735 150.818a8.49 8.49 0 01-4.5 4.278h16.535v-4.278z"/><path data-name="Path 140570" d="M194.457 146.002c.006-.318.01-.68.01-1.1q-.012-10.264-9.385-10.265h-.503q-9.386 0-9.385 10.265c0 .417 0 .78.009 1.1-.007.249-.009.5-.009.76q0 5.708 2.253 8.341a7.426 7.426 0 004.221 2.308h6.325a7.431 7.431 0 004.222-2.308q2.252-2.632 2.252-8.341 0-.386-.01-.76m-4.959 5.606a3.627 3.627 0 01-1.931 1.88 7.147 7.147 0 01-5.474 0 4.568 4.568 0 01-2.188-2.1c-.4-.87-.692-2.076-.432-6.795a7.776 7.776 0 011.377-4.928 5.849 5.849 0 017.958 0 7.779 7.779 0 011.377 4.928v.094a20.245 20.245 0 01-.69 6.924"/><path data-name="Rectangle 15385" d="M111.268 143.369h4.278v5.073h-4.278z"/><path data-name="Path 140571" d="M88.724 150.768h2.479v4.323h-2.688z"/><path data-name="Path 140572" d="M95.196 147.321a3.738 3.738 0 01-.9 2.593 4.116 4.116 0 01-2.939.878h-.2v4.3h.2q3.934 0 5.762-1.851t1.827-5.924c0-.142-.008-.291-.015-.437h-3.738c0 .147.013.3 0 .437"/><path data-name="Path 140573" d="M108.774 150.768h-5.453v4.323h5.362z"/><path data-name="Path 140574" d="M99.327 147.321a3.74 3.74 0 00.9 2.593 4.116 4.116 0 002.939.878h.2v4.3h-.2q-3.934 0-5.762-1.851t-1.827-5.924c0-.142.008-.291.015-.437h3.738c0 .147-.012.3 0 .437"/><path data-name="Rectangle 15386" d="M95.062 136.766h4.278v11.676h-4.278z"/><path data-name="Path 140575" d="M73.801 150.768h2.745v4.323h-2.653z"/><path data-name="Path 140576" d="M80.541 147.321a3.74 3.74 0 01-.9 2.593 4.116 4.116 0 01-2.939.878h-.2v4.3h.2q3.934 0 5.762-1.851t1.827-5.924c0-.142-.008-.291-.015-.437h-3.738c0 .147.013.3 0 .437"/><path data-name="Path 140577" d="M84.672 147.321a3.738 3.738 0 00.9 2.593 4.116 4.116 0 002.939.878h.2v4.3h-.2q-3.934 0-5.762-1.851t-1.827-5.924c0-.142.008-.291.014-.437h3.738c0 .147-.012.3 0 .437"/><path data-name="Rectangle 15387" d="M80.409 140.476h4.278v7.966h-4.278z"/><path data-name="Path 140578" d="M51.518 150.768h10.409v4.323H51.61z"/><path data-name="Path 140579" d="M65.921 147.321a3.739 3.739 0 01-.9 2.593 4.116 4.116 0 01-2.939.878h-.2v4.3h.2q3.933 0 5.762-1.851t1.827-5.924c0-.142-.008-.291-.014-.437h-3.738c0 .147.012.3 0 .437"/><path data-name="Path 140580" d="M70.053 147.321a3.738 3.738 0 00.9 2.593 4.116 4.116 0 002.939.878h.2v4.3h-.2q-3.934 0-5.762-1.851t-1.827-5.924c0-.142.008-.291.014-.437h3.739c0 .147-.013.3 0 .437"/><path data-name="Rectangle 15388" d="M65.788 142.431h4.278v6.011h-4.278z"/><path data-name="Rectangle 15389" d="M101.769 158.476h4.206v4.334h-4.206z"/><path data-name="Rectangle 15390" d="M108.506 158.476h4.206v4.334h-4.206z"/><path data-name="Rectangle 15391" d="M43.453 129.861h4.205v4.335h-4.205z"/><path data-name="Path 140581" d="M47.398 137.064v4.034H34.08l2.4 4.123a11.066 11.066 0 011.808 5.533 6.553 6.553 0 01-2.1 5.064q-2.1 1.931-6.437 1.931H10.085a12.831 12.831 0 01-4.849-.837 7.063 7.063 0 01-3.154-2.339 10.309 10.309 0 01-1.588-3.176A12.986 12.986 0 010 147.706v-2.661h3.991v2.275q0 6.351 6.867 6.351h18.931q4.291 0 4.291-3.359a9.406 9.406 0 00-1.587-4.263l-3.563-6.125v-2.862zM8.067 160.581h4.206v4.334H8.067zm6.738 0h4.206v4.334h-4.206z"/><path data-name="Path 140582" d="M175.172 102.368a2.1 2.1 0 00-.62 1.394v17.017h-4.28v-16.135a18.092 18.092 0 01.016-1.916 4.5 4.5 0 012.971-3.9 11.185 11.185 0 013.357-.437l.235 3.312a3.213 3.213 0 00-1.68.667"/><path data-name="Path 140583" d="M158.516 123.985a37.811 37.811 0 002.581-12.645 10.171 10.171 0 00-.573-3.313 5.277 5.277 0 00-1.726-2.392 7.177 7.177 0 00-2.991-1.472 27.738 27.738 0 00-6.255-.505h-14.341v4.323h14.25a33.077 33.077 0 014.714.322c6.294.814.651 14.542.651 14.542z"/><path data-name="Path 140584" d="M131.216 100.212a3.737 3.737 0 00.9 2.592 4.115 4.115 0 002.94.88h.2v4.3h-.2q-3.934 0-5.763-1.852t-1.826-5.923c0-.143.008-.291.014-.437h3.739c0 .147-.013.3 0 .437"/><path data-name="Path 140585" d="M79.028 117.991a29.833 29.833 0 00.79-6.651 10.163 10.163 0 00-.573-3.314 5.275 5.275 0 00-1.726-2.392 7.164 7.164 0 00-2.99-1.471 27.742 27.742 0 00-6.255-.505H53.928v4.323h14.251a32.976 32.976 0 014.713.323c3.787.49 3.253 5.652 2.227 9.688-.68 2.674 3.293 2.845 3.905 0"/><path data-name="Path 140586" d="M49.932 100.212a3.739 3.739 0 00.9 2.592 4.112 4.112 0 002.939.88h.2v4.3h-.2q-3.934 0-5.762-1.852t-1.827-5.923c0-.143.008-.291.015-.437h3.738c0 .147-.013.3 0 .437"/><path data-name="Path 140587" d="M96.735 116.501H46.184v4.278h51.664a10.456 10.456 0 01-1.113-4.278"/><path data-name="Path 140588" d="M112.862 116.501a10.444 10.444 0 01-1.112 4.278h51.893v-4.278z"/><path data-name="Path 140589" d="M114.54 115.831c.006-.317.01-.68.01-1.1q-.013-10.263-9.386-10.265h-.503q-9.385 0-9.385 10.265c0 .417 0 .781.009 1.1q-.01.374-.009.76 0 5.709 2.253 8.342a7.434 7.434 0 004.226 2.311h6.325a7.438 7.438 0 004.222-2.307q2.252-2.632 2.253-8.342 0-.386-.01-.76m-4.958 5.607a3.637 3.637 0 01-1.932 1.88 7.153 7.153 0 01-5.473 0 4.565 4.565 0 01-2.187-2.1c-.4-.87-.692-2.076-.433-6.795a7.771 7.771 0 011.377-4.928 5.849 5.849 0 017.958 0 7.775 7.775 0 011.377 4.928v.094a20.262 20.262 0 01-.689 6.925"/><path data-name="Path 140590" d="M176.454 93.843l2.191-.381v2l-9.353 1.631v-2l3.033-.529a3.788 3.788 0 01-1.661-3.162 3.54 3.54 0 011.009-2.683 4.27 4.27 0 015.214-.149l-.9 1.716a2.577 2.577 0 00-1.5-.515 1.649 1.649 0 00-1.287.521 1.977 1.977 0 00-.473 1.385 2.055 2.055 0 00.965 1.84 3.875 3.875 0 002.767.326"/><path data-name="Path 140591" d="M155.735 77.142a4.823 4.823 0 114.823-4.822 4.829 4.829 0 01-4.823 4.822m0-8.951a4.127 4.127 0 104.127 4.128 4.133 4.133 0 00-4.127-4.128"/><path data-name="Path 140592" d="M154.206 70.054a6.247 6.247 0 011.163-.1 1.92 1.92 0 011.358.383 1.168 1.168 0 01.369.891 1.232 1.232 0 01-.885 1.2v.021a1.17 1.17 0 01.69.948 7.235 7.235 0 00.362 1.287h-.627a6.157 6.157 0 01-.313-1.12c-.141-.648-.391-.891-.941-.912h-.57v2.032h-.606zm.606 2.137h.619c.647 0 1.058-.354 1.058-.891 0-.6-.438-.87-1.079-.878a2.425 2.425 0 00-.6.057z"/></g></svg>