<svg xmlns="http://www.w3.org/2000/svg" width="69.902" height="62.216"><g data-name="Group 127650" transform="translate(-1388.896 -590)" fill="#ddbe86"><circle data-name="Ellipse 540" cx="20.5" cy="20.5" r="20.5" transform="translate(1417.799 611.216)" opacity=".2"/><path data-name="Path 148838" d="M1427.424 616.279h-8.254a2.61 2.61 0 00-2.607 2.607v4.215a2.61 2.61 0 002.607 2.607h8.252a2.61 2.61 0 002.607-2.607v-4.215a2.61 2.61 0 00-2.605-2.607zm.592 6.822a.592.592 0 01-.592.592h-8.254a.592.592 0 01-.592-.592v-4.215a.592.592 0 01.592-.592h8.252a.592.592 0 01.592.592zm0 0"/><path data-name="Path 148839" d="M1457.687 601.278a2.794 2.794 0 00-2.775-2.505h-19.684v-4.72a4.058 4.058 0 00-4.053-4.053h-15.753a4.058 4.058 0 00-4.053 4.053v4.72h-19.683a2.793 2.793 0 00-2.775 2.505 2.682 2.682 0 00-.015.284v39.789a2.793 2.793 0 002.79 2.79h63.225a2.793 2.793 0 002.79-2.79v-39.789a2.841 2.841 0 00-.014-.284zm-44.3-7.225a2.04 2.04 0 012.037-2.037h15.751a2.04 2.04 0 012.037 2.037v4.72h-1.294v-3.936a1.529 1.529 0 00-1.522-1.527h-14.191a1.529 1.529 0 00-1.527 1.527v3.936h-1.294zm16.516 1.273v3.447h-13.207v-3.447zm25.782 7.609a6.54 6.54 0 01-3.724 5.885l-18.752 8.88a1.008 1.008 0 00.862 1.822l18.752-8.881a8.5 8.5 0 002.862-2.211v32.921a.774.774 0 01-.774.774h-63.225a.774.774 0 01-.774-.774v-32.92a8.5 8.5 0 002.862 2.211l18.785 8.9a1.008 1.008 0 00.863-1.822l-18.786-8.901a6.54 6.54 0 01-3.724-5.885v-1.372a.791.791 0 010-.079.774.774 0 01.77-.694h63.229a.774.774 0 01.77.694v.079zm0 0"/></g></svg>