<svg xmlns="http://www.w3.org/2000/svg" width="54.551" height="62.216"><g data-name="Group 127652" transform="translate(-1404.248 -590)"><circle data-name="Ellipse 540" cx="20.5" cy="20.5" r="20.5" transform="translate(1417.799 611.216)" fill="#ddbe86" opacity=".2"/><g data-name="4381121"><g data-name="Group 127290" fill="#ddbe86"><path data-name="Path 148844" d="M1441.293 590h-35.988a1.057 1.057 0 00-1.057 1.057v5.9a1.057 1.057 0 001.057 1.057h2.491l13.216 13.202a16.636 16.636 0 104.581 0l13.213-13.2h2.491a1.057 1.057 0 001.057-1.057v-5.9a1.057 1.057 0 00-1.061-1.059zm-17.994 10.294l-2.287-2.281h4.57zm-1.5 1.495l-3.614 3.611-7.4-7.392h7.236zm16.021 25.811a14.521 14.521 0 11-14.52-14.426 14.49 14.49 0 0114.52 14.426zm-14.521-17.085l-3.618-3.615 8.893-8.887h7.238zm16.936-14.615h-33.872v-3.785h33.873z"/><path data-name="Path 148845" d="M1422.427 621.313l-1.841 2.686-3.123.921a1.057 1.057 0 00-.539 1.659l1.985 2.58-.089 3.255a1.057 1.057 0 001.411 1.025l3.068-1.091 3.068 1.091a1.057 1.057 0 001.411-1.025l-.089-3.255 1.985-2.58a1.057 1.057 0 00-.539-1.659l-3.123-.921-1.841-2.686a1.058 1.058 0 00-1.745 0zm2.053 4.192a1.057 1.057 0 00.573.416l2 .591-1.274 1.656a1.058 1.058 0 00-.219.674l.057 2.088-1.968-.7a1.058 1.058 0 00-.709 0l-1.968.7.057-2.088a1.058 1.058 0 00-.219-.674l-1.274-1.656 2-.591a1.058 1.058 0 00.573-.416l1.181-1.723z"/></g></g></g></svg>