<svg xmlns="http://www.w3.org/2000/svg" width="16" height="16" viewBox="0 0 16 16">
  <path id="Path_148927" data-name="Path 148927" d="M-.75-14H-4.969a1.068,1.068,0,0,0-.969.625,1.027,1.027,0,0,0,.25,1.125L-4.437-11l-6.031,6.031a1.059,1.059,0,0,0,0,1.438,1.1,1.1,0,0,0,.719.281,1.1,1.1,0,0,0,.719-.281L-3-9.562l1.25,1.25A.949.949,0,0,0-1.031-8a1.583,1.583,0,0,0,.406-.062A1.068,1.068,0,0,0,0-9.031V-13.25A.76.76,0,0,0-.75-14Zm-3,10a.76.76,0,0,0-.75.75V.25A.269.269,0,0,1-4.75.5h-9.5A.269.269,0,0,1-14.5.25v-9.5a.269.269,0,0,1,.25-.25h3.5a.76.76,0,0,0,.75-.75.76.76,0,0,0-.75-.75h-3.5A1.747,1.747,0,0,0-16-9.25V.25A1.747,1.747,0,0,0-14.25,2h9.5A1.747,1.747,0,0,0-3,.25v-3.5A.76.76,0,0,0-3.75-4Z" transform="translate(16 14)" fill="#343333"/>
</svg>
