<svg xmlns="http://www.w3.org/2000/svg" width="16" height="16"><path data-name="Path 148927" d="M15.25 0h-4.219a1.068 1.068 0 00-.969.625 1.027 1.027 0 00.25 1.125L11.563 3 5.532 9.031a1.059 1.059 0 000 1.438 1.1 1.1 0 00.719.281 1.1 1.1 0 00.719-.281L13 4.438l1.25 1.25a.949.949 0 00.719.312 1.583 1.583 0 00.406-.062A1.068 1.068 0 0016 4.969V.75a.76.76 0 00-.75-.75zm-3 10a.76.76 0 00-.75.75v3.5a.269.269 0 01-.25.25h-9.5a.269.269 0 01-.25-.25v-9.5a.269.269 0 01.25-.25h3.5A.76.76 0 006 3.75.76.76 0 005.25 3h-3.5A1.747 1.747 0 000 4.75v9.5A1.747 1.747 0 001.75 16h9.5A1.747 1.747 0 0013 14.25v-3.5a.76.76 0 00-.75-.75z" fill="#343333"/></svg>