<svg xmlns="http://www.w3.org/2000/svg" width="14" height="11.371"><path d="M12.561 2.836A6.168 6.168 0 0014 1.351a5.752 5.752 0 01-1.652.444A2.862 2.862 0 0013.609.214a5.649 5.649 0 01-1.821.693 2.862 2.862 0 00-2.1-.906A2.868 2.868 0 006.822 2.87a3.239 3.239 0 00.071.657 8.156 8.156 0 01-5.916-3 2.848 2.848 0 00-.391 1.448 2.867 2.867 0 001.279 2.39 2.889 2.889 0 01-1.3-.364v.035a2.87 2.87 0 002.3 2.816 3.034 3.034 0 01-.755.1 3.616 3.616 0 01-.542-.044 2.874 2.874 0 002.683 1.99 5.746 5.746 0 01-3.558 1.221A5.938 5.938 0 010 10.083a8.108 8.108 0 004.406 1.288 8.269 8.269 0 004.672-1.415 8.242 8.242 0 003.492-6.748c0-.125 0-.249-.009-.372z" fill="#343333"/></svg>