<svg xmlns="http://www.w3.org/2000/svg" width="27.832" height="27.957"><path data-name="Path 3142" d="M10.51 8.06c-.259-.577-.532-.588-.779-.6-.2-.009-.433-.008-.663-.008a1.272 1.272 0 00-.923.433 3.881 3.881 0 00-1.212 2.888 6.735 6.735 0 001.414 3.581c.173.231 2.4 3.839 5.915 5.227 2.925 1.153 3.52.924 4.155.866a3.5 3.5 0 002.337-1.646 2.9 2.9 0 00.2-1.646c-.087-.144-.317-.231-.664-.4s-2.049-1.011-2.366-1.126-.548-.173-.779.173-.894 1.126-1.1 1.357-.4.26-.75.087a9.475 9.475 0 01-2.785-1.719 10.436 10.436 0 01-1.926-2.4c-.2-.346-.022-.534.152-.707.155-.155.346-.4.519-.606a2.374 2.374 0 00.346-.577.638.638 0 00-.029-.607c-.081-.173-.754-1.885-1.062-2.57z" fill="#fff" fill-rule="evenodd"/><path data-name="Path 3143" d="M23.777 4.063A13.859 13.859 0 001.966 20.778L0 27.957l7.346-1.926a13.848 13.848 0 006.622 1.686h.006a13.859 13.859 0 009.8-23.654zm-9.8 21.315a11.5 11.5 0 01-5.862-1.605l-.421-.249-4.367 1.142 1.164-4.249-.274-.436a11.519 11.519 0 119.757 5.4z" fill="#fff"/></svg>