<svg xmlns="http://www.w3.org/2000/svg" width="14" height="14" viewBox="0 0 14 14">
  <path id="copy" d="M-1.75-12.25H-7.875a1.762,1.762,0,0,0-1.75,1.75v6.125a1.762,1.762,0,0,0,1.75,1.75H-1.75A1.762,1.762,0,0,0,0-4.375V-10.5A1.762,1.762,0,0,0-1.75-12.25Zm.438,7.875a.432.432,0,0,1-.437.438H-7.875a.432.432,0,0,1-.437-.437V-10.5a.432.432,0,0,1,.438-.437H-1.75a.432.432,0,0,1,.438.438ZM-5.687,0a.432.432,0,0,1-.437.438H-12.25A.432.432,0,0,1-12.687,0V-6.125a.432.432,0,0,1,.438-.437h1.75V-7.875h-1.75A1.762,1.762,0,0,0-14-6.125V0a1.762,1.762,0,0,0,1.75,1.75h6.125A1.762,1.762,0,0,0-4.375,0V-1.75H-5.687Z" transform="translate(14 12.25)" fill="#343333"/>
</svg>
