<svg xmlns="http://www.w3.org/2000/svg" width="26.25" height="30" viewBox="0 0 26.25 30">
  <path id="enail_con" d="M0-20.625H0a5.648,5.648,0,0,1,5.156,3.34,5.593,5.593,0,0,1-1,6.035h.527A2.854,2.854,0,0,0,7.09-12.6,7.938,7.938,0,0,0,7.5-15,7.477,7.477,0,0,0,0-22.5,7.477,7.477,0,0,0-7.5-15,7.421,7.421,0,0,0-4.687-9.2v-.176A3.635,3.635,0,0,1-4.16-11.25a5.593,5.593,0,0,1-1-6.035A5.648,5.648,0,0,1,0-20.625Zm-10.312,7.5a.926.926,0,0,0,.938-.937V-15A9.4,9.4,0,0,1,0-24.375,9.4,9.4,0,0,1,9.375-15v.938A4.7,4.7,0,0,1,4.688-9.375H2.813A1.851,1.851,0,0,0,.938-11.25H-.937A1.851,1.851,0,0,0-2.812-9.375,1.851,1.851,0,0,0-.937-7.5H4.688a6.552,6.552,0,0,0,6.563-6.562V-15A11.253,11.253,0,0,0,0-26.25,11.253,11.253,0,0,0-11.25-15v.938A.926.926,0,0,0-10.312-13.125Zm15.645,7.5H-5.332a7.827,7.827,0,0,0-7.793,7.793A1.575,1.575,0,0,0-11.543,3.75H11.543a1.575,1.575,0,0,0,1.582-1.582A7.827,7.827,0,0,0,5.332-5.625Zm-16.582,7.5A5.964,5.964,0,0,1-5.332-3.75H5.332A5.964,5.964,0,0,1,11.25,1.875Z" transform="translate(13.125 26.25)" fill="#fff"/>
</svg>
