<svg xmlns="http://www.w3.org/2000/svg" width="28.125" height="28.125" viewBox="0 0 28.125 28.125">
  <path id="helps" d="M10.547-1.992a13.946,13.946,0,0,0,3.516-9.258,13.946,13.946,0,0,0-3.516-9.258l.41-.41a.829.829,0,0,0,0-1.289.869.869,0,0,0-1.289,0l-.41.41A13.946,13.946,0,0,0,0-25.312,13.946,13.946,0,0,0-9.258-21.8l-.41-.41a.829.829,0,0,0-1.289,0,.869.869,0,0,0,0,1.289l.41.41a13.946,13.946,0,0,0-3.516,9.258,13.946,13.946,0,0,0,3.516,9.258l-.41.41a.829.829,0,0,0,0,1.289A.941.941,0,0,0-10.312,0a.941.941,0,0,0,.645-.293l.41-.41A13.946,13.946,0,0,0,0,2.813,13.946,13.946,0,0,0,9.258-.7l.41.41A.941.941,0,0,0,10.313,0a.941.941,0,0,0,.645-.293.829.829,0,0,0,0-1.289Zm1.641-9.258a12.065,12.065,0,0,1-2.93,7.91L4.57-8.027A5.44,5.44,0,0,0,5.625-11.25,5.44,5.44,0,0,0,4.57-14.473L9.258-19.16A12.065,12.065,0,0,1,12.188-11.25Zm-15.937,0A3.776,3.776,0,0,1,0-15a3.776,3.776,0,0,1,3.75,3.75A3.776,3.776,0,0,1,0-7.5,3.776,3.776,0,0,1-3.75-11.25ZM0-23.437a12.065,12.065,0,0,1,7.91,2.93L3.223-15.82A5.44,5.44,0,0,0,0-16.875,5.44,5.44,0,0,0-3.223-15.82L-7.91-20.508A12.065,12.065,0,0,1,0-23.437ZM-12.187-11.25a12.065,12.065,0,0,1,2.93-7.91l4.688,4.688A5.44,5.44,0,0,0-5.625-11.25,5.44,5.44,0,0,0-4.57-8.027L-9.258-3.34A12.065,12.065,0,0,1-12.187-11.25ZM0,.938a12.065,12.065,0,0,1-7.91-2.93L-3.223-6.68A5.44,5.44,0,0,0,0-5.625,5.44,5.44,0,0,0,3.223-6.68L7.91-1.992A12.065,12.065,0,0,1,0,.938Z" transform="translate(14.063 25.313)" fill="#fff"/>
</svg>
