<svg xmlns="http://www.w3.org/2000/svg" width="22.763" height="22.757" viewBox="0 0 22.763 22.757">
  <path id="insta-white" d="M.005-15.59A5.826,5.826,0,0,0-5.83-9.755,5.826,5.826,0,0,0,.005-3.92,5.826,5.826,0,0,0,5.84-9.755,5.826,5.826,0,0,0,.005-15.59Zm0,9.628A3.8,3.8,0,0,1-3.788-9.755,3.8,3.8,0,0,1,.005-13.548,3.8,3.8,0,0,1,3.8-9.755,3.8,3.8,0,0,1,.005-5.962Zm7.434-9.867a1.361,1.361,0,0,0-1.361-1.361,1.361,1.361,0,0,0-1.361,1.361,1.358,1.358,0,0,0,1.361,1.361A1.358,1.358,0,0,0,7.439-15.829ZM11.3-14.447a6.735,6.735,0,0,0-1.838-4.768A6.779,6.779,0,0,0,4.7-21.054c-1.879-.107-7.511-.107-9.389,0a6.769,6.769,0,0,0-4.768,1.833A6.757,6.757,0,0,0-11.3-14.452c-.107,1.879-.107,7.511,0,9.389A6.735,6.735,0,0,0-9.461-.295,6.788,6.788,0,0,0-4.692,1.544c1.879.107,7.511.107,9.389,0A6.735,6.735,0,0,0,9.466-.295,6.779,6.779,0,0,0,11.3-5.063C11.411-6.942,11.411-12.568,11.3-14.447ZM8.877-3.047A3.84,3.84,0,0,1,6.713-.884c-1.5.594-5.053.457-6.708.457S-5.21-.295-6.7-.884A3.84,3.84,0,0,1-8.866-3.047c-.594-1.5-.457-5.053-.457-6.708s-.132-5.215.457-6.708A3.84,3.84,0,0,1-6.7-18.627c1.5-.594,5.053-.457,6.708-.457s5.215-.132,6.708.457a3.84,3.84,0,0,1,2.163,2.163c.594,1.5.457,5.053.457,6.708S9.471-4.54,8.877-3.047Z" transform="translate(11.379 21.134)" fill="#fff"/>
</svg>
