<svg xmlns="http://www.w3.org/2000/svg" width="12.25" height="12.25" viewBox="0 0 12.25 12.25">
  <path id="link-black" d="M5.25-11.375h-10.5a.879.879,0,0,0-.872.883V-.008a.879.879,0,0,0,.872.883H5.25a.881.881,0,0,0,.875-.883V-10.492A.881.881,0,0,0,5.25-11.375ZM-2.423-.875H-4.238V-6.721H-2.42V-.875ZM-3.33-7.52A1.053,1.053,0,0,1-4.383-8.572,1.053,1.053,0,0,1-3.33-9.625,1.055,1.055,0,0,1-2.278-8.572,1.051,1.051,0,0,1-3.33-7.52ZM4.383-.875H2.568V-3.719c0-.678-.014-1.55-.943-1.55-.946,0-1.091.738-1.091,1.5V-.875H-1.282V-6.721H.459v.8H.484A1.912,1.912,0,0,1,2.2-6.866c1.838,0,2.179,1.211,2.179,2.786Z" transform="translate(6.125 11.375)" fill="#ddbe86"/>
</svg>
