<svg xmlns="http://www.w3.org/2000/svg" width="121.455" height="103.523" viewBox="0 0 121.455 103.523">
  <g id="Group_120682" data-name="Group 120682" transform="translate(-8451.645 -9716.337)">
    <path id="Path_140558" data-name="Path 140558" d="M921.9,737.4c.026,0,.039.01.039.031v.888a.035.035,0,0,1-.039.039h-2.42a2.588,2.588,0,0,1-1.718-.516,1.782,1.782,0,0,1-.611-1.44,1.952,1.952,0,0,1,.28-1.044,1.836,1.836,0,0,1,.8-.7,2.893,2.893,0,0,1,1.245-.247h.222v-.39h1.2V737.4Zm-2.186,0v-2.034h-.21a1.2,1.2,0,0,0-.84.269,1,1,0,0,0-.294.775.929.929,0,0,0,.288.732,1.207,1.207,0,0,0,.83.257Zm-.744-3.884a.508.508,0,0,1-.39-.154.588.588,0,0,1-.144-.419.6.6,0,0,1,.142-.423.507.507,0,0,1,.392-.154.5.5,0,0,1,.386.152.6.6,0,0,1,.14.425.586.586,0,0,1-.144.423A.506.506,0,0,1,918.97,733.516Zm1.356,0a.507.507,0,0,1-.39-.154.587.587,0,0,1-.144-.419.6.6,0,0,1,.142-.423.507.507,0,0,1,.392-.154.5.5,0,0,1,.39.154.6.6,0,0,1,.14.423.584.584,0,0,1-.146.419A.5.5,0,0,1,920.326,733.516Zm1.494,4.843a.035.035,0,0,1-.039-.039v-.888c0-.021.013-.031.039-.031h.939v-2.992h1.192v1.4a2.318,2.318,0,0,1,2.162-1.477,1.962,1.962,0,0,1,1.476.516,2.223,2.223,0,0,1,.5,1.6v.959h1.04c.026,0,.039.01.039.031v.888a.035.035,0,0,1-.039.039Zm5.08-.959v-.982a1.19,1.19,0,0,0-.267-.855,1.1,1.1,0,0,0-.824-.275q-1.075,0-1.858,1.488v.623Zm-1.184-3.678a.514.514,0,0,1-.394-.154.588.588,0,0,1-.144-.419.6.6,0,0,1,.142-.423.511.511,0,0,1,.4-.154.5.5,0,0,1,.384.152.6.6,0,0,1,.142.425.583.583,0,0,1-.146.419A.5.5,0,0,1,925.716,733.722Zm3.333,4.636a.035.035,0,0,1-.039-.039v-.888c0-.021.013-.031.039-.031h1v-2.992h1.188v3.951Zm1.524,1.995a.512.512,0,0,1-.393-.154.588.588,0,0,1-.144-.419.6.6,0,0,1,.142-.422.512.512,0,0,1,.4-.154.5.5,0,0,1,.383.152.6.6,0,0,1,.142.425.583.583,0,0,1-.146.419A.5.5,0,0,1,930.573,740.353Zm4.8-2.953c.026,0,.039.01.039.031v.888a.034.034,0,0,1-.039.039h-2.186V732.3h1.188v5.1Zm5.426,0c.026,0,.039.01.039.031v.888a.035.035,0,0,1-.039.039H935.3a.034.034,0,0,1-.039-.039v-.888c0-.021.013-.031.039-.031h1.141a1.582,1.582,0,0,1-.386-1.052,1.764,1.764,0,0,1,.616-1.416,2.564,2.564,0,0,1,1.714-.524h1.422V737.4Zm-3.019-3.678a.509.509,0,0,1-.39-.154.588.588,0,0,1-.144-.419.6.6,0,0,1,.142-.423.507.507,0,0,1,.392-.154.5.5,0,0,1,.386.152.6.6,0,0,1,.14.425.586.586,0,0,1-.144.423A.506.506,0,0,1,937.784,733.722Zm.834,3.678v-2.034h-.21a1.2,1.2,0,0,0-.834.267.994.994,0,0,0-.3.777.933.933,0,0,0,.286.732,1.2,1.2,0,0,0,.828.257Zm.522-3.678a.509.509,0,0,1-.39-.154.588.588,0,0,1-.144-.419.6.6,0,0,1,.142-.423.507.507,0,0,1,.392-.154.5.5,0,0,1,.389.154.6.6,0,0,1,.14.423.584.584,0,0,1-.146.419A.506.506,0,0,1,939.139,733.722Zm1.584,4.636a.035.035,0,0,1-.039-.039v-.888c0-.021.013-.031.039-.031h1v-5.1h1.188v6.063Zm4.262-6.063h1.188v6.063h-1.188Z" transform="translate(7581.764 9079.507)" fill="#343333"/>
    <rect id="Rectangle_15382" data-name="Rectangle 15382" width="4.365" height="44.924" transform="translate(8504.857 9716.337)" fill="#343333"/>
    <rect id="Rectangle_15383" data-name="Rectangle 15383" width="4.365" height="44.924" transform="translate(8511.422 9716.337)" fill="#343333"/>
    <rect id="Rectangle_15384" data-name="Rectangle 15384" width="4.365" height="44.924" transform="translate(8517.986 9716.337)" fill="#343333"/>
    <path id="Path_140559" data-name="Path 140559" d="M1144.665,655.2a1.135,1.135,0,0,0-.335.753v10.306h-2.312v-9.83a9.618,9.618,0,0,1,.008-1.035,2.429,2.429,0,0,1,1.6-2.108,6.04,6.04,0,0,1,1.814-.236l.127,1.789a1.738,1.738,0,0,0-.907.36" transform="translate(7427.527 9133.863)" fill="#343333"/>
    <path id="Path_140560" data-name="Path 140560" d="M1009.759,676.635a20.411,20.411,0,0,0,1.394-6.831,5.489,5.489,0,0,0-.309-1.79,2.85,2.85,0,0,0-.932-1.292,3.876,3.876,0,0,0-1.615-.795,14.992,14.992,0,0,0-3.379-.273h-7.748v2.335h7.7a17.869,17.869,0,0,1,2.546.174c3.4.44.352,7.856.352,7.856Z" transform="translate(7526.877 9125.218)" fill="#343333"/>
    <path id="Path_140561" data-name="Path 140561" d="M985.876,659.211a2.02,2.02,0,0,0,.487,1.4,2.222,2.222,0,0,0,1.588.475h.108v2.324h-.108a4.22,4.22,0,0,1-3.113-1,4.42,4.42,0,0,1-.987-3.2c0-.077,0-.157.008-.236h2.02c0,.079-.007.161,0,.236" transform="translate(7536.012 9129.8)" fill="#343333"/>
    <path id="Path_140562" data-name="Path 140562" d="M975.9,687.661h-3.876V690h3.827Z" transform="translate(7544.124 9110.122)" fill="#343333"/>
    <path id="Path_140563" data-name="Path 140563" d="M960.734,681.218a2.021,2.021,0,0,0,.487,1.4,2.224,2.224,0,0,0,1.588.475h.108v2.324h-.108a4.22,4.22,0,0,1-3.113-1,4.421,4.421,0,0,1-.987-3.2c0-.077,0-.157.008-.236h2.019c0,.079-.007.16,0,.236" transform="translate(7553.258 9114.703)" fill="#343333"/>
    <path id="Path_140564" data-name="Path 140564" d="M942.039,687.661h2.871V690h-2.822Z" transform="translate(7564.692 9110.122)" fill="#343333"/>
    <path id="Path_140565" data-name="Path 140565" d="M953.283,681.218a2.019,2.019,0,0,1-.487,1.4,2.225,2.225,0,0,1-1.588.475H951.1v2.324h.108a4.22,4.22,0,0,0,3.113-1,4.421,4.421,0,0,0,.987-3.2c0-.077,0-.157-.008-.236h-2.02c0,.079.007.16,0,.236" transform="translate(7558.477 9114.703)" fill="#343333"/>
    <path id="Path_140566" data-name="Path 140566" d="M1119.159,656V663.9a2.221,2.221,0,0,1-.475,1.588,2.017,2.017,0,0,1-1.4.487c-.075,0-.157,0-.236,0l-.014,2.3h.25a4.42,4.42,0,0,0,3.2-.987,4.223,4.223,0,0,0,1.011-3.113V656Z" transform="translate(7444.658 9131.842)" fill="#343333"/>
    <path id="Path_140567" data-name="Path 140567" d="M843.744,664.091v5.316a2.248,2.248,0,0,0,.479,1.6,2.044,2.044,0,0,0,1.416.492c.076,0,.158,0,.239,0l.014,2.328h-.253a4.467,4.467,0,0,1-3.234-1,4.268,4.268,0,0,1-1.021-3.146v-5.595Z" transform="translate(7633.734 9126.289)" fill="#343333"/>
    <path id="Path_140568" data-name="Path 140568" d="M1007.863,687.746h-29.5v2.311h31.93a4.586,4.586,0,0,1-2.434-2.311" transform="translate(7539.774 9110.064)" fill="#343333"/>
    <path id="Path_140569" data-name="Path 140569" d="M1091.115,687.746a4.586,4.586,0,0,1-2.433,2.311h8.932v-2.311Z" transform="translate(7464.106 9110.064)" fill="#343333"/>
    <path id="Path_140570" data-name="Path 140570" d="M1078.385,666.058c0-.172.005-.367.005-.593q-.007-5.545-5.07-5.545l-.136,0-.136,0q-5.07,0-5.07,5.545c0,.225,0,.421,0,.593,0,.135,0,.272,0,.411a6.853,6.853,0,0,0,1.217,4.506,4.011,4.011,0,0,0,2.28,1.247h3.417a4.014,4.014,0,0,0,2.281-1.247,6.856,6.856,0,0,0,1.217-4.506q0-.209-.005-.411m-2.679,3.029a1.959,1.959,0,0,1-1.043,1.015,3.861,3.861,0,0,1-2.957,0,2.467,2.467,0,0,1-1.182-1.136c-.216-.47-.374-1.122-.234-3.671a4.2,4.2,0,0,1,.744-2.662,3.16,3.16,0,0,1,4.3,0,4.2,4.2,0,0,1,.744,2.662c0,.017,0,.033,0,.051a10.936,10.936,0,0,1-.373,3.741" transform="translate(7478.307 9129.15)" fill="#343333"/>
    <rect id="Rectangle_15385" data-name="Rectangle 15385" width="2.311" height="2.741" transform="translate(8511.753 9793.786)" fill="#343333"/>
    <path id="Path_140571" data-name="Path 140571" d="M919,687.661h1.339V690h-1.452Z" transform="translate(7580.571 9110.122)" fill="#343333"/>
    <path id="Path_140572" data-name="Path 140572" d="M925.615,681.218a2.02,2.02,0,0,1-.487,1.4,2.223,2.223,0,0,1-1.588.475h-.108v2.324h.108a4.219,4.219,0,0,0,3.113-1,4.421,4.421,0,0,0,.987-3.2c0-.077,0-.157-.008-.236h-2.019c0,.079.007.16,0,.236" transform="translate(7577.456 9114.703)" fill="#343333"/>
    <path id="Path_140573" data-name="Path 140573" d="M947.3,687.661h-2.946V690h2.9Z" transform="translate(7563.101 9110.122)" fill="#343333"/>
    <path id="Path_140574" data-name="Path 140574" d="M933.067,681.218a2.02,2.02,0,0,0,.487,1.4,2.224,2.224,0,0,0,1.588.475h.108v2.324h-.108a4.219,4.219,0,0,1-3.113-1,4.421,4.421,0,0,1-.987-3.2c0-.077,0-.157.008-.236h2.02c0,.079-.007.16,0,.236" transform="translate(7572.235 9114.703)" fill="#343333"/>
    <rect id="Rectangle_15386" data-name="Rectangle 15386" width="2.311" height="6.307" transform="translate(8502.998 9790.219)" fill="#343333"/>
    <path id="Path_140575" data-name="Path 140575" d="M893.585,687.661h1.483V690h-1.433Z" transform="translate(7597.928 9110.122)" fill="#343333"/>
    <path id="Path_140576" data-name="Path 140576" d="M900.409,681.218a2.02,2.02,0,0,1-.487,1.4,2.223,2.223,0,0,1-1.588.475h-.108v2.324h.108a4.219,4.219,0,0,0,3.113-1,4.42,4.42,0,0,0,.987-3.2c0-.077,0-.157-.008-.236h-2.019c0,.079.007.16,0,.236" transform="translate(7594.745 9114.703)" fill="#343333"/>
    <path id="Path_140577" data-name="Path 140577" d="M907.861,681.218a2.019,2.019,0,0,0,.487,1.4,2.223,2.223,0,0,0,1.588.475h.108v2.324h-.108a4.219,4.219,0,0,1-3.113-1,4.421,4.421,0,0,1-.987-3.2c0-.077,0-.157.008-.236h2.019c0,.079-.007.16,0,.236" transform="translate(7589.525 9114.703)" fill="#343333"/>
    <rect id="Rectangle_15387" data-name="Rectangle 15387" width="2.311" height="4.303" transform="translate(8495.082 9792.224)" fill="#343333"/>
    <path id="Path_140578" data-name="Path 140578" d="M855.258,687.661h5.623V690h-5.573Z" transform="translate(7624.217 9110.122)" fill="#343333"/>
    <path id="Path_140579" data-name="Path 140579" d="M875.264,681.218a2.02,2.02,0,0,1-.487,1.4,2.223,2.223,0,0,1-1.588.475h-.108v2.324h.108a4.219,4.219,0,0,0,3.113-1,4.421,4.421,0,0,0,.987-3.2c0-.077,0-.157-.008-.236h-2.019c0,.079.007.16,0,.236" transform="translate(7611.992 9114.703)" fill="#343333"/>
    <path id="Path_140580" data-name="Path 140580" d="M882.715,681.218a2.019,2.019,0,0,0,.487,1.4,2.223,2.223,0,0,0,1.588.475h.108v2.324h-.108a4.219,4.219,0,0,1-3.113-1,4.42,4.42,0,0,1-.987-3.2c0-.077,0-.157.008-.236h2.02c0,.079-.007.16,0,.236" transform="translate(7606.773 9114.703)" fill="#343333"/>
    <rect id="Rectangle_15388" data-name="Rectangle 15388" width="2.311" height="3.247" transform="translate(8487.184 9793.279)" fill="#343333"/>
    <rect id="Rectangle_15389" data-name="Rectangle 15389" width="2.272" height="2.341" transform="translate(8506.621 9801.947)" fill="#343333"/>
    <rect id="Rectangle_15390" data-name="Rectangle 15390" width="2.272" height="2.341" transform="translate(8510.261 9801.947)" fill="#343333"/>
    <rect id="Rectangle_15391" data-name="Rectangle 15391" width="2.272" height="2.342" transform="translate(8475.118 9786.489)" fill="#343333"/>
    <path id="Path_140581" data-name="Path 140581" d="M792.25,664.091v2.179h-7.195l1.3,2.227a5.978,5.978,0,0,1,.977,2.989,3.54,3.54,0,0,1-1.136,2.736,5,5,0,0,1-3.477,1.043H772.093a6.933,6.933,0,0,1-2.62-.452,3.816,3.816,0,0,1-1.7-1.263,5.57,5.57,0,0,1-.858-1.715,7.015,7.015,0,0,1-.267-1.994V668.4H768.8v1.229q0,3.431,3.71,3.431h10.227q2.318,0,2.318-1.814a5.082,5.082,0,0,0-.857-2.3l-1.925-3.309v-1.546ZM771,676.8h2.272v2.341H771Zm3.64,0h2.272v2.341h-2.272Z" transform="translate(7685 9126.289)" fill="#343333"/>
    <path id="Path_140582" data-name="Path 140582" d="M1062.138,599.719a1.134,1.134,0,0,0-.335.753v9.193h-2.312v-8.716a9.743,9.743,0,0,1,.009-1.035,2.428,2.428,0,0,1,1.6-2.108,6.042,6.042,0,0,1,1.814-.236l.127,1.789a1.736,1.736,0,0,0-.907.36" transform="translate(7484.135 9171.918)" fill="#343333"/>
    <path id="Path_140583" data-name="Path 140583" d="M1011.8,617.611a20.428,20.428,0,0,0,1.394-6.831,5.5,5.5,0,0,0-.309-1.79,2.851,2.851,0,0,0-.932-1.292,3.876,3.876,0,0,0-1.616-.795,14.981,14.981,0,0,0-3.379-.273H999.21v2.335h7.7a17.869,17.869,0,0,1,2.547.174c3.4.44.352,7.856.352,7.856Z" transform="translate(7525.477 9165.704)" fill="#343333"/>
    <path id="Path_140584" data-name="Path 140584" d="M987.917,600.186a2.019,2.019,0,0,0,.487,1.4,2.223,2.223,0,0,0,1.588.475h.108v2.324h-.108a4.221,4.221,0,0,1-3.113-1,4.421,4.421,0,0,1-.986-3.2c0-.077,0-.157.008-.236h2.02c0,.079-.007.161,0,.236" transform="translate(7534.612 9170.286)" fill="#343333"/>
    <path id="Path_140585" data-name="Path 140585" d="M872.957,614.373a16.116,16.116,0,0,0,.427-3.593,5.489,5.489,0,0,0-.31-1.79,2.849,2.849,0,0,0-.932-1.292,3.87,3.87,0,0,0-1.615-.795,14.983,14.983,0,0,0-3.379-.273H859.4v2.335h7.7a17.818,17.818,0,0,1,2.546.174c2.046.265,1.758,3.053,1.2,5.233-.367,1.445,1.779,1.537,2.11,0" transform="translate(7621.377 9165.704)" fill="#343333"/>
    <path id="Path_140586" data-name="Path 140586" d="M848.108,600.186a2.02,2.02,0,0,0,.487,1.4,2.222,2.222,0,0,0,1.588.475h.108v2.324h-.108a4.22,4.22,0,0,1-3.113-1,4.419,4.419,0,0,1-.987-3.2c0-.077,0-.157.008-.236h2.02c0,.079-.007.161,0,.236" transform="translate(7630.511 9170.286)" fill="#343333"/>
    <path id="Path_140587" data-name="Path 140587" d="M873.391,628.722H846.083v2.311h27.909a5.648,5.648,0,0,1-.6-2.311" transform="translate(7630.511 9150.55)" fill="#343333"/>
    <path id="Path_140588" data-name="Path 140588" d="M959.456,628.722a5.642,5.642,0,0,1-.6,2.311h28.033v-2.311Z" transform="translate(7553.158 9150.55)" fill="#343333"/>
    <path id="Path_140589" data-name="Path 140589" d="M940.928,614.163c0-.171.005-.367.005-.593q-.007-5.544-5.07-5.545l-.136,0-.136,0q-5.07,0-5.07,5.545c0,.225,0,.422.005.593q-.005.2-.005.411a6.855,6.855,0,0,0,1.217,4.506,4.016,4.016,0,0,0,2.28,1.247h3.417a4.018,4.018,0,0,0,2.281-1.247,6.854,6.854,0,0,0,1.217-4.506q0-.209-.005-.411m-2.679,3.029a1.965,1.965,0,0,1-1.044,1.015,3.864,3.864,0,0,1-2.957,0,2.467,2.467,0,0,1-1.182-1.136c-.216-.47-.374-1.122-.234-3.671a4.2,4.2,0,0,1,.744-2.662,3.16,3.16,0,0,1,4.3,0,4.2,4.2,0,0,1,.744,2.662c0,.017,0,.033,0,.051a10.948,10.948,0,0,1-.372,3.741" transform="translate(7572.593 9164.747)" fill="#343333"/>
    <path id="Path_140590" data-name="Path 140590" d="M1061.7,582.564l1.183-.206v1.083l-5.053.881v-1.083l1.639-.286a2.046,2.046,0,0,1-.9-1.708,1.912,1.912,0,0,1,.545-1.449,2.307,2.307,0,0,1,2.817-.081l-.487.927a1.392,1.392,0,0,0-.811-.278.891.891,0,0,0-.7.281,1.068,1.068,0,0,0-.255.748,1.11,1.11,0,0,0,.521.994,2.093,2.093,0,0,0,1.495.176" transform="translate(7485.27 9184.468)" fill="#343333"/>
    <path id="Path_140591" data-name="Path 140591" d="M1028.819,549.645a2.606,2.606,0,1,1,2.605-2.6,2.609,2.609,0,0,1-2.605,2.6m0-4.835a2.23,2.23,0,1,0,2.23,2.23,2.233,2.233,0,0,0-2.23-2.23" transform="translate(7506.955 9208.365)" fill="#343333"/>
    <path id="Path_140592" data-name="Path 140592" d="M1031.881,548.718a3.373,3.373,0,0,1,.628-.053,1.037,1.037,0,0,1,.733.207.631.631,0,0,1,.2.481.665.665,0,0,1-.478.647v.011a.632.632,0,0,1,.373.512,3.906,3.906,0,0,0,.2.7h-.339a3.321,3.321,0,0,1-.169-.605c-.076-.35-.211-.481-.508-.492h-.308v1.1h-.328Zm.328,1.154h.334c.349,0,.572-.191.572-.481,0-.327-.237-.47-.583-.474a1.31,1.31,0,0,0-.323.031Z" transform="translate(7503.067 9205.463)" fill="#343333"/>
  </g>
</svg>
