<svg xmlns="http://www.w3.org/2000/svg" width="385.599" height="320.949" viewBox="0 0 385.599 320.949"><defs><style>.a{fill:#fff;}</style></defs><g transform="translate(10043.799 -2324.526)"><path class="a" d="M930.466,730.285v19.87h-2.744v-8.75h-9.271v8.75H915.68v-19.87h2.771v8.665h9.271v-8.665Z" transform="translate(-10811 1895)"/><path class="a" d="M937.628,749.4a5.971,5.971,0,0,1-2.5-3.275,18.128,18.128,0,0,1-.766-5.82,18.559,18.559,0,0,1,.766-5.848,6.158,6.158,0,0,1,2.512-3.379,10.457,10.457,0,0,1,9.385,0,6.176,6.176,0,0,1,2.513,3.365,18.746,18.746,0,0,1,.766,5.892,18.335,18.335,0,0,1-.753,5.8,5.9,5.9,0,0,1-2.483,3.261,10.936,10.936,0,0,1-9.444,0m7.826-2.149A4.1,4.1,0,0,0,947,744.842a17.815,17.815,0,0,0,.45-4.5,18.217,18.217,0,0,0-.464-4.578,4.5,4.5,0,0,0-1.572-2.543,6.168,6.168,0,0,0-6.153,0,4.476,4.476,0,0,0-1.575,2.529,18.064,18.064,0,0,0-.46,4.562,17.69,17.69,0,0,0,.447,4.447,4.345,4.345,0,0,0,1.545,2.455,5.189,5.189,0,0,0,3.12.81,5.412,5.412,0,0,0,3.117-.766" transform="translate(-10811 1895)"/><path class="a" d="M965.24,747.7v2.455H954.207v-19.87h2.77V747.7Z" transform="translate(-10811 1895)"/><path class="a" d="M979.737,731.5a6.034,6.034,0,0,1,2.281,3.249,17.946,17.946,0,0,1,.6,5.039,18.8,18.8,0,0,1-.779,5.964,6.148,6.148,0,0,1-2.456,3.335,8.183,8.183,0,0,1-4.447,1.069h-6.96v-19.87h6.96a8.1,8.1,0,0,1,4.8,1.214m-1.071,14.31a12.164,12.164,0,0,0,1.128-5.965,14.567,14.567,0,0,0-.477-4.129,4.078,4.078,0,0,0-1.531-2.28,4.956,4.956,0,0,0-2.845-.723h-4.188v15.018h4.188a3.975,3.975,0,0,0,3.725-1.921" transform="translate(-10811 1895)"/><rect class="a" width="2.771" height="19.87" transform="translate(-9824.449 2625.285)"/><path class="a" d="M996.356,749.376a6.017,6.017,0,0,1-2.455-3.335,19.183,19.183,0,0,1-.736-5.848,18.616,18.616,0,0,1,.75-5.834,6.06,6.06,0,0,1,2.441-3.308,8.347,8.347,0,0,1,4.548-1.082,30.68,30.68,0,0,1,5.66.578l1.011.2-.115,2.224a42.863,42.863,0,0,0-6.036-.521,5.879,5.879,0,0,0-3.409.823,4.12,4.12,0,0,0-1.558,2.486,20.577,20.577,0,0,0-.4,4.635,17.657,17.657,0,0,0,.448,4.491,3.98,3.98,0,0,0,1.572,2.381,5.688,5.688,0,0,0,3.177.753,20.553,20.553,0,0,0,3.581-.29V742.3h-2.859v-2.455h5.6v9.934a37.414,37.414,0,0,1-6.584.7,8.542,8.542,0,0,1-4.635-1.1" transform="translate(-10811 1895)"/><rect class="a" width="7.338" height="47.458" transform="translate(-10001.366 2544.57)"/><path class="a" d="M829.949,665.406q1.5,1.54,1.5,5.012l0,26.61h7.338v-26.61q0-6.708-3.155-9.824t-10.1-3.115c-.243,0-.5.015-.745.026v6.373c.25-.006.507-.022.745-.008,1.942.106,3.42.512,4.42,1.536" transform="translate(-10811 1895)"/><path class="a" d="M834.593,660.948a29.968,29.968,0,0,1,5.682-2.6,17.845,17.845,0,0,1,5.52-.867,15.9,15.9,0,0,1,5.682.985,9.044,9.044,0,0,1,4.1,2.959,12.3,12.3,0,0,1,2.523,5.128,47.577,47.577,0,0,1,.867,10.728v19.749h-7.415V677.437a44.744,44.744,0,0,0-.553-8.085,6.564,6.564,0,0,0-2.09-4.025,7.177,7.177,0,0,0-4.537-1.223,19.624,19.624,0,0,0-4.535.553,22.12,22.12,0,0,0-3.907,1.262l-1.262.632Z" transform="translate(-10811 1895)"/><path class="a" d="M854.824,660.948a29.97,29.97,0,0,1,5.682-2.6,17.841,17.841,0,0,1,5.52-.867,15.906,15.906,0,0,1,5.682.985,9.046,9.046,0,0,1,4.1,2.959,11.294,11.294,0,0,1,2.524,5.128,47.591,47.591,0,0,1,.866,10.728v19.749h-7.414V677.437a44.631,44.631,0,0,0-.554-8.085,6.552,6.552,0,0,0-2.09-4.024,7.169,7.169,0,0,0-4.537-1.224,19.615,19.615,0,0,0-4.534.553,22.119,22.119,0,0,0-3.907,1.262l-1.262.632Z" transform="translate(-10811 1895)"/><path class="a" d="M1108.627,665.406q1.5,1.54,1.5,5.012l0,26.61h7.339v-26.61q0-6.708-3.155-9.824t-10.1-3.115c-.243,0-.495.015-.744.026v6.373c.25-.006.506-.022.744-.008,1.943.106,3.42.512,4.42,1.536" transform="translate(-10811 1895)"/><path class="a" d="M1113.272,660.948a29.968,29.968,0,0,1,5.682-2.6,17.84,17.84,0,0,1,5.52-.867,15.906,15.906,0,0,1,5.682.985,9.041,9.041,0,0,1,4.1,2.959,12.294,12.294,0,0,1,2.524,5.128,47.576,47.576,0,0,1,.867,10.728v19.749h-7.415V677.437a44.751,44.751,0,0,0-.553-8.085,6.559,6.559,0,0,0-2.091-4.025,7.173,7.173,0,0,0-4.537-1.223,19.622,19.622,0,0,0-4.534.553,22.12,22.12,0,0,0-3.907,1.262l-1.262.632Z" transform="translate(-10811 1895)"/><path class="a" d="M918.93,689.1q-1.5-1.54-1.5-5.012l0-26.61H910.1v26.61q0,6.708,3.155,9.824t10.1,3.115c.243,0,.5-.015.745-.026V690.63c-.25.006-.507.022-.745.008-1.942-.106-3.42-.512-4.42-1.536" transform="translate(-10811 1895)"/><path class="a" d="M914.286,693.56a30.04,30.04,0,0,1-5.682,2.6,30.348,30.348,0,0,1-8.356.866,19.823,19.823,0,0,1-5.682-.984,9.059,9.059,0,0,1-4.1-2.96,12.3,12.3,0,0,1-2.523-5.128,47.577,47.577,0,0,1-.867-10.728V657.48h7.415v19.591a42.965,42.965,0,0,0,.553,8.085c1.8,9.862,19.167,2.8,19.167,2.8Z" transform="translate(-10811 1895)"/><rect class="a" width="7.338" height="47.489" transform="translate(-9879.093 2544.57)"/><path class="a" d="M935.107,660.98a29.97,29.97,0,0,1,5.682-2.6,30.305,30.305,0,0,1,8.356-.867,19.8,19.8,0,0,1,5.682.985,9.047,9.047,0,0,1,4.1,2.959,12.294,12.294,0,0,1,2.524,5.128,47.59,47.59,0,0,1,.866,10.728V697.06h-7.414V677.469a42.866,42.866,0,0,0-.554-8.085c-1.8-9.861-19.166-2.8-19.166-2.8Z" transform="translate(-10811 1895)"/><rect class="a" width="7.338" height="39.549" transform="translate(-9665.538 2552.48)"/><rect class="a" width="7.338" height="7.851" transform="translate(-9665.538 2536.72)"/><rect class="a" width="7.339" height="39.549" transform="translate(-9722.688 2552.48)"/><rect class="a" width="7.339" height="7.851" transform="translate(-9722.688 2536.72)"/><path class="a" d="M1004.753,691.278a5.259,5.259,0,0,1-2.473-1.039,3.615,3.615,0,0,1-1.064-2.405V670.409q0-6.708-3.156-9.823t-10.1-3.116c-.242,0-.495.016-.745.026v6.373c.25-.006.508-.022.745-.008,1.943.107,3.42.512,4.42,1.537s1.5,2.7,1.5,5.011V671.9l-11.2,1.025q-6.551.633-9.547,3.355t-3,8.559q0,5.919,2.919,9.071t8.52,3.155a31.916,31.916,0,0,0,13.413-3.076,11.617,11.617,0,0,0,4.184,2.327,19.029,19.029,0,0,0,5.586.739Zm-10.873-2.42-1.656.553a29.246,29.246,0,0,1-9.313,1.5q-5.285,0-5.283-6.312a6.358,6.358,0,0,1,1.458-4.537,7.037,7.037,0,0,1,4.536-1.852l10.258-.946Z" transform="translate(-10811 1895)"/><path class="a" d="M801.823,691.278a5.251,5.251,0,0,1-2.473-1.039,3.612,3.612,0,0,1-1.066-2.405V670.409q0-6.708-3.155-9.823t-10.1-3.116c-.243,0-.5.016-.745.026v6.373c.251-.006.507-.022.745-.008,1.942.107,3.42.512,4.42,1.537s1.5,2.7,1.5,5.011V671.9l-11.2,1.025q-6.552.633-9.549,3.355t-3,8.559q0,5.919,2.918,9.071t8.521,3.155a31.916,31.916,0,0,0,13.413-3.076,11.6,11.6,0,0,0,4.182,2.327,19.044,19.044,0,0,0,5.588.739Zm-10.874-2.42-1.657.553a29.224,29.224,0,0,1-9.311,1.5q-5.285,0-5.284-6.312a6.363,6.363,0,0,1,1.458-4.537,7.038,7.038,0,0,1,4.537-1.852l10.257-.946Z" transform="translate(-10811 1895)"/><path class="a" d="M1075.253,675.888a36.788,36.788,0,0,0-7.3-1.935c-1.1-.2-1.842-.328-2.21-.379q-3-.532-4.613-.987a6.309,6.309,0,0,1-2.643-1.4,3.477,3.477,0,0,1-1.025-2.692q0-4.708,8.047-4.709c1.739,0,3.933.135,6.5.381v-6.216a61.876,61.876,0,0,0-6.9-.466q-14.992,0-14.99,11.767a9.727,9.727,0,0,0,1.421,5.616,8.759,8.759,0,0,0,4.062,3.115,32.963,32.963,0,0,0,7.14,1.743l1.893.3a36.132,36.132,0,0,1,4.734.949,6.562,6.562,0,0,1,2.723,1.517,3.978,3.978,0,0,1,1.064,3,4.19,4.19,0,0,1-2.131,3.946,13.011,13.011,0,0,1-6.311,1.217,116.412,116.412,0,0,1-13.649-1.293l-.312,6.072,2.365.381a76.291,76.291,0,0,0,11.912,1.214q7.89,0,11.678-2.921t3.786-9.224a11.01,11.01,0,0,0-1.3-5.768,8.116,8.116,0,0,0-3.945-3.228" transform="translate(-10811 1895)"/><path class="a" d="M1036.906,657.47l-8.822,32.224h-2.866l-8.747-32.224h-7.336l10.757,39.559h2.541v.033h3.783l-2.735,9.675h7.177l13.586-49.267Z" transform="translate(-10811 1895)"/><path class="a" d="M930.532,610.876q1.5,1.541,1.5,5.011l0,26.611h7.338V615.887q0-6.708-3.155-9.823t-10.1-3.115c-.243,0-.5.015-.745.025v6.373c.25-.006.507-.021.745-.008,1.942.107,3.42.513,4.42,1.537" transform="translate(-10811 1895)"/><path class="a" d="M935.176,606.418a30.036,30.036,0,0,1,5.682-2.6,17.873,17.873,0,0,1,5.52-.866,15.923,15.923,0,0,1,5.682.984,9.045,9.045,0,0,1,4.1,2.96,12.3,12.3,0,0,1,2.523,5.128,47.577,47.577,0,0,1,.867,10.728V642.5h-7.415V622.906a44.761,44.761,0,0,0-.553-8.085,6.561,6.561,0,0,0-2.09-4.024,7.177,7.177,0,0,0-4.537-1.224,19.623,19.623,0,0,0-4.535.554,22.031,22.031,0,0,0-3.907,1.262l-1.262.632Z" transform="translate(-10811 1895)"/><path class="a" d="M955.407,606.418a30.036,30.036,0,0,1,5.682-2.6,17.868,17.868,0,0,1,5.52-.866,15.927,15.927,0,0,1,5.682.984,9.048,9.048,0,0,1,4.1,2.96,11.294,11.294,0,0,1,2.524,5.128,47.6,47.6,0,0,1,.866,10.728V642.5H972.37V622.907a44.63,44.63,0,0,0-.554-8.085,6.556,6.556,0,0,0-2.09-4.025,7.175,7.175,0,0,0-4.537-1.224,19.621,19.621,0,0,0-4.534.554,22.034,22.034,0,0,0-3.907,1.262l-1.262.632Z" transform="translate(-10811 1895)"/><rect class="a" width="7.338" height="47.49" transform="translate(-9923.858 2490.039)"/><path class="a" d="M890.342,606.449a30.01,30.01,0,0,1,5.682-2.6,30.34,30.34,0,0,1,8.356-.866,19.837,19.837,0,0,1,5.682.984,9.055,9.055,0,0,1,4.1,2.96,12.31,12.31,0,0,1,2.524,5.128,47.653,47.653,0,0,1,.866,10.728v19.749H910.14V622.938a42.871,42.871,0,0,0-.553-8.085c-1.8-9.862-19.166-2.8-19.166-2.8Z" transform="translate(-10811 1895)"/><path class="a" d="M879.331,636.747a5.269,5.269,0,0,1-2.474-1.039,3.619,3.619,0,0,1-1.065-2.406V615.878q0-6.708-3.155-9.824t-10.1-3.115c-.243,0-.495.015-.745.026v6.372c.251-.005.507-.021.745-.008,1.942.107,3.42.513,4.42,1.537s1.5,2.7,1.5,5.012v1.488l-11.2,1.024q-6.552.634-9.549,3.355t-3,8.56q0,5.918,2.918,9.071t8.521,3.155a31.916,31.916,0,0,0,13.413-3.076,11.6,11.6,0,0,0,4.182,2.327,19.079,19.079,0,0,0,5.588.739Zm-10.874-2.421-1.657.554a29.224,29.224,0,0,1-9.311,1.5q-5.285,0-5.284-6.311a6.363,6.363,0,0,1,1.458-4.537,7.032,7.032,0,0,1,4.537-1.852l10.257-.947Z" transform="translate(-10811 1895)"/><path class="a" d="M1009.548,636.156c-1.3.035-2.542.058-3.649.058a16.832,16.832,0,0,1-6.469-.986A6.226,6.226,0,0,1,996.116,632a16.408,16.408,0,0,1-1.106-6.338h25.434a36.5,36.5,0,0,0,.208-5.161q-.022-17.6-16.1-17.6-8.678,0-12.819,5.122t-4.142,15.669q0,9.789,3.864,14.3t12.942,4.514c1.508,0,3.26-.1,5.147-.264ZM997.3,611.515q2.285-2.694,7.257-2.694,4.737,0,6.747,2.579t2.011,8.727H994.931q.078-5.921,2.368-8.612" transform="translate(-10811 1895)"/><path class="a" d="M1056.725,632.775l-3.884,1.646a31.064,31.064,0,0,1-4.259,1.211,20.773,20.773,0,0,1-4.34.533q-4.5,0-6.35-3.186t-1.855-10.011q0-7.508,2.209-10.691t7.652-3.186a64.953,64.953,0,0,1,8.882.969l2.2-5.532a77.452,77.452,0,0,0-11.951-1.578q-8.682,0-12.625,4.814t-3.944,15.584q0,9.7,3.315,14.446t10.965,4.738a30.642,30.642,0,0,0,14.438-4.429Z" transform="translate(-10811 1895)"/><path class="a" d="M1062.045,633.3V616.721h-4.863l-.457.581s-2.187,11.1-1.991,17.789c.058,1.972-1.175.529,1.151,2.583.181,1.565,2.367,3.609,3.945,4.108a19.2,19.2,0,0,0,5.759.749l.4-5.678a5.535,5.535,0,0,1-2.881-1.145,3.613,3.613,0,0,1-1.064-2.406" transform="translate(-10811 1895)"/><rect class="a" width="7.339" height="38.306" transform="translate(-9756.291 2490.041)"/><rect class="a" width="13.86" height="142.625" transform="translate(-9877.143 2324.526)"/><rect class="a" width="13.859" height="142.625" transform="translate(-9856.302 2324.526)"/><rect class="a" width="13.859" height="142.625" transform="translate(-9835.461 2324.526)"/><path class="a" d="M1030.043,561.835a8.272,8.272,0,1,1,8.271-8.271,8.281,8.281,0,0,1-8.271,8.271m0-15.351a7.078,7.078,0,1,0,7.077,7.08,7.088,7.088,0,0,0-7.077-7.08" transform="translate(-10811 1895)"/><path class="a" d="M1027.421,549.678a10.678,10.678,0,0,1,1.995-.169,3.3,3.3,0,0,1,2.328.657,2,2,0,0,1,.634,1.528,2.113,2.113,0,0,1-1.519,2.054v.035a2,2,0,0,1,1.183,1.625,12.523,12.523,0,0,0,.621,2.208h-1.075a10.628,10.628,0,0,1-.536-1.921c-.24-1.112-.671-1.528-1.613-1.564h-.978v3.485h-1.04Zm1.04,3.664h1.061c1.111,0,1.816-.608,1.816-1.528,0-1.037-.751-1.493-1.85-1.505a4.206,4.206,0,0,0-1.027.1Z" transform="translate(-10811 1895)"/></g></svg>