<svg xmlns="http://www.w3.org/2000/svg" width="224.829" height="191.636" viewBox="0 0 224.829 191.636">
  <g id="Group_120682" data-name="Group 120682" transform="translate(-8451.645 -9716.337)">
    <path id="Path_140558" data-name="Path 140558" d="M925.943,741.744c.048,0,.072.019.072.058v1.645a.064.064,0,0,1-.072.072h-4.479a4.791,4.791,0,0,1-3.181-.956,3.3,3.3,0,0,1-1.132-2.665,3.614,3.614,0,0,1,.519-1.933,3.4,3.4,0,0,1,1.49-1.3,5.354,5.354,0,0,1,2.3-.458h.411v-.722H924.1v6.261Zm-4.046,0V737.98h-.39a2.227,2.227,0,0,0-1.554.5,1.848,1.848,0,0,0-.544,1.436,1.721,1.721,0,0,0,.533,1.356,2.235,2.235,0,0,0,1.536.476Zm-1.377-7.191a.94.94,0,0,1-.721-.285,1.088,1.088,0,0,1-.266-.775,1.107,1.107,0,0,1,.263-.782.939.939,0,0,1,.725-.285.925.925,0,0,1,.714.281,1.117,1.117,0,0,1,.26.786,1.085,1.085,0,0,1-.267.783A.937.937,0,0,1,920.519,734.554Zm2.51,0a.939.939,0,0,1-.721-.285,1.087,1.087,0,0,1-.267-.775,1.107,1.107,0,0,1,.263-.782.938.938,0,0,1,.725-.285.927.927,0,0,1,.721.285,1.119,1.119,0,0,1,.259.782,1.081,1.081,0,0,1-.27.775A.934.934,0,0,1,923.029,734.554Zm2.766,8.965a.064.064,0,0,1-.073-.072V741.8c0-.038.024-.058.073-.058h1.738v-5.539h2.207v2.589a4.291,4.291,0,0,1,4-2.733,3.632,3.632,0,0,1,2.733.955,4.115,4.115,0,0,1,.923,2.953v1.774h1.926c.048,0,.073.019.073.058v1.645a.064.064,0,0,1-.073.072Zm9.4-1.774v-1.817a2.2,2.2,0,0,0-.494-1.583,2.043,2.043,0,0,0-1.526-.509q-1.99,0-3.44,2.755v1.154Zm-2.193-6.808a.951.951,0,0,1-.729-.285,1.089,1.089,0,0,1-.267-.776,1.108,1.108,0,0,1,.263-.782.945.945,0,0,1,.732-.285.926.926,0,0,1,.711.281,1.107,1.107,0,0,1,.263.786,1.08,1.08,0,0,1-.27.776A.926.926,0,0,1,933.007,734.936Zm6.17,8.583a.064.064,0,0,1-.072-.072V741.8c0-.038.025-.058.072-.058h1.847v-5.539h2.2v7.313Zm2.82,3.692a.948.948,0,0,1-.729-.285,1.09,1.09,0,0,1-.267-.776,1.106,1.106,0,0,1,.263-.782.948.948,0,0,1,.733-.286.927.927,0,0,1,.71.281,1.106,1.106,0,0,1,.263.786,1.08,1.08,0,0,1-.27.776A.924.924,0,0,1,942,747.211Zm8.893-5.467c.048,0,.072.019.072.058v1.645a.064.064,0,0,1-.072.072h-4.046V732.3h2.2v9.448Zm10.045,0c.048,0,.072.019.072.058v1.645a.064.064,0,0,1-.072.072H950.744a.064.064,0,0,1-.072-.072V741.8c0-.038.024-.058.072-.058h2.113a2.929,2.929,0,0,1-.714-1.947,3.266,3.266,0,0,1,1.14-2.622,4.747,4.747,0,0,1,3.173-.97h2.632v5.539Zm-5.589-6.808a.942.942,0,0,1-.721-.285,1.089,1.089,0,0,1-.266-.776,1.107,1.107,0,0,1,.263-.782.937.937,0,0,1,.725-.285.923.923,0,0,1,.714.281,1.114,1.114,0,0,1,.26.786,1.084,1.084,0,0,1-.267.783A.937.937,0,0,1,955.345,734.936Zm1.543,6.808V737.98H956.5a2.228,2.228,0,0,0-1.544.494,1.839,1.839,0,0,0-.548,1.439,1.728,1.728,0,0,0,.53,1.356,2.222,2.222,0,0,0,1.533.476Zm.966-6.808a.942.942,0,0,1-.721-.285,1.088,1.088,0,0,1-.267-.776,1.108,1.108,0,0,1,.263-.782.938.938,0,0,1,.725-.285.925.925,0,0,1,.721.285,1.117,1.117,0,0,1,.26.782,1.081,1.081,0,0,1-.27.776A.937.937,0,0,1,957.855,734.936Zm2.933,8.583a.064.064,0,0,1-.072-.072V741.8c0-.038.025-.058.072-.058h1.846V732.3h2.2v11.223Zm7.889-11.223h2.2v11.223h-2.2Z" transform="translate(7621.997 9160.762)" fill="#fff"/>
    <rect id="Rectangle_15382" data-name="Rectangle 15382" width="8.081" height="83.16" transform="translate(8550.148 9716.337)" fill="#fff"/>
    <rect id="Rectangle_15383" data-name="Rectangle 15383" width="8.081" height="83.16" transform="translate(8562.301 9716.337)" fill="#fff"/>
    <rect id="Rectangle_15384" data-name="Rectangle 15384" width="8.081" height="83.16" transform="translate(8574.452 9716.337)" fill="#fff"/>
    <path id="Path_140559" data-name="Path 140559" d="M1146.925,657.029a2.1,2.1,0,0,0-.619,1.394V677.5h-4.279V659.3a17.78,17.78,0,0,1,.016-1.916,4.5,4.5,0,0,1,2.97-3.9,11.184,11.184,0,0,1,3.357-.437l.235,3.312a3.219,3.219,0,0,0-1.679.667" transform="translate(7527.869 9193.934)" fill="#fff"/>
    <path id="Path_140560" data-name="Path 140560" d="M1020.474,685.981a37.781,37.781,0,0,0,2.581-12.645,10.164,10.164,0,0,0-.573-3.313,5.277,5.277,0,0,0-1.726-2.392,7.174,7.174,0,0,0-2.989-1.471,27.751,27.751,0,0,0-6.256-.505H997.169v4.323h14.25a33.079,33.079,0,0,1,4.713.322c6.295.815.651,14.542.651,14.542Z" transform="translate(7588.5 9188.657)" fill="#fff"/>
    <path id="Path_140561" data-name="Path 140561" d="M987.6,659.412a3.738,3.738,0,0,0,.9,2.592,4.114,4.114,0,0,0,2.939.88h.2v4.3h-.2q-3.934,0-5.762-1.852t-1.827-5.923c0-.143.008-.291.014-.437H987.6c0,.147-.012.3,0,.437" transform="translate(7594.076 9191.454)" fill="#fff"/>
    <path id="Path_140562" data-name="Path 140562" d="M979.2,687.661h-7.175v4.323h7.084Z" transform="translate(7599.026 9179.444)" fill="#fff"/>
    <path id="Path_140563" data-name="Path 140563" d="M962.457,681.419a3.741,3.741,0,0,0,.9,2.593,4.118,4.118,0,0,0,2.939.878h.2v4.3h-.2q-3.934,0-5.763-1.851t-1.827-5.924c0-.142.009-.291.015-.437h3.738c0,.147-.012.3,0,.437" transform="translate(7604.601 9182.239)" fill="#fff"/>
    <path id="Path_140564" data-name="Path 140564" d="M942.039,687.661h5.315v4.323H942.13Z" transform="translate(7611.579 9179.444)" fill="#fff"/>
    <path id="Path_140565" data-name="Path 140565" d="M955.141,681.419a3.738,3.738,0,0,1-.9,2.593,4.119,4.119,0,0,1-2.94.878h-.2v4.3h.2q3.934,0,5.763-1.851t1.826-5.924c0-.142-.008-.291-.014-.437h-3.739c0,.147.013.3,0,.437" transform="translate(7607.786 9182.239)" fill="#fff"/>
    <path id="Path_140566" data-name="Path 140566" d="M1120.969,656v14.636a4.112,4.112,0,0,1-.879,2.939,3.735,3.735,0,0,1-2.592.9c-.14.008-.29,0-.437,0l-.026,4.265h.463q4.073,0,5.924-1.826c1.235-1.22,1.872-3.14,1.872-5.763V656Z" transform="translate(7538.324 9192.7)" fill="#fff"/>
    <path id="Path_140567" data-name="Path 140567" d="M845.753,664.091v9.84a4.162,4.162,0,0,0,.888,2.97,3.783,3.783,0,0,0,2.62.912c.141.008.293,0,.442,0l.026,4.309h-.467q-4.117,0-5.987-1.847c-1.246-1.232-1.891-3.172-1.891-5.823V664.091Z" transform="translate(7653.713 9189.31)" fill="#fff"/>
    <path id="Path_140568" data-name="Path 140568" d="M1032.969,687.746h-54.6v4.278h59.107a8.489,8.489,0,0,1-4.505-4.278" transform="translate(7596.372 9179.409)" fill="#fff"/>
    <path id="Path_140569" data-name="Path 140569" d="M1093.187,687.746a8.49,8.49,0,0,1-4.5,4.278h16.535v-4.278Z" transform="translate(7550.193 9179.409)" fill="#fff"/>
    <path id="Path_140570" data-name="Path 140570" d="M1087.243,671.282c.006-.318.01-.68.01-1.1q-.012-10.264-9.385-10.265c-.085,0-.167,0-.252,0s-.166,0-.251,0q-9.386,0-9.385,10.265c0,.417,0,.78.009,1.1-.007.249-.009.5-.009.76q0,5.708,2.253,8.341a7.426,7.426,0,0,0,4.221,2.308h6.325a7.431,7.431,0,0,0,4.222-2.308q2.252-2.632,2.252-8.341,0-.386-.01-.76m-4.959,5.606a3.627,3.627,0,0,1-1.931,1.88,7.147,7.147,0,0,1-5.474,0,4.568,4.568,0,0,1-2.188-2.1c-.4-.87-.692-2.076-.432-6.795a7.776,7.776,0,0,1,1.377-4.928,5.849,5.849,0,0,1,7.958,0,7.779,7.779,0,0,1,1.377,4.928c0,.032,0,.061,0,.094a20.245,20.245,0,0,1-.69,6.924" transform="translate(7558.859 9191.057)" fill="#fff"/>
    <rect id="Rectangle_15385" data-name="Rectangle 15385" width="4.278" height="5.073" transform="translate(8562.913 9859.706)" fill="#fff"/>
    <path id="Path_140571" data-name="Path 140571" d="M919.1,687.661h2.479v4.323h-2.688Z" transform="translate(7621.269 9179.444)" fill="#fff"/>
    <path id="Path_140572" data-name="Path 140572" d="M927.473,681.419a3.738,3.738,0,0,1-.9,2.593,4.116,4.116,0,0,1-2.939.878h-.2v4.3h.2q3.934,0,5.762-1.851t1.827-5.924c0-.142-.008-.291-.015-.437h-3.738c0,.147.013.3,0,.437" transform="translate(7619.368 9182.239)" fill="#fff"/>
    <path id="Path_140573" data-name="Path 140573" d="M949.812,687.661h-5.453v4.323h5.362Z" transform="translate(7610.607 9179.444)" fill="#fff"/>
    <path id="Path_140574" data-name="Path 140574" d="M934.79,681.419a3.74,3.74,0,0,0,.9,2.593,4.116,4.116,0,0,0,2.939.878h.2v4.3h-.2q-3.934,0-5.762-1.851t-1.827-5.924c0-.142.008-.291.015-.437h3.738c0,.147-.012.3,0,.437" transform="translate(7616.182 9182.239)" fill="#fff"/>
    <rect id="Rectangle_15386" data-name="Rectangle 15386" width="4.278" height="11.676" transform="translate(8546.707 9853.103)" fill="#fff"/>
    <path id="Path_140575" data-name="Path 140575" d="M893.585,687.661h2.745v4.323h-2.653Z" transform="translate(7631.861 9179.444)" fill="#fff"/>
    <path id="Path_140576" data-name="Path 140576" d="M902.267,681.419a3.74,3.74,0,0,1-.9,2.593,4.116,4.116,0,0,1-2.939.878h-.2v4.3h.2q3.934,0,5.762-1.851t1.827-5.924c0-.142-.008-.291-.015-.437h-3.738c0,.147.013.3,0,.437" transform="translate(7629.919 9182.239)" fill="#fff"/>
    <path id="Path_140577" data-name="Path 140577" d="M909.584,681.419a3.738,3.738,0,0,0,.9,2.593,4.116,4.116,0,0,0,2.939.878h.2v4.3h-.2q-3.934,0-5.762-1.851t-1.827-5.924c0-.142.008-.291.014-.437h3.738c0,.147-.012.3,0,.437" transform="translate(7626.733 9182.239)" fill="#fff"/>
    <rect id="Rectangle_15387" data-name="Rectangle 15387" width="4.278" height="7.966" transform="translate(8532.054 9856.813)" fill="#fff"/>
    <path id="Path_140578" data-name="Path 140578" d="M855.258,687.661h10.409v4.323H855.35Z" transform="translate(7647.905 9179.444)" fill="#fff"/>
    <path id="Path_140579" data-name="Path 140579" d="M877.122,681.419a3.739,3.739,0,0,1-.9,2.593,4.116,4.116,0,0,1-2.939.878h-.2v4.3h.2q3.933,0,5.762-1.851t1.827-5.924c0-.142-.008-.291-.014-.437h-3.738c0,.147.012.3,0,.437" transform="translate(7640.444 9182.239)" fill="#fff"/>
    <path id="Path_140580" data-name="Path 140580" d="M884.438,681.419a3.738,3.738,0,0,0,.9,2.593,4.116,4.116,0,0,0,2.939.878h.2v4.3h-.2q-3.934,0-5.762-1.851t-1.827-5.924c0-.142.008-.291.014-.437h3.739c0,.147-.013.3,0,.437" transform="translate(7637.26 9182.239)" fill="#fff"/>
    <rect id="Rectangle_15388" data-name="Rectangle 15388" width="4.278" height="6.011" transform="translate(8517.433 9858.768)" fill="#fff"/>
    <rect id="Rectangle_15389" data-name="Rectangle 15389" width="4.206" height="4.334" transform="translate(8553.414 9874.813)" fill="#fff"/>
    <rect id="Rectangle_15390" data-name="Rectangle 15390" width="4.206" height="4.334" transform="translate(8560.151 9874.813)" fill="#fff"/>
    <rect id="Rectangle_15391" data-name="Rectangle 15391" width="4.205" height="4.335" transform="translate(8495.098 9846.198)" fill="#fff"/>
    <path id="Path_140581" data-name="Path 140581" d="M814.043,664.091v4.034H800.725l2.4,4.123a11.066,11.066,0,0,1,1.808,5.533,6.553,6.553,0,0,1-2.1,5.064q-2.1,1.931-6.437,1.931H776.73a12.831,12.831,0,0,1-4.849-.837,7.063,7.063,0,0,1-3.154-2.339,10.309,10.309,0,0,1-1.588-3.176,12.986,12.986,0,0,1-.494-3.691v-2.661h3.991v2.275q0,6.351,6.867,6.351h18.931q4.291,0,4.291-3.359a9.406,9.406,0,0,0-1.587-4.263l-3.563-6.125v-2.862Zm-39.331,23.517h4.206v4.334h-4.206Zm6.738,0h4.206v4.334h-4.206Z" transform="translate(7685 9189.31)" fill="#fff"/>
    <path id="Path_140582" data-name="Path 140582" d="M1064.4,601.549a2.1,2.1,0,0,0-.62,1.394V619.96H1059.5V603.825a18.092,18.092,0,0,1,.016-1.916,4.5,4.5,0,0,1,2.971-3.9,11.185,11.185,0,0,1,3.357-.437l.235,3.312a3.213,3.213,0,0,0-1.68.667" transform="translate(7562.417 9217.156)" fill="#fff"/>
    <path id="Path_140583" data-name="Path 140583" d="M1022.515,626.957a37.811,37.811,0,0,0,2.581-12.645,10.171,10.171,0,0,0-.573-3.313,5.277,5.277,0,0,0-1.726-2.392,7.177,7.177,0,0,0-2.991-1.472,27.738,27.738,0,0,0-6.255-.505H999.21v4.323h14.25a33.077,33.077,0,0,1,4.714.322c6.294.814.651,14.542.651,14.542Z" transform="translate(7587.646 9213.365)" fill="#fff"/>
    <path id="Path_140584" data-name="Path 140584" d="M989.64,600.387a3.737,3.737,0,0,0,.9,2.592,4.115,4.115,0,0,0,2.94.88h.2v4.3h-.2q-3.934,0-5.763-1.852t-1.826-5.923c0-.143.008-.291.014-.437h3.739c0,.147-.013.3,0,.437" transform="translate(7593.221 9216.162)" fill="#fff"/>
    <path id="Path_140585" data-name="Path 140585" d="M884.5,620.963a29.833,29.833,0,0,0,.79-6.651,10.163,10.163,0,0,0-.573-3.314,5.275,5.275,0,0,0-1.726-2.392,7.164,7.164,0,0,0-2.99-1.471,27.742,27.742,0,0,0-6.255-.505H859.4v4.323h14.251a32.976,32.976,0,0,1,4.713.323c3.787.49,3.253,5.652,2.227,9.688-.68,2.674,3.293,2.845,3.905,0" transform="translate(7646.173 9213.365)" fill="#fff"/>
    <path id="Path_140586" data-name="Path 140586" d="M849.831,600.387a3.739,3.739,0,0,0,.9,2.592,4.112,4.112,0,0,0,2.939.88h.2v4.3h-.2q-3.934,0-5.762-1.852t-1.827-5.923c0-.143.008-.291.015-.437h3.738c0,.147-.013.3,0,.437" transform="translate(7651.746 9216.162)" fill="#fff"/>
    <path id="Path_140587" data-name="Path 140587" d="M896.634,628.722H846.083V633h51.664a10.456,10.456,0,0,1-1.113-4.278" transform="translate(7651.746 9204.116)" fill="#fff"/>
    <path id="Path_140588" data-name="Path 140588" d="M959.967,628.722A10.444,10.444,0,0,1,958.855,633h51.893v-4.278Z" transform="translate(7604.54 9204.116)" fill="#fff"/>
    <path id="Path_140589" data-name="Path 140589" d="M949.785,619.387c.006-.317.01-.68.01-1.1q-.013-10.263-9.386-10.265c-.085,0-.167,0-.251,0s-.166,0-.252,0q-9.385,0-9.385,10.265c0,.417,0,.781.009,1.1q-.01.374-.009.76,0,5.709,2.253,8.342A7.434,7.434,0,0,0,937,630.8h6.325a7.438,7.438,0,0,0,4.222-2.307q2.252-2.632,2.253-8.342,0-.386-.01-.76m-4.958,5.607a3.637,3.637,0,0,1-1.932,1.88,7.153,7.153,0,0,1-5.473,0,4.565,4.565,0,0,1-2.187-2.1c-.4-.87-.692-2.076-.433-6.795a7.771,7.771,0,0,1,1.377-4.928,5.849,5.849,0,0,1,7.958,0,7.775,7.775,0,0,1,1.377,4.928c0,.032,0,.061,0,.094a20.262,20.262,0,0,1-.689,6.925" transform="translate(7616.4 9212.781)" fill="#fff"/>
    <path id="Path_140590" data-name="Path 140590" d="M1064.991,585.364l2.191-.381,0,2-9.353,1.631v-2l3.033-.529a3.788,3.788,0,0,1-1.661-3.162,3.54,3.54,0,0,1,1.009-2.683,4.27,4.27,0,0,1,5.214-.149l-.9,1.716a2.577,2.577,0,0,0-1.5-.515,1.649,1.649,0,0,0-1.287.521,1.977,1.977,0,0,0-.473,1.385,2.055,2.055,0,0,0,.965,1.84,3.875,3.875,0,0,0,2.767.326" transform="translate(7563.108 9224.816)" fill="#fff"/>
    <path id="Path_140591" data-name="Path 140591" d="M1031.037,554.08a4.823,4.823,0,1,1,4.823-4.822,4.829,4.829,0,0,1-4.823,4.822m0-8.951a4.127,4.127,0,1,0,4.127,4.128,4.133,4.133,0,0,0-4.127-4.128" transform="translate(7576.343 9239.399)" fill="#fff"/>
    <path id="Path_140592" data-name="Path 140592" d="M1031.881,548.763a6.247,6.247,0,0,1,1.163-.1,1.92,1.92,0,0,1,1.358.383,1.168,1.168,0,0,1,.369.891,1.232,1.232,0,0,1-.885,1.2v.021a1.17,1.17,0,0,1,.69.948,7.235,7.235,0,0,0,.362,1.287h-.627a6.157,6.157,0,0,1-.313-1.12c-.141-.648-.391-.891-.941-.912h-.57v2.032h-.606Zm.606,2.137h.619c.647,0,1.058-.354,1.058-.891,0-.6-.438-.87-1.079-.878a2.425,2.425,0,0,0-.6.057Z" transform="translate(7573.97 9237.628)" fill="#fff"/>
  </g>
</svg>
