<svg xmlns="http://www.w3.org/2000/svg" width="385.598" height="328.667" viewBox="0 0 385.598 328.667"><defs><style>.a{fill:#fff;}</style></defs><g transform="translate(-8451.645 -9716.337)"><path class="a" d="M932.229,748.5c.082,0,.124.033.124.1v2.821a.11.11,0,0,1-.124.124h-7.682a8.216,8.216,0,0,1-5.455-1.64,5.656,5.656,0,0,1-1.941-4.571,6.2,6.2,0,0,1,.89-3.315,5.831,5.831,0,0,1,2.555-2.232,9.183,9.183,0,0,1,3.952-.785h.705v-1.238h3.81V748.5Zm-6.94,0v-6.457h-.668a3.82,3.82,0,0,0-2.666.853,3.17,3.17,0,0,0-.933,2.462,2.951,2.951,0,0,0,.915,2.325,3.832,3.832,0,0,0,2.635.817Zm-2.362-12.333a1.612,1.612,0,0,1-1.238-.489,1.865,1.865,0,0,1-.457-1.329,1.9,1.9,0,0,1,.45-1.342,1.611,1.611,0,0,1,1.244-.489,1.583,1.583,0,0,1,1.224.482,1.912,1.912,0,0,1,.446,1.348,1.857,1.857,0,0,1-.458,1.342A1.6,1.6,0,0,1,922.927,736.168Zm4.3,0a1.611,1.611,0,0,1-1.237-.489,1.863,1.863,0,0,1-.458-1.329,1.9,1.9,0,0,1,.451-1.342,1.611,1.611,0,0,1,1.244-.489,1.59,1.59,0,0,1,1.237.489,1.92,1.92,0,0,1,.445,1.342,1.853,1.853,0,0,1-.464,1.329A1.6,1.6,0,0,1,927.232,736.168Zm4.743,15.376a.11.11,0,0,1-.125-.124V748.6q0-.1.125-.1h2.98V739h3.785v4.44q2.312-4.687,6.865-4.688a6.23,6.23,0,0,1,4.688,1.638q1.584,1.64,1.584,5.066V748.5h3.3c.083,0,.125.033.125.1v2.821a.11.11,0,0,1-.125.124ZM948.1,748.5v-3.117a3.781,3.781,0,0,0-.847-2.716,3.506,3.506,0,0,0-2.617-.872q-3.413,0-5.9,4.726v1.98Zm-3.76-11.676a1.629,1.629,0,0,1-1.25-.489,1.866,1.866,0,0,1-.457-1.33,1.9,1.9,0,0,1,.452-1.342,1.621,1.621,0,0,1,1.255-.489,1.588,1.588,0,0,1,1.219.483,1.9,1.9,0,0,1,.451,1.348,1.849,1.849,0,0,1-.464,1.33A1.587,1.587,0,0,1,944.344,736.824Zm10.581,14.72a.11.11,0,0,1-.124-.124V748.6c0-.066.042-.1.124-.1h3.167V739h3.772v12.543Zm4.837,6.332a1.625,1.625,0,0,1-1.249-.488,1.867,1.867,0,0,1-.459-1.331,1.9,1.9,0,0,1,.452-1.341,1.624,1.624,0,0,1,1.256-.49,1.589,1.589,0,0,1,1.217.483,1.893,1.893,0,0,1,.452,1.348,1.852,1.852,0,0,1-.464,1.331A1.586,1.586,0,0,1,959.763,757.876Zm15.252-9.376c.082,0,.123.033.123.1v2.821a.109.109,0,0,1-.123.124h-6.939V732.3h3.773v16.2Zm17.227,0c.083,0,.124.033.124.1v2.821a.11.11,0,0,1-.124.124H974.765a.11.11,0,0,1-.123-.124V748.6c0-.066.041-.1.123-.1h3.624a5.025,5.025,0,0,1-1.225-3.339,5.6,5.6,0,0,1,1.955-4.5A8.139,8.139,0,0,1,984.561,739h4.515v9.5Zm-9.586-11.676a1.613,1.613,0,0,1-1.237-.489,1.866,1.866,0,0,1-.457-1.33,1.9,1.9,0,0,1,.451-1.342,1.61,1.61,0,0,1,1.244-.489,1.583,1.583,0,0,1,1.225.483,1.911,1.911,0,0,1,.446,1.348,1.859,1.859,0,0,1-.458,1.342A1.607,1.607,0,0,1,982.656,736.824ZM985.3,748.5v-6.457h-.668a3.819,3.819,0,0,0-2.647.847,3.154,3.154,0,0,0-.941,2.468,2.963,2.963,0,0,0,.91,2.325,3.81,3.81,0,0,0,2.629.817Zm1.657-11.676a1.614,1.614,0,0,1-1.237-.489,1.864,1.864,0,0,1-.458-1.33,1.9,1.9,0,0,1,.452-1.342,1.609,1.609,0,0,1,1.243-.489,1.586,1.586,0,0,1,1.237.489,1.916,1.916,0,0,1,.446,1.342,1.851,1.851,0,0,1-.464,1.33A1.6,1.6,0,0,1,986.96,736.824Zm5.03,14.72a.11.11,0,0,1-.124-.124V748.6c0-.066.042-.1.124-.1h3.166V732.3h3.773v19.248Zm13.53-19.248h3.773v19.248h-3.773Z" transform="translate(7684.569 9287.128)"/><rect class="a" width="13.859" height="142.625" transform="translate(8620.591 9716.337)"/><rect class="a" width="13.859" height="142.625" transform="translate(8641.426 9716.337)"/><rect class="a" width="13.859" height="142.625" transform="translate(8662.266 9716.337)"/><path class="a" d="M1150.441,659.873a3.6,3.6,0,0,0-1.062,2.391v32.721h-7.339V663.777a30.331,30.331,0,0,1,.026-3.286,7.711,7.711,0,0,1,5.094-6.692,19.2,19.2,0,0,1,5.759-.749l.4,5.68a5.516,5.516,0,0,0-2.88,1.144" transform="translate(7683.922 9287.355)"/><path class="a" d="M1037.139,700.516c1.155-2,4.654-14.146,4.427-21.687a17.467,17.467,0,0,0-.982-5.682,9.059,9.059,0,0,0-2.96-4.1,12.3,12.3,0,0,0-5.127-2.524,47.6,47.6,0,0,0-10.729-.867h-24.6v7.414h24.441a56.712,56.712,0,0,1,8.084.553c10.8,1.4,1.117,24.942,1.117,24.942Z" transform="translate(7684.337 9287.318)"/><path class="a" d="M990.279,659.725c.108,1.954.516,3.44,1.547,4.446s2.713,1.509,5.04,1.509h.344v7.38h-.344q-6.747,0-9.882-3.176t-3.133-10.158c0-.246.014-.5.024-.75h6.412c-.005.252-.021.51-.008.75" transform="translate(7684.375 9287.341)"/><path class="a" d="M984.331,687.661H972.025v7.415h12.149Z" transform="translate(7684.412 9287.251)"/><path class="a" d="M965.137,681.73c.109,1.956.517,3.441,1.547,4.447s2.713,1.507,5.042,1.507h.343v7.38h-.343q-6.747,0-9.883-3.174t-3.133-10.16c0-.244.015-.5.025-.749h6.412c-.006.251-.021.508-.008.749" transform="translate(7684.449 9287.272)"/><path class="a" d="M942.039,687.661h9.115v7.415H942.2Z" transform="translate(7684.495 9287.251)"/><path class="a" d="M958.03,681.73c-.107,1.956-.516,3.441-1.546,4.447s-2.714,1.507-5.041,1.507H951.1v7.38h.344q6.747,0,9.882-3.174t3.133-10.16c0-.244-.013-.5-.025-.749h-6.412c.005.251.021.508.008.749" transform="translate(7684.469 9287.272)"/><path class="a" d="M1123.782,656v25.1q0,3.491-1.509,5.041c-1.006,1.032-2.491,1.439-4.446,1.547-.24.014-.5,0-.75-.008l-.044,7.314h.794q6.986,0,10.159-3.132c2.117-2.093,3.21-5.386,3.21-9.884V656Z" transform="translate(7683.994 9287.345)"/><path class="a" d="M848.877,664.091v16.876q0,3.529,1.523,5.094c1.018,1.042,2.52,1.454,4.495,1.563.242.013.5,0,.757-.008l.044,7.391h-.8q-7.062,0-10.268-3.167c-2.138-2.114-3.243-5.44-3.243-9.987V664.091Z" transform="translate(7684.785 9287.32)"/><path class="a" d="M1072.013,687.746H978.367v7.338H1079.74a14.562,14.562,0,0,1-7.727-7.338" transform="translate(7684.393 9287.255)"/><path class="a" d="M1096.408,687.746a14.564,14.564,0,0,1-7.726,7.338h28.358v-7.338Z" transform="translate(7684.075 9287.255)"/><path class="a" d="M1101.018,679.407c.01-.545.017-1.167.016-1.883q-.022-17.6-16.1-17.6c-.147,0-.288.006-.433.008s-.285-.008-.432-.008q-16.1,0-16.1,17.6c0,.716,0,1.338.016,1.883-.012.428-.016.863-.016,1.3q0,9.789,3.864,14.306a12.736,12.736,0,0,0,7.238,3.958h10.849a12.75,12.75,0,0,0,7.242-3.958q3.861-4.514,3.863-14.306,0-.662-.016-1.3m-8.5,9.615a6.222,6.222,0,0,1-3.313,3.224,12.26,12.26,0,0,1-9.387,0,7.835,7.835,0,0,1-3.752-3.607c-.684-1.492-1.187-3.561-.741-11.653q.107-5.793,2.362-8.453c1.456-1.715,3.737-2.6,6.825-2.679,3.087.077,5.37.964,6.825,2.679q2.257,2.657,2.362,8.453c0,.055,0,.1,0,.16.185,5.722-.5,10.385-1.183,11.876" transform="translate(7684.135 9287.33)"/><rect class="a" width="7.338" height="8.701" transform="translate(8642.477 9962.226)"/><path class="a" d="M919.25,687.661h4.25v7.415h-4.611Z" transform="translate(7684.562 9287.251)"/><path class="a" d="M930.363,681.73c-.109,1.956-.516,3.441-1.547,4.447s-2.713,1.507-5.04,1.507h-.344v7.38h.344q6.747,0,9.882-3.174t3.133-10.16c0-.244-.013-.5-.024-.749h-6.412c.005.251.022.508.009.749" transform="translate(7684.55 9287.272)"/><path class="a" d="M953.712,687.661h-9.353v7.415h9.2Z" transform="translate(7684.491 9287.251)"/><path class="a" d="M937.471,681.73c.108,1.956.516,3.441,1.546,4.447s2.713,1.507,5.041,1.507h.345v7.38h-.345q-6.747,0-9.882-3.174t-3.133-10.16c0-.244.014-.5.025-.749h6.411c-.006.251-.021.508-.008.749" transform="translate(7684.529 9287.272)"/><rect class="a" width="7.338" height="20.024" transform="translate(8614.685 9950.897)"/><path class="a" d="M893.585,687.661h4.708v7.415h-4.551Z" transform="translate(7684.635 9287.251)"/><path class="a" d="M905.157,681.73c-.107,1.956-.516,3.441-1.547,4.447s-2.713,1.507-5.041,1.507h-.344v7.38h.344q6.747,0,9.882-3.174t3.134-10.16c0-.244-.015-.5-.026-.749h-6.411c.005.251.021.508.008.749" transform="translate(7684.62 9287.272)"/><path class="a" d="M912.264,681.73c.107,1.956.515,3.441,1.547,4.447s2.713,1.507,5.04,1.507h.345v7.38h-.345q-6.747,0-9.882-3.174t-3.133-10.16c0-.244.014-.5.025-.749h6.411c-.006.251-.021.508-.007.749" transform="translate(7684.601 9287.272)"/><rect class="a" width="7.338" height="13.662" transform="translate(8589.549 9957.266)"/><path class="a" d="M855.258,687.661H873.11v7.415H855.416Z" transform="translate(7684.745 9287.251)"/><path class="a" d="M880.012,681.73c-.108,1.956-.516,3.441-1.547,4.447s-2.713,1.507-5.04,1.507h-.344v7.38h.344q6.746,0,9.882-3.174t3.133-10.16c0-.244-.014-.5-.025-.749H880c.007.251.021.508.008.749" transform="translate(7684.693 9287.272)"/><path class="a" d="M887.119,681.73c.107,1.956.516,3.441,1.547,4.447s2.713,1.507,5.04,1.507h.343v7.38h-.343q-6.747,0-9.882-3.174t-3.134-10.16c0-.244.015-.5.025-.749h6.413c-.006.251-.022.508-.008.749" transform="translate(7684.673 9287.272)"/><rect class="a" width="7.338" height="10.309" transform="translate(8564.474 9960.615)"/><rect class="a" width="7.213" height="7.434" transform="translate(8626.184 9988.137)"/><rect class="a" width="7.213" height="7.434" transform="translate(8637.738 9988.137)"/><rect class="a" width="7.212" height="7.435" transform="translate(8526.168 9939.057)"/><path class="a" d="M847.937,664.091v6.919H825.094l4.113,7.071q3.1,5.223,3.1,9.489a11.24,11.24,0,0,1-3.608,8.685q-3.608,3.311-11.04,3.311H783.942a22.013,22.013,0,0,1-8.317-1.435,12.116,12.116,0,0,1-5.41-4.011,17.7,17.7,0,0,1-2.723-5.446,22.279,22.279,0,0,1-.847-6.33v-4.564h6.845v3.9q0,10.893,11.777,10.892h32.467q7.359,0,7.36-5.76,0-2.656-2.721-7.311l-6.11-10.5v-4.908Zm-67.455,40.334h7.213v7.433h-7.213Zm11.556,0h7.213v7.433h-7.213Z" transform="translate(7685 9287.32)"/><path class="a" d="M1067.914,604.393a3.6,3.6,0,0,0-1.064,2.391V635.97h-7.338V608.3a30.8,30.8,0,0,1,.027-3.286,7.71,7.71,0,0,1,5.094-6.692,19.19,19.19,0,0,1,5.758-.749l.4,5.68a5.506,5.506,0,0,0-2.88,1.144" transform="translate(7684.158 9287.51)"/><path class="a" d="M1039.179,641.492c1.155-2,4.651-14.146,4.426-21.687a17.452,17.452,0,0,0-.982-5.682,9.057,9.057,0,0,0-2.96-4.1,12.3,12.3,0,0,0-5.129-2.524,47.541,47.541,0,0,0-10.727-.866h-24.6v7.414h24.439a56.776,56.776,0,0,1,8.085.552c10.794,1.4,1.117,24.941,1.117,24.941Z" transform="translate(7684.334 9287.486)"/><path class="a" d="M992.321,600.7c.107,1.954.516,3.44,1.546,4.446s2.714,1.509,5.041,1.509h.344v7.379h-.344q-6.747,0-9.883-3.176T985.892,600.7c0-.245.014-.5.024-.75h6.412c-.005.252-.022.511-.008.75" transform="translate(7684.369 9287.51)"/><path class="a" d="M902.443,631.212A51.2,51.2,0,0,0,903.8,619.8a17.434,17.434,0,0,0-.983-5.683,9.045,9.045,0,0,0-2.96-4.1,12.281,12.281,0,0,0-5.128-2.522A47.551,47.551,0,0,0,884,606.63H859.4v7.413h24.441a56.579,56.579,0,0,1,8.083.553c6.495.84,5.58,9.693,3.82,16.615-1.166,4.587,5.648,4.879,6.7,0" transform="translate(7684.736 9287.486)"/><path class="a" d="M852.511,600.7c.108,1.954.516,3.44,1.546,4.446s2.714,1.509,5.041,1.509h.344v7.379H859.1q-6.747,0-9.882-3.176T846.083,600.7c0-.245.014-.5.025-.75h6.412c-.006.252-.022.511-.008.75" transform="translate(7684.772 9287.51)"/><path class="a" d="M932.782,628.722h-86.7v7.338H934.69a17.939,17.939,0,0,1-1.909-7.338" transform="translate(7684.772 9287.423)"/><path class="a" d="M960.762,628.722a17.9,17.9,0,0,1-1.908,7.338h89v-7.338Z" transform="translate(7684.447 9287.423)"/><path class="a" d="M963.561,627.511c.01-.543.016-1.167.016-1.882q-.023-17.6-16.1-17.6c-.146,0-.287.006-.431.008s-.286-.008-.433-.008q-16.1,0-16.1,17.6c0,.716.005,1.339.016,1.882q-.016.642-.016,1.3,0,9.791,3.864,14.307a12.747,12.747,0,0,0,7.24,3.958h10.848a12.757,12.757,0,0,0,7.24-3.958q3.863-4.514,3.865-14.307,0-.662-.016-1.3m-8.5,9.616a6.24,6.24,0,0,1-3.314,3.224,12.271,12.271,0,0,1-9.387,0,7.836,7.836,0,0,1-3.752-3.608c-.685-1.492-1.187-3.56-.742-11.654q.106-5.793,2.362-8.452c1.454-1.715,3.737-2.6,6.825-2.679,3.087.078,5.369.964,6.824,2.679q2.258,2.656,2.362,8.452c0,.055,0,.1,0,.161.186,5.723-.5,10.385-1.182,11.876" transform="translate(7684.531 9287.482)"/><path class="a" d="M1070.114,589.718l3.758-.653,0,3.437-16.042,2.8v-3.438l5.2-.907a6.5,6.5,0,0,1-2.848-5.423,6.073,6.073,0,0,1,1.729-4.6,7.325,7.325,0,0,1,8.943-.256l-1.546,2.943a4.426,4.426,0,0,0-2.577-.883,2.828,2.828,0,0,0-2.207.894,3.388,3.388,0,0,0-.811,2.376,3.525,3.525,0,0,0,1.655,3.156,6.645,6.645,0,0,0,4.745.558" transform="translate(7684.163 9287.57)"/><path class="a" d="M1034.486,560.978a8.272,8.272,0,1,1,8.271-8.27,8.283,8.283,0,0,1-8.271,8.27m0-15.351a7.079,7.079,0,1,0,7.079,7.081,7.089,7.089,0,0,0-7.079-7.081" transform="translate(7684.253 9287.666)"/><path class="a" d="M1031.881,548.834a10.659,10.659,0,0,1,2-.169,3.292,3.292,0,0,1,2.328.657,2,2,0,0,1,.634,1.529,2.113,2.113,0,0,1-1.518,2.054v.036a2.007,2.007,0,0,1,1.183,1.625,12.353,12.353,0,0,0,.621,2.208h-1.076a10.556,10.556,0,0,1-.536-1.922c-.242-1.112-.67-1.528-1.614-1.564h-.978v3.486h-1.04Zm1.04,3.664h1.063c1.109,0,1.815-.607,1.815-1.527,0-1.038-.752-1.492-1.85-1.506a4.147,4.147,0,0,0-1.027.1Z" transform="translate(7684.24 9287.653)"/></g></svg>