<svg xmlns="http://www.w3.org/2000/svg" width="69.902" height="62.216" viewBox="0 0 69.902 62.216">
  <g id="Group_127650" data-name="Group 127650" transform="translate(-1388.896 -590)">
    <circle id="Ellipse_540" data-name="Ellipse 540" cx="20.5" cy="20.5" r="20.5" transform="translate(1417.799 611.216)" fill="#ddbe86" opacity="0.2"/>
    <g id="surface1" transform="translate(1388.896 590)">
      <path id="Path_148838" data-name="Path 148838" d="M216.754,195.551H208.5a2.61,2.61,0,0,0-2.607,2.607v4.215a2.61,2.61,0,0,0,2.607,2.607h8.252a2.61,2.61,0,0,0,2.607-2.607v-4.215A2.61,2.61,0,0,0,216.754,195.551Zm.592,6.822a.592.592,0,0,1-.592.592H208.5a.592.592,0,0,1-.592-.592v-4.215a.592.592,0,0,1,.592-.592h8.252a.592.592,0,0,1,.592.592Zm0,0" transform="translate(-178.226 -169.272)" fill="#ddbe86"/>
      <path id="Path_148839" data-name="Path 148839" d="M68.791,11.278a2.794,2.794,0,0,0-2.775-2.505H46.332V4.053A4.058,4.058,0,0,0,42.279,0H26.526a4.058,4.058,0,0,0-4.053,4.053v4.72H2.79A2.793,2.793,0,0,0,.015,11.278,2.682,2.682,0,0,0,0,11.562V51.351a2.793,2.793,0,0,0,2.79,2.79H66.015a2.793,2.793,0,0,0,2.79-2.79V11.562A2.841,2.841,0,0,0,68.791,11.278Zm-44.3-7.225a2.04,2.04,0,0,1,2.037-2.037H42.279a2.04,2.04,0,0,1,2.037,2.037v4.72H43.022V4.837A1.529,1.529,0,0,0,41.5,3.31H27.309a1.529,1.529,0,0,0-1.527,1.527V8.773H24.488ZM41.007,5.326V8.773H27.8V5.326Zm25.782,7.609a6.54,6.54,0,0,1-3.724,5.885L44.313,27.7a1.008,1.008,0,0,0,.862,1.822l18.752-8.881a8.5,8.5,0,0,0,2.862-2.211V51.351a.774.774,0,0,1-.774.774H2.79a.774.774,0,0,1-.774-.774V18.431a8.5,8.5,0,0,0,2.862,2.211l18.785,8.9a1.008,1.008,0,0,0,.863-1.822L5.74,18.819a6.54,6.54,0,0,1-3.724-5.885V11.562a.791.791,0,0,1,0-.079.774.774,0,0,1,.77-.694H66.015a.774.774,0,0,1,.77.694c0,.026,0,.052,0,.079Zm0,0" fill="#ddbe86"/>
    </g>
  </g>
</svg>
