<svg xmlns="http://www.w3.org/2000/svg" width="54.551" height="62.216" viewBox="0 0 54.551 62.216">
  <g id="Group_127652" data-name="Group 127652" transform="translate(-1404.248 -590)">
    <circle id="Ellipse_540" data-name="Ellipse 540" cx="20.5" cy="20.5" r="20.5" transform="translate(1417.799 611.216)" fill="#ddbe86" opacity="0.2"/>
    <g id="_4381121" data-name="4381121" transform="translate(1328.412 590)">
      <g id="Group_127290" data-name="Group 127290" transform="translate(75.836 0)">
        <path id="Path_148844" data-name="Path 148844" d="M112.881,0H76.893a1.057,1.057,0,0,0-1.057,1.057v5.9a1.057,1.057,0,0,0,1.057,1.057h2.491L92.6,21.216a16.636,16.636,0,1,0,4.581,0l13.213-13.2h2.491a1.057,1.057,0,0,0,1.057-1.057v-5.9A1.057,1.057,0,0,0,112.881,0ZM94.887,10.294,92.6,8.013H97.17Zm-1.5,1.495L89.773,15.4l-7.4-7.392h7.236ZM109.408,37.6a14.521,14.521,0,1,1-14.52-14.426A14.49,14.49,0,0,1,109.408,37.6ZM94.887,20.515,91.269,16.9l8.893-8.887H107.4ZM111.823,5.9H77.951V2.115h33.873Z" transform="translate(-75.836 0)" fill="#ddbe86"/>
        <path id="Path_148845" data-name="Path 148845" d="M199.361,292.24l-1.841,2.686-3.123.921a1.057,1.057,0,0,0-.539,1.659l1.985,2.58-.089,3.255a1.057,1.057,0,0,0,1.411,1.025l3.068-1.091,3.068,1.091a1.057,1.057,0,0,0,1.411-1.025l-.089-3.255,1.985-2.58a1.057,1.057,0,0,0-.539-1.659l-3.123-.921-1.841-2.686a1.058,1.058,0,0,0-1.745,0Zm2.053,4.192a1.057,1.057,0,0,0,.573.416l2,.591-1.274,1.656a1.058,1.058,0,0,0-.219.674l.057,2.088-1.968-.7a1.058,1.058,0,0,0-.709,0l-1.968.7.057-2.088a1.058,1.058,0,0,0-.219-.674l-1.274-1.656,2-.591a1.058,1.058,0,0,0,.573-.416l1.181-1.723Z" transform="translate(-181.182 -260.927)" fill="#ddbe86"/>
      </g>
    </g>
  </g>
</svg>
