<svg xmlns="http://www.w3.org/2000/svg" width="67.959" height="62.216" viewBox="0 0 67.959 62.216">
  <g id="Group_127650" data-name="Group 127650" transform="translate(-1390.839 -590)">
    <circle id="Ellipse_540" data-name="Ellipse 540" cx="20.5" cy="20.5" r="20.5" transform="translate(1417.799 611.216)" fill="#ddbe86" opacity="0.2"/>
    <path id="Path_148840" data-name="Path 148840" d="M-899.558,1192.013a3.139,3.139,0,0,1-.779,2.587c-1.528,1.578-3.082,3.131-4.633,4.687-.51.512-1.142.918-1.731.248-.46-.525-.115-1.094.341-1.548.9-.893,1.783-1.8,2.679-2.7,2.931-2.928,2.932-2.927-.081-5.937-1.735-1.733-3.48-3.456-5.2-5.207-.5-.514-1.337-1.1-.508-1.881.8-.758,1.37.05,1.893.566,1.683,1.664,3.424,3.279,4.993,5.047,1,1.126,1.615.978,2.54-.051,1.411-1.57,3-2.977,4.447-4.518a1.9,1.9,0,0,1,2.823-.416c2.674,1.635,4.117,1.367,6.493-.978,4.272-4.217,8.5-8.478,12.76-12.708.936-.929,1.869-1.921,1.111-3.3-.788-1.431-2.023-1.263-3.259-.5a.848.848,0,0,1-1.3-.252.881.881,0,0,1,.137-1.154c.947-1.052,1.839-2.146.719-3.536-.955-1.186-2.09-.728-3.176-.08a.755.755,0,0,1-1.094-.269,1,1,0,0,1,.047-1.187c.292-.406.675-.745,1-1.129a2,2,0,0,0,.192-2.565,1.893,1.893,0,0,0-2.471-.644c-.664.251-1.35.994-1.992.069-.522-.754.191-1.223.6-1.711.885-1.048,1.126-2.2.032-3.13-1.078-.918-2.189-.507-3.138.456-2.056,2.086-3.9,4.418-7.262,4.586-.89.045-1.613.867-1.279,2.362.558,2.493-.953,4.24-3.577,4.418a1.791,1.791,0,0,0-1.866,1.2,2.493,2.493,0,0,1-1.841,1.618c-1.77.148-2.56,1.249-3.6,2.477-1,1.177-3.2,1.544-1.457,3.755.1.128-.433.854-.768,1.212-.926.986-1.894,1.932-2.861,2.878-1.4,1.368-3.424,2.624-.535,4.531a.911.911,0,0,1,.048,1.529,1,1,0,0,1-1.362-.223c-.181-.177-.378-.339-.548-.525-3.857-4.249-3.822-2.849-7.025.237-.67.645-1.3,1.336-1.982,1.962-.489.446-1.042,1.033-1.712.281s0-1.239.454-1.7q2.125-2.179,4.3-4.308c.614-.6,1.427-1.272,2.215-1.081,3.976.967,5.012-2.711,7-4.587.976-.92-.448-2.687-1.26-3.877-.47-.69-1.2-1.2-1.7-1.87-.941-1.257-1.244-2.843-.274-4a30.322,30.322,0,0,0,4.047-5.494,22.9,22.9,0,0,1,2.53-3.973c1.987-2.348,4.864-3.954,7.431-5.786a1.741,1.741,0,0,1,1.468.038c1.889.934,3.76.431,5.673.159,1.808-.257,3.744-.752,5.048,1.241.434.662,1.034.216,1.589.149a5.113,5.113,0,0,1,2.943.421c2.021.968,1.216,3.614,2.474,4.493,1.653,1.155,2.991,2.1,2.961,4.247-.008.572-.189,1.157.6,1.453a3.64,3.64,0,0,1,2.539,3.933c-.045.775.437.892.987,1.2,2.943,1.657,3.425,4.13,1.143,6.621-.972,1.062-1.035,1.63.04,2.538,1.536,1.3,2.612,3.348,5.236,2.51.826-.264,1.585.5,2.192,1.074q2.113,2.01,4.134,4.117c.478.5,1.375,1.075.472,1.859-.8.691-1.385-.057-1.919-.579-1.209-1.182-2.43-2.354-3.59-3.583-1.186-1.257-2.237-1.2-3.438.018q-6.059,6.136-12.2,12.191c-1.219,1.2-1.216,2.281,0,3.455,1.278,1.231,2.52,2.5,3.766,3.766.488.5.995,1.1.387,1.749-.644.689-1.237.117-1.714-.355-1.5-1.485-3.006-2.972-4.451-4.512a2.409,2.409,0,0,1-.784-1.526,5.125,5.125,0,0,0-2.079-5.209.779.779,0,0,1-.012-1.3.978.978,0,0,1,1.543.226c1.852,2.755,3.19,1.241,4.733-.392q3.83-4.055,7.9-7.885c1.106-1.041,1.36-1.769.025-2.731a6.657,6.657,0,0,1-1.432-1.431c-.943-1.276-1.664-1.16-2.747-.018-2.966,3.128-6.1,6.1-9.115,9.179-2.463,2.514-5.173,3.719-8.6,1.991a1.5,1.5,0,0,0-.9-.213C-895.57,1185.13-899.613,1190.547-899.558,1192.013Zm3.141-34.153a2.188,2.188,0,0,0-.253-.864,37.253,37.253,0,0,0-5.518-5.508,1.577,1.577,0,0,0-2.259.38,1.777,1.777,0,0,0,.013,2.532c1.551,1.661,3.2,3.234,4.822,4.825a1.9,1.9,0,0,0,2.124.343A1.851,1.851,0,0,0-896.417,1157.86Zm5.779-9.966c-1.5.207-3.007.418-4.511.619-2.019.269-2.352,1.065-1.151,2.774,1.446,2.058,4.688,1.818,6.974-.582.522-.548,1.622-.921,1.114-2C-888.708,1147.642-889.687,1147.757-890.638,1147.894ZM-901.524,1161c.023-1.252-3.513-4.833-4.758-4.818a1.839,1.839,0,0,0-1.52,2.893,16.728,16.728,0,0,0,3.347,3.408A1.832,1.832,0,0,0-901.524,1161Zm-8.134,0a1.836,1.836,0,0,0-1.881,1.905c.022,1.216,2.135,3.364,3.332,3.317a1.8,1.8,0,0,0,1.89-1.9C-906.274,1163.141-908.464,1161.018-909.657,1161Zm10.524-12.975c-2.253,1.982-.355,3.044,1.04,4.67C-898.5,1150.873-899.155,1149.529-899.133,1148.028Z" transform="translate(2314.851 -555.745)" fill="#ddbe86"/>
  </g>
</svg>
