<svg xmlns="http://www.w3.org/2000/svg" width="26" height="21.117" viewBox="0 0 26 21.117">
  <path id="twitter" d="M10.327-15.046A11.454,11.454,0,0,0,13-17.8a10.683,10.683,0,0,1-3.068.825,5.314,5.314,0,0,0,2.343-2.937,10.491,10.491,0,0,1-3.382,1.287A5.316,5.316,0,0,0,5-20.308,5.326,5.326,0,0,0-.33-14.98,6.015,6.015,0,0,0-.2-13.759a15.146,15.146,0,0,1-10.987-5.576,5.288,5.288,0,0,0-.726,2.689,5.325,5.325,0,0,0,2.376,4.438,5.366,5.366,0,0,1-2.409-.676v.066a5.329,5.329,0,0,0,4.273,5.23,5.634,5.634,0,0,1-1.4.181A6.716,6.716,0,0,1-10.08-7.49,5.338,5.338,0,0,0-5.1-3.794a10.672,10.672,0,0,1-6.615,2.277A11.028,11.028,0,0,1-13-1.584,15.058,15.058,0,0,0-4.817.808,15.057,15.057,0,0,0,10.344-14.353C10.344-14.584,10.344-14.815,10.327-15.046Z" transform="translate(13 20.308)" fill="#ddbe86"/>
</svg>
