<svg id="whatsapp_bussnis" xmlns="http://www.w3.org/2000/svg" width="27.832" height="27.957" viewBox="0 0 27.832 27.957">
  <path id="Path_3142" data-name="Path 3142" d="M310.867,323.634c-.259-.577-.532-.588-.779-.6-.2-.009-.433-.008-.663-.008a1.272,1.272,0,0,0-.923.433,3.881,3.881,0,0,0-1.212,2.888,6.735,6.735,0,0,0,1.414,3.581c.173.231,2.4,3.839,5.915,5.227,2.925,1.153,3.52.924,4.155.866a3.5,3.5,0,0,0,2.337-1.646,2.9,2.9,0,0,0,.2-1.646c-.087-.144-.317-.231-.664-.4s-2.049-1.011-2.366-1.126-.548-.173-.779.173-.894,1.126-1.1,1.357-.4.26-.75.087a9.475,9.475,0,0,1-2.785-1.719,10.436,10.436,0,0,1-1.926-2.4c-.2-.346-.022-.534.152-.707.155-.155.346-.4.519-.606a2.374,2.374,0,0,0,.346-.577.638.638,0,0,0-.029-.607C311.848,326.031,311.175,324.319,310.867,323.634Z" transform="translate(-300.357 -315.574)" fill="#fff" fill-rule="evenodd"/>
  <path id="Path_3143" data-name="Path 3143" d="M30.777,4.177A13.859,13.859,0,0,0,8.966,20.892L7,28.071l7.346-1.926a13.848,13.848,0,0,0,6.622,1.686h.006a13.859,13.859,0,0,0,9.8-23.654Zm-9.8,21.315h0a11.5,11.5,0,0,1-5.862-1.605l-.421-.249L10.327,24.78l1.164-4.249-.274-.436a11.519,11.519,0,1,1,9.757,5.4Z" transform="translate(-7 -0.114)" fill="#fff"/>
</svg>
