<svg xmlns="http://www.w3.org/2000/svg" width="96.336" height="61.396" viewBox="0 0 96.336 61.396">
  <g id="Client_30" transform="translate(-17120.857 -14381.115)">
    <path id="Path_141414" data-name="Path 141414" d="M798.858,256.98c.289-.129.536.026.794.123q3.164,1.184,6.329,2.362,9.517,3.558,19.037,7.116a13.321,13.321,0,0,0,6.221.747,24.575,24.575,0,0,0,4.579-1.146q14.09-4.412,28.178-8.834,13.715-4.3,27.432-8.595c.836-.26,1.676-.512,2.514-.769a.14.14,0,0,1,.175.073c.024.047-.015.082-.057.1-2.714.978-5.428,1.963-8.145,2.935q-7.515,2.694-15.033,5.38-10.646,3.8-21.294,7.591c-5.014,1.786-10.03,3.563-15.029,5.4a17.2,17.2,0,0,1-3.856,1.045,10.911,10.911,0,0,1-6.069-.907c-2.524-1.194-5.022-2.449-7.533-3.677q-9.069-4.431-18.141-8.858a.359.359,0,0,0-.1-.028Z" transform="translate(16322 14135)" fill="#157273"/>
    <path id="Path_141415" data-name="Path 141415" d="M894.286,251.492c-.835.428-1.666.859-2.5,1.279q-4.731,2.375-9.461,4.744-6.741,3.379-13.484,6.758-6.238,3.124-12.482,6.243-9.449,4.737-18.891,9.474c-1.419.71-2.838,1.417-4.268,2.1a9.053,9.053,0,0,1-4.175.925,8.669,8.669,0,0,1-4.974-1.783c-2.544-1.874-5.057-3.792-7.6-5.676q-7.8-5.794-15.615-11.574c-.412-.3-.82-.611-1.227-.92-.049-.037-.125-.053-.122-.156a.515.515,0,0,1,.492.084c1.815,1.186,3.677,2.291,5.518,3.435q6.219,3.856,12.446,7.7c2.443,1.511,4.882,3.032,7.331,4.529a7.912,7.912,0,0,0,4.765,1.2,10.038,10.038,0,0,0,3.479-1q12.48-5.679,24.964-11.344l23.049-10.478q5.985-2.718,11.971-5.444a2.369,2.369,0,0,1,.6-.222c.089-.006.177-.01.177.125" transform="translate(16322 14135)" fill="#157273"/>
    <path id="Path_141416" data-name="Path 141416" d="M893.11,250.27c-.832.411-1.7.746-2.545,1.111q-11.11,4.764-22.222,9.523-10.143,4.34-20.289,8.678-7.035,3.009-14.063,6.033a13.727,13.727,0,0,1-3.583,1.081,9.071,9.071,0,0,1-6.178-1.3q-9.5-5.891-19.03-11.722l-5.919-3.645c-.066-.041-.158-.057-.191-.176a.7.7,0,0,1,.485.051q4.048,2,8.1,4l12.6,6.192c1.81.892,3.614,1.791,5.424,2.678a8.388,8.388,0,0,0,3.956.873,11.546,11.546,0,0,0,3.821-.9q10.827-4.15,21.662-8.275,10.23-3.9,20.46-7.806l17.133-6.539c.1-.039.213-.064.32-.094.07-.041.122-.024.146.053s-.023.139-.084.185" transform="translate(16322 14135)" fill="#157273"/>
    <path id="Path_141417" data-name="Path 141417" d="M894.784,246.227c-.729.268-1.482.442-2.225.655q-10.506,2.994-21.016,5.985-11.451,3.256-22.9,6.506c-4.836,1.378-9.664,2.78-14.495,4.166a20.15,20.15,0,0,1-4.453.791,13.552,13.552,0,0,1-5.424-.916q-11.058-4.032-22.133-8.016-.816-.294-1.633-.592c-.06-.02-.145-.044-.164-.09a.378.378,0,0,1-.018-.254c.038-.105.127-.026.191-.009q4.764,1.187,9.526,2.373l14.434,3.605a28.206,28.206,0,0,0,2.89.657,13.8,13.8,0,0,0,3.293.064,54.957,54.957,0,0,0,7.191-1.522c4.283-1,8.56-2.038,12.839-3.06q5.547-1.331,11.1-2.66t11.1-2.65l11.069-2.648q5.127-1.229,10.254-2.448a2.682,2.682,0,0,1,.36-.045c.091,0,.194-.03.223.108" transform="translate(16322 14135)" fill="#157273"/>
    <path id="Path_141418" data-name="Path 141418" d="M889.853,293.69c-1.365,0-2.73,0-4.1,0a2.271,2.271,0,0,1-1.134-.264,1.647,1.647,0,0,1-.823-1.517c-.024-1.344-.009-2.686-.013-4.029,0-.552-.017-1.108-.015-1.662,0-.392.087-.472.466-.485.047,0,.094,0,.141,0,.648-.056.792.074.754.751-.079,1.448-.029,2.9-.023,4.345a4.254,4.254,0,0,0,.038.551c.074.582.411.846,1.108.849,1.674.008,3.347.006,5.021.008.589,0,1.178.007,1.767.006.526,0,.65-.156.56-.7a2.534,2.534,0,0,0-1.88-2.048,2.7,2.7,0,0,0-2.54.723c-.152.139-.226.146-.329-.04a5.843,5.843,0,0,1-.354-.625.473.473,0,0,1,.146-.618,3.877,3.877,0,0,1,6.371,2.411,7.838,7.838,0,0,1,.172,1.647c-.011.385-.157.581-.518.634a4.887,4.887,0,0,1-.725.059c-1.365.006-2.73,0-4.095,0" transform="translate(16322 14135)" fill="#157276"/>
    <path id="Path_141419" data-name="Path 141419" d="M853.495,303.938c0-.407.011-.816,0-1.225-.02-.615-.277-.859-.859-.844-.619.012-.93.314-.926.907q.006,1.149.016,2.3c0,.42-.143.575-.554.584s-.6-.128-.575-.551c.042-.785-.05-1.57.015-2.356.044-.524-.171-.845-.557-.885-.71-.075-1.149.192-1.214.756a22.415,22.415,0,0,0-.046,2.446c0,.446-.157.6-.573.59-.354-.015-.492-.161-.49-.557,0-1,.019-2,.025-3,0-.234-.034-.467-.023-.7.017-.343.156-.475.465-.412a5.042,5.042,0,0,0,1.561-.039,2.091,2.091,0,0,1,1.477.3.332.332,0,0,0,.412-.013,2.466,2.466,0,0,1,2-.218,1.356,1.356,0,0,1,.911,1.419c.01.551-.034,1.1-.039,1.659,0,.3.028.6.038.9.007.213.034.452-.181.575a.761.761,0,0,1-.729-.009c-.145-.075-.152-.234-.152-.381q0-.629,0-1.256Z" transform="translate(16322 14135)" fill="#237778"/>
    <path id="Path_141420" data-name="Path 141420" d="M859,301.725c0,.66,0,1.322,0,1.983,0,.576.219.833.765.917a6.613,6.613,0,0,0,1.427.038c.471-.028.714-.3.783-.827a7.405,7.405,0,0,0,.052-.988q0-1.56-.005-3.121c0-.449.106-.552.556-.552s.571.1.571.539q0,1.955-.008,3.909a5,5,0,0,1-.059.725,1.288,1.288,0,0,1-.991,1.132,6.5,6.5,0,0,1-2.693.088,1.843,1.843,0,0,1-1.061-.4,1.245,1.245,0,0,1-.407-.866c-.035-.609-.026-1.222-.032-1.832-.009-.9.044-1.8-.013-2.706-.03-.479.089-.59.54-.592.469,0,.58.112.579.6v1.954Z" transform="translate(16322 14135)" fill="#237778"/>
    <path id="Path_141421" data-name="Path 141421" d="M852.7,292.24h1.6c.458,0,.589-.172.517-.655a2.34,2.34,0,0,0-1.059-1.821,2.7,2.7,0,0,0-1.205-.323.843.843,0,0,1-.612-1.287.239.239,0,0,1,.234-.13,4.787,4.787,0,0,1,2.563.679,3.6,3.6,0,0,1,1.4,2.365,8.883,8.883,0,0,1,.123,1.913c-.012.439-.165.624-.584.659-1.137.095-2.275.044-3.414.032-.4-.005-.8.019-1.2.027s-.472-.084-.476-.492c0-.176-.017-.351-.01-.525.013-.338.124-.45.449-.452.56,0,1.12,0,1.681,0Z" transform="translate(16322 14135)" fill="#227676"/>
    <path id="Path_141422" data-name="Path 141422" d="M836.447,301.975c-.034.679.057,1.517-.051,2.35a1.271,1.271,0,0,1-.957,1.156,5.885,5.885,0,0,1-2.139.155,6.629,6.629,0,0,1-.942-.131,1.313,1.313,0,0,1-1.123-1.411c-.019-1.128-.017-2.256-.027-3.385,0-.338-.025-.677-.027-1.017,0-.4.1-.508.474-.517.093,0,.187,0,.281,0a.339.339,0,0,1,.364.381c0,1.217.032,2.434,0,3.646-.029,1.125.228,1.447,1.3,1.459a5.724,5.724,0,0,0,.98-.021c.515-.085.706-.309.75-.848.086-1.057.033-2.118.046-3.175,0-.331-.007-.664,0-.995s.168-.468.571-.462c.36,0,.5.125.5.468.006.731,0,1.459,0,2.345" transform="translate(16322 14135)" fill="#25787a"/>
    <path id="Path_141423" data-name="Path 141423" d="M887.167,303.6c0,.507,0,1.012,0,1.518-.005.4-.159.541-.565.541s-.561-.138-.559-.543c0-.536.032-1.069.031-1.6,0-.621-.03-1.242-.038-1.862-.008-.53.141-.682.647-.666.2.006.408.052.612.057.443.016.591-.129.633-.577.015-.162-.083-.4.134-.458a1.4,1.4,0,0,1,.828.019c.111.039.088.178.086.285-.014.549.1.678.622.676.215,0,.43-.008.644-.016.292-.013.368.058.408.383.042.343-.039.51-.3.553a5.448,5.448,0,0,1-.587.021c-.6.026-.744.165-.751.784-.006.526,0,1.05.007,1.575.005.279.155.445.391.424s.346-.165.347-.428c0-.584.438-.824.923-.518a.359.359,0,0,1,.168.423c-.067.254-.131.508-.218.752a1.084,1.084,0,0,1-.842.723,2.153,2.153,0,0,1-.972-.024,1.164,1.164,0,0,1-.912-1.257c-.011-.609-.03-1.221.014-1.834a.587.587,0,0,0-.3-.635c-.316-.155-.453-.068-.453.289v1.4Z" transform="translate(16322 14135)" fill="#25787b"/>
    <path id="Path_141424" data-name="Path 141424" d="M883.693,300.93a3.316,3.316,0,0,1,1.131.118,1.045,1.045,0,0,1,.817,1.128.3.3,0,0,1-.056.191.722.722,0,0,1-1.04-.069c-.287-.488-.477-.576-1.018-.477a2.42,2.42,0,0,1-.388.048.312.312,0,0,0-.35.328c-.015.24.026.46.31.494.509.058,1.022.1,1.53.167.95.131,1.154.593,1.109,1.51-.04.812-.345,1.065-1.151,1.24a4.783,4.783,0,0,1-2.1-.091,1.138,1.138,0,0,1-.812-1.46.262.262,0,0,1,.049-.1.837.837,0,0,1,1.017.163,1.292,1.292,0,0,0,1.569.616.5.5,0,0,0,.327-.623c-.042-.261-.232-.3-.438-.318a12.863,12.863,0,0,1-1.613-.174.967.967,0,0,1-.875-1.029,2.9,2.9,0,0,1,.019-.639,1.079,1.079,0,0,1,.984-.956,4.713,4.713,0,0,1,.982-.065" transform="translate(16322 14135)" fill="#227676"/>
    <path id="Path_141425" data-name="Path 141425" d="M891.531,306.977c-.035-.239.115-.362.333-.435.655-.211.792-.5.546-1.169q-.727-1.98-1.461-3.958c-.135-.368-.122-.384.249-.429a.781.781,0,0,1,.956.636c.213.66.425,1.32.676,1.966.042.113.052.308.158.308.137,0,.143-.2.192-.315a11.059,11.059,0,0,0,.539-1.982c.129-.6.491-.789,1.04-.559.152.063.236.155.172.333-.546,1.524-.844,3.125-1.328,4.669a4.345,4.345,0,0,1-.312.776,1.378,1.378,0,0,1-1.354.694c-.293,0-.406-.169-.406-.535" transform="translate(16322 14135)" fill="#227676"/>
    <path id="Path_141426" data-name="Path 141426" d="M846.958,290.713c-.051,1,.046,1.871-.072,2.732a2.3,2.3,0,0,1-2.17,2.246,4.182,4.182,0,0,0-.435.1c-.191.035-.306-.045-.327-.254-.01-.1-.027-.192-.037-.289-.06-.575.023-.689.576-.8.7-.138,1.057-.633,1.072-1.544.023-1.323.044-2.645.005-3.966v-.06c-.015-.73.313-1,1.007-.824a.491.491,0,0,1,.382.558c0,.749,0,1.5,0,2.1" transform="translate(16322 14135)" fill="#237778"/>
    <path id="Path_141427" data-name="Path 141427" d="M863.522,303.324c0-.582,0-1.165,0-1.748,0-.493.165-.671.63-.576a3.723,3.723,0,0,0,1.277-.038,2.772,2.772,0,0,1,1.3.079,1.122,1.122,0,0,1,.8,1.012c.1.784.028,1.572.048,2.357.006.242,0,.485,0,.728,0,.385-.128.52-.478.523-.432,0-.58-.12-.581-.512,0-.7,0-1.4,0-2.1,0-.147,0-.292,0-.439-.025-.563-.314-.828-.853-.781-.8.067-1.05.34-1.059,1.175-.007.678,0,1.359.006,2.041a.554.554,0,0,1-.867.548c-.206-.106-.216-.3-.216-.495,0-.591,0-1.184,0-1.778h0" transform="translate(16322 14135)" fill="#237778"/>
    <path id="Path_141428" data-name="Path 141428" d="M848.164,292.757c0-1.232.006-2.466,0-3.7-.006-.923-.032-1.845-.044-2.767-.005-.481.11-.6.58-.6.79,0,.825.038.794.875s-.017,1.652-.005,2.476c.015,1.011-.014,2.022-.015,3.03,0,.339.021.678.042,1.017.027.418-.123.6-.524.6-.846.012-.873-.017-.826-.938" transform="translate(16322 14135)" fill="#096e6f"/>
    <path id="Path_141429" data-name="Path 141429" d="M840.212,289.664V293.1c0,.472-.129.6-.584.6-.075,0-.15,0-.225-.007-.387-.015-.538-.166-.541-.577,0-.495.007-.99.023-1.483.054-1.739,0-3.477-.024-5.214a1.821,1.821,0,0,1,.03-.375.387.387,0,0,1,.431-.357c1.022-.006.89.141.887.915-.006,1.021,0,2.041,0,3.061Z" transform="translate(16322 14135)" fill="#096e6f"/>
    <path id="Path_141430" data-name="Path 141430" d="M868.024,302.931a13.576,13.576,0,0,1-.037-1.626.3.3,0,0,1,.334-.314c.551,0,1.1,0,1.653,0,.277,0,.388.184.465.421q.4,1.2.8,2.413c.029.087.028.195.14.258a22.147,22.147,0,0,0,.7-2.169,2.712,2.712,0,0,1,.127-.444.9.9,0,0,1,1.2-.419c.144.078.037.169.013.241-.309.945-.623,1.885-.938,2.829-.131.391-.273.782-.4,1.176a.464.464,0,0,1-.5.37c-.812-.005-.811,0-1.083-.8q-.562-1.659-1.13-3.313c-.022-.062-.056-.124-.072-.188-.03-.119-.1-.143-.21-.127-.131.016-.1.118-.1.2-.006.769-.009,1.536-.013,2.3-.156-.057-.122-.2-.125-.317-.009-.367,0-.735,0-1.1a1.336,1.336,0,0,0-.053-.431.35.35,0,0,0-.409-.266c-.2.022-.25.177-.262.352-.015.213,0,.427-.008.64,0,.113.011.235-.088.322" transform="translate(16322 14135)" fill="#227676"/>
    <path id="Path_141431" data-name="Path 141431" d="M815.636,303.755c0,.6.007,1.02,0,1.437-.007.348-.157.473-.53.468s-.5-.117-.5-.463c-.006-.757-.008-1.515,0-2.275a6.48,6.48,0,0,0-.073-.955c-.091-.664.073-.935.706-1.02a7.946,7.946,0,0,1,1.955.031.841.841,0,0,1,.7.59,3.086,3.086,0,0,1,.156.882.43.43,0,0,1-.008.118c-.052.235-.332.241-.772.25-.207,0-.288-.135-.3-.341-.024-.482-.151-.646-.493-.66a.727.727,0,0,0-.807.636,10.155,10.155,0,0,0-.035,1.3" transform="translate(16322 14135)" fill="#1d7274"/>
    <path id="Path_141432" data-name="Path 141432" d="M878.106,303.322c0-.6,0-1.2,0-1.806,0-.416.129-.59.479-.518a4.907,4.907,0,0,0,1.36-.078,2,2,0,0,1,.668.031,1.343,1.343,0,0,1,.923,1.551c-.04.193-.139.31-.347.3-.1-.005-.205,0-.307,0-.342,0-.384-.036-.42-.391-.043-.421-.161-.569-.476-.6a.732.732,0,0,0-.792.547,7.307,7.307,0,0,0-.057,1.395c-.013.474,0,.952,0,1.427,0,.353-.142.478-.52.478-.356,0-.487-.121-.49-.475,0-.622,0-1.243,0-1.865Z" transform="translate(16322 14135)" fill="#1d7274"/>
    <path id="Path_141433" data-name="Path 141433" d="M826.9,302.48c0-.9,0-1.809,0-2.712,0-.206-.006-.427.21-.529a.786.786,0,0,1,.729,0c.193.1.181.32.181.514q0,2.451,0,4.9c0,.213-.026.426-.041.637-.016.256-.136.394-.4.375-.093-.007-.187,0-.28-.013-.394-.045-.392-.046-.391-.434q0-1.371,0-2.741Z" transform="translate(16322 14135)" fill="#25787b"/>
    <path id="Path_141434" data-name="Path 141434" d="M836.944,302.395c.015-.913,0-1.825-.012-2.738,0-.383.1-.479.469-.482.591,0,.723.154.653.772a2.787,2.787,0,0,0-.016.317q0,2.42,0,4.84c0,.184.029.4-.177.479a.891.891,0,0,1-.785,0c-.133-.076-.141-.225-.142-.361,0-.329.01-.659.011-.989,0-.611,0-1.225,0-1.836" transform="translate(16322 14135)" fill="#227676"/>
    <path id="Path_141435" data-name="Path 141435" d="M868.024,302.931c0-.319,0-.64.008-.96,0-.218.043-.413.293-.452a.433.433,0,0,1,.548.314,1.736,1.736,0,0,1,.056.545,7.86,7.86,0,0,0,.044,1.355c.005.532.007,1.065.017,1.6a.245.245,0,0,1-.129.237.659.659,0,0,1-.666.019c-.226-.1-.162-.3-.163-.473-.007-.728-.006-1.454-.008-2.183" transform="translate(16322 14135)" fill="#157273"/>
    <path id="Path_141436" data-name="Path 141436" d="M862.01,284.5c.825.021.852.053.811.909,0,.088,0,.175-.008.262-.015.186-.117.3-.295.257a2.461,2.461,0,0,0-.6-.026c-.323,0-.426-.121-.419-.464,0-.154.02-.308.025-.461.015-.4.1-.486.491-.477" transform="translate(16322 14135)" fill="#096e6f"/>
    <path id="Path_141437" data-name="Path 141437" d="M890.483,295.657c0-.037-.01-.1-.013-.172-.013-.334.068-.433.393-.45a2.4,2.4,0,0,1,.555-.046.422.422,0,0,1,.374.371,2.481,2.481,0,0,1,.021.693.37.37,0,0,1-.345.324c-.082.014-.168.009-.251.017-.628.074-.81-.063-.734-.737" transform="translate(16322 14135)" fill="#096e6f"/>
    <path id="Path_141438" data-name="Path 141438" d="M865.117,285.141c-.019.747-.073.8-.823.788-.412-.007-.549-.237-.528-.893.014-.426.223-.557.867-.538.418.013.5.119.484.643" transform="translate(16322 14135)" fill="#096e6f"/>
    <path id="Path_141439" data-name="Path 141439" d="M887.162,299.775c0,.451-.073.521-.563.521-.46,0-.56-.094-.561-.542s.143-.589.572-.592c.45,0,.551.108.552.613" transform="translate(16322 14135)" fill="#26797b"/>
    <path id="Path_141440" data-name="Path 141440" d="M869.04,299.783c0,.441-.071.513-.539.515-.43,0-.525-.1-.528-.543,0-.461.111-.588.528-.594.443-.006.536.1.539.622" transform="translate(16322 14135)" fill="#237778"/>
    <path id="Path_141441" data-name="Path 141441" d="M837.733,288.98c0-.983.007-1.829,0-2.674-.005-.436-.171-.593-.582-.607a2.278,2.278,0,0,0-.309.006.54.54,0,0,0-.553.625c0,.35.022.7.023,1.049q.006,1.939,0,3.88c0,.7-.261.972-.932.974-1.075,0-2.149,0-3.224-.006a.865.865,0,0,1-.249-.027.273.273,0,0,1-.107-.5,10.919,10.919,0,0,0,1.541-1.8c.393-.536.333-.82-.229-1.171a5.2,5.2,0,0,0-2.589-.828,6.071,6.071,0,0,0-2.97.686,1.143,1.143,0,0,0-.554,1.152c0,.441.29.6.61.735a10.4,10.4,0,0,1,1.441.884.392.392,0,0,1,.205.386.419.419,0,0,1-.319.366,1.913,1.913,0,0,1-.553.076c-.458,0-.915.016-1.372.022q-1.332.02-2.663.03a.269.269,0,0,1-.295-.307c.006-1.158,0-2.316.028-3.471.021-.776.018-1.555.027-2.332a.367.367,0,0,0-.337-.391,2.46,2.46,0,0,0-.556.005c-.353,0-.464.12-.459.5,0,.439.035.874.034,1.312,0,1.117-.018,2.234-.026,3.352a3.25,3.25,0,0,1-.063.7.67.67,0,0,1-.563.573,9.181,9.181,0,0,1-2.289.021c-.288-.03-.41-.216-.464-.5-.088-.461-.034-.927-.095-1.391a2.428,2.428,0,0,0-2.251-2.225,2.6,2.6,0,0,0-2.883,2.556,2.791,2.791,0,0,0,1.972,2.971,5.8,5.8,0,0,0,1.478.088c.1,0,.215-.016.261.114a.291.291,0,0,1-.071.32,1.2,1.2,0,0,1-.662.407.5.5,0,0,0-.389.2,1.55,1.55,0,0,0,.045.935c.164.189.363.061.549.031.055-.01.111-.013.166-.021a1.965,1.965,0,0,0,1.714-1.451c.127-.457.241-.535.7-.535,2.617,0,5.234.011,7.851-.005a3.851,3.851,0,0,0,2.185-.614.493.493,0,0,1,.68.052,2.389,2.389,0,0,0,1.581.568c1.169.014,2.337.016,3.506-.005,1.313-.022,1.875-.588,1.978-1.957.074-.961.008-1.922.033-2.748m-20.559,3.275a2.686,2.686,0,0,1-.894-.2,1.52,1.52,0,0,1-.6-1.889,1.151,1.151,0,0,1,1.456-.733,1.013,1.013,0,0,1,.693.768,5.33,5.33,0,0,1,.138,1.15c.042.742-.189.961-.789.906m13.027-1.51a9.1,9.1,0,0,0-.718-.642c-.262-.164-.515-.342-.8-.536a3.234,3.234,0,0,1,1.176-.4,2.965,2.965,0,0,1,1.7.216c.365.171.4.355.128.652-.207.225-.41.451-.629.662a.578.578,0,0,1-.854.053" transform="translate(16322 14135)" fill="#1d7274"/>
    <path id="Path_141442" data-name="Path 141442" d="M878.8,289.22a2.811,2.811,0,0,0-1.626,2.571c0,.249-.054.436-.327.434-1.223-.007-2.447.039-3.67-.045a.241.241,0,0,1-.232-.134c-.049-.109.02-.183.08-.258a1.523,1.523,0,0,1,.16-.162,9.129,9.129,0,0,0,1.567-1.929.541.541,0,0,0-.151-.846c-.083-.062-.172-.115-.261-.17a5.421,5.421,0,0,0-5.385-.154,1.1,1.1,0,0,0-.645,1.115.884.884,0,0,0,.683.875,6.381,6.381,0,0,1,1.419.924.328.328,0,0,1-.063.6.925.925,0,0,1-.266.083,12.863,12.863,0,0,1-2.443.118c-.37-.011-.921.01-1.471-.054a.95.95,0,0,1-.837-.7,1.786,1.786,0,0,1-.085-.573c-.01-1.167-.013-2.332-.018-3.5,0-.422-.111-.547-.505-.547-.813,0-1.627-.008-2.44.005a2.194,2.194,0,0,0-2.3,1.7,3.843,3.843,0,0,0-.021,2.508,2.155,2.155,0,0,0,3.375,1.313c.386-.256.474-.236.7.17a2.049,2.049,0,0,0,1.943,1.135c.28-.006.56-.046.838-.031.766.045,1.533.045,2.3.019a3.93,3.93,0,0,0,2.152-.625.44.44,0,0,1,.6.025,2.7,2.7,0,0,0,1.823.614c1.1-.008,2.207,0,3.31-.011a1.432,1.432,0,0,1,1.091.438,2.664,2.664,0,0,0,3.295.233,2.825,2.825,0,0,0,1.162-2.534,2.709,2.709,0,0,0-3.758-2.6m-15.089,1.237a1.389,1.389,0,0,1-1.338,1.142,1.057,1.057,0,0,1-.864-.516,2.265,2.265,0,0,1,.111-2.646,1.257,1.257,0,0,1,.8-.442,5.024,5.024,0,0,1,1.033-.052.325.325,0,0,1,.343.366c0,.272,0,.545,0,.942a4.879,4.879,0,0,1-.085,1.206m8.571.288a.55.55,0,0,1-.813-.011,6.642,6.642,0,0,0-1.479-1.14,3.088,3.088,0,0,1,3.031-.11.245.245,0,0,1,.061.41,11.11,11.11,0,0,1-.8.851m8.421,2.4a1.158,1.158,0,0,1-1.886-.362,2.014,2.014,0,0,1-.221-.984,1.506,1.506,0,0,1,.706-1.333,1.035,1.035,0,0,1,1.187.054,1.8,1.8,0,0,1,.214,2.625" transform="translate(16322 14135)" fill="#187274"/>
    <path id="Path_141443" data-name="Path 141443" d="M812.993,290.357a2.541,2.541,0,0,0-1.8-2.178,4.076,4.076,0,0,0-1.082-.111c-.878-.005-1.757.021-2.634-.01a4.382,4.382,0,0,0-1.111.066,2.673,2.673,0,0,0-2.066,2.505c-.1.833-.035,1.668-.058,2.434,0,.644.028,1.22-.007,1.79-.057.912.105.922.928.9.395-.008.522-.157.507-.563-.043-1.215-.005-2.43-.02-3.645a3.517,3.517,0,0,1,.062-.694,1.525,1.525,0,0,1,1.817-1.361c.352.079.449.232.3.582a2.361,2.361,0,0,0-.095,1.51,2.723,2.723,0,0,0,2.1,2.207,2.62,2.62,0,0,0,2.744-1.092,3.262,3.262,0,0,0,.423-2.342m-1.792,1.834a1.21,1.21,0,0,1-1.9-.4,1.882,1.882,0,0,1-.025-1.7,1.17,1.17,0,0,1,2.1-.135,1.879,1.879,0,0,1,.3,1.01,1.609,1.609,0,0,1-.468,1.229" transform="translate(16322 14135)" fill="#157276"/>
    <path id="Path_141444" data-name="Path 141444" d="M809.562,300.913a1.731,1.731,0,0,0-1.4-1.6,5.194,5.194,0,0,0-1.054-.131c-.8-.005-1.606,0-2.409-.007-.453,0-.53.083-.529.56,0,.894,0,1.788,0,2.683h.014c0,.934,0,1.866,0,2.8,0,.309.1.441.361.436,1.083-.021,2.167.044,3.248-.059a1.641,1.641,0,0,0,1.684-1.506,8.251,8.251,0,0,0,.086-3.178m-1.1,2.754c-.134.674-.315.866-.974.951a9.917,9.917,0,0,1-1.451.109c-.493-.008-.693-.2-.727-.717-.013-.2-.026-.389-.031-.582s0-.369,0-.609a14.387,14.387,0,0,0-.053-1.862.529.529,0,0,1,.442-.686,4.088,4.088,0,0,1,2.4.105.618.618,0,0,1,.384.567,8.167,8.167,0,0,1,.014,2.724" transform="translate(16322 14135)" fill="#25787b"/>
    <path id="Path_141445" data-name="Path 141445" d="M826.618,305.252c-.06-.181-.146-.355-.215-.535q-.939-2.482-1.88-4.967c-.177-.466-.334-.576-.793-.576-.59,0-.772.141-.982.7-.669,1.793-1.266,3.617-2.015,5.377-.044.1-.076.2.026.288a.792.792,0,0,0,1.191-.23c.085-.181.13-.382.2-.57a.5.5,0,0,1,.6-.378,4.212,4.212,0,0,0,.978-.019,2.277,2.277,0,0,1,.972.04c.268.082.52.173.582.537.111.662.473.876,1.111.745.263-.053.294-.2.223-.415m-2.112-1.939c-.372.025-.742.071-1.114.075-.505.006-.621-.175-.483-.693a11.877,11.877,0,0,1,.45-1.279c.1-.258.206-.513.328-.819.32.88.619,1.712.928,2.54.052.142.006.168-.109.176" transform="translate(16322 14135)" fill="#1d7274"/>
    <path id="Path_141446" data-name="Path 141446" d="M814.056,302.285a1.11,1.11,0,0,0-.851-1.15,3.765,3.765,0,0,0-1.851-.127c-.9.162-1.1.342-1.215,1.064-.076.473-.076.472.38.594.052.014.115,0,.168.111a1.427,1.427,0,0,0-.72,1.479c.059.786.342,1.207.941,1.333a4.96,4.96,0,0,0,1.253.085,6.966,6.966,0,0,1,1.562-.031c.241.046.344-.147.344-.387,0-.991.005-1.982-.011-2.971m-2.277-.424c.231,0,.462-.015.692,0a.482.482,0,0,1,.5.418.5.5,0,0,1-.1.435c-.114.126-.241.023-.359-.024-.254-.1-.507.022-.766,0-.462-.038-.538-.051-.545-.374-.007-.354.155-.492.573-.461m.746,2.867a3.422,3.422,0,0,1-.357,0,4.086,4.086,0,0,1-.672.01.565.565,0,0,1-.457-.629c.007-.324.145-.468.473-.538a2.6,2.6,0,0,1,1.072.038c.32.063.423.213.41.575a.5.5,0,0,1-.469.542" transform="translate(16322 14135)" fill="#237778"/>
    <path id="Path_141447" data-name="Path 141447" d="M875.016,303.644c.412.044.821.006,1.232.019.326,0,.653-.01.979,0a.4.4,0,0,0,.454-.4,2.081,2.081,0,0,0-.169-1.133,1.7,1.7,0,0,0-1.02-1.119,3.959,3.959,0,0,0-1.02-.158,1.82,1.82,0,0,0-1.944,1.654,5.356,5.356,0,0,0,.056,2,1.243,1.243,0,0,0,.972,1.042,5.071,5.071,0,0,0,1.753.107,1.685,1.685,0,0,0,1-.477,1.56,1.56,0,0,0,.311-1.021c0-.036-.04-.086-.073-.116a.624.624,0,0,0-1.04.33.4.4,0,0,1-.4.372c-.222.012-.443.021-.665.035a.723.723,0,0,1-.837-.558c-.144-.4,0-.615.406-.572m-.231-1.657a.543.543,0,0,1,.222-.115,2.482,2.482,0,0,1,1.137-.007.414.414,0,0,1,.351.454c0,.3-.163.449-.45.4a4.835,4.835,0,0,0-1-.013c-.173,0-.348.048-.42-.171a.473.473,0,0,1,.159-.545" transform="translate(16322 14135)" fill="#237778"/>
    <path id="Path_141448" data-name="Path 141448" d="M846.282,301.113c-.155-.068-.308-.14-.466-.2a1.971,1.971,0,0,0-2.7,1.473,5.593,5.593,0,0,0-.109,1.873,1.281,1.281,0,0,0,1,1.274,3.665,3.665,0,0,0,1.106.153c.186-.01.373-.014.559-.034.838-.085,1.288-.439,1.409-1.194a9.721,9.721,0,0,0,.128-1.914,1.52,1.52,0,0,0-.924-1.435m-.207,2.806c-.051.611-.244.81-.827.807a5.808,5.808,0,0,1-.7-.032.481.481,0,0,1-.442-.448,5.963,5.963,0,0,1-.032-.812c0-.2-.009-.39,0-.582a.987.987,0,0,1,1.266-1.035c.627.123.782.37.728,1.034-.029.351.034.712,0,1.068" transform="translate(16322 14135)" fill="#227676"/>
    <path id="Path_141449" data-name="Path 141449" d="M842.478,302.219a1.376,1.376,0,0,0-1.169-1.2,4.529,4.529,0,0,0-1.782,0,1.344,1.344,0,0,0-1.121,1.144,6.067,6.067,0,0,0-.035,2.2,1.4,1.4,0,0,0,1.239,1.264c.279.048.558.043.851.071.2-.011.415-.015.629-.034a1.364,1.364,0,0,0,1.329-1.123,5.669,5.669,0,0,0,.059-2.313m-1.048,1.887a.585.585,0,0,1-.531.581,3.612,3.612,0,0,1-.505.046c-.117,0-.21,0-.3,0a.645.645,0,0,1-.672-.635,7.542,7.542,0,0,1,.01-1.6c.042-.438.226-.6.657-.644a2.923,2.923,0,0,1,.724,0,.61.61,0,0,1,.619.62,6.769,6.769,0,0,1,0,1.628" transform="translate(16322 14135)" fill="#227676"/>
  </g>
</svg>
