<svg xmlns="http://www.w3.org/2000/svg" width="49.83" height="61.059" viewBox="0 0 49.83 61.059">
  <g id="Client_24" transform="translate(-17668.701 -14381.284)">
    <path id="Path_145578" data-name="Path 145578" d="M1348.283,305.229h-.193a.05.05,0,0,0-.042.026.141.141,0,0,0-.016.053v1.044c-.042.009-.1.009-.176.019s-.158.007-.267.007a.6.6,0,0,1-.226-.044.381.381,0,0,1-.184-.148.885.885,0,0,1-.125-.261,1.277,1.277,0,0,1-.043-.383v-.487a1.4,1.4,0,0,1,.051-.409.764.764,0,0,1,.134-.261.434.434,0,0,1,.2-.13.7.7,0,0,1,.234-.035H1348a.851.851,0,0,1,.151.009c.05,0,.1.01.151.01h.016c.034,0,.042-.01.042-.035v-.184a.067.067,0,0,0-.017-.044c-.008-.008-.025-.008-.041-.017-.068-.007-.151-.026-.26-.035s-.242-.016-.4-.016a1.113,1.113,0,0,0-.335.051.819.819,0,0,0-.3.183.921.921,0,0,0-.217.349,1.487,1.487,0,0,0-.084.548v.486a1.424,1.424,0,0,0,.084.531.92.92,0,0,0,.209.349.721.721,0,0,0,.293.19.854.854,0,0,0,.326.062c.167,0,.3-.009.409-.018s.2-.025.293-.035a.074.074,0,0,0,.067-.077V305.3a.114.114,0,0,0-.017-.051c-.05-.009-.066-.019-.083-.019" transform="translate(16322 14135)" fill="#26458c"/>
    <path id="Path_145579" data-name="Path 145579" d="M1350.147,304.848a.636.636,0,0,0-.243-.174.782.782,0,0,0-.334-.062.74.74,0,0,0-.577.226.918.918,0,0,0-.2.628v.33a1.249,1.249,0,0,0,.067.427.8.8,0,0,0,.176.269.613.613,0,0,0,.251.14,1.131,1.131,0,0,0,.292.043c.118,0,.226-.009.326-.018s.2-.025.3-.044a.179.179,0,0,0,.058-.026.129.129,0,0,0,.017-.052V306.4a.063.063,0,0,0-.017-.042c-.008-.009-.024-.009-.042-.009h-.008a2.57,2.57,0,0,1-.292.025c-.118.009-.226.009-.327.009a.492.492,0,0,1-.368-.131.669.669,0,0,1-.125-.461v-.053h1.17c.042,0,.067-.026.067-.078v-.2a1.111,1.111,0,0,0-.05-.348.844.844,0,0,0-.142-.26m-.116.652h-.929v-.034a.691.691,0,0,1,.117-.436.518.518,0,0,1,.694-.009.683.683,0,0,1,.118.445Z" transform="translate(16322 14135)" fill="#26458c"/>
    <path id="Path_145580" data-name="Path 145580" d="M1351.628,304.612a1,1,0,0,0-.284.043,1.219,1.219,0,0,0-.276.132v-.071a.11.11,0,0,0-.017-.051c-.017-.018-.025-.027-.05-.027h-.176a.07.07,0,0,0-.05.027.062.062,0,0,0-.017.051v1.853a.14.14,0,0,0,.017.054.062.062,0,0,0,.05.025H1351a.075.075,0,0,0,.05-.025.079.079,0,0,0,.025-.054v-1.53a1.583,1.583,0,0,1,.242-.105.751.751,0,0,1,.235-.044.491.491,0,0,1,.175.028.225.225,0,0,1,.118.078.26.26,0,0,1,.066.146.916.916,0,0,1,.026.237v1.19a.082.082,0,0,0,.024.054.077.077,0,0,0,.051.025h.167a.077.077,0,0,0,.05-.025.079.079,0,0,0,.025-.054v-1.2a.953.953,0,0,0-.142-.558.615.615,0,0,0-.485-.2" transform="translate(16322 14135)" fill="#26458c"/>
    <path id="Path_145581" data-name="Path 145581" d="M1354,304.848a.639.639,0,0,0-.242-.174.792.792,0,0,0-.335-.062.74.74,0,0,0-.577.226.918.918,0,0,0-.2.628v.33a1.249,1.249,0,0,0,.067.427.781.781,0,0,0,.176.269.626.626,0,0,0,.251.14,1.119,1.119,0,0,0,.292.043c.118,0,.226-.009.327-.018s.2-.025.3-.044a.168.168,0,0,0,.058-.026.129.129,0,0,0,.017-.052V306.4a.063.063,0,0,0-.017-.042c-.008-.009-.025-.009-.041-.009h-.017a2.591,2.591,0,0,1-.293.025c-.117.009-.226.009-.326.009a.491.491,0,0,1-.368-.131.664.664,0,0,1-.126-.461v-.053h1.171c.042,0,.067-.026.067-.078v-.2a1.111,1.111,0,0,0-.05-.348.691.691,0,0,0-.134-.26m-.117.652h-.928v-.034a.691.691,0,0,1,.117-.436.429.429,0,0,1,.351-.138.435.435,0,0,1,.343.129.684.684,0,0,1,.117.445Z" transform="translate(16322 14135)" fill="#26458c"/>
    <path id="Path_145582" data-name="Path 145582" d="M1355.407,304.612a.909.909,0,0,0-.242.043.711.711,0,0,0-.251.141v-.08a.122.122,0,0,0-.017-.051c-.017-.018-.025-.027-.05-.027h-.168a.072.072,0,0,0-.05.027.064.064,0,0,0-.016.051v1.853a.138.138,0,0,0,.016.054.062.062,0,0,0,.05.025h.176a.073.073,0,0,0,.05-.025.08.08,0,0,0,.026-.054v-1.521a1.368,1.368,0,0,1,.25-.123.7.7,0,0,1,.234-.035c.05,0,.076-.016.076-.06v-.149a.077.077,0,0,0-.084-.069" transform="translate(16322 14135)" fill="#26458c"/>
    <path id="Path_145583" data-name="Path 145583" d="M1356.378,304.613c-.117,0-.218.007-.31.016a1.823,1.823,0,0,0-.234.034c-.05.009-.075.028-.075.072v.13c0,.025.008.044.016.044a.091.091,0,0,0,.042.007h.017a2.271,2.271,0,0,1,.234-.016,2.716,2.716,0,0,1,.3-.01.4.4,0,0,1,.293.087.461.461,0,0,1,.084.322v.149h-.26a1.6,1.6,0,0,0-.393.035.637.637,0,0,0-.259.112.415.415,0,0,0-.142.184.8.8,0,0,0-.042.259v.044a.735.735,0,0,0,.05.287.472.472,0,0,0,.126.183.5.5,0,0,0,.183.1.963.963,0,0,0,.218.024.746.746,0,0,0,.285-.052,1.6,1.6,0,0,0,.259-.129v.078a.073.073,0,0,0,.025.051.07.07,0,0,0,.05.028h.159a.1.1,0,0,0,.075-.079V305.3a.724.724,0,0,0-.159-.505.738.738,0,0,0-.543-.181m.376,1.652a1.326,1.326,0,0,1-.234.113.679.679,0,0,1-.235.034.36.36,0,0,1-.233-.069.311.311,0,0,1-.084-.261v-.044a.446.446,0,0,1,.025-.165.256.256,0,0,1,.084-.113.382.382,0,0,1,.167-.06,1.1,1.1,0,0,1,.259-.018h.259v.583Z" transform="translate(16322 14135)" fill="#26458c"/>
    <path id="Path_145584" data-name="Path 145584" d="M1357.816,303.907h-.184a.064.064,0,0,0-.042.019.091.091,0,0,0-.016.051v2.592a.14.14,0,0,0,.016.054.048.048,0,0,0,.042.025h.184a.047.047,0,0,0,.042-.025.142.142,0,0,0,.017-.054v-2.6a.124.124,0,0,0-.017-.052c-.008-.01-.017-.01-.042-.01" transform="translate(16322 14135)" fill="#26458c"/>
    <path id="Path_145585" data-name="Path 145585" d="M1360.726,303.933c-.034,0-.084-.009-.142-.009s-.117-.009-.176-.009h-.368a.848.848,0,0,0-.56.158.641.641,0,0,0-.184.521V306a.642.642,0,0,0,.184.521.854.854,0,0,0,.56.156h.368a1.418,1.418,0,0,0,.184-.008.708.708,0,0,0,.134-.007c.008,0,.017-.009.025-.019s.008-.018.008-.035v-.183a.039.039,0,0,0-.041-.043h-.678a1.5,1.5,0,0,1-.226-.016.22.22,0,0,1-.125-.072.2.2,0,0,1-.058-.113.843.843,0,0,1-.018-.174v-.617h1.079a.144.144,0,0,0,.051-.016.088.088,0,0,0,.025-.052v-.141a.081.081,0,0,0-.025-.052.065.065,0,0,0-.051-.016h-1.079V304.6a.876.876,0,0,1,.018-.174.263.263,0,0,1,.058-.122.4.4,0,0,1,.125-.068.786.786,0,0,1,.226-.019h.678a.039.039,0,0,0,.041-.044v-.181a.059.059,0,0,0-.008-.036c-.008-.016-.017-.026-.025-.026" transform="translate(16322 14135)" fill="#26458c"/>
    <path id="Path_145586" data-name="Path 145586" d="M1362.056,304.612a1,1,0,0,0-.284.043,1.244,1.244,0,0,0-.277.132v-.071a.121.121,0,0,0-.016-.051c-.017-.018-.025-.027-.05-.027h-.176a.07.07,0,0,0-.05.027.062.062,0,0,0-.017.051v1.853a.125.125,0,0,0,.017.054.062.062,0,0,0,.05.025h.176a.075.075,0,0,0,.05-.025.083.083,0,0,0,.025-.054v-1.53a1.593,1.593,0,0,1,.243-.105.74.74,0,0,1,.234-.044.491.491,0,0,1,.175.028.222.222,0,0,1,.117.078.254.254,0,0,1,.067.146.91.91,0,0,1,.026.237v1.19a.082.082,0,0,0,.024.054.077.077,0,0,0,.051.025h.167a.075.075,0,0,0,.05-.025.078.078,0,0,0,.025-.054v-1.2a.952.952,0,0,0-.142-.558.615.615,0,0,0-.485-.2" transform="translate(16322 14135)" fill="#26458c"/>
    <path id="Path_145587" data-name="Path 145587" d="M1364.021,306.4h-.192a.245.245,0,0,1-.151-.043.292.292,0,0,1-.042-.19V304.9h.377a.077.077,0,0,0,.05-.025.081.081,0,0,0,.025-.053V304.7a.079.079,0,0,0-.025-.052.077.077,0,0,0-.05-.025h-.377v-.4a.075.075,0,0,0-.016-.044.085.085,0,0,0-.034-.015h-.008l-.184.024a.074.074,0,0,0-.067.072v.355h-.343a.063.063,0,0,0-.067.069v.1a.072.072,0,0,0,.067.07l.343.043v1.272a.673.673,0,0,0,.033.242.358.358,0,0,0,.084.148.37.37,0,0,0,.15.08.856.856,0,0,0,.209.016.475.475,0,0,0,.109-.009c.042,0,.084-.007.117-.007s.067-.028.067-.063v-.13c-.008-.016-.025-.035-.075-.035" transform="translate(16322 14135)" fill="#26458c"/>
    <path id="Path_145588" data-name="Path 145588" d="M1365.7,304.848a.644.644,0,0,0-.243-.174.787.787,0,0,0-.334-.062.739.739,0,0,0-.577.226.9.9,0,0,0-.2.628v.33a1.226,1.226,0,0,0,.067.427.769.769,0,0,0,.176.269.624.624,0,0,0,.25.14,1.133,1.133,0,0,0,.293.043c.117,0,.226-.009.326-.018s.2-.025.3-.044a.174.174,0,0,0,.059-.026.125.125,0,0,0,.016-.052V306.4a.062.062,0,0,0-.016-.042.06.06,0,0,0-.042-.009h-.008a2.591,2.591,0,0,1-.293.025c-.117.009-.226.009-.326.009a.491.491,0,0,1-.368-.131.664.664,0,0,1-.126-.461v-.053h1.171c.042,0,.067-.026.067-.078v-.2a1.143,1.143,0,0,0-.05-.348.608.608,0,0,0-.142-.26m-.109.652h-.928v-.034a.691.691,0,0,1,.117-.436.429.429,0,0,1,.351-.138.436.436,0,0,1,.343.129.684.684,0,0,1,.117.445Z" transform="translate(16322 14135)" fill="#26458c"/>
    <path id="Path_145589" data-name="Path 145589" d="M1367.115,304.612a.909.909,0,0,0-.242.043.71.71,0,0,0-.251.141v-.08a.122.122,0,0,0-.017-.051c-.017-.018-.025-.027-.05-.027h-.168a.07.07,0,0,0-.05.027.064.064,0,0,0-.016.051v1.853a.138.138,0,0,0,.016.054.062.062,0,0,0,.05.025h.176a.073.073,0,0,0,.05-.025.079.079,0,0,0,.025-.054v-1.521a1.379,1.379,0,0,1,.251-.123.7.7,0,0,1,.234-.035c.05,0,.076-.016.076-.06v-.149a.078.078,0,0,0-.084-.069" transform="translate(16322 14135)" fill="#26458c"/>
    <path id="Path_145590" data-name="Path 145590" d="M1368.47,306.4h-.193a.242.242,0,0,1-.15-.043.293.293,0,0,1-.042-.19V304.9h.377a.077.077,0,0,0,.05-.025.081.081,0,0,0,.025-.053V304.7a.079.079,0,0,0-.025-.052.077.077,0,0,0-.05-.025h-.377v-.4a.075.075,0,0,0-.016-.044.091.091,0,0,0-.034-.015h-.008l-.184.024a.074.074,0,0,0-.067.072v.355h-.343a.063.063,0,0,0-.067.069v.1a.072.072,0,0,0,.067.07l.343.043v1.272a.676.676,0,0,0,.033.242.359.359,0,0,0,.084.148.371.371,0,0,0,.15.08.853.853,0,0,0,.209.016.479.479,0,0,0,.109-.009c.042,0,.084-.007.117-.007s.067-.028.067-.063v-.13c0-.016-.025-.035-.075-.035" transform="translate(16322 14135)" fill="#26458c"/>
    <path id="Path_145591" data-name="Path 145591" d="M1369.524,304.613c-.117,0-.218.007-.31.016a1.823,1.823,0,0,0-.234.034c-.05.009-.075.028-.075.072v.13c0,.025.008.044.016.044a.091.091,0,0,0,.042.007h.017a2.271,2.271,0,0,1,.234-.016,2.716,2.716,0,0,1,.3-.01.4.4,0,0,1,.293.087.461.461,0,0,1,.084.322v.149h-.26a1.6,1.6,0,0,0-.393.035.637.637,0,0,0-.259.112.415.415,0,0,0-.142.184.8.8,0,0,0-.042.259v.044a.735.735,0,0,0,.05.287.472.472,0,0,0,.126.183.5.5,0,0,0,.183.1.963.963,0,0,0,.218.024.673.673,0,0,0,.276-.052,1.529,1.529,0,0,0,.259-.129v.078a.077.077,0,0,0,.025.051.074.074,0,0,0,.051.028h.158a.07.07,0,0,0,.05-.028.071.071,0,0,0,.026-.051V305.3a.724.724,0,0,0-.159-.505.705.705,0,0,0-.535-.181m.376,1.652a1.326,1.326,0,0,1-.234.113.677.677,0,0,1-.234.034.361.361,0,0,1-.234-.069.338.338,0,0,1-.084-.261v-.044a.446.446,0,0,1,.025-.165.256.256,0,0,1,.084-.113.382.382,0,0,1,.167-.06,1.1,1.1,0,0,1,.259-.018h.259v.583Z" transform="translate(16322 14135)" fill="#26458c"/>
    <path id="Path_145592" data-name="Path 145592" d="M1370.962,304.638h-.167a.082.082,0,0,0-.051.025.081.081,0,0,0-.025.053v1.855a.073.073,0,0,0,.025.05.073.073,0,0,0,.051.028h.167a.1.1,0,0,0,.075-.078v-1.864a.072.072,0,0,0-.025-.051.126.126,0,0,0-.05-.018" transform="translate(16322 14135)" fill="#26458c"/>
    <path id="Path_145593" data-name="Path 145593" d="M1370.97,303.881h-.176a.075.075,0,0,0-.05.025.081.081,0,0,0-.025.053v.287a.073.073,0,0,0,.025.052.065.065,0,0,0,.05.026h.176a.065.065,0,0,0,.05-.026.073.073,0,0,0,.025-.052v-.287a.081.081,0,0,0-.025-.053.075.075,0,0,0-.05-.025" transform="translate(16322 14135)" fill="#26458c"/>
    <path id="Path_145594" data-name="Path 145594" d="M1372.417,304.612a1,1,0,0,0-.284.043,1.244,1.244,0,0,0-.277.132v-.071a.121.121,0,0,0-.016-.051c-.017-.018-.025-.027-.05-.027h-.176a.07.07,0,0,0-.05.027.062.062,0,0,0-.017.051v1.853a.127.127,0,0,0,.017.054c.017.016.025.025.05.025h.176a.075.075,0,0,0,.05-.025.083.083,0,0,0,.025-.054v-1.53a1.594,1.594,0,0,1,.243-.105.738.738,0,0,1,.234-.044.49.49,0,0,1,.175.028.223.223,0,0,1,.117.078.256.256,0,0,1,.067.146.921.921,0,0,1,.025.237v1.19a.083.083,0,0,0,.025.054.077.077,0,0,0,.051.025h.167a.075.075,0,0,0,.05-.025.079.079,0,0,0,.025-.054v-1.2a.952.952,0,0,0-.142-.558.615.615,0,0,0-.485-.2" transform="translate(16322 14135)" fill="#26458c"/>
    <path id="Path_145595" data-name="Path 145595" d="M1375.653,304.75a.432.432,0,0,0-.184-.11.58.58,0,0,0-.226-.036,1.024,1.024,0,0,0-.284.036,1.168,1.168,0,0,0-.293.11.307.307,0,0,0-.15-.11.462.462,0,0,0-.2-.036.726.726,0,0,0-.276.051,1.645,1.645,0,0,0-.234.121v-.068a.126.126,0,0,0-.017-.053.065.065,0,0,0-.051-.025h-.175a.082.082,0,0,0-.05.025.068.068,0,0,0-.017.053v1.862a.133.133,0,0,0,.017.052.043.043,0,0,0,.042.026h.184a.044.044,0,0,0,.042-.026.133.133,0,0,0,.017-.052v-1.54l.225-.1a.6.6,0,0,1,.209-.043.678.678,0,0,1,.118.015.194.194,0,0,1,.083.053.244.244,0,0,1,.05.113,1.231,1.231,0,0,1,.017.193v1.313a.118.118,0,0,0,.017.052.043.043,0,0,0,.042.026h.183a.043.043,0,0,0,.042-.026.118.118,0,0,0,.017-.052v-1.3a1,1,0,0,0-.033-.287,1.659,1.659,0,0,1,.209-.069.81.81,0,0,1,.2-.025.545.545,0,0,1,.126.016.2.2,0,0,1,.1.062.309.309,0,0,1,.067.121.6.6,0,0,1,.025.19v1.289a.074.074,0,0,0,.025.052.067.067,0,0,0,.05.026h.167a.067.067,0,0,0,.051-.026.079.079,0,0,0,.025-.052v-1.289a1.151,1.151,0,0,0-.042-.321.514.514,0,0,0-.117-.21" transform="translate(16322 14135)" fill="#26458c"/>
    <path id="Path_145596" data-name="Path 145596" d="M1377.585,304.848a.64.64,0,0,0-.242-.174.792.792,0,0,0-.335-.062.74.74,0,0,0-.577.226.918.918,0,0,0-.2.628v.33a1.249,1.249,0,0,0,.067.427.781.781,0,0,0,.176.269.623.623,0,0,0,.25.14,1.132,1.132,0,0,0,.293.043c.118,0,.226-.009.327-.018s.2-.025.3-.044a.169.169,0,0,0,.058-.026.129.129,0,0,0,.017-.052V306.4a.063.063,0,0,0-.017-.042c-.008-.009-.025-.009-.042-.009h-.016a2.591,2.591,0,0,1-.293.025c-.117.009-.226.009-.326.009a.491.491,0,0,1-.368-.131.664.664,0,0,1-.126-.461v-.053h1.171c.042,0,.067-.026.067-.078v-.2a1.143,1.143,0,0,0-.05-.348.594.594,0,0,0-.134-.26m-.117.652h-.928v-.034a.691.691,0,0,1,.117-.436.518.518,0,0,1,.694-.009.684.684,0,0,1,.117.445Z" transform="translate(16322 14135)" fill="#26458c"/>
    <path id="Path_145597" data-name="Path 145597" d="M1379.065,304.612a1,1,0,0,0-.284.043,1.244,1.244,0,0,0-.277.132v-.071a.122.122,0,0,0-.016-.051c-.017-.018-.025-.027-.05-.027h-.176a.07.07,0,0,0-.05.027.061.061,0,0,0-.017.051v1.853a.125.125,0,0,0,.017.054.062.062,0,0,0,.05.025h.176a.075.075,0,0,0,.05-.025.083.083,0,0,0,.025-.054v-1.53a1.6,1.6,0,0,1,.243-.105.739.739,0,0,1,.234-.044.491.491,0,0,1,.175.028.223.223,0,0,1,.117.078.255.255,0,0,1,.067.146.921.921,0,0,1,.025.237v1.19a.083.083,0,0,0,.025.054.077.077,0,0,0,.051.025h.167a.075.075,0,0,0,.05-.025.079.079,0,0,0,.025-.054v-1.2a.953.953,0,0,0-.142-.558.6.6,0,0,0-.485-.2" transform="translate(16322 14135)" fill="#26458c"/>
    <path id="Path_145598" data-name="Path 145598" d="M1381.03,306.4h-.192a.244.244,0,0,1-.151-.043.292.292,0,0,1-.042-.19V304.9h.377a.077.077,0,0,0,.05-.025.081.081,0,0,0,.025-.053V304.7a.079.079,0,0,0-.025-.052.077.077,0,0,0-.05-.025h-.377v-.4a.076.076,0,0,0-.016-.044.085.085,0,0,0-.034-.015h-.008l-.184.024a.074.074,0,0,0-.067.072v.355h-.343a.063.063,0,0,0-.067.069v.1a.072.072,0,0,0,.067.07l.343.043v1.272a.673.673,0,0,0,.033.242.358.358,0,0,0,.084.148.37.37,0,0,0,.15.08.856.856,0,0,0,.209.016.48.48,0,0,0,.109-.009c.042,0,.084-.007.117-.007s.067-.028.067-.063v-.13c0-.016-.025-.035-.075-.035" transform="translate(16322 14135)" fill="#26458c"/>
    <path id="Path_145599" data-name="Path 145599" d="M1383.522,304.186a.333.333,0,0,0-.15-.227.589.589,0,0,0-.1-.044.56.56,0,0,0-.2,0,.554.554,0,0,0-.1.044.462.462,0,0,0-.093.087.3.3,0,0,0-.058.14l-.644,2.376v.025a.055.055,0,0,0,.058.062h.21c.016,0,.025-.009.041-.019s.017-.025.025-.034l.226-.836h.9l.226.836c.008.016.008.025.025.034a.057.057,0,0,0,.042.019h.209c.042,0,.059-.019.059-.062v-.025Zm-.744,1.278.318-1.2c.008-.043.033-.071.067-.071s.058.028.067.071l.317,1.2Z" transform="translate(16322 14135)" fill="#26458c"/>
    <path id="Path_145600" data-name="Path 145600" d="M1385.888,304.638h-.176a.082.082,0,0,0-.05.025.086.086,0,0,0-.025.053v1.531a1.646,1.646,0,0,1-.242.106.8.8,0,0,1-.234.043.547.547,0,0,1-.176-.027.268.268,0,0,1-.117-.079.265.265,0,0,1-.067-.146,1.636,1.636,0,0,1-.025-.235v-1.2a.073.073,0,0,0-.025-.051.07.07,0,0,0-.05-.027h-.167a.093.093,0,0,0-.076.078v1.2a.948.948,0,0,0,.143.556.542.542,0,0,0,.459.2.874.874,0,0,0,.284-.044,1.286,1.286,0,0,0,.276-.129v.07a.158.158,0,0,0,.017.052.062.062,0,0,0,.051.025h.175a.073.073,0,0,0,.05-.025.069.069,0,0,0,.017-.052V304.7a.1.1,0,0,0-.017-.052c.009,0-.008-.01-.025-.01" transform="translate(16322 14135)" fill="#26458c"/>
    <path id="Path_145601" data-name="Path 145601" d="M1387.377,306.4h-.193a.241.241,0,0,1-.15-.043.292.292,0,0,1-.042-.19V304.9h.376a.087.087,0,0,0,.076-.078V304.7a.074.074,0,0,0-.025-.052.077.077,0,0,0-.051-.025h-.376v-.4a.07.07,0,0,0-.017-.044.075.075,0,0,0-.033-.015h-.017l-.184.024a.074.074,0,0,0-.066.072v.355h-.335a.063.063,0,0,0-.067.069v.1a.072.072,0,0,0,.067.07l.343.043v1.272a.65.65,0,0,0,.034.242.335.335,0,0,0,.083.148.367.367,0,0,0,.151.08.844.844,0,0,0,.209.016.47.47,0,0,0,.108-.009c.042,0,.084-.007.117-.007s.067-.028.067-.063v-.13c0-.016-.025-.035-.075-.035" transform="translate(16322 14135)" fill="#26458c"/>
    <path id="Path_145602" data-name="Path 145602" d="M1389.075,304.794a.7.7,0,0,0-.2-.139.8.8,0,0,0-.259-.043,1.392,1.392,0,0,0-.259.028.827.827,0,0,0-.276.087v-.748a.139.139,0,0,0-.017-.055c-.017-.017-.025-.026-.05-.026h-.167a.074.074,0,0,0-.051.026.073.073,0,0,0-.016.055v2.59a.125.125,0,0,0,.016.053.056.056,0,0,0,.051.026h.175a.066.066,0,0,0,.05-.026.073.073,0,0,0,.025-.053v-1.574a.487.487,0,0,1,.126-.044,1.321,1.321,0,0,1,.134-.034.591.591,0,0,1,.125-.019c.042,0,.075-.006.1-.006a.369.369,0,0,1,.276.1.539.539,0,0,1,.1.374v1.2a.073.073,0,0,0,.025.053.064.064,0,0,0,.05.026h.167a.067.067,0,0,0,.051-.026.076.076,0,0,0,.024-.053v-1.2a1.378,1.378,0,0,0-.041-.346,1.99,1.99,0,0,0-.159-.229" transform="translate(16322 14135)" fill="#26458c"/>
    <path id="Path_145603" data-name="Path 145603" d="M1391.024,304.855a.716.716,0,0,0-.243-.181.85.85,0,0,0-.343-.062.8.8,0,0,0-.334.062.632.632,0,0,0-.243.181.818.818,0,0,0-.151.279,1.314,1.314,0,0,0-.05.367v.277a1.3,1.3,0,0,0,.05.365.755.755,0,0,0,.151.28.72.72,0,0,0,.243.181.809.809,0,0,0,.334.062.859.859,0,0,0,.343-.062.658.658,0,0,0,.243-.181.821.821,0,0,0,.15-.28,1.3,1.3,0,0,0,.05-.365V305.5a1.309,1.309,0,0,0-.05-.367.816.816,0,0,0-.15-.279m-.109.923a.746.746,0,0,1-.117.443.413.413,0,0,1-.36.166.393.393,0,0,1-.36-.166.785.785,0,0,1-.109-.443V305.5a.761.761,0,0,1,.109-.446.42.42,0,0,1,.36-.165.4.4,0,0,1,.36.165.8.8,0,0,1,.108.446v.277Z" transform="translate(16322 14135)" fill="#26458c"/>
    <path id="Path_145604" data-name="Path 145604" d="M1392.428,304.612a.909.909,0,0,0-.242.043.709.709,0,0,0-.251.141v-.08a.11.11,0,0,0-.017-.051c-.017-.018-.025-.027-.05-.027h-.168a.072.072,0,0,0-.05.027.064.064,0,0,0-.016.051v1.853a.138.138,0,0,0,.016.054.062.062,0,0,0,.05.025h.176a.077.077,0,0,0,.051-.025.083.083,0,0,0,.025-.054v-1.521a1.368,1.368,0,0,1,.25-.123.7.7,0,0,1,.234-.035c.05,0,.076-.016.076-.06v-.149a.077.077,0,0,0-.084-.069" transform="translate(16322 14135)" fill="#26458c"/>
    <path id="Path_145605" data-name="Path 145605" d="M1393.114,304.638h-.167a.082.082,0,0,0-.051.025.084.084,0,0,0-.024.053v1.855a.075.075,0,0,0,.024.05.074.074,0,0,0,.051.028h.167a.1.1,0,0,0,.075-.078v-1.864a.072.072,0,0,0-.025-.051.126.126,0,0,0-.05-.018" transform="translate(16322 14135)" fill="#26458c"/>
    <path id="Path_145606" data-name="Path 145606" d="M1393.114,303.881h-.176a.075.075,0,0,0-.05.025.085.085,0,0,0-.025.053v.287a.077.077,0,0,0,.025.052.066.066,0,0,0,.05.026h.176a.065.065,0,0,0,.05-.026.073.073,0,0,0,.025-.052v-.287a.08.08,0,0,0-.025-.053.051.051,0,0,0-.05-.025" transform="translate(16322 14135)" fill="#26458c"/>
    <path id="Path_145607" data-name="Path 145607" d="M1394.644,306.4h-.193a.239.239,0,0,1-.15-.043.292.292,0,0,1-.042-.19V304.9h.377a.077.077,0,0,0,.05-.025.081.081,0,0,0,.025-.053V304.7a.079.079,0,0,0-.025-.052.077.077,0,0,0-.05-.025h-.377v-.4a.076.076,0,0,0-.016-.044.091.091,0,0,0-.034-.015h-.008l-.184.024a.074.074,0,0,0-.067.072v.355h-.335a.063.063,0,0,0-.067.069v.1a.072.072,0,0,0,.067.07l.343.043v1.272a.673.673,0,0,0,.033.242.359.359,0,0,0,.084.148.368.368,0,0,0,.151.08.849.849,0,0,0,.209.016.487.487,0,0,0,.109-.009c.041,0,.083-.007.117-.007s.066-.028.066-.063v-.13c-.008-.016-.033-.035-.083-.035" transform="translate(16322 14135)" fill="#26458c"/>
    <path id="Path_145608" data-name="Path 145608" d="M1396.484,304.638h-.193a.071.071,0,0,0-.042.018c-.008.007-.016.025-.025.035l-.426,1.662h-.059a.043.043,0,0,1-.033-.01.168.168,0,0,1-.033-.068l-.41-1.584a.086.086,0,0,0-.025-.043.062.062,0,0,0-.034-.019h-.192c-.042,0-.067.019-.067.062v.025l.468,1.661a.718.718,0,0,0,.05.131.262.262,0,0,0,.059.078.18.18,0,0,0,.067.035.215.215,0,0,0,.075.009h.05l-.033.149c-.017.06-.034.113-.051.157a.286.286,0,0,1-.066.1.2.2,0,0,1-.1.043.752.752,0,0,1-.134.007,1.408,1.408,0,0,1-.158-.007,1.43,1.43,0,0,1-.159-.019H1395c-.041,0-.067.019-.067.061v.13a.047.047,0,0,0,.026.044.114.114,0,0,0,.05.019,1.285,1.285,0,0,0,.142.024.993.993,0,0,0,.159.009,1.165,1.165,0,0,0,.251-.024.47.47,0,0,0,.175-.1.4.4,0,0,0,.118-.166,2.021,2.021,0,0,0,.092-.252l.576-2.1v-.026c.017-.018,0-.043-.041-.043" transform="translate(16322 14135)" fill="#26458c"/>
    <path id="Path_145609" data-name="Path 145609" d="M1352.489,301.975h-.193a.108.108,0,0,0-.083.035.1.1,0,0,0-.034.078v.28a.116.116,0,0,0,.034.079.111.111,0,0,0,.083.034h.193a.083.083,0,0,0,.075-.034.1.1,0,0,0,.034-.079v-.28a.088.088,0,0,0-.034-.078.1.1,0,0,0-.075-.035" transform="translate(16322 14135)" fill="#26458c"/>
    <path id="Path_145610" data-name="Path 145610" d="M1351.678,302.471a.084.084,0,0,0,.075-.033.1.1,0,0,0,.034-.079v-.28a.089.089,0,0,0-.034-.078.155.155,0,0,0-.083-.035h-.193a.108.108,0,0,0-.083.035.1.1,0,0,0-.034.078v.28a.112.112,0,0,0,.034.079.11.11,0,0,0,.083.033Z" transform="translate(16322 14135)" fill="#26458c"/>
    <path id="Path_145611" data-name="Path 145611" d="M1354.028,298.539h.209a.106.106,0,0,0,.083-.034.085.085,0,0,0,.034-.078v-.28a.084.084,0,0,0-.034-.078.155.155,0,0,0-.075-.035h-.217a.079.079,0,0,0-.075.035.1.1,0,0,0-.034.078v.28a.1.1,0,0,0,.034.078.08.08,0,0,0,.075.034" transform="translate(16322 14135)" fill="#26458c"/>
    <path id="Path_145612" data-name="Path 145612" d="M1355.014,301.374c0-.05.008-.1.008-.165s.009-.122.009-.19v-1.74a.11.11,0,0,0-.017-.062c-.008-.018-.034-.025-.066-.034a2.555,2.555,0,0,0-.334-.062c-.135-.007-.269-.016-.4-.016a1.119,1.119,0,0,0-.836.3,1.071,1.071,0,0,0-.3.808v.122a1.281,1.281,0,0,0,.059.435.9.9,0,0,0,.159.287h-.653a.381.381,0,0,1-.1-.009.672.672,0,0,1-.117-.016.263.263,0,0,1-.1-.036.1.1,0,0,1-.06-.061v-1.408a.087.087,0,0,0-.091-.1h-.227a.1.1,0,0,0-.067.026.1.1,0,0,0-.024.071v1.347a.149.149,0,0,1-.034.106.373.373,0,0,1-.091.059l-.118.028c-.042,0-.075.009-.109.009h-2.433a.411.411,0,0,1-.251-.063.312.312,0,0,1-.092-.261V299.3c0-.025,0-.052-.009-.061s-.024-.026-.058-.035-.076-.016-.126-.025-.1-.019-.158-.026-.109-.008-.167-.018-.109-.009-.151-.009a2.007,2.007,0,0,0-.519.062,1.118,1.118,0,0,0-.4.2.93.93,0,0,0-.267.35,1.37,1.37,0,0,0-.093.52v.132a1.054,1.054,0,0,0,.251.757.927.927,0,0,0,.7.259h.041a1.36,1.36,0,0,0,.385-.05.25.25,0,0,1,.485.068.953.953,0,0,0,.376.069h2.426a1.288,1.288,0,0,0,.309-.035.65.65,0,0,0,.294-.137.593.593,0,0,0,.292.137,1.364,1.364,0,0,0,.325.035h1.849a3.011,3.011,0,0,0,.4-.026.1.1,0,0,0,.1-.1m-6.707-.661a.242.242,0,0,1-.041.141.384.384,0,0,1-.1.087.813.813,0,0,1-.142.044,1.065,1.065,0,0,1-.15.007h-.092a.535.535,0,0,1-.452-.172.762.762,0,0,1-.134-.481v-.1a.785.785,0,0,1,.06-.34.628.628,0,0,1,.167-.219.7.7,0,0,1,.25-.111,1.654,1.654,0,0,1,.326-.035,1.043,1.043,0,0,1,.143.007,1.4,1.4,0,0,1,.175.017v1.157Zm6.307.34a1.73,1.73,0,0,1-.236.01h-.25a.581.581,0,0,1-.485-.193.831.831,0,0,1-.159-.539v-.113a.732.732,0,0,1,.175-.53.7.7,0,0,1,.519-.184,1.957,1.957,0,0,1,.234.009,1.533,1.533,0,0,1,.2.019Z" transform="translate(16322 14135)" fill="#26458c"/>
    <path id="Path_145613" data-name="Path 145613" d="M1358.151,298.756h.192a.083.083,0,0,0,.076-.034.092.092,0,0,0,.033-.078v-.28a.088.088,0,0,0-.033-.078.161.161,0,0,0-.084-.035h-.193a.105.105,0,0,0-.083.035.1.1,0,0,0-.034.078v.28a.1.1,0,0,0,.034.078.212.212,0,0,0,.092.034" transform="translate(16322 14135)" fill="#26458c"/>
    <path id="Path_145614" data-name="Path 145614" d="M1358.962,298.756h.193a.082.082,0,0,0,.075-.034.089.089,0,0,0,.033-.078v-.28a.086.086,0,0,0-.033-.078.169.169,0,0,0-.075-.035h-.193a.107.107,0,0,0-.084.035.1.1,0,0,0-.033.078v.28a.1.1,0,0,0,.033.078.186.186,0,0,0,.084.034" transform="translate(16322 14135)" fill="#26458c"/>
    <path id="Path_145615" data-name="Path 145615" d="M1361.387,301.488c.058-.008.117-.008.159-.017a.317.317,0,0,0,.117-.026c.042-.018.067-.034.075-.061a.272.272,0,0,0,.034-.085c.008-.044.008-.088.016-.14s.008-.106.008-.157v-3.264a.1.1,0,0,0-.024-.068.089.089,0,0,0-.067-.028h-.243a.089.089,0,0,0-.067.028.1.1,0,0,0-.025.068v3.134c0,.087-.008.137-.033.155a.367.367,0,0,1-.184.026h-.443a.484.484,0,0,1-.1-.007.479.479,0,0,1-.117-.019.307.307,0,0,1-.1-.034.1.1,0,0,1-.059-.062v-3.193a.1.1,0,0,0-.025-.068.088.088,0,0,0-.067-.028H1360a.089.089,0,0,0-.067.028.1.1,0,0,0-.025.068v3.134a.134.134,0,0,1-.034.1.366.366,0,0,1-.091.062c-.034.009-.076.016-.118.025s-.075.009-.109.009h-.3a.379.379,0,0,1-.1-.009.67.67,0,0,1-.117-.016.259.259,0,0,1-.1-.037.1.1,0,0,1-.059-.059v-1.428a.094.094,0,0,0-.025-.068.089.089,0,0,0-.067-.028h-.226a.086.086,0,0,0-.066.028.094.094,0,0,0-.026.068v1.35a.138.138,0,0,1-.033.1.355.355,0,0,1-.092.062c-.033.009-.075.016-.117.025s-.075.009-.109.009H1356.4v-1.549a.1.1,0,0,0-.025-.068.073.073,0,0,0-.059-.028h-.242a.089.089,0,0,0-.067.028.094.094,0,0,0-.025.068V301.8a1.2,1.2,0,0,1-.025.27.266.266,0,0,1-.092.148.323.323,0,0,1-.167.071,2.079,2.079,0,0,1-.268.016h-.1c-.059,0-.084.027-.084.071v.216a.069.069,0,0,0,.017.052.167.167,0,0,0,.067.028c.033.007.075.007.133.016s.092.009.109.009a1.311,1.311,0,0,0,.46-.069.561.561,0,0,0,.276-.252.94.94,0,0,0,.075-.243,1.745,1.745,0,0,0,.017-.3V301.5h1.656a1.522,1.522,0,0,0,.309-.034.7.7,0,0,0,.293-.141.644.644,0,0,0,.292.141,1.621,1.621,0,0,0,.327.034h.25a1.53,1.53,0,0,0,.31-.034.686.686,0,0,0,.292-.141.556.556,0,0,0,.134.088.523.523,0,0,0,.159.053c.059.007.109.016.168.024a.884.884,0,0,0,.158.01h.485c.034,0,.092-.01.151-.01" transform="translate(16322 14135)" fill="#26458c"/>
    <path id="Path_145616" data-name="Path 145616" d="M1365.075,298.556h.192a.083.083,0,0,0,.076-.034.09.09,0,0,0,.033-.078v-.28a.09.09,0,0,0-.033-.078.167.167,0,0,0-.076-.035h-.192a.106.106,0,0,0-.084.035.1.1,0,0,0-.033.078v.28a.1.1,0,0,0,.033.078.154.154,0,0,0,.084.034" transform="translate(16322 14135)" fill="#26458c"/>
    <path id="Path_145617" data-name="Path 145617" d="M1364.263,298.556h.192a.083.083,0,0,0,.076-.034.089.089,0,0,0,.033-.078v-.28a.089.089,0,0,0-.033-.078.158.158,0,0,0-.084-.035h-.184a.107.107,0,0,0-.084.035.1.1,0,0,0-.033.078v.28a.1.1,0,0,0,.033.078.157.157,0,0,0,.084.034" transform="translate(16322 14135)" fill="#26458c"/>
    <path id="Path_145618" data-name="Path 145618" d="M1371.6,301.3a1.2,1.2,0,0,0,.234-.81v-.262a1.156,1.156,0,0,0-.25-.807.964.964,0,0,0-.745-.28.985.985,0,0,0-.761.289,1.152,1.152,0,0,0-.267.808v.495a.754.754,0,0,1-.017.15.142.142,0,0,1-.059.094.182.182,0,0,1-.1.052.23.23,0,0,1-.109.028c-.033,0-.066.007-.092.007H1366a.412.412,0,0,1-.251-.06.31.31,0,0,1-.092-.262V299.3c0-.027,0-.053-.009-.062s-.025-.025-.058-.035a1.063,1.063,0,0,0-.125-.025l-.159-.027c-.05-.009-.109-.009-.167-.016s-.109-.009-.151-.009a1.99,1.99,0,0,0-.518.059,1.117,1.117,0,0,0-.4.2.918.918,0,0,0-.268.347,1.4,1.4,0,0,0-.092.523v.131a1.044,1.044,0,0,0,.251.755.929.929,0,0,0,.7.261h.042a1.256,1.256,0,0,0,.384-.052.474.474,0,0,0,.26-.165.467.467,0,0,0,.225.236.941.941,0,0,0,.377.068h3.412a1.229,1.229,0,0,0,.376-.052.465.465,0,0,0,.259-.19.7.7,0,0,0,.334.242,1.356,1.356,0,0,0,.485.079.934.934,0,0,0,.778-.269m-6.338-.583a.248.248,0,0,1-.042.138.332.332,0,0,1-.1.087.6.6,0,0,1-.142.044.84.84,0,0,1-.15.009h-.093a.53.53,0,0,1-.451-.175.742.742,0,0,1-.134-.477v-.105a.792.792,0,0,1,.059-.34.6.6,0,0,1,.167-.216.77.77,0,0,1,.251-.114,2.02,2.02,0,0,1,.326-.035.719.719,0,0,1,.142.01c.051,0,.109.009.176.015v1.159Zm4.992.069a1.432,1.432,0,0,1-.017-.286v-.228a.891.891,0,0,1,.142-.539.558.558,0,0,1,.468-.19.49.49,0,0,1,.452.19.974.974,0,0,1,.134.539v.193a.828.828,0,0,1-.134.539.59.59,0,0,1-.46.166.789.789,0,0,1-.376-.078.417.417,0,0,1-.209-.306" transform="translate(16322 14135)" fill="#26458c"/>
    <path id="Path_145619" data-name="Path 145619" d="M1378.312,301.385a.307.307,0,0,0,.033-.088c.009-.044.009-.086.017-.139s.008-.1.008-.156v-3.263a.1.1,0,0,0-.025-.07.09.09,0,0,0-.066-.026h-.243a.091.091,0,0,0-.067.026.1.1,0,0,0-.025.07v3.131c0,.088-.009.141-.034.156a.365.365,0,0,1-.183.029h-1a.57.57,0,0,0,.134-.151,1.15,1.15,0,0,0,.109-.207,1.22,1.22,0,0,0,.067-.244,1.363,1.363,0,0,0,.025-.252v-.1a1.081,1.081,0,0,0-.084-.453.953.953,0,0,0-.226-.314.979.979,0,0,0-.351-.173,1.714,1.714,0,0,0-.443-.06,1.553,1.553,0,0,0-.293.024c-.1.018-.192.044-.284.07a1.209,1.209,0,0,0-.251.1,1.412,1.412,0,0,0-.2.138.2.2,0,0,0-.083.13l-.008.151v.042c0,.017.008.034.008.044l.468,1.234h-1.957a.8.8,0,0,1-.142-.008.175.175,0,0,1-.1-.044.208.208,0,0,1-.067-.088.435.435,0,0,1-.025-.164v-3.018a.1.1,0,0,0-.026-.071.1.1,0,0,0-.066-.034h-.243a.075.075,0,0,0-.067.034.108.108,0,0,0-.025.071v3.114a1.159,1.159,0,0,0,.042.322.443.443,0,0,0,.125.2.466.466,0,0,0,.2.106,1.221,1.221,0,0,0,.276.024h4.533c.066,0,.125-.006.183-.006s.118-.009.159-.018a.545.545,0,0,0,.117-.025.134.134,0,0,0,.076-.053m-1.656-1.176a1.063,1.063,0,0,1-.142.549.63.63,0,0,1-.4.3h-.368l-.5-1.35a.982.982,0,0,1,.384-.166,1.912,1.912,0,0,1,.335-.034.816.816,0,0,1,.51.148.59.59,0,0,1,.184.488Z" transform="translate(16322 14135)" fill="#26458c"/>
    <path id="Path_145620" data-name="Path 145620" d="M1379.3,301.5h.243a.079.079,0,0,0,.067-.033.11.11,0,0,0,.025-.071v-3.664a.108.108,0,0,0-.025-.069.1.1,0,0,0-.067-.033h-.243a.076.076,0,0,0-.067.033.108.108,0,0,0-.025.069v3.664a.109.109,0,0,0,.025.071.079.079,0,0,0,.067.033" transform="translate(16322 14135)" fill="#26458c"/>
    <path id="Path_145621" data-name="Path 145621" d="M1382.954,298.556h.192a.08.08,0,0,0,.075-.034.088.088,0,0,0,.034-.078v-.28a.088.088,0,0,0-.034-.078.155.155,0,0,0-.075-.035h-.192a.106.106,0,0,0-.084.035.1.1,0,0,0-.033.078v.28a.1.1,0,0,0,.033.078.187.187,0,0,0,.084.034" transform="translate(16322 14135)" fill="#26458c"/>
    <path id="Path_145622" data-name="Path 145622" d="M1382.142,298.556h.192a.083.083,0,0,0,.076-.034.09.09,0,0,0,.033-.078v-.28a.09.09,0,0,0-.033-.078.158.158,0,0,0-.084-.035h-.193a.1.1,0,0,0-.083.035.1.1,0,0,0-.034.078v.28a.1.1,0,0,0,.034.078.216.216,0,0,0,.092.034" transform="translate(16322 14135)" fill="#26458c"/>
    <path id="Path_145623" data-name="Path 145623" d="M1386.508,298.783h.669c.025,0,.05,0,.058-.009a.054.054,0,0,0,.025-.053v-.078c0-.044-.025-.059-.083-.059h-.335a.287.287,0,0,1-.076-.088.365.365,0,0,1-.032-.175c0-.155.083-.233.259-.233h.149c.042,0,.067-.019.067-.053v-.078c0-.028-.016-.053-.058-.062s-.067-.008-.1-.016-.059-.01-.093-.01a.511.511,0,0,0-.343.1.381.381,0,0,0-.116.314,1.04,1.04,0,0,0,.016.156.427.427,0,0,0,.067.141h-.083c-.059,0-.093.015-.093.052v.085c.016.044.041.062.1.062" transform="translate(16322 14135)" fill="#26458c"/>
    <path id="Path_145624" data-name="Path 145624" d="M1388.983,302.471a.082.082,0,0,0,.075-.033.1.1,0,0,0,.034-.079v-.28a.089.089,0,0,0-.034-.078.155.155,0,0,0-.083-.035h-.193a.108.108,0,0,0-.083.035.1.1,0,0,0-.034.078v.28a.111.111,0,0,0,.034.079.11.11,0,0,0,.083.033Z" transform="translate(16322 14135)" fill="#26458c"/>
    <path id="Path_145625" data-name="Path 145625" d="M1389.878,302.445a.092.092,0,0,0,.033-.077v-.278a.088.088,0,0,0-.033-.08.16.16,0,0,0-.075-.035h-.2a.108.108,0,0,0-.084.035.1.1,0,0,0-.033.08v.278a.1.1,0,0,0,.033.077.108.108,0,0,0,.084.035h.192a.22.22,0,0,0,.084-.035" transform="translate(16322 14135)" fill="#26458c"/>
    <path id="Path_145626" data-name="Path 145626" d="M1394.971,301v-3.263a.1.1,0,0,0-.026-.069.087.087,0,0,0-.066-.024h-.243a.09.09,0,0,0-.067.024.1.1,0,0,0-.025.069v3.133c0,.087-.008.139-.033.156a.379.379,0,0,1-.185.027h-.576a1.4,1.4,0,0,0-.209.01.535.535,0,0,0-.159.044.368.368,0,0,0-.193.259.363.363,0,0,0-.008.052c0,.026-.009.052-.009.087a.315.315,0,0,1-.008.087v.061a1.149,1.149,0,0,1-.125.557.485.485,0,0,1-.435.174.492.492,0,0,1-.452-.192,1.123,1.123,0,0,1-.117-.574v-.131h.209c.076,0,.151-.006.226-.006s.143-.011.218-.02a.891.891,0,0,0,.175-.034.875.875,0,0,0,.543-.427,1.557,1.557,0,0,0,.176-.772v-.079a.959.959,0,0,0-.3-.785,1.32,1.32,0,0,0-.828-.243c-.125,0-.251.009-.368.019a1.946,1.946,0,0,0-.334.059.13.13,0,0,0-.117.131v1.714h-1.673a.381.381,0,0,1-.1-.009.778.778,0,0,1-.117-.015.379.379,0,0,1-.1-.036.108.108,0,0,1-.058-.062v-1.4a.088.088,0,0,0-.092-.1h-.226a.1.1,0,0,0-.067.026.105.105,0,0,0-.024.071v1.347a.151.151,0,0,1-.034.106.338.338,0,0,1-.092.059c-.033.009-.075.018-.117.028s-.076.007-.109.007h-1.329a.489.489,0,0,1-.1-.007.529.529,0,0,1-.117-.019.284.284,0,0,1-.1-.035.1.1,0,0,1-.059-.061v-1.425a.1.1,0,0,0-.025-.071.1.1,0,0,0-.067-.026h-.226a.088.088,0,0,0-.092.1v1.347a.151.151,0,0,1-.033.106.339.339,0,0,1-.092.059l-.117.028c-.042,0-.076.007-.109.007h-2.433a.411.411,0,0,1-.251-.061.312.312,0,0,1-.092-.261V299.3a.459.459,0,0,0-.009-.061c-.008-.016-.025-.026-.058-.035s-.076-.016-.126-.024-.1-.02-.159-.028-.108-.007-.167-.016-.109-.01-.15-.01a2,2,0,0,0-.519.062,1.065,1.065,0,0,0-.4.2.919.919,0,0,0-.268.347,1.393,1.393,0,0,0-.092.522v.132a1.052,1.052,0,0,0,.251.757.937.937,0,0,0,.7.259h.041a1.324,1.324,0,0,0,.385-.05.249.249,0,0,1,.485.068.959.959,0,0,0,.377.069h2.433a1.4,1.4,0,0,0,.309-.035.62.62,0,0,0,.293-.139.577.577,0,0,0,.293.139,1.491,1.491,0,0,0,.326.035h1.263a1.4,1.4,0,0,0,.309-.035.619.619,0,0,0,.293-.139.578.578,0,0,0,.293.139,1.477,1.477,0,0,0,.325.035h1.664v.165a2,2,0,0,0,.051.471.9.9,0,0,0,.159.356.747.747,0,0,0,.3.227,1.23,1.23,0,0,0,.476.078.88.88,0,0,0,.72-.277,1.394,1.394,0,0,0,.234-.82l.008-.191c.017,0,.058-.009.117-.009h.694c.067,0,.126-.009.184-.009a1.233,1.233,0,0,0,.159-.017.431.431,0,0,0,.118-.026c.041-.017.066-.035.075-.061a.275.275,0,0,0,.033-.087c.008-.043.008-.087.017-.139a.15.15,0,0,1-.05-.157m-2.927-1.442a1.236,1.236,0,0,1,.184-.019c.058,0,.133-.009.225-.009a.944.944,0,0,1,.293.037.471.471,0,0,1,.368.3.808.808,0,0,1,.05.305v.1a.9.9,0,0,1-.167.583.678.678,0,0,1-.56.2h-.393Zm-8.9,1.155a.255.255,0,0,1-.042.141.359.359,0,0,1-.1.087.738.738,0,0,1-.142.043.957.957,0,0,1-.151.008h-.092a.525.525,0,0,1-.452-.175.746.746,0,0,1-.133-.478v-.1a.8.8,0,0,1,.058-.337.642.642,0,0,1,.168-.219.7.7,0,0,1,.25-.111,1.738,1.738,0,0,1,.326-.037.812.812,0,0,1,.143.009,1.267,1.267,0,0,1,.175.019v1.155Z" transform="translate(16322 14135)" fill="#26458c"/>
    <path id="Path_145627" data-name="Path 145627" d="M1395.907,301.5h.243a.08.08,0,0,0,.067-.033.109.109,0,0,0,.024-.071v-3.664a.107.107,0,0,0-.024-.069.1.1,0,0,0-.067-.033h-.243a.076.076,0,0,0-.067.033.108.108,0,0,0-.025.069v3.664a.11.11,0,0,0,.025.071.07.07,0,0,0,.067.033" transform="translate(16322 14135)" fill="#26458c"/>
    <path id="Path_145628" data-name="Path 145628" d="M1374.884,275.542h0l-1.48-.722.092-.191-.184-.1-.117.184-1-.48-.51-.252-.15-.079-.159-.078h-.017l-.527-.261-.05-.026-.109-.052-.159-.079-.133-.059-.184-.1-1.062-.523-.276-.129-.151-.08-1.287-.627-.36-.172-.56-.271-.494-.243-.1-.053-.552.053-.192.009.878.453.7.355.485.244.97.5.318.166.619.311.836.428h.009l.15.077.15.078.552.278.151.081.15.078h0l1.154.583.017.015.218.044.3.062.133.138-.15.245.267.138.084-.174,1.481.757Z" transform="translate(16322 14135)" fill="#4caeb0"/>
    <path id="Path_145629" data-name="Path 145629" d="M1371.355,264.8l.61-.592.234-.583.076-.174-.076-.016-.133-.018-.268-.035-.61,1.418.025.141Z" transform="translate(16322 14135)" fill="#4caeb0"/>
    <path id="Path_145630" data-name="Path 145630" d="M1371,273.167l.276-.131V267.81l-.4-.367h-.076l-.418.41v5.184l.452.219Z" transform="translate(16322 14135)" fill="#4caeb0"/>
    <path id="Path_145631" data-name="Path 145631" d="M1368.553,269.261l.067-.069.518-.5.419-.409.451-.445.376-.375v-.009l-.4.009-.7.009h-.318l-.92.889-.4.383-.1.452-.292,1.3-.017.061.041-.043Z" transform="translate(16322 14135)" fill="#4caeb0"/>
    <path id="Path_145632" data-name="Path 145632" d="M1372.191,264.38l-.242.228-.243.235-.443.426.025.147.226-.1.176-.079.175-.078.334-.137,1.213-.524,1.129-1.112-1.046-.271-1.3,1.244Z" transform="translate(16322 14135)" fill="#4caeb0"/>
    <path id="Path_145633" data-name="Path 145633" d="M1373.211,264.893l-.351.147-.661.29-.485.208-.175.079-.176.078-.1.043.059.051.058.052h.067l.151-.009h.46l.142-.007h.259l1.221-.019h.176l.577-.233,1.455-.593-.828-.514-.042-.025-.309-.2-1.146.5Z" transform="translate(16322 14135)" fill="#4caeb0"/>
    <path id="Path_145634" data-name="Path 145634" d="M1370.435,265l.034-.2-.553-1.288-.468.069.335.835Z" transform="translate(16322 14135)" fill="#4caeb0"/>
    <path id="Path_145635" data-name="Path 145635" d="M1375.377,266.059l-1.213.019-.259.007h-.385l-.133.009h-.26l-.928.019h-.435l-.075.008.042.026.1.1.1.094.193.165.075.072.042.034.117.1.2.183.267.235.8-.016,1.43-.019,1.329-.025-.643-.645Z" transform="translate(16322 14135)" fill="#4caeb0"/>
    <path id="Path_145636" data-name="Path 145636" d="M1368.754,267.19h.385l.125-.009.853-.009-.594-.234-.142-.053-.142-.059-.1-.035-1.555-.62-.745.019h-.334l-1.146,1.062,2.057-.036Z" transform="translate(16322 14135)" fill="#4caeb0"/>
    <path id="Path_145637" data-name="Path 145637" d="M1367.634,265.894l.343.14.343.131.819.322.326.13.134.051.142.052.51.2.1.043-.084-.069-.36-.33-.1-.1-.1-.1-.251-.227-.151-.14-.151-.137-.016-.009-.97-.88-1.7-.738-.526.33-.644.408,1.112.435Z" transform="translate(16322 14135)" fill="#4caeb0"/>
    <path id="Path_145638" data-name="Path 145638" d="M1370.8,265.329l.008.009.059.053.033.025.009.01h.1l-.008-.079-.008-.018-.008-.062-.017-.1-.025-.146-.033-.253-.034-.217h-.1l-.026.208-.041.262-.034.2.026.024Z" transform="translate(16322 14135)" fill="#4caeb0"/>
    <path id="Path_145639" data-name="Path 145639" d="M1368.637,265.024l.318.287.183.165.419.383.151.141.15.137.042.044.1.1.1.1.276.253.009.007.175.158h.009v.007l.067.062.05.043.117.1.025.018.05.043.016.01.043.034.008.01.033.025.059.053.025.016.067.061.15.141.377.337.551.505.569.514.117.1.159.148.159.147.7.636.51.47.142.132-.042-.175-.033-.131-.243-.932-.15-.565-.226-.208-.092-.087-.527-.47-.519-.462-.159-.137-.158-.141-.059-.052-.159-.138-.133-.122-.109-.071-.117-.1-.1-.088-.1-.1-.1-.1-.1-.094-.109-.1-.041-.035-.067-.061-.084-.078-.05-.052-.084-.079h-.008l-.008-.007-.1-.087-.008-.01-.05-.043-.058-.053-.043-.043-.05-.044-.05-.043-.017-.008-.083-.071-.117-.1-.368-.331-.235-.209-.233-.209-.1-.087-.318-.287-1.112-.966-1.037.3,1.305,1.192Z" transform="translate(16322 14135)" fill="#4caeb0"/>
    <path id="Path_145640" data-name="Path 145640" d="M1369.975,273.986l-.2.1-.635.311-.669.322-.109-.181-.184.1.092.19-1.48.723.234.53,1.48-.757.084.174.276-.14-.151-.243.126-.14.3-.059.217-.044.026-.019,1.145-.582Z" transform="translate(16322 14135)" fill="#4caeb0"/>
    <path id="Path_145641" data-name="Path 145641" d="M1371.689,273.672l.51-.262.878-.443,1.062-.548,2.358-1.2-.183-.009-.561-.052-.092.052-1.723.835-1.354.662-.385.193-.92.452-.125.059.125.063Z" transform="translate(16322 14135)" fill="#4caeb0"/>
    <path id="Path_145642" data-name="Path 145642" d="M1362.014,268.748h-2.91q-.025.431-.025.861a12.343,12.343,0,0,0,.159,2.019h2.96a9.429,9.429,0,0,1-.217-2.019,7.3,7.3,0,0,1,.033-.861" transform="translate(16322 14135)" fill="#ec355d"/>
    <path id="Path_145643" data-name="Path 145643" d="M1383.121,269.609a13.42,13.42,0,0,1-.151,2.02h3.9a17.514,17.514,0,0,0,.134-2.21c0-.228-.008-.454-.017-.679h-3.9c.025.3.034.583.034.869" transform="translate(16322 14135)" fill="#ec355d"/>
    <path id="Path_145644" data-name="Path 145644" d="M1354.345,268.748c-.008.228-.017.452-.017.68a19.438,19.438,0,0,0,.134,2.21h4.156a13.529,13.529,0,0,1-.151-2.02q0-.431.026-.86h-4.148Z" transform="translate(16322 14135)" fill="#ec355d"/>
    <path id="Path_145645" data-name="Path 145645" d="M1379.508,271.628h2.86a12.352,12.352,0,0,0,.159-2.019q0-.431-.025-.861h-2.81c.025.287.042.574.042.861a9.985,9.985,0,0,1-.226,2.019" transform="translate(16322 14135)" fill="#ec355d"/>
    <path id="Path_145646" data-name="Path 145646" d="M1393.173,271.628v-2.88h-4.541c.009.228.017.452.017.68a19.656,19.656,0,0,1-.125,2.21h4.649Z" transform="translate(16322 14135)" fill="#ec355d"/>
    <path id="Path_145647" data-name="Path 145647" d="M1352.7,269.426c0-.227.008-.452.017-.679h-4.758v2.88h4.866a19.117,19.117,0,0,1-.125-2.2" transform="translate(16322 14135)" fill="#ec355d"/>
    <path id="Path_145648" data-name="Path 145648" d="M1358.9,266.268a13.064,13.064,0,0,1,1.664-3.794l-3.813-1.947a17.225,17.225,0,0,0-1.664,3.793Z" transform="translate(16322 14135)" fill="#f48c34"/>
    <path id="Path_145649" data-name="Path 145649" d="M1361.094,262.744a12.218,12.218,0,0,0-1.656,3.794l2.684,1.375a9.348,9.348,0,0,1,1.606-3.819Z" transform="translate(16322 14135)" fill="#f48c34"/>
    <path id="Path_145650" data-name="Path 145650" d="M1382.493,273.681a12.979,12.979,0,0,1-1.873,3.681l3.462,1.765a17.392,17.392,0,0,0,1.873-3.679Z" transform="translate(16322 14135)" fill="#f48c34"/>
    <path id="Path_145651" data-name="Path 145651" d="M1387.227,276.7a19.118,19.118,0,0,1-1.664,3.193l7.852,4.011,1.765-3.741-7.761-3.959c-.059.166-.125.331-.192.5" transform="translate(16322 14135)" fill="#f48c34"/>
    <path id="Path_145652" data-name="Path 145652" d="M1354.112,262.144a18.193,18.193,0,0,1,1.162-2.375l-4.909-2.515L1348.6,261l5.009,2.556c.142-.47.309-.938.5-1.409" transform="translate(16322 14135)" fill="#f48c34"/>
    <path id="Path_145653" data-name="Path 145653" d="M1380.069,277.083a12.256,12.256,0,0,0,1.881-3.68l-2.55-1.3a9.32,9.32,0,0,1-1.924,3.653Z" transform="translate(16322 14135)" fill="#f48c34"/>
    <path id="Path_145654" data-name="Path 145654" d="M1375.536,281.451l1.848,3.123,2.994-1.914-1.823-3.089a12.122,12.122,0,0,1-3.019,1.88" transform="translate(16322 14135)" fill="#fcbd2b"/>
    <path id="Path_145655" data-name="Path 145655" d="M1375.227,280.911a11.69,11.69,0,0,0,3.019-1.87l-1.5-2.531a8.924,8.924,0,0,1-3.036,1.843Z" transform="translate(16322 14135)" fill="#fcbd2b"/>
    <path id="Path_145656" data-name="Path 145656" d="M1365.76,257.9l-2.041-3.444-2.993,1.914,2.065,3.5a12.007,12.007,0,0,1,2.969-1.967" transform="translate(16322 14135)" fill="#fcbd2b"/>
    <path id="Path_145657" data-name="Path 145657" d="M1366.07,258.428a11.509,11.509,0,0,0-2.96,1.958l1.547,2.61a8.842,8.842,0,0,1,2.943-1.984Z" transform="translate(16322 14135)" fill="#fcbd2b"/>
    <path id="Path_145658" data-name="Path 145658" d="M1368.821,288.02V292.6h3.495v-4.558c-.543.051-1.087.079-1.639.079a15.021,15.021,0,0,1-1.856-.1" transform="translate(16322 14135)" fill="#26458c"/>
    <path id="Path_145659" data-name="Path 145659" d="M1372.308,260.5v-2.992a10.746,10.746,0,0,0-1.513-.106,11.593,11.593,0,0,0-1.982.174v3.037a8.649,8.649,0,0,1,2.032-.244,9.115,9.115,0,0,1,1.463.131" transform="translate(16322 14135)" fill="#26458c"/>
    <path id="Path_145660" data-name="Path 145660" d="M1368.821,282.268v4.046a16.246,16.246,0,0,0,1.848.1,14.637,14.637,0,0,0,1.639-.087v-3.993a12.5,12.5,0,0,1-1.513.1,11.416,11.416,0,0,1-1.974-.166" transform="translate(16322 14135)" fill="#26458c"/>
    <path id="Path_145661" data-name="Path 145661" d="M1368.821,278.605v3.047a11.62,11.62,0,0,0,1.982.174,10.749,10.749,0,0,0,1.513-.106v-2.993a9,9,0,0,1-1.463.132,9.221,9.221,0,0,1-2.032-.254" transform="translate(16322 14135)" fill="#26458c"/>
    <path id="Path_145662" data-name="Path 145662" d="M1372.308,256.888v-4.366c-.544-.054-1.087-.087-1.639-.087a16.146,16.146,0,0,0-1.848.1v4.42a12.691,12.691,0,0,1,1.982-.166,11.091,11.091,0,0,1,1.505.1" transform="translate(16322 14135)" fill="#26458c"/>
    <path id="Path_145663" data-name="Path 145663" d="M1372.308,250.807v-4.523h-3.495v4.541a18.31,18.31,0,0,1,1.848-.1c.56,0,1.1.026,1.647.079" transform="translate(16322 14135)" fill="#26458c"/>
    <path id="Path_145664" data-name="Path 145664" d="M1377.861,259.89a11.692,11.692,0,0,0-3.069-1.739l-1.472,2.584a8.818,8.818,0,0,1,3.1,1.678Z" transform="translate(16322 14135)" fill="#4fb2b3"/>
    <path id="Path_145665" data-name="Path 145665" d="M1364.548,276.108l-1.522,2.673a11.512,11.512,0,0,0,2.935,1.973l1.489-2.61a8.949,8.949,0,0,1-2.9-2.036" transform="translate(16322 14135)" fill="#4fb2b3"/>
    <path id="Path_145666" data-name="Path 145666" d="M1360.676,282.886a16.065,16.065,0,0,0,2.977,1.9l2-3.507a12.1,12.1,0,0,1-2.935-1.973Z" transform="translate(16322 14135)" fill="#4fb2b3"/>
    <path id="Path_145667" data-name="Path 145667" d="M1381.1,254.209l2.149-3.774-3-1.855-2.174,3.819c.1.044.2.1.3.14a18.1,18.1,0,0,1,2.726,1.67" transform="translate(16322 14135)" fill="#4fb2b3"/>
    <path id="Path_145668" data-name="Path 145668" d="M1357.523,288.411l3,1.854,2.292-4.01a17.562,17.562,0,0,1-2.977-1.9Z" transform="translate(16322 14135)" fill="#4fb2b3"/>
    <path id="Path_145669" data-name="Path 145669" d="M1380.261,255.67a15.992,15.992,0,0,0-3.027-1.81l-2.141,3.75a12.267,12.267,0,0,1,3.069,1.742Z" transform="translate(16322 14135)" fill="#4fb2b3"/>
    <path id="Path_145670" data-name="Path 145670" d="M1378.354,264.675l2.166-1.9a12.24,12.24,0,0,0-.853-1.115c-.167-.189-.334-.374-.51-.555l-2.133,1.871a9.152,9.152,0,0,1,1.33,1.695" transform="translate(16322 14135)" fill="#0faa8a"/>
    <path id="Path_145671" data-name="Path 145671" d="M1379.609,260.716c.167.176.334.357.493.54a13.545,13.545,0,0,1,.87,1.122l2.71-2.366-1.355-1.671Z" transform="translate(16322 14135)" fill="#0faa8a"/>
    <path id="Path_145672" data-name="Path 145672" d="M1382.719,266.233l3.654-1.66a20.938,20.938,0,0,0-.911-2.411l-3.638,1.652a16.377,16.377,0,0,1,.9,2.419" transform="translate(16322 14135)" fill="#9c2e8d"/>
    <path id="Path_145673" data-name="Path 145673" d="M1359.806,273.829a19.331,19.331,0,0,0,1.129,2.323l2.642-1.21a9.161,9.161,0,0,1-1.137-2.322Z" transform="translate(16322 14135)" fill="#9c2e8d"/>
    <path id="Path_145674" data-name="Path 145674" d="M1382.167,266.485a15.461,15.461,0,0,0-.886-2.418l-2.618,1.191a9.291,9.291,0,0,1,.862,2.428Z" transform="translate(16322 14135)" fill="#9c2e8d"/>
    <path id="Path_145675" data-name="Path 145675" d="M1348.324,279.067l.97,2.4,5.863-2.672c-.36-.72-.695-1.374-1.1-2.338Z" transform="translate(16322 14135)" fill="#9c2e8d"/>
    <path id="Path_145676" data-name="Path 145676" d="M1387.871,263.892l7.217-3.271-1.054-2.375-7.075,3.228a2.076,2.076,0,0,1,.151.33c.217.539.451,1.185.761,2.088" transform="translate(16322 14135)" fill="#9c2e8d"/>
    <path id="Path_145677" data-name="Path 145677" d="M1359.263,274.073l-3.713,1.7c.4.957.736,1.618,1.112,2.332l3.73-1.7a19.451,19.451,0,0,1-1.129-2.331" transform="translate(16322 14135)" fill="#9c2e8d"/>
  </g>
</svg>
