<svg xmlns="http://www.w3.org/2000/svg" width="56.07" height="46.107" viewBox="0 0 56.07 46.107">
  <g id="Client_28" transform="translate(-17325.523 -14388.761)">
    <path id="Path_145568" data-name="Path 145568" d="M1018.028,283.308c-1.274,2.933-2.559,5.858-3.814,8.8a1.031,1.031,0,0,1-1.119.707c-.57-.011-1.024-.081-1.291-.7-1.056-2.462-2.136-4.912-3.207-7.368-.187-.426-.376-.852-.637-1.445,0,3.738,0,7.287,0,10.836,0,1.068,0,1.068-1.037,1.069-1.364,0-1.365,0-1.365-1.376q0-7.628,0-15.256c0-1.018.036-1.047,1.023-1.055,1.455-.01,1.412.011,1.982,1.373,1.457,3.478,2.955,6.936,4.482,10.509l2.493-5.948c.709-1.694,1.406-3.392,2.131-5.078a2.027,2.027,0,0,1,2.467-.773c.309.193.248.52.249.811.007,1.578,0,3.156,0,4.733q0,5.526,0,11.049c0,1.007,0,1.012-.948,1.01-1.453,0-1.3.125-1.308-1.386q-.008-5.254,0-10.512l-.1,0" transform="translate(16322 14135)" fill="#b92b34"/>
    <path id="Path_145569" data-name="Path 145569" d="M1031.806,263.568c0,.578.021,1.155-.005,1.729-.022.5.189.668.646.646.5-.023,1.011,0,1.517,0a1.692,1.692,0,0,0,1.758-2.125,7.13,7.13,0,0,1,.542-3.936,3.546,3.546,0,0,1,2.885-1.987,4.444,4.444,0,0,1,4.353,1.362,4.964,4.964,0,0,1,.987,2.914,7.256,7.256,0,0,1-.614,4.013,3.38,3.38,0,0,1-2.806,1.942,4.691,4.691,0,0,1-3.885-.825.335.335,0,0,0-.466-.006,3.667,3.667,0,0,1-2.8.7c-.433-.013-.87.035-1.3-.009-.632-.066-.865.176-.824.845a3.56,3.56,0,0,1-1.062,2.9,3.092,3.092,0,0,1-2.075.9c-1.057.055-2.12-.006-3.178.022-.538.015-.753-.206-.7-.751a3.635,3.635,0,0,0,0-.6c-.041-.514.166-.726.669-.71.818.024,1.638.013,2.457,0a1.705,1.705,0,0,0,1.8-1.94c0-.543-.21-.687-.692-.677a20.325,20.325,0,0,1-2.815-.031c-1.774-.208-2.776-1.338-3.094-3.582a7.672,7.672,0,0,1,.465-4.039,4.3,4.3,0,0,1,4.865-2.435c2.279.465,3.366,1.894,3.374,4.32,0,.451,0,.9,0,1.353m-2.114.156a7.332,7.332,0,0,0-.129-1.978,6.118,6.118,0,0,0-.239-.7,1.974,1.974,0,0,0-3.493-.211,4.274,4.274,0,0,0-.649,2.928c.18,1.575.868,2.172,2.39,2.177.482,0,.964-.024,1.444,0s.715-.15.682-.686c-.03-.474-.006-.949-.006-1.534m10.427,2.365a1.876,1.876,0,0,0,2.115-1.609,5.513,5.513,0,0,0-.139-3.167,2.1,2.1,0,0,0-3.9-.191,5.533,5.533,0,0,0-.31,2.652,2.075,2.075,0,0,0,2.237,2.315" transform="translate(16322 14135)" fill="#b92b34"/>
    <path id="Path_145570" data-name="Path 145570" d="M1013.849,267.988c-1.4,0-2.793,0-4.19,0a1.293,1.293,0,0,1-.64-.053c-.889-.548-.8.1-.765.659a5.935,5.935,0,0,1-.188,1.632,3.064,3.064,0,0,1-2.85,2.423c-.192.007-.386,0-.578,0-1.142,0-1.124,0-1.111-1.224.005-.553.168-.816.745-.833,1.342-.041,1.855-.606,1.859-2,.01-3.108,0-6.213.012-9.321,0-.323-.175-.807.241-.926a2.651,2.651,0,0,1,1.7.037c.241.094.16.446.16.688.006,1.73,0,3.458.005,5.188,0,1.117.419,1.644,1.5,1.664,2.527.042,5.056.024,7.585.005a1.194,1.194,0,0,0,1.19-1.184,6.267,6.267,0,0,0-.485-3.515,2.679,2.679,0,0,0-3.648-1.027,7.832,7.832,0,0,0-1.024.692.73.73,0,0,1-.932.008c-1.019-.685-1.07-1.012-.149-1.854a5.134,5.134,0,0,1,5.423-.9,4.408,4.408,0,0,1,2.973,3.943,10.973,10.973,0,0,1-.01,3.576,2.472,2.472,0,0,1-2.637,2.319c-1.4.008-2.794,0-4.19,0" transform="translate(16322 14135)" fill="#b92b34"/>
    <path id="Path_145571" data-name="Path 145571" d="M1046.376,294.192a5.068,5.068,0,0,1-5.7.884c-1.368-.532-2.041-2.134-1.866-3.947a3.362,3.362,0,0,1,2.621-3.088,14.923,14.923,0,0,1,4.009-.3c.83-.007.973-.18.865-1.026-.25-1.946-1.233-2.22-3.289-2.131a3.952,3.952,0,0,0-2.024.725c-.5.341-.78.141-1.015-.322a5.435,5.435,0,0,0-.28-.523.67.67,0,0,1,.263-1.061,5.412,5.412,0,0,1,2.926-.919,9.838,9.838,0,0,1,3.357.272,3.127,3.127,0,0,1,2.182,3.085c.017,2.855-.009,5.712.016,8.566.005.636-.226.866-.805.8a2.606,2.606,0,0,0-.433,0c-.566.03-1.077,0-.823-1.015m-3.106-.729c2.38-.121,3.065-1.082,3.041-3.063,0-.3-.069-.6-.41-.583-1.26.046-2.541-.25-3.779.231a1.682,1.682,0,0,0-.556,2.836,2.528,2.528,0,0,0,1.7.579" transform="translate(16322 14135)" fill="#b92b34"/>
    <path id="Path_145572" data-name="Path 145572" d="M1027.447,282.48c3.144-.177,4.871,2.132,5.114,4.876a13.874,13.874,0,0,1-.167,4.236,4.568,4.568,0,0,1-4.738,3.93,4.84,4.84,0,0,1-4.073-1.648,5.3,5.3,0,0,1-1.224-3.211,16.011,16.011,0,0,1,.114-4.113,4.586,4.586,0,0,1,4.974-4.07m2.824,6.311a5.967,5.967,0,0,0-.294-2.259,2.483,2.483,0,0,0-2.586-1.849,2.668,2.668,0,0,0-2.524,2.064,9.427,9.427,0,0,0-.095,4.076,2.693,2.693,0,0,0,5.374-.062,10.709,10.709,0,0,0,.125-1.97" transform="translate(16322 14135)" fill="#b92b34"/>
    <path id="Path_145573" data-name="Path 145573" d="M1053.255,293.006c1.841,0,3.542-.008,5.243.007.341,0,.81-.163.967.278a3.059,3.059,0,0,1,.016,1.7c-.052.232-.308.207-.5.207-2.672,0-5.344,0-8.017.008-.42,0-.564-.17-.619-.613a3.2,3.2,0,0,1,.849-2.511c1.716-2.146,3.393-4.328,5.08-6.5a5.449,5.449,0,0,0,.344-.6c-1.627,0-3.158,0-4.689,0-1.211,0-1.638-.648-1.262-1.871.087-.285.277-.321.5-.321q3.936,0,7.872,0c.191,0,.45.009.458.259.022.728.274,1.484-.247,2.157q-2.591,3.353-5.165,6.714l-.834,1.086" transform="translate(16322 14135)" fill="#b92b34"/>
    <path id="Path_145574" data-name="Path 145574" d="M1036.865,289.908c0,1.977-.014,3.953.008,5.93a8.972,8.972,0,0,1-.2,1.777,2.811,2.811,0,0,1-2.705,2.247c-.1.007-.193,0-.289.005-1.436.02-1.633-.246-1.378-1.761.063-.366.265-.412.552-.437,1.481-.139,1.612-.291,1.612-1.831q0-6,0-12.009c0-1.043,0-1.051.985-1.046,1.6.01,1.408-.163,1.416,1.5.009,1.876,0,3.752,0,5.629" transform="translate(16322 14135)" fill="#b92b34"/>
    <path id="Path_145575" data-name="Path 145575" d="M1034.462,278.845c.073-.365-.21-.955.223-1.193a1.973,1.973,0,0,1,1.812-.046c.787.455.261,1.4.341,2.119.052.474-.363.429-.669.44-.167.007-.335,0-.5,0-1.2,0-1.2,0-1.2-1.323" transform="translate(16322 14135)" fill="#b92b34"/>
    <path id="Path_145576" data-name="Path 145576" d="M1008.248,255c0,1.115,0,1.115-1.131,1.113s-1.131,0-1.127-1.237c0-1.115,0-1.115,1.247-1.111,1.013,0,1.013,0,1.011,1.235" transform="translate(16322 14135)" fill="#b92b34"/>
    <path id="Path_145577" data-name="Path 145577" d="M1017.064,271.217c0,1.136,0,1.136-1.116,1.133-1,0-1,0-1-1.257,0-1.1,0-1.1,1.081-1.094,1.034,0,1.034,0,1.033,1.218" transform="translate(16322 14135)" fill="#b92b34"/>
  </g>
</svg>
