<svg xmlns="http://www.w3.org/2000/svg" width="59.104" height="70.779" viewBox="0 0 59.104 70.779">
  <g id="Client_73" transform="translate(-16413.17 -14806.082)">
    <path id="Path_144584" data-name="Path 144584" d="M111.305,691.145c.077.676.143,1.324.228,1.972.239,1.819.472,3.64.736,5.459.3,2.035.6,4.068,1.065,6.073a1.572,1.572,0,0,0,.948,1.206,11.649,11.649,0,0,0,3.229.838,26.483,26.483,0,0,0,5.3.13,20.561,20.561,0,0,0,4.682-.824,2.42,2.42,0,0,0,1.83-2.072c.289-1.553.517-3.112.654-4.685.106-1.2.192-2.407.285-3.609.008-.115,0-.23,0-.384-.506.23-.989.464-1.483.672a20.091,20.091,0,0,1-9.491,1.511,16.838,16.838,0,0,1-3.784-.663.884.884,0,0,1-.675-1.217.683.683,0,0,1,.907-.49,18.724,18.724,0,0,0,14.806-1.938,1.366,1.366,0,0,1,.452-.228A.822.822,0,0,1,132,693.8c-.077,1.393-.164,2.783-.272,4.172-.11,1.424-.25,2.847-.458,4.258-.138.937-.317,1.864-.547,2.783a3.247,3.247,0,0,1-1.879,2.247,13.3,13.3,0,0,1-3.874,1.038,29.269,29.269,0,0,1-7.783.073,14.757,14.757,0,0,1-3.337-.842A3.2,3.2,0,0,1,111.724,705c-.474-2.218-.846-4.456-1.146-6.7-.37-2.77-.714-5.544-1.068-8.317a.763.763,0,0,1,.245-.819.967.967,0,0,1,1.027-.08,17.527,17.527,0,0,0,1.919.768A24.318,24.318,0,0,0,118.384,691a22.794,22.794,0,0,0,7.189-.417,10.572,10.572,0,0,0,3.2-1.171,3.223,3.223,0,0,0,.4-.269,1.3,1.3,0,0,0,.61-1.309,1.52,1.52,0,0,0-.99-1.262,6.027,6.027,0,0,0-2.605-.241,47.618,47.618,0,0,0-5.37.833,30.993,30.993,0,0,1-5.155.641,6.53,6.53,0,0,1-3.178-.661,3.937,3.937,0,0,1-1.393-5.087,3.576,3.576,0,0,1,2.484-1.529,15.949,15.949,0,0,1,4.277-.038,49.487,49.487,0,0,0,6.368.4,5.15,5.15,0,0,0,1.845-.376,1.659,1.659,0,0,0,.8-2.23c-.207-.432-.624-.47-1.016-.494a13.365,13.365,0,0,0-3.179.366,12.5,12.5,0,0,1-3.424.259,2.9,2.9,0,0,1-2.725-3.071,2.268,2.268,0,0,1,.9-1.8,16.4,16.4,0,0,1,1.729-1.027,1.232,1.232,0,0,0,.618-.785.774.774,0,0,1,.949-.621.835.835,0,0,1,.6,1.054,2.585,2.585,0,0,1-1.269,1.774c-.416.254-.854.474-1.277.717-.35.2-.7.4-.62.928a1.2,1.2,0,0,0,.9,1.062,5.111,5.111,0,0,0,2.013.041c1.208-.139,2.39-.458,3.6-.56a5.791,5.791,0,0,1,2.049.1,2.531,2.531,0,0,1,1.915,2.314,3.331,3.331,0,0,1-2.428,3.748,11.183,11.183,0,0,1-4.055.314c-2.358-.163-4.7-.569-7.072-.523a5.994,5.994,0,0,0-1.536.206c-1.235.344-1.347.961-1.152,2.12a1.786,1.786,0,0,0,1.293,1.435,7.642,7.642,0,0,0,3.182.2c1.774-.145,3.515-.537,5.266-.845a24.59,24.59,0,0,1,5.261-.583,5.394,5.394,0,0,1,2.386.547,3.208,3.208,0,0,1,.462,5.278,9.983,9.983,0,0,1-3.722,1.676,25.086,25.086,0,0,1-7.55.63,24.549,24.549,0,0,1-7.424-1.523c-.062-.022-.127-.041-.231-.074" transform="translate(16322 14135)" fill="#974d7f"/>
    <path id="Path_144585" data-name="Path 144585" d="M142.053,731.3h.437c2.478,0,4.957.005,7.436-.008.289,0,.355.085.346.371-.019.785-.013,1.573,0,2.358,0,.22-.042.3-.275.3q-5.964-.008-11.932,0c-.229,0-.287-.085-.283-.307q.017-1,0-2a.757.757,0,0,1,.2-.535q3.912-4.73,7.815-9.465c.069-.083.179-.146.189-.283a.619.619,0,0,0-.357-.033c-2.39,0-4.778-.01-7.168.007-.354,0-.429-.106-.416-.45.024-.75.013-1.5,0-2.251,0-.229.041-.333.293-.332q5.832.011,11.662,0c.232,0,.28.085.275.307-.013.668-.017,1.336,0,2a.915.915,0,0,1-.236.657q-3.883,4.684-7.755,9.378c-.058.071-.114.142-.228.284" transform="translate(16322 14135)" fill="#974d7f"/>
    <path id="Path_144586" data-name="Path 144586" d="M91.176,726.507c0-2.5,0-4.993-.007-7.49,0-.287.081-.348.34-.347q5.391.012,10.783,0c.246,0,.331.058.325.329q-.027,1.248,0,2.5c.006.271-.074.327-.322.326-2.445-.007-4.89,0-7.335,0-.473,0-.473,0-.472.507,0,.822.012,1.641-.006,2.462-.007.282.076.348.338.347,2.151-.011,4.3,0,6.456-.014.308,0,.4.079.388.4-.023.807-.019,1.618,0,2.425.006.273-.077.331-.324.329-2.163-.007-4.327,0-6.49-.011-.3,0-.371.082-.369.388.016,1.77,0,3.54.015,5.311,0,.309-.1.363-.364.358q-1.3-.024-2.6,0c-.276.006-.36-.064-.359-.363.012-2.483.007-4.97.007-7.456" transform="translate(16322 14135)" fill="#974d7f"/>
    <path id="Path_144587" data-name="Path 144587" d="M139.007,738.875c.6-.536.878-.529,1.511.027.157.139.176-.055.235-.116a.955.955,0,0,1,1-.255.831.831,0,0,1,.6.7,4.071,4.071,0,0,1,.024.665c0,.3,0,.608,0,.914,0,.092.051.241-.1.248s-.112-.145-.113-.238c-.006-.444.011-.889-.008-1.334a.7.7,0,0,0-.541-.749.723.723,0,0,0-.805.371,1.108,1.108,0,0,0-.122.541c0,.338.01.679-.006,1.017-.006.135.1.373-.1.382-.222.01-.106-.235-.112-.362-.017-.364,0-.728-.008-1.089-.012-.559-.285-.889-.715-.879a.827.827,0,0,0-.757.9c-.007.4,0,.8-.006,1.2,0,.091.053.242-.106.245s-.118-.143-.118-.241c0-.656,0-1.31,0-1.965,0-.1-.067-.276.1-.287.212-.012.074.2.154.311" transform="translate(16322 14135)" fill="#93507a"/>
    <path id="Path_144588" data-name="Path 144588" d="M91.38,739.332c0-.479.008-.96,0-1.439,0-.2.036-.3.256-.294.619.01,1.239,0,1.858,0,.1,0,.226-.021.223.136,0,.174-.145.112-.231.113-.518.005-1.036.01-1.553,0-.206,0-.31.036-.293.284.025.358-.11.83.063,1.052s.653.056,1,.076c.214.01.428,0,.642,0,.077,0,.171-.008.167.114s-.091.115-.171.115c-.461,0-.924.019-1.384-.006-.263-.013-.33.082-.315.338.02.339.006.681,0,1.02,0,.089.02.2-.115.211-.155.009-.145-.11-.145-.215v-1.513" transform="translate(16322 14135)" fill="#96547f"/>
    <path id="Path_144589" data-name="Path 144589" d="M116.361,740.707a.96.96,0,0,1-.815.4.911.911,0,0,1-.965-.913c-.027-.477-.008-.96-.007-1.44,0-.093-.014-.2.124-.2s.13.1.13.194c0,.434,0,.867,0,1.3,0,.516.268.818.719.834a.809.809,0,0,0,.851-.807c.019-.408,0-.819.01-1.229,0-.11-.073-.295.135-.29.181.006.109.175.11.274.007.61.01,1.221,0,1.829,0,.132.107.354-.1.386-.243.035-.073-.243-.188-.344" transform="translate(16322 14135)" fill="#93557d"/>
    <path id="Path_144590" data-name="Path 144590" d="M104.721,738.89a1.03,1.03,0,0,1,.765-.4.933.933,0,0,1,1.016.935c.03.481.008.961.009,1.443,0,.1-.005.2-.136.188s-.116-.118-.116-.211c0-.41,0-.819,0-1.229-.005-.57-.271-.9-.731-.9a.836.836,0,0,0-.85.92c-.005.388,0,.776,0,1.161,0,.11.039.268-.137.261s-.11-.174-.111-.271c-.007-.633-.009-1.267,0-1.9,0-.111-.106-.318.125-.325.2-.006.075.207.168.329" transform="translate(16322 14135)" fill="#965580"/>
    <path id="Path_144591" data-name="Path 144591" d="M100.68,738.767c-.517,0-.962,0-1.408,0-.09,0-.237.051-.24-.1s.148-.106.235-.107c.507-.006,1.013-.005,1.519,0,.082,0,.195-.053.241.059s-.051.17-.106.237c-.512.637-1.027,1.271-1.6,1.977h1.584c.074,0,.132.022.135.114s-.05.125-.126.125c-.608,0-1.216.014-1.823-.006-.239-.008-.123-.154-.042-.256L100.5,739c.043-.051.083-.109.178-.234" transform="translate(16322 14135)" fill="#91577c"/>
    <path id="Path_144592" data-name="Path 144592" d="M108.472,737.641c.247-.09.339.035.434.18.305.464.626.916.923,1.384.128.2.2.238.34.011.3-.478.632-.94.945-1.414.1-.142.188-.259.4-.155-.377.553-.734,1.1-1.122,1.632a1.312,1.312,0,0,0-.288.967,4.575,4.575,0,0,1,0,.6c0,.088.028.208-.108.214s-.122-.109-.122-.2c0-.3-.01-.588,0-.881a.745.745,0,0,0-.149-.484c-.42-.608-.832-1.217-1.263-1.85" transform="translate(16322 14135)" fill="#93517a"/>
    <path id="Path_144593" data-name="Path 144593" d="M131.588,738.9a1.1,1.1,0,0,1,.665-.4.938.938,0,0,1,1.118,1.022c.007.435,0,.866,0,1.3,0,.091.053.24-.117.23-.133-.007-.1-.132-.1-.219,0-.387,0-.773,0-1.16-.005-.613-.273-.949-.756-.957a.853.853,0,0,0-.848.959c0,.387,0,.773,0,1.161,0,.084.041.209-.094.221-.162.018-.132-.123-.133-.221,0-.655-.005-1.31,0-1.964,0-.109-.085-.3.113-.3s.061.207.154.331" transform="translate(16322 14135)" fill="#93507a"/>
    <path id="Path_144594" data-name="Path 144594" d="M125.406,739.705c0-.175,0-.351,0-.525,0-.2.074-.45-.265-.419-.048,0-.075-.046-.076-.1s.024-.1.073-.1c.3.029.253-.187.276-.384.015-.149-.132-.423.13-.42.2,0,.115.269.1.4-.036.341.1.414.4.4.14-.006.408-.121.414.108.006.189-.263.11-.394.094-.354-.046-.443.1-.415.444.03.36,0,.726.008,1.087,0,.458.182.621.606.562.079-.009.183-.1.209.058.022.13-.086.146-.172.168a.667.667,0,0,1-.886-.674c-.015-.231,0-.468,0-.7Z" transform="translate(16322 14135)" fill="#96557f"/>
    <path id="Path_144595" data-name="Path 144595" d="M94.667,739.082a1.633,1.633,0,0,1,.833-.563c.1-.027.211-.055.236.1.019.124-.067.141-.163.168a1.1,1.1,0,0,0-.9,1.208c-.009.292,0,.585,0,.877,0,.1-.008.2-.137.191-.111,0-.109-.1-.109-.18q0-1.071,0-2.14c0-.078-.016-.174.1-.182s.147.075.146.178,0,.231,0,.345" transform="translate(16322 14135)" fill="#955980"/>
    <path id="Path_144596" data-name="Path 144596" d="M146.485,739.207a1.379,1.379,0,0,1,.8-.673c.1-.023.23-.1.271.075.034.155-.084.152-.185.178a1.119,1.119,0,0,0-.88,1.163c-.011.317,0,.631-.005.946,0,.085-.005.171-.121.163-.089-.008-.1-.08-.1-.153,0-.736,0-1.47,0-2.207,0-.076.02-.138.11-.14s.111.057.111.135v.513" transform="translate(16322 14135)" fill="#90527b"/>
    <path id="Path_144597" data-name="Path 144597" d="M123.633,739.208a1.37,1.37,0,0,1,.827-.684c.091-.022.21-.083.242.08s-.077.156-.182.184a1.131,1.131,0,0,0-.886,1.193c0,.282,0,.561,0,.841,0,.085.035.21-.1.216-.161.007-.125-.133-.125-.227q0-1.017,0-2.035c0-.086-.031-.207.105-.214.171-.01.115.133.122.225s0,.21,0,.421" transform="translate(16322 14135)" fill="#8f517a"/>
    <path id="Path_144598" data-name="Path 144598" d="M114.59,728.758a.364.364,0,0,1,.061-.05c.07-.035.143-.07.214-.1a4.661,4.661,0,0,0,2.849-3.762,5.49,5.49,0,0,0-.761-4,4.877,4.877,0,0,0-3.978-2.109c-2.475-.153-4.955-.031-7.433-.065-.252,0-.293.1-.293.332q.007,7.486,0,14.977c0,.294.1.348.351.344.878-.014,1.757-.019,2.636,0,.28.007.331-.1.329-.358-.011-1.43,0-2.861-.013-4.291,0-.3.088-.372.362-.363q.961.031,1.926,0a.527.527,0,0,1,.517.291c.942,1.487,1.9,2.959,2.845,4.445a.506.506,0,0,0,.491.274c1.036-.014,2.072-.007,3.108-.007h.446c-1.245-1.893-2.45-3.727-3.654-5.561m-.157-4.517a2.053,2.053,0,0,1-1.976,1.981c-1.235.075-2.477.032-3.716.043-.188,0-.186-.114-.186-.252,0-.656,0-1.313,0-1.967s.007-1.315,0-1.971c0-.215.061-.28.267-.278,1.082.009,2.163.005,3.244.009a2.668,2.668,0,0,1,.67.076,2.056,2.056,0,0,1,1.7,2.359" transform="translate(16322 14135)" fill="#974d7f"/>
    <path id="Path_144599" data-name="Path 144599" d="M134.678,721.833a7.622,7.622,0,0,0-6.555-3.415,7.308,7.308,0,0,0-2.916.517,8.082,8.082,0,0,0,5.3,15.265c5.413-1.639,7.047-8.114,4.171-12.367m-4.014,8.76a4.267,4.267,0,0,1-2.714.8,4.526,4.526,0,0,1-4.333-4.127,5.113,5.113,0,0,1,1.257-4.31,4.432,4.432,0,0,1,7.406,1.667,5.214,5.214,0,0,1-1.616,5.968" transform="translate(16322 14135)" fill="#974d7f"/>
    <path id="Path_144600" data-name="Path 144600" d="M119.68,738.572c-.24-.018-.088.231-.145.346-.007.018-.032.025-.049.036a1.183,1.183,0,0,0-1.814-.077,1.2,1.2,0,0,0,.008,1.619c.508.542,1.187.5,1.842-.139.071.925-.317,1.324-1.161,1.241a1.419,1.419,0,0,1-.624-.242c-.077-.049-.14-.077-.2.021s0,.148.075.193a1.809,1.809,0,0,0,.791.282c.86.083,1.365-.4,1.367-1.312,0-.538.007-1.076,0-1.613,0-.122.088-.341-.089-.355m-1.125,2.056a.929.929,0,0,1-.936-.937.915.915,0,0,1,.906-.963.952.952,0,1,1,.03,1.9" transform="translate(16322 14135)" fill="#8f537b"/>
    <path id="Path_144601" data-name="Path 144601" d="M136.451,740.764c0-1.021,0-2.038,0-3.058,0-.1.029-.233-.122-.24-.168-.007-.117.14-.118.231,0,.427,0,.855,0,1.314-.69-.649-1.339-.683-1.834-.129a1.446,1.446,0,0,0,.059,1.907,1.135,1.135,0,0,0,1.761-.242,2.13,2.13,0,0,0,.015.227c.019.1-.069.271.106.28.205.009.133-.182.134-.29m-1.218.114a1,1,0,0,1-.93-1.109.963.963,0,0,1,.952-1.042,1.081,1.081,0,0,1-.022,2.151" transform="translate(16322 14135)" fill="#91537d"/>
    <path id="Path_144602" data-name="Path 144602" d="M102,739.9c.247.015.5,0,.744,0s.519-.014.777,0c.2.012.244-.074.232-.267a1.172,1.172,0,0,0-.961-1.144,1.141,1.141,0,0,0-1.239.947,1.362,1.362,0,0,0,.54,1.5,1.232,1.232,0,0,0,1.448-.153c.049-.05.159-.09.1-.189s-.145-.076-.227,0a1.084,1.084,0,0,1-.221.158.949.949,0,0,1-1.388-.59c-.043-.183-.02-.288.2-.272m-.2-.472a.926.926,0,0,1,.852-.714.863.863,0,0,1,.819.739c.032.166-.005.24-.178.231-.224-.011-.448,0-.672,0s-.426-.011-.638,0-.22-.089-.183-.256" transform="translate(16322 14135)" fill="#93517a"/>
    <path id="Path_144603" data-name="Path 144603" d="M121.7,738.493a1.306,1.306,0,0,0-1.107,1.9,1.2,1.2,0,0,0,1.883.426c.067-.06.2-.114.1-.243-.086-.112-.155,0-.223.049s-.109.084-.167.119a.945.945,0,0,1-1.428-.639c-.033-.163,0-.21.153-.205.27.007.54,0,.81,0h.81c.1,0,.191.006.206-.156a1.2,1.2,0,0,0-1.041-1.254m.594,1.187c-.235,0-.47,0-.705,0h-.672c-.108,0-.19.006-.164-.168a.944.944,0,0,1,.855-.8.892.892,0,0,1,.85.792c.022.157-.046.178-.164.176" transform="translate(16322 14135)" fill="#93527a"/>
    <path id="Path_144604" data-name="Path 144604" d="M148.292,739.9c.27.007.54,0,.81,0h.809c.1,0,.214.012.207-.152a1.183,1.183,0,0,0-1.029-1.255,1.285,1.285,0,0,0-1.141,1.827,1.2,1.2,0,0,0,1.955.459c.048-.053.146-.1.063-.2s-.135-.04-.2.019a1.077,1.077,0,0,1-.161.126.953.953,0,0,1-1.463-.617c-.033-.158-.007-.215.15-.21m-.135-.466a.906.906,0,0,1,.877-.722.873.873,0,0,1,.789.736c.055.214-.02.239-.189.233-.213-.007-.426,0-.639,0s-.449-.009-.673,0c-.2.011-.218-.06-.165-.247" transform="translate(16322 14135)" fill="#92527a"/>
    <path id="Path_144605" data-name="Path 144605" d="M130.464,740.744c.011-.431.01-.866,0-1.3a.841.841,0,0,0-.686-.905,1.57,1.57,0,0,0-.989.108c-.067.022-.173.044-.14.158s.122.107.216.058a1.366,1.366,0,0,1,.759-.107.649.649,0,0,1,.613.594c.026.165.027.262-.2.209a2.223,2.223,0,0,0-.872-.032.787.787,0,0,0,.026,1.573,1.109,1.109,0,0,0,1-.374c.125.1-.042.326.163.324s.105-.2.107-.307m-1.088.138a.757.757,0,0,1-.509-.147.5.5,0,0,1-.211-.518.55.55,0,0,1,.426-.447,2.552,2.552,0,0,1,1,.015c.144.021.167.114.17.248a.825.825,0,0,1-.88.849" transform="translate(16322 14135)" fill="#935278"/>
    <path id="Path_144606" data-name="Path 144606" d="M97.27,738.492a1.262,1.262,0,0,0-1.236,1.329,1.235,1.235,0,0,0,1.239,1.285,1.309,1.309,0,0,0,0-2.614m.011,2.391a1.021,1.021,0,0,1-.987-1.1,1.007,1.007,0,0,1,.987-1.064,1.056,1.056,0,0,1,.978,1.123,1.016,1.016,0,0,1-.978,1.043" transform="translate(16322 14135)" fill="#94527a"/>
    <path id="Path_144607" data-name="Path 144607" d="M112.706,738.492a1.249,1.249,0,0,0-1.257,1.3,1.233,1.233,0,1,0,1.257-1.3m-.025,2.391a1.091,1.091,0,0,1-.016-2.167,1.059,1.059,0,0,1,1.007,1.064,1.03,1.03,0,0,1-.991,1.1" transform="translate(16322 14135)" fill="#94517b"/>
    <path id="Path_144608" data-name="Path 144608" d="M144.353,738.492a1.238,1.238,0,0,0-1.272,1.282,1.223,1.223,0,0,0,1.178,1.333,1.31,1.31,0,0,0,.094-2.615m-.058,2.392a1.042,1.042,0,0,1-.976-1.087.989.989,0,1,1,1.966.027,1.007,1.007,0,0,1-.99,1.06" transform="translate(16322 14135)" fill="#93517a"/>
  </g>
</svg>
