<svg xmlns="http://www.w3.org/2000/svg" width="59.445" height="20.626" viewBox="0 0 59.445 20.626">
  <g id="Client_43" transform="translate(-17351.115 -14503.088)">
    <rect id="Rectangle_17642" data-name="Rectangle 17642" width="25.146" height="8.717" transform="translate(17351.115 14514.981)" fill="#7cb953"/>
    <rect id="Rectangle_17643" data-name="Rectangle 17643" width="25.146" height="8.723" transform="translate(17351.115 14503.088)" fill="#2099d5"/>
    <path id="Path_145194" data-name="Path 145194" d="M1079.407,386.925l-.112.023a3.469,3.469,0,0,1-.814.11c-.657,0-1.433-.351-1.433-2,0-.848.134-1.975,1.359-1.975h.007a3.6,3.6,0,0,1,.9.181l.1.029Zm.2-8.211-.2.039V381.8l-.179-.055-.052-.013a3.911,3.911,0,0,0-1.113-.2c-2.449,0-2.964,1.925-2.964,3.541,0,2.214,1.195,3.49,3.278,3.49a6.39,6.39,0,0,0,2.188-.321,1,1,0,0,0,.821-1.1V378.4c-.583.107-1.187.216-1.777.317" transform="translate(16322 14135)" fill="#1f252c"/>
    <path id="Path_145195" data-name="Path 145195" d="M1086.686,386.98l-.1.031-.373.1a3.713,3.713,0,0,1-.9.147c-.575,0-.918-.293-.918-.8,0-.327.142-.878,1.083-.878h1.216Zm-.858-5.492a8.012,8.012,0,0,0-2.493.45l-.628.2.209,1.474.612-.209a6.938,6.938,0,0,1,2.039-.356c.269,0,1.089,0,1.089.924v.4h-1.142c-2.083,0-3.046.69-3.046,2.175,0,1.265.889,2.027,2.382,2.027a7.511,7.511,0,0,0,1.657-.232l.03-.008.03.008.187.031c.582.107,1.187.217,1.777.334v-4.849c0-1.568-.911-2.369-2.7-2.369" transform="translate(16322 14135)" fill="#1f252c"/>
    <path id="Path_145196" data-name="Path 145196" d="M1072.18,386.98l-.1.031-.373.1a3.67,3.67,0,0,1-.9.147c-.575,0-.918-.293-.918-.8,0-.327.141-.878,1.074-.878h1.218Zm-.851-5.492a7.983,7.983,0,0,0-2.494.45l-.627.2.209,1.474.612-.209a6.936,6.936,0,0,1,2.039-.356c.269,0,1.089,0,1.089.924v.4h-1.142c-2.083,0-3.053.69-3.053,2.175,0,1.265.888,2.027,2.389,2.027a7.513,7.513,0,0,0,1.657-.232l.03-.008.03.008.179.031c.59.107,1.187.217,1.777.342v-4.849c.008-1.585-.9-2.377-2.7-2.377" transform="translate(16322 14135)" fill="#1f252c"/>
    <path id="Path_145197" data-name="Path 145197" d="M1064.318,381.5a4.85,4.85,0,0,0-2.023.468l-.075.037-.067-.055a2.977,2.977,0,0,0-1.814-.458,7.2,7.2,0,0,0-2.143.335,1.047,1.047,0,0,0-.881,1.118v5.539h1.986v-5.12l.1-.031a2.451,2.451,0,0,1,.874-.162c.574,0,.865.318.865.94v4.381h1.956v-4.467a1.565,1.565,0,0,0-.059-.45l-.067-.133.134-.062a2.29,2.29,0,0,1,.971-.209c.4,0,.866.162.866.94v4.381h1.948v-4.584c0-1.623-.836-2.408-2.568-2.408" transform="translate(16322 14135)" fill="#1f252c"/>
    <path id="Path_145198" data-name="Path 145198" d="M1085.224,373.775a6.6,6.6,0,0,1-1.158-.11l-.112-.022v-2.992a1.513,1.513,0,0,0-.052-.426l-.06-.124.127-.056c.03-.016.06-.022.1-.039l.022-.016c.045-.014.09-.03.135-.046a.269.269,0,0,1,.052-.015,4.409,4.409,0,0,1,1.023-.125h.007c1.217,0,1.359,1.128,1.359,1.973-.007,1.647-.791,2-1.44,2m-.008-5.687h-.053a3.437,3.437,0,0,0-2.732.963,1.99,1.99,0,0,0-.358,1.157v3.084a.965.965,0,0,1-.06.39l-.067.132h-3.607v-2.146h-.007c-.044-2.26-1.329-3.5-3.188-3.5h-1.814c-.075.552-.135.942-.209,1.491h1.807c.948,0,1.448.839,1.448,2.129v2.159l-.127-.069a1.337,1.337,0,0,0-.426-.061h-3.12c-.06.412-.135.946-.217,1.482h9.594c.328-.068.709-.132,1.038-.187a5.191,5.191,0,0,0,2.008.381,3.348,3.348,0,0,0,3.435-3.689c-.008-2.214-1.315-3.667-3.345-3.713" transform="translate(16322 14135)" fill="#1f252c"/>
    <path id="Path_145199" data-name="Path 145199" d="M1068.4,376.206h.089c2.083,0,3.054-.715,3.054-2.478a2.22,2.22,0,0,0-2.381-2.276h-1.919a.843.843,0,0,1-.919-.917c0-.389.142-.87,1.083-.87h4.2c.089-.565.134-.924.216-1.49h-4.36c-2.03,0-3.053.885-3.053,2.36a2.086,2.086,0,0,0,2.381,2.223h1.919a.925.925,0,0,1,.918.97.957.957,0,0,1-1.075,1h-.321l-6.144-.014h-1.12c-.949,0-1.613-.561-1.613-1.859v-.891c0-1.353.515-2.192,1.613-2.192h1.821c.083-.575.135-.94.209-1.483H1060.5c-1.859,0-3.143,1.3-3.188,3.558v1.008c.045,2.261,1.329,3.341,3.188,3.341h1.814l3.33.008h2.748Z" transform="translate(16322 14135)" fill="#1f252c"/>
  </g>
</svg>
