<svg xmlns="http://www.w3.org/2000/svg" xmlns:xlink="http://www.w3.org/1999/xlink" width="40.002" height="64.02" viewBox="0 0 40.002 64.02">
  <defs>
    <clipPath id="clip-path">
      <path id="Path_145245" data-name="Path 145245" d="M456.079,247.572c-.45,0-3.985,3.556-4.643,4.1-.3.253-.581.514-.892.777-1.3,1.121-2.6,2.251-3.969,3.442a1.859,1.859,0,0,0-.622,1.353V278.9a2.887,2.887,0,0,0,2.814,2.941l19.978.088a2.885,2.885,0,0,0,2.837-2.939V257.243a1.858,1.858,0,0,0-.621-1.353l-5.173-4.513-2.425-2.08a.887.887,0,0,0-.427-.2.786.786,0,0,0-.776.3,5.2,5.2,0,0,0-.7,1.312,2.029,2.029,0,0,0,.271,1.961,4.214,4.214,0,0,1,.923,2.644,3.888,3.888,0,1,1-7.774.142,4.9,4.9,0,0,1,.787-2.453,4.679,4.679,0,0,0,.767-1.494,2.653,2.653,0,0,0,.057-.263c.156-.636.185-3.635-.406-3.675Zm4.993.645c.156-.161.311-.352.467-.485l-.467-.412Z" fill="none"/>
    </clipPath>
    <linearGradient id="linear-gradient" x1="-10.185" y1="20.849" x2="-10.162" y2="20.849" gradientUnits="objectBoundingBox">
      <stop offset="0" stop-color="#00a1c0"/>
      <stop offset="1" stop-color="#00b7b2"/>
    </linearGradient>
  </defs>
  <g id="Client_34" transform="translate(-16760.395 -14379.804)">
    <g id="Group_124982" data-name="Group 124982" transform="translate(16322 14135)">
      <g id="Group_124981" data-name="Group 124981" clip-path="url(#clip-path)">
        <rect id="Rectangle_17651" data-name="Rectangle 17651" width="42.934" height="40.07" transform="translate(430.404 272.228) rotate(-58.026)" fill="url(#linear-gradient)"/>
      </g>
    </g>
    <path id="Path_145246" data-name="Path 145246" d="M475.654,250.943a.8.8,0,0,1-.795.629c-3.167-.013-4.832-1.65-6.283-3.063-.217-.223-.465-.451-.682-.675a4.045,4.045,0,0,0-4.461-1.194,4.665,4.665,0,0,0-1.891,1.1,2.723,2.723,0,0,0-.267.269,5.03,5.03,0,0,0-.4.484c-2,2.852-1.6,7.695-1.565,7.759a.79.79,0,0,1-.712.869c-.031.032-.031.032-.062.032a.789.789,0,0,1-.775-.741c-.031-.387-.867-9.573,5.268-11.316a5.422,5.422,0,0,1,5.794,1.485c.278.224.526.482.8.74,1.395,1.355,2.7,2.645,5.268,2.645a.794.794,0,0,1,.757.981" transform="translate(16322 14135)" fill="#fcbf2c"/>
    <path id="Path_145247" data-name="Path 145247" d="M456.726,276.306a9.661,9.661,0,0,1-9.3-7.842,1.25,1.25,0,0,1,.913-1.491,1.2,1.2,0,0,1,1.432.95,7.217,7.217,0,0,0,7.213,5.879,7.321,7.321,0,0,0,6.724-5.989,1.2,1.2,0,0,1,1.416-.976,1.251,1.251,0,0,1,.937,1.476,9.653,9.653,0,0,1-8.992,7.986c-.113,0-.226.007-.339.007" transform="translate(16322 14135)" fill="#fff"/>
    <path id="Path_145248" data-name="Path 145248" d="M441.842,295.152h2.047a.785.785,0,0,0,.77-.8v-2.584c0-1.874-.9-3.08-2.907-3.08a3.165,3.165,0,0,0-3.358,3.373c0,1.887.939,3.092,3.448,3.092m-.219-5.072c.862,0,1.376.562,1.376,1.9v.981a.786.786,0,0,1-.769.8h-.209c-1.337,0-1.929-.617-1.929-1.873,0-1.044.566-1.808,1.531-1.808" transform="translate(16322 14135)" fill="#178395"/>
    <path id="Path_145249" data-name="Path 145249" d="M440.568,287.844a.884.884,0,0,0,.862-.909.857.857,0,1,0-.862.909" transform="translate(16322 14135)" fill="#178395"/>
    <path id="Path_145250" data-name="Path 145250" d="M442.7,287.844a.881.881,0,0,0,.849-.909.851.851,0,1,0-.849.909" transform="translate(16322 14135)" fill="#178395"/>
    <path id="Path_145251" data-name="Path 145251" d="M451.282,297.159a.857.857,0,1,0-.862.91.875.875,0,0,0,.862-.91" transform="translate(16322 14135)" fill="#178395"/>
    <path id="Path_145252" data-name="Path 145252" d="M453.4,297.159a.851.851,0,1,0-.849.91.872.872,0,0,0,.849-.91" transform="translate(16322 14135)" fill="#178395"/>
    <path id="Path_145253" data-name="Path 145253" d="M475.876,293.119a.63.63,0,0,1-.617.64h-2.252c.039-.589.065-1.19.065-1.724a17.314,17.314,0,0,0-.253-2.914.815.815,0,0,0-.912-.685l-.063.01a.833.833,0,0,0-.685.97,17.583,17.583,0,0,1,.214,2.739c0,.414-.038,1.069-.089,1.6h-.45c-1.133,0-1.416-.374-1.416-1.485v-2.3a.811.811,0,1,0-1.62,0v2.357c0,.962-.206,1.539-.952,1.539s-.978-.549-.978-1.554v-1.807a.825.825,0,0,0-.81-.841h-.078a.825.825,0,0,0-.81.841v1.579c0,1.327-.321,1.673-1.157,1.673h-1.067a3.032,3.032,0,0,1-1.13-.214.211.211,0,0,1-.066-.348,3.36,3.36,0,0,0,1.08-2.355c0-1.165-.8-2.2-2.714-2.2a6.723,6.723,0,0,0-3.645,1.433.206.206,0,0,0-.083.146l-.112,1a.2.2,0,0,0,.139.218,6.226,6.226,0,0,1,2.289,1.653.214.214,0,0,1-.079.355,10.061,10.061,0,0,1-2.664.31h-1.517v-4.2a.68.68,0,0,0-.667-.693h-.365a.679.679,0,0,0-.666.693v4.2h-3.5v-4.2a.679.679,0,0,0-.666-.693h-.365a.68.68,0,0,0-.667.693V295.3c0,1.448-.514,1.874-1.376,1.874a3.78,3.78,0,0,1-.379-.018.672.672,0,0,0-.739.613.684.684,0,0,0,.579.764c.141.012.286.02.436.02,2.624,0,3.177-1.633,3.177-3.345v-.053h6.611a10.216,10.216,0,0,0,4.155-.789.173.173,0,0,1,.174.014,4.441,4.441,0,0,0,2.565.775H463a1.579,1.579,0,0,0,1.711-.99,1.746,1.746,0,0,0,1.827,1.109,1.912,1.912,0,0,0,1.865-1.109c.283.72.965.99,2.084.99h5.385a1.74,1.74,0,0,0,1.7-1.774v-3.633a.85.85,0,1,0-1.7,0Zm-16.661-.64a11.575,11.575,0,0,0-1.922-1.57.212.212,0,0,1-.021-.362,3.44,3.44,0,0,1,1.651-.6,1.088,1.088,0,0,1,1.222,1.124,1.9,1.9,0,0,1-.663,1.407.2.2,0,0,1-.267,0" transform="translate(16322 14135)" fill="#178395"/>
    <path id="Path_145254" data-name="Path 145254" d="M477.548,286.024a.912.912,0,1,0,.849.91.881.881,0,0,0-.849-.91" transform="translate(16322 14135)" fill="#178395"/>
    <path id="Path_145255" data-name="Path 145255" d="M475.412,287.844a.883.883,0,0,0,.862-.909.857.857,0,1,0-.862.909" transform="translate(16322 14135)" fill="#178395"/>
    <path id="Path_145256" data-name="Path 145256" d="M442.657,301.535v6.482a.654.654,0,0,1-.641.668h-.45a.654.654,0,0,1-.641-.668v-6.482a.655.655,0,0,0-.641-.667h-1.049a.655.655,0,0,1-.641-.667V300a.655.655,0,0,1,.641-.667h5.112a.655.655,0,0,1,.641.667v.2a.655.655,0,0,1-.641.667H443.3a.655.655,0,0,0-.641.667" transform="translate(16322 14135)" fill="#178395"/>
    <path id="Path_145257" data-name="Path 145257" d="M449.164,308.685a.657.657,0,0,1-.642-.7c.011-.158.026-.311.048-.46l-.014-.012a2.237,2.237,0,0,1-2.118,1.315,1.82,1.82,0,0,1-1.891-1.968c0-1.634,1.505-2.4,3.823-2.4v-.25c0-.831-.306-1.205-1.186-1.205a5.005,5.005,0,0,0-1.349.229.635.635,0,0,1-.8-.5l-.007-.032a.665.665,0,0,1,.444-.78,7.249,7.249,0,0,1,1.94-.277c2.051,0,2.664.887,2.664,2.426v2.841c0,.34,0,.713.018,1.082a.654.654,0,0,1-.64.692Zm-.794-3.063c-1.718,0-2.185.443-2.185,1.039a.773.773,0,0,0,.8.806,1.556,1.556,0,0,0,1.385-1.663Z" transform="translate(16322 14135)" fill="#178395"/>
    <path id="Path_145258" data-name="Path 145258" d="M453.136,308.823a6.462,6.462,0,0,1-.887-.058.657.657,0,0,1-.543-.717l.006-.079a.645.645,0,0,1,.755-.6,3.888,3.888,0,0,0,.722.066c.64,0,1.066-.291,1.066-.748,0-1.22-2.691-.5-2.691-2.841,0-1.218.893-2.2,2.811-2.2a5.506,5.506,0,0,1,.611.039.657.657,0,0,1,.553.7v.018a.645.645,0,0,1-.711.621,4.115,4.115,0,0,0-.532-.037c-.666,0-.972.277-.972.707,0,1.165,2.731.582,2.731,2.841,0,1.373-1.16,2.287-2.918,2.287" transform="translate(16322 14135)" fill="#178395"/>
    <path id="Path_145259" data-name="Path 145259" d="M465.187,300.772a1.054,1.054,0,0,1-1.052-1.068,1.059,1.059,0,1,1,1.052,1.068m-.852,7.245v-5.554a.655.655,0,0,1,.641-.667h.423a.655.655,0,0,1,.641.667v5.554a.655.655,0,0,1-.641.668h-.423a.655.655,0,0,1-.641-.668" transform="translate(16322 14135)" fill="#178395"/>
    <path id="Path_145260" data-name="Path 145260" d="M471.451,302.724a.642.642,0,0,1-.563.627c-.871.072-1.307.907-1.307,2.519v2.147a.654.654,0,0,1-.641.667h-.423a.654.654,0,0,1-.641-.667v-5.554a.655.655,0,0,1,.641-.667h.294a.66.66,0,0,1,.64.733c-.02.216-.048.441-.083.653h.026a2.271,2.271,0,0,1,1.2-1.407.646.646,0,0,1,.864.66Z" transform="translate(16322 14135)" fill="#178395"/>
    <path id="Path_145261" data-name="Path 145261" d="M476.542,308.685a.656.656,0,0,1-.641-.7c.01-.158.025-.311.047-.46l-.014-.012a2.237,2.237,0,0,1-2.118,1.315,1.821,1.821,0,0,1-1.891-1.968c0-1.634,1.505-2.4,3.823-2.4v-.25c0-.831-.307-1.205-1.186-1.205a5,5,0,0,0-1.349.229.635.635,0,0,1-.8-.5l-.007-.032a.664.664,0,0,1,.444-.78,7.249,7.249,0,0,1,1.94-.277c2.051,0,2.664.887,2.664,2.426v2.841c0,.34.005.713.018,1.082a.654.654,0,0,1-.64.692Zm-.794-3.063c-1.719,0-2.185.443-2.185,1.039a.772.772,0,0,0,.8.806,1.556,1.556,0,0,0,1.385-1.663Z" transform="translate(16322 14135)" fill="#178395"/>
    <path id="Path_145262" data-name="Path 145262" d="M461.982,308.685a.656.656,0,0,1-.641-.7c.01-.158.025-.311.047-.46l-.014-.012a2.237,2.237,0,0,1-2.118,1.315,1.821,1.821,0,0,1-1.891-1.968c0-1.634,1.505-2.4,3.823-2.4v-.25c0-.831-.307-1.205-1.186-1.205a5.005,5.005,0,0,0-1.349.229.635.635,0,0,1-.8-.5l-.007-.032a.665.665,0,0,1,.444-.78,7.249,7.249,0,0,1,1.94-.277c2.051,0,2.664.887,2.664,2.426v2.841c0,.34.005.713.018,1.082a.654.654,0,0,1-.64.692Zm-.794-3.063c-1.718,0-2.185.443-2.185,1.039a.773.773,0,0,0,.8.806,1.556,1.556,0,0,0,1.385-1.663Z" transform="translate(16322 14135)" fill="#178395"/>
  </g>
</svg>
