<svg xmlns="http://www.w3.org/2000/svg" width="64" height="68.526" viewBox="0 0 64 68.526">
  <g id="Client_66" transform="translate(-17181.9 -14690.963)">
    <path id="Path_144901" data-name="Path 144901" d="M895.6,564.848l-2.408,4.653s3.9.087,4.495-.764Z" transform="translate(16322 14135)" fill="#6bbc55"/>
    <path id="Path_144902" data-name="Path 144902" d="M887.713,564.848H895.6l-2.408,4.653-2.983.022Z" transform="translate(16322 14135)" fill="#3d9648"/>
    <path id="Path_144903" data-name="Path 144903" d="M879.767,564.848h7.946l-2.274,4.653h-3.12Z" transform="translate(16322 14135)" fill="#4db55a"/>
    <path id="Path_144904" data-name="Path 144904" d="M885.439,569.5l2.274-4.652,2.521,4.673" transform="translate(16322 14135)" fill="#a9ce4d"/>
    <path id="Path_144905" data-name="Path 144905" d="M882.261,569.5H881.13a6.643,6.643,0,0,0,1.713,2.379h-5.269a7.731,7.731,0,0,1-.575-1.941l2.768-5.089,2.552,4.651Z" transform="translate(16322 14135)" fill="#69bc58"/>
    <path id="Path_144906" data-name="Path 144906" d="M879.767,564.848H876.86s-.459,1.5.139,5.091Z" transform="translate(16322 14135)" fill="#2d9f49"/>
    <path id="Path_144907" data-name="Path 144907" d="M879.433,564.848s3.365-5.083,4.469-6.718c.143-.211.347-.464.61-.838a9.325,9.325,0,0,0,.652-1.09s-6.21,1.174-8.3,8.646Z" transform="translate(16322 14135)" fill="#f27954"/>
    <path id="Path_144908" data-name="Path 144908" d="M879.433,564.848s1.612-2.61,2.169-3.468c.52-.8,2.138-3.15,2.138-3.15l1.424,2.625s-2.335.565-4.153,3.993Z" transform="translate(16322 14135)" fill="#f06732"/>
    <path id="Path_144909" data-name="Path 144909" d="M885.164,560.854a8.788,8.788,0,0,1,4.492,0l1.6-3.155-7.06-.081-.456.611s1.3,2.4,1.424,2.625" transform="translate(16322 14135)" fill="#eb7434"/>
    <path id="Path_144910" data-name="Path 144910" d="M884.2,557.617l.968-1.416a10.148,10.148,0,0,1,6.493.705l-.4.792Z" transform="translate(16322 14135)" fill="#ef6335"/>
    <path id="Path_144911" data-name="Path 144911" d="M889.656,560.854a7.014,7.014,0,0,1,4.06,3.994h1.392l1.986-2.559a11.654,11.654,0,0,0-5.437-5.382Z" transform="translate(16322 14135)" fill="#e58a41"/>
    <path id="Path_144912" data-name="Path 144912" d="M895.108,564.848h2.8s-.123-.605-.316-1.259a9.984,9.984,0,0,0-.5-1.3Z" transform="translate(16322 14135)" fill="#ef5d34"/>
    <path id="Path_144913" data-name="Path 144913" d="M895.6,564.848l2.087,3.889s.9-1.047.218-3.889Z" transform="translate(16322 14135)" fill="#47b55c"/>
    <path id="Path_144914" data-name="Path 144914" d="M882.843,571.879a11.721,11.721,0,0,0,.9.924l-2.175,3.937a12.735,12.735,0,0,1-3.991-4.861Z" transform="translate(16322 14135)" fill="#4bb55c"/>
    <path id="Path_144915" data-name="Path 144915" d="M883.74,572.8a5.043,5.043,0,0,0,.914.543l2.762,5a8.472,8.472,0,0,1-5.851-1.607Z" transform="translate(16322 14135)" fill="#aed04f"/>
    <path id="Path_144916" data-name="Path 144916" d="M884.654,573.346a6.791,6.791,0,0,0,7-1.222s-3.016,6.518-3.734,7.31h-.508v-1.086Z" transform="translate(16322 14135)" fill="#38984d"/>
    <path id="Path_144917" data-name="Path 144917" d="M891.657,572.125a9.518,9.518,0,0,1,6.721-2.082l1.261,2.082-1.2,2.24a5.7,5.7,0,0,0-4.589,1.584Z" transform="translate(16322 14135)" fill="#47b55b"/>
    <path id="Path_144918" data-name="Path 144918" d="M898.378,570.043a10.822,10.822,0,0,1,2.175.249l-.914,1.833" transform="translate(16322 14135)" fill="#4cb666"/>
    <path id="Path_144919" data-name="Path 144919" d="M893.854,575.949a7.307,7.307,0,0,0-2.088,3.485h-4.35l4.241-7.308Z" transform="translate(16322 14135)" fill="#69bc58"/>
    <path id="Path_144920" data-name="Path 144920" d="M900.554,570.292a11.939,11.939,0,0,1,3.7,1.646l-4.618.187Z" transform="translate(16322 14135)" fill="#acd04f"/>
    <path id="Path_144921" data-name="Path 144921" d="M898.444,574.364s2.175.137,3.059,1.012l-1.863-3.251Z" transform="translate(16322 14135)" fill="#9dcb4d"/>
    <path id="Path_144922" data-name="Path 144922" d="M899.64,572.123l4.618-.187a13.859,13.859,0,0,1,2.088,2.325l-2.269,4.33a7.64,7.64,0,0,0-2.573-3.216Z" transform="translate(16322 14135)" fill="#359948"/>
    <path id="Path_144923" data-name="Path 144923" d="M904.077,578.589s.152.656.181.867l4.517-.021a17.212,17.212,0,0,0-2.429-5.176Z" transform="translate(16322 14135)" fill="#69bc55"/>
    <path id="Path_144924" data-name="Path 144924" d="M908.776,579.434s.413,4.379-1.24,6.959l-3.11-4.889a8.407,8.407,0,0,0-.167-2.058Z" transform="translate(16322 14135)" fill="#06b0ce"/>
    <path id="Path_144925" data-name="Path 144925" d="M904.425,581.494a7.393,7.393,0,0,1-2.458,5.093l5.568-.194-.261-.421Z" transform="translate(16322 14135)" fill="#2a8ac9"/>
    <path id="Path_144926" data-name="Path 144926" d="M901.968,586.586a5.832,5.832,0,0,1-2.045,1.019l2.306,3.8s2.937-1.029,5.307-5.011Z" transform="translate(16322 14135)" fill="#05b8c2"/>
    <path id="Path_144927" data-name="Path 144927" d="M899.923,587.6a5.228,5.228,0,0,1-1.036.182l-2.379,4.479a9.253,9.253,0,0,0,5.72-.858Z" transform="translate(16322 14135)" fill="#248ccb"/>
    <path id="Path_144928" data-name="Path 144928" d="M898.886,587.785s-3.7.158-4.793-1.2h-2.436l2.652,5.056a8.972,8.972,0,0,0,2.2.623Z" transform="translate(16322 14135)" fill="#86c5e8"/>
    <path id="Path_144929" data-name="Path 144929" d="M894.094,586.586s-.333-.158-1.284-1.525l-1.152,1.525Z" transform="translate(16322 14135)" fill="#1b6c95"/>
    <path id="Path_144930" data-name="Path 144930" d="M892.809,585.059a7.5,7.5,0,0,1-1.043-5.625h-4.351l4.242,7.151Z" transform="translate(16322 14135)" fill="#06b0ce"/>
    <path id="Path_144931" data-name="Path 144931" d="M887.416,579.434v7.151h4.241Z" transform="translate(16322 14135)" fill="#278dc7"/>
    <path id="Path_144932" data-name="Path 144932" d="M887.416,586.586s-.087,3.938-.734,5.281l1.1,2.188,4.085-7.062-.214-.407Z" transform="translate(16322 14135)" fill="#05b2cd"/>
    <path id="Path_144933" data-name="Path 144933" d="M887.786,594.053h3.871v-3.508s1.838.811,2.651,1.1l-2.438-4.652Z" transform="translate(16322 14135)" fill="#1b6c95"/>
    <path id="Path_144934" data-name="Path 144934" d="M891.657,594.053v7.062l-4.133-7.062Z" transform="translate(16322 14135)" fill="#73277a"/>
    <path id="Path_144935" data-name="Path 144935" d="M891.657,601.272v3.306a2.422,2.422,0,0,1-2.229,2.035c-1.817.02-2.071-1.211-2.23-2.354v-3.143h4.459Z" transform="translate(16322 14135)" fill="#732575"/>
    <path id="Path_144936" data-name="Path 144936" d="M887.2,601.114v-3.8a15.647,15.647,0,0,1-2,1.088l2.326-4.347,4.133,7.061Z" transform="translate(16322 14135)" fill="#a05ba2"/>
    <path id="Path_144937" data-name="Path 144937" d="M887.525,594.053H884.2a7.242,7.242,0,0,0,2.485-2.187l1.1,2.187Z" transform="translate(16322 14135)" fill="#2983c5"/>
    <path id="Path_144938" data-name="Path 144938" d="M884.2,594.053a14.582,14.582,0,0,1-4.725.7l2.917,4.511a12.571,12.571,0,0,0,2.815-.86l2.321-4.355Z" transform="translate(16322 14135)" fill="#943f95"/>
    <path id="Path_144939" data-name="Path 144939" d="M879.466,594.749a1.6,1.6,0,0,1-.4-.017l-2.11,4.03s1.512.8,5.435.507Z" transform="translate(16322 14135)" fill="#832680"/>
    <path id="Path_144940" data-name="Path 144940" d="M879.064,594.732a5.144,5.144,0,0,1-1.68-.883h-5.808s.865,2.65,5.378,4.911Z" transform="translate(16322 14135)" fill="#6b2977"/>
    <path id="Path_144941" data-name="Path 144941" d="M871.576,593.849a9.346,9.346,0,0,1-1.452-4.66v-2.717h4.459v3.168a25.983,25.983,0,0,1-2.328,4.209Z" transform="translate(16322 14135)" fill="#13aeca"/>
    <path id="Path_144942" data-name="Path 144942" d="M874.583,589.64a6.591,6.591,0,0,0,2.8,4.209h-5.128s.624-1.032,2.328-4.209" transform="translate(16322 14135)" fill="#226b8f"/>
    <path id="Path_144943" data-name="Path 144943" d="M870.124,586.472v-4.027l1.827-3.011,2.632,4.595v2.443Z" transform="translate(16322 14135)" fill="#228fc8"/>
    <path id="Path_144944" data-name="Path 144944" d="M871.951,579.434h-1.827v3.011Z" transform="translate(16322 14135)" fill="#80cff3"/>
    <path id="Path_144945" data-name="Path 144945" d="M871.951,579.434h2.632v4.6Z" transform="translate(16322 14135)" fill="#00b8cb"/>
    <path id="Path_144946" data-name="Path 144946" d="M874.583,579.434a2.173,2.173,0,0,0-1.457-2.127l-1.175,2.127Z" transform="translate(16322 14135)" fill="#67bb5a"/>
    <path id="Path_144947" data-name="Path 144947" d="M873.126,577.307a2.452,2.452,0,0,0-2.219.34l1.044,1.787" transform="translate(16322 14135)" fill="#3ba148"/>
    <path id="Path_144948" data-name="Path 144948" d="M870.907,577.646a2.7,2.7,0,0,0-.783,1.788h1.827Z" transform="translate(16322 14135)" fill="#aacf60"/>
    <path id="Path_144949" data-name="Path 144949" d="M881.855,583.4a5,5,0,0,0-5.54,3.185h7.425Z" transform="translate(16322 14135)" fill="#256891"/>
    <path id="Path_144950" data-name="Path 144950" d="M881.855,583.4a3.9,3.9,0,0,1,2.635,1.9l-4,7.631a2.708,2.708,0,0,1-1.428-.239l-2.894-5.09a5.278,5.278,0,0,1,.145-1.017h7.425Z" transform="translate(16322 14135)" fill="#85c5e6"/>
    <path id="Path_144951" data-name="Path 144951" d="M876.171,587.6a5.43,5.43,0,0,0,2.893,5.09Z" transform="translate(16322 14135)" fill="#256891"/>
    <path id="Path_144952" data-name="Path 144952" d="M884.49,585.3l-4,7.631a4.922,4.922,0,0,0,3-.962,4.82,4.82,0,0,0,1-6.669" transform="translate(16322 14135)" fill="#1d8fc8"/>
    <path id="Path_144953" data-name="Path 144953" d="M902.228,579.434a4.415,4.415,0,0,0-4.872-3.078l-1.479,3.078Z" transform="translate(16322 14135)" fill="#acd04b"/>
    <path id="Path_144954" data-name="Path 144954" d="M897.356,576.356a4.768,4.768,0,0,0-3.828,3.078h2.349Z" transform="translate(16322 14135)" fill="#45b349"/>
    <path id="Path_144955" data-name="Path 144955" d="M893.528,579.434a4.686,4.686,0,0,0,.326,3.969l2.023-3.969Z" transform="translate(16322 14135)" fill="#12b0c9"/>
    <path id="Path_144956" data-name="Path 144956" d="M895.877,579.434l3.491,6.359s-3.81.792-5.514-2.39Z" transform="translate(16322 14135)" fill="#1b6c95"/>
    <path id="Path_144957" data-name="Path 144957" d="M902.228,579.434a5.581,5.581,0,0,1,.261,2.3l-1.936,3.225a5.231,5.231,0,0,1-1.185.837l-3.491-6.359Z" transform="translate(16322 14135)" fill="#89c3e5"/>
    <path id="Path_144958" data-name="Path 144958" d="M902.489,581.731a5,5,0,0,1-1.936,3.227Z" transform="translate(16322 14135)" fill="#236a8f"/>
    <path id="Path_144959" data-name="Path 144959" d="M891.657,601.114l-2.229,5.5a2.407,2.407,0,0,0,2.229-2.035v-3.463" transform="translate(16322 14135)" fill="#943f95"/>
    <path id="Path_144960" data-name="Path 144960" d="M899.64,572.125h-7.982a9.44,9.44,0,0,1,6.721-2.081Z" transform="translate(16322 14135)" fill="#69bc58"/>
    <path id="Path_144961" data-name="Path 144961" d="M895.22,564.705l-3.563-7.8s3.954,1.833,5.438,5.382Z" transform="translate(16322 14135)" fill="#eb7434"/>
    <path id="Path_144962" data-name="Path 144962" d="M879.433,564.848c-.065-.093-1.832-2.06-1.832-2.06a10.877,10.877,0,0,0-.742,2.06Z" transform="translate(16322 14135)" fill="#eb7434"/>
    <path id="Path_144963" data-name="Path 144963" d="M865.144,613.823H862.16a1.822,1.822,0,0,1-1.649-2c0-1.109.5-1.5.995-1.5h.3a1.633,1.633,0,0,0-.62,1.334c0,.49.2,1.4.986,1.4h2.783c.41,0,.637-.19.663-.682v-1.651h.236c.393,0,.515.172.515.608v.736c0,.862-.262,1.687-1.222,1.752m-1.971.989a.43.43,0,0,1,.427-.437.437.437,0,0,1,0,.874.43.43,0,0,1-.427-.437m4.658-2.47c0,.509.236.718.664.718h.113v.763h-.3a1.268,1.268,0,0,1-1.222-1.445v-4.03h.236c.392,0,.514.173.514.61Zm2.217.082a.585.585,0,0,0,.663.636h.2v.763h-.392a1.226,1.226,0,0,1-.847-.346,1.239,1.239,0,0,1-.846.346h-.392v-.763h.2c.41,0,.637-.19.663-.682v-1.651h.236c.392,0,.515.172.515.608Zm-.89,2.388a.431.431,0,0,1,.427-.437.437.437,0,0,1,0,.874.43.43,0,0,1-.427-.437m1.622-1.752h.978v-2.8h.235c.393,0,.515.172.515.609v2.187h.785c.41,0,.637-.19.663-.682v-2.114h.236c.392,0,.515.172.515.609,0,0,0,1.587.008,1.606a2.157,2.157,0,0,1-.052.372,1.491,1.491,0,0,0,.785.236c.532,0,.681-.291.7-.709v-2.114h.236c.392,0,.514.172.514.609v1.551a.586.586,0,0,0,.664.636h.2v.763h-.392a1.386,1.386,0,0,1-.9-.381,1.144,1.144,0,0,1-.89.381,1.823,1.823,0,0,1-1.265-.346,1.135,1.135,0,0,1-.829.346h-2.7Zm2.574-4.167a.429.429,0,0,1,.428-.435.436.436,0,0,1,0,.872.431.431,0,0,1-.428-.437m.48-.935a.428.428,0,1,1,.436.436.431.431,0,0,1-.436-.436m.515.935a.428.428,0,1,1,.436.437.431.431,0,0,1-.436-.437m4.894,3.531a.586.586,0,0,0,.663.636h.2v.763h-.392a1.226,1.226,0,0,1-.847-.346,1.239,1.239,0,0,1-.846.346h-.393v-.763h.2c.41,0,.637-.19.663-.682v-4.03h.236c.392,0,.514.173.514.61Zm1.17,1.4h-.48v-.763h.288c.41,0,.637-.19.663-.682v-4.019h.235c.393,0,.515.172.515.606v3.106c0,.862-.262,1.687-1.221,1.752m8.41,0h-1.71c-1.073,0-2.652-.228-2.652-1.869,0-1.237.645-1.99,1.658-1.99a1.653,1.653,0,0,1,1.6,1.853v1.243h1.1Zm-2.783-3.158c-.532,0-.881.453-.881,1.161,0,1.126.82,1.234,1.884,1.234,0-1.325.07-2.4-1-2.4m-.846-1.752a.43.43,0,0,1,.427-.438.436.436,0,0,1,0,.872.428.428,0,0,1-.427-.434m1.082,0a.428.428,0,1,1,.436.434.432.432,0,0,1-.436-.434m3.943,3.511a.586.586,0,0,0,.663.636h.2v.763h-.393a1.224,1.224,0,0,1-.846-.346,1.243,1.243,0,0,1-.846.346H888.6v-.763h.2c.41,0,.637-.19.663-.682v-1.651h.235c.393,0,.515.172.515.608Zm-.89,2.388a.431.431,0,0,1,.428-.437.437.437,0,0,1,0,.874.431.431,0,0,1-.428-.437m5.7-1.752h.628v.763h-4.747v-.763h3.351c-.044-.809-.419-2.314-1.579-2.314a1.426,1.426,0,0,0-1.283.572V611c0-.517.384-1.035,1.44-1.035,1.6,0,2.1,1.625,2.19,3.1m-2.592-4.193a.4.4,0,0,1,.41-.428.428.428,0,0,1,.428.428.443.443,0,0,1-.428.444.417.417,0,0,1-.41-.444m4.659,3.557a.586.586,0,0,0,.663.636h.2v.763h-.393a1.226,1.226,0,0,1-.846-.346,1.239,1.239,0,0,1-.846.346h-.393v-.763h.2c.41,0,.637-.19.663-.682v-1.651h.236c.392,0,.514.172.514.608Zm-.82-2.623a.428.428,0,1,1,.436.437.431.431,0,0,1-.436-.437m1.989,4.022h-.479v-.763h.287c.411,0,.637-.19.664-.682v-4.019h.235c.393,0,.515.172.515.606v3.106c0,.862-.262,1.687-1.222,1.752m2.566,0c-.28,0-.472-.163-.472-.544v-4.931h.349a.388.388,0,0,1,.384.372v5.1Zm8.323-.763v.763h-.1a1.3,1.3,0,0,1-.846-.254,1.2,1.2,0,0,1-.847.254h-.61c-.89,0-1.641.435-1.641.989,0,1.252.777,1.3,1.44,1.3a1.481,1.481,0,0,0,1.117-.392v.32c0,.281-.323.789-1.248.789a1.841,1.841,0,0,1-2.059-1.9c0-1.514,1.248-1.906,2.487-1.906a6.647,6.647,0,0,1,.724.037c-.044-.809-.419-2.314-1.579-2.314a1.426,1.426,0,0,0-1.283.572V611c0-.517.384-1.035,1.44-1.035,1.439,0,1.989,1.318,2.163,2.66a.6.6,0,0,0,.637.436Zm-2.932,1.869a.4.4,0,0,1,.411-.426.427.427,0,0,1,.427.426.443.443,0,0,1-.427.445.418.418,0,0,1-.411-.445m7.024-3.1c0,1.253-.629,2.006-1.6,2.006a1.569,1.569,0,0,1-1.23-.572,1.471,1.471,0,0,1-1.317.565.215.215,0,0,1-.07-.01H908.8v-.763h.288c.768,0,.9-.3.9-1.081,0-1.233.646-1.986,1.658-1.986a1.648,1.648,0,0,1,1.6,1.841m-.707.136c0-.815-.34-1.243-.96-1.243-.523,0-.863.428-.863,1.125,0,.764.357,1.253.994,1.253.532,0,.829-.472.829-1.135m2.05,1.853c-.279,0-.471-.163-.471-.544v-4.931h.349a.389.389,0,0,1,.384.372v5.1Zm2.05-.028a.216.216,0,0,0-.018.074v.4a1.133,1.133,0,0,1-1.143,1.152c-.357,0-.6-.154-.6-.417v-.209a1.659,1.659,0,0,0,.21.019c.951,0,.837-.6.837-1.789v-2.306h.236c.392,0,.515.173.515.61v1.651a.8.8,0,0,0,.392.082h.463v.763h-.655a.934.934,0,0,1-.235-.028m1.413.028h-.741v-.763h.549c.41,0,.637-.19.663-.682v-1.651h.236c.392,0,.514.172.514.608v.736c0,.862-.261,1.687-1.221,1.752m-.157.989a.431.431,0,0,1,.427-.437.437.437,0,0,1,0,.874.43.43,0,0,1-.427-.437" transform="translate(16322 14135)" fill="#001527"/>
    <text id="Elite_Youth_Programs" data-name="Elite Youth Programs" transform="translate(17181.9 14757.489)" fill="#001527" font-size="7.04" font-family="SegoeUI, Segoe UI"><tspan x="0" y="0">Elite</tspan><tspan y="0" letter-spacing="-0.022em"> </tspan><tspan y="0" letter-spacing="-0.079em">Y</tspan><tspan y="0">outh </tspan><tspan y="0" letter-spacing="-0.006em">P</tspan><tspan y="0" letter-spacing="-0.012em">r</tspan><tspan y="0">og</tspan><tspan y="0" letter-spacing="-0.019em">r</tspan><tspan y="0">ams</tspan></text>
  </g>
</svg>
