<svg xmlns="http://www.w3.org/2000/svg" xmlns:xlink="http://www.w3.org/1999/xlink" width="59.682" height="52.641" viewBox="0 0 59.682 52.641">
  <defs>
    <clipPath id="clip-path">
      <path id="Path_140648" data-name="Path 140648" d="M1437.682,692.415c.011,1.685.883,2.075.883,2.075l-.086,4.145h.8l-.086-4.145s.873-.39.882-2.075-.767-2.542-1.2-2.552c-.431.01-1.208.867-1.2,2.552" fill="none"/>
    </clipPath>
    <clipPath id="clip-path-2">
      <path id="Path_140651" data-name="Path 140651" d="M1429.052,701.285a22.832,22.832,0,0,0-.239,3.557c-.025.186.618.554.618.554l-.049,1.5h.829v-6.155a11.828,11.828,0,0,0-.064-1.6c-.795.276-1.095,2.148-1.095,2.148" fill="none"/>
    </clipPath>
    <clipPath id="clip-path-3">
      <path id="Path_140654" data-name="Path 140654" d="M1429.4,689.863a.047.047,0,0,0-.047.047l-.083,2.911a.111.111,0,0,1-.122.119c-.177,0-.153-.119-.153-.119l-.014-2.911a.047.047,0,0,0-.048-.047c-.033,0-.035.047-.035.047s-.17,2.181-.17,2.911c0,0-.049,1-.027,1.084a.4.4,0,0,0,.154.306,3.558,3.558,0,0,0,.5.365l-.118,4.059h.836l-.117-4.059a3.622,3.622,0,0,0,.5-.365.4.4,0,0,0,.153-.306c.022-.081-.026-1.084-.026-1.084,0-.73-.171-2.911-.171-2.911s0-.042-.034-.047h-.01c-.038,0-.038.047-.038.047l-.015,2.911s.024.119-.154.119a.112.112,0,0,1-.121-.119l-.082-2.911s0-.047-.035-.047h0a.047.047,0,0,0-.049.047l-.075,2.911s.025.119-.153.119a.112.112,0,0,1-.122-.119l-.082-2.911s0-.047-.036-.047h0" fill="none"/>
    </clipPath>
  </defs>
  <g id="Client_86" transform="translate(-17707.678 -14816.751)">
    <path id="Path_140622" data-name="Path 140622" d="M1442.01,697.623a5.766,5.766,0,0,0,2.35-4.676,5.6,5.6,0,0,0-5.478-5.7,5.3,5.3,0,0,0-2.866.846,20.9,20.9,0,0,0,.565-3.877l0-.035a2.334,2.334,0,1,0-4.664,0v.036a21.056,21.056,0,0,0,.562,3.85,5.292,5.292,0,0,0-2.828-.82,5.6,5.6,0,0,0-5.481,5.7,5.76,5.76,0,0,0,2.387,4.7,5.765,5.765,0,0,0-2.387,4.7,5.6,5.6,0,0,0,5.481,5.7,5.375,5.375,0,0,1,9.136-.037,5.637,5.637,0,0,0,5.513-5.741,5.81,5.81,0,0,0-2.292-4.653" transform="translate(16322 14135)" fill="#f5a800"/>
    <path id="Path_140623" data-name="Path 140623" d="M1435.312,684.177a1.061,1.061,0,1,0-2.121,0,20.951,20.951,0,0,0,1,5.287.064.064,0,0,0,.123,0,20.951,20.951,0,0,0,1-5.287Z" transform="translate(16322 14135)" fill="#602651"/>
    <path id="Path_140624" data-name="Path 140624" d="M1433.863,692.947a4.213,4.213,0,1,1-4.21-4.379,4.3,4.3,0,0,1,4.21,4.379" transform="translate(16322 14135)" fill="#602651"/>
    <path id="Path_140625" data-name="Path 140625" d="M1433.863,702.349a4.213,4.213,0,1,1-4.21-4.377,4.3,4.3,0,0,1,4.21,4.377" transform="translate(16322 14135)" fill="#602651"/>
    <path id="Path_140626" data-name="Path 140626" d="M1443.09,692.947a4.212,4.212,0,1,1-4.208-4.379,4.3,4.3,0,0,1,4.208,4.379" transform="translate(16322 14135)" fill="#602651"/>
    <path id="Path_140627" data-name="Path 140627" d="M1438.789,706.853a4.58,4.58,0,1,1,4.4-4.576,4.5,4.5,0,0,1-4.4,4.576m0-8.833a4.26,4.26,0,1,0,4.088,4.257,4.182,4.182,0,0,0-4.088-4.257" transform="translate(16322 14135)" fill="#f5a800"/>
    <path id="Path_140628" data-name="Path 140628" d="M1443.032,702.276a4.248,4.248,0,1,1-4.243-4.416,4.334,4.334,0,0,1,4.243,4.416" transform="translate(16322 14135)" fill="#602651"/>
    <path id="Path_140629" data-name="Path 140629" d="M1428.555,688.129c.127.183.239.361.347.552a3.043,3.043,0,0,1,.146.292.619.619,0,0,1,.073.317.533.533,0,0,0-.2-.217c-.078-.057-.162-.112-.247-.164-.17-.1-.35-.194-.524-.274Z" transform="translate(16322 14135)" fill="#f5a800"/>
    <path id="Path_140630" data-name="Path 140630" d="M1437.828,688.129c.127.183.239.361.346.552a2.838,2.838,0,0,1,.147.292.62.62,0,0,1,.073.317.54.54,0,0,0-.2-.217c-.079-.057-.162-.112-.248-.164-.169-.1-.349-.194-.523-.274Z" transform="translate(16322 14135)" fill="#f5a800"/>
    <path id="Path_140631" data-name="Path 140631" d="M1428.555,697.539c.127.183.239.361.347.552a3.05,3.05,0,0,1,.146.292.622.622,0,0,1,.073.318.535.535,0,0,0-.2-.218c-.078-.057-.162-.112-.247-.163-.17-.1-.35-.2-.524-.275Z" transform="translate(16322 14135)" fill="#f5a800"/>
    <path id="Path_140632" data-name="Path 140632" d="M1437.689,697.447c.127.183.239.361.346.552a2.844,2.844,0,0,1,.147.292.619.619,0,0,1,.073.317.546.546,0,0,0-.2-.217c-.079-.057-.162-.112-.247-.163-.17-.1-.35-.2-.524-.275Z" transform="translate(16322 14135)" fill="#f5a800"/>
    <path id="Path_140633" data-name="Path 140633" d="M1423.489,702.669c5.479-.186,3.847,4.714,3.847,4.714l-.178.612-3.544-2.086Z" transform="translate(16322 14135)" fill="#f5a800"/>
    <path id="Path_140634" data-name="Path 140634" d="M1417.752,705.531l0,0,0,0" transform="translate(16322 14135)" fill="#79242f"/>
    <path id="Path_140635" data-name="Path 140635" d="M1393.674,704.5l-.2-.014h-2.131v-4.7l.794-.645.038-.026a1.775,1.775,0,0,1,.968-.312,1.4,1.4,0,0,1,.412.059c.02-.2.039-.411.056-.625l-.137.011a1.5,1.5,0,0,1-.153.008,1.6,1.6,0,0,1-1.335-.675,2.243,2.243,0,0,1-.248-1.837l.1-.332.181-.629h.953c.106,0,.515-.01.989-.02l.564-.016c1.345-.034,2.661-.067,3.167-.067.176,0,.242,0,.264.006a1.45,1.45,0,0,1,1.152.754,1.859,1.859,0,0,1-.029,1.694l-.39.81c.031.017.062.033.092.051a2.428,2.428,0,0,1,.858-.454,1.958,1.958,0,0,1,.544-.076,1.854,1.854,0,0,1,1.719,1.214l.005.012a3.424,3.424,0,0,1,.166,1.429,1.538,1.538,0,0,1,.22.163l.13.12.232.215.066.485a2.491,2.491,0,0,1-.517,1.777,2.619,2.619,0,0,1-2.175,1.3,2.321,2.321,0,0,1-1.094-.283,2.6,2.6,0,0,1-.573.069l-.074,0a1.953,1.953,0,0,1-1.093-.349l-.163.085a2.057,2.057,0,0,1-.819.233l-.142,0h-.031a1.693,1.693,0,0,1-.527-.1l-.3-.113a2.419,2.419,0,0,1-1.22.732Z" transform="translate(16322 14135)" fill="#f5a800"/>
    <path id="Path_140636" data-name="Path 140636" d="M1439.63,722.449a1.924,1.924,0,0,1-.31-.022,5.645,5.645,0,0,1-1.981-.62,2.458,2.458,0,0,1-1.231-1.881,2.49,2.49,0,0,1,.753-2.073,2.465,2.465,0,0,1,.255-.208,2.6,2.6,0,0,1-1.577-1l-.009-.013a3.274,3.274,0,0,1-1.737.958,2.973,2.973,0,0,1-.655.077,2.522,2.522,0,0,1-1.991-.961c-.03-.038-.059-.076-.088-.116a4.2,4.2,0,0,1-3.113,1.545c-.123,0-.211-.005-.26-.01a3.576,3.576,0,0,1-2.515-1.328q-.045-.057-.087-.114a5.141,5.141,0,0,1-3.786,2.231c-.061,0-.123,0-.184-.007a3.243,3.243,0,0,1-2.757-2.575,3.709,3.709,0,0,1-2.171,1.381,3.161,3.161,0,0,1-.581.053,2.818,2.818,0,0,1-1.555-.448,2.923,2.923,0,0,1-1.511.435,2.839,2.839,0,0,1-1.861-.711,2.742,2.742,0,0,1-.635-.8,3.781,3.781,0,0,1-1.789,1.348,3.113,3.113,0,0,1-.98.163,2.972,2.972,0,0,1-1.59-.463,3.5,3.5,0,0,1-.983.339,3.7,3.7,0,0,1-.681.06,3.043,3.043,0,0,1-1.466-.36,3.5,3.5,0,0,1-1.095.33,4.289,4.289,0,0,1-.5.031,3.143,3.143,0,0,1-1.344-.291c-.12.1-.219.166-.285.21l-.09.056a4.165,4.165,0,0,1-1.983.543,3.3,3.3,0,0,1-2.47-1.111,4.1,4.1,0,0,1-.545-.745c-1.294,2.237-2.612,2.622-3.052,2.689l-.168.017-.53-.009-.051-.006a12.632,12.632,0,0,1-3.97-1.511l-.369-.221-.426-.254V715.7l.081-.26c.6-1.842,1.741-2.116,2.368-2.116a2.493,2.493,0,0,1,1.469.519,5.572,5.572,0,0,1,.6.5l.024.019c.128.117.267.242.437.386a13.335,13.335,0,0,0,.572-1.71,2.768,2.768,0,0,1-.717.1,2.309,2.309,0,0,1-1.263-.364c-.967-.621-1.345-2.03-1.157-4.308a20.4,20.4,0,0,1,.325-2.261,3.984,3.984,0,0,1-.77.083,1.874,1.874,0,0,1-1.428-.552l-.3-.318-.1-.446a2.4,2.4,0,0,1,.4-2.023,3.434,3.434,0,0,1,2.92-1.05,2.087,2.087,0,0,0,.484-.04l.05-.016.133-.027,1.547-.025.079.014a2.329,2.329,0,0,1,1.593,1.073,2.505,2.505,0,0,1,.343.936,2.72,2.72,0,0,1,3.635,1.067l.181.368-.014.417a15.089,15.089,0,0,1-.183,1.67,3.111,3.111,0,0,1,.576-.056,2.339,2.339,0,0,1,.515.051l.014,0a2.55,2.55,0,0,1,.3.09c.445-2.246.957-4.066.963-4.086l.17-.609.525-.328a1.943,1.943,0,0,1,1.027-.28,2.717,2.717,0,0,1,2,.938c.054.058.106.119.155.182a2.356,2.356,0,0,1,.2-.171l.046-.033.267-.146.054-.019a2.366,2.366,0,0,1,.846-.157,2.2,2.2,0,0,1,1.614.711,5.532,5.532,0,0,1,.992,3.585l0,.045q-.03.371-.073.728a2.11,2.11,0,0,1,.8-.311,3.4,3.4,0,0,1,.547-.045,2.751,2.751,0,0,1,1.928.761l.174-.1a3.731,3.731,0,0,1,1.9-.6,2.209,2.209,0,0,1,1.533.566l.232.223a2.733,2.733,0,0,1,.9-.156,2.4,2.4,0,0,1,.419.036,2.477,2.477,0,0,1,2.04-1.109h.882c.019-.121.038-.239.058-.359a8.042,8.042,0,0,1-1.284.13h-1.239l-.317-1.35a3.218,3.218,0,0,1,.332-2.028l.015-.025.339-.576.628-.162a43.181,43.181,0,0,1,4.318-.5l.091-.005c.3-.013.571-.019.844-.019,2.209,0,3.586.421,4.463,1.365a4.5,4.5,0,0,1,.861,3.763,2.644,2.644,0,0,1,1.6.133,2.4,2.4,0,0,1,2.49-.461l.683.281.231.713a3.359,3.359,0,0,1,.126.589c.1-.018.191-.031.273-.045a2.556,2.556,0,0,1,2.279-1.4,2.746,2.746,0,0,1,.842.132l.56.2.293.519a3.607,3.607,0,0,1,.379,1.131,2.837,2.837,0,0,1,.835.005c.039-.139.069-.234.084-.283l.248-.781,2.166-.562.111,0a2.043,2.043,0,0,1,1.891,1.184l.062.149a2.7,2.7,0,0,1,.518-.054,2.194,2.194,0,0,1,1.662.732l.362.416.03.572c.048.839-.462,4.322-.619,5.37l-.006.033c-1.18,6.281-4.456,6.6-5.1,6.6m-.681-5a2.1,2.1,0,0,1,.843.733c.058-.146.122-.329.189-.555a2.623,2.623,0,0,1-.72-.324c-.11.057-.214.106-.312.146" transform="translate(16322 14135)" fill="#f5a800"/>
    <path id="Path_140637" data-name="Path 140637" d="M1434.218,704.608l-2.272,2.383.416,2.183,1.317-1.059,1.778-.693,1.293.108.277,1.644h1.478l.462-1.484s-3.651-1.8-4.749-3.082" transform="translate(16322 14135)" fill="#f5a800"/>
    <path id="Path_140638" data-name="Path 140638" d="M1401.879,701.227l-.022-.165-.121-.11a.576.576,0,0,0-.733-.049,2.689,2.689,0,0,0,.1-1.92,1,1,0,0,0-.925-.638,1.223,1.223,0,0,0-.322.047,1.958,1.958,0,0,0-1.05.846.907.907,0,0,0-.248-.329.874.874,0,0,0-1.274,0l.292-1.924c.066,0,.131,0,.185,0a.518.518,0,0,0,.077,0l.328.071.149-.309a1.013,1.013,0,0,0,.05-.87.593.593,0,0,0-.486-.307c-.03,0-.1-.005-.192-.005-.509,0-1.887.035-3.147.067-.77.02-1.417.037-1.573.037h-.323l-.093.326a1.348,1.348,0,0,0,.11,1.06.8.8,0,0,0,.749.32c.35-.028.784-.07,1.111-.1a21.369,21.369,0,0,1-.578,4.36c-.041-.3-.087-.674-.143-1.126,0-.011,0-.029-.007-.048a.7.7,0,0,0-1.17-.591l-.434.351V703.6h1.539l.044-.005c.111-.014.99-.183,1.631-1.849,0,.114-.007.207-.013.3a.976.976,0,0,0,.2.8l.078.108.123.046a.893.893,0,0,0,.275.048l.092,0a1.207,1.207,0,0,0,.492-.138l.166-.087.055-.185c.047-.159.125-.405.221-.682a1.809,1.809,0,0,0,.3.667,1.136,1.136,0,0,0,.911.458h.053a1.932,1.932,0,0,0,.694-.139,1.633,1.633,0,0,0,.973.354,1.852,1.852,0,0,0,1.5-.953,1.615,1.615,0,0,0,.352-1.117" transform="translate(16322 14135)" fill="#602651"/>
    <path id="Path_140639" data-name="Path 140639" d="M1444.51,710.5l-.013-.261-.167-.19a1.349,1.349,0,0,0-1.028-.436,2.469,2.469,0,0,0-1.546.673l-.034.027c.133-.457.238-.756.24-.761l.1-.285-.115-.276a1.2,1.2,0,0,0-1.13-.657l-1.606.417-.1.314c-.062.2-.185.629-.311,1.194l-.092-.07a1.554,1.554,0,0,0-.915-.264,2.417,2.417,0,0,0-.958.213c-.065.026-.125.05-.18.069a4.382,4.382,0,0,0-.378-1.82l-.134-.238-.252-.09a1.888,1.888,0,0,0-.578-.089,1.717,1.717,0,0,0-1.569,1.009,2.082,2.082,0,0,0-.131.327l-.115.011a10.307,10.307,0,0,0-1.337.252.987.987,0,0,1-.15.033,6.677,6.677,0,0,0-.179-1.372l-.106-.325-.309-.127a1.639,1.639,0,0,0-.585-.1,1.614,1.614,0,0,0-1.418.886,1.957,1.957,0,0,0-2.5-.028,5.08,5.08,0,0,0-1.825,3.17,2.311,2.311,0,0,0-.751-.546c1.09-1.251,2.5-3.154,2.541-4.67a3.1,3.1,0,0,0-.725-2.351c-.706-.76-1.9-1.1-3.854-1.1-.247,0-.508.005-.811.019-.138.01-3.381.266-4.24.482l-.29.073-.156.266a2.32,2.32,0,0,0-.235,1.444l.146.619h.576a8.355,8.355,0,0,0,1.973-.3c.138-.035.261-.062.37-.085-.158.86-.394,2.224-.578,3.679-.275.007-.336-.086-.354-.12l-.444-.819-.214-.367h-.41a1.7,1.7,0,0,0-1.625,1.38.283.283,0,0,1-.041-.044l-.088-.085-.109-.055a1.409,1.409,0,0,0-.6-.123,2.191,2.191,0,0,0-1.277.455l-.25.181c.014-.082.03-.163.045-.243l.078-.407-.3-.284a1.386,1.386,0,0,0-.959-.334,2.95,2.95,0,0,0-1.481.479l-.333.2-.026.392a3.925,3.925,0,0,1-.12.667,2.793,2.793,0,0,0-.555-1.131,1.908,1.908,0,0,0-1.489-.668,2.349,2.349,0,0,0-.424.038,1.583,1.583,0,0,0-.715.342.507.507,0,0,1-.082.033,2.048,2.048,0,0,0-1.3.734,14.382,14.382,0,0,0,.4-2.472,4.848,4.848,0,0,0-.752-2.945,1.4,1.4,0,0,0-1.565-.34l-.168.092a3.057,3.057,0,0,0-.808,1.108,2.994,2.994,0,0,0-.652-1.236,1.879,1.879,0,0,0-1.38-.661,1.119,1.119,0,0,0-.591.153l-.24.151-.079.279c-.043.154-.717,2.587-1.171,5.229a2.174,2.174,0,0,0-1.1-.624,1.6,1.6,0,0,0-.333-.031,2.506,2.506,0,0,0-1.726.726,20.214,20.214,0,0,0,.486-3.25l.006-.191-.082-.169a1.732,1.732,0,0,0-1.567-.894,1.336,1.336,0,0,0-1.355.713l-.051.105c-.39.991-.983,2.482-1.092,2.69-.126.253-.244.463-.353.64.1-.758.29-1.928.668-3.712a2,2,0,0,0-.185-1.467,1.472,1.472,0,0,0-1.025-.677l-1.4.022a2.323,2.323,0,0,1-.749.083,2.7,2.7,0,0,0-2.257.718,1.514,1.514,0,0,0-.235,1.273l.048.2.14.146c.385.409,1.187.38,2.493-.082.047-.012.122-.026.208-.045a5.657,5.657,0,0,1-.148.79c-.013.05-1.268,5.225.316,6.241a1.486,1.486,0,0,0,.819.236,2.891,2.891,0,0,0,1.983-1.033c-.092.542-.194,1.042-.3,1.484a8.408,8.408,0,0,1-1.2,3.188c-.044.05-.072.073-.075.078a1.07,1.07,0,0,1-.409-.233c-.393-.3-.658-.542-.874-.735a5.157,5.157,0,0,0-.518-.438,1.741,1.741,0,0,0-.992-.364c-.49,0-1.158.264-1.565,1.519l-.037.116v.713l.36.212a11.939,11.939,0,0,0,3.675,1.411l.426.006.086-.009c.2-.032,1.885-.4,3.3-4.09a4.532,4.532,0,0,0,1.028,2.409,2.678,2.678,0,0,0,3.45.4l.026-.017a3.892,3.892,0,0,0,.65-.556,2.164,2.164,0,0,0,1.437.5,2.925,2.925,0,0,0,.4-.025,2.6,2.6,0,0,0,1.221-.489,2.141,2.141,0,0,0,1.44.513,2.847,2.847,0,0,0,.536-.047,2.594,2.594,0,0,0,1.167-.537,2.205,2.205,0,0,0,2.273.529,4.329,4.329,0,0,0,2.294-2.807,3.755,3.755,0,0,0,.921,2.411,2.026,2.026,0,0,0,1.328.515,2.144,2.144,0,0,0,1.552-.7c.039.055.075.1.108.14a1.965,1.965,0,0,0,1.835.536c.676-.127,2.1-.729,2.734-3.458a8.514,8.514,0,0,0,.126,1.382c.044.42.392,3.15,2.263,3.259.048,0,.094,0,.141,0,1.785,0,3.271-1.92,3.806-2.936.022-.041.046-.085.07-.131a3.689,3.689,0,0,0,.646,1.265,2.715,2.715,0,0,0,1.944,1.017,1.309,1.309,0,0,0,.182.01,3.72,3.72,0,0,0,3.28-2.51,3.108,3.108,0,0,0,.571,1.392,1.735,1.735,0,0,0,1.838.587,3,3,0,0,0,2.08-1.828,2.836,2.836,0,0,0,.489,1.2,1.79,1.79,0,0,0,1.481.719,2.409,2.409,0,0,0,.511-.055,2.729,2.729,0,0,0,1.122-.54,1.714,1.714,0,0,0,1.74.537,6.666,6.666,0,0,1-.847,2.451l-.018.022a.325.325,0,0,1-.241.147.785.785,0,0,1-.415-.189,2.009,2.009,0,0,1-.294-.27,1.236,1.236,0,0,0-1.036-.753,1.121,1.121,0,0,0-.778.339,1.586,1.586,0,0,0,.322,2.528,4.837,4.837,0,0,0,1.692.518,1.065,1.065,0,0,0,.186.013c.53,0,3.218-.284,4.271-5.886.11-.732.653-4.43.61-5.186m-3.311,2.538a10.44,10.44,0,0,1,.244-1.619,15.953,15.953,0,0,1-.244,1.619m-2.935,1.238c0-.053.005-.12.012-.192a5.986,5.986,0,0,1,.157-.943c0,.256.005.516.025.773-.064.108-.135.235-.194.362m-3.93-2.091.057.058c-.006.039-.01.081-.016.128a7.706,7.706,0,0,1-.567,1.89l-.025.029a5.169,5.169,0,0,1,.081-1.58c.028-.128.109-.513.195-.881a2.543,2.543,0,0,0,.275.356M1429.5,713.3l-.02.059c-.345,1.088-.746,1.675-1.194,1.745a.449.449,0,0,1-.229-.221c.084-.1.184-.217.283-.323a7.8,7.8,0,0,0,1.255-1.718,4.589,4.589,0,0,1-.095.458m-7.119-4.166c-.056.092-.1.165-.128.212a3.436,3.436,0,0,1-.219.328c.185-1.409.434-2.936.718-4.391.244.022.479.058.6.075a.453.453,0,0,1,.31.279c.115.33.1,1.221-1.282,3.5m-.534,6.486a7.543,7.543,0,0,1-.136-2.7h.017a1.215,1.215,0,0,1,.854.376,1.639,1.639,0,0,1,.016,1.224c-.158.619-.42,1-.751,1.094m-13.831-2.442a4.737,4.737,0,0,1-.291,1.255,4.277,4.277,0,0,1-.19-1.5,2.928,2.928,0,0,0,.481.242m-3.233-.044a3.953,3.953,0,0,1,.043.946,2.464,2.464,0,0,1-.242.385c-.01-.02-.019-.038-.03-.058a3.2,3.2,0,0,1-.146-1.455c.04-.085.134-.235.23-.393.061-.1.127-.207.2-.326-.031.247-.052.507-.063.785Zm-3.016-1.412c-.033.737-.047,1.507-.042,2.316a1.738,1.738,0,0,1-.186.391,4.369,4.369,0,0,1-.22-1.988c.106-.154.264-.4.448-.719m-4.368,3.249c.376-.429.852-.995,1.219-1.511.012.163.025.322.035.428a1.022,1.022,0,0,1-.286.709,1.562,1.562,0,0,1-.815.515c-.053,0-.108-.063-.153-.141m19.072-3.684a7.757,7.757,0,0,1-.414,3.219,6.875,6.875,0,0,1,.125-2.262m-2.667-1.923.008-.044c.031-.158.063-.315.094-.472l-.02.156c0,.008-.151,1.195-.225,2.375a7.1,7.1,0,0,1-.388,1.94,21.174,21.174,0,0,1,.531-3.955" transform="translate(16322 14135)" fill="#602651"/>
    <path id="Path_140640" data-name="Path 140640" d="M1401.637,701.263l-.009-.074-.053-.047a.355.355,0,0,0-.236-.09c-.218,0-.393.187-.515.557-.112.34-.392.7-.63.7a.4.4,0,0,1-.3-.211,3.135,3.135,0,0,0,.98-3.026.756.756,0,0,0-.7-.473.935.935,0,0,0-.261.037,1.771,1.771,0,0,0-1,.9,3.366,3.366,0,0,0-.171,2.471.544.544,0,0,1-.1.009.306.306,0,0,1-.271-.128c-.123-.177-.256-.7.212-2.205a.475.475,0,0,0-.18-.581c-.459-.4-.91-.24-1.321.477-.07.124-.136.249-.2.373l.486-3.214c.172-.005.456-.011.518,0l.145.033.065-.138a.783.783,0,0,0,.059-.631.355.355,0,0,0-.293-.181c-.2-.014-1.941.031-3.31.065-.777.018-1.427.038-1.586.038h-.141l-.042.141a1.111,1.111,0,0,0,.072.839.554.554,0,0,0,.536.219c.461-.036,1.067-.1,1.385-.129-.039.935-.237,4.48-.938,5.491a.712.712,0,0,1-.038-.141c-.088-.524-.25-1.872-.251-1.872-.009-.348-.248-.741-.779-.406l-.339.279v3.011h1.3l.013,0c.044-.006,1.092-.172,1.689-2.5a21.532,21.532,0,0,0,.621-4,.572.572,0,0,0,.087-.016c-.1.907-.475,4.3-.493,4.9,0,.136-.009.242-.012.325-.017.353-.012.409.153.636l.034.048.054.021a.74.74,0,0,0,.189.032h.081a1.033,1.033,0,0,0,.4-.116l.074-.04.022-.08a17.09,17.09,0,0,1,.6-1.681,2.606,2.606,0,0,0,.341,1.583.905.905,0,0,0,.727.363h.047a1.719,1.719,0,0,0,.733-.18,1.428,1.428,0,0,0,.934.395,1.655,1.655,0,0,0,1.315-.861,1.372,1.372,0,0,0,.3-.921m-1.629-1.682c0,.021,0,.041,0,.064a3.664,3.664,0,0,1-.287,1.326,2.979,2.979,0,0,1,.288-1.39" transform="translate(16322 14135)" fill="#602651"/>
    <path id="Path_140641" data-name="Path 140641" d="M1395.886,705.542l-.034-.067a1.29,1.29,0,0,0-1.183-.651c-.661,0-.867.245-.976.479l-.033.063c-.263.668-.974,2.464-1.108,2.733a4.418,4.418,0,0,1-1.242,1.7,22.97,22.97,0,0,1,.763-5.1,1.568,1.568,0,0,0-.133-1.11,1.058,1.058,0,0,0-.739-.481l-1-.045h-.084l-.067.036a2.235,2.235,0,0,1-.922.124,2.387,2.387,0,0,0-1.919.546,1.041,1.041,0,0,0-.155.893l.019.08.054.061a.7.7,0,0,0,.515.152,5.065,5.065,0,0,0,1.555-.352,4.153,4.153,0,0,1,.765-.119,4.289,4.289,0,0,1-.17,1.406c-.013.047-1.119,4.948.127,5.748a1.1,1.1,0,0,0,.593.169c.865,0,1.856-.859,2.639-2.207a25.954,25.954,0,0,1-.543,3.214c-.6,2.413-1.108,3.169-1.3,3.382a.512.512,0,0,1-.379.223,1.269,1.269,0,0,1-.673-.32c-.408-.315-.681-.563-.9-.763a5.076,5.076,0,0,0-.475-.4,1.328,1.328,0,0,0-.752-.29c-.508,0-.9.411-1.158,1.212l-.014.049v.382l.142.085a11.643,11.643,0,0,0,3.525,1.354l.368,0,.019,0c.079-.014,1.976-.357,3.4-5.106a30.609,30.609,0,0,0,1.472-7.007Z" transform="translate(16322 14135)" fill="#602651"/>
    <path id="Path_140642" data-name="Path 140642" d="M1423.565,711.36c.871-.938,2.84-3.242,2.889-4.891a2.7,2.7,0,0,0-.6-2.031c-.621-.663-1.713-.959-3.547-.959-.241,0-.5,0-.777.015-.136.012-3.352.269-4.172.474l-.115.029-.064.1a1.839,1.839,0,0,0-.182,1.138l.06.249h.24a8.04,8.04,0,0,0,1.871-.283,5.824,5.824,0,0,1,1.01-.186c-.147.759-.494,2.636-.732,4.616a1.982,1.982,0,0,1-.4.045c-.523,0-.665-.261-.712-.348l-.437-.809-.088-.151h-.169a1.335,1.335,0,0,0-1.268,1.424,1.685,1.685,0,0,0,.524,1.288c.067,1.378-.076,3.965-.976,4.037-.005,0-.05,0-.109-.074-.134-.167-.406-.784-.046-2.908.085-.27.55-1.906-.092-2.555l-.035-.036-.043-.022a1.01,1.01,0,0,0-.414-.08,1.8,1.8,0,0,0-1.034.376l-.106.076-.016.131c0,.011-.147,1.175-.22,2.338-.086,1.374-.559,2.722-.85,2.722a.216.216,0,0,1-.115-.059c-.6-.482-.1-2.974.257-4.8.063-.314.125-.625.183-.928l.031-.162-.119-.114a.971.971,0,0,0-.67-.218,2.556,2.556,0,0,0-1.268.421l-.133.079-.01.16c0,.017-.117,1.47-.829,1.933a3.43,3.43,0,0,0-.595-2.131,1.476,1.476,0,0,0-1.168-.521,1.911,1.911,0,0,0-.366.033c-.042,0-.174.015-.557.286a.769.769,0,0,1-.3.093c-.3,0-1.983.708-2.089,3.849v.025l0,.029a3.232,3.232,0,0,1,.012,1.2c-.266.522-.529.756-.673.756-.112,0-.259-.165-.391-.445a3.461,3.461,0,0,1-.133-1.813,4.936,4.936,0,0,1,.256-.443,10.912,10.912,0,0,0,1.694-5.35,4.583,4.583,0,0,0-.633-2.624.971.971,0,0,0-1.11-.231l-.067.037c-.051.036-.759.589-1.323,2.736,0-.024.005-.047.008-.072a3.883,3.883,0,0,0-.7-2.85,1.466,1.466,0,0,0-1.07-.523.71.71,0,0,0-.369.092l-.1.061-.033.112c-.064.232-1.6,5.758-1.563,9.17,0,.028.041.686.07.967a1.466,1.466,0,0,1-.42,1.08,1.847,1.847,0,0,1-1.106.636h0c-.109,0-.417,0-.671-.668a13.131,13.131,0,0,0,1.844-2.455,4.149,4.149,0,0,0,.2-2.946,1.615,1.615,0,0,0-1.126-.867,1.045,1.045,0,0,0-.25-.022,2.1,2.1,0,0,0-1.494.66,5.226,5.226,0,0,0-1.322,3.645,4.659,4.659,0,0,0,.973,3.272,2.088,2.088,0,0,0,1.553.706,2.88,2.88,0,0,0,1.387-.4,4.051,4.051,0,0,0,.867-.83,1.677,1.677,0,0,0,1.444.706,3.073,3.073,0,0,0,.36-.024,2.084,2.084,0,0,0,1.28-.662,1.691,1.691,0,0,0,1.419.686,2.693,2.693,0,0,0,.479-.046,2.1,2.1,0,0,0,1.239-.73,1.946,1.946,0,0,0,1.528.84,1.865,1.865,0,0,0,.6-.1c1.428-.474,2.135-2.652,2.272-3.479a4.09,4.09,0,0,0,.513-.283c0,1,.1,2.829.83,3.448a1.619,1.619,0,0,0,1.057.413,1.674,1.674,0,0,0,1.286-.628c.1-.138.205-.288.3-.428a4.037,4.037,0,0,0,.393.643,1.533,1.533,0,0,0,1.436.394c.732-.14,2.433-.924,2.668-5.164a2.919,2.919,0,0,0,.667-.162,14.381,14.381,0,0,0,.03,3.623c.024.267.3,2.787,1.859,2.879.04,0,.078,0,.119,0,1.469,0,2.857-1.615,3.429-2.7a2.935,2.935,0,0,0,.3-2.537,2.022,2.022,0,0,0-1.461-.988m-1.885,4.735h-.056c-.4-.412-.447-1.935-.3-3.847a.755.755,0,0,0,.449.24,1.511,1.511,0,0,1,1.162.569,2,2,0,0,1,.078,1.588c-.322,1.26-.973,1.451-1.332,1.451m2.385-10.606c.253.723-.192,2.026-1.321,3.884l-.126.206a11.163,11.163,0,0,1-1.11,1.406l-.026.031c-.017.029-.035.054-.051.082.219-2.082.6-4.425.971-6.275a7.149,7.149,0,0,1,1.055.108.893.893,0,0,1,.608.558m-15.709,4.8a1.925,1.925,0,0,1,.233.8,1.079,1.079,0,0,1-.228-.461.961.961,0,0,1-.005-.341m-1.023,4.344a5.855,5.855,0,0,1-.158-2.593,2.443,2.443,0,0,0,1.3.832c-.156,1.817-.618,2.221-.729,2.221-.141,0-.34-.282-.418-.46m-5.179-.517c-.092.308-.359.891-.679.9-.074-.008-.149-.1-.187-.146a4.247,4.247,0,0,1-.382-2.593,11.542,11.542,0,0,0,1.5-3.09,36.262,36.262,0,0,0-.254,4.93m-5.449-.994a5.036,5.036,0,0,1,.721-2.959,1.954,1.954,0,0,1-.111,1.2,16.737,16.737,0,0,1-.61,1.764" transform="translate(16322 14135)" fill="#602651"/>
    <path id="Path_140643" data-name="Path 140643" d="M1444.081,710.521l0-.1-.069-.078a.935.935,0,0,0-.706-.285,2.074,2.074,0,0,0-1.277.576l-.1.082-.008.13c-.05.868-.317,3.248-.887,3.832-.016.011-.04.023-.04.027s-.191-.131-.229-1.066a14.163,14.163,0,0,1,.8-4.247l.04-.112-.047-.108a.756.756,0,0,0-.76-.392,2.076,2.076,0,0,0-.4.046c-.065.016-.122.025-.174.037l-.641.17-.029.019-.012.109a14.081,14.081,0,0,0-.635,4.862,4.682,4.682,0,0,0-.3.549c-.085.2-.288.4-.432.4h0c-.227-.043-.389-.076-.318-.93a6.5,6.5,0,0,1,.414-1.788c.037-.108.066-.191.083-.25s.029-.1.047-.162a3.151,3.151,0,0,0,.185-1.074l-.012-.136-.107-.081a1.12,1.12,0,0,0-.664-.181,1.978,1.978,0,0,0-.795.178,2.076,2.076,0,0,1-.765.188,5.162,5.162,0,0,0-.326-2.125l-.055-.1-.1-.036a1.464,1.464,0,0,0-.44-.065,1.288,1.288,0,0,0-1.189.765,2.62,2.62,0,0,0,.517,2.691l.1.109c.037.039.075.078.1.106,0,.019-.005.045-.009.076-.008.062-.021.143-.029.25a7.346,7.346,0,0,1-.671,2.137l-.041.05a.726.726,0,0,1-.554.36,3.652,3.652,0,0,1-.093-2.345c0-.012.232-1.113.363-1.552a1.9,1.9,0,0,0,.045-1.065l-.053-.266-.257.029a9.6,9.6,0,0,0-1.273.241,1.936,1.936,0,0,1-.5.067,1.152,1.152,0,0,1-.166-.011,10.2,10.2,0,0,0-.178-1.683l-.044-.13-.122-.051a1.237,1.237,0,0,0-.43-.076c-.317,0-1.029.139-1.285,1.332a1.51,1.51,0,0,0-1.317-.912,2.046,2.046,0,0,0-1.087.371c-1.518.977-1.769,3.657-1.781,3.769a5.182,5.182,0,0,0,.787,3.271,2.294,2.294,0,0,0,1.666.858s.046.005.132.005c.508,0,3.03-.244,3.6-4.99.031,0,.061,0,.092-.009-.11.886-.29,3.085.483,4.043a1.312,1.312,0,0,0,1.431.434c.252-.035,1.951-.4,2.474-3.989.051-.008.1-.019.155-.029-.142.868-.325,2.661.355,3.556a1.479,1.479,0,0,0,1.579.5,2.4,2.4,0,0,0,1.242-.743,1.588,1.588,0,0,0,1.254.8,1.443,1.443,0,0,0,.8-.27,1.3,1.3,0,0,0,.218-.186,9.149,9.149,0,0,1-1.086,3.561.761.761,0,0,1-.6.343,1.14,1.14,0,0,1-.668-.274,1.853,1.853,0,0,1-.413-.412c-.086-.157-.287-.526-.664-.526a.722.722,0,0,0-.491.226,1.126,1.126,0,0,0-.339.936,1.143,1.143,0,0,0,.582.868,4.549,4.549,0,0,0,1.543.469c.013,0,.059.008.128.008.469,0,2.863-.267,3.847-5.508.066-.443.644-4.376.6-5.093m-16.7,2.409a5.555,5.555,0,0,1,.619-2.851.093.093,0,0,1,.014-.017,4.666,4.666,0,0,1-.633,2.868m2.358-1.818a1.215,1.215,0,0,0,.469.481,17.247,17.247,0,0,1-.307,1.851l-.018.059c-.154.487-.625,1.971-1.61,2.056-.019,0-.466-.01-.723-.737a6.366,6.366,0,0,1,.481-.572,6.307,6.307,0,0,0,1.708-3.138" transform="translate(16322 14135)" fill="#602651"/>
    <path id="Path_140644" data-name="Path 140644" d="M1401.449,701.29s-.242-.224-.443.384-.879,1.315-1.355.387c0,0,1.567-1.374,1.048-2.918a.573.573,0,0,0-.732-.314c-.556.153-1.611,1.16-.986,3.313,0,0-1.6.745-.573-2.545,0,0,.108-.135-.128-.343s-.587-.349-1.031.427a13.132,13.132,0,0,0-.771,1.661l.727-4.8s.63-.027.723-.006c0,0,.24-.5-.078-.524s-4.449.1-4.881.1c0,0-.242.852.411.8s1.6-.154,1.6-.154-.139,4.672-1.016,5.869c0,0-.259.271-.351-.262s-.253-1.9-.253-1.9-.015-.534-.469-.249l-.267.215v2.715h1.093s.955-.129,1.528-2.35a20.812,20.812,0,0,0,.625-4.155.326.326,0,0,0,.247-.011.428.428,0,0,1,.236.011s-.495,4.427-.514,5.1-.064.607.1.837a.675.675,0,0,0,.516-.075,10.525,10.525,0,0,1,1.08-2.542s-.526,2.645.787,2.667a1.515,1.515,0,0,0,.8-.225s1.008,1.192,2.069-.352a1.184,1.184,0,0,0,.255-.764m-1.53-1.93s.3-.393.28.291a3.551,3.551,0,0,1-.639,1.983,3.923,3.923,0,0,1,.359-2.274" transform="translate(16322 14135)" fill="#f5a800"/>
    <path id="Path_140645" data-name="Path 140645" d="M1395.6,705.608a30.6,30.6,0,0,1-1.459,6.927c-1.393,4.625-3.172,4.9-3.172,4.9h-.308a11.365,11.365,0,0,1-3.421-1.319v-.16c.462-1.423,1.163-1,1.48-.772s.624.585,1.368,1.157,1.111.418,1.43.061a9.086,9.086,0,0,0,1.368-3.51,31.08,31.08,0,0,0,.7-4.875c-1.016,2.7-2.678,3.9-3.512,3.37s-.324-4.148,0-5.419a3.227,3.227,0,0,0,.13-1.76,3.178,3.178,0,0,0-1.07.107c-1.543.546-1.8.281-1.8.281-.232-1.019.992-1.076,1.8-1.076a2.256,2.256,0,0,0,1.06-.16l.964.041c.911.167.644,1.223.644,1.223-1.2,5.658-.651,5.552-.651,5.552.718-.09,1.488-1.6,1.659-1.939s1.122-2.759,1.122-2.759c.058-.071.049-.355.743-.355a1.011,1.011,0,0,1,.929.485m28.88,9.133c-.545,1.029-1.9,2.626-3.282,2.544s-1.593-2.625-1.593-2.625a15.61,15.61,0,0,1,.018-4.056,2.649,2.649,0,0,1-1.27.36c-.175,4.393-1.864,5.04-2.446,5.15a1.226,1.226,0,0,1-1.176-.3,7.749,7.749,0,0,1-.571-1.02c-.049.111-.564.83-.564.83a1.333,1.333,0,0,1-1.93.16c-.884-.746-.709-3.846-.709-3.846a3.271,3.271,0,0,1-1.078.707c-.038.6-.729,2.949-2.1,3.4a1.846,1.846,0,0,0-3.321-.02,1.444,1.444,0,0,1-1.833-.928,1.7,1.7,0,0,1-1.331.948,1.4,1.4,0,0,1-1.729-.95,4.051,4.051,0,0,1-1.067,1.143c-2.231,1.212-3.571-.888-3.475-3.313a4.96,4.96,0,0,1,1.223-3.436,1.752,1.752,0,0,1,1.5-.57c1.7.426,1,2.683.711,3.41a15.162,15.162,0,0,1-1.907,2.5c.583,1.833,1.85.757,2.3.317a1.778,1.778,0,0,0,.51-1.334c-.029-.271-.069-.948-.069-.948-.038-3.392,1.554-9.071,1.554-9.071.29-.182,1.864.02,1.709,3.011a10.9,10.9,0,0,1-1.923,5.353c-.214,1.355.155,3.09.816,3.153s.99-1.153.99-1.153c-.078-8.324,1.883-9.757,1.883-9.757,1.438-.546,1.358,2.566,1.358,2.566a11.262,11.262,0,0,1-1.922,5.677,3.956,3.956,0,0,0,.127,2.047c.66,1.415,1.409.063,1.583-.281a3.653,3.653,0,0,0,.018-1.385c.1-2.886,1.594-3.558,1.8-3.558a1.039,1.039,0,0,0,.438-.13,1.284,1.284,0,0,1,.437-.248c2.137-.385,1.8,2.749,1.8,2.749,1.283-.191,1.419-2.342,1.419-2.342,1.145-.683,1.6-.242,1.6-.242-.452,2.38-1.179,5.333-.336,6.017s1.355-1.713,1.428-2.88.217-2.319.217-2.319a1.19,1.19,0,0,1,1.166-.271c.554.558.014,2.27.014,2.27-.612,3.561.467,3.349.467,3.349,1.5-.119,1.217-4.495,1.217-4.495a1.326,1.326,0,0,1-.513-1.111c.078-1.17.989-1.139.989-1.139l.436.8c.439.81,1.623.4,1.623.4.307-2.62.82-5.137.82-5.137a3.171,3.171,0,0,0-1.427.183,7.485,7.485,0,0,1-1.82.272,1.5,1.5,0,0,1,.146-.931c.8-.2,4.126-.468,4.126-.468,3.669-.141,4.677.687,4.62,2.668s-3.2,5.109-3.2,5.109c2.6.242,2.06,2.142,1.517,3.173M1403.8,711.3s1.28-3.183.786-4.714a22.537,22.537,0,0,0-.786,4.714m-3.028-.638s1.207-2.759.714-4.015a23.291,23.291,0,0,0-.714,4.015m-3.19.788c.465-1.483-.145-1.7-.145-1.7-1.292.971-.991,4.232-.991,4.232.467-.4.669-1.049,1.136-2.535m11.2,1.181a2.072,2.072,0,0,1-1.732-1.529,7.412,7.412,0,0,0,.013,3.636s.277.653.685.653.9-.758,1.034-2.76m-.554-2.831s-.683,1.045.656,1.938c0,0,.131-1.592-.656-1.938m13.574,2.392s-.715-.089-.089-1a11.516,11.516,0,0,0,1.15-1.461c.312-.544,2.875-4.362.66-5.087a5.8,5.8,0,0,0-1.359-.1s-2.175,10.706-.659,11.839c0,0,1.285.282,1.78-1.657s-.552-2.424-1.483-2.531m21.39,3.379c-1.028,5.476-3.546,5.265-3.654,5.248a4.336,4.336,0,0,1-1.444-.429.83.83,0,0,1-.188-1.328c.371-.348.589,0,.713.228a2.2,2.2,0,0,0,.5.509,1.064,1.064,0,0,0,1.675-.153c1.048-1.409,1.306-5.247,1.306-5.247a2.315,2.315,0,0,1-.836,1.463c-1.2.788-1.874-.816-1.874-.816a2.1,2.1,0,0,1-1.319.991c-2.583.544-1.514-4.183-1.514-4.183a3.347,3.347,0,0,1-.778.181c-.485,3.819-2.272,3.96-2.272,3.96-2.387.608-1.529-4.506-1.529-4.506a2.509,2.509,0,0,0-.349.028,1.132,1.132,0,0,1-.33-.006c-.539,5.333-3.451,5-3.451,5-2.535-.2-2.2-3.8-2.2-3.8s.233-2.637,1.644-3.548a1.34,1.34,0,0,1,2.171.852c.335,1.968-1.325,3.712-1.631,4.028a7.586,7.586,0,0,0-.6.729c.321,1.121,1.051,1.089,1.051,1.089,1.236-.105,1.745-1.863,1.891-2.317s.35-2.133.35-2.133c-.844-.261-.758-1.534-.758-1.534.205-1.889,1.39-1.4,1.39-1.4a13.7,13.7,0,0,1,.174,1.839,1.863,1.863,0,0,0,1.008-.021,9.521,9.521,0,0,1,1.234-.232,1.567,1.567,0,0,1-.039.918c-.135.457-.37,1.577-.37,1.577-.387,2.191.244,2.718.244,2.718a1.066,1.066,0,0,0,.943-.527,7.426,7.426,0,0,0,.737-2.305c.048-.534.125-.379-.244-.777a2.326,2.326,0,0,1-.465-2.342,1.039,1.039,0,0,1,1.281-.554,5.99,5.99,0,0,1,.282,2.229,1.621,1.621,0,0,0,1.166-.171,1.212,1.212,0,0,1,1.183-.029,3.783,3.783,0,0,1-.222,1.132,7.945,7.945,0,0,0-.506,2.091c-.1,1.129.243,1.19.554,1.253s.631-.3.747-.58a4.556,4.556,0,0,1,.33-.592,13.756,13.756,0,0,1,.62-4.875,2.4,2.4,0,0,0,.631-.107c.709-.15.847.172.847.172a14.372,14.372,0,0,0-.818,4.363c.078,1.859.739,1.252.739,1.252.8-.8.99-4.04.99-4.04,1.088-.909,1.593-.322,1.593-.322.039.707-.6,5.03-.6,5.03m-16.1-1.738c1.534-1.735,1.516-4.848.7-3.959s-.7,3.959-.7,3.959" transform="translate(16322 14135)" fill="#f5a800"/>
    <g id="Group_120760" data-name="Group 120760" transform="translate(16322 14135)">
      <g id="Group_120759" data-name="Group 120759" clip-path="url(#clip-path)">
        <path id="Path_140646" data-name="Path 140646" d="M1443.09,692.947a4.212,4.212,0,1,1-4.208-4.379,4.3,4.3,0,0,1,4.208,4.379" fill="#f5a800"/>
        <path id="Path_140647" data-name="Path 140647" d="M1443.09,692.947a4.212,4.212,0,1,1-4.208-4.379,4.3,4.3,0,0,1,4.208,4.379" fill="none" stroke="#f5a800" stroke-miterlimit="10" stroke-width="1"/>
      </g>
    </g>
    <g id="Group_120762" data-name="Group 120762" transform="translate(16322 14135)">
      <g id="Group_120761" data-name="Group 120761" clip-path="url(#clip-path-2)">
        <path id="Path_140649" data-name="Path 140649" d="M1433.863,702.349a4.212,4.212,0,1,1-4.208-4.379,4.3,4.3,0,0,1,4.208,4.379" fill="#f5a800"/>
        <path id="Path_140650" data-name="Path 140650" d="M1433.863,702.349a4.212,4.212,0,1,1-4.208-4.379,4.3,4.3,0,0,1,4.208,4.379" fill="none" stroke="#f5a800" stroke-miterlimit="10" stroke-width="1"/>
      </g>
    </g>
    <g id="Group_120764" data-name="Group 120764" transform="translate(16322 14135)">
      <g id="Group_120763" data-name="Group 120763" clip-path="url(#clip-path-3)">
        <path id="Path_140652" data-name="Path 140652" d="M1433.863,692.947a4.212,4.212,0,1,1-4.208-4.379,4.3,4.3,0,0,1,4.208,4.379" fill="#f5a800"/>
        <path id="Path_140653" data-name="Path 140653" d="M1433.863,692.947a4.212,4.212,0,1,1-4.208-4.379,4.3,4.3,0,0,1,4.208,4.379" fill="none" stroke="#f5a800" stroke-miterlimit="10" stroke-width="1"/>
      </g>
    </g>
    <path id="Path_140655" data-name="Path 140655" d="M1406.7,725.772a.778.778,0,0,0-.617-.817l-.017,0c-.3-.051-.6-.095-.887-.134-.3-.065-.343-.215-.343-.353,0-.092.128-.2.353-.29a1.632,1.632,0,0,1,.616-.141.388.388,0,0,1,.319.113,1.59,1.59,0,0,0,.295.36l.047.035.057,0c.161-.012.311-.167.487-.506a1.544,1.544,0,0,0,.209-.637.742.742,0,0,0-.32-.628.968.968,0,0,0-.584-.177,2.524,2.524,0,0,0-1.674.818,2.409,2.409,0,0,0-.917,1.726,1.063,1.063,0,0,0,.564.969,3.663,3.663,0,0,0,.941.294c.134.027.23.053.3.072a3.816,3.816,0,0,1-1.357.709,6.191,6.191,0,0,1-1.783.262,3.631,3.631,0,0,1-1.388-.245c-.506-.218-.749-.524-.751-.928,0,0,.014-.033.1-.086a.794.794,0,0,1,.228-.1c.343-.042.68-.088,1-.135a1.984,1.984,0,0,0,.945-.343,1.7,1.7,0,0,0,.558-1.118l.053-.358-.3.163a2.4,2.4,0,0,1-.865.291c-.073.006-.3.017-.961.017-.417,0-.81.311-1.169.918a2.939,2.939,0,0,0-.489,1.49,1.67,1.67,0,0,0,.878,1.483,3,3,0,0,0,1.571.425,6.878,6.878,0,0,0,3-.718,2.775,2.775,0,0,0,1.9-2.423" transform="translate(16322 14135)" fill="#f5a800"/>
    <path id="Path_140656" data-name="Path 140656" d="M1406.7,725.772a.778.778,0,0,0-.617-.817l-.017,0c-.3-.051-.6-.095-.887-.134-.3-.065-.343-.215-.343-.353,0-.092.128-.2.353-.29a1.632,1.632,0,0,1,.616-.141.388.388,0,0,1,.319.113,1.59,1.59,0,0,0,.295.36l.047.035.057,0c.161-.012.311-.167.487-.506a1.544,1.544,0,0,0,.209-.637.742.742,0,0,0-.32-.628.968.968,0,0,0-.584-.177,2.524,2.524,0,0,0-1.674.818,2.409,2.409,0,0,0-.917,1.726,1.063,1.063,0,0,0,.564.969,3.663,3.663,0,0,0,.941.294c.134.027.23.053.3.072a3.816,3.816,0,0,1-1.357.709,6.191,6.191,0,0,1-1.783.262,3.631,3.631,0,0,1-1.388-.245c-.506-.218-.749-.524-.751-.928,0,0,.014-.033.1-.086a.794.794,0,0,1,.228-.1c.343-.042.68-.088,1-.135a1.984,1.984,0,0,0,.945-.343,1.7,1.7,0,0,0,.558-1.118l.053-.358-.3.163a2.4,2.4,0,0,1-.865.291c-.073.006-.3.017-.961.017-.417,0-.81.311-1.169.918a2.939,2.939,0,0,0-.489,1.49,1.67,1.67,0,0,0,.878,1.483,3,3,0,0,0,1.571.425,6.878,6.878,0,0,0,3-.718A2.775,2.775,0,0,0,1406.7,725.772Z" transform="translate(16322 14135)" fill="none" stroke="#f5a800" stroke-miterlimit="10" stroke-width="4"/>
    <path id="Path_140657" data-name="Path 140657" d="M1403.695,728.942a.938.938,0,0,0-.189.015c-.7.175-.9.323-.991.431a2.448,2.448,0,0,0-.354,1.1l-.046.255.234-.032a3.352,3.352,0,0,0,.587-.184,1.837,1.837,0,0,1,.56-.113,1.161,1.161,0,0,1,.4.088,1.2,1.2,0,0,0,.355.106c.157,0,.276-.155.438-.573a2.748,2.748,0,0,0,.2-.651l.016-.134-.116-.058a2.524,2.524,0,0,0-1.1-.252" transform="translate(16322 14135)" fill="#f5a800"/>
    <path id="Path_140658" data-name="Path 140658" d="M1403.695,728.942a.938.938,0,0,0-.189.015c-.7.175-.9.323-.991.431a2.448,2.448,0,0,0-.354,1.1l-.046.255.234-.032a3.352,3.352,0,0,0,.587-.184,1.837,1.837,0,0,1,.56-.113,1.161,1.161,0,0,1,.4.088,1.2,1.2,0,0,0,.355.106c.157,0,.276-.155.438-.573a2.748,2.748,0,0,0,.2-.651l.016-.134-.116-.058A2.524,2.524,0,0,0,1403.695,728.942Z" transform="translate(16322 14135)" fill="none" stroke="#f5a800" stroke-miterlimit="10" stroke-width="4"/>
    <path id="Path_140659" data-name="Path 140659" d="M1412.04,729.23a3.018,3.018,0,0,0-.644.1,1.29,1.29,0,0,0-.636.23,2.01,2.01,0,0,0-.335.51,1.316,1.316,0,0,0-.222.582.344.344,0,0,0,.155.292l.062.043.073-.022c.2-.061.4-.128.6-.2a2.2,2.2,0,0,1,.579-.1.7.7,0,0,1,.219.059.973.973,0,0,0,.317.076c.158,0,.3-.145.487-.506a3.784,3.784,0,0,0,.257-.576l.037-.114-.082-.084a1.181,1.181,0,0,0-.868-.3" transform="translate(16322 14135)" fill="#f5a800"/>
    <path id="Path_140660" data-name="Path 140660" d="M1412.04,729.23a3.018,3.018,0,0,0-.644.1,1.29,1.29,0,0,0-.636.23,2.01,2.01,0,0,0-.335.51,1.316,1.316,0,0,0-.222.582.344.344,0,0,0,.155.292l.062.043.073-.022c.2-.061.4-.128.6-.2a2.2,2.2,0,0,1,.579-.1.7.7,0,0,1,.219.059.973.973,0,0,0,.317.076c.158,0,.3-.145.487-.506a3.784,3.784,0,0,0,.257-.576l.037-.114-.082-.084A1.181,1.181,0,0,0,1412.04,729.23Z" transform="translate(16322 14135)" fill="none" stroke="#f5a800" stroke-miterlimit="10" stroke-width="4"/>
    <path id="Path_140661" data-name="Path 140661" d="M1415.677,724.1c-.127,0-.246.065-.766.949l-.027.046v.057c0,.059,0,.094.276.575a1.412,1.412,0,0,1,.212.741v.028a1.96,1.96,0,0,1-.8.25c-.161.02-.485.031-.963.033a.678.678,0,0,1-.658-.313c-.005-.016-.041-.122-.185-.718-.121-.466-.414-.537-.578-.537a1.949,1.949,0,0,0-1.671,1.071c-.326.6-.652,1.207-.977,1.814a1.713,1.713,0,0,1-1.469.9,4.2,4.2,0,0,0-1.639.228,1.571,1.571,0,0,0-.847,1.572v.034l.12.361.178-.127a3.337,3.337,0,0,1,1.238-.538c.382-.048.763-.094,1.148-.134a2.386,2.386,0,0,0,1.082-.368,3.034,3.034,0,0,0,.926-1.315c.492-1.125.6-1.36.631-1.4a1.042,1.042,0,0,1,.885-.6.1.1,0,0,1,.021,0c.021.027.042.052.064.081a2.572,2.572,0,0,0,.285.949,1.066,1.066,0,0,0,.969.439h.733a2.254,2.254,0,0,0,2.165-1.341c.085-.169.176-.339.27-.508l.008-.016a1.678,1.678,0,0,0,.129-.678,2.535,2.535,0,0,0-.235-.848c-.188-.487-.341-.685-.527-.685" transform="translate(16322 14135)" fill="#f5a800"/>
    <path id="Path_140662" data-name="Path 140662" d="M1415.677,724.1c-.127,0-.246.065-.766.949l-.027.046v.057c0,.059,0,.094.276.575a1.412,1.412,0,0,1,.212.741v.028a1.96,1.96,0,0,1-.8.25c-.161.02-.485.031-.963.033a.678.678,0,0,1-.658-.313c-.005-.016-.041-.122-.185-.718-.121-.466-.414-.537-.578-.537a1.949,1.949,0,0,0-1.671,1.071c-.326.6-.652,1.207-.977,1.814a1.713,1.713,0,0,1-1.469.9,4.2,4.2,0,0,0-1.639.228,1.571,1.571,0,0,0-.847,1.572v.034l.12.361.178-.127a3.337,3.337,0,0,1,1.238-.538c.382-.048.763-.094,1.148-.134a2.386,2.386,0,0,0,1.082-.368,3.034,3.034,0,0,0,.926-1.315c.492-1.125.6-1.36.631-1.4a1.042,1.042,0,0,1,.885-.6.1.1,0,0,1,.021,0c.021.027.042.052.064.081a2.572,2.572,0,0,0,.285.949,1.066,1.066,0,0,0,.969.439h.733a2.254,2.254,0,0,0,2.165-1.341c.085-.169.176-.339.27-.508l.008-.016a1.678,1.678,0,0,0,.129-.678,2.535,2.535,0,0,0-.235-.848C1416.016,724.3,1415.863,724.1,1415.677,724.1Z" transform="translate(16322 14135)" fill="none" stroke="#f5a800" stroke-miterlimit="10" stroke-width="4"/>
    <path id="Path_140663" data-name="Path 140663" d="M1414.52,728.855a3.09,3.09,0,0,0-.732.938l-.084.156,1.132.8.1-.114c.122-.142.252-.286.389-.435a1.242,1.242,0,0,0,.3-.591l.017-.121-1.032-.706Z" transform="translate(16322 14135)" fill="#f5a800"/>
    <path id="Path_140664" data-name="Path 140664" d="M1414.52,728.855a3.09,3.09,0,0,0-.732.938l-.084.156,1.132.8.1-.114c.122-.142.252-.286.389-.435a1.242,1.242,0,0,0,.3-.591l.017-.121-1.032-.706Z" transform="translate(16322 14135)" fill="none" stroke="#f5a800" stroke-miterlimit="10" stroke-width="4"/>
    <path id="Path_140665" data-name="Path 140665" d="M1427.838,728.912a.687.687,0,0,0-.2.026c-.7.179-.891.328-.976.423a2.348,2.348,0,0,0-.36,1.111l-.046.252.233-.033a3.641,3.641,0,0,0,.6-.172,1.68,1.68,0,0,1,.551-.114,1.223,1.223,0,0,1,.4.086,1.093,1.093,0,0,0,.356.108c.155,0,.277-.156.449-.582a3.014,3.014,0,0,0,.19-.651l.014-.131-.111-.055a2.345,2.345,0,0,0-1.089-.268" transform="translate(16322 14135)" fill="#f5a800"/>
    <path id="Path_140666" data-name="Path 140666" d="M1427.838,728.912a.687.687,0,0,0-.2.026c-.7.179-.891.328-.976.423a2.348,2.348,0,0,0-.36,1.111l-.046.252.233-.033a3.641,3.641,0,0,0,.6-.172,1.68,1.68,0,0,1,.551-.114,1.223,1.223,0,0,1,.4.086,1.093,1.093,0,0,0,.356.108c.155,0,.277-.156.449-.582a3.014,3.014,0,0,0,.19-.651l.014-.131-.111-.055A2.345,2.345,0,0,0,1427.838,728.912Z" transform="translate(16322 14135)" fill="none" stroke="#f5a800" stroke-miterlimit="10" stroke-width="4"/>
    <path id="Path_140667" data-name="Path 140667" d="M1429.385,724.789c-.19-.485-.343-.685-.53-.685-.124,0-.245.066-.765.951l-.026.046v.054c0,.062,0,.093.276.576a1.43,1.43,0,0,1,.213.743v.028a2.244,2.244,0,0,1-1.206.28h-.97a.673.673,0,0,1-.553-.339,1.283,1.283,0,0,1-.255-.774c0-.362.068-.016.208-.762a10.671,10.671,0,0,0,.215-1.787,4.015,4.015,0,0,0-.51-2.352l-.131-.173-.132.173c-.294.392-.5.685-.636.9l-.056.083.036.093a5.9,5.9,0,0,1,.391,2.022,9.357,9.357,0,0,1-.409,2.332c-.05.262-.439.4-.755.478a4.979,4.979,0,0,1-1.076.109h-.541c-.363-.84-.767-1.248-1.24-1.248-.217,0-.458.219-.782.71a2.15,2.15,0,0,0-.453,1.011.765.765,0,0,0,.491.764c.038.012.152.039.718.139.167.028.224.076.224.1,0,.167-.28.266-.449.312a2.882,2.882,0,0,1-.814.108,7.8,7.8,0,0,0-2.108.2,1.686,1.686,0,0,0-1.368,1.7v.032l.088.267h.4l.052-.075a1.914,1.914,0,0,1,1.432-.625c.2-.022.755-.031,1.662-.031a1.548,1.548,0,0,0,1.155-.57,11.654,11.654,0,0,0,.694-.957c.278-.406.421-.438.459-.438h.583a2.054,2.054,0,0,0,1.826-.828,2.266,2.266,0,0,0,.96.762l1.341.066a2.256,2.256,0,0,0,2.164-1.34c.086-.17.175-.342.271-.511l.008-.016a1.688,1.688,0,0,0,.13-.676,2.577,2.577,0,0,0-.235-.85" transform="translate(16322 14135)" fill="#f5a800"/>
    <path id="Path_140668" data-name="Path 140668" d="M1429.385,724.789c-.19-.485-.343-.685-.53-.685-.124,0-.245.066-.765.951l-.026.046v.054c0,.062,0,.093.276.576a1.43,1.43,0,0,1,.213.743v.028a2.244,2.244,0,0,1-1.206.28h-.97a.673.673,0,0,1-.553-.339,1.283,1.283,0,0,1-.255-.774c0-.362.068-.016.208-.762a10.671,10.671,0,0,0,.215-1.787,4.015,4.015,0,0,0-.51-2.352l-.131-.173-.132.173c-.294.392-.5.685-.636.9l-.056.083.036.093a5.9,5.9,0,0,1,.391,2.022,9.357,9.357,0,0,1-.409,2.332c-.05.262-.439.4-.755.478a4.979,4.979,0,0,1-1.076.109h-.541c-.363-.84-.767-1.248-1.24-1.248-.217,0-.458.219-.782.71a2.15,2.15,0,0,0-.453,1.011.765.765,0,0,0,.491.764c.038.012.152.039.718.139.167.028.224.076.224.1,0,.167-.28.266-.449.312a2.882,2.882,0,0,1-.814.108,7.8,7.8,0,0,0-2.108.2,1.686,1.686,0,0,0-1.368,1.7v.032l.088.267h.4l.052-.075a1.914,1.914,0,0,1,1.432-.625c.2-.022.755-.031,1.662-.031a1.548,1.548,0,0,0,1.155-.57,11.654,11.654,0,0,0,.694-.957c.278-.406.421-.438.459-.438h.583a2.054,2.054,0,0,0,1.826-.828,2.266,2.266,0,0,0,.96.762l1.341.066a2.256,2.256,0,0,0,2.164-1.34c.086-.17.175-.342.271-.511l.008-.016a1.688,1.688,0,0,0,.13-.676A2.577,2.577,0,0,0,1429.385,724.789Z" transform="translate(16322 14135)" fill="none" stroke="#f5a800" stroke-miterlimit="10" stroke-width="4"/>
    <path id="Path_140669" data-name="Path 140669" d="M1405.127,724a1.755,1.755,0,0,1,.677-.152.536.536,0,0,1,.453.183,1.955,1.955,0,0,0,.255.322q.14-.012.348-.414a1.422,1.422,0,0,0,.189-.543.551.551,0,0,0-.246-.475.8.8,0,0,0-.489-.145,2.361,2.361,0,0,0-1.564.772,2.224,2.224,0,0,0-.857,1.585.871.871,0,0,0,.471.8,3.75,3.75,0,0,0,.9.277c.346.069.533.139.564.217a3.71,3.71,0,0,1-1.61.925,6.37,6.37,0,0,1-1.828.268,3.768,3.768,0,0,1-1.451-.258,1.2,1.2,0,0,1-.856-1.112c0-.082.063-.16.187-.235a.949.949,0,0,1,.283-.123c.34-.043.674-.086,1.008-.134a1.843,1.843,0,0,0,.867-.311,1.507,1.507,0,0,0,.49-1,2.53,2.53,0,0,1-.922.309c-.115.013-.44.021-.981.021-.359,0-.7.279-1.027.833a2.738,2.738,0,0,0-.461,1.39,1.481,1.481,0,0,0,.791,1.317,2.816,2.816,0,0,0,1.488.4,6.691,6.691,0,0,0,2.93-.7q1.8-.875,1.8-2.254a.606.606,0,0,0-.489-.639c-.3-.047-.595-.093-.9-.133a.519.519,0,0,1-.481-.535c0-.186.153-.34.462-.465" transform="translate(16322 14135)" fill="#602651"/>
    <path id="Path_140670" data-name="Path 140670" d="M1403.544,729.138a1.977,1.977,0,0,0-.9.375,2.666,2.666,0,0,0-.312,1.015,3.256,3.256,0,0,0,.557-.176,1.91,1.91,0,0,1,.612-.124,1.353,1.353,0,0,1,.453.1,1.688,1.688,0,0,0,.3.1c.069,0,.163-.155.282-.463a2.723,2.723,0,0,0,.188-.6,2.312,2.312,0,0,0-1.027-.238.755.755,0,0,0-.15.011" transform="translate(16322 14135)" fill="#602651"/>
    <path id="Path_140671" data-name="Path 140671" d="M1411.427,729.508a1.38,1.38,0,0,0-.555.189,2.25,2.25,0,0,0-.3.465,1.393,1.393,0,0,0-.2.489.154.154,0,0,0,.076.132c.2-.061.4-.127.6-.194a2.359,2.359,0,0,1,.622-.1.831.831,0,0,1,.274.066.877.877,0,0,0,.262.067c.083,0,.2-.136.339-.414a3.5,3.5,0,0,0,.246-.543,1.019,1.019,0,0,0-.753-.248,2.988,2.988,0,0,0-.613.093" transform="translate(16322 14135)" fill="#602651"/>
    <path id="Path_140672" data-name="Path 140672" d="M1415.677,724.29q-.116,0-.623.865a3.023,3.023,0,0,0,.249.478,1.617,1.617,0,0,1,.24.841v.131a2.021,2.021,0,0,1-.949.331c-.17.02-.5.031-.983.031a.833.833,0,0,1-.808-.411c-.019-.037-.084-.287-.2-.751-.068-.271-.207-.4-.414-.4a1.779,1.779,0,0,0-1.525.978q-.492.906-.981,1.823a1.884,1.884,0,0,1-1.611.978,4.082,4.082,0,0,0-1.573.214,1.4,1.4,0,0,0-.743,1.4l.036.113a3.5,3.5,0,0,1,1.31-.568q.574-.072,1.15-.135a2.169,2.169,0,0,0,1.007-.339,2.9,2.9,0,0,0,.868-1.239c.381-.88.6-1.355.64-1.423a1.208,1.208,0,0,1,1.036-.683.21.21,0,0,1,.113.034l.123.154a2.554,2.554,0,0,0,.263.924.907.907,0,0,0,.822.361h.742a2.085,2.085,0,0,0,2.016-1.245c.087-.172.18-.343.273-.515a1.459,1.459,0,0,0,.113-.6,2.741,2.741,0,0,0-.221-.779c-.147-.38-.272-.57-.371-.57" transform="translate(16322 14135)" fill="#602651"/>
    <path id="Path_140673" data-name="Path 140673" d="M1413.934,729.888l.876.618c.124-.142.255-.288.385-.431a1.09,1.09,0,0,0,.264-.5l-.838-.576a2.931,2.931,0,0,0-.687.885" transform="translate(16322 14135)" fill="#602651"/>
    <path id="Path_140674" data-name="Path 140674" d="M1427.678,729.118a2.024,2.024,0,0,0-.9.373,2.6,2.6,0,0,0-.315,1.017,4.357,4.357,0,0,0,.567-.163,1.778,1.778,0,0,1,.6-.125,1.369,1.369,0,0,1,.452.1,1.72,1.72,0,0,0,.3.1c.069,0,.166-.154.291-.467a2.864,2.864,0,0,0,.18-.6,2.17,2.17,0,0,0-1.017-.25.452.452,0,0,0-.16.021" transform="translate(16322 14135)" fill="#602651"/>
    <path id="Path_140675" data-name="Path 140675" d="M1428.856,724.29q-.114,0-.623.865a2.949,2.949,0,0,0,.251.478,1.625,1.625,0,0,1,.239.841v.131a2.269,2.269,0,0,1-1.375.362h-.97a.845.845,0,0,1-.688-.406,1.5,1.5,0,0,1-.292-.892c0-.377.072-.036.213-.8a10.3,10.3,0,0,0,.211-1.751,3.882,3.882,0,0,0-.471-2.233c-.29.384-.5.678-.632.884a6.083,6.083,0,0,1,.407,2.092,9.469,9.469,0,0,1-.415,2.372c-.057.287-.352.495-.885.618a4.931,4.931,0,0,1-1.113.114h-.649q-.51-1.245-1.131-1.245c-.15,0-.366.211-.645.631a2.06,2.06,0,0,0-.419.9.582.582,0,0,0,.367.588c.044.013.276.056.7.135.246.041.367.132.367.277,0,.225-.191.39-.573.493a3.134,3.134,0,0,1-.858.113,7.783,7.783,0,0,0-2.063.2,1.513,1.513,0,0,0-1.244,1.521l.037.113h.2a2.052,2.052,0,0,1,1.555-.7c.2-.019.76-.031,1.677-.031a1.39,1.39,0,0,0,1.037-.515c.086-.094.313-.407.678-.934q.346-.518.593-.517h.584a1.829,1.829,0,0,0,1.846-1.028,1.236,1.236,0,0,0,.505.681,2.909,2.909,0,0,0,.663.347h1.112a2.087,2.087,0,0,0,2.017-1.245c.087-.172.177-.343.272-.515a1.477,1.477,0,0,0,.114-.6,2.753,2.753,0,0,0-.222-.779q-.222-.57-.372-.57" transform="translate(16322 14135)" fill="#602651"/>
    <path id="Path_140676" data-name="Path 140676" d="M1428.419,722.365a.345.345,0,0,0-.092.009c-.333.08-.425.152-.469.2a1.118,1.118,0,0,0-.17.52l-.027.152.14-.021a1.461,1.461,0,0,0,.274-.085.818.818,0,0,1,.252-.051.492.492,0,0,1,.177.04.554.554,0,0,0,.172.048c.095,0,.155-.106.223-.277a1.223,1.223,0,0,0,.093-.308l.009-.082-.068-.031a1.153,1.153,0,0,0-.514-.119" transform="translate(16322 14135)" fill="#f5a800"/>
    <path id="Path_140677" data-name="Path 140677" d="M1428.419,722.365a.345.345,0,0,0-.092.009c-.333.08-.425.152-.469.2a1.118,1.118,0,0,0-.17.52l-.027.152.14-.021a1.461,1.461,0,0,0,.274-.085.818.818,0,0,1,.252-.051.492.492,0,0,1,.177.04.554.554,0,0,0,.172.048c.095,0,.155-.106.223-.277a1.223,1.223,0,0,0,.093-.308l.009-.082-.068-.031A1.153,1.153,0,0,0,1428.419,722.365Z" transform="translate(16322 14135)" fill="none" stroke="#f5a800" stroke-miterlimit="10" stroke-width="4"/>
    <path id="Path_140678" data-name="Path 140678" d="M1429.516,720.522c-.137-.021-.275-.043-.409-.061s-.139-.1-.139-.138.046-.07.148-.112a.727.727,0,0,1,.277-.063.159.159,0,0,1,.128.042.717.717,0,0,0,.142.173l.028.019.035,0c.083,0,.155-.079.242-.247a.717.717,0,0,0,.1-.3.371.371,0,0,0-.159-.312.469.469,0,0,0-.282-.084,1.187,1.187,0,0,0-.787.383,1.134,1.134,0,0,0-.432.815.517.517,0,0,0,.274.471,1.762,1.762,0,0,0,.44.138l.091.019a1.854,1.854,0,0,1-.582.293,2.87,2.87,0,0,1-.817.119,1.654,1.654,0,0,1-.633-.111c-.218-.094-.327-.225-.332-.4a.26.26,0,0,1,.036-.027.493.493,0,0,1,.092-.043c.157-.017.312-.04.467-.061a.967.967,0,0,0,.447-.162.816.816,0,0,0,.265-.534l.033-.211-.176.094a1.035,1.035,0,0,1-.393.131c-.033,0-.137.01-.441.01-.2,0-.389.146-.558.434a1.38,1.38,0,0,0-.231.7.8.8,0,0,0,.418.706,1.406,1.406,0,0,0,.736.2,3.178,3.178,0,0,0,1.394-.334,1.3,1.3,0,0,0,.89-1.14.39.39,0,0,0-.312-.4" transform="translate(16322 14135)" fill="#f5a800"/>
    <path id="Path_140679" data-name="Path 140679" d="M1429.516,720.522c-.137-.021-.275-.043-.409-.061s-.139-.1-.139-.138.046-.07.148-.112a.727.727,0,0,1,.277-.063.159.159,0,0,1,.128.042.717.717,0,0,0,.142.173l.028.019.035,0c.083,0,.155-.079.242-.247a.717.717,0,0,0,.1-.3.371.371,0,0,0-.159-.312.469.469,0,0,0-.282-.084,1.187,1.187,0,0,0-.787.383,1.134,1.134,0,0,0-.432.815.517.517,0,0,0,.274.471,1.762,1.762,0,0,0,.44.138l.091.019a1.854,1.854,0,0,1-.582.293,2.87,2.87,0,0,1-.817.119,1.654,1.654,0,0,1-.633-.111c-.218-.094-.327-.225-.332-.4a.26.26,0,0,1,.036-.027.493.493,0,0,1,.092-.043c.157-.017.312-.04.467-.061a.967.967,0,0,0,.447-.162.816.816,0,0,0,.265-.534l.033-.211-.176.094a1.035,1.035,0,0,1-.393.131c-.033,0-.137.01-.441.01-.2,0-.389.146-.558.434a1.38,1.38,0,0,0-.231.7.8.8,0,0,0,.418.706,1.406,1.406,0,0,0,.736.2,3.178,3.178,0,0,0,1.394-.334,1.3,1.3,0,0,0,.89-1.14A.39.39,0,0,0,1429.516,720.522Z" transform="translate(16322 14135)" fill="none" stroke="#f5a800" stroke-miterlimit="10" stroke-width="4"/>
    <path id="Path_140680" data-name="Path 140680" d="M1431.05,719.767c.076,0,.151-.062.258-.219a.686.686,0,0,0,.147-.31l0-.062-.043-.035c-.384-.316-.422-.316-.465-.316-.065,0-.119.05-.246.229s-.154.253-.154.309v.055l.252.2c.19.143.212.151.249.151" transform="translate(16322 14135)" fill="#f5a800"/>
    <path id="Path_140681" data-name="Path 140681" d="M1431.05,719.767c.076,0,.151-.062.258-.219a.686.686,0,0,0,.147-.31l0-.062-.043-.035c-.384-.316-.422-.316-.465-.316-.065,0-.119.05-.246.229s-.154.253-.154.309v.055l.252.2C1430.991,719.759,1431.013,719.767,1431.05,719.767Z" transform="translate(16322 14135)" fill="none" stroke="#f5a800" stroke-miterlimit="10" stroke-width="5"/>
    <path id="Path_140682" data-name="Path 140682" d="M1431.616,720.468a.853.853,0,0,0-.523-.181c-.1,0-.193.074-.284.222a1.076,1.076,0,0,0-.132.324l-.029.144.133-.008a.619.619,0,0,1,.4.1.4.4,0,0,1,.182.283.463.463,0,0,1-.227.047c-.022,0-.1,0-.221-.007s-.234-.009-.323-.009c-.507,0-.637.066-.691.121a.844.844,0,0,0-.154.248c-.1.193-.1.234-.1.269a.169.169,0,0,0,.058.145l.037.029.044-.008a3.439,3.439,0,0,1,.68-.109c.048,0,.118,0,.211.01s.172.011.224.011a.737.737,0,0,0,.674-.34,1.64,1.64,0,0,0,.318-.761.648.648,0,0,0-.274-.532" transform="translate(16322 14135)" fill="#f5a800"/>
    <path id="Path_140683" data-name="Path 140683" d="M1431.616,720.468a.853.853,0,0,0-.523-.181c-.1,0-.193.074-.284.222a1.076,1.076,0,0,0-.132.324l-.029.144.133-.008a.619.619,0,0,1,.4.1.4.4,0,0,1,.182.283.463.463,0,0,1-.227.047c-.022,0-.1,0-.221-.007s-.234-.009-.323-.009c-.507,0-.637.066-.691.121a.844.844,0,0,0-.154.248c-.1.193-.1.234-.1.269a.169.169,0,0,0,.058.145l.037.029.044-.008a3.439,3.439,0,0,1,.68-.109c.048,0,.118,0,.211.01s.172.011.224.011a.737.737,0,0,0,.674-.34,1.64,1.64,0,0,0,.318-.761A.648.648,0,0,0,1431.616,720.468Z" transform="translate(16322 14135)" fill="none" stroke="#f5a800" stroke-miterlimit="10" stroke-width="3"/>
    <path id="Path_140684" data-name="Path 140684" d="M1428.35,722.479a.913.913,0,0,0-.418.173,1.211,1.211,0,0,0-.144.47,1.669,1.669,0,0,0,.257-.081.872.872,0,0,1,.282-.058.629.629,0,0,1,.209.047,1.114,1.114,0,0,0,.14.045c.031,0,.075-.073.128-.215a1.193,1.193,0,0,0,.089-.277,1.088,1.088,0,0,0-.474-.108.294.294,0,0,0-.069,0" transform="translate(16322 14135)" fill="#602651"/>
    <path id="Path_140685" data-name="Path 140685" d="M1429.852,719.609a.365.365,0,0,0-.225-.064,1.1,1.1,0,0,0-.723.354,1.024,1.024,0,0,0-.4.731.4.4,0,0,0,.218.372,1.694,1.694,0,0,0,.412.128c.161.032.247.064.261.1a1.675,1.675,0,0,1-.742.427,2.952,2.952,0,0,1-.845.123,1.8,1.8,0,0,1-.669-.116.555.555,0,0,1-.4-.515c0-.038.028-.075.088-.107a.376.376,0,0,1,.129-.059c.157-.02.312-.039.465-.062a.869.869,0,0,0,.4-.141.7.7,0,0,0,.225-.463,1.2,1.2,0,0,1-.425.145c-.052,0-.2.007-.453.007q-.248,0-.474.385a1.271,1.271,0,0,0-.213.642.684.684,0,0,0,.366.608,1.3,1.3,0,0,0,.687.186,3.066,3.066,0,0,0,1.352-.325q.831-.4.83-1.039a.28.28,0,0,0-.226-.3c-.136-.02-.272-.042-.413-.061a.237.237,0,0,1-.22-.247c0-.085.07-.156.212-.213a.793.793,0,0,1,.314-.071.238.238,0,0,1,.208.086.891.891,0,0,0,.117.145c.044,0,.1-.065.161-.188a.679.679,0,0,0,.087-.253.255.255,0,0,0-.114-.219" transform="translate(16322 14135)" fill="#602651"/>
    <path id="Path_140686" data-name="Path 140686" d="M1431.05,719.656c.037,0,.1-.058.178-.175a.632.632,0,0,0,.125-.252,1.82,1.82,0,0,0-.4-.295c-.023,0-.078.063-.167.189a.666.666,0,0,0-.132.239c.068.056.139.107.209.161a.962.962,0,0,0,.191.133" transform="translate(16322 14135)" fill="#602651"/>
    <path id="Path_140687" data-name="Path 140687" d="M1431.558,720.559a.767.767,0,0,0-.465-.161c-.064,0-.13.057-.2.172a.878.878,0,0,0-.117.29.728.728,0,0,1,.461.117.505.505,0,0,1,.23.429.455.455,0,0,1-.331.1l-.224-.008c-.126,0-.231-.005-.32-.005a1.131,1.131,0,0,0-.63.1.968.968,0,0,0-.126.211.911.911,0,0,0-.091.217.069.069,0,0,0,.018.057,3.6,3.6,0,0,1,.7-.11c.05,0,.121,0,.218.01s.168.012.217.012a.647.647,0,0,0,.59-.291,1.594,1.594,0,0,0,.3-.7.54.54,0,0,0-.23-.441" transform="translate(16322 14135)" fill="#602651"/>
  </g>
</svg>
