<svg xmlns="http://www.w3.org/2000/svg" xmlns:xlink="http://www.w3.org/1999/xlink" width="72.918" height="56.256" viewBox="0 0 72.918 56.256">
  <defs>
    <clipPath id="clip-path">
      <path id="Path_144609" data-name="Path 144609" d="M1634.389,131.338a94.581,94.581,0,0,1-18.345-1.584h0a105.958,105.958,0,0,1,1.529,19.091,106.024,106.024,0,0,1-1.528,19.091h0a107.058,107.058,0,0,1,36.7,0h0a106.075,106.075,0,0,1-1.524-19.09,106.076,106.076,0,0,1,1.524-19.088v0a94.562,94.562,0,0,1-18.353,1.584" fill="none"/>
    </clipPath>
    <radialGradient id="radial-gradient" cx="0.496" cy="0.408" r="0.603" gradientTransform="translate(1.776 -1.007) scale(1.04 1.04)" gradientUnits="objectBoundingBox">
      <stop offset="0" stop-color="#7ca7ad"/>
      <stop offset="0.119" stop-color="#5e9396"/>
      <stop offset="0.287" stop-color="#3c7b7b"/>
      <stop offset="0.458" stop-color="#226966"/>
      <stop offset="0.632" stop-color="#0f5c57"/>
      <stop offset="0.81" stop-color="#03544e"/>
      <stop offset="1" stop-color="#00524c"/>
    </radialGradient>
  </defs>
  <g id="Client_3" transform="translate(-17918.068 -14264.752)">
    <g id="Group_124942" data-name="Group 124942" transform="translate(16322 14135)">
      <g id="Group_124941" data-name="Group 124941" clip-path="url(#clip-path)">
        <rect id="Rectangle_17598" data-name="Rectangle 17598" width="36.702" height="38.182" transform="translate(1616.04 129.754)" fill="url(#radial-gradient)"/>
      </g>
    </g>
    <path id="Path_144610" data-name="Path 144610" d="M1638.233,143.991c.015-.251-.293-.609-.411-.729l-.094-.087.109-.056c.063-.029.091-.066.093-.1.008-.169-.379-.491-.655-.661l-.109-.068.1-.077a.211.211,0,0,0,.034-.032,2.491,2.491,0,0,1-.2-.284.457.457,0,0,1-.293.1,1.336,1.336,0,0,1-.74-.32l-.014-.015a12.807,12.807,0,0,0-1.316-1.337,10.708,10.708,0,0,1,.589,1.447c.374.648.657.548.657.548l.088-.029.014.1c.078.689.4.71.414.71l.071,0v.084a.886.886,0,0,0,.429.837l.046.023.006.053a3.272,3.272,0,0,0,.211,1.012l.012.025,0,.023c-.016.195.245.553.432.754a.286.286,0,0,0,.167-.12,1.163,1.163,0,0,0,.062-.682l-.01-.055.035-.032a.573.573,0,0,0,.145-.729l-.04-.074.062-.047a.24.24,0,0,0,.1-.18" transform="translate(16322 14135)" fill="#fff"/>
    <path id="Path_144611" data-name="Path 144611" d="M1640.327,143.582l.008-.035a1.008,1.008,0,0,0-.288-1.086l-.047-.035.017-.068a.494.494,0,0,0-.026-.385,1.444,1.444,0,0,0-.767-.57l-.094-.03.041-.1a.29.29,0,0,0,.014-.277c-.136-.252-.734-.31-.953-.31h-.105l.033-.115a.519.519,0,0,0,.022-.122.046.046,0,0,0-.027.008,1.089,1.089,0,0,1-.621-.222.881.881,0,0,1-.767.3,1.941,1.941,0,0,1-.3-.023l-.014,0a9.344,9.344,0,0,0-1.723-.512.665.665,0,0,0-.113-.016s-.016,0-.019.007c.041.029.089.065.141.1.067.054.143.115.222.181a14.294,14.294,0,0,1,1.207,1.251,1.166,1.166,0,0,0,.649.287.277.277,0,0,0,.245-.108l.027-.047.035-.059.059.107a2.568,2.568,0,0,0,.246.361.974.974,0,0,0,.068.072.483.483,0,0,0,.337.179.194.194,0,0,0,.121-.032l.068-.055.044.084c.3.66.668.733.809.733a.145.145,0,0,0,.045,0l.054-.01.027.055a4.494,4.494,0,0,0,.756,1.107l.017.016.005.016c.1.3.584.536.81.62.295-.409-.234-1.228-.237-1.236Z" transform="translate(16322 14135)" fill="#fff"/>
    <path id="Path_144612" data-name="Path 144612" d="M1641.627,140.787a1.215,1.215,0,0,0-.5-.589l-.044-.024v-.056c.021-.649-.46-.711-.481-.715l-.079-.01.012-.084a.313.313,0,0,0-.055-.236.737.737,0,0,0-.58-.18,2.076,2.076,0,0,0-.337.028l-.119.021.032-.128a.237.237,0,0,0,0-.173.251.251,0,0,0-.214-.072,2.677,2.677,0,0,0-.831.22l-.116.053.012-.141a.237.237,0,0,0-.036-.185.336.336,0,0,0-.27-.087,2.374,2.374,0,0,0-.684.151l-.026.016a.945.945,0,0,1-.5.125c-.022.158-.137.464-.678.736l-.013.005s-.291.066-.63.167a5.571,5.571,0,0,0-.625.217l-.013,0c.066.01.134.023.206.041a11.567,11.567,0,0,1,1.435.461,1.709,1.709,0,0,0,.274.022c.556,0,.674-.28.674-.282l.037-.094.077.055a1.006,1.006,0,0,0,.582.237h.018c.029,0,.055-.007.078-.01a.424.424,0,0,0,.074-.021.329.329,0,0,0,.139-.093l.051-.065.056.052a.974.974,0,0,0,.655.286.677.677,0,0,0,.349-.087l.047-.027.039.036a2.878,2.878,0,0,0,.967.546l.023.008.016.017a.809.809,0,0,0,.592.154,2.624,2.624,0,0,0,.349-.024.388.388,0,0,0,.038-.275" transform="translate(16322 14135)" fill="#fff"/>
    <path id="Path_144613" data-name="Path 144613" d="M1636.081,139.294c.561-.283.581-.588.581-.641v-.007l-.008-.08v-.021l.048,0h.042a1.119,1.119,0,0,0,.263-.018c.021-.006.045-.009.065-.014a.689.689,0,0,0,.176-.08c.028-.02.047-.038.072-.054a.358.358,0,0,0,.105-.186l.014-.081.075.009a.663.663,0,0,0,.154.014.726.726,0,0,0,.644-.359l.023-.047.052.008c.079.007.17.015.257.015a2.129,2.129,0,0,0,.653-.1l.024-.006.019.006a.141.141,0,0,0,.053.008,1.476,1.476,0,0,0,.672-.369.325.325,0,0,0-.072-.2.783.783,0,0,0-.549-.186h-.035l-.052,0-.022-.048a.474.474,0,0,0-.418-.322.42.42,0,0,0-.191.045l-.073.036-.031-.081a.2.2,0,0,0-.2-.147,1.268,1.268,0,0,0-.639.354l-.092.086-.032-.133c-.029-.121-.073-.121-.094-.121-.166,0-.494.389-.66.631l-.077.112-.051-.13c-.04-.1-.092-.116-.131-.116l-.022,0a.888.888,0,0,1-.366.279.712.712,0,0,1-.437.624,1.067,1.067,0,0,1-.291.847l-.013.013a9.924,9.924,0,0,0-.751.708c-.066.068-.122.14-.177.209,0,.005,0,.01-.008.016s0,.008-.009.013a4.246,4.246,0,0,1,.409-.176,10.08,10.08,0,0,1,1.1-.324" transform="translate(16322 14135)" fill="#fff"/>
    <path id="Path_144614" data-name="Path 144614" d="M1634.848,139.237c.265-.263.524-.483.574-.522.361-.483.239-.723.239-.726l-.045-.074,0-.009.014-.009.067-.032a1.064,1.064,0,0,0,.282-.2.462.462,0,0,0,.13-.284.252.252,0,0,0,0-.052l-.012-.055-.008-.026.049-.019.023-.007a.727.727,0,0,0,.383-.3.627.627,0,0,0,.109-.288l0-.054.049-.018a2.109,2.109,0,0,0,.673-.434l.018-.018.02-.005c.141-.027.33-.349.429-.563a.23.23,0,0,0-.229-.134.863.863,0,0,0-.383.122l-.038.026-.039-.033a.443.443,0,0,0-.267-.111.385.385,0,0,0-.28.146l-.047.07-.063-.06a.155.155,0,0,0-.108-.052c-.187,0-.4.408-.454.554l-.047.121-.081-.1a.39.39,0,0,0-.052-.056c-.123,0-.272.4-.343.752l-.028.139-.1-.092a.139.139,0,0,0-.081-.047c-.136.795-.468,2.034-.666,2.718a.792.792,0,0,1-.026.1c.052-.058.1-.118.159-.179s.119-.125.178-.187" transform="translate(16322 14135)" fill="#fff"/>
    <path id="Path_144615" data-name="Path 144615" d="M1632.724,141.656l-.013.016a1.328,1.328,0,0,1-.738.32.452.452,0,0,1-.3-.1,2.339,2.339,0,0,1-.2.285.386.386,0,0,0,.034.031l.106.077-.113.068c-.271.171-.66.492-.653.661a.152.152,0,0,0,.092.1l.11.056-.09.087c-.119.12-.428.478-.413.729a.229.229,0,0,0,.1.18l.065.047-.043.074a.572.572,0,0,0,.142.729l.036.032-.007.055a1.13,1.13,0,0,0,.061.682.284.284,0,0,0,.164.12c.189-.2.452-.559.433-.754v-.023l.005-.025a3.124,3.124,0,0,0,.22-1.012l0-.054.044-.022a.873.873,0,0,0,.429-.837V143.1h.075c.013,0,.336-.021.414-.711l.015-.1.084.033s.289.093.659-.547a10.67,10.67,0,0,1,.589-1.448,13.7,13.7,0,0,0-1.317,1.336" transform="translate(16322 14135)" fill="#fff"/>
    <path id="Path_144616" data-name="Path 144616" d="M1634.059,140.005a9.162,9.162,0,0,0-1.722.516l-.017,0a2.171,2.171,0,0,1-.3.021.87.87,0,0,1-.768-.3,1.084,1.084,0,0,1-.6.22c-.019,0-.031-.007-.046-.007a.543.543,0,0,0,.019.122l.035.116h-.1c-.222,0-.817.057-.954.31a.3.3,0,0,0,.011.276l.041.094-.086.029a1.473,1.473,0,0,0-.773.573.532.532,0,0,0-.024.385l.018.067-.047.035a1,1,0,0,0-.29,1.085l.009.037-.021.035c0,.008-.532.827-.238,1.238.225-.085.705-.323.808-.622l.009-.016.014-.016a4.533,4.533,0,0,0,.762-1.107l.022-.055.055.009s.014,0,.044,0c.144,0,.509-.071.809-.732l.038-.088.074.059a.208.208,0,0,0,.12.031.492.492,0,0,0,.337-.178.519.519,0,0,0,.065-.073,2.292,2.292,0,0,0,.245-.36l.063-.113.037.063.028.05a.277.277,0,0,0,.244.106,1.181,1.181,0,0,0,.649-.286,13.5,13.5,0,0,1,1.209-1.252c.077-.066.149-.127.221-.181.05-.034.1-.072.143-.1a.056.056,0,0,0-.017-.006.852.852,0,0,0-.119.013" transform="translate(16322 14135)" fill="#fff"/>
    <path id="Path_144617" data-name="Path 144617" d="M1628.153,140.914l.021-.006a2.87,2.87,0,0,0,.97-.547l.04-.036.042.027a.722.722,0,0,0,.35.086.958.958,0,0,0,.655-.285l.056-.051.051.064a.359.359,0,0,0,.139.092.6.6,0,0,0,.076.022c.026,0,.051.008.078.01h.019a1.023,1.023,0,0,0,.583-.237l.079-.059.029.1c.005,0,.117.283.677.283a1.593,1.593,0,0,0,.275-.023,11.43,11.43,0,0,1,1.436-.461,1.775,1.775,0,0,1,.2-.039.027.027,0,0,0-.012-.006,6.606,6.606,0,0,0-.624-.219c-.341-.1-.622-.166-.622-.166l-.024-.005c-.536-.271-.654-.578-.678-.735a.906.906,0,0,1-.494-.125l-.033-.015a2.238,2.238,0,0,0-.68-.153.339.339,0,0,0-.271.088.245.245,0,0,0-.035.184l.015.142-.119-.053a2.7,2.7,0,0,0-.832-.22c-.108,0-.183.027-.211.072a.219.219,0,0,0-.007.173l.032.128-.116-.021a2.125,2.125,0,0,0-.337-.028.736.736,0,0,0-.579.18.3.3,0,0,0-.055.237l.005.083-.075.011c-.017,0-.5.07-.479.714v.056l-.042.024a1.222,1.222,0,0,0-.5.588.412.412,0,0,0,.035.276,2.747,2.747,0,0,0,.354.023.791.791,0,0,0,.588-.153Z" transform="translate(16322 14135)" fill="#fff"/>
    <path id="Path_144618" data-name="Path 144618" d="M1634.2,139.763c-.056-.066-.117-.14-.179-.209a10.107,10.107,0,0,0-.752-.708l-.011-.012a1.08,1.08,0,0,1-.291-.844.715.715,0,0,1-.435-.625.909.909,0,0,1-.368-.281.059.059,0,0,1-.015,0c-.045,0-.1.013-.136.117l-.052.129-.077-.112c-.168-.243-.5-.63-.662-.63-.02,0-.066,0-.091.121l-.034.131-.089-.086c-.007,0-.378-.353-.644-.353a.2.2,0,0,0-.2.147l-.027.081-.076-.036a.42.42,0,0,0-.188-.045.481.481,0,0,0-.423.323l-.021.047-.05,0h-.036a.774.774,0,0,0-.549.184.3.3,0,0,0-.073.2,1.5,1.5,0,0,0,.672.369.232.232,0,0,0,.053-.006l.021-.006.019.006a2.235,2.235,0,0,0,.657.1c.088,0,.176-.008.258-.013l.049-.008.027.047a.726.726,0,0,0,.642.356.758.758,0,0,0,.156-.013l.068-.009.015.083a.428.428,0,0,0,.109.184.629.629,0,0,0,.068.054.678.678,0,0,0,.177.079l.071.017a1.158,1.158,0,0,0,.26.016l.038,0,.056,0,0,.027-.016.077v.009c0,.046.023.35.586.638a10.086,10.086,0,0,1,1.1.324,3.734,3.734,0,0,1,.405.176.016.016,0,0,0-.005-.011.037.037,0,0,0-.007-.019" transform="translate(16322 14135)" fill="#fff"/>
    <path id="Path_144619" data-name="Path 144619" d="M1633.586,136.787c-.027,0-.052.021-.086.048l-.095.094-.026-.142c-.074-.362-.22-.752-.322-.752-.026,0-.05.023-.077.059l-.077.1-.052-.121c-.058-.143-.267-.554-.45-.554a.145.145,0,0,0-.11.052l-.059.06-.05-.07a.394.394,0,0,0-.282-.147.415.415,0,0,0-.26.112l-.041.033-.041-.026a.882.882,0,0,0-.384-.123.229.229,0,0,0-.228.135c.1.216.29.535.429.563l.019,0,.02.018a2.069,2.069,0,0,0,.673.435l.046.018.006.056a.678.678,0,0,0,.1.288.767.767,0,0,0,.391.295l.022.006.047.018-.006.027-.016.054a.263.263,0,0,0,0,.053.422.422,0,0,0,.129.283.948.948,0,0,0,.28.2l.068.032.018.009,0,.01-.049.075s-.124.24.241.724c.047.039.305.26.567.522.066.063.122.125.181.189s.109.119.159.177c-.013-.03-.018-.064-.029-.1-.191-.681-.525-1.922-.658-2.717" transform="translate(16322 14135)" fill="#fff"/>
    <path id="Path_144620" data-name="Path 144620" d="M1635.05,136.791c.007-.046.012-.089.021-.133a1.8,1.8,0,0,0,.042-.456h-.062l.008-.1a2.442,2.442,0,0,0-.1-1.24.078.078,0,0,0-.056-.03.156.156,0,0,0-.059.018l-.087.052-.023-.112a2,2,0,0,0-.348-.869,2.066,2.066,0,0,0-.348.869l-.018.112-.091-.052a.149.149,0,0,0-.056-.018.1.1,0,0,0-.056.03,2.367,2.367,0,0,0-.1,1.24l.009.1h-.056a1.588,1.588,0,0,0,.04.456.809.809,0,0,0,.022.133c.01.067.028.144.041.223.116.563.309,1.345.525,2.137a.4.4,0,0,0,.017.052c.02.076.042.152.063.232a.064.064,0,0,1,.006.03.146.146,0,0,0,.01-.03c.02-.081.042-.156.064-.232a.454.454,0,0,0,.015-.052c.217-.792.41-1.574.527-2.137.017-.079.031-.156.044-.223" transform="translate(16322 14135)" fill="#fff"/>
    <path id="Path_144621" data-name="Path 144621" d="M1636.822,152.675h-2.036l.389-1.98-.342-.354.44-1.8-.343-.178.452-1.968-.412-.314.362-1.678-.414-.24.257-1.492-.342-.235.052-1.612a1.874,1.874,0,0,0-.495-.808h0a1.88,1.88,0,0,0-.492.8l0,.007.056,1.612-.344.235.258,1.492-.415.24.363,1.678-.413.314.455,1.968-.344.178.438,1.8-.342.354.44,1.992h-2.083s-.268.119-.178.329a5.546,5.546,0,0,0,1.239,1.264c.086-.047.086-.471.149-.549.039-.056.351.433.554.551,0,0,.34-.253.658-.461a2.75,2.75,0,0,1,.53.461c.207-.118.653-.615.7-.564.053.081.053.5.143.557a5.751,5.751,0,0,0,1.243-1.268c.087-.213-.178-.332-.178-.332" transform="translate(16322 14135)" fill="#fff"/>
    <path id="Path_144622" data-name="Path 144622" d="M1628.6,153.708c-1.462-.856-4.674-1.824-7.23-.83,0,0,3.405-.3,7.919,2.818a55.207,55.207,0,0,1,7.252,6.278l.914-.937a39.2,39.2,0,0,0-8.855-7.329" transform="translate(16322 14135)" fill="#fff"/>
    <path id="Path_144623" data-name="Path 144623" d="M1641.863,161.584a.65.65,0,0,0-1.019-.008,1.649,1.649,0,0,1-1.266.652,1.882,1.882,0,0,1-1.57-.779.382.382,0,0,1,.038-.3.435.435,0,0,0,.4-.115.448.448,0,0,0,.073-.609.41.41,0,0,0-.6-.005.472.472,0,0,0-.135.5.292.292,0,0,1-.1.144.1.1,0,0,0-.027-.093.093.093,0,0,0-.135,0l-.066.065-.915.935-.15.153a.1.1,0,0,0,0,.143.1.1,0,0,0,.045.025.248.248,0,0,1-.041.014.471.471,0,0,0-.335.125.446.446,0,0,0-.069.614.405.405,0,0,0,.591,0,.482.482,0,0,0,.157-.409c.022-.091.056-.19.111-.214.1-.056.186,0,.3.137a4.125,4.125,0,0,0,2.84,1.206c1.087-.024,2.624-1.052,1.872-2.185" transform="translate(16322 14135)" fill="#fff"/>
    <path id="Path_144624" data-name="Path 144624" d="M1640.183,153.708c1.459-.856,4.672-1.824,7.225-.83,0,0-3.4-.3-7.916,2.818a55.525,55.525,0,0,0-7.253,6.278l-.913-.937a39.218,39.218,0,0,1,8.857-7.329" transform="translate(16322 14135)" fill="#fff"/>
    <path id="Path_144625" data-name="Path 144625" d="M1626.924,161.584a.652.652,0,0,1,1.021-.008,1.643,1.643,0,0,0,1.267.652,1.88,1.88,0,0,0,1.563-.779.361.361,0,0,0-.037-.3.438.438,0,0,1-.4-.115.443.443,0,0,1-.068-.609.4.4,0,0,1,.591-.005.464.464,0,0,1,.133.5.381.381,0,0,0,.1.144.116.116,0,0,1,.026-.093.1.1,0,0,1,.139,0l.063.065.914.935.152.153a.106.106,0,0,1,0,.143.115.115,0,0,1-.04.025.094.094,0,0,0,.036.014.464.464,0,0,1,.334.125.452.452,0,0,1,.072.614.408.408,0,0,1-.593,0,.48.48,0,0,1-.16-.409c-.016-.091-.056-.19-.112-.214-.1-.056-.185,0-.3.137a4.112,4.112,0,0,1-2.834,1.206c-1.092-.024-2.633-1.052-1.873-2.185" transform="translate(16322 14135)" fill="#fff"/>
    <path id="Path_144626" data-name="Path 144626" d="M1599.4,177.834a2.877,2.877,0,0,1-.571,1.587q-.521.775-1.09.777a3.157,3.157,0,0,1-.955-.26c-.48-.191-.72-.346-.72-.47a.051.051,0,0,1,.055-.058,3.711,3.711,0,0,1,.423.166,1.686,1.686,0,0,0,.626.166,1.99,1.99,0,0,0,1.25-.732,2.013,2.013,0,0,0,.73-1.271q0-.389-.89-1.057c.035-.154.093-.433.179-.84a2.757,2.757,0,0,1,.665.711,2.506,2.506,0,0,1,.3,1.281" transform="translate(16322 14135)" fill="#00524c"/>
    <path id="Path_144627" data-name="Path 144627" d="M1601.908,178.185h-1.287q-.132-2.506-.338-4.774c.094-.13.241-.334.439-.615l.214,2.626a16.936,16.936,0,0,0,.214,1.889.521.521,0,0,0,.06.066.45.45,0,0,0,.355.111h.343Z" transform="translate(16322 14135)" fill="#00524c"/>
    <rect id="Rectangle_17599" data-name="Rectangle 17599" width="1.305" height="0.696" transform="translate(17923.676 14312.489)" fill="#00524c"/>
    <path id="Path_144628" data-name="Path 144628" d="M1606.909,178.185h-.543l-.2.456-1.684-.959c-.073,0-.15.084-.23.251s-.172.252-.272.252h-1.15v-.7h1.205c.143,0,.253-.109.328-.324a3.062,3.062,0,0,1,.224-.537,3.774,3.774,0,0,1,.612-.46,1.448,1.448,0,0,1,.7-.256c.116,0,.174.055.174.166a1.924,1.924,0,0,1-.009.291s-.006,0-.009-.01q.264,1.059.675,1.13h.187Zm-.935-.712c-.043-.206-.078-.36-.1-.466q-.1-.38-.324-.38a.809.809,0,0,0-.739.39l.465.275a1.415,1.415,0,0,0,.5.223c.029,0,.1-.017.2-.042" transform="translate(16322 14135)" fill="#00524c"/>
    <rect id="Rectangle_17600" data-name="Rectangle 17600" width="1.305" height="0.696" transform="translate(17928.723 14312.489)" fill="#00524c"/>
    <path id="Path_144629" data-name="Path 144629" d="M1610.413,178.185h-.384a.478.478,0,0,1-.269-.093.51.51,0,0,1-.114-.176.445.445,0,0,0-.087-.149c-.024,0-.076.071-.155.209s-.138.209-.178.209h-1.355v-.7h1.747l.019-.916q.224-.312.607-.76a.188.188,0,0,1,.009.081,8.37,8.37,0,0,1-.151,1.311,1.509,1.509,0,0,0-.027.2c.006.055.05.08.132.08h.206Zm-.283-3.665-.315.546-.739-.46-.233.427-.776-.475.324-.565.721.472.251-.429Zm-.849-1.2-.329.557-.725-.481.324-.541Z" transform="translate(16322 14135)" fill="#00524c"/>
    <path id="Path_144630" data-name="Path 144630" d="M1612.775,178.186h-.383a.39.39,0,0,1-.383-.272.434.434,0,0,0-.086-.146c-.025,0-.077.068-.156.209s-.138.209-.178.209h-1.355v-.7h1.748l.018-.916q.224-.314.607-.758.009.008.009.081a8.23,8.23,0,0,1-.151,1.309,1.494,1.494,0,0,0-.027.2c.006.054.05.08.132.08h.205Zm-.259-3.723-.32.552-.748-.467-.233.429-.766-.467.319-.573.726.473.246-.426Z" transform="translate(16322 14135)" fill="#00524c"/>
    <path id="Path_144631" data-name="Path 144631" d="M1618.252,177.117a2.414,2.414,0,0,1-.115.728,1.044,1.044,0,0,1-.145.34h-1.132a.248.248,0,0,1-.142-.146l-.054-.113c-.052.055-.146.142-.283.259h-2.017c-.081-.172-.132-.259-.15-.259.079,0,.042.043-.112.128a.843.843,0,0,1-.317.131H1612.6v-.7h1.446c.125,0,.2-.088.223-.266.006-.041.01-.172.01-.4l.6-.67a4.036,4.036,0,0,1-.292,1.334h1.907c.025.014.037-.152.037-.5,0-.16.211-.415.634-.76q-.083.313-.269,1.13c-.028.089.2.133.688.133.086,0,.18,0,.283-.005-.018-.136-.065-.359-.141-.674-.021-.048.044-.153.2-.317a2.985,2.985,0,0,0,.329-.39Z" transform="translate(16322 14135)" fill="#00524c"/>
    <path id="Path_144632" data-name="Path 144632" d="M1622.987,173.511c.028.011-.023.1-.151.259-.064.083-.159.209-.287.38.006.13.009.247.009.352a3.4,3.4,0,0,1-.274,1.3,3.786,3.786,0,0,1-.251.478,1.782,1.782,0,0,0-.16.289,7.3,7.3,0,0,1,.274.992,1.851,1.851,0,0,1,.019.234q0,.435-.384.435h-1.943l.118-.735a2.563,2.563,0,0,0,.89-.563c.356-.3.534-.484.534-.547a2.426,2.426,0,0,0-.507-.78,8.5,8.5,0,0,0-.8-.9c-.025.089-.06.217-.106.381-.431-.3-.7-.494-.8-.584a.85.85,0,0,1-.356-.6c-.012-.548.07-.826.246-.826a1.338,1.338,0,0,1,.456.272,6.263,6.263,0,0,1,1,.955,8.708,8.708,0,0,1,1.178,1.8,1.044,1.044,0,0,0,.264-.332,1.427,1.427,0,0,0,.2-.557,1.837,1.837,0,0,0,.009-.214,7.163,7.163,0,0,0-.178-1.243,1.384,1.384,0,0,1-.232-.3.784.784,0,0,1,.2-.544c.159-.228.242-.323.248-.282a1.072,1.072,0,0,0,.287.541,1.124,1.124,0,0,0,.507.343m-1.177,4.071a2.28,2.28,0,0,0-.205-.845,2.259,2.259,0,0,1-.667.567,5.168,5.168,0,0,1-.456.269c0,.044.125.068.374.068s.561-.021.954-.059" transform="translate(16322 14135)" fill="#00524c"/>
    <path id="Path_144633" data-name="Path 144633" d="M1624.594,177.259a3.9,3.9,0,0,1-.316,1.2c-.1-1.226-.241-2.713-.42-4.452a2.8,2.8,0,0,1,.5-1.206q.042.07.142,2.245Z" transform="translate(16322 14135)" fill="#00524c"/>
    <path id="Path_144634" data-name="Path 144634" d="M1628.156,177.213a4.291,4.291,0,0,1-.392,1.827,2.776,2.776,0,0,1-.534.778,1.009,1.009,0,0,1-.794.389,6.91,6.91,0,0,1-.935-.161c-.505-.112-.758-.215-.758-.3,0-.047.032-.07.1-.07a1.874,1.874,0,0,1,.438.078,1.889,1.889,0,0,0,.447.078.781.781,0,0,0,.292-.048,3.57,3.57,0,0,0,1.232-.843,1.772,1.772,0,0,0,.634-1.2,1.386,1.386,0,0,0-.054-.425,1.292,1.292,0,0,1-.447.629.808.808,0,0,1-.466.057.508.508,0,0,1-.415-.327,1.333,1.333,0,0,1-.119-.556,2.044,2.044,0,0,1,.352-.944c.255-.428.481-.641.675-.641.134,0,.289.178.465.536a2.5,2.5,0,0,1,.283,1.145m-.488-.086a1.014,1.014,0,0,0-.137-.479c-.1-.187-.222-.284-.355-.29a.487.487,0,0,0-.343.2.55.55,0,0,0-.191.362c.005.11.088.2.246.262a.983.983,0,0,0,.369.076.5.5,0,0,0,.411-.134" transform="translate(16322 14135)" fill="#00524c"/>
    <path id="Path_144635" data-name="Path 144635" d="M1633.006,176.6a2.374,2.374,0,0,1-.265.826,1.894,1.894,0,0,1-.373.408,1.626,1.626,0,0,1-.849.352,1.033,1.033,0,0,1-.561-.075.467.467,0,0,1-.3-.451,3.006,3.006,0,0,1,.721-1.457l.616-.836a2.389,2.389,0,0,0,.383.35,4.9,4.9,0,0,1,.384.31.764.764,0,0,1,.246.573m-.228-2.4-.315.547-.739-.466-.224.435-.784-.472.324-.577.72.475.251-.427Zm-.278,2.819c-.012-.239-.255-.513-.73-.815a7.8,7.8,0,0,0-.511.72.528.528,0,0,0-.05.213c0,.227.127.338.383.338a1.857,1.857,0,0,0,.739-.171.32.32,0,0,0,.169-.285" transform="translate(16322 14135)" fill="#00524c"/>
    <path id="Path_144636" data-name="Path 144636" d="M1636.031,177.834a2.884,2.884,0,0,1-.57,1.587q-.521.775-1.091.777a3.15,3.15,0,0,1-.953-.26c-.481-.191-.721-.346-.721-.47,0-.038.018-.058.054-.058a3.631,3.631,0,0,1,.423.166,1.686,1.686,0,0,0,.627.166,2.836,2.836,0,0,0,1.98-2q0-.389-.89-1.057c.034-.154.093-.433.178-.84a2.783,2.783,0,0,1,.666.711,2.506,2.506,0,0,1,.3,1.281" transform="translate(16322 14135)" fill="#00524c"/>
    <path id="Path_144637" data-name="Path 144637" d="M1638.536,178.185h-1.287q-.132-2.506-.337-4.774c.094-.13.24-.334.438-.615l.214,2.626a16.693,16.693,0,0,0,.214,1.889.619.619,0,0,0,.06.066.451.451,0,0,0,.355.111h.343Z" transform="translate(16322 14135)" fill="#00524c"/>
    <rect id="Rectangle_17601" data-name="Rectangle 17601" width="1.305" height="0.696" transform="translate(17960.305 14312.489)" fill="#00524c"/>
    <rect id="Rectangle_17602" data-name="Rectangle 17602" width="1.304" height="0.696" transform="translate(17961.436 14312.489)" fill="#00524c"/>
    <path id="Path_144638" data-name="Path 144638" d="M1646.05,178.185h-1.811q-.233,0-.328-.378c-.021-.081-.05-.269-.087-.567a2.289,2.289,0,0,1-.408.321,3.13,3.13,0,0,0-.413.311,1.039,1.039,0,0,1-.776.313h-1.642v-.7h1.661a2.656,2.656,0,0,0,1.629-.759l-1.15-.252-.365-.081a1.407,1.407,0,0,0-.749.363.053.053,0,0,0-.009-.03.88.88,0,0,1,.073-.3q.319-.78.908-.78a4.172,4.172,0,0,1,1.068.228,6.216,6.216,0,0,0,1.606.339h.223c.213-.008.291-.011.233-.011-.055.161-.15.4-.288.723a2.044,2.044,0,0,0-.237-.011,2.432,2.432,0,0,0-1.081.194.4.4,0,0,0,.169.338l.073.042h1.7Zm-2.075,1.353-.324.562-.73-.475.324-.537Z" transform="translate(16322 14135)" fill="#00524c"/>
    <path id="Path_144639" data-name="Path 144639" d="M1648.442,178.186h-.383a.389.389,0,0,1-.384-.272.414.414,0,0,0-.086-.146c-.025,0-.076.068-.155.209s-.139.209-.178.209H1645.9v-.7h1.748l.018-.916q.225-.314.607-.758c.006.005.009.032.009.081a8.32,8.32,0,0,1-.15,1.309,1.4,1.4,0,0,0-.028.2c.006.054.051.08.133.08h.2Zm-.26-3.723-.32.552-.748-.467-.233.429-.766-.467.319-.573.726.473.246-.426Z" transform="translate(16322 14135)" fill="#00524c"/>
    <path id="Path_144640" data-name="Path 144640" d="M1650.563,173.77l-.383.788c-.04-.013-.072-.02-.1-.027l.224,2.331a4.828,4.828,0,0,1-.092.777c-.067.363-.132.546-.2.546h-1.757v-.7h1.652c.018,0,.027-.058.027-.167a25.971,25.971,0,0,0-.392-3.124l-.046-.019a.244.244,0,0,1-.127-.205.357.357,0,0,1,.045-.166l.347-.632c.067-.123.116-.17.146-.14a.069.069,0,0,1,.06.065.317.317,0,0,1-.035.115.359.359,0,0,0-.034.117.137.137,0,0,0,.077.111c.2.116.391.224.58.326" transform="translate(16322 14135)" fill="#00524c"/>
    <path id="Path_144641" data-name="Path 144641" d="M1652.252,177.259a3.9,3.9,0,0,1-.315,1.2c-.1-1.226-.24-2.713-.42-4.452a2.8,2.8,0,0,1,.5-1.206q.042.07.142,2.245Z" transform="translate(16322 14135)" fill="#00524c"/>
    <path id="Path_144642" data-name="Path 144642" d="M1657.525,176.6a2.374,2.374,0,0,1-.265.826,1.891,1.891,0,0,1-.373.408,1.625,1.625,0,0,1-.849.352,1.032,1.032,0,0,1-.561-.075.467.467,0,0,1-.3-.451,3.006,3.006,0,0,1,.721-1.457l.616-.836a2.408,2.408,0,0,0,.384.35,4.808,4.808,0,0,1,.383.31.764.764,0,0,1,.246.573m-.228-2.4-.315.547-.739-.466-.223.435-.785-.472.324-.577.721.475.251-.427Zm-.278,2.819c-.012-.239-.255-.513-.73-.815a7.849,7.849,0,0,0-.511.72.53.53,0,0,0-.05.213c0,.227.127.338.383.338a1.856,1.856,0,0,0,.739-.171.318.318,0,0,0,.169-.285" transform="translate(16322 14135)" fill="#00524c"/>
    <path id="Path_144643" data-name="Path 144643" d="M1660.551,177.834a2.879,2.879,0,0,1-.572,1.587q-.519.775-1.089.777a3.136,3.136,0,0,1-.953-.26c-.482-.191-.722-.346-.722-.47a.051.051,0,0,1,.056-.058,3.777,3.777,0,0,1,.421.166,1.69,1.69,0,0,0,.627.166,1.992,1.992,0,0,0,1.25-.732,2.012,2.012,0,0,0,.73-1.271q0-.389-.888-1.057c.032-.154.091-.433.177-.84a2.777,2.777,0,0,1,.665.711,2.506,2.506,0,0,1,.3,1.281" transform="translate(16322 14135)" fill="#00524c"/>
    <path id="Path_144644" data-name="Path 144644" d="M1662.289,177.259a3.9,3.9,0,0,1-.315,1.2c-.1-1.226-.24-2.713-.419-4.452a2.787,2.787,0,0,1,.5-1.206q.042.07.142,2.245Z" transform="translate(16322 14135)" fill="#00524c"/>
    <path id="Path_144645" data-name="Path 144645" d="M1665.738,177.835a2.889,2.889,0,0,1-.569,1.586q-.522.777-1.092.777a3.13,3.13,0,0,1-.953-.261c-.48-.189-.721-.346-.721-.469,0-.039.018-.058.055-.058a3.993,3.993,0,0,1,.422.166,1.726,1.726,0,0,0,.627.166,1.99,1.99,0,0,0,1.251-.732,2.018,2.018,0,0,0,.729-1.271c0-.26-.3-.611-.889-1.059.033-.152.093-.431.178-.838a2.817,2.817,0,0,1,.666.71,2.509,2.509,0,0,1,.3,1.283m-.839-3.471-.32.564-.757-.474.329-.555Z" transform="translate(16322 14135)" fill="#00524c"/>
    <path id="Path_144646" data-name="Path 144646" d="M1668.936,177.213a4.289,4.289,0,0,1-.392,1.827,2.773,2.773,0,0,1-.534.778,1.01,1.01,0,0,1-.794.389,6.906,6.906,0,0,1-.935-.161c-.505-.112-.758-.215-.758-.3,0-.047.032-.07.1-.07a1.882,1.882,0,0,1,.438.078,1.889,1.889,0,0,0,.447.078.781.781,0,0,0,.292-.048,3.569,3.569,0,0,0,1.232-.843,1.772,1.772,0,0,0,.634-1.2,1.354,1.354,0,0,0-.055-.425,1.281,1.281,0,0,1-.447.629.8.8,0,0,1-.465.057.506.506,0,0,1-.415-.327,1.331,1.331,0,0,1-.119-.556,2.051,2.051,0,0,1,.351-.944q.384-.642.676-.641c.134,0,.289.178.465.536a2.494,2.494,0,0,1,.283,1.145m-.488-.086a1.027,1.027,0,0,0-.137-.479q-.155-.28-.356-.29a.485.485,0,0,0-.342.2.557.557,0,0,0-.192.362c.006.11.089.2.247.262a.987.987,0,0,0,.369.076.5.5,0,0,0,.411-.134" transform="translate(16322 14135)" fill="#00524c"/>
    <path id="Path_144647" data-name="Path 144647" d="M1596.673,181.728l.9,2.471.911-2.471h.6v3.28h-.524v-2.263l-.834,2.263h-.344l-.8-2.263v2.263h-.524v-3.28Z" transform="translate(16322 14135)" fill="#00524c"/>
    <path id="Path_144648" data-name="Path 144648" d="M1600.025,182.2h-.517v-.469h.517Zm0,2.811h-.517v-2.369h.517Z" transform="translate(16322 14135)" fill="#00524c"/>
    <path id="Path_144649" data-name="Path 144649" d="M1600.394,182.639h.524v.192a1.062,1.062,0,0,1,.323-.172,1.077,1.077,0,0,1,.354-.058.939.939,0,0,1,.32.051.672.672,0,0,1,.239.143.618.618,0,0,1,.148.229.826.826,0,0,1,.052.3v1.684h-.517v-1.642a.44.44,0,0,0-.081-.3.286.286,0,0,0-.224-.089.571.571,0,0,0-.239.052.683.683,0,0,0-.2.137.61.61,0,0,0-.131.2.57.57,0,0,0-.048.229v1.416h-.524Z" transform="translate(16322 14135)" fill="#00524c"/>
    <path id="Path_144650" data-name="Path 144650" d="M1603.277,182.2h-.517v-.469h.517Zm0,2.811h-.517v-2.369h.517Z" transform="translate(16322 14135)" fill="#00524c"/>
    <path id="Path_144651" data-name="Path 144651" d="M1604.178,184.224a.625.625,0,0,0,.036.212.425.425,0,0,0,.088.142.324.324,0,0,0,.127.08.586.586,0,0,0,.161.023.823.823,0,0,0,.152-.015.44.44,0,0,0,.146-.049.337.337,0,0,0,.11-.1.273.273,0,0,0,.044-.158.263.263,0,0,0-.041-.148.353.353,0,0,0-.11-.1.787.787,0,0,0-.159-.079c-.06-.025-.122-.047-.187-.073-.1-.034-.2-.071-.294-.11a1.25,1.25,0,0,1-.261-.141.69.69,0,0,1-.19-.2.5.5,0,0,1-.074-.277.534.534,0,0,1,.071-.28.6.6,0,0,1,.191-.2.879.879,0,0,1,.276-.116,1.393,1.393,0,0,1,.326-.039,1.519,1.519,0,0,1,.353.041.853.853,0,0,1,.287.128.642.642,0,0,1,.192.219.706.706,0,0,1,.079.313h-.038l-.058,0h-.423a.472.472,0,0,0-.047-.156.331.331,0,0,0-.088-.1.293.293,0,0,0-.117-.051.565.565,0,0,0-.14-.017.38.38,0,0,0-.252.072.236.236,0,0,0-.087.191.224.224,0,0,0,.041.134.332.332,0,0,0,.111.1.825.825,0,0,0,.16.082c.061.024.124.05.188.073.1.036.193.074.291.115a1.3,1.3,0,0,1,.262.14.677.677,0,0,1,.19.187.424.424,0,0,1,.072.25.659.659,0,0,1-.08.337.667.667,0,0,1-.214.225.891.891,0,0,1-.312.13,1.6,1.6,0,0,1-.372.042,1.224,1.224,0,0,1-.357-.052.882.882,0,0,1-.3-.156.726.726,0,0,1-.206-.26.863.863,0,0,1-.085-.363Z" transform="translate(16322 14135)" fill="#00524c"/>
    <path id="Path_144652" data-name="Path 144652" d="M1606.6,181.959v.682h.339v.369h-.339v1.445a.285.285,0,0,0,.041.18.137.137,0,0,0,.1.048.507.507,0,0,0,.08-.01l.168-.029V185a1.555,1.555,0,0,1-.194.042,1.142,1.142,0,0,1-.182.017.733.733,0,0,1-.206-.028.452.452,0,0,1-.174-.083.414.414,0,0,1-.119-.148.532.532,0,0,1-.043-.226V183.01h-.342v-.369h.342v-.682Z" transform="translate(16322 14135)" fill="#00524c"/>
    <path id="Path_144653" data-name="Path 144653" d="M1607.292,182.639h.464l.03.217a.632.632,0,0,1,.219-.19.565.565,0,0,1,.263-.065.5.5,0,0,1,.111.016.57.57,0,0,1,.136.04v.44a1.227,1.227,0,0,0-.257-.084.389.389,0,0,0-.188.047.421.421,0,0,0-.142.127.586.586,0,0,0-.087.183.815.815,0,0,0-.03.22v1.418h-.519Z" transform="translate(16322 14135)" fill="#00524c"/>
    <path id="Path_144654" data-name="Path 144654" d="M1609.66,184.257l.534-1.617h.537l-.964,2.848a1.067,1.067,0,0,1-.118.244.748.748,0,0,1-.15.16.589.589,0,0,1-.166.09.618.618,0,0,1-.168.026.881.881,0,0,1-.148-.013.92.92,0,0,1-.183-.056v-.4a.581.581,0,0,0,.078.032l.085.035c.027.008.052.017.075.023a.221.221,0,0,0,.051.01.079.079,0,0,0,.057-.033.435.435,0,0,0,.052-.085c.016-.035.03-.07.044-.106s.023-.069.032-.1l.1-.321-.836-2.357h.552Z" transform="translate(16322 14135)" fill="#00524c"/>
    <path id="Path_144655" data-name="Path 144655" d="M1611.852,183.827a1.518,1.518,0,0,1,.073-.476,1.141,1.141,0,0,1,.211-.389.974.974,0,0,1,.342-.265,1.1,1.1,0,0,1,.468-.1,1.12,1.12,0,0,1,.472.1,1,1,0,0,1,.347.265,1.131,1.131,0,0,1,.214.389,1.55,1.55,0,0,1,.072.476,1.534,1.534,0,0,1-.072.477,1.122,1.122,0,0,1-.214.387,1,1,0,0,1-.347.264,1.12,1.12,0,0,1-.472.1,1.1,1.1,0,0,1-.468-.1.972.972,0,0,1-.342-.264,1.132,1.132,0,0,1-.211-.387,1.5,1.5,0,0,1-.073-.477m.517,0a1.277,1.277,0,0,0,.04.33.887.887,0,0,0,.115.269.557.557,0,0,0,.182.18.45.45,0,0,0,.479,0,.562.562,0,0,0,.183-.18.891.891,0,0,0,.118-.269,1.336,1.336,0,0,0,0-.657.9.9,0,0,0-.118-.273.586.586,0,0,0-.183-.181.45.45,0,0,0-.479,0,.581.581,0,0,0-.182.181.9.9,0,0,0-.115.273,1.281,1.281,0,0,0-.04.327" transform="translate(16322 14135)" fill="#00524c"/>
    <path id="Path_144656" data-name="Path 144656" d="M1614.653,182.639v-.523a.442.442,0,0,1,.151-.347.549.549,0,0,1,.178-.1.727.727,0,0,1,.237-.037.583.583,0,0,1,.179.033.851.851,0,0,1,.193.092v.362l-.183-.077c-.048-.019-.075-.03-.079-.03a.162.162,0,0,0-.109.039.169.169,0,0,0-.043.13v.459h.384v.38h-.384v1.989h-.524v-1.989h-.377v-.38Z" transform="translate(16322 14135)" fill="#00524c"/>
    <path id="Path_144657" data-name="Path 144657" d="M1617.351,183.324a2.084,2.084,0,0,0,.082.619,1.407,1.407,0,0,0,.217.437.885.885,0,0,0,.306.256.779.779,0,0,0,.346.084.705.705,0,0,0,.326-.075.884.884,0,0,0,.256-.2,1.143,1.143,0,0,0,.182-.284,1.491,1.491,0,0,0,.1-.328h.526a1.9,1.9,0,0,1-.162.494,1.44,1.44,0,0,1-.288.4,1.3,1.3,0,0,1-.413.273,1.389,1.389,0,0,1-.532.1,1.5,1.5,0,0,1-.609-.121,1.294,1.294,0,0,1-.466-.347,1.608,1.608,0,0,1-.3-.562,2.5,2.5,0,0,1-.1-.748,1.955,1.955,0,0,1,.046-.425,1.865,1.865,0,0,1,.131-.395,1.706,1.706,0,0,1,.212-.347,1.438,1.438,0,0,1,.289-.273,1.334,1.334,0,0,1,.364-.182,1.394,1.394,0,0,1,.431-.063,1.562,1.562,0,0,1,.531.082,1.267,1.267,0,0,1,.7.571,1.817,1.817,0,0,1,.181.433h-.537a1.154,1.154,0,0,0-.334-.533.82.82,0,0,0-.54-.176.728.728,0,0,0-.384.109.971.971,0,0,0-.3.284,1.4,1.4,0,0,0-.195.416,1.755,1.755,0,0,0-.07.5" transform="translate(16322 14135)" fill="#00524c"/>
    <path id="Path_144658" data-name="Path 144658" d="M1620.037,183.827a1.522,1.522,0,0,1,.073-.476,1.142,1.142,0,0,1,.211-.389.973.973,0,0,1,.342-.265,1.1,1.1,0,0,1,.469-.1,1.12,1.12,0,0,1,.471.1,1,1,0,0,1,.347.265,1.148,1.148,0,0,1,.214.389,1.547,1.547,0,0,1,.072.476,1.53,1.53,0,0,1-.072.477,1.138,1.138,0,0,1-.214.387,1,1,0,0,1-.347.264,1.12,1.12,0,0,1-.471.1,1.1,1.1,0,0,1-.469-.1.97.97,0,0,1-.342-.264,1.132,1.132,0,0,1-.211-.387,1.505,1.505,0,0,1-.073-.477m.517,0a1.282,1.282,0,0,0,.04.33.864.864,0,0,0,.115.269.558.558,0,0,0,.182.18.45.45,0,0,0,.479,0,.56.56,0,0,0,.183-.18.891.891,0,0,0,.118-.269,1.336,1.336,0,0,0,0-.657.9.9,0,0,0-.118-.273.584.584,0,0,0-.183-.181.45.45,0,0,0-.479,0,.582.582,0,0,0-.182.181.877.877,0,0,0-.115.273,1.286,1.286,0,0,0-.04.327" transform="translate(16322 14135)" fill="#00524c"/>
    <path id="Path_144659" data-name="Path 144659" d="M1622.589,182.639h.517v.178a.789.789,0,0,1,.293-.166,1.013,1.013,0,0,1,.3-.05.736.736,0,0,1,.317.069.7.7,0,0,1,.27.24.831.831,0,0,1,.154-.143.9.9,0,0,1,.369-.152.864.864,0,0,1,.188-.02.879.879,0,0,1,.317.057.772.772,0,0,1,.25.154.708.708,0,0,1,.222.521v1.681h-.517v-1.585a.62.62,0,0,0-.032-.218.407.407,0,0,0-.079-.136.294.294,0,0,0-.109-.075.456.456,0,0,0-.12-.019.38.38,0,0,0-.169.044.509.509,0,0,0-.154.123.67.67,0,0,0-.111.185.638.638,0,0,0-.042.232v1.449h-.519v-1.585a.705.705,0,0,0-.03-.218.439.439,0,0,0-.076-.136.289.289,0,0,0-.1-.075.383.383,0,0,0-.106-.019.351.351,0,0,0-.2.06.581.581,0,0,0-.163.146.721.721,0,0,0-.11.2.593.593,0,0,0-.04.207v1.423h-.517Z" transform="translate(16322 14135)" fill="#00524c"/>
    <path id="Path_144660" data-name="Path 144660" d="M1626.178,182.639h.517v.178a.8.8,0,0,1,.293-.166,1.013,1.013,0,0,1,.3-.05.733.733,0,0,1,.317.069.7.7,0,0,1,.27.24.831.831,0,0,1,.154-.143.9.9,0,0,1,.369-.152.871.871,0,0,1,.188-.02.881.881,0,0,1,.317.057.765.765,0,0,1,.25.154.709.709,0,0,1,.222.521v1.681h-.517v-1.585a.646.646,0,0,0-.031-.218.425.425,0,0,0-.08-.136.29.29,0,0,0-.108-.075.461.461,0,0,0-.12-.019.384.384,0,0,0-.17.044.509.509,0,0,0-.154.123.7.7,0,0,0-.111.185.638.638,0,0,0-.042.232v1.449h-.519v-1.585a.705.705,0,0,0-.03-.218.439.439,0,0,0-.076-.136.289.289,0,0,0-.1-.075.383.383,0,0,0-.106-.019.35.35,0,0,0-.2.06.6.6,0,0,0-.163.146.721.721,0,0,0-.11.2.593.593,0,0,0-.04.207v1.423h-.517Z" transform="translate(16322 14135)" fill="#00524c"/>
    <path id="Path_144661" data-name="Path 144661" d="M1630.292,183.926a1.035,1.035,0,0,0,.054.284.873.873,0,0,0,.122.242.621.621,0,0,0,.177.167.413.413,0,0,0,.218.064.567.567,0,0,0,.547-.457h.485a1,1,0,0,1-.139.35.982.982,0,0,1-.237.262,1.028,1.028,0,0,1-.307.162,1.11,1.11,0,0,1-.349.057,1,1,0,0,1-.459-.1,1.044,1.044,0,0,1-.348-.274,1.255,1.255,0,0,1-.222-.4,1.455,1.455,0,0,1-.079-.482,1.339,1.339,0,0,1,.078-.455,1.149,1.149,0,0,1,.219-.379,1.107,1.107,0,0,1,.347-.262,1.171,1.171,0,0,1,.9-.008.93.93,0,0,1,.337.241,1.061,1.061,0,0,1,.214.364,1.36,1.36,0,0,1,.074.46v.171Zm1.106-.338a.808.808,0,0,0-.049-.243.584.584,0,0,0-.114-.194.511.511,0,0,0-.4-.174.434.434,0,0,0-.208.049.568.568,0,0,0-.169.132.7.7,0,0,0-.116.2.745.745,0,0,0-.051.233Z" transform="translate(16322 14135)" fill="#00524c"/>
    <path id="Path_144662" data-name="Path 144662" d="M1632.26,182.639h.464l.029.217a.64.64,0,0,1,.219-.19.568.568,0,0,1,.263-.065.5.5,0,0,1,.111.016.558.558,0,0,1,.136.04v.44a1.224,1.224,0,0,0-.257-.084.391.391,0,0,0-.188.047.408.408,0,0,0-.141.127.567.567,0,0,0-.088.183.81.81,0,0,0-.03.22v1.418h-.518Z" transform="translate(16322 14135)" fill="#00524c"/>
    <path id="Path_144663" data-name="Path 144663" d="M1635.25,183.421a.729.729,0,0,0-.176-.346.4.4,0,0,0-.281-.1.41.41,0,0,0-.231.064.565.565,0,0,0-.171.179.831.831,0,0,0-.106.259,1.22,1.22,0,0,0-.036.308,1.423,1.423,0,0,0,.036.329,1.008,1.008,0,0,0,.106.285.653.653,0,0,0,.168.2.367.367,0,0,0,.224.076.351.351,0,0,0,.171-.044.429.429,0,0,0,.133-.119.76.76,0,0,0,.1-.176,1.183,1.183,0,0,0,.059-.215h.547a1.293,1.293,0,0,1-.1.392.939.939,0,0,1-.211.294.9.9,0,0,1-.308.182,1.149,1.149,0,0,1-.4.065.907.907,0,0,1-.468-.114.98.98,0,0,1-.323-.294,1.269,1.269,0,0,1-.187-.41,1.755,1.755,0,0,1-.06-.453,1.4,1.4,0,0,1,.076-.466,1.15,1.15,0,0,1,.215-.377,1.011,1.011,0,0,1,.335-.252,1.033,1.033,0,0,1,.44-.09,1.115,1.115,0,0,1,.385.06.912.912,0,0,1,.291.172.88.88,0,0,1,.2.261,1.165,1.165,0,0,1,.114.326Z" transform="translate(16322 14135)" fill="#00524c"/>
    <path id="Path_144664" data-name="Path 144664" d="M1636.658,183.926a1.036,1.036,0,0,0,.054.284.869.869,0,0,0,.122.242.621.621,0,0,0,.177.167.417.417,0,0,0,.219.064.567.567,0,0,0,.546-.457h.485a1,1,0,0,1-.139.35.978.978,0,0,1-.237.262,1.028,1.028,0,0,1-.307.162,1.108,1.108,0,0,1-.348.057,1.007,1.007,0,0,1-.46-.1,1.036,1.036,0,0,1-.348-.274,1.278,1.278,0,0,1-.222-.4,1.48,1.48,0,0,1-.078-.482,1.338,1.338,0,0,1,.077-.455,1.149,1.149,0,0,1,.219-.379,1.1,1.1,0,0,1,.348-.262,1.169,1.169,0,0,1,.9-.008.921.921,0,0,1,.337.241,1.076,1.076,0,0,1,.214.364,1.385,1.385,0,0,1,.074.46v.171Zm1.106-.338a.84.84,0,0,0-.049-.243.6.6,0,0,0-.114-.194.515.515,0,0,0-.4-.174.434.434,0,0,0-.208.049.569.569,0,0,0-.169.132.7.7,0,0,0-.116.2.748.748,0,0,0-.051.233Z" transform="translate(16322 14135)" fill="#00524c"/>
    <path id="Path_144665" data-name="Path 144665" d="M1639.616,183.332a.652.652,0,0,1,.1-.328.8.8,0,0,1,.226-.228.977.977,0,0,1,.3-.132,1.35,1.35,0,0,1,.331-.044,1.711,1.711,0,0,1,.353.039,1.032,1.032,0,0,1,.3.125.664.664,0,0,1,.212.223.643.643,0,0,1,.08.328v1.207a.312.312,0,0,0,.019.109c.012.035.027.05.044.05a1.626,1.626,0,0,0,.2-.064v.377l-.179.046a.766.766,0,0,1-.144.015.423.423,0,0,1-.248-.071.418.418,0,0,1-.156-.217.913.913,0,0,1-.181.148.943.943,0,0,1-.185.087,1.042,1.042,0,0,1-.19.042,1.867,1.867,0,0,1-.2.011.865.865,0,0,1-.3-.047.74.74,0,0,1-.238-.131.605.605,0,0,1-.158-.209.644.644,0,0,1-.058-.281.541.541,0,0,1,.063-.273.627.627,0,0,1,.163-.192,1.025,1.025,0,0,1,.231-.127,2.289,2.289,0,0,1,.265-.088c.09-.027.178-.048.264-.07a1.425,1.425,0,0,0,.231-.073.486.486,0,0,0,.164-.1.2.2,0,0,0,.062-.149.3.3,0,0,0-.115-.26.57.57,0,0,0-.322-.08.49.49,0,0,0-.15.021.333.333,0,0,0-.124.06.384.384,0,0,0-.093.113.45.45,0,0,0-.05.163Zm1.388.484a.557.557,0,0,1-.155.071c-.061.022-.126.041-.194.063s-.138.043-.207.065a1.1,1.1,0,0,0-.186.084.474.474,0,0,0-.133.117.264.264,0,0,0-.051.163.363.363,0,0,0,.025.145.276.276,0,0,0,.065.1.263.263,0,0,0,.09.049.421.421,0,0,0,.1.013.584.584,0,0,0,.342-.121,1.1,1.1,0,0,0,.3-.358Z" transform="translate(16322 14135)" fill="#00524c"/>
    <path id="Path_144666" data-name="Path 144666" d="M1642.125,182.639h.524v.192a1.062,1.062,0,0,1,.323-.172,1.077,1.077,0,0,1,.354-.058.938.938,0,0,1,.32.051.672.672,0,0,1,.239.143.616.616,0,0,1,.148.229.826.826,0,0,1,.052.3v1.684h-.517v-1.642a.441.441,0,0,0-.081-.3.286.286,0,0,0-.224-.089.57.57,0,0,0-.239.052.683.683,0,0,0-.2.137.609.609,0,0,0-.131.2.57.57,0,0,0-.048.229v1.416h-.524Z" transform="translate(16322 14135)" fill="#00524c"/>
    <path id="Path_144667" data-name="Path 144667" d="M1646.468,185.01h-.519v-.148a.825.825,0,0,1-.517.2.975.975,0,0,1-.439-.1.891.891,0,0,1-.318-.263,1.164,1.164,0,0,1-.194-.387,1.808,1.808,0,0,1,0-.957,1.157,1.157,0,0,1,.191-.394.939.939,0,0,1,.316-.264.957.957,0,0,1,.435-.094.708.708,0,0,1,.27.055,1.017,1.017,0,0,1,.257.15V181.73h.519Zm-.519-1.216a1.578,1.578,0,0,0-.04-.318.943.943,0,0,0-.1-.261.554.554,0,0,0-.156-.175.353.353,0,0,0-.209-.063.357.357,0,0,0-.214.066.539.539,0,0,0-.16.185,1.029,1.029,0,0,0-.1.271,1.635,1.635,0,0,0,0,.664.991.991,0,0,0,.1.271.542.542,0,0,0,.16.178.371.371,0,0,0,.428,0,.518.518,0,0,0,.158-.178,1,1,0,0,0,.1-.271,1.592,1.592,0,0,0,.033-.332Z" transform="translate(16322 14135)" fill="#00524c"/>
    <rect id="Rectangle_17603" data-name="Rectangle 17603" width="0.524" height="3.28" transform="translate(17969.883 14316.728)" fill="#00524c"/>
    <path id="Path_144668" data-name="Path 144668" d="M1648.872,182.639h.524v.192a1.062,1.062,0,0,1,.323-.172,1.077,1.077,0,0,1,.354-.058.938.938,0,0,1,.32.051.67.67,0,0,1,.239.143.617.617,0,0,1,.148.229.829.829,0,0,1,.052.3v1.684h-.517v-1.642a.441.441,0,0,0-.081-.3.286.286,0,0,0-.224-.089.571.571,0,0,0-.239.052.69.69,0,0,0-.2.137.625.625,0,0,0-.131.2.586.586,0,0,0-.047.229v1.416h-.524Z" transform="translate(16322 14135)" fill="#00524c"/>
    <path id="Path_144669" data-name="Path 144669" d="M1652.07,184.287l.569-1.646h.537l-.837,2.369h-.521l-.841-2.369h.544Z" transform="translate(16322 14135)" fill="#00524c"/>
    <path id="Path_144670" data-name="Path 144670" d="M1653.862,183.926a1,1,0,0,0,.055.284.848.848,0,0,0,.121.242.621.621,0,0,0,.177.167.419.419,0,0,0,.219.064.567.567,0,0,0,.546-.457h.485a1,1,0,0,1-.139.35.981.981,0,0,1-.237.262,1.027,1.027,0,0,1-.307.162,1.108,1.108,0,0,1-.348.057,1,1,0,0,1-.459-.1,1.039,1.039,0,0,1-.349-.274,1.276,1.276,0,0,1-.222-.4,1.48,1.48,0,0,1-.078-.482,1.338,1.338,0,0,1,.077-.455,1.149,1.149,0,0,1,.219-.379,1.1,1.1,0,0,1,.348-.262,1.169,1.169,0,0,1,.9-.008.922.922,0,0,1,.337.241,1.08,1.08,0,0,1,.214.364,1.363,1.363,0,0,1,.074.46v.171Zm1.107-.338a.8.8,0,0,0-.05-.243.6.6,0,0,0-.114-.194.525.525,0,0,0-.173-.128.516.516,0,0,0-.226-.046.434.434,0,0,0-.208.049.581.581,0,0,0-.169.132.7.7,0,0,0-.116.2.745.745,0,0,0-.051.233Z" transform="translate(16322 14135)" fill="#00524c"/>
    <path id="Path_144671" data-name="Path 144671" d="M1656.366,184.224a.6.6,0,0,0,.036.212.425.425,0,0,0,.088.142.324.324,0,0,0,.127.08.586.586,0,0,0,.161.023.825.825,0,0,0,.152-.015.442.442,0,0,0,.146-.049.338.338,0,0,0,.11-.1.273.273,0,0,0,.044-.158.263.263,0,0,0-.041-.148.353.353,0,0,0-.11-.1.787.787,0,0,0-.159-.079c-.06-.025-.122-.047-.187-.073-.1-.034-.2-.071-.293-.11a1.233,1.233,0,0,1-.262-.141.69.69,0,0,1-.19-.2.5.5,0,0,1-.074-.277.534.534,0,0,1,.071-.28.6.6,0,0,1,.191-.2.879.879,0,0,1,.276-.116,1.393,1.393,0,0,1,.326-.039,1.518,1.518,0,0,1,.353.041.839.839,0,0,1,.286.128.634.634,0,0,1,.193.219.706.706,0,0,1,.079.313h-.037l-.059,0h-.423a.472.472,0,0,0-.047-.156.331.331,0,0,0-.088-.1.293.293,0,0,0-.117-.051.565.565,0,0,0-.14-.017.38.38,0,0,0-.252.072.236.236,0,0,0-.087.191.23.23,0,0,0,.04.134.363.363,0,0,0,.111.1.864.864,0,0,0,.161.082c.061.024.124.05.188.073.1.036.193.074.291.115a1.3,1.3,0,0,1,.262.14.676.676,0,0,1,.19.187.424.424,0,0,1,.072.25.659.659,0,0,1-.08.337.667.667,0,0,1-.214.225.891.891,0,0,1-.312.13,1.6,1.6,0,0,1-.372.042,1.224,1.224,0,0,1-.357-.052.882.882,0,0,1-.3-.156.726.726,0,0,1-.206-.26.863.863,0,0,1-.085-.363Z" transform="translate(16322 14135)" fill="#00524c"/>
    <path id="Path_144672" data-name="Path 144672" d="M1658.792,181.959v.682h.34v.369h-.34v1.445a.292.292,0,0,0,.041.18.137.137,0,0,0,.1.048.5.5,0,0,0,.08-.01l.168-.029V185a1.516,1.516,0,0,1-.194.042,1.129,1.129,0,0,1-.182.017.732.732,0,0,1-.206-.028.452.452,0,0,1-.174-.083.4.4,0,0,1-.118-.148.517.517,0,0,1-.044-.226V183.01h-.342v-.369h.342v-.682Z" transform="translate(16322 14135)" fill="#00524c"/>
    <path id="Path_144673" data-name="Path 144673" d="M1659.5,182.639h.517v.178a.79.79,0,0,1,.293-.166,1.014,1.014,0,0,1,.3-.05.736.736,0,0,1,.317.069.712.712,0,0,1,.27.24.8.8,0,0,1,.154-.143,1,1,0,0,1,.178-.1,1.019,1.019,0,0,1,.19-.054.907.907,0,0,1,.506.037.762.762,0,0,1,.25.154.709.709,0,0,1,.222.521v1.681h-.517v-1.585a.643.643,0,0,0-.032-.218.4.4,0,0,0-.079-.136.3.3,0,0,0-.109-.075.454.454,0,0,0-.12-.019.387.387,0,0,0-.17.044.519.519,0,0,0-.153.123.628.628,0,0,0-.153.417v1.449h-.519v-1.585a.7.7,0,0,0-.03-.218.46.46,0,0,0-.076-.136.29.29,0,0,0-.1-.075.389.389,0,0,0-.106-.019.348.348,0,0,0-.2.06.6.6,0,0,0-.164.146.776.776,0,0,0-.11.2.613.613,0,0,0-.039.207v1.423h-.517Z" transform="translate(16322 14135)" fill="#00524c"/>
    <path id="Path_144674" data-name="Path 144674" d="M1663.618,183.926a1.035,1.035,0,0,0,.054.284.876.876,0,0,0,.122.242.612.612,0,0,0,.178.167.413.413,0,0,0,.218.064.566.566,0,0,0,.546-.457h.485a1,1,0,0,1-.139.35.981.981,0,0,1-.237.262,1.025,1.025,0,0,1-.307.162,1.1,1.1,0,0,1-.348.057,1,1,0,0,1-.459-.1,1.041,1.041,0,0,1-.349-.274,1.276,1.276,0,0,1-.222-.4,1.48,1.48,0,0,1-.078-.482,1.338,1.338,0,0,1,.077-.455,1.145,1.145,0,0,1,.219-.379,1.1,1.1,0,0,1,.348-.262,1.169,1.169,0,0,1,.9-.008.922.922,0,0,1,.337.241,1.064,1.064,0,0,1,.214.364,1.363,1.363,0,0,1,.075.46v.171Zm1.106-.338a.808.808,0,0,0-.049-.243.6.6,0,0,0-.113-.194.528.528,0,0,0-.174-.128.519.519,0,0,0-.226-.046.434.434,0,0,0-.208.049.565.565,0,0,0-.168.132.679.679,0,0,0-.117.2.748.748,0,0,0-.051.233Z" transform="translate(16322 14135)" fill="#00524c"/>
    <path id="Path_144675" data-name="Path 144675" d="M1665.59,182.639h.524v.192a1.113,1.113,0,0,1,.677-.23.934.934,0,0,1,.32.051.658.658,0,0,1,.238.143.607.607,0,0,1,.149.229.808.808,0,0,1,.052.3v1.684h-.517v-1.642a.446.446,0,0,0-.081-.3.286.286,0,0,0-.224-.089.574.574,0,0,0-.239.052.7.7,0,0,0-.2.137.644.644,0,0,0-.131.2.586.586,0,0,0-.047.229v1.416h-.524Z" transform="translate(16322 14135)" fill="#00524c"/>
    <path id="Path_144676" data-name="Path 144676" d="M1668.593,181.959v.682h.34v.369h-.34v1.445a.292.292,0,0,0,.041.18.137.137,0,0,0,.1.048.5.5,0,0,0,.08-.01l.168-.029V185a1.516,1.516,0,0,1-.194.042,1.142,1.142,0,0,1-.183.017.741.741,0,0,1-.206-.028.456.456,0,0,1-.173-.083.4.4,0,0,1-.118-.148.517.517,0,0,1-.045-.226V183.01h-.341v-.369h.341v-.682Z" transform="translate(16322 14135)" fill="#00524c"/>
    <path id="Path_144677" data-name="Path 144677" d="M1615.855,168.6l-.353.078-1.443,1.5a105.779,105.779,0,0,1,37.3,0l1.548-1.61a105.678,105.678,0,0,0-37.051.031" transform="translate(16322 14135)" fill="#00524c"/>
    <path id="Path_144678" data-name="Path 144678" d="M1615.5,168.675l.073-.365a104.029,104.029,0,0,0,1.586-19.359,105.022,105.022,0,0,0-1.555-19.2l-1.548,1.612a103.578,103.578,0,0,1,1.59,19.409,103.554,103.554,0,0,1-1.59,19.4Z" transform="translate(16322 14135)" fill="#00524c"/>
  </g>
</svg>
