<svg xmlns="http://www.w3.org/2000/svg" width="61.215" height="20.975" viewBox="0 0 61.215 20.975">
  <g id="Client_58" transform="translate(-18100.111 -14714.961)">
    <path id="Path_144035" data-name="Path 144035" d="M1832.877,588.137l6.445,5.362-.027.086h-1.963c-.781,0-1.563-.005-2.344.005a.843.843,0,0,1-.589-.215q-3.351-2.75-6.712-5.488a1.429,1.429,0,0,1-.213-1.171c.09-.141.236-.1.363-.1a31.593,31.593,0,0,0,3.168-.13,4.669,4.669,0,0,0,1.43-.358,1.614,1.614,0,0,0,1-1.228,3.561,3.561,0,0,0,.005-1.269,1.457,1.457,0,0,0-1.127-1.178,10.9,10.9,0,0,0-3.034-.349c-.974-.023-1.948,0-2.921-.023-.345-.009-.448.1-.446.46.012,3.515.007,7.029.007,10.545,0,.493,0,.489-.478.489-1.082,0-2.164-.006-3.245.012-.288,0-.36-.093-.36-.385q.014-6.4,0-12.8c0-.335.1-.423.41-.42,2.981.028,5.963-.053,8.943.048a13.746,13.746,0,0,1,3.7.536,3.25,3.25,0,0,1,2.267,1.8c.528,1.281.48,3.642-.866,4.7a4.6,4.6,0,0,1-2.375.877c-.332.041-.667.063-1,.093-.014.032-.028.065-.042.094" transform="translate(16322 14135)" fill="#167688"/>
    <path id="Path_144036" data-name="Path 144036" d="M1783.74,593.586c-1.61,0-3.221-.011-4.832.01-.359.005-.457-.115-.432-.471.027-.411,0-.825,0-1.236,0-.521,0-.522.483-.522,2.644,0,5.288,0,7.933-.009a7.344,7.344,0,0,0,2.25-.251.976.976,0,0,0,.746-.685.949.949,0,0,0-.558-1.224,7.947,7.947,0,0,0-2.193-.568c-1.669-.283-3.352-.481-5.011-.835a8.3,8.3,0,0,1-2.339-.839,3.171,3.171,0,0,1-1.671-3.217,3.261,3.261,0,0,1,1.868-2.962,6.837,6.837,0,0,1,1.926-.589,15.924,15.924,0,0,1,2.8-.2c2.692.006,5.384.011,8.077-.006.367,0,.49.1.459.485a8.928,8.928,0,0,0,0,1.235c.019.323-.1.4-.393.4-2.164-.012-4.328-.007-6.491-.007-.925,0-1.851-.015-2.775.061a4.33,4.33,0,0,0-1.334.283.8.8,0,0,0-.541.759.706.706,0,0,0,.507.7,8.593,8.593,0,0,0,1.918.489c1.989.34,4,.533,5.972.976a6.725,6.725,0,0,1,2.68,1.129,2.719,2.719,0,0,1,1.085,1.71,4.91,4.91,0,0,1-.31,3.077,3.648,3.648,0,0,1-2.544,1.85,12.753,12.753,0,0,1-3.208.435c-1.357.02-2.716,0-4.074,0Z" transform="translate(16322 14135)" fill="#167688"/>
    <path id="Path_144037" data-name="Path 144037" d="M1815.99,593.585c-.818,0-1.636-.006-2.454,0a.393.393,0,0,1-.424-.3q-2.475-6.249-4.964-12.49c-.323-.813-.312-.748.545-.822a1.506,1.506,0,0,1,1.533.841c2.632,3.924,5.306,7.816,7.967,11.718.16.235.315.472.472.708.058.089.181.177.115.288s-.2.052-.3.052c-.829,0-1.659,0-2.487,0Z" transform="translate(16322 14135)" fill="#167688"/>
    <path id="Path_144038" data-name="Path 144038" d="M1798.6,593.586h-2.487c-.093,0-.215.039-.27-.048-.073-.115.045-.206.1-.289q1.841-2.708,3.684-5.408c1.617-2.371,3.25-4.733,4.842-7.122.346-.52.687-.857,1.327-.732a2.263,2.263,0,0,0,.647,0c.28-.026.345.061.233.336-.456,1.128-.9,2.26-1.349,3.391q-1.464,3.681-2.931,7.362c-.289.726-.585,1.45-.863,2.179a.447.447,0,0,1-.484.34c-.817-.014-1.634-.005-2.451-.005Z" transform="translate(16322 14135)" fill="#167688"/>
    <path id="Path_144039" data-name="Path 144039" d="M1803.877,598.157a2.992,2.992,0,0,1,1.435.056c.409.159.507.529.545.935.02.209-.107.513.3.476.344-.032.475-.168.477-.556,0-.663,0-1.327,0-1.99,0-.155-.081-.365.21-.374s.252.194.252.376c0,.713-.005,1.426,0,2.139,0,.147-.123.376.168.4.26.023.488-.03.567-.333a1.383,1.383,0,0,0,.02-.336c0-.65,0-1.3,0-1.951,0-.161,0-.3.215-.3.193,0,.244.1.243.286-.005.751,0,1.5-.005,2.252,0,.38-.141.509-.555.51-1.189,0-2.379-.006-3.569-.007-1.321,0-2.643.006-3.964,0-.2,0-.317.037-.384.278a1.166,1.166,0,0,1-1.293.911,1.663,1.663,0,0,0,.8-.764c.133-.335.076-.423-.269-.423-.252,0-.505,0-.757,0a.393.393,0,0,1-.446-.421c-.01-.335-.006-.673-.017-1.011-.006-.175.086-.215.224-.214.348,0,.7-.014,1.045.014a.8.8,0,0,1,.756.87,2.071,2.071,0,0,0,0,.224c.018.139-.067.33.122.39a.933.933,0,0,0,.57,0c.123-.04.08-.193.081-.3,0-.7-.006-1.4.008-2.1,0-.181-.123-.477.224-.483.382-.006.22.314.234.5.022.286,0,.575,0,.862,0,.211.067.257.263.165a3.833,3.833,0,0,1,1.67-.125c.157,0,.148.132.142.247a3.717,3.717,0,0,1-.062,1.041c-.065.186.06.214.191.215.626,0,1.25,0,1.876,0,.164,0,.188-.094.2-.239a.992.992,0,0,0-.957-1.15c-.189-.015-.382.041-.566-.076m-2.245,1.45c.154,0,.263.008.37,0a.845.845,0,0,0,.712-1.24.208.208,0,0,0-.094-.1,1.311,1.311,0,0,0-1.336.405.96.96,0,0,0-.124.821c.09.235.345.068.472.115m-3.338-.762v.187c.005.5.086.588.562.59.584,0,.584,0,.568-.6,0-.075,0-.152-.009-.226-.036-.407-.325-.587-.849-.573-.436.013-.214.349-.272.547a.3.3,0,0,0,0,.073" transform="translate(16322 14135)" fill="#167688"/>
    <path id="Path_144040" data-name="Path 144040" d="M1816.672,600.921a1.591,1.591,0,0,0,.812-.833c.076-.217.039-.338-.209-.335-.264,0-.529,0-.792,0-.386-.007-.514-.137-.537-.539-.064-1.113-.064-1.113.991-1.11.78,0,1.062.284,1.048,1.111-.006.338.106.446.418.418a4.418,4.418,0,0,0,.894-.071c.228-.069.218-.137.059-.284a1.425,1.425,0,0,1-.406-.563c-.129-.364-.073-.507.279-.615a2.384,2.384,0,0,1,1.387-.005c.339.1.421.271.3.618a1.377,1.377,0,0,1-.405.565c-.052.046-.129.116-.124.166.01.108.124.094.2.117a4.41,4.41,0,0,0,1.076.058c.19,0,.194-.15.2-.292,0-.325.009-.649,0-.974,0-.178.061-.246.23-.249s.237.066.231.244c-.008.287-.012.574,0,.861.007.145-.072.381.169.377.2,0,.3-.179.3-.395,0-.25,0-.5,0-.75,0-.184-.017-.352.247-.343.242.009.224.165.223.332,0,.287,0,.575,0,.862,0,.11-.086.282.1.306a.31.31,0,0,0,.353-.257,3.848,3.848,0,0,0,.042-.56c.006-.124.005-.25,0-.375,0-.161.005-.3.217-.3s.228.125.226.292c-.005.261,0,.525,0,.789,0,.212-.08.465.288.448s.532-.133.536-.488c.007-.626,0-1.251,0-1.877,0-.114,0-.226,0-.338,0-.186.108-.223.264-.219s.2.093.2.238c0,.788-.005,1.576-.008,2.366a.389.389,0,0,1-.432.435c-1.514,0-3.033.064-4.54-.045-.784-.055-1.546.149-2.319.041-.228-.031-.225.187-.274.326a1.141,1.141,0,0,1-1.259.854m-.256-2.13c0,.07-.006.107-.006.146a.669.669,0,0,0,1,.667.173.173,0,0,0,.113-.171,3.755,3.755,0,0,0-.024-.672.7.7,0,0,0-.841-.524c-.419.047-.166.391-.243.554m3.536-.583c-.208.065-.521-.1-.576.271-.038.258.371.8.56.8s.548-.507.535-.782c-.018-.377-.327-.222-.519-.287" transform="translate(16322 14135)" fill="#167688"/>
    <path id="Path_144041" data-name="Path 144041" d="M1832.971,600.93a4.11,4.11,0,0,0,.42-2.508c.007-.166-.022-.332.224-.326.164,0,.244.056.24.237-.007.326.009.653,0,.976-.011.295.159.319.373.313s.452.051.442-.307c-.009-.314.005-.626,0-.94,0-.18.049-.279.242-.282.212,0,.227.127.223.295-.006.287-.011.575,0,.862,0,.124-.056.314.135.334a.3.3,0,0,0,.325-.287c.031-.27.025-.548.035-.822.006-.178-.057-.391.246-.378.28.014.212.219.214.377a7.655,7.655,0,0,1-.02.9c-.033.3.113.25.273.177a.423.423,0,0,0,.23-.431c0-.237.006-.474,0-.711,0-.177,0-.322.237-.314.211.007.222.132.219.3,0,.287,0,.575,0,.863,0,.145-.1.354.167.364.24.008.506.049.6-.271a1.694,1.694,0,0,0,.044-.444c0-.626,0-1.251,0-1.877,0-.17-.005-.325.234-.326s.233.171.234.329c0,.713,0,1.424-.01,2.137-.007.48-.1.578-.553.58-1.154.005-2.308.007-3.462,0-.275,0-.445.044-.5.376-.067.42-.371.642-.811.812" transform="translate(16322 14135)" fill="#167688"/>
    <path id="Path_144042" data-name="Path 144042" d="M1786.267,599.624c.388,0,.776-.015,1.163.005.275.016.383-.068.384-.376,0-.774-.24-1.037-.987-1.02-.12,0-.24,0-.359,0-.031,0-.075-.006-.062-.126a4.812,4.812,0,0,1,1.425.07.684.684,0,0,1,.439.737c0,.7.012.7.692.71.409.005.818,0,1.226.005.209.006.293-.068.3-.3a.961.961,0,0,0-.933-1.093,1.831,1.831,0,0,1-.573-.039,1.987,1.987,0,0,1,1.667.162.986.986,0,0,1,.294.812c0,.245-.018.489.344.459.329-.025.483-.159.485-.511,0-.686,0-1.375,0-2.062,0-.179-.026-.358.242-.354s.215.178.216.336c0,.727,0,1.451,0,2.176,0,.408-.116.53-.525.531-1.442,0-2.883,0-4.325,0h-1.118c0-.038,0-.076,0-.114" transform="translate(16322 14135)" fill="#167688"/>
    <path id="Path_144043" data-name="Path 144043" d="M1828.727,599.74c-.072,0-.144.01-.215.013-.706.022-.86-.132-.857-.854,0-.8,0-.8.766-.8.12,0,.24,0,.36,0a.823.823,0,0,1,.881.9c.025.618.025.618.616.617.564,0,1.129-.008,1.693,0,.244,0,.331-.1.335-.359.009-.709-.2-.971-.9-1.025-.251-.017-.5,0-.756-.008-.076,0-.179.042-.211-.079a.215.215,0,0,1,.075-.2c.373-.388.753-.77,1.121-1.163.129-.137.269-.04.445-.021-.269.285-.537.568-.807.849-.076.08-.155.157-.23.237-.138.145-.122.241.086.248.24.009.48.009.72.007a1.051,1.051,0,0,1,.994,1.515c-.049.133-.142.113-.234.114-.985.006-1.969.014-2.954.015-.3,0-.468-.153-.458-.488a1.611,1.611,0,0,0-.066-.627.731.731,0,0,0-.913-.373.228.228,0,0,0-.08.071,1.072,1.072,0,0,0,.584,1.408" transform="translate(16322 14135)" fill="#167688"/>
    <path id="Path_144044" data-name="Path 144044" d="M1794.489,599.623c.353.04.385-.163.381-.438-.011-.723,0-1.448,0-2.17,0-.147-.032-.309.2-.312s.252.14.251.315c0,.364,0,.725-.007,1.086-.005.2.068.252.231.157.509-.3,1.061-.092,1.591-.153.149-.016.172.1.174.222,0,.176.005.351,0,.524,0,.7-.151.876-.815.892s-1.31,0-1.965,0c-.015-.042-.029-.085-.044-.127m1.412,0c.059,0,.192,0,.322-.021a.869.869,0,0,0,.624-1.226.194.194,0,0,0-.129-.115,1.138,1.138,0,0,0-1.362.683c-.157.535-.055.683.545.679" transform="translate(16322 14135)" fill="#167688"/>
    <path id="Path_144045" data-name="Path 144045" d="M1779.523,599.75h-.18c-.726.018-.847-.1-.854-.844-.006-.808-.006-.808.768-.806.145,0,.289-.005.432,0a.779.779,0,0,1,.791.793,1.544,1.544,0,0,1,.012.224c-.011.3.036.517.4.5.47-.014.608-.107.623-.52.009-.26.008-.523,0-.786-.005-.2.107-.217.256-.219s.207.077.2.231c-.006.324,0,.648,0,.975a.388.388,0,0,1-.4.434q-.576.015-1.152,0a.359.359,0,0,1-.377-.4c0-.125-.012-.25-.023-.375a.715.715,0,0,0-.909-.728c-.078.016-.152.033-.153.12a2.8,2.8,0,0,0,.052,1.041c.09.248.317.272.507.355" transform="translate(16322 14135)" fill="#167688"/>
    <path id="Path_144046" data-name="Path 144046" d="M1810.493,599.724c-.968.068-1.056-.021-1.052-1.03,0-.584,0-.584.572-.594.144,0,.288,0,.432,0,.688,0,.965.275.978.986.01.488.067.546.518.538.372,0,.514-.15.524-.547.007-.25.005-.5,0-.75,0-.156.055-.227.211-.229s.247.063.242.238c-.009.35-.011.7-.029,1.049a.347.347,0,0,1-.383.359c-.372,0-.744,0-1.116-.006-.284,0-.414-.162-.423-.446,0-.112,0-.224-.006-.337a.712.712,0,0,0-.921-.709.151.151,0,0,0-.143.172c0,.262-.015.527,0,.787.028.368.278.49.59.521" transform="translate(16322 14135)" fill="#167688"/>
    <path id="Path_144047" data-name="Path 144047" d="M1782.578,598.159a4.109,4.109,0,0,1,1.35-.02.6.6,0,0,1,.519.586c.013.163.014.326.031.487.019.179-.059.426.262.415.284-.011.545-.034.564-.413.014-.286.016-.575.018-.862,0-.166.058-.253.233-.251s.213.11.21.267c-.007.324,0,.648-.009.974-.006.225-.106.389-.345.39-.971.005-1.941,0-2.911,0-.017,0-.034-.026-.135-.109.5,0,.905-.013,1.312.005.247.01.337-.08.349-.339.033-.762-.227-1.056-.962-1.056a.775.775,0,0,1-.486-.074" transform="translate(16322 14135)" fill="#167688"/>
    <path id="Path_144048" data-name="Path 144048" d="M1826.5,598.233c0,.4,0,.8,0,1.2,0,.176,0,.321-.234.319-.215,0-.223-.131-.223-.294,0-.826,0-1.65,0-2.475,0-.178.041-.277.242-.278.222,0,.214.133.212.294-.005.41,0,.823,0,1.235Z" transform="translate(16322 14135)" fill="#167688"/>
    <path id="Path_144049" data-name="Path 144049" d="M1793.238,598.251c0,.41,0,.822,0,1.232,0,.154-.016.268-.208.268-.177,0-.254-.062-.252-.262.008-.833.005-1.667,0-2.5,0-.172.031-.284.232-.29s.227.118.226.284c0,.423,0,.846,0,1.269" transform="translate(16322 14135)" fill="#167688"/>
    <path id="Path_144050" data-name="Path 144050" d="M1838.866,598.233c0-.424.009-.849,0-1.271-.006-.208.081-.254.256-.264.2-.009.208.107.207.261,0,.836,0,1.67,0,2.507,0,.17-.02.283-.232.28s-.232-.1-.229-.278c.008-.412,0-.824,0-1.235Z" transform="translate(16322 14135)" fill="#167688"/>
    <path id="Path_144051" data-name="Path 144051" d="M1813.4,599.625c.4,0,.809-.013,1.213.005.272.012.352-.109.355-.375.009-.744-.246-1.022-.964-1.014-.154,0-.308,0-.534,0a2.305,2.305,0,0,1,1.672.024.894.894,0,0,1,.27.775c.011.7.01.7-.657.706-.42,0-.841,0-1.261,0a.308.308,0,0,1-.1-.034c0-.027,0-.057,0-.085" transform="translate(16322 14135)" fill="#167688"/>
    <path id="Path_144052" data-name="Path 144052" d="M1835.557,597.312a.21.21,0,0,1,.187.231.183.183,0,0,1-.17.206.2.2,0,0,1-.215-.207c-.01-.126.088-.192.2-.23" transform="translate(16322 14135)" fill="#167688"/>
    <path id="Path_144053" data-name="Path 144053" d="M1836.311,597.557c-.012.115-.073.2-.2.185a.2.2,0,0,1-.183-.2.2.2,0,0,1,.2-.215c.124,0,.191.083.188.23" transform="translate(16322 14135)" fill="#167688"/>
    <path id="Path_144054" data-name="Path 144054" d="M1779.24,597.512c-.033.13-.093.21-.222.2s-.174-.108-.163-.229.069-.187.183-.175a.223.223,0,0,1,.2.2" transform="translate(16322 14135)" fill="#167688"/>
    <path id="Path_144055" data-name="Path 144055" d="M1779.6,597.712a.169.169,0,0,1-.182-.185c-.005-.123.053-.226.187-.216a.2.2,0,0,1,.19.225.178.178,0,0,1-.195.176" transform="translate(16322 14135)" fill="#167688"/>
    <path id="Path_144056" data-name="Path 144056" d="M1804.572,597.5c-.005.116-.061.2-.17.207a.181.181,0,0,1-.209-.2c.005-.117.067-.221.2-.2a.183.183,0,0,1,.174.2" transform="translate(16322 14135)" fill="#167688"/>
    <path id="Path_144057" data-name="Path 144057" d="M1828.39,597.509a.182.182,0,0,1-.2.2.169.169,0,0,1-.176-.192.191.191,0,0,1,.2-.213c.11.005.169.081.176.2" transform="translate(16322 14135)" fill="#167688"/>
    <path id="Path_144058" data-name="Path 144058" d="M1809.948,597.708a.2.2,0,0,1,.022-.4c.133.006.181.1.173.227a.172.172,0,0,1-.195.174" transform="translate(16322 14135)" fill="#167688"/>
    <path id="Path_144059" data-name="Path 144059" d="M1810.722,597.478c-.007.123-.029.217-.153.231a.183.183,0,0,1-.225-.179.194.194,0,0,1,.195-.22.174.174,0,0,1,.183.168" transform="translate(16322 14135)" fill="#167688"/>
    <path id="Path_144060" data-name="Path 144060" d="M1828.956,597.517c-.016.121-.072.193-.185.195-.135,0-.2-.091-.192-.216a.188.188,0,0,1,.184-.191c.134,0,.176.1.193.212" transform="translate(16322 14135)" fill="#167688"/>
    <path id="Path_144061" data-name="Path 144061" d="M1781.706,600.211c.177,0,.254.051.264.165.013.142-.079.2-.2.2a.169.169,0,0,1-.178-.184c0-.117.061-.182.111-.179" transform="translate(16322 14135)" fill="#167688"/>
    <path id="Path_144062" data-name="Path 144062" d="M1812.346,600.384c-.025.106-.069.186-.187.187s-.2-.059-.193-.2.088-.162.19-.16a.186.186,0,0,1,.19.172" transform="translate(16322 14135)" fill="#167688"/>
    <path id="Path_144063" data-name="Path 144063" d="M1835.663,597.019c.017-.1.062-.181.18-.178a.169.169,0,0,1,.18.183c0,.124-.066.219-.2.206-.107-.01-.166-.086-.163-.211" transform="translate(16322 14135)" fill="#167688"/>
    <path id="Path_144064" data-name="Path 144064" d="M1781.4,600.424a.174.174,0,0,1-.213.153.176.176,0,0,1-.162-.205c.009-.147.117-.177.231-.162s.144.112.144.214" transform="translate(16322 14135)" fill="#167688"/>
    <path id="Path_144065" data-name="Path 144065" d="M1784.993,600.212a.17.17,0,0,1,.2.168c.009.113-.041.194-.163.2a.168.168,0,0,1-.2-.167.164.164,0,0,1,.163-.2" transform="translate(16322 14135)" fill="#167688"/>
    <path id="Path_144066" data-name="Path 144066" d="M1785.552,600.575c-.116-.013-.151-.093-.146-.2s.082-.167.191-.156.161.085.153.2-.091.158-.2.162" transform="translate(16322 14135)" fill="#167688"/>
    <path id="Path_144067" data-name="Path 144067" d="M1812.7,600.212a.173.173,0,0,1,.2.161.164.164,0,0,1-.167.2c-.11.008-.191-.03-.2-.158s.037-.194.162-.2" transform="translate(16322 14135)" fill="#167688"/>
  </g>
</svg>
