<svg xmlns="http://www.w3.org/2000/svg" width="59.686" height="38.074" viewBox="0 0 59.686 38.074">
  <g id="Client_59" transform="translate(-18008.604 -14706.412)">
    <path id="Path_145319" data-name="Path 145319" d="M1739.18,594.905a17.515,17.515,0,0,0,.4-1.811,30.006,30.006,0,0,0,.451-7.071,1.512,1.512,0,0,1,0-.243.139.139,0,0,1,.155-.141l.093,0c.544.047,1.089.089,1.632.141.276.025.279.032.322.31.122.8.253,1.6.452,2.385a14.487,14.487,0,0,0,.566,1.8c.036.092.073.181.116.268a.1.1,0,0,0,.074.045.081.081,0,0,0,.072-.037c.071-.178.146-.358.2-.544a9.834,9.834,0,0,0,.374-2.2,14.782,14.782,0,0,0,.03-1.6c-.006-.157.043-.213.188-.216.576-.008,1.154-.012,1.73-.007.176,0,.217.044.226.236.018.421.037.844.031,1.265a16.446,16.446,0,0,1-2.211,8.144,2.346,2.346,0,0,1-.419.6,2.3,2.3,0,0,1-.7-.712c-.185-.258-.346-.539-.513-.81s-.276-.61-.469-.892a.733.733,0,0,0-.141.437,22.929,22.929,0,0,1-1.6,5.577,11.91,11.91,0,0,1-.7,1.373c-.067.11-.149.123-.226.026-.179-.222-.36-.448-.52-.686a17.337,17.337,0,0,1-1.452-2.719c-.316-.725-.591-1.466-.855-2.211a1.171,1.171,0,0,0-.222-.487,2,2,0,0,0-.488.364,31.742,31.742,0,0,1-5.1,3.515,21.551,21.551,0,0,1-5.55,2.141,17.275,17.275,0,0,1-5.066.412,18.344,18.344,0,0,1-7.864-2.455,25.894,25.894,0,0,1-7.152-6.117,2.68,2.68,0,0,0-.534-.6c-.2.24-.135.545-.171.818a28.211,28.211,0,0,1-1.8,7.082,16.038,16.038,0,0,1-1.1,2.251c-.091.15-.189.3-.291.441-.07.1-.148.1-.23,0a7.085,7.085,0,0,1-.62-.913,14.219,14.219,0,0,1-1.219-2.784,25.82,25.82,0,0,1-.735-2.814,1.4,1.4,0,0,0-.134-.463c-.147.074-.156.235-.209.364a8.957,8.957,0,0,1-.864,1.667c-.136.2-.29.382-.44.566a.122.122,0,0,1-.2,0c-.155-.16-.311-.32-.451-.493a9.543,9.543,0,0,1-.981-1.538c-.044-.084-.082-.224-.171-.21-.139.023-.1.182-.109.285a32.16,32.16,0,0,1-1.119,5.662,14.972,14.972,0,0,1-1,2.516,6.047,6.047,0,0,1-.9,1.358c-.183.2-.2.2-.405-.009a10.056,10.056,0,0,1-1.178-1.511,17.164,17.164,0,0,1-1.866-4.071,30.772,30.772,0,0,1-1.113-4.821,53.863,53.863,0,0,1-.588-8.727c0-.291.026-.583.041-.874a.181.181,0,0,1,.174-.191c.171-.017.341-.04.512-.052q.723-.048,1.448-.087c.207-.013.252.026.258.238.007.308.008.617.006.926-.01,1.461.027,2.921.129,4.378a37.3,37.3,0,0,0,.827,5.962,13.67,13.67,0,0,0,.916,2.753c.089.189.2.369.3.547a.088.088,0,0,0,.152-.02c.069-.162.141-.325.2-.492a15.882,15.882,0,0,0,.673-2.93,46.934,46.934,0,0,0,.4-6.745c0-2.159-.1-4.316-.239-6.469-.153-2.4-.376-4.785-.646-7.17-.17-1.5-.375-2.991-.564-4.486-.01-.08-.027-.16-.033-.24a.157.157,0,0,1,.126-.177c.273-.068.548-.129.822-.191l1.325-.3c.2-.043.251-.008.282.205q.112.768.209,1.542c.145,1.158.3,2.314.425,3.474.168,1.5.322,3,.432,4.5.12,1.617.226,3.236.379,4.852a33.248,33.248,0,0,0,.835,5.078c.076.3.19.582.291.871a.091.091,0,0,0,.07.047.088.088,0,0,0,.071-.043c.047-.138.093-.276.131-.414a25.923,25.923,0,0,0,.643-3.487c.079-.627.136-1.255.2-1.884.031-.29.049-.32.3-.323.562-.006,1.123-.005,1.685,0,.238,0,.272.039.281.283.025.778.039,1.556.067,2.336a41.1,41.1,0,0,0,.653,6.331,11.853,11.853,0,0,0,.566,2.054c.017.044.047.089.1.073a.112.112,0,0,0,.065-.058,7.112,7.112,0,0,0,.388-1.146,22.26,22.26,0,0,0,.555-3.056,57.9,57.9,0,0,0,.37-6.215c0-.1,0-.194.01-.292a.147.147,0,0,1,.145-.155c.108-.005.218-.005.327,0,.451.018.9.047,1.355.058a.533.533,0,0,1,.462.266c.455.659.914,1.314,1.387,1.959a24.7,24.7,0,0,0,5.639,5.645,16.513,16.513,0,0,0,5.691,2.638,15.445,15.445,0,0,0,5.11.374,20.316,20.316,0,0,0,7.615-2.358,26.436,26.436,0,0,0,4.521-3.015l.182-.152c.347-.306.321-.26.237-.7-.255-1.319-.53-2.633-.718-3.966-.043-.306-.089-.611-.128-.916-.015-.118.045-.192.16-.185.669.045,1.337.1,2.006.145a.188.188,0,0,1,.189.176c.019.128.042.256.059.385a30.738,30.738,0,0,0,1.7,6.911c.188.5.414.981.623,1.468a.248.248,0,0,0,.172.163" transform="translate(16322 14135)" fill="#231f20"/>
    <path id="Path_145320" data-name="Path 145320" d="M1724.076,605.8a1.27,1.27,0,0,1-.487.172.227.227,0,0,1-.282-.1.882.882,0,0,0-1.008-.308.547.547,0,0,0-.286.153.46.46,0,0,0,.042.713,1.255,1.255,0,0,0,.428.187c.18.052.364.089.544.139.15.042.3.089.446.142a1.116,1.116,0,0,1,.806,1.071,1.21,1.21,0,0,1-.655,1.239,2.172,2.172,0,0,1-2.232-.075,1.186,1.186,0,0,1-.495-.627.145.145,0,0,1,.107-.217c.1-.031.211-.055.318-.081a.258.258,0,0,1,.342.155.769.769,0,0,0,.689.426,3.51,3.51,0,0,0,.513,0,.745.745,0,0,0,.266-.078.517.517,0,0,0,.331-.486.508.508,0,0,0-.359-.512c-.208-.069-.419-.126-.628-.187s-.45-.127-.672-.2a1.063,1.063,0,0,1-.727-.925,1.19,1.19,0,0,1,.425-1.165,1.408,1.408,0,0,1,.405-.237,1.937,1.937,0,0,1,1.628.12.935.935,0,0,1,.541.687" transform="translate(16322 14135)" fill="#231f20"/>
    <path id="Path_145321" data-name="Path 145321" d="M1699.457,581.686a2.43,2.43,0,0,1,.2-.97,1.7,1.7,0,0,1,.375-.55.967.967,0,0,1,1.456.035,1.717,1.717,0,0,1,.388.654,2.692,2.692,0,0,1-.006,1.8,1.74,1.74,0,0,1-.364.614.991.991,0,0,1-1.528,0,1.749,1.749,0,0,1-.328-.525,2.741,2.741,0,0,1-.192-1.06" transform="translate(16322 14135)" fill="#231f20"/>
    <path id="Path_145322" data-name="Path 145322" d="M1698.147,602.184a2.122,2.122,0,0,1-.336,1.316,1.024,1.024,0,0,1-1.841.031,2.535,2.535,0,0,1,.02-2.7,1.576,1.576,0,0,1,.292-.307.923.923,0,0,1,1.241.033,1.963,1.963,0,0,1,.622,1.313,2.692,2.692,0,0,1,0,.309" transform="translate(16322 14135)" fill="#231f20"/>
    <path id="Path_145323" data-name="Path 145323" d="M1732.336,608.983c-.115.054-.126.16-.163.245a.214.214,0,0,1-.257.156c-.119-.028-.123-.129-.127-.228,0-.081,0-.162,0-.243v-3.454c0-.112,0-.227.012-.34a.152.152,0,0,1,.147-.153c.062-.007.125-.01.187-.011.346,0,.363.015.369.38,0,.308,0,.616.007.925a.1.1,0,0,0,.043.071.092.092,0,0,0,.084-.007,1.369,1.369,0,0,0,.1-.1.971.971,0,0,1,1.357.014,1.431,1.431,0,0,1,.406.7,2.855,2.855,0,0,1-.007,1.491,1.768,1.768,0,0,1-.266.563,1.113,1.113,0,0,1-1.619.239c-.05-.039-.091-.086-.138-.129s-.091-.081-.131-.116m.158-1.194c.011.136.017.329.047.521a.613.613,0,0,0,.309.458.6.6,0,0,0,.891-.394,2.32,2.32,0,0,0,.027-1.243.916.916,0,0,0-.093-.222.579.579,0,0,0-.92-.129.855.855,0,0,0-.235.515c-.019.143-.016.29-.026.494" transform="translate(16322 14135)" fill="#231f20"/>
    <path id="Path_145324" data-name="Path 145324" d="M1736.213,606.048a1.5,1.5,0,0,1,1.641.929,2.124,2.124,0,0,1,.007,1.516,1.438,1.438,0,0,1-1.694.947,1.142,1.142,0,0,1-.764-.511,2.054,2.054,0,0,1-.2-1.982,1.3,1.3,0,0,1,1.014-.9m1.025,1.7c-.01-.112-.014-.227-.031-.338a1.333,1.333,0,0,0-.07-.28.623.623,0,0,0-.585-.474.606.606,0,0,0-.621.419,1.881,1.881,0,0,0-.018,1.326.625.625,0,0,0,.6.455.636.636,0,0,0,.626-.487,1.89,1.89,0,0,0,.1-.621" transform="translate(16322 14135)" fill="#231f20"/>
    <path id="Path_145325" data-name="Path 145325" d="M1727.658,607.755c-.017.154-.022.3-.049.442a1.471,1.471,0,0,1-1.759,1.247,1.177,1.177,0,0,1-.825-.58,2.081,2.081,0,0,1-.2-1.81,1.393,1.393,0,0,1,1.525-1,1.432,1.432,0,0,1,1.262,1.231c.029.157.034.32.05.473m-.77-.01a1.81,1.81,0,0,0-.1-.671.612.612,0,0,0-.572-.421.593.593,0,0,0-.6.381,1.78,1.78,0,0,0-.012,1.413.6.6,0,0,0,.586.4.626.626,0,0,0,.607-.444,2,2,0,0,0,.095-.662" transform="translate(16322 14135)" fill="#231f20"/>
    <path id="Path_145326" data-name="Path 145326" d="M1729.046,606.647c.073-.1.125-.182.184-.254a.885.885,0,0,1,1.013-.306.9.9,0,0,1,.661.848,2.2,2.2,0,0,1,.021.242c0,.65.005,1.3,0,1.947,0,.244-.035.266-.279.274-.406.013-.422,0-.425-.419,0-.485,0-.973,0-1.459a1.842,1.842,0,0,0-.041-.433.48.48,0,0,0-.74-.312.743.743,0,0,0-.325.4,1.524,1.524,0,0,0-.087.524c0,.4,0,.81,0,1.217,0,.112,0,.225-.011.337a.126.126,0,0,1-.117.128,2.883,2.883,0,0,1-.372.013c-.166-.007-.215-.057-.217-.244-.005-.8,0-1.589,0-2.383,0-.144,0-.292,0-.436s.056-.206.191-.222c.016,0,.031,0,.047,0,.351,0,.442-.021.418.375a.335.335,0,0,0,.017.1.732.732,0,0,0,.067.07" transform="translate(16322 14135)" fill="#231f20"/>
    <path id="Path_145327" data-name="Path 145327" d="M1739.357,607.171c0,.566,0,1.132,0,1.7,0,.129-.006.259-.016.387a.126.126,0,0,1-.117.127,4.173,4.173,0,0,1-.418.009.146.146,0,0,1-.151-.15c-.006-.095-.01-.193-.01-.29q0-1.766,0-3.538c0-.095,0-.193.009-.29a.152.152,0,0,1,.143-.157,1.278,1.278,0,0,1,.139-.011c.4-.012.418.006.421.425,0,.6,0,1.195,0,1.792" transform="translate(16322 14135)" fill="#231f20"/>
  </g>
</svg>
