<svg xmlns="http://www.w3.org/2000/svg" width="64.699" height="58.297" viewBox="0 0 64.699 58.297">
  <g id="Client_80" transform="translate(-17038.488 -14812.322)">
    <path id="Path_144561" data-name="Path 144561" d="M748.738,685.259a1.059,1.059,0,0,1-.974.562.943.943,0,0,1,.974-.562" transform="translate(16322 14135)" fill="#f7c4d6" fill-rule="evenodd"/>
    <path id="Path_144562" data-name="Path 144562" d="M747.966,681.735c.344-.189.858-.721.948,0a1.633,1.633,0,0,1-.526,1.272c1.024-.354,1.47-.772,1.459-1.4s1.128-2.481.8-3.392a1.506,1.506,0,0,0-2.259-.607,2.243,2.243,0,0,0-.986,2.2c0,1.25.221,2.122.564,1.933" transform="translate(16322 14135)"/>
    <path id="Path_144563" data-name="Path 144563" d="M758.637,703.1c.563-.658,1.145-1.309,1.757-1.92a7.839,7.839,0,0,1,2.644-1.623,10.685,10.685,0,0,1,2.5-.421c.235-.095.078-.254.078-.254-3.842-.535-7.4,3.884-7.88,4.4a5.206,5.206,0,0,1-1.219,1.1c-.639.339-1.269-.253-1.905-.068a1.057,1.057,0,0,0-.468.314c-.414.445-.58,1.107-1.038,1.516a.293.293,0,0,1-.269.082.311.311,0,0,1-.183-.231,11.954,11.954,0,0,0-.729-2.276,10.875,10.875,0,0,1-.618,2.018A3.5,3.5,0,0,1,750,707.328a.686.686,0,0,0-.148.106c.031-.317.052-.641.065-.981.018-.2.034-.414.052-.651.05-.716.086-1.583.069-2.432a5.819,5.819,0,0,0-.232-2.232l0-.006a6.534,6.534,0,0,0-1.039-2.719c-.117-.146.208-.558.537-.347s.609.5.939.15.368-.784-.462-1.4a7.285,7.285,0,0,1-1.485-1.632,7.179,7.179,0,0,1,1.721,1.1c.24.38.547.349.87-.057s.454-.982-.559-1.927c.8.592,1.227-.091,1.427-.434s.035-.755-.9-1.439c-.047-.032-.094-.07-.145-.106,0-.129,0-.292,0-.491-.034-2.038,2.844-3.111,2.736-3.774s-1.086-3.494-1.3-4.117c-.272-.789-1.109-.489-1.36.189s.029,2.216.448,1.375,2.013,2.507.949,3.234a5.208,5.208,0,0,0-1.713,3,3.323,3.323,0,0,1,.1.465c-.505-.376-1.1-.831-1.568-1.144l.038,0,.016-.009a.283.283,0,0,0,.114-.1c.032-.044.066-.091.1-.134a1.061,1.061,0,0,0,.091-.185c.024-.066.042-.138.067-.208a1.366,1.366,0,0,0,.091-.284c.014-.128.03-.254.036-.383s0-.273.009-.409c.013-.08.028-.162.043-.242.041-.144.082-.288.117-.432.029-.125.059-.253.083-.378.052-.192.1-.384.142-.575.053-.236.1-.469.156-.7.054-.252.1-.505.146-.761.028-.17.053-.342.075-.514a.152.152,0,0,1,.007-.027,6.032,6.032,0,0,0,.116-.72,1.763,1.763,0,0,0-.021-.552c-.023-.1-.051-.19-.153-.219a.118.118,0,0,0-.068,0h-.005a.47.47,0,0,0-.246.237,2.663,2.663,0,0,0-.246.56,6.749,6.749,0,0,0-.2.725c-.051.25-.1.5-.15.752s-.107.51-.148.764-.066.49-.108.733-.091.473-.152.7l0,.008a.367.367,0,0,0,.006-.048c.049-.251.089-.5.113-.755.02-.2.039-.4.053-.594s.048-.406.064-.609c.015-.3.022-.6.027-.89,0-.262.01-.522.015-.784a5.449,5.449,0,0,0-.027-.639.648.648,0,0,0-.146-.383c-.037-.036-.063-.091-.112-.108-.077-.053-.194.116-.225.164a2.132,2.132,0,0,0-.194.413,4.63,4.63,0,0,0-.189.652c-.039.188-.074.374-.107.563-.052-.209-.112-.413-.177-.615a5.546,5.546,0,0,0-.293-.759,1.008,1.008,0,0,0-.345-.41c-.019,0-.04-.007-.061-.007a.12.12,0,0,0-.033,0h0l-.059,0c-.085,0-.137.095-.175.157-.012.026-.023.052-.036.078a1.721,1.721,0,0,0-.219-.651c-.214-.164-.584-.711-.714.259-.094.72-.468,8.612.011,9.2.1-.435.29-6.65.751-7.052.013.189.029.381.046.567.027.351.046.694.063,1.043.018.4.037.795.077,1.192a4.952,4.952,0,0,0,.251,1.216,4.323,4.323,0,0,0,.432.836c.014.014.024.032.037.048a.158.158,0,0,0-.034.018.845.845,0,0,1-.056.478,1.929,1.929,0,0,0-1.067.694c-.317.512.431,1.379.431,1.379s-.808-.111-1.011.5.2,1.32,1.056,2.014,1.605,1.5,1.239,1.728-.723.285-.249.988a13.455,13.455,0,0,1,1.271,3.336c.115.445.219.922.3,1.416a10.458,10.458,0,0,1-.029,3c-.028.175-.06.349-.1.53-.041.2-.089.4-.137.607h-.049a1.972,1.972,0,0,1-1.089.289,16.42,16.42,0,0,1-1.769-.189,5.551,5.551,0,0,0-2.343.178,6.064,6.064,0,0,0-2.389,1.984,7.18,7.18,0,0,0-1.38,2.915,10.091,10.091,0,0,0-.1,3.282,7.191,7.191,0,0,0,.422,1.882,3.342,3.342,0,0,0,1.124,1.512,2.714,2.714,0,0,0,1.595.479c1.5-.027,2.344-1.255,3.039-2.478a28.251,28.251,0,0,0,1.809-4.02A21.073,21.073,0,0,0,749.789,708c.248-.146.524-.247.77-.4a4.462,4.462,0,0,0,1.3-1.494,6.367,6.367,0,0,0-.035.757.808.808,0,0,0,.336.642.676.676,0,0,0,.513.049,1.843,1.843,0,0,0,1.087-1.186,5.752,5.752,0,0,1,.7-1.522.648.648,0,0,1,.438-.276.685.685,0,0,1,.506.312,1.467,1.467,0,0,0,.427.448c.353.188.774-.052,1.082-.311a15.882,15.882,0,0,0,1.722-1.919m-9.759-19.2,0,0v0l0-.007m-.354,6.72c-.008,0-.015.006-.022,0l0,0h.026m-.19.007a.115.115,0,0,0,.062.023c.058-.005.113-.009.167-.019a.18.18,0,0,0,.049-.021.89.89,0,0,0,.234-.168,2.341,2.341,0,0,0,.282-.358c0,.026,0,.053.007.079a2.307,2.307,0,0,1,.036.273.992.992,0,0,1-.046.2c-.022.06-.043.12-.061.181a.422.422,0,0,1-.075.13.2.2,0,0,0-.04.086,2.644,2.644,0,0,0-.635-.337v-.008c.007-.021.011-.043.019-.065" transform="translate(16322 14135)"/>
    <path id="Path_144564" data-name="Path 144564" d="M746.282,708.669a4.3,4.3,0,0,0-1.924.021c-1.656.445-2.6,2.251-3.124,3.8a5.819,5.819,0,0,0,.362,5.2c1.243,1.743,3.554.914,4.934-1.832a35.353,35.353,0,0,0,2.6-7.191,8.385,8.385,0,0,1-2.851,0" transform="translate(16322 14135)" fill="#dfcbc8"/>
    <path id="Path_144565" data-name="Path 144565" d="M763.56,729.625c.157.182.318.361.476.543-.16-.182-.319-.361-.476-.543" transform="translate(16322 14135)" fill="#fff" fill-rule="evenodd"/>
    <path id="Path_144566" data-name="Path 144566" d="M717.094,725.6a.148.148,0,0,0-.1.031.129.129,0,0,0-.034.1.586.586,0,0,0,.041.2h.375q.024.444.025,1.42v2.392c0,.493-.048.767-.139.826s-.315.022-.669-.1a.59.59,0,0,0-.1.338.218.218,0,0,0,.09.2.826.826,0,0,0,.39.061,1.3,1.3,0,0,0,.7-.152.791.791,0,0,0,.321-.405,2.4,2.4,0,0,0,.087-.745v-2.381c0-.677.007-1.162.024-1.454l.275,0a.14.14,0,0,0,.107-.033.151.151,0,0,0,.031-.11.488.488,0,0,0-.037-.185Z" transform="translate(16322 14135)"/>
    <path id="Path_144567" data-name="Path 144567" d="M722.564,729.615c-.134-.339-.394-1.092-.774-2.26s-.589-1.76-.619-1.777a1.375,1.375,0,0,0-.389-.025.41.41,0,0,0-.4.226c-.072.154-.264.733-.575,1.742s-.539,1.707-.672,2.094h-.178a.164.164,0,0,0-.1.03.133.133,0,0,0-.033.1.638.638,0,0,0,.038.2h1.127a.142.142,0,0,0,.105-.031.153.153,0,0,0,.032-.109.482.482,0,0,0-.039-.187H719.8c.027-.192.113-.556.255-1.089h1.38c.159.536.254.9.294,1.089h-.165a.16.16,0,0,0-.1.03.132.132,0,0,0-.031.1.608.608,0,0,0,.037.2h1.271a.15.15,0,0,0,.108-.031.17.17,0,0,0,.028-.109.5.5,0,0,0-.036-.187Zm-2.405-1.5a17.743,17.743,0,0,1,.556-1.846,18.834,18.834,0,0,1,.6,1.846Z" transform="translate(16322 14135)"/>
    <path id="Path_144568" data-name="Path 144568" d="M725.013,729.542a1.012,1.012,0,0,1-.9-.4,2.671,2.671,0,0,1-.276-1.431,2.46,2.46,0,0,1,.262-1.319.88.88,0,0,1,.784-.391,2.4,2.4,0,0,1,1.055.272.5.5,0,0,0,.167-.344c0-.145-.09-.243-.273-.3a2.731,2.731,0,0,0-.8-.09,1.757,1.757,0,0,0-1.449.6,2.892,2.892,0,0,0-.494,1.866,2.252,2.252,0,0,0,.421,1.571,1.73,1.73,0,0,0,1.3.433,3.53,3.53,0,0,0,.947-.107c.265-.069.4-.166.4-.284a.542.542,0,0,0-.161-.366,1.721,1.721,0,0,1-.98.294" transform="translate(16322 14135)"/>
    <path id="Path_144569" data-name="Path 144569" d="M729.725,730.541c-.2,0-.5-.021-.9-.064s-.7-.064-.892-.064a2.861,2.861,0,0,0-.421.022.3.3,0,0,0-.16.06.232.232,0,0,0-.037.148.638.638,0,0,0,.07.281,1.439,1.439,0,0,1,.5-.076,6.1,6.1,0,0,1,1.009.126,6.227,6.227,0,0,0,1.023.126.518.518,0,0,0,.281-.061c.056-.039.084-.123.084-.254a.665.665,0,0,0-.07-.308,1.609,1.609,0,0,1-.483.064" transform="translate(16322 14135)"/>
    <path id="Path_144570" data-name="Path 144570" d="M729.728,729.474a2.953,2.953,0,0,0,.5-1.888,2.281,2.281,0,0,0-.434-1.613,1.7,1.7,0,0,0-1.266-.44,1.737,1.737,0,0,0-1.413.6,2.9,2.9,0,0,0-.5,1.887,2.289,2.289,0,0,0,.436,1.618,1.728,1.728,0,0,0,1.267.431,1.746,1.746,0,0,0,1.413-.595m-2.09-.263a2.812,2.812,0,0,1-.276-1.487,2.569,2.569,0,0,1,.256-1.327.841.841,0,0,1,.761-.4.943.943,0,0,1,.821.388,2.784,2.784,0,0,1,.276,1.493,2.573,2.573,0,0,1-.255,1.327.845.845,0,0,1-.761.4.942.942,0,0,1-.822-.4" transform="translate(16322 14135)"/>
    <path id="Path_144571" data-name="Path 144571" d="M733.351,725.6a.163.163,0,0,0-.107.031.128.128,0,0,0-.032.1.56.56,0,0,0,.04.2h.347c.009.35.013,1.112.013,2.294a1.967,1.967,0,0,1-.192,1.045.963.963,0,0,1-1.351,0,2.118,2.118,0,0,1-.22-1.19c0-1.085.009-1.8.024-2.15h.2a.151.151,0,0,0,.11-.033.156.156,0,0,0,.031-.11.535.535,0,0,0-.04-.185h-1.195a.154.154,0,0,0-.1.031.133.133,0,0,0-.033.1.624.624,0,0,0,.036.2h.268c.018.3.026,1.177.026,2.648a1.6,1.6,0,0,0,.3,1.141,1.439,1.439,0,0,0,1.027.292,1.817,1.817,0,0,0,1.278-.4,2.109,2.109,0,0,0,.426-1.542c0-1.131,0-1.844.011-2.14h.218a.143.143,0,0,0,.107-.033.16.16,0,0,0,.032-.11.555.555,0,0,0-.038-.185Z" transform="translate(16322 14135)"/>
    <path id="Path_144572" data-name="Path 144572" d="M736.557,729.531h-.426c-.013-.206-.021-.766-.023-1.683H737.6a.165.165,0,0,0,.12-.031c.022-.017.031-.058.031-.119a.9.9,0,0,0-.04-.261h-1.6c0-.712,0-1.189.019-1.427h.265a4.15,4.15,0,0,1,1.591.245.826.826,0,0,0,.116-.4.246.246,0,0,0-.065-.2.386.386,0,0,0-.239-.053h-2.617a.145.145,0,0,0-.106.033.123.123,0,0,0-.032.094.556.556,0,0,0,.041.2h.324q.02.441.02,1.418c0,1.219-.007,1.975-.02,2.273h-.227a.154.154,0,0,0-.106.03.127.127,0,0,0-.032.094.569.569,0,0,0,.041.2l2.654,0a.66.66,0,0,0,.361-.064.244.244,0,0,0,.09-.206.731.731,0,0,0-.1-.363,4.188,4.188,0,0,1-1.533.222" transform="translate(16322 14135)"/>
    <path id="Path_144573" data-name="Path 144573" d="M740.055,729.531h-.26c-.014-.237-.022-.956-.022-2.146,0-.677.008-1.164.022-1.458h.275a.141.141,0,0,0,.11-.035.149.149,0,0,0,.031-.111.5.5,0,0,0-.037-.184h-1.327a.142.142,0,0,0-.1.033.123.123,0,0,0-.034.094.6.6,0,0,0,.04.2h.322c.019.294.025.766.025,1.418,0,1.219-.006,1.975-.022,2.273h-.226a.151.151,0,0,0-.1.03.128.128,0,0,0-.034.094.613.613,0,0,0,.04.2l2.442,0a.652.652,0,0,0,.36-.064.238.238,0,0,0,.089-.206.748.748,0,0,0-.1-.363,4.037,4.037,0,0,1-1.487.222" transform="translate(16322 14135)"/>
    <path id="Path_144574" data-name="Path 144574" d="M743.527,729.911a.16.16,0,0,0,.03-.109.516.516,0,0,0-.037-.188h-.376c-.016-.294-.024-1.039-.024-2.229,0-.678.008-1.162.021-1.458h.278a.155.155,0,0,0,.108-.032.166.166,0,0,0,.03-.113.5.5,0,0,0-.037-.183h-1.377a.146.146,0,0,0-.107.031.115.115,0,0,0-.033.095.591.591,0,0,0,.041.2h.374c.016.3.023.766.026,1.42q0,1.826-.026,2.267h-.275a.166.166,0,0,0-.107.031.117.117,0,0,0-.033.1.568.568,0,0,0,.041.2h1.375a.15.15,0,0,0,.108-.031" transform="translate(16322 14135)"/>
    <path id="Path_144575" data-name="Path 144575" d="M744.307,729.615a.167.167,0,0,0-.106.03.133.133,0,0,0-.031.1.594.594,0,0,0,.039.2h1.137a.15.15,0,0,0,.112-.033.164.164,0,0,0,.032-.109.482.482,0,0,0-.042-.185h-.3q-.021-.442-.021-3.008a23.765,23.765,0,0,0,1.15,2.154,11.59,11.59,0,0,0,.745,1.182,1.47,1.47,0,0,0,.435.032.4.4,0,0,0,.251-.051.368.368,0,0,0,.052-.241v-2.3c0-.677.007-1.164.022-1.458h.249a.146.146,0,0,0,.106-.032.161.161,0,0,0,.03-.113.518.518,0,0,0-.036-.185h-1.15a.147.147,0,0,0-.107.033.126.126,0,0,0-.032.094.583.583,0,0,0,.041.2h.316q.02.441.02,1.418v1.76c-.342-.7-.66-1.31-.948-1.821s-.6-1.067-.93-1.687h-.973a.142.142,0,0,0-.1.033.119.119,0,0,0-.032.094.6.6,0,0,0,.039.2h.291c.015.294.024.766.024,1.418q0,1.829-.021,2.27Z" transform="translate(16322 14135)"/>
    <path id="Path_144576" data-name="Path 144576" d="M750.295,729.531h-.43c-.012-.206-.018-.766-.022-1.683h1.493a.171.171,0,0,0,.122-.031.18.18,0,0,0,.03-.119.834.834,0,0,0-.041-.261h-1.6c0-.712,0-1.189.018-1.427h.267a4.136,4.136,0,0,1,1.589.245.828.828,0,0,0,.117-.4.246.246,0,0,0-.063-.2.391.391,0,0,0-.24-.053h-2.618a.133.133,0,0,0-.1.033.113.113,0,0,0-.033.094.554.554,0,0,0,.04.2h.323q.021.441.022,1.418c0,1.219-.008,1.975-.022,2.273h-.226a.142.142,0,0,0-.1.03.116.116,0,0,0-.033.094.566.566,0,0,0,.04.2l2.654,0a.66.66,0,0,0,.362-.064.242.242,0,0,0,.087-.206.726.726,0,0,0-.1-.363,4.183,4.183,0,0,1-1.531.222" transform="translate(16322 14135)"/>
    <rect id="Rectangle_17593" data-name="Rectangle 17593" width="0.792" height="0.714" transform="translate(17077.143 14860.264)"/>
    <rect id="Rectangle_17594" data-name="Rectangle 17594" width="0.789" height="0.709" transform="translate(17080.111 14865.604)"/>
    <rect id="Rectangle_17595" data-name="Rectangle 17595" width="0.782" height="0.709" transform="translate(17081.361 14865.604)"/>
    <path id="Path_144577" data-name="Path 144577" d="M773.015,726.7h-1.65v-.458c0-.354.369-.614.949-.614h1.631v-.634h-1.631c-1.031,0-1.705.489-1.705,1.233v1.119h2.406c.728,0,1.1.276,1.087.831v1.133H763.986c-.654,0-1.058-.258-1.058-.723v-3.593h-.792v3.57c0,.464-.352.746-.94.746-.656,0-1.059-.258-1.059-.723V726.38h-.794v2.185c0,.464-.35.746-.939.746h-.01c-.6,0-1.03-.229-1.03-.637V726.38h-.8v3.4c0,.555-.3.9-1.006.9s-1.022-.35-1.022-.9v-3.4h-.791V729.8a1.551,1.551,0,0,0,1.7,1.508c.073.007.117,0,.229,0a1.555,1.555,0,0,0,1.7-1.5v-.1a2.154,2.154,0,0,0,.9.221v.006h.276v0a1.719,1.719,0,0,0,1.234-.484,1.886,1.886,0,0,0,1.281.482v.006h.275v0a1.718,1.718,0,0,0,1.235-.484,1.885,1.885,0,0,0,1.28.482v.006h10.981v-1.8c0-.926-.662-1.445-1.813-1.445" transform="translate(16322 14135)"/>
    <rect id="Rectangle_17596" data-name="Rectangle 17596" width="0.792" height="0.699" transform="translate(17100.811 14865.597)"/>
    <path id="Path_144578" data-name="Path 144578" d="M778.036,726.449v.6a2.2,2.2,0,0,1,2.366,2.267h-2.8c-.727,0-1.1-.337-1.1-.906l.009-3.417h-.79v3.447c0,.858.608,1.407,1.6,1.493v.014h3.87v-.631c0-1.551-.967-2.862-3.152-2.862" transform="translate(16322 14135)"/>
    <path id="Path_144579" data-name="Path 144579" d="M743.217,733.589a.834.834,0,0,1,.489.113.529.529,0,0,1,.216.456.683.683,0,0,1-.688.642l-.173-.05v.438c0,.255.019.281.248.3v.09h-.843v-.09c.2-.018.22-.044.22-.3v-1.2c0-.252-.02-.275-.206-.3v-.1Zm-.156,1.044a.341.341,0,0,0,.137.027c.086,0,.315-.07.315-.488,0-.359-.175-.47-.328-.47a.14.14,0,0,0-.094.028c-.025.017-.03.049-.03.1Z" transform="translate(16322 14135)"/>
    <path id="Path_144580" data-name="Path 144580" d="M745.01,735.578v-.1c.161-.022.176-.057.128-.211-.028-.089-.061-.216-.1-.317h-.512c-.025.076-.059.179-.088.3-.046.165-.036.2.165.227v.1h-.616v-.1c.167-.018.211-.049.294-.288l.559-1.6.143-.037c.176.537.335,1.066.516,1.6.093.275.128.306.291.324v.1Zm-.22-1.461h-.008c-.078.229-.138.449-.209.67h.418Z" transform="translate(16322 14135)"/>
    <path id="Path_144581" data-name="Path 144581" d="M748,735.612c-.028,0-.066-.005-.1-.005-.343-.02-.442-.1-.559-.3-.073-.122-.152-.292-.226-.451-.041-.1-.082-.141-.169-.145h-.052v.462c0,.256.022.286.224.3v.1h-.825v-.1c.206-.016.229-.046.229-.3V733.98c0-.247-.023-.269-.216-.288v-.1h.8a.767.767,0,0,1,.459.108.468.468,0,0,1,.194.407.524.524,0,0,1-.343.5,4.446,4.446,0,0,0,.228.446,1.686,1.686,0,0,0,.209.32.448.448,0,0,0,.175.147Zm-1.028-1.02a.336.336,0,0,0,.247-.076.459.459,0,0,0,.129-.362c0-.33-.17-.448-.324-.448a.147.147,0,0,0-.111.032c-.016.018-.022.044-.022.11v.744Z" transform="translate(16322 14135)"/>
    <path id="Path_144582" data-name="Path 144582" d="M748.477,735.578v-.1c.2-.018.22-.044.22-.293v-1.191c0-.256-.021-.28-.22-.3v-.1h.821v.1c-.2.019-.221.043-.221.3v1.191c0,.245.023.275.221.293v.1Z" transform="translate(16322 14135)"/>
    <path id="Path_144583" data-name="Path 144583" d="M750.885,734.075c-.062-.19-.148-.408-.375-.408a.276.276,0,0,0-.258.3c0,.175.1.275.332.409.287.161.488.331.488.636a.618.618,0,0,1-.675.606.925.925,0,0,1-.268-.038,1.115,1.115,0,0,1-.176-.069,3.36,3.36,0,0,1-.085-.492l.1-.034c.06.19.207.511.476.511a.278.278,0,0,0,.275-.312c0-.174-.114-.3-.323-.424-.266-.159-.482-.332-.482-.628a.573.573,0,0,1,.635-.581,1.2,1.2,0,0,1,.377.072c.01.117.03.25.057.432Z" transform="translate(16322 14135)"/>
  </g>
</svg>
