<svg xmlns="http://www.w3.org/2000/svg" width="44.594" height="46.397" viewBox="0 0 44.594 46.397">
  <g id="Client_62" transform="translate(-17640.631 -14702.251)">
    <path id="Path_145967" data-name="Path 145967" d="M1363.224,572.646v36.03a.109.109,0,0,0-.072.079c-.033.005-.069.01-.065.053s.037.034.064.032l0,.09a.24.24,0,0,0-.194.278.413.413,0,0,1-.022.118,3.514,3.514,0,0,0-.112.6c0,.067-.006.153-.062.191a.348.348,0,0,0-.129.25.478.478,0,0,1-.107.213.9.9,0,0,0-.263.528c-.009.156-.166.209-.206.343-.008.025-.047.034-.074.029-.073-.009-.109.038-.152.086a1.536,1.536,0,0,0-.169.257.481.481,0,0,1-.252.236.323.323,0,0,0-.221.254.14.14,0,0,1-.1.128.142.142,0,0,0-.1.175l0,0a.8.8,0,0,0-.655.235c-.1.088-.2.206-.361.189a.091.091,0,0,0-.083.053.164.164,0,0,1-.154.08,1.968,1.968,0,0,0-.265.035,2.33,2.33,0,0,1-.628.151c-.05,0-.086.053-.088.112s.042.09.1.091c-.06,0-.12,0-.18,0s-.082.032-.065.091h-35.4c.026-.05,0-.08-.041-.088a1.14,1.14,0,0,0-.144,0,.1.1,0,0,0,.109-.119c-.007-.071-.058-.091-.118-.1a1.4,1.4,0,0,1-.282-.025,1.734,1.734,0,0,0-.6-.13,2.965,2.965,0,0,0-.432-.218.731.731,0,0,1-.257-.214.35.35,0,0,0-.215-.123,1.237,1.237,0,0,0-.332-.023.137.137,0,0,0-.089-.165.2.2,0,0,1-.126-.146.433.433,0,0,0-.223-.242.714.714,0,0,1-.272-.273.689.689,0,0,0-.328-.327.114.114,0,0,1-.064-.073c-.03-.093-.1-.1-.175-.088h0a.835.835,0,0,0-.257-.7.353.353,0,0,1-.077-.111c-.067-.146-.068-.325-.191-.446-.01-.01-.01-.031-.013-.05-.03-.17-.067-.339-.085-.511a1.154,1.154,0,0,1-.035-.378.263.263,0,0,0-.13-.337c-.046-.028-.077-.08-.141-.06a.28.28,0,0,1-.012-.178c.008-.067-.077-.092-.052-.161V572.646a.287.287,0,0,0,.093-.249.4.4,0,0,1,.2-.351.118.118,0,0,0,.059-.146.627.627,0,0,1-.012-.258c.042-.261.085-.524.129-.786,0-.027.009-.066.027-.078.113-.074.122-.2.152-.314a.389.389,0,0,1,.094-.159,1.168,1.168,0,0,0,.3-.588c.017-.12.133-.179.182-.281a.054.054,0,0,1,.045-.011c.125.04.168-.048.209-.142.031-.067.064-.136.1-.2a.42.42,0,0,1,.269-.235.28.28,0,0,0,.23-.224c.029-.192.2-.222.315-.323a.833.833,0,0,0,.525-.271c.161-.142.384-.162.541-.309.019-.02.064-.009.1-.014.061-.007.122-.013.182-.023a3,3,0,0,1,.647-.132c.113.005.129-.045.123-.21a1.641,1.641,0,0,1,.547-.084h34.428a1.686,1.686,0,0,1,.646.084c0,.169,0,.187.114.2a1.668,1.668,0,0,1,.564.126.445.445,0,0,0,.1.015c.139.037.308-.015.407.144.005.009.021.012.031.012.177,0,.289.133.414.233a.586.586,0,0,0,.446.192c.055,0,.117,0,.143.065a.221.221,0,0,0,.132.124.124.124,0,0,1,.071.092.381.381,0,0,0,.285.3.382.382,0,0,1,.2.18,1.349,1.349,0,0,0,.339.374.664.664,0,0,1,.245.367,1.434,1.434,0,0,0,.282.564,1.891,1.891,0,0,1,.283.633,5.605,5.605,0,0,1,.137.749c.018.14.076.207.2.221l.017.194a1.057,1.057,0,0,0,.058.513m-26.772,8.5c-.129-.027-.239-.019-.3.134a.337.337,0,0,1-.14.147.313.313,0,0,0-.151.214c-.038.135-.1.232-.263.24-.135,0-.179.06-.176.2a.484.484,0,0,1-.174.376.6.6,0,0,0-.181.306.975.975,0,0,1-.14.309,1.12,1.12,0,0,0-.215.538.422.422,0,0,1-.16.33.255.255,0,0,0-.087.2c-.022.223-.038.448-.075.668-.027.165-.035.334-.075.5a1.161,1.161,0,0,0-.019.465,1.741,1.741,0,0,1,.019.26c0,.318,0,.639,0,.956a.822.822,0,0,0,.01.192c.094.4.127.808.261,1.2a2.38,2.38,0,0,0,.09.3,1.449,1.449,0,0,1,.176.5c0,.027.011.065.029.077a.374.374,0,0,1,.147.264c.053.234.248.377.332.59a.587.587,0,0,1,.226.3.066.066,0,0,0,.037.033c.117.036.152.147.2.241.025.045.042.094.065.141.089.183.194.213.358.1a.35.35,0,0,1,.223-.06.466.466,0,0,0,.411-.221.43.43,0,0,1,.332-.2c.05-.005.111,0,.139-.044.067-.112.223-.1.278-.23.015-.036.068-.036.107-.04s.073,0,.1-.023a.482.482,0,0,1,.35-.081.177.177,0,0,0,.164-.063.621.621,0,0,1,.3-.206.316.316,0,0,0,.2-.248c.037-.173.038-.173-.124-.226-.085-.027-.174-.05-.2-.157a.411.411,0,0,0-.287-.287.207.207,0,0,1-.1-.082,1.758,1.758,0,0,1-.121-.247c-.08-.167-.138-.359-.355-.4a.111.111,0,0,1-.094-.122,1.367,1.367,0,0,0-.1-.418,3.721,3.721,0,0,1-.2-.566c-.021-.111-.005-.216-.024-.322a4.04,4.04,0,0,1-.02-.762,1.315,1.315,0,0,1,.086-.544,1.9,1.9,0,0,0,.141-.5,4.558,4.558,0,0,1,.231-.593.069.069,0,0,1,.033-.038.789.789,0,0,0,.257-.357,1.8,1.8,0,0,1,.322-.388.47.47,0,0,0,.114-.139.363.363,0,0,1,.227-.209.925.925,0,0,0,.384-.259.662.662,0,0,1,.577-.284.419.419,0,0,0,.1-.006.122.122,0,0,0,.119-.1c.014-.166.121-.17.24-.166a.556.556,0,0,0,.341-.063.515.515,0,0,1,.316-.076c.145,0,.29,0,.434,0,.127,0,.257-.021.364.086.017.015.053.012.079.018a1.2,1.2,0,0,0,.332.035.213.213,0,0,1,.19.083.5.5,0,0,0,.3.17.693.693,0,0,1,.469.3.761.761,0,0,0,.378.26.384.384,0,0,1,.229.206.239.239,0,0,0,.172.148c.037.009.088.016.1.059.017.1.094.154.139.231a1.129,1.129,0,0,0,.3.428.189.189,0,0,1,.047.091.736.736,0,0,0,.059.144.945.945,0,0,1,.155.417.524.524,0,0,0,.06.2,1.085,1.085,0,0,1,.13.551.159.159,0,0,0,.055.154c.08.054.076.132.067.216-.02.194-.041.39-.054.587a2.932,2.932,0,0,1-.292,1.043.907.907,0,0,0-.113.337c0,.07-.029.13-.1.141-.1.017-.135.092-.17.172a1.514,1.514,0,0,1-.454.667c-.1.076-.162.214-.28.27-.136.061-.208.243-.39.218-.019,0-.042.053-.069.071-.085.049-.111.155-.2.207a1.336,1.336,0,0,0-.435.279.081.081,0,0,1-.059.028,1.589,1.589,0,0,0-.271.075.258.258,0,0,0-.221.184.19.19,0,0,1-.171.145c-.175.012-.291.194-.476.181-.015,0-.037.027-.048.044a.17.17,0,0,1-.174.078.31.31,0,0,0-.219.068.241.241,0,0,1-.093.034.584.584,0,0,0-.333.14.22.22,0,0,1-.16.039.164.164,0,0,0-.15.058.185.185,0,0,1-.175.08,1.523,1.523,0,0,0-.638.179c-.193.091-.339.278-.57.287-.018,0-.036.025-.054.039a1.031,1.031,0,0,1-.423.233.141.141,0,0,0-.085.051.388.388,0,0,1-.236.116.582.582,0,0,0-.318.169,1.419,1.419,0,0,1-.343.247c-.064.038-.127.06-.166.131a.273.273,0,0,1-.1.112,1.942,1.942,0,0,0-.259.187,3.132,3.132,0,0,0-.508.419c-.114.127-.237.243-.36.359a2.7,2.7,0,0,1-.419.389.138.138,0,0,0-.061.078,1.111,1.111,0,0,1-.314.463.536.536,0,0,0-.195.348.113.113,0,0,1-.046.09c-.073.041-.084.117-.109.186-.013.038-.024.088-.052.108a.451.451,0,0,0-.17.324c-.016.079-.045.141-.136.151a.1.1,0,0,0-.078.06.974.974,0,0,0-.153.637.556.556,0,0,1-.007.292.218.218,0,0,1-.364.093.213.213,0,0,1-.065-.078c-.05-.131-.206-.154-.26-.281-.006-.016-.037-.026-.058-.027a.341.341,0,0,1-.257-.173.243.243,0,0,0-.163-.108.207.207,0,0,1-.18-.177.352.352,0,0,0-.26-.268.337.337,0,0,1-.254-.221c-.031-.064-.053-.143-.131-.172a.232.232,0,0,1-.142-.158.234.234,0,0,0-.159-.164c-.087-.02-.113-.082-.141-.168a.53.53,0,0,0-.375-.4.132.132,0,0,1-.111-.13.4.4,0,0,0-.154-.279c-.082-.075-.127-.192-.243-.231-.031-.01-.041-.053-.05-.086a1.948,1.948,0,0,0-.2-.4c-.046-.08-.119-.138-.16-.223a1.139,1.139,0,0,0-.217-.323c-.049-.05-.117-.1-.117-.185a.35.35,0,0,0-.087-.218.587.587,0,0,1-.089-.185,2.2,2.2,0,0,0-.326-.6.461.461,0,0,1-.1-.309.477.477,0,0,0-.12-.367.669.669,0,0,1-.168-.388c-.006-.055,0-.125-.058-.155-.122-.07-.123-.186-.119-.3a.983.983,0,0,0-.115-.519.677.677,0,0,1-.085-.367,6.363,6.363,0,0,0-.082-.812.766.766,0,0,0-.069-.249.6.6,0,0,1-.054-.267,1.011,1.011,0,0,0-.016-.173,2.811,2.811,0,0,1-.051-.587.333.333,0,0,0-.022-.171.5.5,0,0,1-.042-.253c.015-.508-.021-1.017.025-1.528a2.579,2.579,0,0,1,.108-.781c.04-.1.047-.217.088-.318a1.365,1.365,0,0,0,.082-.422,1.933,1.933,0,0,1,.076-.582,2.477,2.477,0,0,0,.154-.69.412.412,0,0,1,.071-.246,1.506,1.506,0,0,0,.219-.4.725.725,0,0,0,.078-.334.271.271,0,0,1,.112-.272c.048-.026.052-.085.065-.136a1.279,1.279,0,0,1,.167-.431,1.213,1.213,0,0,0,.182-.425c.011-.045.014-.106.059-.117.152-.036.15-.163.171-.281.012-.067,0-.151.076-.184a.384.384,0,0,0,.158-.193,6.492,6.492,0,0,1,.307-.576c.168-.243.262-.545.534-.7l.011-.01c.018-.144.139-.217.2-.332a.9.9,0,0,1,.239-.329.51.51,0,0,0,.17-.2.381.381,0,0,1,.335-.246.147.147,0,0,0,.151-.151c0-.034.01-.07.015-.1.013-.093.051-.16.156-.17a.215.215,0,0,0,.181-.132.433.433,0,0,1,.163-.171,1.678,1.678,0,0,0,.32-.276.464.464,0,0,1,.309-.185.4.4,0,0,0,.352-.3.438.438,0,0,1,.1-.131,1.2,1.2,0,0,1,.386-.232c.131-.074.253-.164.386-.234a.824.824,0,0,0,.334-.215.154.154,0,0,1,.121-.05.41.41,0,0,0,.307-.238.293.293,0,0,1,.25-.165c.1-.012.224.01.306-.062a2.915,2.915,0,0,1,.834-.368c.158-.076.358-.048.519-.152a.237.237,0,0,1,.049-.011.869.869,0,0,0,.119-.059c.163-.073.331-.139.5-.2a.093.093,0,0,1,.05,0,3.575,3.575,0,0,0,.566-.035.357.357,0,0,0,.193-.086.514.514,0,0,1,.406-.161,5.866,5.866,0,0,0,.75-.032c.039,0,.084,0,.111-.029a.33.33,0,0,1,.281-.076c.562,0,1.125,0,1.688,0,.1,0,.212-.016.3.08.026.03.073.021.111.027a2.919,2.919,0,0,0,.633.029,1.243,1.243,0,0,1,.616.19,1.78,1.78,0,0,0,.576.192c.044.005.089,0,.133,0a1.46,1.46,0,0,1,.512.124,1.185,1.185,0,0,0,.513.179.342.342,0,0,1,.315.119c.022.032.072.029.111.028.181,0,.308.15.476.184.072.111.188.111.3.126.056.007.112.006.148.064a.963.963,0,0,0,.417.3,2.352,2.352,0,0,0,.625.346.042.042,0,0,1,.028.02c.041.119.145.134.24.182.137.068.237.2.39.252.046.016.049.07.066.113a.4.4,0,0,0,.317.29.612.612,0,0,1,.34.167,6.678,6.678,0,0,0,.708.615c.022.013.033.047.051.067a1.561,1.561,0,0,0,.254.3,1.006,1.006,0,0,1,.23.244.686.686,0,0,0,.147.165.518.518,0,0,1,.159.238,1.831,1.831,0,0,0,.07.178.521.521,0,0,0,.309.318.371.371,0,0,1,.253.251.589.589,0,0,0,.189.281.343.343,0,0,1,.136.228.37.37,0,0,0,.139.249.5.5,0,0,1,.148.207,3.493,3.493,0,0,0,.247.431.538.538,0,0,1,.046.093c.056.185.171.346.22.538a.383.383,0,0,0,.119.184.838.838,0,0,1,.223.455c.044.161.077.324.124.482a5.378,5.378,0,0,1,.247.735.128.128,0,0,0,.089.116c.106.035.13.112.117.217a.735.735,0,0,0,.066.424,1.76,1.76,0,0,1,.132.622,5.69,5.69,0,0,0,.075.671,2.465,2.465,0,0,1,.08.858.139.139,0,0,0,.011.066c.106.229.032.5.134.726a4.16,4.16,0,0,1-.058,1.1.226.226,0,0,0-.007.068c0,.28-.053.554-.037.833a.215.215,0,0,1-.077.2.176.176,0,0,0-.055.138c-.02.253-.065.5-.075.759a1.279,1.279,0,0,1-.14.6.485.485,0,0,0-.049.166.292.292,0,0,1-.129.209.335.335,0,0,0-.118.4.383.383,0,0,1-.039.361,1.419,1.419,0,0,1-.151.228.266.266,0,0,0-.067.19,2.46,2.46,0,0,0-.021.31.076.076,0,0,1-.057.094c-.1.018-.124.1-.155.182a2.4,2.4,0,0,1-.217.467.8.8,0,0,0-.153.378c-.006.064-.029.113-.093.128s-.1.079-.125.147a.437.437,0,0,1-.046.129c-.117.163-.193.352-.323.506a.589.589,0,0,0-.143.273c-.005.025-.02.066-.038.071-.128.037-.171.165-.238.257a1.653,1.653,0,0,1-.373.421,1.389,1.389,0,0,0-.354.409,2.986,2.986,0,0,0-.25.342.157.157,0,0,1-.111.071.156.156,0,0,0-.121.128.163.163,0,0,1-.18.142.377.377,0,0,0-.263.133,2.889,2.889,0,0,0-.287.338c-.128.188-.345.246-.507.383-.154-.005-.238.107-.33.208a2.623,2.623,0,0,1-.488.274.233.233,0,0,1-.083,0,.485.485,0,0,0-.516.235.341.341,0,0,1-.291.168c-.152,0-.217.184-.365.212-.009,0-.016.028-.021.045a1.194,1.194,0,0,0-.071.372c.005.514,0,1.031,0,1.546,0,.332,0,.662,0,.993,0,.072-.01.153.076.192l.083,0a1.864,1.864,0,0,0,.366.005c.214-.009.386-.166.6-.185.11-.125.26-.113.4-.127.043-.005.094,0,.127-.033a.408.408,0,0,1,.229-.092.321.321,0,0,0,.181-.08.2.2,0,0,1,.139-.052.739.739,0,0,0,.428-.155.591.591,0,0,0,.167-.134.315.315,0,0,1,.269-.153.124.124,0,0,0,.119-.049.59.59,0,0,1,.335-.21,1.526,1.526,0,0,0,.543-.382.374.374,0,0,1,.121-.089,2.653,2.653,0,0,1,.277-.155.113.113,0,0,0,.075-.107c.006-.133.082-.16.191-.154a.228.228,0,0,0,.248-.161.458.458,0,0,1,.2-.253.608.608,0,0,0,.21-.215.746.746,0,0,1,.158-.173.285.285,0,0,0,.147-.235.1.1,0,0,1,.1-.1.235.235,0,0,0,.232-.185.151.151,0,0,1,.062-.08.83.83,0,0,0,.226-.316c.043-.083.09-.17.2-.19.188-.035.2-.052.209-.245a.2.2,0,0,1,.113-.2.411.411,0,0,0,.186-.171c.132-.232.282-.452.431-.673a3.886,3.886,0,0,1,.238-.395c.108-.128.264-.236.289-.432,0-.007.013-.016.021-.025a.717.717,0,0,0,.234-.423.8.8,0,0,1,.145-.327.475.475,0,0,0,.112-.25.787.787,0,0,1,.212-.46.455.455,0,0,0,.1-.23.666.666,0,0,1,.1-.343.567.567,0,0,0,.131-.291c.012-.063.023-.133.091-.157.156-.054.185-.2.237-.334a.078.078,0,0,0-.005-.083.3.3,0,0,1,.038-.4.654.654,0,0,0,.158-.461,2.548,2.548,0,0,1,.14-.6.77.77,0,0,1,.112-.3.645.645,0,0,0,.094-.362,3.736,3.736,0,0,1,.074-.741,1.536,1.536,0,0,0,.068-.73.249.249,0,0,1,.011-.085,12.494,12.494,0,0,0,.115-1.592c-.006-.429,0-.856,0-1.287a1.9,1.9,0,0,0-.056-.512c-.066-.235-.079-.485-.128-.728a6.13,6.13,0,0,1-.05-.746,1.526,1.526,0,0,0-.2-.809.184.184,0,0,1-.029-.115,3.692,3.692,0,0,0-.122-.718c-.017-.089-.02-.2-.089-.258a.342.342,0,0,1-.094-.281.965.965,0,0,0-.2-.6.857.857,0,0,1-.155-.285.559.559,0,0,1-.05-.181.441.441,0,0,0-.156-.345c-.025-.224-.191-.388-.225-.612a.667.667,0,0,0-.162-.339,1.589,1.589,0,0,1-.29-.521.443.443,0,0,0-.1-.176.779.779,0,0,1-.269-.4.249.249,0,0,0-.078-.133.762.762,0,0,1-.222-.356.413.413,0,0,0-.063-.124,1.1,1.1,0,0,1-.235-.508.319.319,0,0,0-.237-.264.233.233,0,0,1-.162-.134.618.618,0,0,0-.136-.175.418.418,0,0,1-.142-.229c-.012-.058-.034-.13-.087-.142-.163-.034-.214-.15-.27-.3a.469.469,0,0,0-.366-.335c-.059-.007-.074-.065-.1-.108-.1-.168-.284-.253-.384-.422-.011-.018-.05-.023-.077-.028a.227.227,0,0,1-.192-.192.519.519,0,0,0-.366-.364c-.032-.011-.07-.018-.084-.051a.453.453,0,0,0-.332-.3c-.1-.182-.341-.233-.4-.453-.009-.033-.057-.06-.092-.073-.149-.051-.27-.191-.448-.161a.036.036,0,0,1-.031-.009c-.087-.116-.227-.136-.337-.21a.812.812,0,0,1-.27-.249.241.241,0,0,0-.229-.118c-.05,0-.107,0-.125-.061-.048-.156-.183-.172-.3-.211-.047-.015-.107,0-.143-.039-.094-.1-.231-.131-.338-.216s-.292-.064-.393-.2c-.116.008-.195-.072-.288-.119-.123-.064-.222-.181-.374-.179a.1.1,0,0,1-.059-.03.4.4,0,0,0-.31-.1c-.211,0-.36-.164-.552-.216-.013,0-.025-.021-.034-.037a.387.387,0,0,0-.323-.182c-.078-.006-.155-.01-.233-.014a1.16,1.16,0,0,1-.389-.08c-.152-.068-.331-.049-.472-.158a.084.084,0,0,0-.033,0c-.145,0-.286-.046-.432-.04a.327.327,0,0,1-.18-.03,1.137,1.137,0,0,0-.464-.118c-.179-.021-.356-.019-.534-.024a.444.444,0,0,1-.164-.019,1.307,1.307,0,0,0-.508-.079c-.975-.007-1.95,0-2.925,0a.329.329,0,0,0-.266.072.182.182,0,0,1-.128.032c-.172,0-.343.038-.516.039a.748.748,0,0,0-.26.052,1.035,1.035,0,0,1-.39.081.587.587,0,0,0-.29.071.638.638,0,0,1-.256.068.97.97,0,0,0-.434.109.2.2,0,0,1-.113.028c-.123-.009-.242.03-.365.023a.208.208,0,0,0-.219.1.327.327,0,0,1-.259.191.223.223,0,0,0-.09.044.428.428,0,0,1-.279.1,1.04,1.04,0,0,0-.511.186,3.3,3.3,0,0,1-.487.212c-.082.042-.18.04-.224.148-.008.019-.045.034-.071.04-.169.032-.306.157-.48.179-.057.007-.1.057-.135.1a.386.386,0,0,1-.258.147.087.087,0,0,0-.086.044c-.041.085-.12.095-.195.116a.546.546,0,0,0-.133.064c-.1.052-.146.16-.244.2a1.335,1.335,0,0,0-.316.22.407.407,0,0,1-.27.114.569.569,0,0,0-.405.233c-.041.041-.021.1-.061.138a3.268,3.268,0,0,0-.413.418.125.125,0,0,1-.054.04.514.514,0,0,0-.211.192.165.165,0,0,1-.152.083.311.311,0,0,0-.264.151c-.089.134-.149.3-.318.362-.014,0-.021.025-.032.04-.117.142-.28.246-.349.431a.146.146,0,0,1-.108.074.571.571,0,0,0-.379.406c-.012.044-.022.107-.064.116-.163.032-.234.149-.289.3-.014.039-.062.064-.094.1a.517.517,0,0,0-.173.266.113.113,0,0,1-.088.1c-.176.039-.236.17-.251.34a.379.379,0,0,1-.145.3.456.456,0,0,0-.151.244.412.412,0,0,1-.234.295.289.289,0,0,0-.161.226.774.774,0,0,1-.264.486.192.192,0,0,0-.074.09,1.835,1.835,0,0,1-.208.452c-.09.154-.122.334-.2.492a5.585,5.585,0,0,1-.386.764.239.239,0,0,0-.034.1.831.831,0,0,1-.213.46.615.615,0,0,0-.147.431.608.608,0,0,1-.123.483.232.232,0,0,0-.039.1c-.046.167-.08.337-.122.505-.048.185.013.406-.154.557a.028.028,0,0,0,0,.017,1.622,1.622,0,0,1-.08.353,6.355,6.355,0,0,0-.092.931,2.087,2.087,0,0,1-.039.433,4.915,4.915,0,0,0-.094,1.1c-.023.5-.011,1-.005,1.494,0,.233.026.462.043.694a2.666,2.666,0,0,1,.028.793.49.49,0,0,0,.019.206,4.828,4.828,0,0,1,.078.74,4.093,4.093,0,0,0,.077.549,3.934,3.934,0,0,1,.165.634.117.117,0,0,0,.034.076c.093.065.092.161.095.262a.784.784,0,0,0,.185.558.34.34,0,0,1,.068.4.2.2,0,0,0-.005.186c.043.07.074.158.162.188a.16.16,0,0,1,.12.132,1.547,1.547,0,0,0,.184.515.435.435,0,0,1,.021.152.381.381,0,0,0,.133.283.608.608,0,0,1,.2.371.646.646,0,0,0,.122.3.355.355,0,0,1,.075.222.5.5,0,0,0,.2.4.471.471,0,0,1,.241.332.084.084,0,0,0,.036.056.3.3,0,0,1,.108.171.208.208,0,0,0,.127.15.11.11,0,0,1,.082.1.626.626,0,0,0,.168.331,4.388,4.388,0,0,1,.324.484.6.6,0,0,0,.227.245.123.123,0,0,1,.082.1.376.376,0,0,0,.208.278.63.63,0,0,1,.251.334.2.2,0,0,0,.085.123.444.444,0,0,1,.214.234c.047.1.153.085.217.142s.036.185.14.221a.345.345,0,0,1,.137.123.73.73,0,0,0,.222.206.509.509,0,0,1,.3.42.117.117,0,0,0,.129.11l.1.005a.16.16,0,0,1,.17.133c.011.045.019.1.061.119.086.044.148.128.227.17a4.425,4.425,0,0,1,.382.272c.087.058.146.164.259.181a.208.208,0,0,1,.179.179c.028.112.052.217.2.177.008,0,.02.009.03.015a1.59,1.59,0,0,0,.42.238c.068.122.194.116.305.145.026.007.065.01.076.03.048.091.14.1.215.151a5.546,5.546,0,0,0,.762.421,1.5,1.5,0,0,1,.439.245,1.323,1.323,0,0,0,.612.277c.115.032.249,0,.329.132.009.016.039.024.06.026a.618.618,0,0,1,.2.086c.269.112.494.119.67-.165a.193.193,0,0,0,.02-.21.794.794,0,0,1-.068-.355,5.58,5.58,0,0,1,.057-.743.63.63,0,0,0,.011-.342.533.533,0,0,1-.021-.291c.048-.366.145-.724.164-1.094a.226.226,0,0,1,.053-.125,1.132,1.132,0,0,0,.227-.572,1.838,1.838,0,0,1,.208-.576,7.619,7.619,0,0,0,.307-.728c.012-.033.02-.075.056-.079.114-.009.146-.11.2-.188.029-.042.047-.1.095-.117a.557.557,0,0,0,.211-.217,1.1,1.1,0,0,1,.363-.349.4.4,0,0,0,.187-.186.216.216,0,0,1,.147-.128c.139-.04.231-.186.4-.183.045,0,.094-.091.136-.142.025-.032.038-.081.076-.089.161-.041.3-.164.473-.156.056,0,.122,0,.147-.058.049-.117.143-.111.239-.112a.43.43,0,0,0,.245-.035c.16-.112.375-.1.521-.242,0,0,.011,0,.017,0a.125.125,0,0,0,.106-.073.127.127,0,0,1,.091-.069c.154-.033.281-.142.438-.164a.192.192,0,0,0,.09-.042.323.323,0,0,1,.183-.075c.2-.042.378-.152.574-.214.17-.055.3-.219.487-.248.025,0,.048-.029.067-.048a.243.243,0,0,1,.148-.075.191.191,0,0,0,.188-.166.129.129,0,0,1,.148-.108c.05,0,.1,0,.15-.006s.086-.005.106-.041c.114-.2.35-.233.5-.381a.208.208,0,0,1,.094-.03c.027-.007.061-.007.075-.032.078-.145.241-.143.356-.23a1.531,1.531,0,0,0,.447-.393.858.858,0,0,1,.391-.331.649.649,0,0,0,.277-.254.862.862,0,0,1,.207-.244c.1-.076.213-.152.229-.3a.11.11,0,0,1,.044-.07.308.308,0,0,0,.1-.172.447.447,0,0,1,.095-.161c.1-.127.221-.24.323-.363.14-.169.172-.409.3-.591a.079.079,0,0,0,.009-.033,1.763,1.763,0,0,1,.188-.478,1.343,1.343,0,0,0,.153-.381c.052-.266.1-.531.175-.792a.832.832,0,0,0,.033-.2c.011-.261.01-.521.028-.781a6.384,6.384,0,0,0-.1-1.555,4,4,0,0,1-.065-.569,1.028,1.028,0,0,0-.091-.438,1.031,1.031,0,0,1-.157-.519c0-.037-.028-.061-.042-.09a5.891,5.891,0,0,1-.369-.714c-.017-.062-.038-.148-.115-.16-.131-.025-.165-.13-.191-.236a.4.4,0,0,0-.164-.249.491.491,0,0,1-.248-.349.35.35,0,0,0-.207-.275.411.411,0,0,1-.173-.155.138.138,0,0,0-.151-.085c-.078.014-.115-.026-.124-.1a.139.139,0,0,0-.073-.127.5.5,0,0,1-.2-.2.463.463,0,0,0-.155-.123c-.124-.071-.273-.1-.364-.229a.388.388,0,0,0-.273-.209.085.085,0,0,1-.066-.048.18.18,0,0,0-.183-.1.155.155,0,0,1-.154-.085.288.288,0,0,0-.23-.151,1.4,1.4,0,0,0-.364-.042.172.172,0,0,1-.2-.12.234.234,0,0,0-.25-.157.888.888,0,0,1-.329-.049,2.391,2.391,0,0,0-.82-.12,1.675,1.675,0,0,1-.429-.057,1.126,1.126,0,0,0-.658.012.868.868,0,0,1-.361.027.531.531,0,0,0-.149-.007,5.1,5.1,0,0,1-.78.061.266.266,0,0,0-.191.049.4.4,0,0,1-.267.083.218.218,0,0,0-.242.163.162.162,0,0,1-.182.116,1.115,1.115,0,0,0-.183.008.56.56,0,0,0-.392.174.249.249,0,0,1-.2.1.118.118,0,0,0-.132.082.123.123,0,0,1-.128.091.357.357,0,0,0-.276.175.914.914,0,0,1-.147.138c-.108.1-.271.1-.354.244a.262.262,0,0,1-.188.155c-.05.007-.067.059-.068.107s0,.1.006.157v.009Zm.769,29.366c0,.056,0,.115,0,.172a.617.617,0,0,0,.172.42c.058.069.139.1.208.049a.7.7,0,0,1,.427-.114.237.237,0,0,0,.159-.044.407.407,0,0,1,.327-.095c.084,0,.167-.017.25-.02a1.148,1.148,0,0,0,.574-.126.81.81,0,0,0,.173-.1.268.268,0,0,1,.26-.089c.195.071.329-.043.473-.14.053-.19.211-.254.355-.348.072-.047.14-.111.214-.162.032-.023.081-.035.1-.067a.608.608,0,0,1,.342-.308c.014-.006.023-.026.036-.034a1.21,1.21,0,0,0,.239-.307c.059-.092.1-.19.218-.227a.124.124,0,0,0,.076-.087,3.868,3.868,0,0,1,.246-.473c.037-.075.063-.168.177-.149a.048.048,0,0,0,.041-.022,1.125,1.125,0,0,0,.175-.408.625.625,0,0,1,.148-.362.851.851,0,0,0,.167-.406,1.126,1.126,0,0,1,.118-.449.319.319,0,0,0,.037-.149,2.091,2.091,0,0,1,.074-.445,2.013,2.013,0,0,0,.061-.412c.015-.559.025-1.123.029-1.682.015-2.5.006-5,.007-7.5a1.625,1.625,0,0,0-.046-.481.456.456,0,0,1,.022-.32.731.731,0,0,0,.048-.221.313.313,0,0,0-.141-.3.273.273,0,0,0-.33-.006.376.376,0,0,1-.329.112.251.251,0,0,0-.264.168c-.03.083-.09.1-.17.111a.767.767,0,0,0-.473.132.2.2,0,0,1-.111.031.461.461,0,0,0-.393.144c-.016.02-.05.023-.075.037a1.392,1.392,0,0,1-.352.1.268.268,0,0,0-.228.331c.008.08.008.162.008.243v7.53a.965.965,0,0,0,.006.208,3.7,3.7,0,0,1-.022,1,2.628,2.628,0,0,1-.115.538c-.038.137-.1.269-.146.4-.062.167-.125.334-.186.5-.019.054-.043.1-.1.1-.118,0-.173.091-.227.181s-.092.17-.147.25a.426.426,0,0,1-.215.18c-.132.049-.268.118-.291.295a.113.113,0,0,1-.073.09c-.121.043-.227.122-.343.164a2.735,2.735,0,0,1-.27.125,1.33,1.33,0,0,1-.514.025.507.507,0,0,0-.182.005.269.269,0,0,0-.224.321,3.672,3.672,0,0,1,.048.7c-.03.456.009.915-.04,1.371m3.677-22.392h0c.184,0,.367,0,.551,0a.277.277,0,0,0,.214-.078.6.6,0,0,1,.342-.23c.023,0,.045-.031.065-.05a.187.187,0,0,1,.1-.057.489.489,0,0,0,.35-.287,3.733,3.733,0,0,0,.231-.61,2.238,2.238,0,0,0,.078-.827,1.6,1.6,0,0,0-.4-1,.5.5,0,0,1-.123-.2c-.017-.064-.048-.118-.12-.125a.207.207,0,0,1-.175-.141.247.247,0,0,0-.176-.147.374.374,0,0,1-.119-.057.633.633,0,0,0-.381-.109c-.266,0-.534,0-.8,0-.107,0-.211.023-.315.03s-.141.114-.231.127a.172.172,0,0,0-.157.155.151.151,0,0,1-.166.136c-.084,0-.123.047-.164.121-.109.193-.241.374-.352.567a.687.687,0,0,0-.106.477.524.524,0,0,1,0,.137,2.3,2.3,0,0,0,.177,1.245,1.113,1.113,0,0,0,.688.657.275.275,0,0,1,.2.144.239.239,0,0,0,.252.131c.177,0,.356,0,.534,0" transform="translate(16322 14135)" fill="#4957a4"/>
    <path id="Path_145968" data-name="Path 145968" d="M1318.635,572.019c.069.021.079-.038.077-.079a3.242,3.242,0,0,1,.173-.771,2.777,2.777,0,0,1,.251-.691c.093-.2.185-.394.29-.584a3.8,3.8,0,0,1,.523-.735c.134-.149.276-.286.41-.434a4.474,4.474,0,0,1,1.063-.8,5.352,5.352,0,0,1,.648-.312,4.483,4.483,0,0,1,.583-.194.834.834,0,0,0,.205-.067.424.424,0,0,1,.277-.017c.006.165-.01.215-.124.21a3.2,3.2,0,0,0-.646.134c-.061.011-.122.017-.182.024-.033,0-.078-.006-.1.011-.156.15-.379.167-.541.312a.824.824,0,0,1-.525.268c-.11.1-.285.133-.314.325a.277.277,0,0,1-.23.222.42.42,0,0,0-.269.236c-.036.066-.068.133-.1.2-.041.091-.084.178-.209.139-.013,0-.041,0-.045.013-.049.1-.165.16-.182.279a1.156,1.156,0,0,1-.3.588.425.425,0,0,0-.094.159c-.031.117-.039.243-.152.317-.018.011-.023.051-.027.077-.044.263-.087.523-.129.786a.63.63,0,0,0,.012.259.117.117,0,0,1-.059.143.411.411,0,0,0-.2.353.288.288,0,0,1-.093.249Z" transform="translate(16322 14135)" fill="#535d8f"/>
    <path id="Path_145969" data-name="Path 145969" d="M1363.166,572.131l.058-.008v.524a1.052,1.052,0,0,1-.058-.516" transform="translate(16322 14135)" fill="#535d8f"/>
    <path id="Path_145970" data-name="Path 145970" d="M1346.606,600.738l-.083,0a.432.432,0,0,1-.035-.2q0-1.3,0-2.591c0-.041,0-.081,0-.122a.144.144,0,0,1,.094-.131c.154-.065.307-.138.462-.2a9.382,9.382,0,0,0,1.058-.512,9.7,9.7,0,0,0,1.357-.917,8.777,8.777,0,0,0,1.262-1.236,12.807,12.807,0,0,0,1.622-2.522,12.937,12.937,0,0,0,.658-1.574c.078-.234.15-.472.224-.708s.141-.5.2-.752.1-.5.149-.747a10.083,10.083,0,0,0,.176-1.479,13.014,13.014,0,0,0-.067-2.359c-.048-.373-.112-.743-.179-1.112-.043-.237-.1-.474-.159-.709-.084-.349-.188-.691-.3-1.028a12.48,12.48,0,0,0-.569-1.445,14.444,14.444,0,0,0-1.007-1.8,12.828,12.828,0,0,0-1.663-2.033,13,13,0,0,0-2.505-1.953,14.463,14.463,0,0,0-1.465-.753,12.4,12.4,0,0,0-1.638-.58A10.271,10.271,0,0,0,1342.9,573c-.368-.056-.737-.112-1.11-.133a16.125,16.125,0,0,0-1.953.014c-.251.017-.495.083-.744.1a7.54,7.54,0,0,0-.936.166,10.419,10.419,0,0,0-1.141.322,10.279,10.279,0,0,0-1.127.428,12.659,12.659,0,0,0-1.5.791c-.4.256-.8.523-1.18.819s-.757.645-1.121.986a11.374,11.374,0,0,0-1.286,1.459,12.331,12.331,0,0,0-1.228,1.98c-.233.469-.442.949-.631,1.438-.121.311-.209.635-.305.953a5.285,5.285,0,0,0-.149.552c-.048.255-.114.506-.165.759a10.7,10.7,0,0,0-.172,1.114,12.1,12.1,0,0,0-.076,1.786c.021.41.029.823.083,1.229.051.378.1.755.18,1.129a16.431,16.431,0,0,0,.453,1.705c.073.225.165.444.247.663a12.072,12.072,0,0,0,.8,1.681,13.115,13.115,0,0,0,1.122,1.681c.227.285.46.565.707.834a14.041,14.041,0,0,0,1.231,1.172c.269.224.549.434.833.637.1.075.167.043.187-.081.012-.069.009-.139.025-.207a7.788,7.788,0,0,1,.392-1.177,6.263,6.263,0,0,1,1.054-1.638,9.425,9.425,0,0,1,1.874-1.639,11.7,11.7,0,0,1,2.594-1.3c.142-.052.291-.086.426-.149a4.115,4.115,0,0,1,.5-.19,5.4,5.4,0,0,0,1.184-.549c.4-.242.774-.525,1.16-.789a3.514,3.514,0,0,0,.7-.613,4.38,4.38,0,0,0,.626-.936,4.451,4.451,0,0,0,.351-1.117,4.171,4.171,0,0,0,.032-1.195,3.746,3.746,0,0,0-.368-1.256,4,4,0,0,0-2.265-2.108,3.405,3.405,0,0,0-1.329-.212,3.917,3.917,0,0,0-1.285.271,4.064,4.064,0,0,0-1.011.6,3.777,3.777,0,0,0-.833.945,4.147,4.147,0,0,0-.429,3.694,3.261,3.261,0,0,0,.26.581,3.963,3.963,0,0,0,1.134,1.28c.036.026.082.049.074.106s-.062.054-.1.067a10.479,10.479,0,0,0-1.369.546,10.827,10.827,0,0,0-1.018.56c-.107.065-.131.057-.213-.038-.055-.064-.112-.127-.165-.193a6.588,6.588,0,0,1-.523-.763,7.091,7.091,0,0,1-.631-1.357,5.854,5.854,0,0,1-.259-1.058,4.7,4.7,0,0,1-.094-.633,8.407,8.407,0,0,1,.075-1.715c.049-.255.1-.511.172-.759a7.094,7.094,0,0,1,.435-1.145,7.491,7.491,0,0,1,.908-1.43c.147-.182.325-.332.462-.525h.009v-.009a.56.56,0,0,0,.146-.114,6.613,6.613,0,0,1,1.559-1.059,5.7,5.7,0,0,1,1.663-.539,5.575,5.575,0,0,1,1.579-.079c.216.03.432.042.647.075.129.018.247.074.373.088a3.3,3.3,0,0,1,.643.172,5.27,5.27,0,0,1,.949.426,5.806,5.806,0,0,1,1.088.738,7.5,7.5,0,0,1,1.145,1.259,7.247,7.247,0,0,1,.793,1.485,6.2,6.2,0,0,1,.285.9,5.46,5.46,0,0,1,.151.766,7.341,7.341,0,0,1-.137,2.463,7.645,7.645,0,0,1-.478,1.383,6.716,6.716,0,0,1-.77,1.279,6.455,6.455,0,0,1-.792.868,14.409,14.409,0,0,1-2.023,1.469,10.5,10.5,0,0,1-1.533.767c-.539.218-1.085.415-1.624.632a8.416,8.416,0,0,0-1.608.842,4.285,4.285,0,0,0-1.244,1.312,7.324,7.324,0,0,0-.863,2.227,7.922,7.922,0,0,0-.181,1.355c-.027.482-.062.96-.067,1.443a.711.711,0,0,1-.008.1.081.081,0,0,1-.095.075.5.5,0,0,1-.113-.029c-.293-.106-.588-.212-.872-.345s-.578-.244-.857-.384a14.072,14.072,0,0,1-1.373-.789c-.386-.253-.771-.508-1.138-.792a16.655,16.655,0,0,1-1.319-1.145,13.62,13.62,0,0,1-1.546-1.73,15.442,15.442,0,0,1-1.224-1.838c-.183-.331-.366-.662-.531-1-.2-.41-.379-.827-.545-1.248-.1-.246-.191-.5-.273-.746-.1-.3-.183-.6-.27-.91a5.3,5.3,0,0,1-.161-.635c-.046-.3-.121-.588-.174-.885-.071-.393-.116-.789-.164-1.185a14.03,14.03,0,0,1-.074-1.423,16.161,16.161,0,0,1,.186-2.751c.022-.143.062-.284.071-.426a5.2,5.2,0,0,1,.172-.868c.109-.463.245-.921.393-1.376a16.215,16.215,0,0,1,1.782-3.758,15.353,15.353,0,0,1,1.452-1.948,16.622,16.622,0,0,1,2.251-2.117,15.537,15.537,0,0,1,1.436-.982,13.8,13.8,0,0,1,1.5-.8c.326-.146.656-.286.99-.414.312-.119.628-.23.948-.325a8.711,8.711,0,0,1,.869-.242c.284-.058.567-.122.85-.179.434-.086.872-.129,1.307-.176a13.888,13.888,0,0,1,2.253-.032c.279.015.553.067.829.089a11.179,11.179,0,0,1,1.6.263,12.355,12.355,0,0,1,1.287.36c.269.091.54.179.8.284.405.16.8.341,1.2.532q.664.329,1.3.714a13.727,13.727,0,0,1,1.911,1.4,16.26,16.26,0,0,1,1.259,1.191,14.982,14.982,0,0,1,1.2,1.447c.223.313.445.622.651.946.258.407.494.827.716,1.253a15.462,15.462,0,0,1,.9,2.088c.132.386.259.775.365,1.169.061.229.124.456.175.688.067.3.119.6.185.9.079.358.1.721.154,1.08a9.917,9.917,0,0,1,.071,1.442,15.61,15.61,0,0,1-.061,1.821c-.048.408-.1.815-.16,1.223-.043.277-.091.556-.158.832-.1.4-.193.794-.311,1.185-.1.321-.194.641-.309.952-.122.334-.254.666-.4.993-.194.434-.4.865-.625,1.285a15.864,15.864,0,0,1-1.022,1.646c-.279.39-.558.781-.865,1.149a13.283,13.283,0,0,1-1.117,1.193,8.1,8.1,0,0,1-1.655,1.282,14.793,14.793,0,0,1-3.093,1.28.133.133,0,0,0-.1.064" transform="translate(16322 14135)" fill="#f8f8f8"/>
    <path id="Path_145971" data-name="Path 145971" d="M1346.606,600.738a.133.133,0,0,1,.1-.064,14.793,14.793,0,0,0,3.093-1.28,8.1,8.1,0,0,0,1.655-1.282,13.283,13.283,0,0,0,1.117-1.193c.307-.368.586-.759.865-1.149a15.864,15.864,0,0,0,1.022-1.646c.227-.42.431-.851.625-1.285.146-.327.278-.659.4-.993.115-.311.212-.631.309-.952.118-.391.214-.79.311-1.185.067-.276.115-.555.158-.832.061-.408.112-.815.16-1.223a15.61,15.61,0,0,0,.061-1.821,9.917,9.917,0,0,0-.071-1.442c-.053-.359-.075-.722-.154-1.08-.066-.3-.118-.6-.185-.9-.051-.232-.114-.459-.175-.688-.106-.394-.233-.783-.365-1.169a15.462,15.462,0,0,0-.9-2.088c-.222-.426-.458-.846-.716-1.253-.206-.324-.428-.633-.651-.946a14.982,14.982,0,0,0-1.2-1.447,16.26,16.26,0,0,0-1.259-1.191,13.727,13.727,0,0,0-1.911-1.4q-.633-.387-1.3-.714c-.393-.191-.79-.372-1.2-.532-.265-.1-.536-.193-.8-.284a12.355,12.355,0,0,0-1.287-.36,11.179,11.179,0,0,0-1.6-.263c-.276-.022-.55-.074-.829-.089a13.888,13.888,0,0,0-2.253.032c-.435.047-.873.09-1.307.176-.283.057-.566.121-.85.179a8.711,8.711,0,0,0-.869.242c-.32.1-.636.206-.948.325-.334.128-.664.268-.99.414a13.8,13.8,0,0,0-1.5.8,15.537,15.537,0,0,0-1.436.982,16.622,16.622,0,0,0-2.251,2.117,15.353,15.353,0,0,0-1.452,1.948,16.215,16.215,0,0,0-1.782,3.758c-.148.455-.284.913-.393,1.376a5.2,5.2,0,0,0-.172.868c-.009.142-.049.283-.071.426a16.161,16.161,0,0,0-.186,2.751,14.03,14.03,0,0,0,.074,1.423c.048.4.093.792.164,1.185.053.3.128.588.174.885a5.3,5.3,0,0,0,.161.635c.087.3.173.61.27.91.082.25.175.5.273.746.166.421.347.838.545,1.248.165.34.348.671.531,1a15.442,15.442,0,0,0,1.224,1.838,13.62,13.62,0,0,0,1.546,1.73,16.655,16.655,0,0,0,1.319,1.145c.367.284.752.539,1.138.792a14.072,14.072,0,0,0,1.373.789c.279.14.573.252.857.384s.579.239.872.345a.5.5,0,0,0,.113.029.081.081,0,0,0,.095-.075.711.711,0,0,0,.008-.1c.005-.483.04-.961.067-1.443a7.922,7.922,0,0,1,.181-1.355,7.324,7.324,0,0,1,.863-2.227,4.285,4.285,0,0,1,1.244-1.312,8.416,8.416,0,0,1,1.608-.842c.539-.217,1.085-.414,1.624-.632a10.5,10.5,0,0,0,1.533-.767,14.409,14.409,0,0,0,2.023-1.469,6.455,6.455,0,0,0,.792-.868,6.716,6.716,0,0,0,.77-1.279,7.645,7.645,0,0,0,.478-1.383,7.341,7.341,0,0,0,.137-2.463,5.46,5.46,0,0,0-.151-.766,6.2,6.2,0,0,0-.285-.9,7.247,7.247,0,0,0-.793-1.485,7.5,7.5,0,0,0-1.145-1.259,5.806,5.806,0,0,0-1.088-.738,5.27,5.27,0,0,0-.949-.426,3.3,3.3,0,0,0-.643-.172c-.126-.014-.244-.07-.373-.088-.215-.033-.431-.045-.647-.075a5.575,5.575,0,0,0-1.579.079,5.7,5.7,0,0,0-1.663.539,6.613,6.613,0,0,0-1.559,1.059.56.56,0,0,1-.146.114c0-.052-.007-.1-.006-.157s.018-.1.067-.107a.258.258,0,0,0,.188-.155c.084-.143.246-.148.355-.246a.883.883,0,0,0,.146-.135.36.36,0,0,1,.276-.176.122.122,0,0,0,.128-.091.12.12,0,0,1,.133-.082.248.248,0,0,0,.2-.1.567.567,0,0,1,.391-.173,1.247,1.247,0,0,1,.183-.006.163.163,0,0,0,.182-.117.218.218,0,0,1,.243-.163.4.4,0,0,0,.267-.084.274.274,0,0,1,.19-.048,5.671,5.671,0,0,0,.781-.061.575.575,0,0,1,.149.007.882.882,0,0,0,.36-.027,1.129,1.129,0,0,1,.659-.012,1.581,1.581,0,0,0,.428.057,2.4,2.4,0,0,1,.821.12.886.886,0,0,0,.328.048.234.234,0,0,1,.25.159.174.174,0,0,0,.2.119,1.285,1.285,0,0,1,.364.043.285.285,0,0,1,.23.15.154.154,0,0,0,.154.085.182.182,0,0,1,.183.1.083.083,0,0,0,.066.049.381.381,0,0,1,.273.209c.09.13.24.157.363.228a.453.453,0,0,1,.155.123.5.5,0,0,0,.2.2.139.139,0,0,1,.073.128c.009.076.047.118.124.1a.139.139,0,0,1,.152.086.409.409,0,0,0,.173.154.35.35,0,0,1,.206.274.492.492,0,0,0,.249.35.407.407,0,0,1,.164.249c.025.107.059.211.191.234.076.014.1.1.115.162a5.778,5.778,0,0,0,.368.713c.015.031.043.055.042.091a1.047,1.047,0,0,0,.157.519,1.028,1.028,0,0,1,.092.438,4.161,4.161,0,0,0,.064.57,6.324,6.324,0,0,1,.1,1.554c-.018.26-.018.52-.028.781a.855.855,0,0,1-.034.205c-.077.259-.122.525-.175.792a1.432,1.432,0,0,1-.152.381,1.685,1.685,0,0,0-.188.477.085.085,0,0,1-.01.033c-.13.182-.162.422-.3.591-.1.123-.222.235-.323.361a.459.459,0,0,0-.095.163.3.3,0,0,1-.106.17.119.119,0,0,0-.044.073.451.451,0,0,1-.229.3.883.883,0,0,0-.206.244.652.652,0,0,1-.277.255.842.842,0,0,0-.391.331,1.547,1.547,0,0,1-.448.393c-.114.087-.278.086-.356.23-.014.025-.048.025-.075.032a.226.226,0,0,0-.094.03c-.153.149-.389.176-.5.381-.02.036-.066.039-.1.041s-.1.006-.151.006a.128.128,0,0,0-.147.108.189.189,0,0,1-.189.165.242.242,0,0,0-.147.076.158.158,0,0,1-.067.048c-.19.029-.317.194-.487.247a5.87,5.87,0,0,1-.575.215.35.35,0,0,0-.183.073.157.157,0,0,1-.089.042c-.157.024-.284.133-.438.166a.131.131,0,0,0-.092.069.118.118,0,0,1-.106.072c-.006,0-.013,0-.016,0-.147.145-.361.13-.522.241-.074.053-.162.031-.244.034s-.19,0-.24.115c-.025.06-.091.06-.147.057-.176-.008-.311.115-.472.156-.039.008-.051.057-.076.087-.043.053-.092.145-.137.144-.165,0-.257.143-.4.183a.215.215,0,0,0-.147.129.4.4,0,0,1-.187.185,1.1,1.1,0,0,0-.364.35.554.554,0,0,1-.211.216c-.048.018-.066.076-.095.118-.054.077-.085.176-.2.187-.036,0-.044.046-.055.079a7.619,7.619,0,0,1-.307.728,1.8,1.8,0,0,0-.209.576,1.121,1.121,0,0,1-.226.572.218.218,0,0,0-.054.124c-.018.371-.115.73-.164,1.1a.53.53,0,0,0,.022.29.64.64,0,0,1-.012.342,5.769,5.769,0,0,0-.056.743.768.768,0,0,0,.068.353.194.194,0,0,1-.02.21c-.176.286-.4.28-.671.165a.656.656,0,0,0-.2-.084c-.022,0-.052-.009-.061-.026-.079-.129-.214-.1-.329-.132a1.332,1.332,0,0,1-.612-.277,1.5,1.5,0,0,0-.438-.245,5.557,5.557,0,0,1-.763-.421c-.074-.047-.166-.062-.215-.151-.01-.02-.05-.023-.076-.03-.11-.029-.236-.023-.305-.144a1.6,1.6,0,0,1-.419-.239c-.01-.006-.022-.017-.03-.015-.149.04-.173-.067-.2-.177a.213.213,0,0,0-.179-.181c-.114-.014-.172-.121-.26-.178a3.864,3.864,0,0,0-.381-.273c-.08-.042-.141-.126-.227-.17-.042-.02-.051-.074-.061-.119a.159.159,0,0,0-.17-.135l-.1,0a.118.118,0,0,1-.13-.11.5.5,0,0,0-.3-.42.726.726,0,0,1-.221-.206.352.352,0,0,0-.137-.123c-.1-.036-.074-.166-.14-.223s-.17-.035-.217-.14a.457.457,0,0,0-.214-.236.188.188,0,0,1-.086-.123.64.64,0,0,0-.25-.334.368.368,0,0,1-.209-.276.123.123,0,0,0-.081-.1.6.6,0,0,1-.228-.246,4.367,4.367,0,0,0-.323-.483.615.615,0,0,1-.168-.331.114.114,0,0,0-.083-.1.2.2,0,0,1-.126-.15.3.3,0,0,0-.108-.171.089.089,0,0,1-.037-.056.47.47,0,0,0-.241-.332.493.493,0,0,1-.2-.4.365.365,0,0,0-.076-.223.637.637,0,0,1-.121-.3.612.612,0,0,0-.2-.369.38.38,0,0,1-.133-.283.453.453,0,0,0-.021-.151,1.508,1.508,0,0,1-.184-.516.164.164,0,0,0-.12-.132c-.088-.03-.12-.118-.163-.188a.2.2,0,0,1,.006-.186.338.338,0,0,0-.069-.4.787.787,0,0,1-.185-.558c0-.1,0-.2-.094-.262a.115.115,0,0,1-.034-.078,3.955,3.955,0,0,0-.166-.632,4.266,4.266,0,0,1-.077-.548,4.735,4.735,0,0,0-.078-.741.492.492,0,0,1-.018-.207,2.664,2.664,0,0,0-.029-.792c-.017-.232-.039-.461-.042-.694-.006-.5-.019-1,0-1.495a4.969,4.969,0,0,1,.094-1.1,2.024,2.024,0,0,0,.039-.432,6.491,6.491,0,0,1,.092-.932,1.558,1.558,0,0,0,.08-.352c0-.007,0-.015.005-.018.167-.15.106-.372.154-.558.042-.167.076-.337.122-.5a.23.23,0,0,1,.038-.1.61.61,0,0,0,.123-.483.617.617,0,0,1,.147-.431.826.826,0,0,0,.214-.46.242.242,0,0,1,.033-.1,5.621,5.621,0,0,0,.387-.763c.081-.159.114-.338.2-.495a1.755,1.755,0,0,0,.208-.45c.01-.04.045-.064.074-.092a.764.764,0,0,0,.264-.484.289.289,0,0,1,.162-.226.417.417,0,0,0,.234-.295.464.464,0,0,1,.151-.246.367.367,0,0,0,.144-.294.327.327,0,0,1,.252-.34.112.112,0,0,0,.087-.1.537.537,0,0,1,.174-.268c.031-.032.079-.056.094-.095a.389.389,0,0,1,.289-.3c.041-.009.051-.072.063-.116a.574.574,0,0,1,.38-.406.146.146,0,0,0,.108-.074,1.608,1.608,0,0,1,.348-.432c.011-.014.019-.036.033-.041.169-.059.229-.226.318-.36a.308.308,0,0,1,.264-.15.169.169,0,0,0,.152-.083.508.508,0,0,1,.21-.193.125.125,0,0,0,.054-.04,3.333,3.333,0,0,1,.413-.418c.04-.038.02-.1.061-.138a.564.564,0,0,1,.405-.233.407.407,0,0,0,.271-.114,1.31,1.31,0,0,1,.315-.22c.1-.041.149-.15.244-.2a.565.565,0,0,1,.133-.065c.076-.02.154-.032.195-.118a.09.09,0,0,1,.086-.042.378.378,0,0,0,.258-.146c.039-.041.079-.091.135-.1.174-.022.311-.147.48-.179a.109.109,0,0,0,.071-.039c.045-.109.142-.107.225-.149a3.342,3.342,0,0,0,.487-.212,1,1,0,0,1,.511-.184.446.446,0,0,0,.279-.1.212.212,0,0,1,.09-.044.329.329,0,0,0,.259-.19.2.2,0,0,1,.218-.1c.124.007.243-.032.366-.023a.2.2,0,0,0,.113-.028.956.956,0,0,1,.433-.109.642.642,0,0,0,.257-.068.594.594,0,0,1,.289-.071,1.044,1.044,0,0,0,.391-.081.7.7,0,0,1,.26-.053c.173,0,.343-.034.516-.04.044,0,.1,0,.127-.03a.33.33,0,0,1,.267-.072c.974,0,1.949,0,2.924.005a1.324,1.324,0,0,1,.508.078.45.45,0,0,0,.165.017c.177.007.355.005.533.026a1.127,1.127,0,0,1,.465.118.324.324,0,0,0,.18.03c.146-.007.287.035.432.039a.059.059,0,0,1,.033.005c.14.109.319.09.471.157a1.119,1.119,0,0,0,.39.081c.077,0,.155.006.233.014a.384.384,0,0,1,.323.182c.008.015.02.033.034.037.191.053.341.22.551.217a.4.4,0,0,1,.311.1.092.092,0,0,0,.058.032c.153,0,.252.115.374.177.094.048.173.129.288.121.1.131.28.1.393.2s.245.11.339.216c.035.039.1.023.142.04.12.039.256.052.3.21.019.06.076.064.126.061a.238.238,0,0,1,.228.119.83.83,0,0,0,.27.248c.111.075.251.094.337.209a.037.037,0,0,0,.032.01c.177-.03.3.109.448.161.035.013.082.04.091.073.063.22.3.271.4.453a.452.452,0,0,1,.332.3c.014.032.053.038.085.051a.511.511,0,0,1,.365.363.231.231,0,0,0,.193.194c.027,0,.065.009.077.027.1.169.283.254.384.422.026.043.042.1.1.108a.473.473,0,0,1,.367.335c.056.148.106.263.27.3.052.011.075.083.086.142a.429.429,0,0,0,.142.228.643.643,0,0,1,.136.174.233.233,0,0,0,.163.135.322.322,0,0,1,.237.264,1.1,1.1,0,0,0,.235.508.423.423,0,0,1,.062.122.77.77,0,0,0,.222.358.249.249,0,0,1,.078.133.789.789,0,0,0,.269.4.419.419,0,0,1,.1.176,1.574,1.574,0,0,0,.291.521.665.665,0,0,1,.161.339c.034.225.2.388.225.612a.445.445,0,0,1,.157.345.536.536,0,0,0,.05.181.828.828,0,0,0,.154.285.96.96,0,0,1,.2.6.339.339,0,0,0,.095.28c.069.061.071.169.088.259a3.6,3.6,0,0,1,.122.717.2.2,0,0,0,.03.116,1.528,1.528,0,0,1,.2.808,6.341,6.341,0,0,0,.049.745c.05.244.063.494.128.729a1.862,1.862,0,0,1,.056.513c0,.428,0,.857,0,1.286a12.268,12.268,0,0,1-.114,1.591.286.286,0,0,0-.012.086,1.524,1.524,0,0,1-.068.73,3.811,3.811,0,0,0-.074.741.629.629,0,0,1-.094.362.768.768,0,0,0-.111.3,2.526,2.526,0,0,0-.141.6.653.653,0,0,1-.157.461.3.3,0,0,0-.038.4.077.077,0,0,1,.005.081c-.052.133-.082.282-.237.335-.068.026-.08.1-.091.158a.573.573,0,0,1-.132.291.662.662,0,0,0-.1.342.45.45,0,0,1-.1.231.8.8,0,0,0-.212.46.475.475,0,0,1-.111.25.787.787,0,0,0-.146.327.721.721,0,0,1-.233.423c-.009.008-.02.016-.022.025-.025.2-.18.3-.288.432a3.878,3.878,0,0,0-.239.394c-.149.222-.3.443-.431.674a.417.417,0,0,1-.186.171.2.2,0,0,0-.112.194c-.01.2-.022.21-.21.247-.112.02-.158.107-.2.19a.788.788,0,0,1-.226.314.165.165,0,0,0-.061.081.236.236,0,0,1-.233.186.1.1,0,0,0-.094.1.286.286,0,0,1-.147.235.73.73,0,0,0-.158.174.616.616,0,0,1-.211.214.456.456,0,0,0-.2.253.226.226,0,0,1-.248.16c-.109,0-.185.022-.192.155a.109.109,0,0,1-.075.106,2.851,2.851,0,0,0-.277.156.335.335,0,0,0-.12.089,1.526,1.526,0,0,1-.544.382.583.583,0,0,0-.334.21.124.124,0,0,1-.12.049.314.314,0,0,0-.268.152.608.608,0,0,1-.167.135.735.735,0,0,1-.428.155.2.2,0,0,0-.139.051.3.3,0,0,1-.182.08.43.43,0,0,0-.229.093c-.033.034-.083.028-.127.031-.142.016-.292,0-.4.129-.211.019-.383.176-.6.185a1.8,1.8,0,0,1-.367-.005" transform="translate(16322 14135)" fill="#535d8f"/>
    <path id="Path_145972" data-name="Path 145972" d="M1336.452,581.143c-.136.191-.314.344-.461.523a7.513,7.513,0,0,0-.909,1.432,7,7,0,0,0-.435,1.146c-.072.248-.123.5-.172.756a8.566,8.566,0,0,0-.075,1.715,4.665,4.665,0,0,0,.094.635,6.032,6.032,0,0,0,.259,1.059,7.289,7.289,0,0,0,.631,1.356,6.6,6.6,0,0,0,.523.764c.054.065.11.129.166.192.081.095.106.1.212.036a11.263,11.263,0,0,1,1.018-.557,10.336,10.336,0,0,1,1.369-.546c.042-.014.095-.01.1-.07s-.039-.08-.074-.1a3.98,3.98,0,0,1-1.134-1.279,3.225,3.225,0,0,1-.261-.581,4.227,4.227,0,0,1-.248-1.565,4.291,4.291,0,0,1,.677-2.132,3.825,3.825,0,0,1,.834-.943,4.14,4.14,0,0,1,1.01-.6,3.841,3.841,0,0,1,1.285-.27,3.313,3.313,0,0,1,1.329.212,3.992,3.992,0,0,1,2.266,2.107,3.738,3.738,0,0,1,.367,1.256,4.157,4.157,0,0,1-.031,1.193,4.455,4.455,0,0,1-.352,1.117,4.251,4.251,0,0,1-.626.938,3.546,3.546,0,0,1-.7.613c-.385.264-.759.547-1.159.787a5.446,5.446,0,0,1-1.184.551,3.632,3.632,0,0,0-.5.191c-.136.062-.285.1-.426.148a11.693,11.693,0,0,0-2.6,1.3,9.486,9.486,0,0,0-1.874,1.638,6.346,6.346,0,0,0-1.054,1.638,7.677,7.677,0,0,0-.391,1.177c-.017.066-.014.139-.025.206-.02.125-.088.155-.188.083-.284-.2-.564-.414-.832-.64a13.491,13.491,0,0,1-1.231-1.172c-.248-.267-.481-.546-.707-.834a12.851,12.851,0,0,1-1.123-1.678,12.078,12.078,0,0,1-.794-1.682c-.083-.221-.174-.437-.248-.663a16.566,16.566,0,0,1-.453-1.705c-.078-.374-.129-.752-.179-1.128-.055-.406-.062-.819-.084-1.229a12.271,12.271,0,0,1,.076-1.789,10.815,10.815,0,0,1,.172-1.112c.052-.255.117-.506.165-.761a5.412,5.412,0,0,1,.149-.549c.1-.321.185-.643.305-.954.189-.491.4-.968.631-1.438a12.394,12.394,0,0,1,1.229-1.979,11.233,11.233,0,0,1,1.285-1.459c.364-.341.728-.683,1.121-.989s.776-.56,1.18-.817a12.528,12.528,0,0,1,1.5-.791,10.279,10.279,0,0,1,1.127-.428,10.487,10.487,0,0,1,1.141-.322,6.752,6.752,0,0,1,.936-.165c.25-.018.493-.082.744-.1a15.343,15.343,0,0,1,1.953-.012c.374.02.742.077,1.11.13a10.648,10.648,0,0,1,1.305.281,11.91,11.91,0,0,1,1.639.58,13.219,13.219,0,0,1,1.464.753,12.958,12.958,0,0,1,2.505,1.953,12.711,12.711,0,0,1,1.663,2.032,14.251,14.251,0,0,1,1.007,1.8,12.611,12.611,0,0,1,.57,1.444c.112.338.216.68.3,1.03.057.234.116.469.159.709.068.369.131.739.179,1.111a13.006,13.006,0,0,1,.067,2.358,10.312,10.312,0,0,1-.175,1.481c-.051.249-.092.5-.149.747s-.123.5-.2.752-.145.471-.224.708a13.414,13.414,0,0,1-2.28,4.094,8.784,8.784,0,0,1-1.262,1.238,10.206,10.206,0,0,1-1.356.917,9.562,9.562,0,0,1-1.059.511c-.155.062-.307.133-.462.2a.144.144,0,0,0-.094.131c0,.041,0,.081,0,.122q0,1.293,0,2.588a.453.453,0,0,0,.034.2c-.085-.039-.076-.121-.076-.2q0-.5,0-.991c0-.516,0-1.031,0-1.548a1.155,1.155,0,0,1,.071-.371c.005-.016.012-.044.021-.046.147-.026.213-.215.365-.212a.334.334,0,0,0,.29-.168.49.49,0,0,1,.517-.233.206.206,0,0,0,.082,0,2.709,2.709,0,0,0,.489-.273c.092-.1.176-.213.329-.208.163-.137.38-.2.508-.383a2.742,2.742,0,0,1,.287-.339.38.38,0,0,1,.263-.133.164.164,0,0,0,.18-.143.15.15,0,0,1,.121-.126.159.159,0,0,0,.11-.074,3.269,3.269,0,0,1,.251-.341,1.392,1.392,0,0,1,.354-.41,1.553,1.553,0,0,0,.372-.421c.068-.089.11-.217.239-.254.018-.005.033-.046.038-.074a.584.584,0,0,1,.143-.27c.13-.156.206-.344.323-.507a.459.459,0,0,0,.046-.129c.021-.067.048-.129.125-.146a.126.126,0,0,0,.093-.128.8.8,0,0,1,.153-.378,2.425,2.425,0,0,0,.216-.468c.032-.084.056-.163.156-.184a.071.071,0,0,0,.056-.091,2.936,2.936,0,0,1,.021-.311.267.267,0,0,1,.068-.189,1.579,1.579,0,0,0,.151-.229.382.382,0,0,0,.039-.36.337.337,0,0,1,.118-.4.289.289,0,0,0,.129-.209.546.546,0,0,1,.048-.166,1.262,1.262,0,0,0,.141-.6c.01-.255.055-.506.074-.76a.178.178,0,0,1,.056-.14.216.216,0,0,0,.077-.2c-.016-.278.036-.555.037-.833a.211.211,0,0,1,.007-.067,4.22,4.22,0,0,0,.058-1.1c-.1-.229-.028-.5-.134-.726a.12.12,0,0,1-.011-.068,2.472,2.472,0,0,0-.08-.855,5.761,5.761,0,0,1-.075-.671,1.774,1.774,0,0,0-.132-.622.742.742,0,0,1-.066-.425c.013-.106-.011-.184-.117-.217a.127.127,0,0,1-.089-.116,5.271,5.271,0,0,0-.247-.734c-.047-.161-.08-.324-.124-.484a.846.846,0,0,0-.223-.454.386.386,0,0,1-.119-.185c-.05-.191-.164-.352-.221-.539a.385.385,0,0,0-.046-.09,3.817,3.817,0,0,1-.247-.432.49.49,0,0,0-.148-.207.379.379,0,0,1-.138-.249.345.345,0,0,0-.137-.23.588.588,0,0,1-.188-.279.367.367,0,0,0-.254-.251.537.537,0,0,1-.309-.317c-.026-.059-.048-.118-.068-.179a.494.494,0,0,0-.161-.237.771.771,0,0,1-.146-.165.958.958,0,0,0-.231-.244,1.723,1.723,0,0,1-.253-.3c-.018-.023-.029-.055-.051-.07a6.553,6.553,0,0,1-.709-.613.6.6,0,0,0-.339-.167.4.4,0,0,1-.317-.29c-.018-.043-.02-.1-.067-.112-.152-.05-.252-.185-.389-.252-.1-.048-.2-.066-.241-.185,0-.009-.017-.015-.027-.017-.243-.044-.413-.239-.625-.347a.949.949,0,0,1-.417-.3c-.036-.055-.092-.054-.148-.061-.109-.016-.225-.016-.3-.126-.169-.034-.3-.188-.477-.187-.038,0-.088.006-.11-.025a.341.341,0,0,0-.315-.119,1.182,1.182,0,0,1-.513-.18,1.422,1.422,0,0,0-.512-.124c-.044-.006-.089,0-.134,0a1.806,1.806,0,0,1-.575-.191,1.279,1.279,0,0,0-.616-.193,2.794,2.794,0,0,1-.633-.027c-.038-.006-.086,0-.112-.026-.083-.1-.191-.082-.295-.082H1340.1a.332.332,0,0,0-.281.078c-.027.029-.072.025-.111.028a5.226,5.226,0,0,1-.75.03.534.534,0,0,0-.407.161.316.316,0,0,1-.192.086,3.258,3.258,0,0,1-.566.035.165.165,0,0,0-.05,0c-.167.067-.334.13-.5.2a1.013,1.013,0,0,1-.119.06c-.016.005-.036,0-.049.012-.161.1-.361.075-.52.149a3.055,3.055,0,0,0-.833.368c-.081.075-.2.051-.306.065a.288.288,0,0,0-.25.164.4.4,0,0,1-.307.236.166.166,0,0,0-.121.052.856.856,0,0,1-.335.216c-.132.069-.254.159-.386.231a1.239,1.239,0,0,0-.385.235.425.425,0,0,0-.1.129.394.394,0,0,1-.352.3.461.461,0,0,0-.309.188,1.7,1.7,0,0,1-.32.273.439.439,0,0,0-.163.171.222.222,0,0,1-.181.134c-.105.011-.143.075-.156.17-.005.034-.011.068-.015.1-.01.1-.06.153-.152.154a.378.378,0,0,0-.334.246.529.529,0,0,1-.17.2.875.875,0,0,0-.239.329c-.064.113-.185.189-.2.33a.022.022,0,0,1-.011.012c-.273.158-.367.461-.534.7-.125.182-.2.386-.307.574a.393.393,0,0,1-.159.2c-.072.034-.063.117-.075.181-.021.118-.019.245-.171.281-.045.011-.048.075-.06.12a1.172,1.172,0,0,1-.181.422,1.277,1.277,0,0,0-.167.433c-.013.051-.018.108-.065.137a.268.268,0,0,0-.113.269.7.7,0,0,1-.077.334,1.537,1.537,0,0,1-.219.407.4.4,0,0,0-.071.246,2.494,2.494,0,0,1-.154.689,1.91,1.91,0,0,0-.076.582,1.371,1.371,0,0,1-.082.422c-.042.1-.048.218-.088.316a2.594,2.594,0,0,0-.109.784c-.045.508-.009,1.017-.024,1.527a.5.5,0,0,0,.042.254.342.342,0,0,1,.022.171,2.834,2.834,0,0,0,.051.587.973.973,0,0,1,.016.172.592.592,0,0,0,.054.267.723.723,0,0,1,.068.249,5.991,5.991,0,0,1,.083.813.677.677,0,0,0,.085.367.977.977,0,0,1,.115.516c-.005.118,0,.234.119.3.056.031.052.1.058.156a.648.648,0,0,0,.168.388.485.485,0,0,1,.12.366.459.459,0,0,0,.1.311,2.241,2.241,0,0,1,.326.6.593.593,0,0,0,.089.186.343.343,0,0,1,.087.219c0,.085.068.135.117.182a1.14,1.14,0,0,1,.217.326c.041.085.114.14.16.22a1.848,1.848,0,0,1,.2.4c.01.032.02.076.051.086.116.039.161.156.243.23a.4.4,0,0,1,.154.277.128.128,0,0,0,.111.13.534.534,0,0,1,.375.4c.028.086.054.145.141.168a.229.229,0,0,1,.159.164.231.231,0,0,0,.142.157c.078.027.1.106.131.172a.346.346,0,0,0,.254.222.348.348,0,0,1,.26.266.208.208,0,0,0,.18.178.257.257,0,0,1,.163.106.339.339,0,0,0,.257.173.079.079,0,0,1,.058.028c.054.127.209.151.26.283a.237.237,0,0,0,.065.077.219.219,0,0,0,.364-.094.566.566,0,0,0,.007-.292.978.978,0,0,1,.153-.638.1.1,0,0,1,.079-.057c.089-.011.118-.072.134-.153a.46.46,0,0,1,.17-.325c.029-.017.04-.068.053-.105.024-.071.036-.148.108-.189a.1.1,0,0,0,.047-.089.532.532,0,0,1,.195-.346,1.144,1.144,0,0,0,.314-.464.13.13,0,0,1,.061-.077,2.82,2.82,0,0,0,.419-.391c.123-.116.246-.23.359-.357a3.168,3.168,0,0,1,.508-.419,1.827,1.827,0,0,1,.259-.19.242.242,0,0,0,.1-.11.37.37,0,0,1,.166-.132,1.387,1.387,0,0,0,.343-.246.588.588,0,0,1,.318-.171.385.385,0,0,0,.236-.114.155.155,0,0,1,.085-.053,1.037,1.037,0,0,0,.423-.23c.018-.015.035-.037.054-.039.231-.009.377-.2.569-.287a1.532,1.532,0,0,1,.639-.179.191.191,0,0,0,.175-.08.164.164,0,0,1,.15-.061c.056,0,.12.005.16-.037a.589.589,0,0,1,.333-.141.186.186,0,0,0,.093-.035.322.322,0,0,1,.219-.066.169.169,0,0,0,.174-.077c.011-.02.032-.045.048-.044.185.011.3-.17.476-.184a.185.185,0,0,0,.17-.142.258.258,0,0,1,.222-.185,1.527,1.527,0,0,1,.271-.074.09.09,0,0,0,.059-.029,1.354,1.354,0,0,1,.435-.281c.087-.052.113-.156.2-.207.028-.015.05-.071.07-.069.182.023.254-.156.389-.22.119-.055.175-.191.281-.267a1.514,1.514,0,0,0,.454-.667c.034-.081.069-.158.169-.172.071-.012.1-.073.1-.143a.954.954,0,0,1,.112-.338,2.914,2.914,0,0,0,.293-1.043c.012-.2.034-.39.054-.587.009-.084.013-.162-.067-.214a.162.162,0,0,1-.055-.156,1.075,1.075,0,0,0-.131-.55.49.49,0,0,1-.059-.2.977.977,0,0,0-.155-.417.789.789,0,0,1-.059-.141c-.012-.035-.019-.073-.047-.091a1.172,1.172,0,0,1-.3-.429c-.045-.077-.123-.132-.139-.23-.008-.043-.059-.05-.1-.06a.238.238,0,0,1-.171-.147.38.38,0,0,0-.229-.207.757.757,0,0,1-.378-.259.688.688,0,0,0-.469-.305.5.5,0,0,1-.3-.172.22.22,0,0,0-.19-.083,1.19,1.19,0,0,1-.331-.033c-.028-.007-.063,0-.08-.02-.107-.1-.237-.083-.364-.085h-.434a.5.5,0,0,0-.317.078.553.553,0,0,1-.341.061c-.119-.005-.225,0-.239.165a.122.122,0,0,1-.119.106.478.478,0,0,1-.1.005.659.659,0,0,0-.576.285.9.9,0,0,1-.384.257.366.366,0,0,0-.227.209.453.453,0,0,1-.114.138,1.748,1.748,0,0,0-.322.391.787.787,0,0,1-.257.354.085.085,0,0,0-.033.038,4.61,4.61,0,0,0-.231.593,1.86,1.86,0,0,1-.141.5,1.344,1.344,0,0,0-.087.545,4.156,4.156,0,0,0,.021.764c.018.1,0,.211.023.321a3.8,3.8,0,0,0,.2.566,1.354,1.354,0,0,1,.1.417c0,.075.036.114.094.124.217.038.275.229.354.4a1.94,1.94,0,0,0,.121.246.2.2,0,0,0,.1.081.419.419,0,0,1,.287.287c.028.11.118.13.2.158.162.052.161.052.124.227a.321.321,0,0,1-.2.248.626.626,0,0,0-.3.2.173.173,0,0,1-.164.066.478.478,0,0,0-.35.081.237.237,0,0,1-.1.02c-.04.006-.093.006-.107.04-.055.129-.211.118-.278.233-.028.047-.089.039-.139.044a.422.422,0,0,0-.332.194.471.471,0,0,1-.411.222.348.348,0,0,0-.223.057c-.164.111-.269.078-.358-.1-.023-.047-.041-.1-.064-.143-.051-.095-.086-.2-.2-.24a.077.077,0,0,1-.037-.032.583.583,0,0,0-.226-.3c-.084-.213-.279-.357-.332-.592a.376.376,0,0,0-.147-.263c-.018-.01-.026-.048-.029-.078a1.479,1.479,0,0,0-.176-.5,2.311,2.311,0,0,1-.09-.3,12.232,12.232,0,0,1-.262-1.2.853.853,0,0,1-.009-.189c0-.32,0-.639,0-.956a1.754,1.754,0,0,0-.019-.261,1.179,1.179,0,0,1,.02-.465c.04-.163.047-.332.075-.5.037-.222.053-.444.074-.669a.264.264,0,0,1,.087-.2.412.412,0,0,0,.16-.329,1.131,1.131,0,0,1,.215-.538,1.021,1.021,0,0,0,.142-.312.577.577,0,0,1,.18-.3.48.48,0,0,0,.174-.376c0-.141.041-.2.176-.2.162-.005.225-.1.263-.239a.317.317,0,0,1,.151-.215.341.341,0,0,0,.14-.144c.063-.155.172-.161.3-.136" transform="translate(16322 14135)" fill="#535d8f"/>
    <path id="Path_145973" data-name="Path 145973" d="M1337.22,610.508c.05-.456.011-.915.041-1.371a3.662,3.662,0,0,0-.048-.7.269.269,0,0,1,.223-.321.489.489,0,0,1,.183,0,1.392,1.392,0,0,0,.514-.025c.1-.024.175-.092.27-.125.116-.042.222-.122.343-.165a.112.112,0,0,0,.073-.089c.023-.179.159-.246.291-.3a.428.428,0,0,0,.215-.179c.054-.08.1-.168.147-.25s.108-.179.227-.183c.06,0,.084-.043.1-.1.061-.168.124-.335.186-.5.05-.135.108-.267.145-.4a2.621,2.621,0,0,0,.116-.54,3.731,3.731,0,0,0,.022-1,.965.965,0,0,1-.006-.208v-7.53a2.177,2.177,0,0,0-.009-.243.268.268,0,0,1,.229-.331,1.318,1.318,0,0,0,.352-.1c.025-.012.059-.015.075-.036a.455.455,0,0,1,.392-.143.186.186,0,0,0,.112-.034.765.765,0,0,1,.473-.129c.079-.011.14-.03.17-.112a.249.249,0,0,1,.264-.17.372.372,0,0,0,.329-.11.273.273,0,0,1,.33.006.315.315,0,0,1,.141.3.712.712,0,0,1-.048.217.464.464,0,0,0-.022.323,1.649,1.649,0,0,1,.046.48c0,2.5.008,5-.008,7.494,0,.561-.013,1.122-.028,1.684a2.114,2.114,0,0,1-.061.412,2.148,2.148,0,0,0-.075.443.3.3,0,0,1-.037.151,1.133,1.133,0,0,0-.117.449.854.854,0,0,1-.168.406.644.644,0,0,0-.148.363,1.1,1.1,0,0,1-.174.407.051.051,0,0,1-.041.023c-.114-.019-.14.072-.177.149a3.7,3.7,0,0,0-.246.47.13.13,0,0,1-.076.089c-.114.035-.16.135-.218.227a1.225,1.225,0,0,1-.239.3c-.013.011-.022.031-.036.037a.606.606,0,0,0-.343.306c-.014.031-.063.045-.095.069-.074.049-.142.114-.215.162-.143.092-.3.157-.355.345-.143.1-.278.211-.472.142a.266.266,0,0,0-.26.089.908.908,0,0,1-.173.1,1.15,1.15,0,0,1-.575.126c-.082,0-.165.022-.249.02a.406.406,0,0,0-.327.1.245.245,0,0,1-.159.043.685.685,0,0,0-.427.114c-.069.057-.151.02-.208-.049a.617.617,0,0,1-.172-.42c0-.056,0-.116,0-.174m5.755-10.15h0q0-2.469,0-4.937c0-.292-.009-.288-.265-.157a9.859,9.859,0,0,1-.932.424,9.5,9.5,0,0,1-1.089.326c-.259.07-.259.071-.259.35q0,3.988,0,7.979a5.634,5.634,0,0,1-.1,1.208,4.592,4.592,0,0,1-.313.949,3.561,3.561,0,0,1-1.01,1.254,2.424,2.424,0,0,1-.982.5,4.213,4.213,0,0,1-.449.037c-.192.021-.193.018-.194.214v1.74c0,.184,0,.37,0,.555,0,.137.008.146.143.144q.091,0,.183-.012c.232-.028.462-.066.692-.111a6.788,6.788,0,0,0,1.058-.309,4.3,4.3,0,0,0,1.463-.95,6.306,6.306,0,0,0,1.713-2.71,6.677,6.677,0,0,0,.338-2.077c-.006-1.473,0-2.943,0-4.416" transform="translate(16322 14135)" fill="#535d8f"/>
    <path id="Path_145974" data-name="Path 145974" d="M1340.9,588.119c-.179,0-.357,0-.535,0a.24.24,0,0,1-.251-.131.289.289,0,0,0-.2-.147,1.1,1.1,0,0,1-.687-.655,2.286,2.286,0,0,1-.177-1.245.532.532,0,0,0,0-.138.68.68,0,0,1,.107-.475c.111-.2.242-.374.352-.57.041-.072.08-.119.164-.119a.151.151,0,0,0,.166-.137.173.173,0,0,1,.157-.154c.089-.013.129-.12.23-.127s.209-.031.315-.03c.268,0,.535.005.8,0a.633.633,0,0,1,.38.107.347.347,0,0,0,.12.06.24.24,0,0,1,.176.145.207.207,0,0,0,.174.142c.073.008.1.062.121.125a.5.5,0,0,0,.122.2,1.593,1.593,0,0,1,.4,1,2.2,2.2,0,0,1-.078.824,3.656,3.656,0,0,1-.231.613.5.5,0,0,1-.349.287.192.192,0,0,0-.1.054c-.02.022-.042.05-.065.052a.6.6,0,0,0-.341.231.279.279,0,0,1-.214.078c-.184,0-.368,0-.551,0m.023-.137a1.837,1.837,0,1,0-1.77-1.84,1.787,1.787,0,0,0,1.77,1.84" transform="translate(16322 14135)" fill="#535d8f"/>
    <path id="Path_145975" data-name="Path 145975" d="M1358.756,567.339a.3.3,0,0,1,.269.041.173.173,0,0,0,.095.025,4.232,4.232,0,0,1,1.048.371,5.42,5.42,0,0,1,.529.289,3.452,3.452,0,0,1,.7.547,7.177,7.177,0,0,1,.889,1.009,4.661,4.661,0,0,1,.578,1.165,1.864,1.864,0,0,0,.129.354.952.952,0,0,1,.061.3.294.294,0,0,0,.029.132.477.477,0,0,1,.061.366c-.128-.017-.186-.081-.2-.224a5.788,5.788,0,0,0-.138-.749,1.926,1.926,0,0,0-.283-.633,1.429,1.429,0,0,1-.282-.561.665.665,0,0,0-.245-.369,1.321,1.321,0,0,1-.339-.374.363.363,0,0,0-.2-.178.39.39,0,0,1-.285-.307.123.123,0,0,0-.071-.091.213.213,0,0,1-.132-.124.124.124,0,0,0-.144-.063.587.587,0,0,1-.445-.194c-.125-.1-.236-.23-.413-.234-.011,0-.027,0-.031-.011-.1-.16-.268-.107-.408-.142-.032-.009-.07,0-.1-.018a1.741,1.741,0,0,0-.564-.126c-.115-.015-.117-.034-.114-.2" transform="translate(16322 14135)" fill="#535d8f"/>
    <path id="Path_145976" data-name="Path 145976" d="M1363.15,608.929a.481.481,0,0,1-.062.364c-.045.064-.025.148-.032.221a2.443,2.443,0,0,1-.149.488,4.79,4.79,0,0,1-.393.9,4,4,0,0,1-.84,1.088,3.028,3.028,0,0,0-.276.3,1.777,1.777,0,0,1-.408.327.144.144,0,0,1,.1-.177.138.138,0,0,0,.1-.127.322.322,0,0,1,.221-.254.5.5,0,0,0,.253-.235,1.353,1.353,0,0,1,.168-.257c.043-.05.079-.1.152-.087.027.006.066-.005.074-.028.04-.134.2-.19.206-.343a.907.907,0,0,1,.263-.53.465.465,0,0,0,.107-.211.345.345,0,0,1,.129-.25c.056-.039.059-.124.062-.194a3.654,3.654,0,0,1,.112-.595.413.413,0,0,0,.022-.118.24.24,0,0,1,.2-.278" transform="translate(16322 14135)" fill="#535d8f"/>
    <path id="Path_145977" data-name="Path 145977" d="M1319.628,611.293a3.2,3.2,0,0,1-.4-.675,6.1,6.1,0,0,1-.342-.876c-.044-.133-.043-.288-.1-.418a2.042,2.042,0,0,1-.092-.623c.064-.02.095.032.141.058a.267.267,0,0,1,.13.341,1.132,1.132,0,0,0,.035.377c.018.17.056.338.085.509,0,.018,0,.04.013.049.124.121.124.3.191.447a.388.388,0,0,0,.077.112.832.832,0,0,1,.257.7" transform="translate(16322 14135)" fill="#535d8f"/>
    <path id="Path_145978" data-name="Path 145978" d="M1323.029,613.556a.4.4,0,0,1-.13-.022.823.823,0,0,0-.3-.095,5.427,5.427,0,0,1-.918-.344,3.912,3.912,0,0,1-.657-.374c-.044-.031-.1-.052-.12-.112a1.318,1.318,0,0,1,.332.02.375.375,0,0,1,.215.123.708.708,0,0,0,.257.214,2.94,2.94,0,0,1,.433.22,1.623,1.623,0,0,1,.6.131,1.572,1.572,0,0,0,.282.022c.061.005.111.028.118.1s-.036.116-.109.119" transform="translate(16322 14135)" fill="#535d8f"/>
    <path id="Path_145979" data-name="Path 145979" d="M1360.992,612.61a1.488,1.488,0,0,1-.4.273,3.461,3.461,0,0,1-.87.416,2.071,2.071,0,0,1-.6.166c-.093,0-.161.106-.265.089-.058,0-.1-.023-.1-.09s.038-.114.088-.112a2.294,2.294,0,0,0,.628-.151,1.581,1.581,0,0,1,.265-.034.163.163,0,0,0,.154-.081.089.089,0,0,1,.083-.053c.16.016.257-.1.361-.191a.79.79,0,0,1,.655-.232" transform="translate(16322 14135)" fill="#535d8f"/>
    <path id="Path_145980" data-name="Path 145980" d="M1320.905,612.608a2.064,2.064,0,0,1-.421-.333c-.217-.232-.438-.458-.656-.688a1.04,1.04,0,0,1-.2-.293c.077-.011.146,0,.176.086a.118.118,0,0,0,.064.077.669.669,0,0,1,.328.325.7.7,0,0,0,.271.271.435.435,0,0,1,.223.243.2.2,0,0,0,.127.147c.078.025.1.089.09.165" transform="translate(16322 14135)" fill="#535d8f"/>
    <path id="Path_145981" data-name="Path 145981" d="M1363.152,608.753a.119.119,0,0,1,0,.085c-.027,0-.06.005-.064-.029s.032-.051.065-.056" transform="translate(16322 14135)" fill="#535d8f"/>
    <path id="Path_145982" data-name="Path 145982" d="M1342.975,600.358c0,1.473,0,2.943,0,4.416a6.677,6.677,0,0,1-.338,2.077,6.306,6.306,0,0,1-1.713,2.71,4.3,4.3,0,0,1-1.463.95,6.788,6.788,0,0,1-1.058.309c-.23.045-.46.083-.692.111q-.092.01-.183.012c-.135,0-.143-.007-.143-.144,0-.185,0-.371,0-.555V608.5c0-.2,0-.193.194-.214a4.213,4.213,0,0,0,.449-.037,2.424,2.424,0,0,0,.982-.5,3.561,3.561,0,0,0,1.01-1.254,4.592,4.592,0,0,0,.313-.949,5.634,5.634,0,0,0,.1-1.208q0-3.99,0-7.979c0-.279,0-.28.259-.35a9.5,9.5,0,0,0,1.089-.326,9.859,9.859,0,0,0,.932-.424c.256-.131.265-.135.265.157q0,2.469,0,4.937Z" transform="translate(16322 14135)" fill="#f8f8f8"/>
    <path id="Path_145983" data-name="Path 145983" d="M1340.922,587.982a1.837,1.837,0,1,1,1.763-1.859,1.786,1.786,0,0,1-1.763,1.859" transform="translate(16322 14135)" fill="#f8f8f8"/>
  </g>
</svg>
