<svg xmlns="http://www.w3.org/2000/svg" width="76" height="64.617" viewBox="0 0 76 64.617">
  <g id="Client_15" transform="translate(-16748.928 -14260.027)">
    <path id="Path_140881" data-name="Path 140881" d="M472.553,142.182l1.338,3.539a24.139,24.139,0,0,1,1.3,8.815,8.178,8.178,0,0,1-1.985,5.336c-1.367,1.352-3.2,1.267-4.811.836a11.39,11.39,0,0,1-2.91-1.392,21.854,21.854,0,0,1-4.194-3.665,37.895,37.895,0,0,1-7.443-12.646c-1.2-3.275-2.3-8.318-1.26-11.908.089-.3.265-.711.312-.986-.577.576-1.09,3.141-1.138,4.37V136.1a24.234,24.234,0,0,0,.465,3.753,39.512,39.512,0,0,0,4.788,12.1l1.82,2.811,2.88,3.553c2.918,3.129,8.078,7.141,11.874,4.831,2.2-1.342,3-4.854,2.75-8.131a20.885,20.885,0,0,0-.287-2.571,36.339,36.339,0,0,0-3.021-9.363,4.741,4.741,0,0,0-.476-.9" transform="translate(16322 14135)" fill="#f38832" fill-rule="evenodd"/>
    <path id="Path_140882" data-name="Path 140882" d="M459.215,125.027h1.079a6.709,6.709,0,0,1,1.793.448,10.479,10.479,0,0,1,2.738,1.628c.158.129.249.217.414.355a15.633,15.633,0,0,1,2.465,2.775,2.93,2.93,0,0,1,.608.937,5.523,5.523,0,0,1-.684-.761,9.392,9.392,0,0,0-.712-.724,14.472,14.472,0,0,0-1.587-1.221c-2.349-1.606-5.835-2.327-8.075-.668a5.735,5.735,0,0,0-1.42,1.451,8.29,8.29,0,0,0-.97,2.063l.737-1.041a2.449,2.449,0,0,1,.244-.3,6.21,6.21,0,0,1,6.3-1.463c1.109.321,3.6,1.793,4,2.523-.493-.155-.986-.395-1.5-.564a12.469,12.469,0,0,0-1.573-.4c-6.14-1.218-10.021,4.363-7.978,12.726a22.9,22.9,0,0,0,1.737,4.618c.153.325.949,1.643.986,1.831a1.527,1.527,0,0,1-.332-.465c-.118-.208-.2-.276-.319-.481a28,28,0,0,1-3.2-8.064c-.987-4.051-.878-8.483.641-11.6a5.913,5.913,0,0,1,4.61-3.6" transform="translate(16322 14135)" fill="#293677" fill-rule="evenodd"/>
    <path id="Path_140883" data-name="Path 140883" d="M468.777,138.44c0,1.668,1.3,3.55,2.276,3.747,1.4.285,1.094-2.564-.662-4.184-.745-.688-1.614-.679-1.614.437" transform="translate(16322 14135)" fill="#f38832" fill-rule="evenodd"/>
    <path id="Path_140884" data-name="Path 140884" d="M458.122,149.736a.45.45,0,0,0-.207-.353.445.445,0,0,0,.207.353" transform="translate(16322 14135)" fill="#0b78b9" fill-rule="evenodd"/>
    <path id="Path_140885" data-name="Path 140885" d="M472.553,142.182v-.07l-.06.058Z" transform="translate(16322 14135)" fill="#f38832" fill-rule="evenodd"/>
    <path id="Path_140886" data-name="Path 140886" d="M452.9,130.11h.052l-.043-.083Z" transform="translate(16322 14135)" fill="#f38832" fill-rule="evenodd"/>
    <path id="Path_140887" data-name="Path 140887" d="M458.277,149.948v.07l.06-.057Z" transform="translate(16322 14135)" fill="#0b78b9" fill-rule="evenodd"/>
    <path id="Path_140888" data-name="Path 140888" d="M468.518,131.451v.071l.06-.058Z" transform="translate(16322 14135)" fill="#0b78b9" fill-rule="evenodd"/>
    <path id="Path_140889" data-name="Path 140889" d="M468.518,131.451l-.052-.069Z" transform="translate(16322 14135)" fill="#0b78b9" fill-rule="evenodd"/>
    <path id="Path_140890" data-name="Path 140890" d="M468.467,131.38l-.052-.07Z" transform="translate(16322 14135)" fill="#0b78b9" fill-rule="evenodd"/>
    <path id="Path_140891" data-name="Path 140891" d="M468.415,131.31l-.052-.069Z" transform="translate(16322 14135)" fill="#0b78b9" fill-rule="evenodd"/>
    <path id="Path_140892" data-name="Path 140892" d="M468.363,131.239l-.052-.069Z" transform="translate(16322 14135)" fill="#0b78b9" fill-rule="evenodd"/>
    <path id="Path_140893" data-name="Path 140893" d="M457.863,149.312l-.052-.069Z" transform="translate(16322 14135)" fill="#0b78b9" fill-rule="evenodd"/>
    <path id="Path_140894" data-name="Path 140894" d="M458.174,149.806l-.052-.069Z" transform="translate(16322 14135)" fill="#0b78b9" fill-rule="evenodd"/>
    <path id="Path_140895" data-name="Path 140895" d="M458.225,149.878l-.052-.07Z" transform="translate(16322 14135)" fill="#0b78b9" fill-rule="evenodd"/>
    <path id="Path_140896" data-name="Path 140896" d="M458.277,149.948l-.052-.07Z" transform="translate(16322 14135)" fill="#0b78b9" fill-rule="evenodd"/>
    <path id="Path_140897" data-name="Path 140897" d="M457.915,149.382l-.052-.069Z" transform="translate(16322 14135)" fill="#0b78b9" fill-rule="evenodd"/>
    <path id="Path_140898" data-name="Path 140898" d="M430.745,171.146l-.353,1.387a4.756,4.756,0,0,0-1.122.518,3.465,3.465,0,0,0-.747.688c-.147.182-.364.494-.649.94l-.265-.131a2.279,2.279,0,0,1,.15-.8,5.876,5.876,0,0,1,.406-.826,7.166,7.166,0,0,1-.547-.828,1.1,1.1,0,0,1-.133-.511,3.825,3.825,0,0,1,.34-1.177,5.112,5.112,0,0,1,.586-1.146.718.718,0,0,1,.576-.306.872.872,0,0,1,.55.181,2.359,2.359,0,0,1,.519.65l-.592,1.34a2.024,2.024,0,0,0-.389-.468.552.552,0,0,0-.344-.147.346.346,0,0,0-.245.1.329.329,0,0,0-.109.244.617.617,0,0,0,.184.4,3.749,3.749,0,0,0,.62.515,5.22,5.22,0,0,1,.835-.468,3.2,3.2,0,0,1,.729-.159m2.547,2.333h-.619a.778.778,0,0,1-.746-.579,6.356,6.356,0,0,1-.256-2.151V169.03a2.731,2.731,0,0,0-.12-.91,2.134,2.134,0,0,0-.265-.452l.477-1.507a3.692,3.692,0,0,1,.358.951,6.739,6.739,0,0,1,.119,1.4V169.7a8.259,8.259,0,0,0,.124,1.748q.1.395.309.394h.619Zm2.452,0h-2.765v-1.638H435.3a2.4,2.4,0,0,0-.177-.7,4.759,4.759,0,0,0-.309-.543l.353-1.433a3.21,3.21,0,0,1,.453,1.072,8.473,8.473,0,0,1,.121,1.664Zm-.446,1.254-.53,1.352-1.033-.737.534-1.362Zm4.356-1.114a2.312,2.312,0,0,1-.309.972,4.6,4.6,0,0,1-.725,1.053,1.236,1.236,0,0,1-.786.494,1.51,1.51,0,0,1-.835-.3,11.22,11.22,0,0,1-1.215-1.038l.186-.375a3.322,3.322,0,0,0,.64.49,1.114,1.114,0,0,0,.526.127.989.989,0,0,0,.61-.237,5.911,5.911,0,0,0,.83-.874,2.584,2.584,0,0,0,.733-1.374,1.968,1.968,0,0,0-.141-.632,2.7,2.7,0,0,0-.389-.743l.248-1.628a3.293,3.293,0,0,1,.463.971,4.363,4.363,0,0,1,.164,1.248Zm4.085-.14h-.9l-.208,0c-.071,0-.175.013-.313.027.106.084.211.167.318.249a.558.558,0,0,1,.15.4,2.842,2.842,0,0,1-.049.5c-.018.1-.06.278-.128.536a4.267,4.267,0,0,1-.344,1.021.469.469,0,0,1-.407.269q-.613,0-1.058-.884a4.686,4.686,0,0,1-.444-2.125h-1.007v-1.638h.4a2.063,2.063,0,0,0,.486-.062c.185-.057.315-.1.388-.113a17.96,17.96,0,0,1,.866-2.623c.221-.472.424-.705.61-.705.15,0,.279.2.388.6a3.874,3.874,0,0,1,.142,1.027,3.14,3.14,0,0,1-.2,1.192,1.562,1.562,0,0,1-.663.8,4.467,4.467,0,0,1,.587-.1c.177-.014.341-.019.491-.019h.9ZM441.99,174.9a.117.117,0,0,0,.132-.133.925.925,0,0,0-.282-.637,2.084,2.084,0,0,0-.981-.543,1.746,1.746,0,0,0,.406.923.962.962,0,0,0,.725.39m-.053-4.172a1.163,1.163,0,0,0-.084-.385c-.056-.154-.114-.23-.173-.23-.076,0-.165.113-.267.341a9.608,9.608,0,0,0-.369,1.07,3.233,3.233,0,0,0,.7-.413.511.511,0,0,0,.192-.383m5.06,2.755h-3.569v-1.638H446.3a5.178,5.178,0,0,0-.336-.5q-.132-.17-.358-.41c-.167-.177-.334-.352-.5-.531l-.141.219c-.262-.356-.418-.571-.468-.647a1.427,1.427,0,0,1-.221-.79,3.951,3.951,0,0,1,.062-.854,1.262,1.262,0,0,1,.375-.621,4.566,4.566,0,0,1,.548-.442q.23-.154.61-.368l.746-.4v1.433a3.991,3.991,0,0,0-.371.157c-.288.128-.518.243-.689.338-.247.136-.371.24-.371.307a2.2,2.2,0,0,0,.314.472c.285.378.525.722.719,1.037A9.28,9.28,0,0,1,447,171.8Zm2.118,0h-2.43v-1.638h1.9l-.535-4.094-.283-.255a3.347,3.347,0,0,1,.08-.717,7.782,7.782,0,0,1,.344-1.092l.2.146c0,.023-.006.089-.018.192a.552.552,0,0,0,.185.386,2.443,2.443,0,0,0,.522.374,7.576,7.576,0,0,1-.117.755,5.907,5.907,0,0,1-.175.656l-.159-.085.482,3.734Zm2.117,0H448.8v-1.638h1.9l-.534-4.094-.283-.255a3.347,3.347,0,0,1,.08-.717,7.782,7.782,0,0,1,.344-1.092l.2.146c0,.023,0,.089-.017.192a.552.552,0,0,0,.185.386,2.444,2.444,0,0,0,.522.374,7.568,7.568,0,0,1-.117.755,5.907,5.907,0,0,1-.175.656l-.159-.085.482,3.734Zm6.266,0h-.579a.5.5,0,0,1-.291-.091,1.305,1.305,0,0,1-.433-.637,6.327,6.327,0,0,1-.309-1.748,6.886,6.886,0,0,1-.469.715c-.162.207-.3.308-.406.308a.812.812,0,0,1-.212-.036l-.539-.145a3.131,3.131,0,0,1-.424-.137.158.158,0,0,1-.08-.152,5.467,5.467,0,0,1,.307-1.028,6.41,6.41,0,0,1,.444-1.069,2.644,2.644,0,0,1,.394-.422c.111-.106.27-.239.477-.4l.234-.188c-.009-.057-.016-.112-.02-.172s-.007-.112-.007-.166a2.734,2.734,0,0,1,.078-.576,5.992,5.992,0,0,1,.276-.857l.424,3.76a3.9,3.9,0,0,0,.265,1.2.324.324,0,0,0,.291.207h.579Zm-1.021-8.453-.485,1.122-.628-.481-.353.952-.822-.615.46-1.062.653.446.385-.921Zm-.7,5.047-.088-.724-.221.146a2.812,2.812,0,0,0-.389.325,2.262,2.262,0,0,0-.176.224.42.42,0,0,0-.088.2c0,.057.051.1.154.133a1.061,1.061,0,0,0,.3.049.358.358,0,0,0,.2-.077,2.253,2.253,0,0,0,.3-.274m4.175,3.406h-2.766v-1.638h2.324a2.371,2.371,0,0,0-.177-.7,4.762,4.762,0,0,0-.309-.543l.353-1.433a3.209,3.209,0,0,1,.453,1.072,8.46,8.46,0,0,1,.122,1.664Zm-.071,1.063-.46,1.17-.653-.448-.371.977-.8-.614.485-1.231.628.483.353-.954Zm3.167-1.063h-2a.57.57,0,0,1-.446-.169.96.96,0,0,1-.19-.669c0-.175.007-.368.02-.573s.033-.411.06-.621l.167-.012a.482.482,0,0,0,.157.309.466.466,0,0,0,.294.1h1.52a4.567,4.567,0,0,0-.354-1.417,2.263,2.263,0,0,0-.579-.76l.319-1.882a3.284,3.284,0,0,1,.812,1.508,9.278,9.278,0,0,1,.221,2.255Zm4.084-.416a3.777,3.777,0,0,1-.645,2.05q-.645,1.015-1.272,1.014a1.394,1.394,0,0,1-.8-.321,12.188,12.188,0,0,1-1.336-1.258l.185-.351a3.554,3.554,0,0,0,.782.578,1.3,1.3,0,0,0,.57.121,1.37,1.37,0,0,0,.848-.325,4.757,4.757,0,0,0,1.025-1.241,1.864,1.864,0,0,1-.309.035.8.8,0,0,1-.7-.389,1.891,1.891,0,0,1-.259-1.057,5.069,5.069,0,0,1,.3-1.744q.332-.911.756-.911.352,0,.6.659a4.521,4.521,0,0,1,.247,1.585Zm-.53-1.222c-.083-.649-.251-.971-.5-.971a.247.247,0,0,0-.219.146.663.663,0,0,0-.081.324.444.444,0,0,0,.174.358.71.71,0,0,0,.462.143Zm3.788,1.638h-.653a1.016,1.016,0,0,1-.614-.191,1.335,1.335,0,0,1-.429-.621,1.6,1.6,0,0,1-.746.679,1.636,1.636,0,0,1-.663.133h-.464v-1.638h.464a1.815,1.815,0,0,0,.515-.052,1.761,1.761,0,0,0,.4-.233,3,3,0,0,0-.229-.511c-.08-.125-.162-.189-.248-.189a.128.128,0,0,0-.09.046.609.609,0,0,0-.1.172l-.2-.035a3.229,3.229,0,0,1,.277-1.56.942.942,0,0,1,.872-.468,1.354,1.354,0,0,1,.965.331,1.168,1.168,0,0,1,.351.9,1.871,1.871,0,0,1-.093.589,5.418,5.418,0,0,1-.348.761.459.459,0,0,0,.168.181.387.387,0,0,0,.2.068h.653Zm5.5,0a2.962,2.962,0,0,1-.821-.1,2.345,2.345,0,0,1-.645-.308,1.508,1.508,0,0,1-.457.326,1.742,1.742,0,0,1-.6.078h-.72a.572.572,0,0,1-.469-.211,1.973,1.973,0,0,1-.309-.7,1.885,1.885,0,0,1-.543.725,1.018,1.018,0,0,1-.614.185h-.632v-1.638h.632a.987.987,0,0,0,.773-.357,2.109,2.109,0,0,0,.4-1.411l.291.06c-.006.128-.012.276-.017.44s-.009.349-.009.55a.819.819,0,0,0,.154.511.443.443,0,0,0,.354.207h.543a1.147,1.147,0,0,0,.769-.207,1.206,1.206,0,0,0,.278-.921.5.5,0,0,1,.066-.259,1.292,1.292,0,0,1,.164-.2l.168-.182c.005.076.01.181.013.31s0,.216,0,.256a7.238,7.238,0,0,1-.07.881,1.965,1.965,0,0,0,.366.188,2.653,2.653,0,0,0,.429.12,1.715,1.715,0,0,0-.111-.53,1.756,1.756,0,0,1-.11-.442.733.733,0,0,1,.031-.241,1.633,1.633,0,0,1,.1-.187l.376-.693a4.977,4.977,0,0,1,.169.69,4.912,4.912,0,0,1,.051.775Zm2.117,0h-2.43v-1.638h1.9l-.535-4.094-.282-.255a3.343,3.343,0,0,1,.079-.717,7.935,7.935,0,0,1,.345-1.092l.2.146c0,.023-.006.089-.018.192a.55.55,0,0,0,.186.386,2.458,2.458,0,0,0,.521.374,7.294,7.294,0,0,1-.117.755,6.141,6.141,0,0,1-.174.656l-.16-.085.482,3.734ZM479.6,170.4c.029.459.044.9.044,1.32a4.8,4.8,0,0,1-.093.982,9.933,9.933,0,0,1-.357,1.189l-.266-.143a9.6,9.6,0,0,0,.106-1.254c0-.245-.014-.607-.044-1.079s-.066-.946-.11-1.41-.117-1.017-.217-1.661a3.631,3.631,0,0,1-.053-.464,2.584,2.584,0,0,1,.137-.635q.138-.45.385-1.088l.265,2.135q.145,1.215.2,2.108m6.643,3.075h-.579a.5.5,0,0,1-.292-.091,1.318,1.318,0,0,1-.433-.637,6.326,6.326,0,0,1-.309-1.748,6.757,6.757,0,0,1-.468.715c-.162.207-.3.308-.406.308a.813.813,0,0,1-.212-.036l-.539-.145a3.131,3.131,0,0,1-.424-.137.158.158,0,0,1-.08-.152,5.383,5.383,0,0,1,.307-1.028,6.41,6.41,0,0,1,.444-1.069,2.676,2.676,0,0,1,.393-.422c.112-.106.271-.239.477-.4l.234-.188c-.008-.057-.015-.112-.02-.172s-.006-.112-.006-.166a2.791,2.791,0,0,1,.077-.576,6.261,6.261,0,0,1,.276-.857l.424,3.76a3.935,3.935,0,0,0,.265,1.2.325.325,0,0,0,.292.207h.579Zm-1.021-8.453-.486,1.122-.627-.481-.353.952-.822-.615.459-1.062.654.446.384-.921Zm-.7,5.047-.088-.724-.221.146a2.811,2.811,0,0,0-.389.325,2.262,2.262,0,0,0-.176.224.425.425,0,0,0-.089.2c0,.057.052.1.155.133a1.061,1.061,0,0,0,.3.049.361.361,0,0,0,.2-.077,2.253,2.253,0,0,0,.3-.274m4.978,3.406H485.93v-1.638H488.8a5.167,5.167,0,0,0-.336-.5q-.132-.17-.358-.41c-.168-.177-.334-.352-.5-.531l-.141.219c-.262-.356-.418-.571-.468-.647a1.419,1.419,0,0,1-.221-.79,3.953,3.953,0,0,1,.062-.854,1.248,1.248,0,0,1,.375-.621,4.488,4.488,0,0,1,.548-.442q.229-.154.609-.368l.747-.4v1.433a3.867,3.867,0,0,0-.371.157c-.289.128-.519.243-.689.338-.248.136-.371.24-.371.307a2.216,2.216,0,0,0,.313.472c.286.378.526.722.72,1.037a9.354,9.354,0,0,1,.782,1.55Zm3.911.14a2.312,2.312,0,0,1-.309.972,4.6,4.6,0,0,1-.725,1.053,1.236,1.236,0,0,1-.786.494,1.51,1.51,0,0,1-.835-.3,11.22,11.22,0,0,1-1.215-1.038l.186-.375a3.322,3.322,0,0,0,.64.49,1.117,1.117,0,0,0,.526.127.989.989,0,0,0,.61-.237,5.861,5.861,0,0,0,.83-.874,2.584,2.584,0,0,0,.733-1.374,1.968,1.968,0,0,0-.141-.632,2.7,2.7,0,0,0-.389-.743l.248-1.628a3.293,3.293,0,0,1,.463.971,4.363,4.363,0,0,1,.164,1.248Zm5.507-.14a2.967,2.967,0,0,1-.821-.1,2.345,2.345,0,0,1-.645-.308,1.5,1.5,0,0,1-.457.326,1.738,1.738,0,0,1-.6.078h-.72a.572.572,0,0,1-.469-.211,1.992,1.992,0,0,1-.309-.7,1.886,1.886,0,0,1-.543.725,1.018,1.018,0,0,1-.614.185H493.1v-1.638h.632a.987.987,0,0,0,.773-.357,2.109,2.109,0,0,0,.4-1.411l.291.06c-.006.128-.011.276-.017.44s-.009.349-.009.55a.819.819,0,0,0,.154.511.444.444,0,0,0,.354.207h.543a1.147,1.147,0,0,0,.769-.207,1.206,1.206,0,0,0,.278-.921.5.5,0,0,1,.066-.259,1.294,1.294,0,0,1,.164-.2l.168-.182c.005.076.01.181.013.31s0,.216,0,.256a7.238,7.238,0,0,1-.07.881,1.966,1.966,0,0,0,.366.188,2.655,2.655,0,0,0,.429.12,1.715,1.715,0,0,0-.111-.53,1.757,1.757,0,0,1-.11-.442.734.734,0,0,1,.031-.241,1.636,1.636,0,0,1,.1-.187l.375-.693a4.172,4.172,0,0,1,.221,1.465ZM498.4,167.7l-.486,1.23-.627-.482-.354.952-.821-.614.459-1.17.654.446.371-.975Zm-.857-1.429-.442,1.254-.83-.6.45-1.232Zm3.486,7.211h-2.429v-1.638h1.9l-.534-4.094-.283-.255a3.345,3.345,0,0,1,.079-.717,7.943,7.943,0,0,1,.345-1.092l.2.146c0,.023-.006.089-.017.192a.548.548,0,0,0,.185.386,2.46,2.46,0,0,0,.521.374,7.032,7.032,0,0,1-.117.755,5.7,5.7,0,0,1-.174.656l-.159-.085.481,3.734Zm1.587-3.075c.029.459.044.9.044,1.32a4.8,4.8,0,0,1-.093.982,9.748,9.748,0,0,1-.357,1.189l-.265-.143a9.787,9.787,0,0,0,.106-1.254c0-.245-.015-.607-.045-1.079s-.066-.946-.11-1.41-.116-1.017-.217-1.661a3.63,3.63,0,0,1-.053-.464,2.583,2.583,0,0,1,.137-.635q.138-.45.385-1.088l.265,2.135q.146,1.215.2,2.108" transform="translate(16322 14135)" fill="#293677"/>
    <text id="Saudi_Electricity_Company" data-name="Saudi Electricity Company" transform="translate(16748.928 14322.645)" fill="#293677" font-size="6.014" font-family="Arial-BoldMT, Arial" font-weight="700"><tspan x="0" y="0">Saudi Electricity Company</tspan></text>
  </g>
</svg>
