<svg xmlns="http://www.w3.org/2000/svg" width="55.078" height="64.248" viewBox="0 0 55.078 64.248">
  <g id="Client_23" transform="translate(-17747.316 -14379.689)">
    <path id="Path_145761" data-name="Path 145761" d="M1443.766,263.69c-.1-.377-.181-.763-.288-1.131a7.829,7.829,0,0,0-1.482-2.946,5.15,5.15,0,0,0-3.269-1.824,6.391,6.391,0,0,0-4.084.641,6.7,6.7,0,0,0-3.367,4.447,10.4,10.4,0,0,0,.255,6.331,7.068,7.068,0,0,0,5.187,4.684,8.171,8.171,0,0,0,5.566-.514,7.635,7.635,0,0,0,3.746-3.915,12.713,12.713,0,0,0,.988-4.026c.107-1,.091-2.013.1-3.016.016-1.7-.049-3.417.033-5.122a4.276,4.276,0,0,1,1.762-3.5,5.045,5.045,0,0,1,3.178-.838c.107,0,.148.043.148.153s0,.206,0,.309c0,3.965-.008,7.941-.017,11.908,0,.171.058.214.206.214,2.627-.008,5.253.016,7.88-.008a5.3,5.3,0,0,0,5.006-4.746c.115-.994.024-2,.049-3a6.586,6.586,0,0,1,.247-1.791,4.029,4.029,0,0,1,3.087-2.878,6.254,6.254,0,0,1,1.507-.163c.214,0,.28.059.28.292-.008,2.183-.008,4.359-.008,6.544a13.353,13.353,0,0,1-.165,2.14,10.874,10.874,0,0,1-1.572,4.112,10.281,10.281,0,0,1-5.228,4.215,9.071,9.071,0,0,1-3.063.582c-2.964.009-5.936.009-8.9,0a.424.424,0,0,0-.46.327,12.246,12.246,0,0,1-8.02,7.426,14.407,14.407,0,0,1-5.294.591,12.623,12.623,0,0,1-7.607-3.007,13.1,13.1,0,0,1-3.985-6.269,15.426,15.426,0,0,1-.626-4.987,13.642,13.642,0,0,1,1.935-6.793,10.755,10.755,0,0,1,7.08-5.044,11.175,11.175,0,0,1,3.335-.233,8.232,8.232,0,0,1,4.948,1.919,6.186,6.186,0,0,1,2.165,5.482,7.742,7.742,0,0,1-1.136,3.283c-.024.042-.049.076-.074.12,0,.008-.016.015-.041.033" transform="translate(16322 14135)" fill="#9dc554"/>
    <path id="Path_145762" data-name="Path 145762" d="M1480.388,258.91c0,1.7.016,3.418,0,5.123a16.2,16.2,0,0,1-3.532,10.107,15.207,15.207,0,0,1-7.591,5.2c-.165.05-.239.007-.321-.147a5.085,5.085,0,0,1,1.449-6.125,12.891,12.891,0,0,0,2.157-1.868,10.778,10.778,0,0,0,2.684-6.234c.033-.4.041-.788.041-1.184v-5.953a5.521,5.521,0,0,1,.552-2.622,4.156,4.156,0,0,1,3.013-2.157,7.516,7.516,0,0,1,1.309-.113c.189,0,.239.06.239.257Z" transform="translate(16322 14135)" fill="#9dc554"/>
    <path id="Path_145763" data-name="Path 145763" d="M1468.047,303.249v5.363c0,.189-.05.275-.239.265a2.75,2.75,0,0,1-2.108-.934,3.025,3.025,0,0,1-.609-1.977c-.008-2.544,0-5.09,0-7.634,0-.735-.008-1.48,0-2.219a3.543,3.543,0,0,1,.3-1.422,2,2,0,0,1,1.605-1.233,2.491,2.491,0,0,1,2.2.693,13.654,13.654,0,0,1,1.465,1.834c1.787,2.415,3.557,4.831,5.344,7.247q.432.591.864,1.182c.074.1.131.291.264.249s.074-.23.074-.359c.008-3.495,0-6.991,0-10.487,0-.411,0-.4.386-.383a2.609,2.609,0,0,1,1.738.692,2.814,2.814,0,0,1,.815,2.125c.008,2.973.008,5.936,0,8.908a12.157,12.157,0,0,1-.033,1.441,2.327,2.327,0,0,1-1.31,2.054,2.357,2.357,0,0,1-2.51-.315,6.561,6.561,0,0,1-1.26-1.414q-3.372-4.575-6.735-9.141a1.014,1.014,0,0,0-.115-.145c-.074-.07-.132-.035-.149.05a.751.751,0,0,0-.007.189c.024,1.79.024,3.581.024,5.371" transform="translate(16322 14135)" fill="#9dc554"/>
    <path id="Path_145764" data-name="Path 145764" d="M1451.448,302.469a4.471,4.471,0,0,1,.741,2.064,3.848,3.848,0,0,1-3.038,4.156,6.41,6.41,0,0,1-6.653-1.928,7.2,7.2,0,0,1-1.786-3.948,8.91,8.91,0,0,1,.428-4.482,7.3,7.3,0,0,1,5.532-4.865,8.161,8.161,0,0,1,5.64.7,7.418,7.418,0,0,1,3.878,5.157,11.09,11.09,0,0,1,.28,2.665V308.6c0,.144.009.291-.2.281a3.131,3.131,0,0,1-1.819-.548,2.438,2.438,0,0,1-.98-1.868c-.09-1.225-.033-2.458-.033-3.683a10.709,10.709,0,0,0-.288-2.665,4.76,4.76,0,0,0-7.6-2.86,4.4,4.4,0,0,0-1.631,2.9,5.861,5.861,0,0,0,.519,3.846,3.6,3.6,0,0,0,6.76-.607c.082-.3.156-.591.247-.935" transform="translate(16322 14135)" fill="#9dc554"/>
    <path id="Path_145765" data-name="Path 145765" d="M1433.747,308.637c-1.754,0-3.507.009-5.27,0a4.917,4.917,0,0,1-1.761-.257,2.207,2.207,0,0,1-1.063-3.256,6.276,6.276,0,0,1,1.384-1.515q2.877-2.427,5.771-4.849c.815-.686,1.639-1.37,2.454-2.056.082-.068.238-.129.189-.256s-.2-.079-.305-.079h-6.693a3.748,3.748,0,0,1-1.4-.248,2.064,2.064,0,0,1-1.325-1.91c-.05-.617-.05-.617.543-.617h9.987a5.459,5.459,0,0,1,1.482.189,2.235,2.235,0,0,1,1.07,3.6,12.4,12.4,0,0,1-1.951,1.868c-1.713,1.449-3.433,2.887-5.154,4.335-.749.625-1.5,1.25-2.239,1.875-.1.086-.28.156-.231.319s.239.093.362.093c2.3.008,4.6,0,6.9.008a4.729,4.729,0,0,1,1.21.147,2.29,2.29,0,0,1,1.721,2.466c0,.121-.049.155-.149.155h-.411c-1.7-.009-3.417-.009-5.121-.009" transform="translate(16322 14135)" fill="#9dc554"/>
    <path id="Path_145766" data-name="Path 145766" d="M1459.22,299.985v-6.33c0-.309,0-.316.3-.3a2.737,2.737,0,0,1,2.24,1.088,2.686,2.686,0,0,1,.461,1.413c.025.3.016.6.016.9v11.761c0,.343,0,.343-.329.334a2.616,2.616,0,0,1-2.116-.951,2.552,2.552,0,0,1-.56-1.542c-.024-.719-.016-1.446-.016-2.176Z" transform="translate(16322 14135)" fill="#9dc554"/>
    <path id="Path_145767" data-name="Path 145767" d="M1441.93,265.206a3.044,3.044,0,1,1-3.022-3.169,3.084,3.084,0,0,1,3.022,3.169" transform="translate(16322 14135)" fill="#9dc554"/>
    <path id="Path_145768" data-name="Path 145768" d="M1460.052,276.2a3.045,3.045,0,1,1,3.112,3.161,3.07,3.07,0,0,1-3.112-3.161" transform="translate(16322 14135)" fill="#9dc554"/>
    <path id="Path_145769" data-name="Path 145769" d="M1477.334,251.02a3.168,3.168,0,0,1,.016-6.331,3.168,3.168,0,0,1-.016,6.331" transform="translate(16322 14135)" fill="#9dc554"/>
    <path id="Path_145770" data-name="Path 145770" d="M1455.952,279.366a3.164,3.164,0,0,1-.017-6.321,3.162,3.162,0,0,1,.017,6.321" transform="translate(16322 14135)" fill="#9dc554"/>
    <path id="Path_145771" data-name="Path 145771" d="M1460.653,288.463a1.822,1.822,0,0,1,1.877,1.766,1.864,1.864,0,0,1-1.671,1.962,1.868,1.868,0,0,1-.206-3.728" transform="translate(16322 14135)" fill="#9dc554"/>
  </g>
</svg>
