<svg xmlns="http://www.w3.org/2000/svg" width="79.398" height="61.506" viewBox="0 0 79.398 61.506">
  <g id="Client_89" transform="translate(-17986.789 -14810.717)">
    <path id="Path_144480" data-name="Path 144480" d="M1672.079,736.235a.431.431,0,0,1,.161.03.479.479,0,0,1,.13.09.4.4,0,0,1,.118.291.442.442,0,0,1-.029.164.466.466,0,0,1-.089.134.456.456,0,0,1-.13.089.412.412,0,0,1-.161.03.42.42,0,0,1-.162-.03.451.451,0,0,1-.132-.089.427.427,0,0,1-.088-.134.406.406,0,0,1-.03-.164.378.378,0,0,1,.03-.158.382.382,0,0,1,.088-.133.473.473,0,0,1,.132-.09.439.439,0,0,1,.162-.03" transform="translate(16322 14135)" fill="#b79776"/>
    <path id="Path_144481" data-name="Path 144481" d="M1675.023,736.789a1.306,1.306,0,0,0,.374-.054.968.968,0,0,0,.328-.158.817.817,0,0,0,.23-.262.667.667,0,0,0,.089-.35.785.785,0,0,0-.121-.434,1.451,1.451,0,0,0-.314-.346,2.8,2.8,0,0,0-.449-.3c-.165-.092-.338-.185-.51-.278s-.347-.193-.512-.3a2.5,2.5,0,0,1-.447-.337,1.683,1.683,0,0,1-.316-.422,1.146,1.146,0,0,1-.121-.538,1.4,1.4,0,0,1,.112-.563,1.18,1.18,0,0,1,.32-.449,1.488,1.488,0,0,1,.519-.3,2.128,2.128,0,0,1,.708-.108,1.852,1.852,0,0,1,1.14.313,1.762,1.762,0,0,1,.6.911l-.437.209a1.953,1.953,0,0,0-.2-.443,1.358,1.358,0,0,0-.285-.346,1.191,1.191,0,0,0-.378-.223,1.428,1.428,0,0,0-.486-.078,1.161,1.161,0,0,0-.422.073.942.942,0,0,0-.3.179.784.784,0,0,0-.177.257.718.718,0,0,0-.06.287.635.635,0,0,0,.124.384,1.583,1.583,0,0,0,.324.326,3.4,3.4,0,0,0,.459.3c.173.1.348.19.527.29s.354.2.526.309a2.536,2.536,0,0,1,.46.346,1.677,1.677,0,0,1,.323.414,1.011,1.011,0,0,1,.126.5,1.531,1.531,0,0,1-.114.589,1.287,1.287,0,0,1-.346.484,1.709,1.709,0,0,1-.57.328,2.533,2.533,0,0,1-.8.116,2.326,2.326,0,0,1-.65-.081,1.688,1.688,0,0,1-.509-.243,1.486,1.486,0,0,1-.377-.393,2.189,2.189,0,0,1-.26-.521l.458-.2a1.838,1.838,0,0,0,.217.462,1.439,1.439,0,0,0,.314.347,1.318,1.318,0,0,0,.4.219,1.432,1.432,0,0,0,.468.072" transform="translate(16322 14135)" fill="#b79776"/>
    <rect id="Rectangle_17590" data-name="Rectangle 17590" width="0.853" height="5.283" transform="translate(17999.746 14866.718)" fill="#b79776"/>
    <path id="Path_144482" data-name="Path 144482" d="M1679.875,731.72h1.758a2.884,2.884,0,0,1,.8.1,1.684,1.684,0,0,1,.575.286,1.183,1.183,0,0,1,.344.437,1.281,1.281,0,0,1,.119.552,1.142,1.142,0,0,1-.09.461,1.294,1.294,0,0,1-.254.386,1.524,1.524,0,0,1-.394.3,1.953,1.953,0,0,1-.505.2l1.848,2.565h-.989l-1.766-2.485h-.595V737h-.854Zm.854,2.53h.491a1.662,1.662,0,0,0,.531-.078,1.315,1.315,0,0,0,.42-.227,1.013,1.013,0,0,0,.28-.352,1.059,1.059,0,0,0,.1-.468,1.183,1.183,0,0,0-.08-.436,1.025,1.025,0,0,0-.223-.339,1.079,1.079,0,0,0-.34-.223,1.121,1.121,0,0,0-.429-.078h-.75Z" transform="translate(16322 14135)" fill="#b79776"/>
    <path id="Path_144483" data-name="Path 144483" d="M1686.754,731.6l2.393,5.4h-.87l-.774-1.764h-2.178l-.8,1.764h-.424l2.446-5.4Zm-1.279,3.3h1.869l-.922-2.09Z" transform="translate(16322 14135)" fill="#b79776"/>
    <path id="Path_144484" data-name="Path 144484" d="M1692.091,735.487a3.261,3.261,0,0,1-.051.57,1.261,1.261,0,0,1-.2.505,1.145,1.145,0,0,1-.44.358,1.785,1.785,0,0,1-.75.134,1.986,1.986,0,0,1-.474-.049,2.081,2.081,0,0,1-.386-.133,1.774,1.774,0,0,1-.312-.188c-.094-.07-.178-.137-.257-.206l.268-.375c.055.045.124.107.2.176a2.594,2.594,0,0,0,.258.208,2.212,2.212,0,0,0,.291.169.756.756,0,0,0,.3.067.63.63,0,0,0,.7-.677v-4.328h.852Z" transform="translate(16322 14135)" fill="#b79776"/>
    <path id="Path_144485" data-name="Path 144485" d="M1697.235,731.6l2.393,5.4h-.869l-.777-1.764h-2.176L1695,737h-.425l2.446-5.4Zm-1.278,3.3h1.869l-.922-2.09Z" transform="translate(16322 14135)" fill="#b79776"/>
    <path id="Path_144486" data-name="Path 144486" d="M1703.792,731.718v.342h-1.839V737h-.853V732.06h-1.841v-.342Z" transform="translate(16322 14135)" fill="#b79776"/>
    <path id="Path_144487" data-name="Path 144487" d="M1708.613,731.718v.342h-1.836V737h-.854V732.06h-1.841v-.342Z" transform="translate(16322 14135)" fill="#b79776"/>
    <path id="Path_144488" data-name="Path 144488" d="M1710.9,731.6l2.392,5.4h-.869l-.778-1.764h-2.177l-.8,1.764h-.425l2.444-5.4Zm-1.28,3.3h1.87l-.922-2.09Z" transform="translate(16322 14135)" fill="#b79776"/>
    <path id="Path_144489" data-name="Path 144489" d="M1713.952,731.72h1.756a2.869,2.869,0,0,1,.8.1,1.722,1.722,0,0,1,.577.286,1.215,1.215,0,0,1,.344.437,1.3,1.3,0,0,1,.118.552,1.127,1.127,0,0,1-.091.461,1.232,1.232,0,0,1-.252.386,1.5,1.5,0,0,1-.4.3,1.946,1.946,0,0,1-.506.2l1.849,2.565h-.988l-1.765-2.485h-.6V737h-.853Zm.853,2.53h.492a1.659,1.659,0,0,0,.529-.078,1.318,1.318,0,0,0,.421-.227.967.967,0,0,0,.28-.352,1.073,1.073,0,0,0,.1-.468,1.226,1.226,0,0,0-.078-.436,1.13,1.13,0,0,0-.224-.339,1.078,1.078,0,0,0-.34-.223,1.135,1.135,0,0,0-.429-.078h-.751Z" transform="translate(16322 14135)" fill="#b79776"/>
    <path id="Path_144490" data-name="Path 144490" d="M1723.839,734.438a3.536,3.536,0,0,1-.107.475,2.905,2.905,0,0,1-.152.394,2.741,2.741,0,0,1-.2.361c-.076.118-.164.24-.262.371a3.754,3.754,0,0,0,.522.457.823.823,0,0,0,.452.168.935.935,0,0,0,.458-.11.751.751,0,0,0,.309-.386l.133.051a1.463,1.463,0,0,1-.154.429,1.077,1.077,0,0,1-.26.316,1.053,1.053,0,0,1-.349.194,1.3,1.3,0,0,1-.425.065,1.216,1.216,0,0,1-.606-.176,2.989,2.989,0,0,1-.61-.463,3.325,3.325,0,0,1-.364.259,2.615,2.615,0,0,1-.4.2,2.287,2.287,0,0,1-.434.131,2.235,2.235,0,0,1-.461.047,1.717,1.717,0,0,1-.571-.081.959.959,0,0,1-.387-.221.825.825,0,0,1-.222-.339,1.274,1.274,0,0,1-.069-.434,1.444,1.444,0,0,1,.123-.607,1.724,1.724,0,0,1,.323-.466,2.44,2.44,0,0,1,.461-.372c.174-.111.352-.209.534-.3a5.02,5.02,0,0,1-.237-.605,1.563,1.563,0,0,1-.088-.464,1.475,1.475,0,0,1,.078-.476,1.194,1.194,0,0,1,.231-.411,1.107,1.107,0,0,1,.388-.288,1.241,1.241,0,0,1,.541-.111,1.354,1.354,0,0,1,.433.071,1.022,1.022,0,0,1,.352.2.955.955,0,0,1,.239.324,1.075,1.075,0,0,1,.087.435.794.794,0,0,1-.111.425,1.316,1.316,0,0,1-.291.331,2.518,2.518,0,0,1-.407.263c-.153.08-.307.157-.46.235a5.551,5.551,0,0,0,.449.732,8.582,8.582,0,0,0,.57.712,4.458,4.458,0,0,0,.311-.4,4.218,4.218,0,0,0,.222-.368,2.742,2.742,0,0,0,.149-.333,2.237,2.237,0,0,0,.083-.288Zm-2.6.211a2.53,2.53,0,0,0-.336.239,1.813,1.813,0,0,0-.264.28,1.338,1.338,0,0,0-.174.314.947.947,0,0,0-.063.339,1.175,1.175,0,0,0,.061.379.857.857,0,0,0,.18.3.786.786,0,0,0,.283.2.917.917,0,0,0,.378.075,1.177,1.177,0,0,0,.538-.131,2.761,2.761,0,0,0,.489-.32,4.868,4.868,0,0,1-.312-.385c-.1-.138-.194-.279-.285-.422s-.175-.291-.259-.437-.163-.294-.236-.437m.517-.547a3.574,3.574,0,0,0,.347-.206,1.472,1.472,0,0,0,.28-.231.966.966,0,0,0,.186-.278.8.8,0,0,0,.069-.333,1.065,1.065,0,0,0-.045-.322.738.738,0,0,0-.121-.239.541.541,0,0,0-.181-.151.479.479,0,0,0-.219-.051.427.427,0,0,0-.242.073.665.665,0,0,0-.192.183.9.9,0,0,0-.129.253.943.943,0,0,0-.046.277,1.747,1.747,0,0,0,.08.494,2.864,2.864,0,0,0,.213.531" transform="translate(16322 14135)" fill="#b79776"/>
    <path id="Path_144491" data-name="Path 144491" d="M1726.365,732.16h1.915a2.586,2.586,0,0,1,.7.088,1.718,1.718,0,0,1,.544.25,1.143,1.143,0,0,1,.353.384.971.971,0,0,1,.128.492,1.447,1.447,0,0,1-.042.362.836.836,0,0,1-.14.3,1.2,1.2,0,0,1-.265.261,2.977,2.977,0,0,1-.421.245v.016a1.655,1.655,0,0,1,.459.141,1.233,1.233,0,0,1,.352.258,1.158,1.158,0,0,1,.223.36,1.267,1.267,0,0,1,.078.453,1.175,1.175,0,0,1-.118.527,1.267,1.267,0,0,1-.334.427,1.634,1.634,0,0,1-.524.285,2.227,2.227,0,0,1-.686.1h-2.218Zm.8,2.227h1.018a1.177,1.177,0,0,0,.425-.072.886.886,0,0,0,.317-.2.823.823,0,0,0,.193-.3.985.985,0,0,0,.067-.372.967.967,0,0,0-.078-.393.762.762,0,0,0-.246-.3,1.206,1.206,0,0,0-.424-.2,2.516,2.516,0,0,0-.613-.067h-.659Zm0,2.357h.864a2.3,2.3,0,0,0,.6-.068,1.214,1.214,0,0,0,.422-.2.733.733,0,0,0,.248-.3.914.914,0,0,0,.081-.385,1.339,1.339,0,0,0-.071-.437.831.831,0,0,0-.237-.349,1.178,1.178,0,0,0-.427-.235,2.2,2.2,0,0,0-.645-.086h-.839Z" transform="translate(16322 14135)" fill="#b79776"/>
    <path id="Path_144492" data-name="Path 144492" d="M1731.014,732.16h1.644a2.577,2.577,0,0,1,.753.1,1.507,1.507,0,0,1,.537.265,1.11,1.11,0,0,1,.324.408,1.228,1.228,0,0,1,.11.518,1.131,1.131,0,0,1-.083.433,1.168,1.168,0,0,1-.237.359,1.494,1.494,0,0,1-.368.281,2.005,2.005,0,0,1-.476.186l1.731,2.4h-.925l-1.652-2.326h-.559v2.326h-.8Zm.8,2.373h.461a1.573,1.573,0,0,0,.5-.075,1.218,1.218,0,0,0,.4-.212.976.976,0,0,0,.26-.331,1,1,0,0,0,.094-.438,1.059,1.059,0,0,0-.076-.406.93.93,0,0,0-.207-.319.967.967,0,0,0-.318-.208,1.015,1.015,0,0,0-.4-.074h-.7Z" transform="translate(16322 14135)" fill="#b79776"/>
    <path id="Path_144493" data-name="Path 144493" d="M1737.758,737.223a2.54,2.54,0,0,1-.707-.1,2.582,2.582,0,0,1-.627-.263,2.653,2.653,0,0,1-.937-.942,2.655,2.655,0,0,1-.257-.625,2.568,2.568,0,0,1-.094-.695,2.472,2.472,0,0,1,.094-.681,2.593,2.593,0,0,1,.257-.612,2.59,2.59,0,0,1,.937-.915,2.743,2.743,0,0,1,.627-.26,2.817,2.817,0,0,1,1.413,0,2.738,2.738,0,0,1,.629.26,2.6,2.6,0,0,1,.529.4,2.511,2.511,0,0,1,.406.517,2.6,2.6,0,0,1,.26.612,2.548,2.548,0,0,1,.092.681,2.656,2.656,0,0,1-.092.694,2.687,2.687,0,0,1-.26.626,2.465,2.465,0,0,1-.406.531,2.562,2.562,0,0,1-1.158.674,2.523,2.523,0,0,1-.706.1m0-.249a1.419,1.419,0,0,0,.72-.178,1.52,1.52,0,0,0,.527-.493,2.331,2.331,0,0,0,.325-.75,3.834,3.834,0,0,0,.111-.95,3.7,3.7,0,0,0-.111-.934,2.232,2.232,0,0,0-.325-.729,1.548,1.548,0,0,0-.527-.48,1.5,1.5,0,0,0-.72-.169,1.446,1.446,0,0,0-1.259.649,2.205,2.205,0,0,0-.319.729,3.8,3.8,0,0,0-.108.934,3.939,3.939,0,0,0,.108.95,2.3,2.3,0,0,0,.319.75,1.511,1.511,0,0,0,.527.493,1.454,1.454,0,0,0,.732.178" transform="translate(16322 14135)" fill="#b79776"/>
    <path id="Path_144494" data-name="Path 144494" d="M1742.538,736.908a1.273,1.273,0,0,0,.351-.05.956.956,0,0,0,.306-.149.773.773,0,0,0,.217-.243.663.663,0,0,0,.081-.331.738.738,0,0,0-.111-.406,1.455,1.455,0,0,0-.295-.323,2.689,2.689,0,0,0-.418-.278c-.158-.086-.318-.175-.481-.263s-.323-.178-.478-.273a2.467,2.467,0,0,1-.419-.322,1.451,1.451,0,0,1-.294-.393,1.063,1.063,0,0,1-.114-.5,1.345,1.345,0,0,1,.1-.529,1.161,1.161,0,0,1,.3-.417,1.377,1.377,0,0,1,.485-.283,2.071,2.071,0,0,1,.664-.1,1.735,1.735,0,0,1,1.067.294,1.666,1.666,0,0,1,.566.852l-.412.2a1.994,1.994,0,0,0-.182-.417,1.253,1.253,0,0,0-.266-.322,1.1,1.1,0,0,0-.356-.208,1.323,1.323,0,0,0-.454-.072,1.105,1.105,0,0,0-.4.065.844.844,0,0,0-.28.171.7.7,0,0,0-.167.239.668.668,0,0,0-.057.269.593.593,0,0,0,.118.358,1.462,1.462,0,0,0,.3.308,3.213,3.213,0,0,0,.429.278c.162.089.326.179.494.273s.332.187.493.285a2.886,2.886,0,0,1,.43.327,1.6,1.6,0,0,1,.3.393.945.945,0,0,1,.116.468,1.427,1.427,0,0,1-.107.551,1.24,1.24,0,0,1-.323.451,1.573,1.573,0,0,1-.535.307,2.28,2.28,0,0,1-.741.11,2.245,2.245,0,0,1-.612-.077,1.531,1.531,0,0,1-.476-.226,1.5,1.5,0,0,1-.354-.366,2.224,2.224,0,0,1-.242-.491l.431-.183a1.665,1.665,0,0,0,.2.43,1.414,1.414,0,0,0,.3.327,1.285,1.285,0,0,0,.375.2,1.388,1.388,0,0,0,.439.068" transform="translate(16322 14135)" fill="#b79776"/>
    <path id="Path_144495" data-name="Path 144495" d="M1668.745,725.541c.129,0,.193.053.193.155v.339c0,.14-.064.207-.193.207h-2.129a2.169,2.169,0,0,1-.849-.148,1.6,1.6,0,0,1-.567-.387,1.431,1.431,0,0,1-.313-.54,1.958,1.958,0,0,1-.1-.608,2.258,2.258,0,0,1,.131-.769,2.094,2.094,0,0,1,.359-.636,1.688,1.688,0,0,1,.546-.428,1.5,1.5,0,0,1,.689-.16,1.611,1.611,0,0,1,.642.123,1.407,1.407,0,0,1,.486.343,1.547,1.547,0,0,1,.309.533,2.049,2.049,0,0,1,.109.682v1.294Zm-1.358,0v-1.013a1.619,1.619,0,0,0-.24-.947.8.8,0,0,0-.7-.339.937.937,0,0,0-.37.078.991.991,0,0,0-.321.236,1.141,1.141,0,0,0-.228.364,1.287,1.287,0,0,0-.084.475,1.337,1.337,0,0,0,.093.53.946.946,0,0,0,.252.356,1.021,1.021,0,0,0,.363.2,1.47,1.47,0,0,0,.43.062Z" transform="translate(16322 14135)" fill="#004738"/>
    <path id="Path_144496" data-name="Path 144496" d="M1668.618,726.242c-.129,0-.194-.052-.194-.154v-.339c0-.139.065-.207.194-.207h1.266v-2.634h.674v3.334Zm.262,1.413a.4.4,0,0,1,.114-.285.377.377,0,0,1,.548,0,.416.416,0,0,1,0,.57.377.377,0,0,1-.548,0,.4.4,0,0,1-.114-.285m1.121,0a.4.4,0,0,1,.114-.285.377.377,0,0,1,.548,0,.411.411,0,0,1,0,.57.377.377,0,0,1-.548,0,.4.4,0,0,1-.114-.285" transform="translate(16322 14135)" fill="#004738"/>
    <path id="Path_144497" data-name="Path 144497" d="M1675.946,725.541c.13,0,.194.053.194.155v.339c0,.14-.064.207-.194.207h-.928a2.546,2.546,0,0,1-.168.932,1.675,1.675,0,0,1-.443.631,1.719,1.719,0,0,1-.67.354,3.133,3.133,0,0,1-.852.111c-.118,0-.239,0-.363-.009a3.21,3.21,0,0,1-.379-.044c.011-.122.021-.238.03-.343s.018-.213.029-.323c.129.011.256.02.379.029s.242.015.355.015a2.647,2.647,0,0,0,.544-.055,1.087,1.087,0,0,0,.451-.2,1.068,1.068,0,0,0,.312-.412,1.791,1.791,0,0,0,.126-.686h-.784a2.162,2.162,0,0,1-.847-.148,1.59,1.59,0,0,1-.565-.387,1.431,1.431,0,0,1-.313-.54,1.988,1.988,0,0,1-.1-.608,2.332,2.332,0,0,1,.127-.769,2.04,2.04,0,0,1,.354-.636,1.692,1.692,0,0,1,.544-.428,1.5,1.5,0,0,1,.687-.16,1.637,1.637,0,0,1,.65.123,1.413,1.413,0,0,1,.485.343,1.536,1.536,0,0,1,.3.533,2.127,2.127,0,0,1,.1.682v1.294Zm-1.585,0v-1.013a1.561,1.561,0,0,0-.253-.947.807.807,0,0,0-.683-.339,1.009,1.009,0,0,0-.38.078.933.933,0,0,0-.324.236,1.171,1.171,0,0,0-.224.364,1.29,1.29,0,0,0-.084.475,1.354,1.354,0,0,0,.093.53.945.945,0,0,0,.252.356,1.019,1.019,0,0,0,.363.2,1.472,1.472,0,0,0,.431.062Z" transform="translate(16322 14135)" fill="#004738"/>
    <path id="Path_144498" data-name="Path 144498" d="M1678.805,725.542a2.051,2.051,0,0,1-.371-.619,2.878,2.878,0,0,1-.169-.632q-.126-1.025-.919-1.023a2.153,2.153,0,0,0-.4.048,2.32,2.32,0,0,0-.472.153c-.029-.129-.058-.242-.089-.341s-.06-.208-.089-.325c.152-.047.342-.1.57-.163a2.655,2.655,0,0,1,.679-.092,1.4,1.4,0,0,1,.59.116,1.126,1.126,0,0,1,.421.319,1.577,1.577,0,0,1,.266.491,2.853,2.853,0,0,1,.131.627c.016.129.035.257.054.388a2.2,2.2,0,0,0,.094.376,1.47,1.47,0,0,0,.172.346,1.05,1.05,0,0,0,.3.287v.746h-3.735c-.13,0-.194-.054-.194-.158v-.337c0-.139.064-.207.194-.207Zm-1.636-4.31a.4.4,0,0,1,.114-.284.377.377,0,0,1,.548,0,.412.412,0,0,1,0,.569.375.375,0,0,1-.548,0,.4.4,0,0,1-.114-.285" transform="translate(16322 14135)" fill="#004738"/>
    <rect id="Rectangle_17591" data-name="Rectangle 17591" width="0.649" height="6.29" transform="translate(18002.66 14854.953)" fill="#004738"/>
    <path id="Path_144499" data-name="Path 144499" d="M1684.361,726.243a2.152,2.152,0,0,1-.848-.15,1.593,1.593,0,0,1-.564-.385,1.443,1.443,0,0,1-.312-.539,1.993,1.993,0,0,1-.1-.612,2.322,2.322,0,0,1,.126-.766,2.045,2.045,0,0,1,.354-.637,1.747,1.747,0,0,1,.54-.431,1.522,1.522,0,0,1,.691-.157,1.627,1.627,0,0,1,.641.122,1.425,1.425,0,0,1,.489.344,1.441,1.441,0,0,1,.308.53,2.115,2.115,0,0,1,.1.68v2.044a2.385,2.385,0,0,1-.156.912,1.545,1.545,0,0,1-.442.615,1.829,1.829,0,0,1-.679.346,3.173,3.173,0,0,1-.856.11c-.113,0-.231,0-.354-.009a3.761,3.761,0,0,1-.4-.042l.068-.667.376.03c.12.01.237.013.349.013a2.789,2.789,0,0,0,.544-.052,1.127,1.127,0,0,0,.455-.2,1.045,1.045,0,0,0,.317-.413,1.78,1.78,0,0,0,.126-.684Zm.776-.712v-1.008a1.565,1.565,0,0,0-.249-.944.806.806,0,0,0-.687-.337.943.943,0,0,0-.376.078,1.028,1.028,0,0,0-.324.233,1.132,1.132,0,0,0-.227.366,1.239,1.239,0,0,0-.085.471,1.355,1.355,0,0,0,.093.528.924.924,0,0,0,.253.354.97.97,0,0,0,.366.2,1.553,1.553,0,0,0,.435.061Z" transform="translate(16322 14135)" fill="#004738"/>
    <path id="Path_144500" data-name="Path 144500" d="M1690.694,726.277a2.471,2.471,0,0,1-.1.706,1.686,1.686,0,0,1-.291.575,1.387,1.387,0,0,1-1.121.528,3.055,3.055,0,0,1-.359-.019c-.11-.012-.2-.022-.257-.035.011-.122.025-.24.042-.356s.031-.226.042-.337l.2.036a1.19,1.19,0,0,0,.172.02c.059,0,.114.005.165.005a.7.7,0,0,0,.661-.3,1.851,1.851,0,0,0,.173-.9v-3.291h.675Z" transform="translate(16322 14135)" fill="#004738"/>
    <path id="Path_144501" data-name="Path 144501" d="M1692.043,719.952h.675v5.588h.657c.129,0,.194.054.194.156v.338c0,.14-.065.208-.194.208h-1.332Z" transform="translate(16322 14135)" fill="#004738"/>
    <path id="Path_144502" data-name="Path 144502" d="M1693.249,726.242c-.13,0-.194-.053-.194-.155v-.339c0-.138.064-.207.194-.207h1.264v-5.589h.65v4.23a4.29,4.29,0,0,1,.5-.817,2.64,2.64,0,0,1,.548-.523,1.959,1.959,0,0,1,.578-.28,2.229,2.229,0,0,1,.59-.084,1.793,1.793,0,0,1,.809.177,1.751,1.751,0,0,1,.6.487,2.237,2.237,0,0,1,.375.722,2.958,2.958,0,0,1,.131.892.707.707,0,0,0,.24.6,1.24,1.24,0,0,0,.747.182h.075c.129,0,.194.053.194.155v.339c0,.14-.065.207-.194.207h-.093a1.537,1.537,0,0,1-.67-.134.84.84,0,0,1-.417-.533,1.216,1.216,0,0,1-.443.5,1.1,1.1,0,0,1-.594.169Zm4.9-.7c.2,0,.331-.056.388-.168a1.28,1.28,0,0,0,.084-.537,1.882,1.882,0,0,0-.358-1.2,1.193,1.193,0,0,0-1-.458,1.632,1.632,0,0,0-.785.2,2.263,2.263,0,0,0-.653.528,2.81,2.81,0,0,0-.46.758,2.661,2.661,0,0,0-.2.876Z" transform="translate(16322 14135)" fill="#004738"/>
    <path id="Path_144503" data-name="Path 144503" d="M1700.239,726.242c-.129,0-.194-.052-.194-.154v-.34c0-.138.065-.207.194-.207h1.358a1.694,1.694,0,0,1-.54-.706,1.979,1.979,0,0,1-.143-.725,1.823,1.823,0,0,1,.1-.6,1.482,1.482,0,0,1,.312-.519,1.536,1.536,0,0,1,.544-.363,2.1,2.1,0,0,1,.8-.137c.112,0,.234.006.366.019s.275.025.426.044c-.011.131-.022.252-.033.354s-.026.217-.042.338c-.113-.018-.214-.029-.3-.039a2.781,2.781,0,0,0-.3-.014,1.234,1.234,0,0,0-.869.282.985.985,0,0,0-.3.757,1.165,1.165,0,0,0,.485.974,1.73,1.73,0,0,0,.511.251,2.006,2.006,0,0,0,.606.088h.608v.7Z" transform="translate(16322 14135)" fill="#004738"/>
    <path id="Path_144504" data-name="Path 144504" d="M1708.46,726.244a1.5,1.5,0,0,0-.573.1,1.293,1.293,0,0,0-.408.263,1.016,1.016,0,0,0-.245.378,1.266,1.266,0,0,0-.081.451,1.2,1.2,0,0,0,.347.892,1.474,1.474,0,0,0,1.062.338,2.767,2.767,0,0,0,.417-.037,3.516,3.516,0,0,0,.4-.079,2.756,2.756,0,0,0,.046.317c.021.094.034.189.047.29a2.339,2.339,0,0,1-.482.122,3.744,3.744,0,0,1-.622.054,2.438,2.438,0,0,1-.7-.107,1.832,1.832,0,0,1-.624-.328,1.614,1.614,0,0,1-.445-.572,1.91,1.91,0,0,1-.17-.842,2.1,2.1,0,0,1,.152-.817,1.649,1.649,0,0,1,.435-.614,1.933,1.933,0,0,1,.678-.381,2.911,2.911,0,0,1,.893-.13h1.216a2.3,2.3,0,0,1-.322-.6,2.691,2.691,0,0,1-.158-.65,1.417,1.417,0,0,0-.284-.789.834.834,0,0,0-.645-.234,2.119,2.119,0,0,0-.409.048,2.284,2.284,0,0,0-.468.153l-.177-.666c.073-.022.161-.05.261-.079s.207-.056.317-.084.221-.048.338-.064a2.028,2.028,0,0,1,.331-.028,1.278,1.278,0,0,1,.578.123,1.3,1.3,0,0,1,.422.333,1.636,1.636,0,0,1,.274.5,3.089,3.089,0,0,1,.145.608c.016.13.033.258.053.383a1.963,1.963,0,0,0,.093.362,1.7,1.7,0,0,0,.168.339,1.209,1.209,0,0,0,.283.3v.755Zm-.159,1.279a.4.4,0,0,1,.113-.284.378.378,0,0,1,.549,0,.417.417,0,0,1,0,.569.378.378,0,0,1-.549,0,.4.4,0,0,1-.113-.285" transform="translate(16322 14135)" fill="#004738"/>
    <rect id="Rectangle_17592" data-name="Rectangle 17592" width="0.649" height="6.29" transform="translate(18033.699 14854.953)" fill="#004738"/>
    <path id="Path_144505" data-name="Path 144505" d="M1716.269,725.541c.129,0,.194.053.194.155v.339c0,.14-.065.207-.194.207h-.16a2.755,2.755,0,0,1-.287-.016.906.906,0,0,1-.278-.082.809.809,0,0,1-.249-.192.883.883,0,0,1-.181-.334v.659a2.422,2.422,0,0,1-.1.706,1.712,1.712,0,0,1-.29.577,1.346,1.346,0,0,1-.475.384,1.431,1.431,0,0,1-.645.141,3.054,3.054,0,0,1-.359-.019,2.36,2.36,0,0,1-.257-.034l.076-.692.194.034a.838.838,0,0,0,.177.022c.062,0,.118,0,.169,0a.7.7,0,0,0,.661-.3,1.857,1.857,0,0,0,.174-.905v-3.29h.674V724.5a1.714,1.714,0,0,0,.046.409.835.835,0,0,0,.161.33.75.75,0,0,0,.3.22,1.143,1.143,0,0,0,.464.08Z" transform="translate(16322 14135)" fill="#004738"/>
    <path id="Path_144506" data-name="Path 144506" d="M1716.142,726.242c-.129,0-.194-.052-.194-.154v-.34c0-.138.065-.207.194-.207h1.375a.421.421,0,0,0,.409-.181,1.035,1.035,0,0,0,.1-.486v-1.088h.674v.72a1.754,1.754,0,0,0,.046.407.842.842,0,0,0,.159.329.78.78,0,0,0,.3.221,1.191,1.191,0,0,0,.453.078h.219c.212,0,.349-.06.411-.176a1.075,1.075,0,0,0,.092-.491v-1.456h.675v1.088a1.7,1.7,0,0,0,.046.407.865.865,0,0,0,.156.329.733.733,0,0,0,.3.221,1.2,1.2,0,0,0,.455.078h.7v-2.632h.675v3.333h-1.4a1.4,1.4,0,0,1-.622-.13.829.829,0,0,1-.394-.546,1.169,1.169,0,0,1-.184.342.836.836,0,0,1-.244.209.958.958,0,0,1-.291.1,2.116,2.116,0,0,1-.323.024h-.286a1.224,1.224,0,0,1-.63-.143,1.04,1.04,0,0,1-.4-.533,1.135,1.135,0,0,1-.443.522,1.31,1.31,0,0,1-.652.154Z" transform="translate(16322 14135)" fill="#004738"/>
    <path id="Path_144507" data-name="Path 144507" d="M1730.806,725.541c.129,0,.193.053.193.155v.339c0,.14-.064.207-.193.207h-.211a1.708,1.708,0,0,1-.329-.031.925.925,0,0,1-.3-.108.736.736,0,0,1-.236-.224,1.041,1.041,0,0,1-.152-.372.947.947,0,0,1-.16.333.9.9,0,0,1-.253.226,1.08,1.08,0,0,1-.312.132,1.273,1.273,0,0,1-.329.044H1726.6v-.7h1.856a.482.482,0,0,0,.416-.157.854.854,0,0,0,.114-.494c0-.284-.01-.53-.03-.741a1.167,1.167,0,0,0-.155-.518.78.78,0,0,0-.371-.306,1.875,1.875,0,0,0-.675-.1h-.674v-.676h.877a2.035,2.035,0,0,1,.8.139,1.308,1.308,0,0,1,.514.388,1.538,1.538,0,0,1,.278.58,2.965,2.965,0,0,1,.084.732,1.366,1.366,0,0,0,.233.867.909.909,0,0,0,.746.285Z" transform="translate(16322 14135)" fill="#004738"/>
    <path id="Path_144508" data-name="Path 144508" d="M1730.688,726.242c-.13,0-.195-.053-.195-.158v-.342c0-.139.065-.21.195-.21h.219a.725.725,0,0,0,.261-.045.543.543,0,0,0,.228-.156.873.873,0,0,0,.164-.32,1.861,1.861,0,0,0,.064-.53,2.173,2.173,0,0,1,.126-.751,1.919,1.919,0,0,1,.345-.6,1.525,1.525,0,0,1,.528-.4,1.617,1.617,0,0,1,.67-.139,1.44,1.44,0,0,1,1.189.525,2.321,2.321,0,0,1,.422,1.484,1.613,1.613,0,0,0,.029.267.815.815,0,0,0,.127.308.834.834,0,0,0,.286.25,1.106,1.106,0,0,0,.519.1h.2c.129,0,.193.053.193.157v.343c0,.14-.064.21-.193.21h-.229a1.782,1.782,0,0,1-.354-.035.991.991,0,0,1-.333-.126.907.907,0,0,1-.273-.246,1.022,1.022,0,0,1-.178-.391,2.245,2.245,0,0,1-.341.449,1.436,1.436,0,0,1-.355.254,1.356,1.356,0,0,1-.37.115,3.144,3.144,0,0,1-.393.024,1.436,1.436,0,0,1-1.374-.78,1.05,1.05,0,0,1-.375.553.9.9,0,0,1-.528.183Zm2.6-.657a1.031,1.031,0,0,0,.451-.089.859.859,0,0,0,.312-.235,1.009,1.009,0,0,0,.181-.347,1.5,1.5,0,0,0,.059-.426,1.45,1.45,0,0,0-.085-.516,1.236,1.236,0,0,0-.223-.392,1,1,0,0,0-.32-.25.86.86,0,0,0-.375-.089.9.9,0,0,0-.388.089.994.994,0,0,0-.325.25,1.228,1.228,0,0,0-.22.392,1.576,1.576,0,0,0-.079.516,1.461,1.461,0,0,0,.059.426.967.967,0,0,0,.185.347.912.912,0,0,0,.316.235,1.032,1.032,0,0,0,.452.089" transform="translate(16322 14135)" fill="#004738"/>
    <path id="Path_144509" data-name="Path 144509" d="M1735.949,726.242c-.13,0-.194-.052-.194-.154v-.34c0-.138.064-.207.194-.207h2.792a1.655,1.655,0,0,1-.2-.453,5.264,5.264,0,0,1-.152-.8,1.325,1.325,0,0,0-.3-.793.847.847,0,0,0-.619-.229,1.906,1.906,0,0,0-.409.057,2.613,2.613,0,0,0-.468.153l-.169-.682c.068-.025.151-.051.249-.079a3.008,3.008,0,0,1,.312-.079c.109-.025.224-.044.342-.062a2.1,2.1,0,0,1,.337-.026,1.246,1.246,0,0,1,1.075.513,1.541,1.541,0,0,1,.24.5,2.665,2.665,0,0,1,.093.541,4.684,4.684,0,0,0,.08.555,1.772,1.772,0,0,0,.156.457.863.863,0,0,0,.265.309.713.713,0,0,0,.418.114h.1c.13,0,.2.053.2.155v.339c0,.14-.065.207-.2.207h-.16a1.472,1.472,0,0,1-.619-.121,1.183,1.183,0,0,1-.469-.4,1.09,1.09,0,0,1-.35.423.642.642,0,0,1-.333.1Z" transform="translate(16322 14135)" fill="#004738"/>
    <path id="Path_144510" data-name="Path 144510" d="M1739.971,726.242c-.13,0-.194-.053-.194-.158v-.342c0-.139.064-.21.194-.21h.22q.724,0,.725-1.051a2.2,2.2,0,0,1,.126-.76,1.833,1.833,0,0,1,.35-.6,1.605,1.605,0,0,1,.531-.39,1.746,1.746,0,0,1,1.375,0,1.406,1.406,0,0,1,.5.4,1.766,1.766,0,0,1,.295.608,3.006,3.006,0,0,1,.1.785,2.437,2.437,0,0,1-.084.637,1.575,1.575,0,0,1-.274.558,1.359,1.359,0,0,1-.493.394,1.664,1.664,0,0,1-.742.15,2.271,2.271,0,0,1-.358-.028,1.527,1.527,0,0,1-.38-.1,1.406,1.406,0,0,1-.367-.229,1.539,1.539,0,0,1-.329-.4,1.176,1.176,0,0,1-.4.565,1.018,1.018,0,0,1-.607.171Zm2.606-.657a1.006,1.006,0,0,0,.442-.089.864.864,0,0,0,.313-.235,1.008,1.008,0,0,0,.181-.347,1.5,1.5,0,0,0,.059-.426,1.453,1.453,0,0,0-.085-.516,1.255,1.255,0,0,0-.223-.392,1.02,1.02,0,0,0-.32-.25.845.845,0,0,0-.367-.089.9.9,0,0,0-.388.089.994.994,0,0,0-.325.25,1.208,1.208,0,0,0-.219.392,1.549,1.549,0,0,0-.08.516,1.461,1.461,0,0,0,.059.426.99.99,0,0,0,.181.347.862.862,0,0,0,.313.235,1.046,1.046,0,0,0,.459.089" transform="translate(16322 14135)" fill="#004738"/>
    <path id="Path_144511" data-name="Path 144511" d="M1722.436,695.129c0,10.722-8.354,19.412-18.657,19.412s-18.658-8.69-18.658-19.412,8.353-19.412,18.658-19.412,18.657,8.691,18.657,19.412" transform="translate(16322 14135)" fill="#004738" fill-rule="evenodd"/>
    <path id="Path_144512" data-name="Path 144512" d="M1703.8,712.863h-.018c-.308,0-.618-.009-.924-.024a.122.122,0,0,1-.111-.13.117.117,0,0,1,.124-.114c.3.015.607.023.911.023h.018a.122.122,0,0,1,.118.123.12.12,0,0,1-.118.122m.915-.024a.12.12,0,0,1-.117-.116.119.119,0,0,1,.111-.129c.3-.019.607-.044.907-.076a.118.118,0,0,1,.13.107.123.123,0,0,1-.1.136c-.3.033-.614.059-.92.078Zm-2.765-.075h-.012c-.305-.034-.613-.076-.916-.128a.123.123,0,0,1-.1-.142.117.117,0,0,1,.135-.1c.3.048.6.09.9.125a.123.123,0,0,1-.013.245m4.587-.13a.12.12,0,0,1-.116-.1.122.122,0,0,1,.1-.14c.3-.05.6-.112.894-.178a.117.117,0,0,1,.141.1.122.122,0,0,1-.09.144c-.3.069-.6.129-.907.181a.062.062,0,0,1-.019,0m-6.4-.176-.025,0c-.3-.067-.6-.144-.9-.228a.125.125,0,0,1-.081-.153.119.119,0,0,1,.145-.086c.29.083.588.159.883.228a.122.122,0,0,1,.09.145.118.118,0,0,1-.115.1m8.187-.231a.121.121,0,0,1-.113-.092.122.122,0,0,1,.082-.151c.292-.085.584-.176.87-.278a.118.118,0,0,1,.149.077.122.122,0,0,1-.073.155c-.29.1-.587.2-.883.283a.1.1,0,0,1-.032.006m-9.954-.277a.118.118,0,0,1-.037-.006c-.29-.1-.582-.214-.867-.33a.124.124,0,0,1-.066-.16.115.115,0,0,1,.153-.067c.282.115.569.225.855.324a.125.125,0,0,1,.074.156.118.118,0,0,1-.112.083m11.691-.334a.118.118,0,0,1-.109-.078.12.12,0,0,1,.066-.157c.281-.118.562-.244.835-.377a.118.118,0,0,1,.157.059.127.127,0,0,1-.057.165c-.278.133-.563.261-.848.378a.086.086,0,0,1-.044.01m-13.394-.371a.11.11,0,0,1-.049-.012c-.278-.131-.557-.277-.827-.426a.127.127,0,0,1-.049-.166.115.115,0,0,1,.16-.05c.266.145.541.288.815.421a.125.125,0,0,1,.058.163.116.116,0,0,1-.108.07m15.057-.433a.119.119,0,0,1-.1-.064.125.125,0,0,1,.048-.167c.267-.146.533-.306.792-.468a.117.117,0,0,1,.162.041.126.126,0,0,1-.041.169c-.262.165-.532.325-.8.477a.128.128,0,0,1-.056.012m-16.675-.46a.1.1,0,0,1-.061-.02c-.263-.165-.524-.34-.776-.519a.123.123,0,0,1-.032-.168.114.114,0,0,1,.164-.035c.249.177.508.35.766.512a.125.125,0,0,1,.04.168.118.118,0,0,1-.1.062m18.243-.527a.11.11,0,0,1-.1-.054.122.122,0,0,1,.03-.169c.25-.177.5-.365.738-.556a.118.118,0,0,1,.166.022.129.129,0,0,1-.022.173c-.244.195-.495.383-.749.564a.122.122,0,0,1-.066.02m-19.758-.549a.106.106,0,0,1-.071-.024c-.244-.193-.486-.4-.718-.6a.125.125,0,0,1-.014-.172.115.115,0,0,1,.166-.015c.231.2.468.4.709.6a.123.123,0,0,1,.022.17.112.112,0,0,1-.094.048m21.214-.61a.119.119,0,0,1-.09-.043.127.127,0,0,1,.014-.173c.229-.2.457-.418.676-.635a.115.115,0,0,1,.166.005.125.125,0,0,1,0,.173c-.222.222-.453.438-.686.646a.131.131,0,0,1-.077.027m-22.609-.625a.122.122,0,0,1-.081-.033c-.112-.112-.224-.225-.332-.338s-.216-.228-.321-.343a.127.127,0,0,1,0-.174.115.115,0,0,1,.167.006c.1.113.209.228.316.337s.218.225.328.333a.125.125,0,0,1,.005.173.119.119,0,0,1-.086.039m23.939-.688a.108.108,0,0,1-.081-.035.125.125,0,0,1-.005-.173c.208-.229.412-.465.608-.705a.115.115,0,0,1,.166-.013.126.126,0,0,1,.013.174c-.2.241-.405.48-.616.712a.111.111,0,0,1-.085.04m-25.2-.7a.112.112,0,0,1-.09-.042c-.2-.243-.394-.495-.58-.748a.127.127,0,0,1,.022-.172.114.114,0,0,1,.165.024c.184.25.376.5.573.737a.126.126,0,0,1-.014.173.114.114,0,0,1-.076.028m26.388-.757a.1.1,0,0,1-.071-.023.128.128,0,0,1-.023-.173c.183-.25.362-.508.531-.767a.116.116,0,0,1,.164-.035.127.127,0,0,1,.032.172c-.172.263-.354.528-.539.78a.114.114,0,0,1-.094.046m-27.5-.757a.12.12,0,0,1-.1-.054c-.172-.266-.34-.535-.5-.81a.126.126,0,0,1,.04-.168.117.117,0,0,1,.162.042c.157.269.322.536.492.8a.126.126,0,0,1-.031.171.11.11,0,0,1-.066.022m28.529-.819a.137.137,0,0,1-.059-.015.126.126,0,0,1-.041-.169c.156-.272.307-.548.449-.826a.112.112,0,0,1,.159-.049.124.124,0,0,1,.049.165c-.143.28-.3.561-.456.836a.112.112,0,0,1-.1.058m-29.477-.813a.12.12,0,0,1-.1-.067c-.144-.281-.282-.571-.412-.86a.125.125,0,0,1,.058-.163.116.116,0,0,1,.156.059c.127.287.264.572.406.849a.125.125,0,0,1-.049.166.116.116,0,0,1-.055.016m30.337-.87a.1.1,0,0,1-.05-.012.124.124,0,0,1-.057-.162c.127-.285.248-.578.359-.871a.116.116,0,0,1,.153-.069.125.125,0,0,1,.066.16c-.112.3-.235.592-.364.881a.12.12,0,0,1-.107.073m-31.108-.862a.117.117,0,0,1-.109-.077c-.114-.3-.221-.6-.319-.9a.123.123,0,0,1,.074-.156.116.116,0,0,1,.15.077c.1.3.2.6.313.888a.127.127,0,0,1-.065.161.134.134,0,0,1-.044.007m31.785-.912a.127.127,0,0,1-.038-.006.123.123,0,0,1-.074-.155c.1-.3.185-.6.265-.9a.118.118,0,0,1,.145-.087.124.124,0,0,1,.083.151c-.082.307-.172.616-.27.919a.116.116,0,0,1-.111.083m-32.369-.893a.12.12,0,0,1-.114-.091c-.082-.308-.156-.62-.221-.934a.122.122,0,0,1,.09-.145.117.117,0,0,1,.14.093c.065.308.138.618.219.919a.127.127,0,0,1-.082.153.176.176,0,0,1-.032.005m32.855-.945a.107.107,0,0,1-.025,0,.122.122,0,0,1-.09-.147c.064-.306.12-.618.169-.93a.116.116,0,0,1,.135-.1.119.119,0,0,1,.1.139c-.048.317-.1.633-.171.945a.12.12,0,0,1-.115.1m-33.246-.92a.119.119,0,0,1-.116-.1c-.049-.315-.09-.635-.123-.951a.121.121,0,0,1,.1-.136.118.118,0,0,1,.13.109c.032.314.073.628.122.94a.122.122,0,0,1-.1.139l-.019,0m33.538-.963h-.013a.122.122,0,0,1-.105-.135c.032-.313.056-.631.072-.946a.118.118,0,1,1,.235.013c-.016.319-.04.643-.073.957a.118.118,0,0,1-.116.111m-33.734-.933a.119.119,0,0,1-.117-.115c-.016-.319-.025-.642-.025-.96a.119.119,0,1,1,.237,0c0,.314.007.634.024.946a.122.122,0,0,1-.112.129Zm33.83-.973a.119.119,0,0,1-.119-.122c0-.313-.008-.634-.025-.947a.124.124,0,0,1,.112-.13h.007a.122.122,0,0,1,.117.117c.017.319.025.642.025.96a.119.119,0,0,1-.117.122m-33.83-.933h-.006a.122.122,0,0,1-.111-.13c.016-.321.041-.643.073-.957a.12.12,0,0,1,.129-.111.123.123,0,0,1,.1.136c-.032.313-.055.63-.072.944a.121.121,0,0,1-.118.118m33.731-.97a.121.121,0,0,1-.118-.108c-.032-.315-.073-.629-.122-.94a.123.123,0,0,1,.1-.141.119.119,0,0,1,.135.1c.049.315.091.636.124.951a.122.122,0,0,1-.1.136h-.012m-33.536-.928a.063.063,0,0,1-.019,0,.122.122,0,0,1-.1-.139c.049-.316.107-.632.172-.945a.116.116,0,0,1,.14-.092.12.12,0,0,1,.091.144c-.064.309-.122.621-.17.933a.119.119,0,0,1-.116.1m33.241-.955a.118.118,0,0,1-.115-.1c-.064-.306-.137-.616-.218-.919a.126.126,0,0,1,.082-.152.121.121,0,0,1,.145.086c.082.309.157.621.222.933a.123.123,0,0,1-.09.146.113.113,0,0,1-.026,0m-32.851-.909a.1.1,0,0,1-.031,0,.123.123,0,0,1-.083-.149c.082-.309.172-.618.27-.92a.116.116,0,0,1,.15-.077.121.121,0,0,1,.073.155c-.095.3-.185.6-.265.905a.118.118,0,0,1-.114.09m32.363-.928a.117.117,0,0,1-.112-.084c-.1-.3-.2-.6-.315-.888a.127.127,0,0,1,.067-.16.116.116,0,0,1,.153.07c.113.3.22.6.318.9a.123.123,0,0,1-.074.156.1.1,0,0,1-.037.007m-31.78-.88a.184.184,0,0,1-.044-.007.127.127,0,0,1-.065-.161c.113-.3.236-.591.364-.881a.117.117,0,0,1,.157-.061.125.125,0,0,1,.057.164c-.126.284-.247.577-.359.869a.119.119,0,0,1-.11.077m31.1-.891a.12.12,0,0,1-.107-.071c-.127-.286-.263-.571-.405-.847a.124.124,0,0,1,.049-.166.114.114,0,0,1,.159.051c.144.282.283.571.411.858a.125.125,0,0,1-.057.164.113.113,0,0,1-.05.011m-30.33-.838a.115.115,0,0,1-.055-.016.123.123,0,0,1-.049-.165c.143-.281.3-.561.455-.836a.116.116,0,0,1,.162-.042.126.126,0,0,1,.04.169c-.156.271-.307.547-.449.823a.117.117,0,0,1-.1.067m29.469-.845a.117.117,0,0,1-.1-.058c-.157-.271-.323-.54-.492-.8a.127.127,0,0,1,.03-.171.115.115,0,0,1,.164.031c.172.264.341.534.5.809a.127.127,0,0,1-.04.169.137.137,0,0,1-.061.017m-28.522-.789a.122.122,0,0,1-.066-.02.125.125,0,0,1-.031-.17c.172-.264.353-.527.539-.78a.116.116,0,0,1,.165-.023.126.126,0,0,1,.023.173c-.184.25-.363.509-.533.766a.112.112,0,0,1-.1.054m27.489-.787a.117.117,0,0,1-.094-.049c-.183-.249-.376-.5-.572-.735a.128.128,0,0,1,.013-.175.116.116,0,0,1,.167.015c.2.243.393.495.58.748a.126.126,0,0,1-.023.172.129.129,0,0,1-.071.024m-26.377-.729a.108.108,0,0,1-.077-.029.126.126,0,0,1-.013-.173c.2-.242.405-.481.617-.715a.116.116,0,0,1,.166,0,.125.125,0,0,1,.005.172c-.209.229-.413.466-.609.705a.11.11,0,0,1-.089.043m25.187-.721a.12.12,0,0,1-.085-.038c-.1-.113-.206-.225-.311-.332s-.222-.23-.334-.338a.129.129,0,0,1-.005-.176.116.116,0,0,1,.167-.005c.113.112.228.23.339.346s.213.222.314.336a.122.122,0,0,1-.085.207m-23.926-.662a.124.124,0,0,1-.086-.038.127.127,0,0,1,.005-.174c.222-.221.453-.437.686-.644a.113.113,0,0,1,.166.015.128.128,0,0,1-.013.174c-.23.2-.458.417-.677.632a.115.115,0,0,1-.081.035m22.594-.652a.12.12,0,0,1-.076-.028c-.23-.2-.468-.4-.709-.6a.126.126,0,0,1-.022-.173.118.118,0,0,1,.166-.022c.243.193.484.4.718.6a.126.126,0,0,1,.014.173.113.113,0,0,1-.091.043m-21.2-.587a.112.112,0,0,1-.093-.047.125.125,0,0,1,.021-.172c.243-.2.495-.383.749-.564a.117.117,0,0,1,.164.032.128.128,0,0,1-.031.172c-.25.176-.5.364-.738.553a.109.109,0,0,1-.072.026m19.742-.569a.124.124,0,0,1-.066-.02c-.25-.177-.508-.349-.766-.511a.125.125,0,0,1-.041-.167.114.114,0,0,1,.163-.042c.262.165.523.339.777.517a.124.124,0,0,1,.031.169.117.117,0,0,1-.1.054m-18.227-.505a.115.115,0,0,1-.1-.057.125.125,0,0,1,.04-.17c.263-.165.532-.326.8-.476a.115.115,0,0,1,.159.053.125.125,0,0,1-.049.166c-.266.146-.532.3-.791.468a.139.139,0,0,1-.061.016m16.659-.478a.1.1,0,0,1-.056-.016c-.267-.146-.541-.289-.816-.421a.123.123,0,0,1-.057-.162.115.115,0,0,1,.156-.061c.279.134.558.279.827.427a.125.125,0,0,1,.049.166.118.118,0,0,1-.1.067m-15.041-.417a.118.118,0,0,1-.107-.073.127.127,0,0,1,.057-.163c.278-.134.564-.26.848-.379a.117.117,0,0,1,.154.069.127.127,0,0,1-.066.159c-.281.116-.562.242-.837.375a.094.094,0,0,1-.049.012m13.377-.383a.114.114,0,0,1-.044-.01c-.281-.116-.569-.227-.855-.327a.121.121,0,0,1-.074-.153.117.117,0,0,1,.149-.08c.29.1.582.213.867.333a.121.121,0,0,1,.066.159.117.117,0,0,1-.109.078m-11.675-.323a.121.121,0,0,1-.112-.084.127.127,0,0,1,.074-.157c.29-.1.587-.2.883-.281a.119.119,0,0,1,.145.085.123.123,0,0,1-.082.152c-.292.083-.585.177-.87.278a.086.086,0,0,1-.038.007m9.937-.285c-.011,0-.021,0-.032,0-.291-.083-.588-.161-.883-.227a.121.121,0,0,1-.09-.146.114.114,0,0,1,.139-.093c.3.067.6.143.9.229a.125.125,0,0,1,.083.152.122.122,0,0,1-.114.089m-8.17-.223a.12.12,0,0,1-.116-.1.122.122,0,0,1,.09-.144c.3-.07.6-.129.907-.181a.119.119,0,0,1,.136.1.122.122,0,0,1-.1.141c-.3.051-.6.11-.894.177a.059.059,0,0,1-.025.005m6.378-.183h-.018c-.3-.05-.6-.093-.9-.126a.121.121,0,0,1-.1-.135.119.119,0,0,1,.13-.108c.3.032.613.075.916.127a.123.123,0,0,1,.1.141.119.119,0,0,1-.117.1m-4.57-.125a.12.12,0,0,1-.117-.108.123.123,0,0,1,.1-.136c.3-.033.613-.06.92-.076a.123.123,0,0,1,.013.245c-.3.018-.608.042-.908.075h-.013m2.747-.077h-.006c-.3-.017-.6-.023-.9-.023h-.01a.124.124,0,0,1,0-.247h.01c.3,0,.61.009.913.025a.121.121,0,0,1,.111.13.12.12,0,0,1-.118.115" transform="translate(16322 14135)" fill="#b79776"/>
    <path id="Path_144513" data-name="Path 144513" d="M1703.379,693.138a.633.633,0,0,1-.067.265.3.3,0,0,1-.243.175.34.34,0,0,1-.323-.263.4.4,0,0,1-.391.329.266.266,0,0,1-.189-.088.451.451,0,0,1-.081-.273v-.265c0-.022-.027-.032-.054-.044s-.054-.032-.054-.065a.255.255,0,0,1,.081-.175.238.238,0,0,1,.121-.068c.041,0,.068.056.068.164,0,.068-.014.122-.014.156a.341.341,0,0,0-.013.109.373.373,0,0,0,.041.175c.04.077.08.11.134.11a.331.331,0,0,0,.216-.089.239.239,0,0,0,.094-.185,1.514,1.514,0,0,0-.054-.208.636.636,0,0,1-.053-.176.291.291,0,0,1,.04-.109c.027-.045.04-.068.054-.068s.054.068.093.2a1.142,1.142,0,0,1,.068.3c0,.176.082.276.257.276a.134.134,0,0,0,.135-.1,1.018,1.018,0,0,1-.229-.481.238.238,0,0,1,.067-.166c.027-.043.041-.056.054-.056s.027.022.027.056a.457.457,0,0,0,.04.154s.041.076.108.22a.57.57,0,0,1,.067.2" transform="translate(16322 14135)" fill="#e0be9b"/>
    <path id="Path_144514" data-name="Path 144514" d="M1713.689,708.012a1.34,1.34,0,0,1-.264.088.863.863,0,0,1-.14.009.6.6,0,0,1-.365-.093.337.337,0,0,1-.118-.288.648.648,0,0,1,.181-.477.31.31,0,0,1-.171-.094.231.231,0,0,1-.071-.161.206.206,0,0,1,.055-.129.237.237,0,0,1,.187-.084.365.365,0,0,1,.2.068c.02.015.029.02.026.023a.233.233,0,0,1-.046-.008.284.284,0,0,0-.077-.009.587.587,0,0,0-.3.075.277.277,0,0,0,.1.17.243.243,0,0,0,.15.056.109.109,0,0,0,.054-.01c.06-.04.143-.094.248-.16.024-.015.036-.022.039-.019a.168.168,0,0,1-.018.055.309.309,0,0,1-.024.051c-.056.033-.146.091-.269.176a.529.529,0,0,0-.232.411.335.335,0,0,0,.063.207q.1.141.469.141c.058,0,.14,0,.247-.01l.069-.007c.021,0,.032,0,.032,0s-.011.009-.029.017" transform="translate(16322 14135)" fill="#e0be9b"/>
    <path id="Path_144515" data-name="Path 144515" d="M1709.547,690.293c.034-.055.067-.109.1-.164a.8.8,0,0,0,.058-.071.234.234,0,0,1,.168-.126c.178-.06.305-.082.481-.143.247-.082.513-.152.761-.227.271-.083.525-.2.8-.274.35-.1,3.428-1.146,3.777-1.25.172-.052.339-.117.507-.181.055-.02.078,0,.1.049.057.132.049.158-.077.22s-.261.138-.4.2a2.124,2.124,0,0,1-.249.078c-.194.057-3.114,1.073-3.309,1.127-.421.124-.82.282-1.24.412-.291.09-.6.161-.891.259-.156.054-.264.09-.421.142a.587.587,0,0,1-.1.033c-.052.006-.084-.014-.065-.08" transform="translate(16322 14135)" fill="#e0be9b" fill-rule="evenodd"/>
    <path id="Path_144516" data-name="Path 144516" d="M1705.074,690.542a1.538,1.538,0,0,1-.1.169.626.626,0,0,1-.113.111.111.111,0,0,0-.011.162c.056.089.124.148.224.125.066-.013.092.028.074.085a.316.316,0,0,1-.617-.076.491.491,0,0,1,.085-.279.777.777,0,0,1,.193-.2,1.673,1.673,0,0,1,.225-.138l.038.044" transform="translate(16322 14135)" fill="#e0be9b" fill-rule="evenodd"/>
    <path id="Path_144517" data-name="Path 144517" d="M1705.519,691.527a1.8,1.8,0,0,1,.032-.192.76.76,0,0,1,.067-.148c.037-.067.008-.115-.047-.156a.2.2,0,0,0-.25-.03c-.056.04-.1.008-.1-.053a.346.346,0,0,1,.038-.165.319.319,0,0,1,.564.005.489.489,0,0,1,.017.293.831.831,0,0,1-.108.261,1.77,1.77,0,0,1-.162.212.358.358,0,0,1-.051-.027" transform="translate(16322 14135)" fill="#e0be9b" fill-rule="evenodd"/>
    <path id="Path_144518" data-name="Path 144518" d="M1693.045,696.006a1.717,1.717,0,0,1-.248-.083.825.825,0,0,1-.179-.121c-.081-.065-.148-.032-.211.036a.3.3,0,0,0-.09.351c.041.086-.005.136-.086.129a.406.406,0,0,1-.209-.084.474.474,0,0,1,.113-.8.584.584,0,0,1,.384.029,1.071,1.071,0,0,1,.324.205,2.37,2.37,0,0,1,.246.272c-.015.02-.03.042-.044.063" transform="translate(16322 14135)" fill="#e0be9b" fill-rule="evenodd"/>
    <path id="Path_144519" data-name="Path 144519" d="M1691.919,696.936a2.049,2.049,0,0,1,.258-.017,1.01,1.01,0,0,1,.21.047c.1.031.15-.023.185-.113a.3.3,0,0,0-.038-.358c-.068-.067-.042-.13.036-.156a.447.447,0,0,1,.224,0,.474.474,0,0,1,.171.786.6.6,0,0,1-.37.117,1.057,1.057,0,0,1-.372-.069,2.25,2.25,0,0,1-.323-.16c.007-.024.012-.052.019-.077" transform="translate(16322 14135)" fill="#e0be9b" fill-rule="evenodd"/>
    <path id="Path_144520" data-name="Path 144520" d="M1716.645,693.694a1.225,1.225,0,0,1-.18-.061.632.632,0,0,1-.131-.086c-.059-.047-.108-.026-.154.025a.223.223,0,0,0-.066.256c.03.061,0,.1-.062.095a.317.317,0,0,1-.153-.063.346.346,0,0,1,.083-.581.44.44,0,0,1,.28.022.807.807,0,0,1,.236.149,1.867,1.867,0,0,1,.18.2c-.012.017-.023.031-.033.047" transform="translate(16322 14135)" fill="#e0be9b" fill-rule="evenodd"/>
    <path id="Path_144521" data-name="Path 144521" d="M1715.825,694.372a1.194,1.194,0,0,1,.188-.012.677.677,0,0,1,.153.033c.072.022.109-.016.135-.082a.219.219,0,0,0-.028-.26c-.05-.049-.031-.1.026-.114a.337.337,0,0,1,.164,0,.347.347,0,0,1,.124.574.447.447,0,0,1-.27.084.733.733,0,0,1-.27-.05,1.613,1.613,0,0,1-.236-.116c0-.019.009-.037.014-.057" transform="translate(16322 14135)" fill="#e0be9b" fill-rule="evenodd"/>
    <path id="Path_144522" data-name="Path 144522" d="M1716.329,702.154a1.314,1.314,0,0,1,.188-.012.674.674,0,0,1,.153.033c.071.022.109-.016.135-.082a.219.219,0,0,0-.028-.26c-.05-.049-.031-.1.026-.114a.321.321,0,0,1,.163,0,.346.346,0,0,1,.125.574.452.452,0,0,1-.27.084.744.744,0,0,1-.271-.05,1.609,1.609,0,0,1-.235-.116l.014-.057" transform="translate(16322 14135)" fill="#e0be9b" fill-rule="evenodd"/>
    <path id="Path_144523" data-name="Path 144523" d="M1713.542,697.111a1.179,1.179,0,0,1,.188-.012.806.806,0,0,1,.153.034c.071.021.109-.018.135-.084a.22.22,0,0,0-.028-.26c-.05-.048-.031-.1.027-.113a.329.329,0,0,1,.162,0,.346.346,0,0,1,.125.574.445.445,0,0,1-.27.084.763.763,0,0,1-.271-.049,1.978,1.978,0,0,1-.235-.116l.014-.058" transform="translate(16322 14135)" fill="#e0be9b" fill-rule="evenodd"/>
    <path id="Path_144524" data-name="Path 144524" d="M1698.9,701.494c.392-.462.739-.88,1.017-1.251a1.114,1.114,0,0,0,.168-.564s.008-.494.027-1.508c0-.165-.255-5.137-.25-5.374a2.2,2.2,0,0,0-.185-1.11,4.717,4.717,0,0,1,.4-1.124c.025-.071.048-.116.071-.116.046,0,.067.048.088.119a12.437,12.437,0,0,1,.476,1.306c.259.733.411,1.184.452,1.375a1.758,1.758,0,0,1,.041.283c0,.212-.183.09-.561-.389-.021-.047-.044,0-.068.094,0,.022.24,3.325.236,3.584a14.882,14.882,0,0,1-.145,2.646c1.8-1.779,3.063-2.474,4.172-2.455a1.689,1.689,0,0,1,1.389.876,2.236,2.236,0,0,1,.477,1.234,2.417,2.417,0,0,1-.313,1.125,2.861,2.861,0,0,1-1.085,1.133,10.1,10.1,0,0,1-3.078,1.192,10.261,10.261,0,0,1-2.541.306,8.2,8.2,0,0,1-2.235-.424l.023-1.392a4.806,4.806,0,0,0,1.421.434m6.886-1.474c.137-.066.161-.138.117-.257-.436-.95-.971-1.43-1.628-1.443-1.335-.026-2.983,1.053-4.9,3.209a12.779,12.779,0,0,0,6.412-1.509" transform="translate(16322 14135)" fill="#b79776"/>
    <path id="Path_144525" data-name="Path 144525" d="M1696.386,700.216a3.883,3.883,0,0,0,1.095.846l-.024,1.388a5.663,5.663,0,0,1-1.189-.679,3.238,3.238,0,0,1-.885-1.222,15.361,15.361,0,0,1-.425-4.224c-.06-3.04-.321-5.46-.338-5.815a9.371,9.371,0,0,0-.456-2.459,3.5,3.5,0,0,1,.313-1.077c.048-.116.094-.162.117-.162s.067.047.109.142a9.178,9.178,0,0,1,.542,2.767c.037.472.342,5.579.349,6.521.053,2.146.324,3.495.792,3.974" transform="translate(16322 14135)" fill="#b79776"/>
    <path id="Path_144526" data-name="Path 144526" d="M1696.357,708.725a1.282,1.282,0,0,1-.973-.538,2.088,2.088,0,0,1-.4-1.35,6.7,6.7,0,0,1,.9-2.807c.059-.12.118-.18.137-.18a.043.043,0,0,1,.038.041,7.339,7.339,0,0,1-.406,1.215,5.177,5.177,0,0,0-.394,1.637,1.091,1.091,0,0,0,.2.744.7.7,0,0,0,.611.312,2.265,2.265,0,0,0,1.438-.756q.088-.086,1.471-1.594c1.355-1.479,2.542-2.2,3.6-2.178a1.168,1.168,0,0,1,.764.3.849.849,0,0,1,.3.666,2.07,2.07,0,0,1-.15.817c-.04.1-.079.139-.1.139s-.038-.041-.094-.143a1.044,1.044,0,0,0-.971-.618,4.2,4.2,0,0,0-2.781,1.592c-.589.63-1.178,1.279-1.748,1.931a2.128,2.128,0,0,1-1.438.773" transform="translate(16322 14135)" fill="#b79776"/>
    <path id="Path_144527" data-name="Path 144527" d="M1693.735,704.521a.554.554,0,0,1-.059.233.272.272,0,0,1-.214.157.3.3,0,0,1-.285-.234.352.352,0,0,1-.345.291.234.234,0,0,1-.166-.078.393.393,0,0,1-.071-.242v-.231c0-.019-.025-.031-.048-.04a.051.051,0,0,1-.047-.058.223.223,0,0,1,.07-.153.2.2,0,0,1,.107-.06c.036,0,.06.051.06.145,0,.058-.011.107-.011.135a.283.283,0,0,0-.013.1.354.354,0,0,0,.035.154c.037.069.071.1.119.1a.3.3,0,0,0,.191-.077.215.215,0,0,0,.083-.164,1.334,1.334,0,0,0-.048-.186.575.575,0,0,1-.047-.152.272.272,0,0,1,.036-.1c.024-.038.035-.057.048-.057s.047.057.082.174a1.074,1.074,0,0,1,.06.26c0,.156.071.243.226.243a.118.118,0,0,0,.118-.087.884.884,0,0,1-.2-.424.209.209,0,0,1,.059-.147c.024-.039.036-.049.047-.049s.023.021.023.049a.455.455,0,0,0,.036.138s.036.065.1.192a.5.5,0,0,1,.059.172" transform="translate(16322 14135)" fill="#e0be9b"/>
    <path id="Path_144528" data-name="Path 144528" d="M1695.195,683.349c0-.011.011-.021.011-.031h.012c.012.01.012.02,0,.031-.059.312-.166.475-.3.475-.154,0-.226-.12-.226-.346a1.78,1.78,0,0,1,.261-.883c.048-.076.072-.107.083-.107a.959.959,0,0,1-.035.13,2.286,2.286,0,0,0-.179.657c0,.181.048.268.155.268.059,0,.131-.065.214-.194" transform="translate(16322 14135)" fill="#e0be9b"/>
    <path id="Path_144529" data-name="Path 144529" d="M1709.929,700.668c0-.008.008-.017.007-.021l.009,0a.013.013,0,0,1,0,.023c-.026.232-.1.355-.19.362-.113.009-.171-.073-.184-.237a1.308,1.308,0,0,1,.143-.661c.031-.058.047-.083.055-.084a.561.561,0,0,1-.018.1,1.659,1.659,0,0,0-.1.49c.01.134.05.191.128.186.043,0,.092-.053.145-.155" transform="translate(16322 14135)" fill="#e0be9b"/>
    <path id="Path_144530" data-name="Path 144530" d="M1710.745,708.914c0-.01.01-.021.008-.029h.011c.011.008.012.016,0,.027-.031.278-.115.428-.229.438-.136.01-.206-.089-.221-.288a1.564,1.564,0,0,1,.173-.794c.036-.07.054-.1.064-.1a.539.539,0,0,1-.022.116,2.055,2.055,0,0,0-.114.59c.012.16.059.233.153.227.053,0,.111-.067.175-.186" transform="translate(16322 14135)" fill="#e0be9b"/>
    <path id="Path_144531" data-name="Path 144531" d="M1694.485,702.1c0-.01.01-.021.01-.031h.011a.021.021,0,0,1,0,.031c-.051.3-.142.462-.253.462-.131,0-.191-.115-.191-.336a1.91,1.91,0,0,1,.221-.859c.04-.076.061-.107.071-.107a.866.866,0,0,1-.031.126,2.539,2.539,0,0,0-.15.642c0,.176.04.26.131.26.05,0,.111-.062.181-.188" transform="translate(16322 14135)" fill="#e0be9b"/>
    <path id="Path_144532" data-name="Path 144532" d="M1709.168,701.364a.517.517,0,0,1,.432.294,1.873,1.873,0,0,1,.264.779c.008.036.017.055.008.055.009.01.018.01.018,0a.319.319,0,0,0,.018-.055,6.571,6.571,0,0,1,.194-.851c.106-.277.229-.406.352-.406.071,0,.132.047.2.138a.463.463,0,0,1,.089.192.65.65,0,0,1-.036.158c-.026.082-.053.129-.088.129-.017,0-.044-.037-.1-.1a.186.186,0,0,0-.15-.092c-.115,0-.221.277-.318.844a2.131,2.131,0,0,1-.14.514c-.036.073-.071.108-.1.108s-.036-.035-.036-.1a2.308,2.308,0,0,0-.158-.577c-.114-.284-.186-.422-.238-.422a.065.065,0,0,0-.061.029c0,.015-.027.036-.071.036s-.114-.036-.194-.118-.114-.129-.114-.176a.622.622,0,0,1,.1-.211c.063-.108.106-.165.124-.165" transform="translate(16322 14135)" fill="#e0be9b"/>
    <path id="Path_144533" data-name="Path 144533" d="M1698.091,690.6c0-.006,0-.012,0-.018h.007a.012.012,0,0,1,0,.019c-.02.167-.069.258-.139.263s-.123-.054-.131-.172a.94.94,0,0,1,.1-.479c.022-.041.033-.059.039-.059s-.005.028-.013.068a1.188,1.188,0,0,0-.068.357c.006.094.036.139.091.133.031,0,.067-.039.106-.111" transform="translate(16322 14135)" fill="#e0be9b"/>
    <path id="Path_144534" data-name="Path 144534" d="M1693.1,703.419c0-.005.007-.011.006-.018h.006c.007.006.008.012,0,.018-.02.176-.072.271-.144.274s-.13-.054-.139-.179a.986.986,0,0,1,.108-.5c.025-.043.036-.063.042-.063a.472.472,0,0,1-.014.072,1.278,1.278,0,0,0-.072.374c.008.1.038.143.1.139.032,0,.069-.041.109-.117" transform="translate(16322 14135)" fill="#e0be9b"/>
    <path id="Path_144535" data-name="Path 144535" d="M1694.444,684a.491.491,0,0,1,.415.282,1.778,1.778,0,0,1,.256.752c.008.034.017.053.008.053.009.01.018.01.018,0a.426.426,0,0,0,.017-.053,6.372,6.372,0,0,1,.186-.822c.1-.266.221-.389.34-.389.068,0,.128.044.2.132a.427.427,0,0,1,.085.188.627.627,0,0,1-.034.149c-.026.078-.051.123-.085.123-.018,0-.042-.035-.094-.1a.175.175,0,0,0-.144-.087c-.111,0-.212.264-.306.812a1.9,1.9,0,0,1-.136.495c-.034.071-.068.108-.093.108s-.034-.037-.034-.1a2.184,2.184,0,0,0-.154-.559c-.109-.272-.178-.4-.229-.4a.07.07,0,0,0-.059.025c0,.02-.025.038-.069.038s-.11-.038-.185-.117-.111-.123-.111-.167a.569.569,0,0,1,.094-.2c.059-.1.1-.158.118-.158" transform="translate(16322 14135)" fill="#e0be9b"/>
    <path id="Path_144536" data-name="Path 144536" d="M1707.44,707.848a1.842,1.842,0,0,1-.336.942,3.379,3.379,0,0,1-.879.957.892.892,0,0,1-.259.162V709.9c0-.027.052-.11.182-.242.594-.66.891-1.107.891-1.332a.273.273,0,0,0-.3-.312.542.542,0,0,0-.284.08.663.663,0,0,1-.117.07c-.013-.014-.026-.014-.038-.03s.012-.064.025-.16c.1-.458.324-.685.673-.685.284,0,.439.187.439.563" transform="translate(16322 14135)" fill="#e0be9b"/>
    <path id="Path_144537" data-name="Path 144537" d="M1702.6,710.337a1.86,1.86,0,0,1,.36-.933,3.355,3.355,0,0,1,.9-.929.889.889,0,0,1,.263-.155v.014c0,.026-.055.107-.188.235-.611.643-.92,1.081-.927,1.308a.272.272,0,0,0,.289.318.538.538,0,0,0,.287-.072.612.612,0,0,1,.118-.064c.013.013.026.013.038.028s-.015.066-.029.16c-.116.454-.342.677-.691.668-.285-.009-.434-.2-.424-.578" transform="translate(16322 14135)" fill="#e0be9b"/>
    <path id="Path_144538" data-name="Path 144538" d="M1704.8,705.25a.9.9,0,0,1,.175-.452,1.654,1.654,0,0,1,.438-.449.463.463,0,0,1,.128-.077v.007c0,.014-.026.052-.091.116-.3.311-.447.523-.449.634a.133.133,0,0,0,.14.155.259.259,0,0,0,.139-.037.321.321,0,0,1,.057-.031c.006.008.012.008.019.014s-.008.033-.014.077c-.057.223-.167.329-.336.324-.138-.005-.211-.1-.206-.281" transform="translate(16322 14135)" fill="#e0be9b"/>
    <path id="Path_144539" data-name="Path 144539" d="M1697.267,682.164a.536.536,0,0,1,.1-.271.963.963,0,0,1,.264-.272.29.29,0,0,1,.076-.044v0c0,.009-.016.031-.054.068-.178.188-.268.316-.271.382a.08.08,0,0,0,.085.093.166.166,0,0,0,.084-.021.164.164,0,0,1,.034-.019s.008,0,.01.01l-.008.046c-.033.131-.1.2-.2.193-.084,0-.127-.059-.125-.168" transform="translate(16322 14135)" fill="#e0be9b"/>
    <path id="Path_144540" data-name="Path 144540" d="M1702.615,706.736a.494.494,0,0,1-.14.316,1.97,1.97,0,0,1-.392.238,2.774,2.774,0,0,1-.512.217s-.153.016-.448.043a1.847,1.847,0,0,1-.211.015c-.009,0-.014,0-.013,0a.737.737,0,0,1,.2-.077c.242-.07.434-.135.578-.19a4.811,4.811,0,0,0,.591-.274c.179-.1.269-.161.272-.188,0-.006-.032-.092-.1-.252a1.379,1.379,0,0,1-.071-.236.025.025,0,0,1-.015-.025.719.719,0,0,1,.021-.1c.013-.055.024-.084.031-.084a.433.433,0,0,1,.055.069c.082.108.119.166.112.172s-.034-.005-.083-.034a.937.937,0,0,0,.066.176.5.5,0,0,1,.051.214" transform="translate(16322 14135)" fill="#e0be9b"/>
    <path id="Path_144541" data-name="Path 144541" d="M1697.733,695.262a.235.235,0,0,1-.026.1.185.185,0,0,1-.054.072,1.354,1.354,0,0,1-.373.149,1.571,1.571,0,0,1-.4.07.21.21,0,0,1-.037,0,.619.619,0,0,1-.22-.075l-.027-.017c0-.006.011-.006.032-.006a2.193,2.193,0,0,0,.309-.022c.027-.034.054-.065.081-.1a.232.232,0,0,0,.046-.082.459.459,0,0,0,.01-.11,3.577,3.577,0,0,0-.06-.519,4.3,4.3,0,0,1-.069-.512l-.017-.028c.006-.015.016-.042.028-.076s.017-.038.02-.038a1.5,1.5,0,0,1,.1.213c.015.034.02.055.014.059s-.032-.013-.064-.061c0,0,.024.16.072.469a2.894,2.894,0,0,1,.04.353.962.962,0,0,1-.024.224.73.73,0,0,1,.147-.128.442.442,0,0,1,.228-.1.293.293,0,0,1,.164.047.146.146,0,0,1,.083.118m-.065.065c0-.016-.021-.038-.062-.063a.278.278,0,0,0-.163-.049q-.18,0-.441.31a2.119,2.119,0,0,0,.445-.1c.147-.05.221-.08.221-.1" transform="translate(16322 14135)" fill="#e0be9b"/>
    <path id="Path_144542" data-name="Path 144542" d="M1689.236,696.443a.285.285,0,0,1-.019-.447,2.888,2.888,0,0,0,.254-.3.4.4,0,0,0-.089-.607.788.788,0,0,1-.345-.539,2.952,2.952,0,0,1,.338-.463c.386-.409.383-.484-.037-.835-.114-.1-.234-.192-.4-.325a.756.756,0,0,1-.3.594.4.4,0,0,0-.035.614,2.822,2.822,0,0,0,.279.28.4.4,0,0,1,.1.157c-.128.122-.228.22-.321.315-.387.39-.383.464.037.832a.232.232,0,0,1,.023.022.364.364,0,0,1,.075.555c-.062.09-.146.17-.218.255-.217.262-.214.384.054.6.207.168.389.33.262.643a1.868,1.868,0,0,0,.631-.577.436.436,0,0,0-.1-.613c-.059-.055-.129-.1-.185-.158" transform="translate(16322 14135)" fill="#e0be9b"/>
    <path id="Path_144543" data-name="Path 144543" d="M1718.818,696.443a.286.286,0,0,1-.019-.447,2.647,2.647,0,0,0,.253-.3.4.4,0,0,0-.088-.607.787.787,0,0,1-.344-.539,2.887,2.887,0,0,1,.338-.463c.386-.409.382-.484-.037-.835-.115-.1-.234-.192-.4-.325a.752.752,0,0,1-.3.594.4.4,0,0,0-.034.614,2.731,2.731,0,0,0,.279.28.389.389,0,0,1,.1.157c-.127.122-.228.22-.321.315-.387.39-.383.464.038.832a.153.153,0,0,1,.022.022.364.364,0,0,1,.075.555c-.061.09-.146.17-.217.255-.218.262-.215.384.054.6.206.168.389.33.262.643a1.878,1.878,0,0,0,.631-.577.437.437,0,0,0-.106-.613c-.058-.055-.127-.1-.184-.158" transform="translate(16322 14135)" fill="#e0be9b"/>
    <path id="Path_144544" data-name="Path 144544" d="M1713.7,684.393q0,.681-.594.68c-.19,0-.286-.123-.286-.37a1.524,1.524,0,0,1,.26-.828c.05-.155.088-.234.115-.234s.032.018.014.056a.482.482,0,0,0-.041.178c.354.219.532.392.532.518m-.171.148c0-.022-.067-.087-.2-.187a1.215,1.215,0,0,0-.222-.154c-.013,0-.037.05-.071.15a.771.771,0,0,0-.051.212c0,.1.054.15.164.15a.727.727,0,0,0,.224-.062c.1-.039.157-.076.157-.109" transform="translate(16322 14135)" fill="#e0be9b"/>
    <path id="Path_144545" data-name="Path 144545" d="M1699.851,709.442q0,.719-.628.719c-.2,0-.3-.129-.3-.389a1.6,1.6,0,0,1,.274-.879c.052-.165.094-.247.123-.247s.034.019.014.06a.493.493,0,0,0-.043.187c.374.229.563.413.563.549m-.181.156c0-.024-.071-.091-.213-.2a1.262,1.262,0,0,0-.234-.161c-.014,0-.04.052-.076.157a.817.817,0,0,0-.054.224c0,.106.058.16.173.16a.756.756,0,0,0,.238-.066c.111-.043.166-.081.166-.116" transform="translate(16322 14135)" fill="#e0be9b"/>
    <path id="Path_144546" data-name="Path 144546" d="M1691.417,689.3c0,.424-.185.637-.556.637-.178,0-.267-.113-.267-.346a1.417,1.417,0,0,1,.244-.774c.046-.147.082-.22.108-.22s.029.019.012.053a.433.433,0,0,0-.038.167c.33.2.5.363.5.483m-.159.139c0-.021-.062-.08-.189-.175a1,1,0,0,0-.208-.141c-.011,0-.033.045-.065.137a.714.714,0,0,0-.048.2c0,.092.05.138.153.138a.661.661,0,0,0,.21-.055c.1-.04.147-.073.147-.1" transform="translate(16322 14135)" fill="#e0be9b"/>
    <path id="Path_144547" data-name="Path 144547" d="M1706.307,679.2c0-.007.007-.015.006-.021h.007a.012.012,0,0,1,0,.02c-.025.2-.085.311-.167.315-.1.009-.15-.063-.161-.207a1.149,1.149,0,0,1,.125-.575c.027-.05.04-.071.049-.072a.8.8,0,0,1-.017.084,1.424,1.424,0,0,0-.083.428c.009.115.042.168.111.164.038,0,.08-.05.127-.136" transform="translate(16322 14135)" fill="#e0be9b"/>
    <path id="Path_144548" data-name="Path 144548" d="M1705.643,679.8a.448.448,0,0,1,.376.255,1.643,1.643,0,0,1,.231.681c.007.03.015.045.007.045.008.008.014.008.014,0a.225.225,0,0,0,.016-.045,6.05,6.05,0,0,1,.168-.744c.093-.24.2-.351.308-.351.061,0,.116.039.176.119a.374.374,0,0,1,.077.168.646.646,0,0,1-.03.137c-.024.07-.047.111-.077.111s-.038-.031-.085-.089a.155.155,0,0,0-.13-.079c-.1,0-.192.239-.276.733a1.848,1.848,0,0,1-.122.449c-.031.062-.062.093-.085.093s-.031-.031-.031-.087a2,2,0,0,0-.137-.5c-.1-.249-.161-.37-.208-.37a.054.054,0,0,0-.053.026c0,.014-.024.031-.062.031s-.1-.031-.169-.1-.1-.112-.1-.152a.534.534,0,0,1,.084-.182c.054-.1.092-.145.107-.145" transform="translate(16322 14135)" fill="#e0be9b"/>
    <path id="Path_144549" data-name="Path 144549" d="M1706.734,683.894a.6.6,0,0,0-.274-.429.826.826,0,0,0-.544-.113c-.68.1-1.358.67-2.072,1.746-.444.667-.729,1.095-.761,1.139a1.405,1.405,0,0,1-.784.593.382.382,0,0,1-.361-.119.617.617,0,0,1-.174-.4,3.256,3.256,0,0,1,.089-1.034,4.036,4.036,0,0,0,.14-.821.088.088,0,0,0-.094-.071c-.056.007-.1.094-.118.164a4.327,4.327,0,0,0-.3,1.866,1.361,1.361,0,0,0,.4.837.89.89,0,0,0,.592.256.773.773,0,0,0,.108-.007,1.39,1.39,0,0,0,.863-.655c.3-.475.607-.938.9-1.375a2.635,2.635,0,0,1,1.539-1.246.583.583,0,0,1,.606.263l.014.017c.043.058.064.083.109.083h0c.044,0,.079-.05.1-.138a1.36,1.36,0,0,0,.018-.552" transform="translate(16322 14135)" fill="#b79776"/>
    <path id="Path_144550" data-name="Path 144550" d="M1702.5,679.326c-.317-1.071-.349-1.078-.411-1.087-.039,0-.062,0-.229.314-.125.227-.216.4-.276.517-.043.087.025.194.088.273,0,.565,0,.721,0,.762a.317.317,0,0,0,0,.089l.01.229c.033,1,.065,1.674.089,2.164.036.76.055,1.141.032,1.778-.006.055-.025.3-.055.731-.019.228-.011.365.084.378h.012c.071,0,.158-.055.385-.735a4.085,4.085,0,0,0,.185-.771l.021-.14a7.832,7.832,0,0,0,.039-1.419,10.988,10.988,0,0,0-.107-1.8,2.963,2.963,0,0,1-.049-.417c.058.081.1.143.121.174.109.165.186.235.259.235a.123.123,0,0,0,.047-.011c.059-.036.113-.067-.24-1.266" transform="translate(16322 14135)" fill="#b79776"/>
    <path id="Path_144551" data-name="Path 144551" d="M1704.9,688.272a.082.082,0,0,0-.086-.044c-.063,0-.219.015-.476.048a18.1,18.1,0,0,1-1.928.145c-.1,0-.2.006-.3.006a4.287,4.287,0,0,1-2.4-.516,1.567,1.567,0,0,1-.653-1.345,3.058,3.058,0,0,1,.366-1.551,2.431,2.431,0,0,1,.886-.962.259.259,0,0,1,.034.036c.056.073.1.1.142.1.07,0,.089-.086.106-.19a.823.823,0,0,0,.008-.157c.144-.095.3-.188.471-.283l.955-.479c.448-.225.861-.432,1.236-.618l.02-.01.009-.02a2.472,2.472,0,0,0,.246-.67c0-.075,0-.086-1.167-.168-.842-.061-1.577-.082-2.193-.069-.759.019-1.2.153-1.362.407a.952.952,0,0,0-.172.517.942.942,0,0,0,.5.72c.259.17.517.337.773.5a3.817,3.817,0,0,0-.983,1.652,4.846,4.846,0,0,0-.241,1.571,2.161,2.161,0,0,0,.9,1.909,4.291,4.291,0,0,0,2.265.473l.27,0a3.915,3.915,0,0,0,.964-.122,8.459,8.459,0,0,0,1.04-.43c.791-.366.789-.377.771-.449m-5.244-5.6c-.269-.168-.39-.25-.443-.29a3.976,3.976,0,0,1,.956-.088,15.627,15.627,0,0,1,1.936.048,9.953,9.953,0,0,0-1.7.976,2.715,2.715,0,0,0-.752-.646" transform="translate(16322 14135)" fill="#b79776"/>
    <path id="Path_144552" data-name="Path 144552" d="M1699.8,686.384l.625.361.291-.578-.624-.359Z" transform="translate(16322 14135)" fill="#b79776"/>
    <path id="Path_144553" data-name="Path 144553" d="M1710.165,683.732c-.034-.126-.062-.189-.124-.189s-.074.035-.155.265a1.143,1.143,0,0,0-.081.284.278.278,0,0,0,.064.144.192.192,0,0,1,.041.1.045.045,0,0,1-.008.027c-.01.011-.048.038-.179.042a.394.394,0,0,1-.309-.129.29.29,0,0,1-.083-.3c.031-.108.047-.178,0-.21a.1.1,0,0,0-.065-.022c-.069,0-.119.072-.15.124a1.19,1.19,0,0,0-.116.269c-.121.364-.318.544-.6.552h-.027c-.338,0-.382-.171-.385-.3a.625.625,0,0,1,.061-.241.134.134,0,0,0,.013-.1.106.106,0,0,0-.054-.055l-.028,0a.2.2,0,0,0-.125.063,1.021,1.021,0,0,0-.125.16c-.286.429-.571.651-.848.656l-1.2.033c-.234-.005-3.976-.034-4.4-.027a1.921,1.921,0,0,0-.767.179l-.028.012c-.348.13-.757.318-.733.473.014.095.142.095.2.095s.108,0,.18-.011c.4-.038.681-.065.734-.075l.476-.011,4.126.038,1.3-.036a.994.994,0,0,0,.71-.36c.08-.106.15-.205.208-.291a.66.66,0,0,0,.162.294.6.6,0,0,0,.452.189h0a.746.746,0,0,0,.443-.173.837.837,0,0,0,.261-.32c.028-.062.05-.112.067-.152a.524.524,0,0,0,.539.356h.023c.4-.008.594-.349.579-1.008a1.391,1.391,0,0,0-.052-.352" transform="translate(16322 14135)" fill="#b79776"/>
    <path id="Path_144554" data-name="Path 144554" d="M1698.448,684.061a.641.641,0,0,1-.045.224c-.043.09-.1.146-.159.146-.1,0-.168-.074-.212-.222-.044.184-.133.278-.257.278a.175.175,0,0,1-.124-.073.482.482,0,0,1-.054-.232v-.223c0-.016-.017-.026-.034-.036a.049.049,0,0,1-.036-.054.251.251,0,0,1,.053-.147c.036-.037.063-.057.08-.057s.044.046.044.138c0,.058-.008.1-.008.13a.358.358,0,0,0-.009.093.4.4,0,0,0,.026.146c.027.065.053.092.089.092a.2.2,0,0,0,.142-.074.221.221,0,0,0,.061-.155,1.5,1.5,0,0,0-.034-.174.641.641,0,0,1-.037-.15.324.324,0,0,1,.027-.09c.018-.039.027-.057.035-.057s.036.057.063.167a1.268,1.268,0,0,1,.044.249c0,.146.053.229.168.229.045,0,.071-.027.089-.083a.958.958,0,0,1-.151-.4.237.237,0,0,1,.045-.14c.017-.037.026-.044.035-.044s.017.017.017.044a.527.527,0,0,0,.027.129s.027.067.07.184a.565.565,0,0,1,.045.166" transform="translate(16322 14135)" fill="#e0be9b"/>
    <path id="Path_144555" data-name="Path 144555" d="M1705.092,687.378c.8-.3,1.835-.77,2.695-1.093.033-.011.055-.021.064-.011s.012.022-.009.055a.542.542,0,0,1-.087.168c-.732.279-1.758.705-2.725,1.119a1.129,1.129,0,0,1,.062-.238" transform="translate(16322 14135)" fill="#e0be9b"/>
    <path id="Path_144556" data-name="Path 144556" d="M1710.268,686.463a.185.185,0,0,1-.02.088.073.073,0,0,1-.066.041.05.05,0,0,1-.05-.029.3.3,0,0,1-.01-.056.279.279,0,0,1-.044.082.08.08,0,0,1-.064.029l-.027,0a.36.36,0,0,1-.028.162.4.4,0,0,1-.154.136.481.481,0,0,1-.261.091.182.182,0,0,1-.18-.1.32.32,0,0,1-.027-.128.554.554,0,0,1,.019-.142c.012-.046.022-.063.031-.06l-.009.049a.5.5,0,0,0-.013.1.2.2,0,0,0,.037.127.183.183,0,0,0,.162.07.521.521,0,0,0,.264-.093c.082-.051.126-.086.131-.108a.248.248,0,0,0-.013-.082.375.375,0,0,0-.035-.1.186.186,0,0,1,.01-.042.144.144,0,0,1,.013-.042l.009.014a.221.221,0,0,0,.029.049c.011.016.028.02.054.02a.07.07,0,0,0,.056-.023.215.215,0,0,0,.04-.061c.017-.029.028-.042.031-.042s0,.008,0,.022l-.005.023q0,.057.048.057c.027,0,.04-.009.04-.022a.079.079,0,0,0-.007-.021l-.006-.014s0-.014.01-.039.012-.032.012-.032.008.011.015.032a.243.243,0,0,1,.009.056" transform="translate(16322 14135)" fill="#e0be9b"/>
    <path id="Path_144557" data-name="Path 144557" d="M1710.122,681.118a1.258,1.258,0,0,1-.1.168.63.63,0,0,1-.112.113.11.11,0,0,0-.011.162c.055.088.123.147.223.125.066-.014.093.027.074.084a.316.316,0,0,1-.616-.075.478.478,0,0,1,.085-.279.81.81,0,0,1,.192-.2,1.752,1.752,0,0,1,.225-.138l.038.044" transform="translate(16322 14135)" fill="#e0be9b" fill-rule="evenodd"/>
    <path id="Path_144558" data-name="Path 144558" d="M1710.568,682.1a1.775,1.775,0,0,1,.032-.193.76.76,0,0,1,.067-.148c.037-.066.008-.115-.046-.155a.2.2,0,0,0-.251-.031c-.056.04-.1.008-.1-.052a.344.344,0,0,1,.038-.167.319.319,0,0,1,.564.006.488.488,0,0,1,.017.293.8.8,0,0,1-.108.261,1.563,1.563,0,0,1-.163.212.481.481,0,0,1-.05-.026" transform="translate(16322 14135)" fill="#e0be9b" fill-rule="evenodd"/>
    <path id="Path_144559" data-name="Path 144559" d="M1715.341,699.965a1.738,1.738,0,0,0-.794-.748,9.031,9.031,0,0,0-2.331-.314c-1.69-.1-2.877-.2-3.582-.3.049-.07.1-.139.154-.207a8.483,8.483,0,0,1,.942-.961c.034-.03.07-.059.1-.088l.022-.019c.111-.09.227-.178.347-.267.068-.048.133-.1.2-.14,1.166-.8,2.03-1.372,2.586-1.693a.586.586,0,0,0,.067-.116c.046-.095.112-.243.2-.457.154-.368.217-.561.191-.582s-.167.04-.422.2c-.015.01-.03.017-.045.028q-1.683,1.071-2.661,1.716a1.337,1.337,0,0,1-.579.112c-.014,0-.029,0-.043-.005a2.654,2.654,0,0,1-1.594-.595c-.073-.059-.142-.118-.208-.178a3.265,3.265,0,0,1-.315-.343,2.993,2.993,0,0,1-.594-1.327,6.209,6.209,0,0,1,3.234-.837,3.151,3.151,0,0,1,.855.1,1.809,1.809,0,0,0,.489.1c.034-.026-.062-.113-.284-.256a4.034,4.034,0,0,0-2.168-.744,2.537,2.537,0,0,0-2.029.929,2.2,2.2,0,0,0-.608,1.4,2.5,2.5,0,0,0,.775,1.744,3.45,3.45,0,0,0,1.807,1.025c-.228.284-.423.546-.581.781a6.712,6.712,0,0,0-.37.563c-.182-.046-1.678-.574-1.755-.574s-.142,0-.143.039c0,.061,1.51.674,1.736.82l.021.013a8.092,8.092,0,0,0-.825,3.484c0,.126,0,.248,0,.369,0,.069,0,.144.009.211,0,.013,0,.022,0,.034.125,2.158,1.162,3.29,3.137,3.4.068,0,.134.007.2.009a4.6,4.6,0,0,0,2.754-.873,6.385,6.385,0,0,0,.756-.612,4.862,4.862,0,0,0,1.653-3.532,2.369,2.369,0,0,0-.319-1.308m-2.435,4.545a4.559,4.559,0,0,1-2.207.547,5.56,5.56,0,0,1-.771-.064,2.6,2.6,0,0,1-2.4-2.971c0-.077.006-.156.014-.233a7.311,7.311,0,0,1,.843-2.769,6.9,6.9,0,0,0,1.921.768,9.727,9.727,0,0,0,1.851.2,8.671,8.671,0,0,1,1.869.223,1.861,1.861,0,0,1,1,.711,1.545,1.545,0,0,1,.325.949,2.23,2.23,0,0,1-.706,1.35,5.86,5.86,0,0,1-1.735,1.287" transform="translate(16322 14135)" fill="#b79776"/>
    <path id="Path_144560" data-name="Path 144560" d="M1664.79,731.718h.869l1.979,4.056h.039l1.937-4.056h.859V737h-.859v-4.33h-.026l-2.083,4.33h-.173l-2.108-4.3h-.058V737h-.376Z" transform="translate(16322 14135)" fill="#b79776"/>
  </g>
</svg>
