<svg xmlns="http://www.w3.org/2000/svg" width="52.533" height="68.265" viewBox="0 0 52.533 68.265">
  <g id="Client_18_" data-name="Client_18 " transform="translate(-16416.455 -14258.748)">
    <path id="Path_144723" data-name="Path 144723" d="M98.353,132.289s.887-6.437,8.591-5.392c0,0,5.479.841,5.609,5.425a5.331,5.331,0,0,1-1.064,3.341c-.831,1.11-2.174,1.977-5.2,2.067a29.086,29.086,0,0,0-5.821.389s-4.45.752-5.641,6.654v7.044h19.8v-3.158H97.792s-.373-3.036.584-4.833a4.488,4.488,0,0,1,.814-1.178,5.071,5.071,0,0,1,4.065-1.588c1.326.09,6.326.556,8.778-1.507a9.472,9.472,0,0,0,3.525-6.268,11.536,11.536,0,0,0-.094-2.355,8.624,8.624,0,0,0-5.742-6.582c-1.152-.43-7.881-1.81-11.8,1.99a8.167,8.167,0,0,0-2.013,3.313c-.236.711-.549,1.662-.686,2.1Z" transform="translate(16322 14135)" fill="#62b947"/>
    <path id="Path_144724" data-name="Path 144724" d="M134.146,151.144a13.372,13.372,0,1,1,12.843-13.362,13.125,13.125,0,0,1-12.843,13.362m0-24.82a11.468,11.468,0,1,0,11.013,11.458,11.255,11.255,0,0,0-11.013-11.458" transform="translate(16322 14135)" fill="#62b947"/>
    <path id="Path_144725" data-name="Path 144725" d="M139.742,137.915l-9.325-5.6v11.205Z" transform="translate(16322 14135)" fill="#62b947"/>
    <path id="Path_144726" data-name="Path 144726" d="M95.295,159.224h17.928v3.305l-6.832,7.014a.271.271,0,0,0,.131.454c1.333.264,5.043,1.217,6.72,3.868,1.975,3.121,2.589,7.5-1.324,10.952a10.685,10.685,0,0,1-4.01,2.21,12.585,12.585,0,0,1-9.392-1.035s-2.8-1.506-4.061-6.317l3.035-.388a6.256,6.256,0,0,0,4.762,4.857,9.955,9.955,0,0,0,6.588-.8,5.5,5.5,0,0,0,2.773-5.459c-.234-1.729-1.378-3.722-5.019-4.765h-5.276v-2.868l7.05-7.189v-.533H95.295Z" transform="translate(16322 14135)" fill="#62b947"/>
    <path id="Path_144727" data-name="Path 144727" d="M127.582,192.013v-5.541a12.141,12.141,0,0,1-4.017-2.589c-2.068-2-4.446-5.742-4.027-12.216l0-.057a11.633,11.633,0,0,1,.48-2.1,13.645,13.645,0,0,1,12.807-9.266h.144a12.779,12.779,0,0,1,8.688,3.336,15.322,15.322,0,0,1,4.089,9.617,14.845,14.845,0,0,1-4.253,10.8c-1.9,2.106-4.248,2.621-7.793,3.4l-.326.074c-.063.035-.175.115-.215.143h0Zm-6.22-20.187c-.683,10.8,7.027,12.944,7.355,13.029l.692.183,0,.742v2.4l2.713-2.136a2.324,2.324,0,0,1,.819-.428l.38-.084c3.435-.759,5.328-1.177,6.841-2.848a12.97,12.97,0,0,0,3.757-9.4A13.419,13.419,0,0,0,140.45,165a10.981,10.981,0,0,0-7.476-2.86h-.144a11.8,11.8,0,0,0-11.086,8.008,9.567,9.567,0,0,0-.382,1.674" transform="translate(16322 14135)" fill="#62b947"/>
  </g>
</svg>
