<svg xmlns="http://www.w3.org/2000/svg" xmlns:xlink="http://www.w3.org/1999/xlink" width="43.85" height="64.454" viewBox="0 0 43.85 64.454">
  <defs>
    <clipPath id="clip-path">
      <path id="Path_145239" data-name="Path 145239" d="M982.867,366.639v4.534a.977.977,0,0,1-.071.368.939.939,0,0,1-.33.416.881.881,0,0,1-.509.162.894.894,0,0,1-.353-.073.943.943,0,0,1-.4-.345.96.96,0,0,1-.155-.528v-4.534h-1.684v4.533a2.791,2.791,0,0,0,.2,1.049,2.691,2.691,0,0,0,.94,1.189,2.509,2.509,0,0,0,2.461.248,2.639,2.639,0,0,0,1.141-.978,2.769,2.769,0,0,0,.443-1.508V366.64h-1.685Z" fill="none"/>
    </clipPath>
    <linearGradient id="linear-gradient" x1="-110.083" y1="86.961" x2="-109.97" y2="86.961" gradientUnits="objectBoundingBox">
      <stop offset="0" stop-color="#592c82"/>
      <stop offset="1" stop-color="#00bed6"/>
    </linearGradient>
    <clipPath id="clip-path-2">
      <path id="Path_145240" data-name="Path 145240" d="M981.957,356.618a2.5,2.5,0,0,0-1.009.211,2.639,2.639,0,0,0-1.141.977,2.771,2.771,0,0,0-.443,1.509v4.443h1.684v-4.443a.966.966,0,0,1,.071-.366.943.943,0,0,1,.331-.418.871.871,0,0,1,.507-.161.855.855,0,0,1,.353.074.923.923,0,0,1,.4.345.966.966,0,0,1,.153.526v4.443h1.685v-4.443a2.79,2.79,0,0,0-.205-1.05,2.678,2.678,0,0,0-.938-1.186,2.52,2.52,0,0,0-1.449-.461Z" fill="none"/>
    </clipPath>
    <linearGradient id="linear-gradient-2" x1="-111.09" y1="88.717" x2="-110.977" y2="88.717" xlink:href="#linear-gradient"/>
    <clipPath id="clip-path-3">
      <path id="Path_145241" data-name="Path 145241" d="M971.471,366.636v4.537a.975.975,0,0,1-.07.368.949.949,0,0,1-.331.416.876.876,0,0,1-.508.162.907.907,0,0,1-.354-.073.937.937,0,0,1-.4-.345.96.96,0,0,1-.154-.528v-4.537h-1.685v4.537a2.774,2.774,0,0,0,.2,1.049,2.669,2.669,0,0,0,.939,1.189,2.509,2.509,0,0,0,2.461.248,2.631,2.631,0,0,0,1.14-.978,2.77,2.77,0,0,0,.444-1.508v-4.536h-1.686Z" fill="none"/>
    </clipPath>
    <linearGradient id="linear-gradient-3" x1="-108.763" y1="86.936" x2="-108.65" y2="86.936" xlink:href="#linear-gradient"/>
    <clipPath id="clip-path-4">
      <path id="Path_145242" data-name="Path 145242" d="M970.562,356.618a2.5,2.5,0,0,0-1.01.211,2.65,2.65,0,0,0-1.141.977,2.78,2.78,0,0,0-.443,1.509v4.437h1.685v-4.437a.947.947,0,0,1,.071-.366.929.929,0,0,1,.331-.418.871.871,0,0,1,.507-.161.858.858,0,0,1,.353.074.908.908,0,0,1,.4.345.951.951,0,0,1,.154.526v4.437h1.686v-4.436a2.791,2.791,0,0,0-.2-1.05,2.674,2.674,0,0,0-.939-1.186,2.517,2.517,0,0,0-1.448-.461Z" fill="none"/>
    </clipPath>
    <linearGradient id="linear-gradient-4" x1="-109.851" y1="88.743" x2="-109.737" y2="88.743" xlink:href="#linear-gradient"/>
    <clipPath id="clip-path-5">
      <path id="Path_145243" data-name="Path 145243" d="M974.154,362.647h0Zm2.942-3.064a.659.659,0,0,0-.429.189.761.761,0,0,0-.209.42l-.323,1.866v.008l-.4,2.646-.339-1.921a.758.758,0,0,0-.184-.384.617.617,0,0,0-.383-.206.585.585,0,0,0-.445.126.713.713,0,0,0-.232.32l-.676,1.807H966.4a.576.576,0,0,0-.273.069.679.679,0,0,0-.282.28.83.83,0,0,0-.1.394.8.8,0,0,0,.172.5.687.687,0,0,0,.208.172.586.586,0,0,0,.273.067h7.514a.611.611,0,0,0,.375-.133.719.719,0,0,0,.226-.318l.027-.07.608,3.237a.774.774,0,0,0,.209.407.615.615,0,0,0,.431.185h.012a.61.61,0,0,0,.24-.058.656.656,0,0,0,.265-.229.778.778,0,0,0,.126-.323l.342-1.978h0l0-.006.277-1.848.249,1.949h0a.762.762,0,0,0,.176.408.652.652,0,0,0,.173.145.6.6,0,0,0,.223.077h0l.073,0a.6.6,0,0,0,.389-.146.734.734,0,0,0,.23-.348h0l.29-.947h7.267a.576.576,0,0,0,.274-.071.661.661,0,0,0,.281-.28.808.808,0,0,0,.1-.393.79.79,0,0,0-.174-.5.629.629,0,0,0-.207-.171.571.571,0,0,0-.274-.068h-7.73l-.067,0-.575-4.247v0a.779.779,0,0,0-.2-.433.662.662,0,0,0-.194-.145.586.586,0,0,0-.246-.058Z" fill="none"/>
    </clipPath>
    <linearGradient id="linear-gradient-5" x1="-50.217" y1="31.644" x2="-50.165" y2="31.644" xlink:href="#linear-gradient"/>
    <clipPath id="clip-path-6">
      <path id="Path_145244" data-name="Path 145244" d="M975.491,381.927a2.175,2.175,0,0,1-.592-.232l-11.652-7a2.365,2.365,0,0,1-.488-.418,3.771,3.771,0,0,1-.638-1.017,2.741,2.741,0,0,1-.234-1.019v-14a2.387,2.387,0,0,1,.1-.652,3.659,3.659,0,0,1,.527-1.081,2.566,2.566,0,0,1,.73-.721l11.652-7a2.143,2.143,0,0,1,.592-.231,3.329,3.329,0,0,1,1.538,0,2.122,2.122,0,0,1,.591.231l11.652,7a2.238,2.238,0,0,1,.489.416,3.688,3.688,0,0,1,.637,1.017,2.717,2.717,0,0,1,.235,1.021v14a2.385,2.385,0,0,1-.1.65,3.738,3.738,0,0,1-.528,1.081,2.619,2.619,0,0,1-.73.723l-11.65,7a2.2,2.2,0,0,1-.593.232,3.342,3.342,0,0,1-.769.087h-.007a3.33,3.33,0,0,1-.762-.087m-.5-35.6a4.286,4.286,0,0,0-1.2.479l-11.651,7a4.376,4.376,0,0,0-1,.836A6.053,6.053,0,0,0,960.1,356.3a5.079,5.079,0,0,0-.421,1.943v14a4.722,4.722,0,0,0,.2,1.317,6.043,6.043,0,0,0,.862,1.778,4.8,4.8,0,0,0,1.406,1.349l11.651,7a4.317,4.317,0,0,0,1.2.479,5.5,5.5,0,0,0,2.542,0,4.331,4.331,0,0,0,1.2-.479l11.651-7a4.405,4.405,0,0,0,1-.838,5.962,5.962,0,0,0,1.05-1.665,5.055,5.055,0,0,0,.421-1.941v-14a4.733,4.733,0,0,0-.2-1.319,5.981,5.981,0,0,0-.862-1.778,4.771,4.771,0,0,0-1.406-1.349l-11.651-7a4.3,4.3,0,0,0-1.2-.479,5.46,5.46,0,0,0-2.542,0" fill="none"/>
    </clipPath>
    <linearGradient id="linear-gradient-6" x1="-19.078" y1="15.319" x2="-19.058" y2="15.319" xlink:href="#linear-gradient"/>
  </defs>
  <g id="Client_44" transform="translate(-17274.205 -14481.173)">
    <path id="Path_145217" data-name="Path 145217" d="M957.476,402.985a.706.706,0,0,0-.691.72v2.248h-3.2V403.7a.691.691,0,1,0-1.381,0v6.2a.691.691,0,1,0,1.381,0v-2.584h3.2v2.584a.691.691,0,1,0,1.381,0v-6.2a.705.705,0,0,0-.69-.72" transform="translate(16322 14135)" fill="#592c82"/>
    <path id="Path_145218" data-name="Path 145218" d="M960.748,409.906Z" transform="translate(16322 14135)" fill="#592c82"/>
    <path id="Path_145219" data-name="Path 145219" d="M963.973,403.556h0v0Z" transform="translate(16322 14135)" fill="#592c82"/>
    <path id="Path_145220" data-name="Path 145220" d="M964.664,402.838a.706.706,0,0,0-.691.718v4.423l-3.34-4.819c-.006-.01-.013-.017-.019-.028l-.016-.023a.68.68,0,0,0-.54-.271.7.7,0,0,0-.691.72v6.348a.691.691,0,1,0,1.381,0v-4.424l3.34,4.82c.006.01.013.017.019.026l.016.025h0a.678.678,0,0,0,.54.27.7.7,0,0,0,.69-.719v-6.348a.7.7,0,0,0-.69-.72" transform="translate(16322 14135)" fill="#592c82"/>
    <path id="Path_145221" data-name="Path 145221" d="M967.136,410.625h-.11a.675.675,0,0,0,.11,0" transform="translate(16322 14135)" fill="#592c82"/>
    <path id="Path_145222" data-name="Path 145222" d="M970.6,407.792h.012l-1-2.533Z" transform="translate(16322 14135)" fill="#592c82"/>
    <path id="Path_145223" data-name="Path 145223" d="M972.211,410.625h-.11a.675.675,0,0,0,.11,0" transform="translate(16322 14135)" fill="#592c82"/>
    <path id="Path_145224" data-name="Path 145224" d="M968.622,407.792h.013l.983-2.533Z" transform="translate(16322 14135)" fill="#592c82"/>
    <path id="Path_145225" data-name="Path 145225" d="M970.183,403.448h0a.575.575,0,0,0-1.126,0h0l-2.635,6.273a.7.7,0,0,0,.452.875.754.754,0,0,0,.156.029h.109a.624.624,0,0,0,.531-.386l.045-.114.406-1.044h3l.407,1.044.045.114a.623.623,0,0,0,.531.386h.109a.8.8,0,0,0,.157-.029.694.694,0,0,0,.45-.875Zm.42,4.344h-1.981l1-2.533,1,2.533Z" transform="translate(16322 14135)" fill="#592c82"/>
    <path id="Path_145226" data-name="Path 145226" d="M974.71,407.584a1.859,1.859,0,0,1,.494-1.29,1.677,1.677,0,0,1,.716-.447,1.778,1.778,0,0,1,.538-.08q.062,0,.12,0l.029,0,.087.008.018,0a1.489,1.489,0,0,1,.576.21,1.622,1.622,0,0,1,.338.289.607.607,0,0,0,.586.153l.273-.167a.661.661,0,0,0,.029-.872,2.931,2.931,0,0,0-2.056-.853,3.65,3.65,0,0,0-.521.038c-.126.021-.248.046-.366.078a2.9,2.9,0,0,0-1.369.829,3.121,3.121,0,0,0,0,4.193,2.9,2.9,0,0,0,1.369.828,3.255,3.255,0,0,0,.366.077,3.507,3.507,0,0,0,.521.039,2.939,2.939,0,0,0,2.056-.852.661.661,0,0,0-.029-.872l-.273-.167a.6.6,0,0,0-.586.153,1.649,1.649,0,0,1-.338.288,1.473,1.473,0,0,1-.576.21l-.018,0c-.028,0-.057.006-.087.007l-.029,0c-.039,0-.079,0-.12,0a1.809,1.809,0,0,1-.538-.08,1.669,1.669,0,0,1-.716-.448,1.857,1.857,0,0,1-.494-1.29" transform="translate(16322 14135)" fill="#592c82"/>
    <path id="Path_145227" data-name="Path 145227" d="M984.8,404.543a.613.613,0,0,0-.62.606v.205a2.069,2.069,0,0,0-1.734-.811,2.825,2.825,0,0,0-2.15.985,3.186,3.186,0,0,0-.8,2.056,3.228,3.228,0,0,0,.756,2.08,2.741,2.741,0,0,0,2.128.961,2.259,2.259,0,0,0,1.8-.816v.171a.62.62,0,1,0,1.24,0v-4.831a.613.613,0,0,0-.62-.606m-1.081,4.331a1.625,1.625,0,0,1-1.183.529,1.678,1.678,0,0,1-1.213-.529,1.886,1.886,0,0,1,0-2.58,1.681,1.681,0,0,1,1.213-.528,1.628,1.628,0,0,1,1.183.528,1.914,1.914,0,0,1,0,2.58" transform="translate(16322 14135)" fill="#592c82"/>
    <path id="Path_145228" data-name="Path 145228" d="M989.794,405.323a.6.6,0,0,0,0-.175Z" transform="translate(16322 14135)" fill="#592c82"/>
    <path id="Path_145229" data-name="Path 145229" d="M989.148,404.657h0a.107.107,0,0,0,.019,0l-.019,0" transform="translate(16322 14135)" fill="#592c82"/>
    <path id="Path_145230" data-name="Path 145230" d="M989.793,405.141a.566.566,0,0,0-.627-.485l-.018,0a1.849,1.849,0,0,0-.369.1,2.459,2.459,0,0,0-.48.249.928.928,0,0,0-.26.264v-.108a.588.588,0,1,0-1.175,0v4.811a.626.626,0,1,0,1.252,0v-3.315a.736.736,0,0,1,.24-.562,1.183,1.183,0,0,1,.548-.266,1.386,1.386,0,0,1,.34-.043.577.577,0,0,0,.55-.463v-.183" transform="translate(16322 14135)" fill="#592c82"/>
    <path id="Path_145231" data-name="Path 145231" d="M994.448,408.914h0l.013-.013-.013.013" transform="translate(16322 14135)" fill="#592c82"/>
    <path id="Path_145232" data-name="Path 145232" d="M995.081,408.78l.132.078a.674.674,0,0,0-.132-.078" transform="translate(16322 14135)" fill="#592c82"/>
    <path id="Path_145233" data-name="Path 145233" d="M996.049,407.423a3.159,3.159,0,0,0-.99-2.1,2.884,2.884,0,0,0-1.878-.776,3,3,0,0,0-2.256.945,3.121,3.121,0,0,0,0,4.193,3,3,0,0,0,2.256.944,3.086,3.086,0,0,0,2.088-.856.633.633,0,0,1,.054-.051.6.6,0,0,0-.048-.8.674.674,0,0,0-.062-.056l-.132-.078a.537.537,0,0,0-.62.121l-.012.013a1.785,1.785,0,0,1-1.294.557,1.73,1.73,0,0,1-1.1-.41,1.526,1.526,0,0,1-.537-1.012h4.018a.533.533,0,0,0,.523-.54v0a.7.7,0,0,0-.006-.082m-4.529-.464a1.677,1.677,0,0,1,.539-.921,1.483,1.483,0,0,1,.967-.34,1.566,1.566,0,0,1,.982.33,1.835,1.835,0,0,1,.6.931Z" transform="translate(16322 14135)" fill="#592c82"/>
    <path id="Path_145234" data-name="Path 145234" d="M982.978,391.125a.937.937,0,1,0-.9-.937.919.919,0,0,0,.9.937" transform="translate(16322 14135)" fill="#592c82"/>
    <path id="Path_145235" data-name="Path 145235" d="M959.173,399.4a.9.9,0,1,0,.865.9.883.883,0,0,0-.865-.9" transform="translate(16322 14135)" fill="#592c82"/>
    <path id="Path_145236" data-name="Path 145236" d="M957.188,399.4a.9.9,0,1,0,.865.9.883.883,0,0,0-.865-.9" transform="translate(16322 14135)" fill="#592c82"/>
    <path id="Path_145237" data-name="Path 145237" d="M970.8,391.955h-7.24a1.546,1.546,0,0,1,1.47-2h7.928v0a.719.719,0,0,0,0-1.436h-7.928a2.812,2.812,0,0,0-2.892,3.01v1.149a.717.717,0,0,0,.686.721H970.8a1.5,1.5,0,0,1,1.512,1.575v1.715H959.694v-3.864a.695.695,0,1,0-1.389,0v3.864h-3.294v-3.863a.691.691,0,1,0-1.38,0v5.726c0,1.457-.417,1.384-.768,1.384a.651.651,0,0,0,0,1.3c.713,0,2.148-.25,2.148-2.685v-1.068a.7.7,0,0,0,.687.643h4v-.648a.7.7,0,0,0,.687.648h12.635a.7.7,0,0,0,.69-.72v-2.433a2.828,2.828,0,0,0-2.9-3.02" transform="translate(16322 14135)" fill="#592c82"/>
    <path id="Path_145238" data-name="Path 145238" d="M995.824,393.938a3.007,3.007,0,0,0-1.048-1.326,2.783,2.783,0,0,0-1.617-.52h-1.382a2.724,2.724,0,0,0-2.332-1.133,1.458,1.458,0,0,1-1.371-.967,1.585,1.585,0,0,1-.113-.389c-.041-.229-.331-.322-.57-.322-.373,0-.771.407-.683.7l0,.013a3.178,3.178,0,0,0,1.56,2.186l.014.006-1.128.588a.563.563,0,0,0-.079.044,1.075,1.075,0,0,0-.4.427,1.177,1.177,0,0,0-.13.547v1.326a1.886,1.886,0,0,0,.565,1.574H983.7v-3.863a.7.7,0,1,0-1.39,0v3.863h-3.9c0-.033-.005-.06-.005-.094v-7.363h0a.693.693,0,1,0-1.386,0h0v8.174a.7.7,0,0,0,.69.719h6v-.637a.7.7,0,0,0,.687.637l8.771,0a2.7,2.7,0,0,0,.984-.181c.047-.017.095-.037.142-.057a2.947,2.947,0,0,0,1.272-1.094,3.073,3.073,0,0,0,.456-1.188,3.116,3.116,0,0,0-.189-1.67m-4.866,2.752H989.38a1.51,1.51,0,0,1-1.447-1.573v-1.895a1.06,1.06,0,0,1,.523-.97c.083.027.172.052.255.07a3.434,3.434,0,0,0,.734.076,1.461,1.461,0,0,1,1.456,1.136,1.758,1.758,0,0,1,.057.436v2.72Zm3.638-1.1,0,0q-.02.064-.045.126a1.582,1.582,0,0,1-.549.7,1.459,1.459,0,0,1-.841.271h-.813v-3.156h.813a1.436,1.436,0,0,1,.583.123,1.563,1.563,0,0,1,.667.576,1.62,1.62,0,0,1,.187,1.361" transform="translate(16322 14135)" fill="#592c82"/>
    <g id="Group_124970" data-name="Group 124970" transform="translate(16322 14135)">
      <g id="Group_124969" data-name="Group 124969" clip-path="url(#clip-path)">
        <rect id="Rectangle_17645" data-name="Rectangle 17645" width="8.88" height="8.209" transform="matrix(0.524, -0.852, 0.852, 0.524, 976.136, 371.888)" fill="url(#linear-gradient)"/>
      </g>
    </g>
    <g id="Group_124972" data-name="Group 124972" transform="translate(16322 14135)">
      <g id="Group_124971" data-name="Group 124971" clip-path="url(#clip-path-2)">
        <rect id="Rectangle_17646" data-name="Rectangle 17646" width="8.8" height="8.16" transform="matrix(0.524, -0.852, 0.852, 0.524, 976.178, 361.799)" fill="url(#linear-gradient-2)"/>
      </g>
    </g>
    <g id="Group_124974" data-name="Group 124974" transform="translate(16322 14135)">
      <g id="Group_124973" data-name="Group 124973" clip-path="url(#clip-path-3)">
        <rect id="Rectangle_17647" data-name="Rectangle 17647" width="8.883" height="8.211" transform="translate(964.739 371.887) rotate(-58.409)" fill="url(#linear-gradient-3)"/>
      </g>
    </g>
    <g id="Group_124976" data-name="Group 124976" transform="translate(16322 14135)">
      <g id="Group_124975" data-name="Group 124975" clip-path="url(#clip-path-4)">
        <rect id="Rectangle_17648" data-name="Rectangle 17648" width="8.795" height="8.157" transform="translate(964.784 361.794) rotate(-58.408)" fill="url(#linear-gradient-4)"/>
      </g>
    </g>
    <g id="Group_124978" data-name="Group 124978" transform="translate(16322 14135)">
      <g id="Group_124977" data-name="Group 124977" clip-path="url(#clip-path-5)">
        <rect id="Rectangle_17649" data-name="Rectangle 17649" width="19.249" height="22.977" transform="translate(961.433 366.595) rotate(-58.408)" fill="url(#linear-gradient-5)"/>
      </g>
    </g>
    <g id="Group_124980" data-name="Group 124980" transform="translate(16322 14135)">
      <g id="Group_124979" data-name="Group 124979" clip-path="url(#clip-path-6)">
        <rect id="Rectangle_17650" data-name="Rectangle 17650" width="49.864" height="48.233" transform="matrix(0.524, -0.852, 0.852, 0.524, 942.656, 373.847)" fill="url(#linear-gradient-6)"/>
      </g>
    </g>
  </g>
</svg>
