<svg xmlns="http://www.w3.org/2000/svg" xmlns:xlink="http://www.w3.org/1999/xlink" width="52.803" height="60.321" viewBox="0 0 52.803 60.321">
  <defs>
    <clipPath id="clip-path">
      <path id="Path_145911" data-name="Path 145911" d="M1279.683,246.652a.494.494,0,0,0-.459.465l-1.117,18.425-1.245-18.26a.488.488,0,0,0-.974-.011l-1.215,13.555-1.065-8.734a.487.487,0,0,0-.961-.046l-1.278,5.912-1.024-4.31a.486.486,0,0,0-.887-.149l-1.439,2.315H1265.6a.495.495,0,0,0,0,.989h2.684a.485.485,0,0,0,.413-.23l.965-1.553,1.25,5.265a.487.487,0,0,0,.952-.011l1.12-5.186,1.272,10.44a.482.482,0,0,0,.492.435.492.492,0,0,0,.479-.45l1.077-11.99,1.339,19.651a.488.488,0,0,0,.974,0l1.047-17.246,1.013,19.966a.488.488,0,0,0,.975.008l1.255-18.813,1.3,24.063a.488.488,0,0,0,.976,0l1.087-20.573,1.135,20.392a.487.487,0,0,0,.974,0l.982-18.828,1.267,18.807a.488.488,0,0,0,.974,0l1.191-18.839,1.219,19.774a.491.491,0,0,0,.486.465h0a.492.492,0,0,0,.486-.467l1.088-18.849,1.142,15.461a.5.5,0,0,0,.487.457.489.489,0,0,0,.488-.453l1.165-13.747,1.071,13.109a.491.491,0,0,0,.473.454.477.477,0,0,0,.5-.431l1.147-9.2,1.179,8.657a.485.485,0,0,0,.469.426.478.478,0,0,0,.495-.4l1.168-6.192,1.126,5.438a.5.5,0,0,0,.478.394.486.486,0,0,0,.475-.385l1.236-5.455.983,3.98a.491.491,0,0,0,.445.374.5.5,0,0,0,.485-.315l1.527-4h4.817a.5.5,0,0,0,.489-.465v-.059a.5.5,0,0,0-.489-.466h-5.151a.49.49,0,0,0-.455.316l-1.094,2.862-1.1-4.468a.487.487,0,0,0-.95.009l-1.192,5.268-1.169-5.648a.487.487,0,0,0-.958.007l-1.068,5.664-1.278-9.384a.487.487,0,0,0-.968.007l-1.025,8.218-1.162-14.24a.5.5,0,0,0-.488-.453.488.488,0,0,0-.486.452l-1.142,13.461-1.236-16.725a.488.488,0,0,0-.975.009l-1.043,18.088-1.2-19.412a.487.487,0,0,0-.973,0l-1.214,19.182-1.314-19.5a.487.487,0,0,0-.973.009l-.936,17.94-1.131-20.333a.488.488,0,0,0-.975,0l-1.079,20.425-1.241-23.014a.488.488,0,0,0-.975-.007l-1.24,18.6-1.037-20.417a.493.493,0,0,0-.462-.469Z" fill="none"/>
    </clipPath>
    <linearGradient id="linear-gradient" x1="-23.96" y1="23.348" x2="-23.941" y2="23.348" gradientUnits="objectBoundingBox">
      <stop offset="0" stop-color="#06a24e"/>
      <stop offset="0.185" stop-color="#0f67ad"/>
      <stop offset="0.374" stop-color="#bb2b8c"/>
      <stop offset="0.542" stop-color="#ea2c58"/>
      <stop offset="0.654" stop-color="#ef6362"/>
      <stop offset="0.711" stop-color="#f27a67"/>
      <stop offset="0.712" stop-color="#f27a65"/>
      <stop offset="0.813" stop-color="#f49831"/>
      <stop offset="0.862" stop-color="#f6a41d"/>
      <stop offset="1" stop-color="#fbe800"/>
    </linearGradient>
  </defs>
  <g id="Client_25" transform="translate(-17587.115 -14381.652)">
    <path id="Path_145897" data-name="Path 145897" d="M1283.785,298.1v-.011c-.065.005-.13.011-.2.011Z" transform="translate(16322 14135)" fill="#8c9394"/>
    <path id="Path_145898" data-name="Path 145898" d="M1289.625,288.1a.779.779,0,0,0,.2.512.66.66,0,0,0,.491.205.643.643,0,0,0,.478-.205.719.719,0,0,0,.211-.512.641.641,0,0,0-.211-.5.591.591,0,0,0-.478-.219.634.634,0,0,0-.491.219.694.694,0,0,0-.2.5" transform="translate(16322 14135)" fill="#8c9394"/>
    <path id="Path_145899" data-name="Path 145899" d="M1288.333,296.552a1.266,1.266,0,0,1-.983.438,1.144,1.144,0,0,1-1.179-.789,5.189,5.189,0,0,1-.168-1.563v-4.353h-1.165V295.6c0,.032,0,.064-.005.1a4.738,4.738,0,0,0,1.19,2,2.41,2.41,0,0,0,3.018-.3,5.7,5.7,0,0,1-.569-1.041,1.618,1.618,0,0,1-.139.187" transform="translate(16322 14135)" fill="#8c9394"/>
    <path id="Path_145900" data-name="Path 145900" d="M1288.417,288.811a.632.632,0,0,0,.477-.205.715.715,0,0,0,.211-.511.639.639,0,0,0-.211-.5.625.625,0,0,0-.477-.219.611.611,0,0,0-.491.219.691.691,0,0,0-.2.5.767.767,0,0,0,.2.511.645.645,0,0,0,.491.205" transform="translate(16322 14135)" fill="#8c9394"/>
    <path id="Path_145901" data-name="Path 145901" d="M1292.25,296.567a1.316,1.316,0,0,1-1.951-.015,1.569,1.569,0,0,1-.379-1.066v-5.2h-1.193v5.2a1.664,1.664,0,0,1-.022.27,5.089,5.089,0,0,0,.948,1.718,2.455,2.455,0,0,0,3.318-.039,5.592,5.592,0,0,1-.585-1.056,1.423,1.423,0,0,1-.136.188" transform="translate(16322 14135)" fill="#8c9394"/>
    <path id="Path_145902" data-name="Path 145902" d="M1289.33,287.014a.634.634,0,0,0,.477-.2.714.714,0,0,0,.21-.512.666.666,0,0,0-.21-.5.6.6,0,0,0-.477-.22.634.634,0,0,0-.491.22.689.689,0,0,0-.2.5.77.77,0,0,0,.2.512.648.648,0,0,0,.491.2" transform="translate(16322 14135)" fill="#8c9394"/>
    <path id="Path_145903" data-name="Path 145903" d="M1295.423,298.1v-.01c-.093.005-.184.01-.281.01Z" transform="translate(16322 14135)" fill="#8c9394"/>
    <path id="Path_145904" data-name="Path 145904" d="M1284.616,296.358a1.457,1.457,0,0,1-.144.194,1.142,1.142,0,0,1-.884.44h-1.867l.042-.044a3.908,3.908,0,0,0,1.123-2.806,3.7,3.7,0,0,0-1.151-2.774,3.786,3.786,0,0,0-2.738-1.125h-4.366v1.242h2.612q1.81,0,1.909.013a2.8,2.8,0,0,1,1.713.731,2.614,2.614,0,0,1,.772,2.03,2.81,2.81,0,0,1-.8,2.03,2.461,2.461,0,0,1-1.123.555,3.7,3.7,0,0,0,.085-.789,3.5,3.5,0,0,0-1.11-2.629,3.664,3.664,0,0,0-2.625-1.081,3.6,3.6,0,0,0-2.6,1.081,3.558,3.558,0,0,0-1.095,2.629,4.2,4.2,0,0,0,.1.937h-1.684V286.166h-1.151V298.1h13.954c.067,0,.131-.005.2-.011a2.181,2.181,0,0,0,1.4-.694,5.554,5.554,0,0,1-.566-1.037m-6.054.618a3.884,3.884,0,0,1-.393.016h-4.576a2.906,2.906,0,0,1-.169-.937,2.49,2.49,0,0,1,.786-1.869,2.55,2.55,0,0,1,1.853-.773,2.581,2.581,0,0,1,1.881.773,2.4,2.4,0,0,1,.787,1.869,3.54,3.54,0,0,1-.169.921" transform="translate(16322 14135)" fill="#8c9394"/>
    <path id="Path_145905" data-name="Path 145905" d="M1298.286,299.225a.6.6,0,0,0-.492.22.686.686,0,0,0-.2.5.783.783,0,0,0,.2.511.66.66,0,0,0,.492.2.642.642,0,0,0,.477-.2.72.72,0,0,0,.21-.511.664.664,0,0,0-.21-.5.615.615,0,0,0-.477-.22" transform="translate(16322 14135)" fill="#8c9394"/>
    <path id="Path_145906" data-name="Path 145906" d="M1294.861,298.1h.211c-.072,0-.141-.006-.211-.012Z" transform="translate(16322 14135)" fill="#8c9394"/>
    <path id="Path_145907" data-name="Path 145907" d="M1296.391,299.225a.628.628,0,0,0-.491.22.682.682,0,0,0-.2.5.777.777,0,0,0,.2.511.655.655,0,0,0,.491.2.642.642,0,0,0,.477-.2.716.716,0,0,0,.211-.511.661.661,0,0,0-.211-.5.589.589,0,0,0-.477-.22" transform="translate(16322 14135)" fill="#8c9394"/>
    <path id="Path_145908" data-name="Path 145908" d="M1296.8,296.365a1.437,1.437,0,0,1-.184.262,2.118,2.118,0,0,1-1.474.363h-.071a1.141,1.141,0,0,1-.884-.438,1.492,1.492,0,0,1-.365-1.006v-5.26h-1.207v5.2a2.2,2.2,0,0,1-.014.234,5.086,5.086,0,0,0,.961,1.754,2.168,2.168,0,0,0,1.3.616c.069.005.139.01.21.01h.071c.1,0,.188-.005.281-.008a2.9,2.9,0,0,0,1.935-.7,5.631,5.631,0,0,1-.558-1.024" transform="translate(16322 14135)" fill="#8c9394"/>
    <path id="Path_145909" data-name="Path 145909" d="M1298.539,296.611a1.424,1.424,0,0,1-.379-1.052v-5.127h-1.165v5.127c0,.028,0,.052,0,.077a4.81,4.81,0,0,0,1.2,2.059,3.162,3.162,0,0,0,1.665.4h.884v-1.109h-.884a1.805,1.805,0,0,1-1.32-.38" transform="translate(16322 14135)" fill="#8c9394"/>
    <path id="Path_145910" data-name="Path 145910" d="M1305.488,296.991a2.49,2.49,0,0,1-2.457-1.768,2.669,2.669,0,0,1,.562-3.023,2.434,2.434,0,0,1,2.1-.817,2.957,2.957,0,0,1,2.008,1.109l.927-.656a3.537,3.537,0,0,0-3.1-1.609,3.728,3.728,0,0,0-2.738,1.125,3.917,3.917,0,0,0-1.136,2.834,3.961,3.961,0,0,0,.526,2.039,4.023,4.023,0,0,0,.582.766h-1.46V298.1h8.2v-1.109Z" transform="translate(16322 14135)" fill="#8c9394"/>
    <rect id="Rectangle_17771" data-name="Rectangle 17771" width="0.562" height="1.109" transform="translate(17622.742 14431.991)" fill="#8c9394"/>
    <g id="Group_125155" data-name="Group 125155" transform="translate(16322 14135)">
      <g id="Group_125154" data-name="Group 125154" clip-path="url(#clip-path)">
        <rect id="Rectangle_17773" data-name="Rectangle 17773" width="52.802" height="35.692" transform="translate(1265.116 246.652)" fill="url(#linear-gradient)"/>
      </g>
    </g>
    <path id="Path_145912" data-name="Path 145912" d="M1270.145,301.219c.839,0,1.449.014,1.83.038l-.024.442h-1.715c-.243,0-.364.142-.364.424v.962h1.836v.455h-1.836v1.214a.491.491,0,0,0,.088.329.342.342,0,0,0,.276.1h1.715l.024.435c-.381.027-.991.038-1.83.038a.84.84,0,0,1-.6-.208.734.734,0,0,1-.222-.563v-2.9a.73.73,0,0,1,.222-.562.847.847,0,0,1,.6-.205" transform="translate(16322 14135)" fill="#8c9394"/>
    <path id="Path_145913" data-name="Path 145913" d="M1274.771,302.453q.814,0,.814.859v2.341h-.528v-2.187a.7.7,0,0,0-.1-.431.406.406,0,0,0-.334-.12,1.166,1.166,0,0,0-.495.113,6.166,6.166,0,0,0-.666.38v2.245h-.523v-3.125h.444l.037.493a2.22,2.22,0,0,1,1.349-.568" transform="translate(16322 14135)" fill="#8c9394"/>
    <path id="Path_145914" data-name="Path 145914" d="M1277.269,302.528v3.2a1.6,1.6,0,0,1-.155.7,1.477,1.477,0,0,1-.429.531l-.291-.24a1.546,1.546,0,0,0,.346-.988v-3.2Zm-.383-1.327h.243a.143.143,0,0,1,.158.164v.366c0,.112-.053.165-.158.165h-.243a.144.144,0,0,1-.164-.165v-.366a.145.145,0,0,1,.164-.164" transform="translate(16322 14135)" fill="#8c9394"/>
    <path id="Path_145915" data-name="Path 145915" d="M1279.707,302.453a1.379,1.379,0,0,1,1.1.373,2.685,2.685,0,0,1,0,2.539,1.8,1.8,0,0,1-2.188,0,2.68,2.68,0,0,1,0-2.536,1.371,1.371,0,0,1,1.091-.373m0,.461a.8.8,0,0,0-.678.25,2.408,2.408,0,0,0,0,1.856.789.789,0,0,0,.678.253.8.8,0,0,0,.681-.253,2.4,2.4,0,0,0,0-1.856.806.806,0,0,0-.684-.25" transform="translate(16322 14135)" fill="#8c9394"/>
    <path id="Path_145916" data-name="Path 145916" d="M1284.794,302.528l-1.2,3.3a1.482,1.482,0,0,1-1.313,1.15l-.054-.36a1.308,1.308,0,0,0,.882-.827l.048-.134h-.122a.182.182,0,0,1-.182-.14l-1.094-2.985h.565l.8,2.328a3.153,3.153,0,0,1,.11.379h.085c.024-.061.067-.188.128-.379l.783-2.328Z" transform="translate(16322 14135)" fill="#8c9394"/>
    <path id="Path_145917" data-name="Path 145917" d="M1288.368,301.143a5.7,5.7,0,0,1,1.264.134l-.036.41c-.4-.021-.8-.03-1.2-.03-.146,0-.255,0-.328.006a.993.993,0,0,0-.234.041.308.308,0,0,0-.177.106.631.631,0,0,0-.084.2,1.233,1.233,0,0,0-.034.321.812.812,0,0,0,.121.5.778.778,0,0,0,.414.226l.869.222a1.084,1.084,0,0,1,.666.421,1.507,1.507,0,0,1,.191.825,1.175,1.175,0,0,1-.316.972,1.934,1.934,0,0,1-1.112.235,7.193,7.193,0,0,1-1.319-.12l.036-.417q.906.031,1.3.031a1.236,1.236,0,0,0,.684-.139.711.711,0,0,0,.173-.575.819.819,0,0,0-.118-.51.787.787,0,0,0-.417-.216l-.881-.236a1.02,1.02,0,0,1-.647-.411,1.5,1.5,0,0,1-.192-.822,2.029,2.029,0,0,1,.076-.618.645.645,0,0,1,.264-.356,1.106,1.106,0,0,1,.42-.158,4.165,4.165,0,0,1,.62-.038" transform="translate(16322 14135)" fill="#8c9394"/>
    <path id="Path_145918" data-name="Path 145918" d="M1292.191,302.454a1.152,1.152,0,0,1,.776.223,1,1,0,0,1,.252.776v2.2h-.414l-.061-.514a2.1,2.1,0,0,1-.543.4,1.452,1.452,0,0,1-.7.171.932.932,0,0,1-.654-.226.841.841,0,0,1-.246-.647v-.341a.726.726,0,0,1,.219-.566.877.877,0,0,1,.614-.2h1.252v-.278a.546.546,0,0,0-.131-.417.713.713,0,0,0-.483-.122c-.3,0-.726.029-1.289.082l-.048-.4a8.829,8.829,0,0,1,1.452-.137m.5,1.687h-1.161c-.26,0-.389.145-.389.431v.2a.472.472,0,0,0,.11.352.513.513,0,0,0,.358.116,1.433,1.433,0,0,0,.541-.122,1.769,1.769,0,0,0,.541-.346Z" transform="translate(16322 14135)" fill="#8c9394"/>
    <path id="Path_145919" data-name="Path 145919" d="M1296.89,305.653h-.42l-.036-.448a2.133,2.133,0,0,1-1.294.53q-.822,0-.822-.859v-2.347h.523v2.194a.615.615,0,0,0,.11.417.482.482,0,0,0,.37.12,1.111,1.111,0,0,0,.459-.1,3.8,3.8,0,0,0,.587-.345v-2.282h.523Z" transform="translate(16322 14135)" fill="#8c9394"/>
    <path id="Path_145920" data-name="Path 145920" d="M1300.6,305.653h-.408l-.048-.45a1.723,1.723,0,0,1-1.192.526.871.871,0,0,1-.8-.407,2.442,2.442,0,0,1-.249-1.245,2.192,2.192,0,0,1,.27-1.257,1,1,0,0,1,.867-.368,2.056,2.056,0,0,1,1.063.286c-.016-.187-.025-.391-.025-.615v-.962h.524Zm-1.441-2.726a.628.628,0,0,0-.562.236,1.764,1.764,0,0,0-.161.91,1.894,1.894,0,0,0,.158.928.581.581,0,0,0,.535.253.953.953,0,0,0,.428-.092,3.148,3.148,0,0,0,.519-.338V303.1a3.633,3.633,0,0,0-.917-.17" transform="translate(16322 14135)" fill="#8c9394"/>
    <path id="Path_145921" data-name="Path 145921" d="M1301.923,301.2h.243a.145.145,0,0,1,.165.164v.365a.146.146,0,0,1-.165.165h-.243a.145.145,0,0,1-.163-.165v-.365a.144.144,0,0,1,.163-.164m.377,4.452h-.516v-3.125h.516Z" transform="translate(16322 14135)" fill="#8c9394"/>
  </g>
</svg>
