<svg xmlns="http://www.w3.org/2000/svg" width="60.406" height="36.905" viewBox="0 0 60.406 36.905">
  <g id="Client_52" transform="translate(-17830.557 -14598.042)">
    <text id="G_R_O_U_P" data-name="G R O U P" transform="translate(17847.039 14633.947)" fill="#ed3936" font-size="3.932" font-family="ArialMT, Arial"><tspan x="0" y="0" letter-spacing="0.281em">G</tspan><tspan y="0" letter-spacing="0.283em"> </tspan><tspan y="0" letter-spacing="0.28em">R</tspan><tspan y="0" letter-spacing="0.283em"> </tspan><tspan y="0" letter-spacing="0.282em">O</tspan><tspan y="0" letter-spacing="0.283em"> </tspan><tspan y="0" letter-spacing="0.28em">U</tspan><tspan y="0" letter-spacing="0.283em"> </tspan><tspan y="0">P</tspan></text>
    <path id="Path_140916" data-name="Path 140916" d="M1509.906,491.713c-.4-.03-1.016-.055-1.349-.1l60.406-.069c-.148.023-.271.031-.352.039-.167.018-.227.02-.456.032l-7.042.433c-.282.017-1.112.066-1.394.077-.479.02-1.343.068-1.927.09-.245.009-1.763.075-2,.085-2.486.1-10.111.223-10.111.223-1.349.076-11.791.058-12.182.03,0,0-20.8-.62-23.595-.84" transform="translate(16322 14135)" fill="#ed3a35" fill-rule="evenodd"/>
    <path id="Path_140917" data-name="Path 140917" d="M1533.628,463.292c0,.5.794.466,1.4.712a1.673,1.673,0,0,1,1.13.992c.32.986-.441,6.446-.526,7.883-.172,2.926-1.066,5.931.9,7.983,1.208,1.262,3.635,1.567,4.147.772-.3-.424-.437-.141-.777-.861-.657-1.39-.234-3.188-.106-4.728a36.022,36.022,0,0,1,.505-4.06c.952-2.106,5.651-2.75,7.081,1.84a9.872,9.872,0,0,1-.132,5.392,6.8,6.8,0,0,1-1.257,2.442c-2.774,3.556-7.751,2.7-10.139.158-.273-.291-.319-.351-.7-.267a2.96,2.96,0,0,0,.756,2.05,6.9,6.9,0,0,0,3.3,2.4,9.948,9.948,0,0,0,4.037.469,8.034,8.034,0,0,0,3.393-.973,9.388,9.388,0,0,0,4.86-8.531,9.1,9.1,0,0,0-.64-3.92c-1.528-4.028-6.293-5.24-9.823-3.717a8.3,8.3,0,0,1-.755.383,34.7,34.7,0,0,0,.4-4.835,1.968,1.968,0,0,0-1.763-1.834h-5.048c-.184,0-.24.059-.24.25" transform="translate(16322 14135)" fill="#ed3936" fill-rule="evenodd"/>
    <path id="Path_140918" data-name="Path 140918" d="M1553.178,477.213a8.723,8.723,0,0,0,1.613,5.241,9.08,9.08,0,0,0,7.2,3.763,8.581,8.581,0,0,0,3.126-.332,6.2,6.2,0,0,0,.835-.3c.284-.119.6-.246.842-.375a6.906,6.906,0,0,0,1.979-1.529c.154-.241.286-.717-.132-.717-.437,0-3.729,2.327-7.659-.117a6.754,6.754,0,0,1-2.386-2.688,7.439,7.439,0,0,1,6.52-10.534,7.24,7.24,0,0,1,2.335.238c.737.2,1.511.8,1.511.1,0-.566-2.017-1.414-2.483-1.585a10.4,10.4,0,0,0-9.629,1.572,9.213,9.213,0,0,0-2.739,3.321,8.959,8.959,0,0,0-.934,3.945" transform="translate(16322 14135)" fill="#ed3936" fill-rule="evenodd"/>
    <path id="Path_140919" data-name="Path 140919" d="M1516.961,468.459c0,.585,1.161.337,1.865.979,1.14,1.043.488,2.711.376,4.856l-.283,2.706c-.244,1.8-.3,3.557-.541,5.357-.2,1.539-.07,3.612,1.948,3.612h4.407c.321,0,.456-.023.529-.268a.847.847,0,0,0,.024-.256.361.361,0,0,0-.178-.177c-.876-.49-2.618.018-2.618-2.052a11.083,11.083,0,0,1,.126-1.617l.435-4.8c.06-1.018.209-2.2.307-3.182.059-.594.062-1.029.139-1.6l.114-1.966c0-1.274-1.3-1.917-2.564-1.917h-3.766a.314.314,0,0,0-.32.332" transform="translate(16322 14135)" fill="#ed3936" fill-rule="evenodd"/>
    <path id="Path_140920" data-name="Path 140920" d="M1508.558,468.459c0,.585,1.162.337,1.865.979,1.14,1.043.488,2.711.376,4.856l-.283,2.706c-.244,1.8-.3,3.557-.54,5.357-.2,1.539-.071,3.612,1.947,3.612h4.407c.322,0,.456-.023.529-.268a.851.851,0,0,0,.024-.256.361.361,0,0,0-.178-.177c-.876-.49-2.618.018-2.618-2.052a11.066,11.066,0,0,1,.126-1.617l.435-4.8c.06-1.018.209-2.2.307-3.182.06-.594.062-1.029.139-1.6l.114-1.966c0-1.274-1.3-1.917-2.563-1.917h-3.766a.314.314,0,0,0-.321.332" transform="translate(16322 14135)" fill="#ed3936" fill-rule="evenodd"/>
    <path id="Path_140921" data-name="Path 140921" d="M1525.134,468.459c0,.585,1.161.337,1.865.979,1.14,1.043.488,2.711.376,4.856l-.283,2.706c-.244,1.8-.305,3.557-.54,5.357-.2,1.539-.071,3.612,1.947,3.612h4.407c.322,0,.456-.023.529-.268a.879.879,0,0,0,.024-.256.361.361,0,0,0-.178-.177c-.876-.49-2.618.018-2.618-2.052a11.083,11.083,0,0,1,.126-1.617l.435-4.8c.06-1.018.209-2.2.307-3.182.06-.594.062-1.029.139-1.6l.114-1.966c0-1.274-1.3-1.917-2.563-1.917h-3.766a.314.314,0,0,0-.321.332" transform="translate(16322 14135)" fill="#ed3936" fill-rule="evenodd"/>
  </g>
</svg>
