<svg xmlns="http://www.w3.org/2000/svg" xmlns:xlink="http://www.w3.org/1999/xlink" width="52.73" height="54.345" viewBox="0 0 52.73 54.345">
  <defs>
    <clipPath id="clip-path">
      <path id="Path_145330" data-name="Path 145330" d="M737.057,251.833a56.365,56.365,0,0,0-9.467,1.351c-1.456.356-2.913.713-4.343,1.165a5.138,5.138,0,0,0-3.626,4.068,16.578,16.578,0,0,0-.342,2.2,60.833,60.833,0,0,0,.191,9.63c.138,1.782.335,3.566.521,5.343.23,2.27.441,4.54.725,6.8a135.922,135.922,0,0,0,2.742,15.007,9.579,9.579,0,0,0,1.272,3.232,3.047,3.047,0,0,0,2.1,1.4,6.682,6.682,0,0,0,.976.068c2.584,0,5.175-.014,7.759-.02,2.782-.006,5.564,0,8.345,0,0,0,0,.006.013.014h12.419c1.3,0,2.6,0,3.909-.014a2.272,2.272,0,0,0,1.866-.947,6.709,6.709,0,0,0,.91-1.488,30.858,30.858,0,0,0,1.225-3.511,108.116,108.116,0,0,0,2.663-15.226c.442-3.753.772-7.524,1.1-11.29a63.968,63.968,0,0,0,.238-7.393,18.956,18.956,0,0,0-.429-3.8,5.31,5.31,0,0,0-3.434-4.025c-.105-.035-.212-.083-.317-.117a53.519,53.519,0,0,0-7.311-1.736,85.617,85.617,0,0,0-11.087-.98c-.647-.026-1.293-.037-1.94-.037-2.227,0-4.453.132-6.675.3" fill="none"/>
    </clipPath>
    <radialGradient id="radial-gradient" cx="0.503" cy="0.599" r="0.483" gradientTransform="translate(0.373 -0.663) scale(1.026 1.04)" gradientUnits="objectBoundingBox">
      <stop offset="0" stop-color="#51b5e7"/>
      <stop offset="1" stop-color="#174fa0"/>
    </radialGradient>
    <clipPath id="clip-path-2">
      <path id="Path_145332" data-name="Path 145332" d="M742.924,294.314a5.318,5.318,0,0,1,.006-3.2,2.871,2.871,0,0,1,.791-1.4,1.151,1.151,0,0,1,.791-.328,1.015,1.015,0,0,1,.607.206c-.073.795-.139,1.59-.205,2.386-.072.851-.152,1.736-.223,2.6-.041.493-.264.588-.666.588a1.111,1.111,0,0,1-1.1-.857m.487,1.887a2.312,2.312,0,0,1-2.3-2.175,6.1,6.1,0,0,1,.52-3.491,3.4,3.4,0,0,1,.989-1.344,4.833,4.833,0,0,1,.54-.349.861.861,0,0,0-.1.1,3.9,3.9,0,0,0-1.087,1.9,6.334,6.334,0,0,0,.014,3.827,2.1,2.1,0,0,0,1.858,1.536c-.043,0-.085.005-.127.005-.1,0-.2-.007-.3-.01m2.275-1.524c.079-.871.151-1.756.224-2.605.073-.823.138-1.64.21-2.456a.893.893,0,0,0-.224-.693.691.691,0,0,0,.317-.6,2.4,2.4,0,0,1,.672-1.38.942.942,0,0,1,.066-.089v.019c-.151,1.881-.317,3.788-.474,5.634-.058.665-.113,1.335-.172,2l-.006.1a3.543,3.543,0,0,1-.119.788l-.026.042a1.429,1.429,0,0,1-.587.4,4.944,4.944,0,0,1-.858.268,1.553,1.553,0,0,0,.977-1.427m1.692-9.831a.722.722,0,0,0-.6.47,4.008,4.008,0,0,1-.534.8c-.04.05-.086.1-.126.157a4.028,4.028,0,0,0-.824,1.5,3.034,3.034,0,0,0-3.25.569,4.533,4.533,0,0,0-1.3,1.736,7.118,7.118,0,0,0-.619,4.1,3.324,3.324,0,0,0,3.235,3.072c.113.008.232.008.343.008a5.9,5.9,0,0,0,2.249-.447,2.307,2.307,0,0,0,1.048-.781.3.3,0,0,0,.059-.1l.04-.076a.359.359,0,0,0,.032-.074,4.12,4.12,0,0,0,.191-1.092l.007-.1c.06-.665.113-1.337.172-2,.158-1.852.323-3.759.474-5.638.014-.122.026-.254.04-.391a6.725,6.725,0,0,0,.053-1.215.531.531,0,0,0-.343-.452.926.926,0,0,0-.237-.051Z" fill="none"/>
    </clipPath>
    <linearGradient id="linear-gradient" x1="-90.532" y1="64.068" x2="-90.41" y2="64.068" gradientUnits="objectBoundingBox">
      <stop offset="0" stop-color="#16a1db"/>
      <stop offset="1" stop-color="#174fa0"/>
    </linearGradient>
    <clipPath id="clip-path-3">
      <path id="Path_145335" data-name="Path 145335" d="M727.031,296.008c-.073-.007-.151-.007-.231-.007.046-.562.092-1.124.139-1.679.1-1.256.211-2.546.322-3.822a1.63,1.63,0,0,0-.211-1.036,2.9,2.9,0,0,1,.522-.315,4.693,4.693,0,0,1,.995-.377c-.021.021-.04.034-.06.056a2.074,2.074,0,0,0-.639,1.516c-.007.151-.027.3-.04.459-.013.1-.021.186-.026.274-.112,1.337-.218,2.681-.329,4.02l-.073.911c-.04,0-.081,0-.121,0-.082,0-.164,0-.248,0m4.449-2.921c.027-.308.053-.625.086-.933a18.477,18.477,0,0,0,.118-2.1,1.636,1.636,0,0,0-.7-1.4,1.449,1.449,0,0,1,1.253.815,1.134,1.134,0,0,0,.079.342l.02.192v.084l-.014.156v.009l-.111,1.342c-.119,1.436-.244,2.868-.363,4.3,0,.028-.006.063-.006.09-.2,0-.4,0-.6.007.079-.871.164-1.879.237-2.908m-4.344-4.9a2.721,2.721,0,0,0-1.075.837l-.013.022a.637.637,0,0,0,.112.924c.06.049.134.111.107.425-.113,1.277-.219,2.572-.325,3.828-.052.611-.1,1.227-.151,1.838v.007a.9.9,0,0,0,.151.755.834.834,0,0,0,.726.213c.112,0,.224.005.343.005.092.008.184.008.283.008a2.917,2.917,0,0,0,.54-.042.487.487,0,0,0,.383-.206,1.138,1.138,0,0,0,.066-.122l.033-.07a.188.188,0,0,0,.02-.034.583.583,0,0,0,.039-.211l.1-1.2c.113-1.336.217-2.681.33-4.018.007-.082.019-.172.026-.255.013-.172.033-.343.039-.52a1.066,1.066,0,0,1,.291-.769,1.217,1.217,0,0,1,.942-.191.578.578,0,0,1,.58.652,16.934,16.934,0,0,1-.118,1.975c-.033.314-.059.636-.086.958-.086,1.14-.178,2.245-.264,3.176a.851.851,0,0,0,.178.653.736.736,0,0,0,.587.219c.3-.013.6-.013.9-.02.126,0,.252-.008.378-.008a.518.518,0,0,0,.414-.247,1.4,1.4,0,0,0,.172-.691c0-.034.006-.069.006-.1.125-1.433.243-2.866.362-4.3l.1-1.18v-.013l.026-.349v-.207l-.026-.3a.644.644,0,0,0-.039-.158.665.665,0,0,1-.026-.068.574.574,0,0,0-.034-.233,2.59,2.59,0,0,0-2.472-1.613c-.244-.019-.48-.029-.715-.029a6.335,6.335,0,0,0-2.884.654" fill="none"/>
    </clipPath>
    <linearGradient id="linear-gradient-2" x1="-95.657" y1="83.216" x2="-95.525" y2="83.216" xlink:href="#linear-gradient"/>
    <clipPath id="clip-path-4">
      <path id="Path_145338" data-name="Path 145338" d="M734.782,295.933a.917.917,0,0,1-.461-.315,1.487,1.487,0,0,1-.211-1.119,1.955,1.955,0,0,1,.739-1.247,2.9,2.9,0,0,1,.243-.159,2.214,2.214,0,0,0-.4,1.358,1.9,1.9,0,0,0,.56,1.522,1.77,1.77,0,0,0,.205.166,4.472,4.472,0,0,1-.673-.206m1.141-.741a.861.861,0,0,1-.225-.7v-.056a1.2,1.2,0,0,1,.6-1.1,3.841,3.841,0,0,1,1.028-.475c-.006.083-.013.174-.013.256-.053.609-.106,1.234-.172,1.845a.466.466,0,0,1-.415.4,1.708,1.708,0,0,1-.241.021.794.794,0,0,1-.563-.193m-.989-5.1c-.019-.007-.059-.028-.032-.159a1.265,1.265,0,0,1,.626-.81c.065-.039.131-.081.2-.116a2.83,2.83,0,0,0-.252.365c-.065.117-.118.239-.171.348a3.068,3.068,0,0,1-.164.33.133.133,0,0,1-.117.064.2.2,0,0,1-.088-.022m3.2,4.98c.066-.625.118-1.257.171-1.873.019-.233.04-.474.06-.707a.749.749,0,0,0-.152-.569.7.7,0,0,0,.237-.515c.007-.157.02-.315.039-.481a4.621,4.621,0,0,0-.005-1.447,1.349,1.349,0,0,0-.556-.862,1.225,1.225,0,0,1,.964.479,2.6,2.6,0,0,1,.152,1.331l-.06.747c-.1,1.194-.2,2.427-.31,3.641-.012.131-.039.275-.065.418-.006.055-.02.11-.027.165a.583.583,0,0,1-.251.31c-.21.1-.422.191-.626.266a1.46,1.46,0,0,0,.429-.9M735,288.245a2.3,2.3,0,0,0-1.08,1.461,1.155,1.155,0,0,0,.6,1.35,1.126,1.126,0,0,0,1.47-.445c.086-.145.151-.287.217-.426.047-.1.093-.191.139-.281a.756.756,0,0,1,.863-.459.31.31,0,0,1,.291.273,3.8,3.8,0,0,1-.007,1.125c-.007.09-.02.187-.027.283-.567.157-1.146.322-1.713.52a5.854,5.854,0,0,0-1.465.741,3.014,3.014,0,0,0-1.165,1.927,2.573,2.573,0,0,0,.383,1.914,1.95,1.95,0,0,0,.928.686,5.23,5.23,0,0,0,1.886.362,5.476,5.476,0,0,0,2.451-.609,1.611,1.611,0,0,0,.759-.892.484.484,0,0,0,.032-.117c.007-.068.02-.137.034-.206a4.225,4.225,0,0,0,.079-.521c.1-1.213.21-2.448.31-3.642l.059-.746a3.645,3.645,0,0,0-.264-1.92.254.254,0,0,0-.033-.063,2.346,2.346,0,0,0-1.924-.987c-.147-.014-.292-.019-.435-.019a4.364,4.364,0,0,0-2.388.691" fill="none"/>
    </clipPath>
    <linearGradient id="linear-gradient-3" x1="-103.255" y1="81.51" x2="-103.114" y2="81.51" xlink:href="#linear-gradient"/>
    <clipPath id="clip-path-5">
      <path id="Path_145341" data-name="Path 145341" d="M756.45,295.514a3.1,3.1,0,0,1-.6-1.5,6.176,6.176,0,0,1-.079-1.043,5.831,5.831,0,0,1,.95-3.2,2.382,2.382,0,0,1,.236-.3,4.019,4.019,0,0,0-.751,2.044,5.471,5.471,0,0,0,.165,2.319,3.209,3.209,0,0,0,.58,1.091,2.167,2.167,0,0,0,1.543.793,2.132,2.132,0,0,0,1.311-.363,2.568,2.568,0,0,1-1.153.756,2.743,2.743,0,0,1-.723.106,1.9,1.9,0,0,1-1.479-.7m3.995-5.233c-.039-.089-.079-.186-.119-.294-.033-.083-.066-.18-.1-.269A1.944,1.944,0,0,0,759.1,288.6a1.63,1.63,0,0,1,.528.1,1.506,1.506,0,0,1,1.082,1.1.411.411,0,0,1-.173.5.178.178,0,0,1-.066.015c0-.008-.014-.015-.026-.043m-4.542-1.117a6.962,6.962,0,0,0-1.141,3.792v.02a7.02,7.02,0,0,0,.1,1.235,4.1,4.1,0,0,0,.85,2.017,2.872,2.872,0,0,0,2.215,1.042,3.512,3.512,0,0,0,.995-.158,3.639,3.639,0,0,0,2.512-2.95v-.019c.052-.509-.106-.837-.475-.981-.237-.09-.587-.1-.9.384a.072.072,0,0,0-.027.034,4.713,4.713,0,0,1-.586.742,1.182,1.182,0,0,1-.9.349,1.208,1.208,0,0,1-.843-.446,2.041,2.041,0,0,1-.377-.728,4.449,4.449,0,0,1-.125-1.873,2.807,2.807,0,0,1,.752-1.747.871.871,0,0,1,.758-.3.88.88,0,0,1,.587.567c.033.069.059.146.086.22a3.949,3.949,0,0,0,.164.4,1.024,1.024,0,0,0,1.371.508,1.449,1.449,0,0,0,.758-1.735,2.533,2.533,0,0,0-1.746-1.831,3.076,3.076,0,0,0-.969-.148,3.7,3.7,0,0,0-3.059,1.609" fill="none"/>
    </clipPath>
    <linearGradient id="linear-gradient-4" x1="-106.2" y1="81.569" x2="-106.059" y2="81.569" xlink:href="#linear-gradient"/>
    <clipPath id="clip-path-6">
      <path id="Path_145347" data-name="Path 145347" d="M729.489,268.129a7.92,7.92,0,0,0-.574-.955c-.335-.493-.328-.582.067-1.048.032-.035.066-.077.1-.111a3.125,3.125,0,0,0,.224-.266,1.777,1.777,0,0,0,.165,1.049,5.823,5.823,0,0,0,.362.659c.052.09.1.164.145.245a2.853,2.853,0,0,1,.343.824.857.857,0,0,1-.172.781,1.753,1.753,0,0,1-.276.275,3.228,3.228,0,0,0-.383-1.453m4.391,5.828a1.973,1.973,0,0,0,1.891-2.3c-.033-.646-.125-1.289-.217-1.907-.04-.247-.072-.506-.106-.755-.244-1.919-.5-3.861-.751-5.746-.094-.721-.191-1.441-.283-2.161-.034-.24-.066-.5-.093-.735-.072-.6-.144-1.214-.263-1.824-.032-.144-.032-.212.224-.39a5.267,5.267,0,0,1,4.673-.845,22.276,22.276,0,0,0,6.2.907,6.938,6.938,0,0,0,1.667-.26,7.677,7.677,0,0,1-1.713.574,13.035,13.035,0,0,1-4.937-.205,11.157,11.157,0,0,0-3.647-.274.915.915,0,0,0-.711.309,1.017,1.017,0,0,0-.1.781c.151,1.138.3,2.27.448,3.409.342,2.626.7,5.343,1.048,8.009.019.173.046.344.073.509a8.369,8.369,0,0,1,.126,1.475,1.863,1.863,0,0,1-1.28,1.817,5.609,5.609,0,0,1-2.095.351h-1.082c-1.4,0-2.842,0-4.239-.118a5.444,5.444,0,0,1-4.133-2.476,8.806,8.806,0,0,1-1.543-4.45A5.514,5.514,0,0,1,724.1,263.7a3.165,3.165,0,0,1,2.267-1.2,3.109,3.109,0,0,1,.441-.027,4.273,4.273,0,0,1,2.333.768,1.627,1.627,0,0,1,.64.857.854.854,0,0,1-.11.886l-.062.074a1.363,1.363,0,0,0-.164-.933,2.461,2.461,0,0,0-1.628-1.145,2.328,2.328,0,0,0-1.865.392,3.037,3.037,0,0,0-1.108,1.975,10.629,10.629,0,0,0,.639,5.829,5.86,5.86,0,0,0,.528,1,3.511,3.511,0,0,0,3.078,1.748c.93.008,1.879.022,2.8.035l1.556.021a4.157,4.157,0,0,0,.442-.029m16.387-18.367-.25.105a16.379,16.379,0,0,1-4.852,1.475,21.429,21.429,0,0,1-5.926-.872,6.261,6.261,0,0,0-5.5.988,1.37,1.37,0,0,0-.646,1.468c.112.568.184,1.164.251,1.741.026.241.06.494.092.747.092.72.192,1.441.283,2.161.25,1.879.508,3.827.752,5.74.033.254.072.516.1.769.086.624.172,1.213.2,1.811.04.768-.257,1.124-.988,1.2a3.2,3.2,0,0,1-.336.022l-1.556-.022c-.917-.012-1.865-.027-2.8-.035a2.562,2.562,0,0,1-2.255-1.289,4.6,4.6,0,0,1-.442-.822,9.6,9.6,0,0,1-.579-5.246,1.946,1.946,0,0,1,.7-1.3,1.358,1.358,0,0,1,1.081-.213,1.5,1.5,0,0,1,.97.679.312.312,0,0,1,.019.219c-.019.118-.1.214-.25.378-.04.042-.079.09-.119.131a1.646,1.646,0,0,0-.131,2.345,6.921,6.921,0,0,1,.494.817c.376.788.376,1.2-.006,1.623a.549.549,0,0,0-.073.6.483.483,0,0,0,.514.273,3.232,3.232,0,0,0,1.9-1.117,1.967,1.967,0,0,0,.369-1.666,3.952,3.952,0,0,0-.461-1.14l-.159-.268a3.983,3.983,0,0,1-.3-.528.579.579,0,0,1,.039-.691,1.929,1.929,0,0,0,.29-1.9,2.66,2.66,0,0,0-1.046-1.391,4.948,4.948,0,0,0-3.416-.911,4.185,4.185,0,0,0-2.94,1.59,6.6,6.6,0,0,0-1.279,4.685,9.98,9.98,0,0,0,1.727,4.978,6.427,6.427,0,0,0,4.864,2.9c1.247.108,2.512.122,3.745.122.19,0,.382,0,.58.007h1.076a6.41,6.41,0,0,0,2.451-.417,2.89,2.89,0,0,0,1.924-2.743,8.671,8.671,0,0,0-.138-1.689c-.02-.165-.046-.328-.066-.488-.343-2.666-.705-5.382-1.048-8.011-.144-1.1-.29-2.214-.435-3.319a10.663,10.663,0,0,1,3.27.269,13.954,13.954,0,0,0,5.313.2,13.294,13.294,0,0,0,5.537-2.957.61.61,0,0,0,.1-.767.55.55,0,0,0-.469-.28.519.519,0,0,0-.2.039" fill="none"/>
    </clipPath>
    <radialGradient id="radial-gradient-2" cx="0.748" cy="0.5" r="0.809" gradientTransform="translate(-7.617 -1.65) scale(0.692 1.04)" gradientUnits="objectBoundingBox">
      <stop offset="0" stop-color="#174fa0"/>
      <stop offset="0.22" stop-color="#51b5e7"/>
      <stop offset="0.45" stop-color="#3175b8"/>
      <stop offset="0.64" stop-color="#459ed6"/>
      <stop offset="0.814" stop-color="#4399d3"/>
      <stop offset="1" stop-color="#387bbd"/>
    </radialGradient>
    <clipPath id="clip-path-7">
      <path id="Path_145348" data-name="Path 145348" d="M753.925,274.658a4.456,4.456,0,0,1-1.859-.589,2.934,2.934,0,0,1-1.3-2.332c-.183-1.77-.37-3.567-.547-5.31-.079-.774-.159-1.555-.238-2.332-.038-.4-.085-.8-.125-1.207-.059-.541-.112-1.09-.172-1.646a9.186,9.186,0,0,0,1.009,1.406,3.727,3.727,0,0,1,.9,2.182c.2,2.044.415,4.115.627,6.124l.058.569a2.591,2.591,0,0,0,1.457,2.263,2.732,2.732,0,0,0,1.246.233c.5,0,1.009-.006,1.5-.006,1.048-.006,2.135-.013,3.2-.048a2.876,2.876,0,0,0,2.887-2.483,9.644,9.644,0,0,0,.053-4,9.495,9.495,0,0,0-.422-1.692,4.664,4.664,0,0,0-2.181-2.642.417.417,0,0,1-.166-.355.8.8,0,0,1,.126-.078.6.6,0,0,1,.454-.027,4.476,4.476,0,0,1,2.506,1.873,8.48,8.48,0,0,1,1.464,3.972,6.779,6.779,0,0,1-.641,3.882,3.849,3.849,0,0,1-2.59,2.071,7.516,7.516,0,0,1-1.793.179c-.25.006-.514.012-.771.026-.284.012-.567.012-.87.008-.139-.008-.277-.008-.416-.008-.363,0-.739.012-1.094.02-.336.009-.664.017-.986.017a10.633,10.633,0,0,1-1.315-.071m-4.8-15.2a.734.734,0,0,0-.535.924c0,.021,0,.035,0,.05.088.857.18,1.736.266,2.577.039.4.085.8.125,1.208.079.776.158,1.557.238,2.331.178,1.743.355,3.546.547,5.316a3.959,3.959,0,0,0,1.773,3.106,5.454,5.454,0,0,0,2.254.736,11.945,11.945,0,0,0,1.458.082c.335,0,.665-.008,1-.035.35-.007.712-.014,1.067-.014.133,0,.271.007.4.007.3.007.62.014.936-.007.244-.014.481-.014.731-.021a7.941,7.941,0,0,0,2.031-.211,4.908,4.908,0,0,0,3.231-2.6,7.929,7.929,0,0,0,.75-4.481,9.384,9.384,0,0,0-1.648-4.465A5.513,5.513,0,0,0,760.7,261.7a1.526,1.526,0,0,0-1.173.1,1.144,1.144,0,0,0-.62.666,1.446,1.446,0,0,0,.653,1.619,3.577,3.577,0,0,1,1.706,2.078,8.458,8.458,0,0,1,.377,1.5,8.579,8.579,0,0,1-.027,3.551c-.316,1.194-.864,1.673-1.951,1.716-1.061.04-2.135.04-3.178.047-.494,0-1,0-1.5.007a1.847,1.847,0,0,1-.823-.144,1.558,1.558,0,0,1-.869-1.42l-.061-.568c-.21-2.01-.423-4.082-.626-6.126a4.768,4.768,0,0,0-1.153-2.785,6.991,6.991,0,0,1-1.247-1.946.851.851,0,0,0-.8-.579,1.175,1.175,0,0,0-.281.037" fill="none"/>
    </clipPath>
    <radialGradient id="radial-gradient-3" cx="-0.279" cy="0.382" r="1" gradientTransform="translate(-1.86 -2.028) scale(0.958 1.04)" xlink:href="#radial-gradient-2"/>
    <clipPath id="clip-path-8">
      <path id="Path_145349" data-name="Path 145349" d="M739.654,265.426a1.1,1.1,0,0,1-.2-.961,2.38,2.38,0,0,1,2.326-1.955,4.48,4.48,0,0,1,4.292,2.045,9.087,9.087,0,0,1,1.575,4.369,7.452,7.452,0,0,1-.256,3.346A3.01,3.01,0,0,1,745,274.52a7.324,7.324,0,0,1-1.444.056h-.065c-.073,0-.14-.007-.224-.007a4.911,4.911,0,0,1-1.285-.173,1.313,1.313,0,0,1-.936-.767c-.028-.069-.06-.138-.087-.2a5.008,5.008,0,0,1-.336-.933.61.61,0,0,1-.007-.247.4.4,0,0,1,.218.026,4.792,4.792,0,0,1,.9.446l.028.014a2.774,2.774,0,0,0,3.327-.226,3.723,3.723,0,0,0,1.115-1.879,7.858,7.858,0,0,0-.613-5.549,4.138,4.138,0,0,0-1.662-1.763,2.111,2.111,0,0,0-2.867.776,4.988,4.988,0,0,0-.468,1.193c-.119.419-.244.431-.343.446-.021,0-.045,0-.069,0a.644.644,0,0,1-.524-.3m2.581-3.984c-.177,0-.357.015-.537.033a3.373,3.373,0,0,0-3.21,2.771,2.18,2.18,0,0,0,.4,1.833,1.61,1.61,0,0,0,1.5.685,1.419,1.419,0,0,0,1.192-1.179,3.759,3.759,0,0,1,.363-.948,1.126,1.126,0,0,1,1.536-.4,3.037,3.037,0,0,1,1.245,1.331,6.865,6.865,0,0,1,.528,4.809,2.713,2.713,0,0,1-.811,1.351,1.825,1.825,0,0,1-2.163.1l-.027-.014a5.121,5.121,0,0,0-1.106-.542,1.12,1.12,0,0,0-1.193.2,1.267,1.267,0,0,0-.3,1.234,5.533,5.533,0,0,0,.4,1.151c.026.07.059.13.086.2A2.342,2.342,0,0,0,741.7,275.4a6.444,6.444,0,0,0,1.524.214c.072.007.145.007.212.013h.1c.208,0,.407.006.6.006a5.688,5.688,0,0,0,1.048-.075,4,4,0,0,0,3.164-2.934,8.57,8.57,0,0,0,.31-3.822,10.178,10.178,0,0,0-1.766-4.869,5.5,5.5,0,0,0-4.462-2.489Z" fill="none"/>
    </clipPath>
    <radialGradient id="radial-gradient-4" cx="0.513" cy="0.298" r="1.153" gradientTransform="translate(24.852 -2.333) scale(1.353 1.04)" xlink:href="#radial-gradient-2"/>
    <clipPath id="clip-path-9">
      <path id="Path_145350" data-name="Path 145350" d="M757.136,267.312a3.537,3.537,0,0,1-1.444-2.977,3.217,3.217,0,0,1,.646-1.365,5.59,5.59,0,0,0,1.292,2.566c.119.157.2.281.277.4a.605.605,0,0,1-.059.865,3.028,3.028,0,0,1-.574.522.082.082,0,0,1-.052.023.19.19,0,0,1-.086-.031m-.514-5.9c-.02.006-.041.02-.06.026-.053.029-.119.063-.185.1l-.025.02a1.772,1.772,0,0,0-.3.221,4.414,4.414,0,0,0-1.345,2.339,4.533,4.533,0,0,0,1.977,4.128,1.155,1.155,0,0,0,.541.143,1,1,0,0,0,.626-.225,3.886,3.886,0,0,0,.765-.7,1.644,1.644,0,0,0,.132-2.084,5.808,5.808,0,0,0-.344-.495,3.682,3.682,0,0,1-1.067-2.922.532.532,0,0,0-.191-.507.483.483,0,0,0-.527-.047" fill="none"/>
    </clipPath>
    <radialGradient id="radial-gradient-5" cx="-2.344" cy="0.613" r="2.324" gradientTransform="translate(84.941 -4.705) scale(1.521 1.04)" xlink:href="#radial-gradient-2"/>
    <clipPath id="clip-path-10">
      <path id="Path_145362" data-name="Path 145362" d="M750.359,296.112a2.155,2.155,0,0,1-1.5-1.5,5,5,0,0,1-.224-1.6,6.517,6.517,0,0,1,.4-2.277c-.033.152-.053.281-.066.379a.67.67,0,0,0,.145.521.611.611,0,0,0,.191.157.679.679,0,0,0-.158.15,1.161,1.161,0,0,0-.138.845,4.507,4.507,0,0,0,.263,1.282,2.568,2.568,0,0,0,1.4,1.529,2.4,2.4,0,0,0,2.031-.124,2.909,2.909,0,0,0,.342-.2,2.536,2.536,0,0,1-1.955.946,2.681,2.681,0,0,1-.721-.1m.89-6.653a1.153,1.153,0,0,1,.152-.007.646.646,0,0,1,.448.15,1.421,1.421,0,0,1,.317.8,17.085,17.085,0,0,1-2.123.369c.152-.529.481-1.228,1.206-1.316m1.952,1.4a2.856,2.856,0,0,0-.653-2,1.763,1.763,0,0,0-.284-.219c.085.021.179.04.271.069a2.225,2.225,0,0,1,1.332,2.262.054.054,0,0,0-.007.027.228.228,0,0,1-.054.015c-.23.033-.461.075-.692.11a.5.5,0,0,0,.087-.262m-4.687-1.393a7.18,7.18,0,0,0-.89,3.546v.023a6.169,6.169,0,0,0,.283,1.939,3.168,3.168,0,0,0,2.183,2.154,3.771,3.771,0,0,0,.988.136,3.484,3.484,0,0,0,1.78-.493,4.07,4.07,0,0,0,1.747-2.352,1.382,1.382,0,0,0,.085-.465.79.79,0,0,0-.408-.694c-.212-.117-.626-.225-1,.337a.246.246,0,0,1-.032.047,3.01,3.01,0,0,1-1,.9,1.448,1.448,0,0,1-1.22.1,1.53,1.53,0,0,1-.83-.934,3.6,3.6,0,0,1-.2-.98.11.11,0,0,1-.006-.047c.013,0,.027-.008.04-.008l.026-.007c.646-.1,1.3-.2,1.932-.3s1.306-.205,1.957-.309a1.023,1.023,0,0,0,.9-.912,3.283,3.283,0,0,0-2.017-3.421,3.216,3.216,0,0,0-1.015-.161,3.9,3.9,0,0,0-3.3,1.908" fill="none"/>
    </clipPath>
    <linearGradient id="linear-gradient-5" x1="-100.555" y1="81.644" x2="-100.42" y2="81.644" xlink:href="#linear-gradient"/>
  </defs>
  <g id="Client_31" transform="translate(-17039.344 -14384.641)">
    <path id="Path_145328" data-name="Path 145328" d="M743.794,303.984c-5.32,0-10.646.007-15.965-.014a7.55,7.55,0,0,1-1.925-.259,4.757,4.757,0,0,1-2.828-2.264,12.157,12.157,0,0,1-1.437-3.875c-.534-2.47-1.088-4.939-1.549-7.428-.673-3.606-1.213-7.242-1.563-10.9-.27-2.858-.6-5.713-.843-8.572a72,72,0,0,1-.3-8.848,20.21,20.21,0,0,1,.429-3.655,7.08,7.08,0,0,1,4.753-5.564c1.45-.5,2.953-.848,4.442-1.219a57.166,57.166,0,0,1,9.631-1.414c2.657-.2,5.313-.371,7.97-.316a96.02,96.02,0,0,1,10.962.811,58.165,58.165,0,0,1,8.853,1.962,7.964,7.964,0,0,1,.963.376,7.2,7.2,0,0,1,4.271,5.589,23.9,23.9,0,0,1,.4,5.577c-.072,2.366-.185,4.739-.363,7.1-.158,2.16-.415,4.315-.639,6.467-.171,1.653-.31,3.313-.527,4.959a110.9,110.9,0,0,1-2.611,14.327,21.977,21.977,0,0,1-1.469,4.067c-.119.242-.251.473-.39.708A4.347,4.347,0,0,1,760,303.977c-2.827-.019-5.656-.007-8.483-.007h-7.733c.007,0,.007.007.007.014m0-.788v.015h2.09c2.517,0,5.043-.007,7.56-.007,2.189,0,4.371-.008,6.559-.008a3.65,3.65,0,0,0,1.958-.479,4.894,4.894,0,0,0,1.681-1.943,21.859,21.859,0,0,0,1.787-5.018,86.665,86.665,0,0,0,1.667-8.617c.323-2.167.633-4.339.884-6.52.29-2.526.494-5.063.764-7.594a91.125,91.125,0,0,0,.547-9.965,22.9,22.9,0,0,0-.349-4.3,7.082,7.082,0,0,0-2.03-4.04,7.58,7.58,0,0,0-3.158-1.666,60.85,60.85,0,0,0-11.674-2.173c-2.822-.227-5.643-.459-8.471-.418-2.287.034-4.575.171-6.855.314a52.652,52.652,0,0,0-9.38,1.346c-1.517.377-3.046.739-4.529,1.226a6.012,6.012,0,0,0-4.014,4.069,11.368,11.368,0,0,0-.416,1.714,34.183,34.183,0,0,0-.257,6.514c.093,3.2.416,6.372.739,9.547.362,3.546.678,7.107,1.239,10.631.56,3.539,1.167,7.071,2.023,10.55a29.748,29.748,0,0,0,.956,3.386,4.723,4.723,0,0,0,4.938,3.452c5.247-.048,10.494-.015,15.741-.015" transform="translate(16322 14135)" fill="#174fa0"/>
    <path id="Path_145329" data-name="Path 145329" d="M743.794,303.2c-5.247,0-10.494-.034-15.741.014a4.718,4.718,0,0,1-4.938-3.449,29.578,29.578,0,0,1-.955-3.388c-.858-3.476-1.464-7.01-2.024-10.549s-.877-7.078-1.24-10.631c-.329-3.174-.646-6.351-.738-9.546a33.711,33.711,0,0,1,.257-6.516,11.888,11.888,0,0,1,.416-1.714,5.978,5.978,0,0,1,4.014-4.067c1.483-.493,3.012-.859,4.529-1.229a53.1,53.1,0,0,1,9.38-1.344c2.28-.143,4.568-.289,6.856-.315,2.827-.042,5.649.192,8.47.419a60.4,60.4,0,0,1,11.674,2.175,7.523,7.523,0,0,1,3.158,1.666,7.126,7.126,0,0,1,2.03,4.039,22.881,22.881,0,0,1,.349,4.3,91.567,91.567,0,0,1-.547,9.964c-.264,2.533-.474,5.07-.764,7.593-.251,2.182-.561,4.357-.884,6.524a86.716,86.716,0,0,1-1.668,8.612,21.78,21.78,0,0,1-1.786,5.021,4.953,4.953,0,0,1-1.681,1.942A3.637,3.637,0,0,1,760,303.2c-2.188.006-4.37.006-6.559.006-2.517.008-5.042.008-7.56.008h-2.09Zm.112-1.111v.007h12.419c1.3,0,2.6,0,3.909-.013a2.272,2.272,0,0,0,1.865-.946,6.439,6.439,0,0,0,.91-1.487,31.684,31.684,0,0,0,1.226-3.513A107.061,107.061,0,0,0,766.9,280.9c.441-3.75.771-7.522,1.1-11.287a61.427,61.427,0,0,0,.238-7.393,18.9,18.9,0,0,0-.429-3.8,5.322,5.322,0,0,0-3.434-4.028c-.106-.04-.211-.081-.317-.115a55.008,55.008,0,0,0-7.31-1.736,83.6,83.6,0,0,0-11.088-.98,77.909,77.909,0,0,0-8.615.261,57.067,57.067,0,0,0-9.466,1.351c-1.457.357-2.914.714-4.344,1.167a5.144,5.144,0,0,0-3.626,4.065,16.445,16.445,0,0,0-.342,2.2,60.969,60.969,0,0,0,.191,9.63c.138,1.783.336,3.56.521,5.343.23,2.271.441,4.54.725,6.8a139.134,139.134,0,0,0,2.742,15.007,9.94,9.94,0,0,0,1.272,3.228,3.021,3.021,0,0,0,2.1,1.406,6.472,6.472,0,0,0,.976.07c2.584,0,5.175-.021,7.759-.021q4.193,0,8.358.006" transform="translate(16322 14135)" fill="#fff"/>
    <g id="Group_124986" data-name="Group 124986" transform="translate(16322 14135)">
      <g id="Group_124985" data-name="Group 124985" clip-path="url(#clip-path)">
        <rect id="Rectangle_17655" data-name="Rectangle 17655" width="49.309" height="50.569" transform="translate(719.014 251.536)" fill="url(#radial-gradient)"/>
      </g>
    </g>
    <path id="Path_145331" data-name="Path 145331" d="M743.7,297.407c-.119,0-.231-.007-.35-.012a3.463,3.463,0,0,1-3.368-3.2,7.213,7.213,0,0,1,.633-4.182,4.6,4.6,0,0,1,1.344-1.785,3.194,3.194,0,0,1,3.244-.644,4.515,4.515,0,0,1,.8-1.393c.039-.053.086-.109.125-.157a4.1,4.1,0,0,0,.514-.767.849.849,0,0,1,1.114-.5.658.658,0,0,1,.435.583,6.883,6.883,0,0,1-.052,1.233c-.014.138-.027.261-.04.392-.152,1.877-.316,3.786-.474,5.636-.06.665-.113,1.337-.172,2l-.007.1a4.229,4.229,0,0,1-.2,1.125c-.013.034-.026.061-.039.1l-.039.068a.64.64,0,0,1-.073.123,2.424,2.424,0,0,1-1.107.83,6.219,6.219,0,0,1-2.294.452m-1.49-7.586a4.749,4.749,0,0,0-.448.782,5.914,5.914,0,0,0-.514,3.4,2.159,2.159,0,0,0,1.423,1.912,2.536,2.536,0,0,1-.824-1.2,6.568,6.568,0,0,1-.019-3.916,5.069,5.069,0,0,1,.382-.983m3.9-.87a1.08,1.08,0,0,1,.164.68c-.072.815-.138,1.633-.211,2.454-.072.852-.145,1.735-.224,2.606a1.992,1.992,0,0,1-.362,1.037c.02-.006.033-.014.053-.022a1.259,1.259,0,0,0,.52-.355l.013-.022a4,4,0,0,0,.113-.739l.006-.105c.06-.665.112-1.337.172-2,.145-1.694.3-3.435.435-5.165a1.834,1.834,0,0,0-.422,1,.886.886,0,0,1-.257.632m-1.589.59a1.025,1.025,0,0,0-.7.288,2.754,2.754,0,0,0-.752,1.33,5.186,5.186,0,0,0-.013,3.108.977.977,0,0,0,.969.76.68.68,0,0,0,.408-.094.641.641,0,0,0,.126-.359c.072-.863.151-1.748.224-2.6.066-.77.132-1.538.2-2.3a.822.822,0,0,0-.462-.138" transform="translate(16322 14135)" fill="#0057a4"/>
    <g id="Group_124990" data-name="Group 124990" transform="translate(16322 14135)">
      <g id="Group_124989" data-name="Group 124989" clip-path="url(#clip-path-2)">
        <rect id="Rectangle_17657" data-name="Rectangle 17657" width="8.173" height="12.411" transform="translate(739.918 284.846)" fill="url(#linear-gradient)"/>
      </g>
    </g>
    <path id="Path_145333" data-name="Path 145333" d="M747.551,285.4a9.736,9.736,0,0,1-.092,1.517q-.316,3.816-.646,7.633a4.427,4.427,0,0,1-.171,1.055c-.014.029-.033.063-.047.089l-.006.023a1.864,1.864,0,0,1-.831.609,5.4,5.4,0,0,1-2.373.4,2.8,2.8,0,0,1-2.768-2.62,6.532,6.532,0,0,1,.573-3.793,3.934,3.934,0,0,1,1.147-1.536,2.53,2.53,0,0,1,3.1-.329c.152.1.29.062.3-.145a2.889,2.889,0,0,1,.784-1.693,5.447,5.447,0,0,0,.719-1.062c.066-.178.158-.206.316-.152m-3.533,10.3a1.046,1.046,0,0,0,1.174-1.062c.145-1.688.283-3.375.428-5.054a.379.379,0,0,0-.145-.352,1.553,1.553,0,0,0-2.1.112,3.385,3.385,0,0,0-.936,1.652,5.853,5.853,0,0,0,.006,3.512,1.616,1.616,0,0,0,1.569,1.192" transform="translate(16322 14135)" fill="#fff"/>
    <path id="Path_145334" data-name="Path 145334" d="M727.287,297.2c-.1,0-.191,0-.283-.007-.119,0-.231-.008-.336-.008a.952.952,0,0,1-.831-.261,1.021,1.021,0,0,1-.191-.863v-.007c.053-.609.1-1.226.152-1.839.105-1.255.21-2.551.322-3.826.02-.239-.019-.273-.052-.3a.781.781,0,0,1-.139-1.125l.014-.014a2.887,2.887,0,0,1,1.127-.883,6.712,6.712,0,0,1,3.671-.64,2.74,2.74,0,0,1,2.585,1.7.735.735,0,0,1,.046.269c.006.012.006.019.013.033a.77.77,0,0,1,.053.206l.026.3v.233l-.026.35v.015l-.1,1.178q-.179,2.152-.363,4.3c0,.035-.007.064-.007.1a1.5,1.5,0,0,1-.191.761.648.648,0,0,1-.534.314c-.125,0-.25,0-.375.008-.3.007-.6.007-.9.019a.873.873,0,0,1-.692-.265.977.977,0,0,1-.218-.763c.086-.933.178-2.036.264-3.169.027-.321.053-.65.086-.96a18.4,18.4,0,0,0,.119-1.954.443.443,0,0,0-.455-.508,1.11,1.11,0,0,0-.831.157.917.917,0,0,0-.238.666c-.006.185-.026.358-.039.529-.006.082-.02.165-.026.254-.112,1.338-.218,2.68-.33,4.017l-.1,1.189a.7.7,0,0,1-.053.259c-.007.014-.013.036-.02.048l-.027.063a.455.455,0,0,1-.085.149.652.652,0,0,1-.481.269c-.191,0-.376.007-.561.007m-.336-1.337h.086c.079,0,.158.007.237.007l.066-.784c.112-1.337.217-2.68.33-4.017.006-.089.013-.187.026-.276.013-.157.033-.307.033-.446a2.471,2.471,0,0,1,.376-1.267,4.427,4.427,0,0,0-.468.206,3.51,3.51,0,0,0-.4.224,1.846,1.846,0,0,1,.165,1.017c-.112,1.274-.218,2.563-.323,3.819-.046.5-.086,1.009-.132,1.517m4.522-6.929a1.933,1.933,0,0,1,.349,1.119,16.683,16.683,0,0,1-.125,2.111c-.033.309-.059.625-.085.926-.073.968-.152,1.914-.224,2.751.1,0,.21,0,.322-.007q.178-2.13.357-4.258l.1-1.344v-.008l.013-.15V290l-.013-.164a1.384,1.384,0,0,1-.079-.336,1.159,1.159,0,0,0-.62-.57" transform="translate(16322 14135)" fill="#0057a4"/>
    <g id="Group_124994" data-name="Group 124994" transform="translate(16322 14135)">
      <g id="Group_124993" data-name="Group 124993" clip-path="url(#clip-path-3)">
        <rect id="Rectangle_17659" data-name="Rectangle 17659" width="7.587" height="9.523" transform="translate(725.745 287.535)" fill="url(#linear-gradient-2)"/>
      </g>
    </g>
    <path id="Path_145336" data-name="Path 145336" d="M732.818,290.281c0,.034-.007.075-.007.109a.285.285,0,0,1-.006.071c-.152,1.823-.3,3.654-.462,5.478a1.181,1.181,0,0,1-.105.564c-.429.007-.857.007-1.285.019-.218.007-.264-.089-.251-.3.092-1.063.185-2.119.264-3.182.072-.993.224-1.982.2-2.984a1.087,1.087,0,0,0-1.022-1.158,1.413,1.413,0,0,0-1.786,1.453c-.013.254-.04.5-.066.755-.145,1.756-.283,3.512-.428,5.268v-.007l-.06.123.007-.007a6.414,6.414,0,0,1-1.167.034c-.409.007-.4,0-.369-.4.158-1.886.31-3.778.475-5.665a.937.937,0,0,0-.3-.885c-.112-.089-.066-.131,0-.218a2.3,2.3,0,0,1,.89-.681,6.175,6.175,0,0,1,3.342-.574,2.091,2.091,0,0,1,2.043,1.281.577.577,0,0,0,.066.315c.007.1.02.2.027.3v.124c0,.07-.007.123-.007.178" transform="translate(16322 14135)" fill="#fff"/>
    <path id="Path_145337" data-name="Path 145337" d="M736.319,297.42a5.256,5.256,0,0,1-1.938-.377,2.023,2.023,0,0,1-.988-.741,2.689,2.689,0,0,1-.4-2.021,3.171,3.171,0,0,1,1.226-2.025,6.239,6.239,0,0,1,1.5-.762c.541-.191,1.1-.348,1.628-.493.007-.061.014-.124.021-.184a3.523,3.523,0,0,0,.006-1.084c-.02-.082-.039-.138-.178-.159a.615.615,0,0,0-.718.384c-.047.082-.093.179-.139.276a4.531,4.531,0,0,1-.224.437,1.269,1.269,0,0,1-1.648.5,1.3,1.3,0,0,1-.679-1.515,2.453,2.453,0,0,1,1.14-1.549,4.57,4.57,0,0,1,2.9-.7,2.474,2.474,0,0,1,2.03,1.05.572.572,0,0,1,.046.082,3.832,3.832,0,0,1,.277,2l-.059.747c-.1,1.2-.2,2.429-.31,3.643-.02.192-.046.363-.079.535-.013.068-.027.138-.033.206a.667.667,0,0,1-.04.152,1.766,1.766,0,0,1-.824.965,5.548,5.548,0,0,1-2.511.631m-1.641-3.812a1.883,1.883,0,0,0-.422.912,1.365,1.365,0,0,0,.184,1.009.8.8,0,0,0,.4.259c.033.014.072.029.1.041a2.09,2.09,0,0,1-.382-1.384,2.186,2.186,0,0,1,.119-.837m3.717-1.666a.975.975,0,0,1,.112.568c-.019.233-.039.474-.059.706-.053.617-.1,1.248-.171,1.879a1.773,1.773,0,0,1-.165.569c.052-.027.112-.053.165-.082s.105-.068.178-.225c.006-.049.02-.1.026-.145a3.508,3.508,0,0,0,.06-.4c.1-1.215.21-2.448.309-3.643l.06-.747a2.555,2.555,0,0,0-.132-1.249.855.855,0,0,0-.389-.3,1.643,1.643,0,0,1,.237.582,5.193,5.193,0,0,1,.013,1.5c-.02.165-.033.323-.039.472a.917.917,0,0,1-.2.523m-1.226,1.125a3.244,3.244,0,0,0-.8.382,1.072,1.072,0,0,0-.541.981v.069a.7.7,0,0,0,.178.582.779.779,0,0,0,.686.131c.27-.048.29-.225.3-.281.066-.609.119-1.233.172-1.838.006,0,.006-.014.006-.026m-1.964-3.472a1.049,1.049,0,0,0-.158.322c.046-.082.085-.172.132-.266.006-.015.019-.035.026-.056" transform="translate(16322 14135)" fill="#0057a4"/>
    <g id="Group_124998" data-name="Group 124998" transform="translate(16322 14135)">
      <g id="Group_124997" data-name="Group 124997" clip-path="url(#clip-path-4)">
        <rect id="Rectangle_17661" data-name="Rectangle 17661" width="7.099" height="9.722" transform="translate(733.003 287.554)" fill="url(#linear-gradient-3)"/>
      </g>
    </g>
    <path id="Path_145339" data-name="Path 145339" d="M739.324,288.849a3.162,3.162,0,0,1,.218,1.638c-.126,1.461-.244,2.929-.37,4.39-.019.227-.072.459-.1.685a1.087,1.087,0,0,1-.514.625,4.651,4.651,0,0,1-3.942.233,1.428,1.428,0,0,1-.692-.5,2.39,2.39,0,0,1,.659-3.107,5.511,5.511,0,0,1,1.344-.678c.581-.205,1.174-.37,1.767-.535.112-.035.257-.041.271-.2A6.8,6.8,0,0,0,738,289.6a.8.8,0,0,0-.705-.679,1.251,1.251,0,0,0-1.378.713c-.125.225-.218.472-.349.692a.639.639,0,0,1-.838.239.63.63,0,0,1-.316-.754,1.76,1.76,0,0,1,.851-1.13,3.925,3.925,0,0,1,2.511-.6,1.83,1.83,0,0,1,1.549.762m-4.133,5.609a1.279,1.279,0,0,0,1.615,1.42.96.96,0,0,0,.824-.863c.1-.859.158-1.715.23-2.574.02-.191-.072-.281-.25-.224a5.653,5.653,0,0,0-1.595.672,1.784,1.784,0,0,0-.824,1.569" transform="translate(16322 14135)" fill="#fff"/>
    <path id="Path_145340" data-name="Path 145340" d="M757.92,297.413a3.023,3.023,0,0,1-2.314-1.088,4.213,4.213,0,0,1-.883-2.093,7.2,7.2,0,0,1-.1-1.255v-.027a7.154,7.154,0,0,1,1.161-3.87,3.8,3.8,0,0,1,1.97-1.48,3.541,3.541,0,0,1,2.216-.034,2.648,2.648,0,0,1,1.838,1.926,1.6,1.6,0,0,1-.836,1.908,1.161,1.161,0,0,1-1.55-.576,4.262,4.262,0,0,1-.171-.413c-.027-.076-.053-.143-.079-.211a.756.756,0,0,0-.481-.489.742.742,0,0,0-.64.269,2.634,2.634,0,0,0-.712,1.659,4.384,4.384,0,0,0,.119,1.811,1.988,1.988,0,0,0,.349.678,1.025,1.025,0,0,0,1.549.089,4.64,4.64,0,0,0,.567-.72.333.333,0,0,0,.02-.034.837.837,0,0,1,1.061-.437.949.949,0,0,1,.567,1.131v.019a3.812,3.812,0,0,1-2.617,3.08,3.677,3.677,0,0,1-1.035.157m-2.01-4.436a5.679,5.679,0,0,0,.079,1.015,2.877,2.877,0,0,0,.567,1.433,1.823,1.823,0,0,0,2.056.548,1.691,1.691,0,0,0,.323-.13,2.487,2.487,0,0,1-.448.022,2.319,2.319,0,0,1-1.641-.844,3.227,3.227,0,0,1-.607-1.147,5.293,5.293,0,0,1-.2-2.09,6.765,6.765,0,0,0-.132,1.193m4-4.006a2.422,2.422,0,0,1,.435.687c.039.094.073.184.1.273.027.068.053.138.079.2a.319.319,0,0,0,.04-.3,1.31,1.31,0,0,0-.659-.864" transform="translate(16322 14135)" fill="#0057a4"/>
    <g id="Group_125002" data-name="Group 125002" transform="translate(16322 14135)">
      <g id="Group_125001" data-name="Group 125001" clip-path="url(#clip-path-5)">
        <rect id="Rectangle_17663" data-name="Rectangle 17663" width="7.107" height="9.715" transform="translate(754.762 287.555)" fill="url(#linear-gradient-4)"/>
      </g>
    </g>
    <path id="Path_145342" data-name="Path 145342" d="M755.263,292.969a6.407,6.407,0,0,1,1.048-3.505,3.152,3.152,0,0,1,3.467-1.267,1.986,1.986,0,0,1,1.411,1.466.914.914,0,0,1-.462,1.118.526.526,0,0,1-.731-.267c-.092-.186-.152-.392-.237-.59a1.235,1.235,0,0,0-2.149-.433,3.311,3.311,0,0,0-.9,2.073,5.016,5.016,0,0,0,.145,2.1,2.6,2.6,0,0,0,.475.912,1.645,1.645,0,0,0,2.459.138,5.2,5.2,0,0,0,.659-.823c.086-.123.172-.3.343-.232.2.076.165.281.145.453a3.161,3.161,0,0,1-2.149,2.5,2.45,2.45,0,0,1-2.7-.747,3.546,3.546,0,0,1-.725-1.763,6.513,6.513,0,0,1-.092-1.133" transform="translate(16322 14135)" fill="#fff"/>
    <path id="Path_145343" data-name="Path 145343" d="M732.37,275.892c-1.239,0-2.505-.014-3.758-.124a6.545,6.545,0,0,1-4.963-2.963,10.112,10.112,0,0,1-1.754-5.055,6.752,6.752,0,0,1,1.312-4.787,4.259,4.259,0,0,1,3.032-1.637,5.047,5.047,0,0,1,3.507.938,2.785,2.785,0,0,1,1.1,1.461,2.1,2.1,0,0,1-.316,2.044c-.1.123-.159.232-.02.535a5.309,5.309,0,0,0,.283.515c.053.089.112.179.165.273a4.039,4.039,0,0,1,.481,1.18,2.111,2.111,0,0,1-.4,1.79,3.432,3.432,0,0,1-1.99,1.174.628.628,0,0,1-.66-.351.7.7,0,0,1,.1-.767c.29-.329.369-.646-.013-1.461a6.08,6.08,0,0,0-.481-.8,1.787,1.787,0,0,1,.145-2.526c.039-.046.079-.087.119-.135.125-.146.2-.228.217-.31a.209.209,0,0,0,0-.116,1.327,1.327,0,0,0-.884-.61,1.245,1.245,0,0,0-.975.184,1.8,1.8,0,0,0-.653,1.207,9.438,9.438,0,0,0,.567,5.164,4.773,4.773,0,0,0,.428.8,2.4,2.4,0,0,0,2.136,1.222c.936.005,1.886.019,2.8.034l1.556.019a2.932,2.932,0,0,0,.316-.019c.666-.07.9-.351.864-1.05-.033-.59-.119-1.18-.2-1.8-.039-.254-.072-.515-.105-.767-.244-1.915-.5-3.863-.752-5.742-.092-.719-.191-1.439-.283-2.16-.033-.254-.066-.508-.092-.755-.073-.6-.139-1.166-.251-1.727a1.52,1.52,0,0,1,.705-1.618,6.365,6.365,0,0,1,5.61-1.009,21.065,21.065,0,0,0,5.887.863,16.42,16.42,0,0,0,4.8-1.461l.257-.1a.68.68,0,0,1,.837.295.781.781,0,0,1-.118.953,13.527,13.527,0,0,1-5.6,2.99,13.9,13.9,0,0,1-5.359-.206,10.723,10.723,0,0,0-3.085-.281q.207,1.582.415,3.174c.342,2.627.705,5.343,1.048,8.011.02.158.046.317.066.482a9.037,9.037,0,0,1,.138,1.713,3.029,3.029,0,0,1-2.017,2.873,6.555,6.555,0,0,1-2.505.426H732.95c-.2.007-.389.007-.58.007m-5.564-13.265a2.731,2.731,0,0,0-.422.029,3.02,3.02,0,0,0-2.175,1.144,5.343,5.343,0,0,0-1.035,3.848,8.721,8.721,0,0,0,1.516,4.384,5.332,5.332,0,0,0,4.034,2.414c1.4.123,2.835.115,4.226.115h1.114a5.287,5.287,0,0,0,2.01-.343,1.705,1.705,0,0,0,1.187-1.686,7.937,7.937,0,0,0-.125-1.448c-.027-.165-.053-.335-.073-.506-.349-2.668-.705-5.384-1.048-8.011-.152-1.14-.3-2.272-.448-3.409a1.1,1.1,0,0,1,.138-.885,1.062,1.062,0,0,1,.8-.363,11.478,11.478,0,0,1,3.692.273,12.891,12.891,0,0,0,4.891.2l.118-.019h-.045a22.33,22.33,0,0,1-6.23-.912,5.126,5.126,0,0,0-4.561.822c-.191.131-.185.15-.165.239.118.617.191,1.237.263,1.838.027.24.06.494.093.734.092.72.191,1.442.283,2.162.251,1.884.508,3.834.752,5.747.032.247.065.5.105.748.093.624.185,1.267.218,1.921a2.13,2.13,0,0,1-2.017,2.448c-.146.014-.3.026-.462.026l-1.556-.019c-.916-.015-1.865-.029-2.795-.034a3.656,3.656,0,0,1-3.2-1.82,5.816,5.816,0,0,1-.54-1.027,10.811,10.811,0,0,1-.653-5.912,3.164,3.164,0,0,1,1.167-2.066,2.505,2.505,0,0,1,1.971-.418,2.593,2.593,0,0,1,1.721,1.207,1.354,1.354,0,0,1,.131.3,1.072,1.072,0,0,0-.046-.191,1.458,1.458,0,0,0-.58-.782,4.2,4.2,0,0,0-2.261-.742m2.347,3.519c-.02.027-.046.049-.066.075-.251.295-.27.4-.277.426s.007.131.218.438a7.408,7.408,0,0,1,.586.975,3.847,3.847,0,0,1,.383,1.206c.013-.019.032-.032.046-.055a.711.711,0,0,0,.138-.658,2.786,2.786,0,0,0-.33-.782c-.046-.082-.092-.156-.145-.238a6.409,6.409,0,0,1-.368-.673,2.127,2.127,0,0,1-.185-.714" transform="translate(16322 14135)" fill="#0057a4"/>
    <path id="Path_145344" data-name="Path 145344" d="M755.257,275.935a12.134,12.134,0,0,1-1.469-.082,5.567,5.567,0,0,1-2.315-.755,4.1,4.1,0,0,1-1.838-3.217c-.192-1.771-.377-3.573-.548-5.317-.079-.774-.158-1.555-.237-2.331-.04-.4-.086-.8-.125-1.2-.086-.843-.178-1.721-.264-2.578,0-.014-.007-.026-.007-.042a.871.871,0,0,1,.64-1.083.991.991,0,0,1,1.239.631,6.88,6.88,0,0,0,1.219,1.907,4.967,4.967,0,0,1,1.194,2.866c.2,2.044.415,4.117.626,6.125l.059.571a1.438,1.438,0,0,0,.791,1.3,1.806,1.806,0,0,0,.765.131c.5-.008,1.009-.008,1.5-.008,1.041-.005,2.116-.005,3.171-.046,1.028-.036,1.522-.474,1.819-1.606a8.564,8.564,0,0,0,.027-3.491,8.267,8.267,0,0,0-.37-1.475,3.47,3.47,0,0,0-1.641-2,1.6,1.6,0,0,1-.725-1.8,1.243,1.243,0,0,1,.686-.748,1.654,1.654,0,0,1,1.272-.117,5.687,5.687,0,0,1,3.137,2.32,9.6,9.6,0,0,1,1.675,4.541,8.08,8.08,0,0,1-.765,4.559,5.048,5.048,0,0,1-3.316,2.675,8.378,8.378,0,0,1-2.063.221c-.251.007-.488.007-.725.019-.323.022-.64.014-.949.007-.132,0-.264-.007-.4-.007-.356,0-.719.007-1.069.014-.322,0-.659.015-.995.015m-5.372-14.1c.033.352.073.7.1,1.043.04.4.086.8.126,1.207.079.775.158,1.558.237,2.34.178,1.741.362,3.538.547,5.307a2.778,2.778,0,0,0,1.233,2.222,4.243,4.243,0,0,0,1.8.569,14.458,14.458,0,0,0,2.28.055c.363-.007.732-.019,1.1-.019.138,0,.277,0,.415.005.3.007.58.007.857-.005s.521-.022.771-.029a6.921,6.921,0,0,0,1.76-.177,3.75,3.75,0,0,0,2.505-2,6.645,6.645,0,0,0,.627-3.8,8.326,8.326,0,0,0-1.438-3.9,4.288,4.288,0,0,0-2.412-1.8.44.44,0,0,0-.356.012l-.04.022a.223.223,0,0,0,.086.142,4.845,4.845,0,0,1,2.248,2.724,11.248,11.248,0,0,1,.382,5.781,3.021,3.021,0,0,1-3.019,2.586c-1.074.034-2.155.041-3.21.048-.488,0-.995.008-1.5.008a3.071,3.071,0,0,1-1.306-.247,2.726,2.726,0,0,1-1.536-2.381l-.059-.568c-.211-2.01-.422-4.087-.626-6.132a3.513,3.513,0,0,0-.863-2.1,8.629,8.629,0,0,1-.719-.912" transform="translate(16322 14135)" fill="#0057a4"/>
    <path id="Path_145345" data-name="Path 145345" d="M744.136,275.783c-.191,0-.389-.006-.606-.006h-.106c-.066-.009-.132-.009-.211-.016a6.344,6.344,0,0,1-1.556-.219A2.467,2.467,0,0,1,740,274.117c-.026-.063-.053-.131-.086-.194a5.561,5.561,0,0,1-.408-1.179,1.419,1.419,0,0,1,.336-1.373,1.269,1.269,0,0,1,1.325-.232,5.554,5.554,0,0,1,1.133.557l.027.012a1.686,1.686,0,0,0,2-.076,2.54,2.54,0,0,0,.765-1.274,6.692,6.692,0,0,0-.514-4.7,2.958,2.958,0,0,0-1.193-1.277,1,1,0,0,0-1.352.35,4.107,4.107,0,0,0-.349.912,1.553,1.553,0,0,1-1.312,1.282,1.732,1.732,0,0,1-1.622-.74,2.359,2.359,0,0,1-.428-1.955,3.516,3.516,0,0,1,3.335-2.887,5.6,5.6,0,0,1,5.32,2.51,10.337,10.337,0,0,1,1.793,4.938,8.713,8.713,0,0,1-.316,3.889,4.139,4.139,0,0,1-3.27,3.031,6.271,6.271,0,0,1-1.048.077m-.646-1.352h.066a6.668,6.668,0,0,0,1.417-.056,2.828,2.828,0,0,0,2.281-2.153,7.368,7.368,0,0,0,.25-3.284,9.009,9.009,0,0,0-1.549-4.3,4.326,4.326,0,0,0-4.166-1.981,2.25,2.25,0,0,0-2.208,1.843.962.962,0,0,0,.178.837.479.479,0,0,0,.468.247c.059-.006.132-.012.231-.341a5.232,5.232,0,0,1,.488-1.229,2.251,2.251,0,0,1,3.052-.83,4.2,4.2,0,0,1,1.713,1.824,8.037,8.037,0,0,1,.627,5.653,3.948,3.948,0,0,1-1.154,1.955,2.908,2.908,0,0,1-3.487.24l-.026-.016a4.011,4.011,0,0,0-.87-.43.248.248,0,0,1-.046-.015.19.19,0,0,0,.013.061,5.038,5.038,0,0,0,.323.907c.026.067.059.136.085.206a1.2,1.2,0,0,0,.844.691,5.241,5.241,0,0,0,1.252.172c.086-.007.152,0,.218,0" transform="translate(16322 14135)" fill="#0057a4"/>
    <path id="Path_145346" data-name="Path 145346" d="M757.228,268.534a1.33,1.33,0,0,1-.607-.16,4.661,4.661,0,0,1-2.05-4.293,4.515,4.515,0,0,1,1.391-2.421,2.641,2.641,0,0,1,.316-.24l.027-.019a1.536,1.536,0,0,1,.2-.111.635.635,0,0,0,.059-.028.631.631,0,0,1,.673.064.676.676,0,0,1,.244.65,3.441,3.441,0,0,0,1.041,2.806,5.2,5.2,0,0,1,.356.506,1.785,1.785,0,0,1-.145,2.257,4.07,4.07,0,0,1-.791.728,1.1,1.1,0,0,1-.711.261m-.963-5.228a3.013,3.013,0,0,0-.442,1.058,3.419,3.419,0,0,0,1.371,2.817c.007,0,.007.008.014.008a3.083,3.083,0,0,0,.534-.481c.23-.288.237-.383.045-.693a3.977,3.977,0,0,0-.27-.384,6.307,6.307,0,0,1-1.252-2.325" transform="translate(16322 14135)" fill="#0057a4"/>
    <g id="Group_125006" data-name="Group 125006" transform="translate(16322 14135)">
      <g id="Group_125005" data-name="Group 125005" clip-path="url(#clip-path-6)">
        <rect id="Rectangle_17665" data-name="Rectangle 17665" width="29.201" height="20.204" transform="translate(721.883 255.551)" fill="url(#radial-gradient-2)"/>
      </g>
    </g>
    <g id="Group_125008" data-name="Group 125008" transform="translate(16322 14135)">
      <g id="Group_125007" data-name="Group 125007" clip-path="url(#clip-path-7)">
        <rect id="Rectangle_17666" data-name="Rectangle 17666" width="17.093" height="16.367" transform="translate(748.494 259.416)" fill="url(#radial-gradient-3)"/>
      </g>
    </g>
    <g id="Group_125010" data-name="Group 125010" transform="translate(16322 14135)">
      <g id="Group_125009" data-name="Group 125009" clip-path="url(#clip-path-8)">
        <rect id="Rectangle_17667" data-name="Rectangle 17667" width="10.487" height="14.189" transform="translate(738.343 261.442)" fill="url(#radial-gradient-4)"/>
      </g>
    </g>
    <g id="Group_125012" data-name="Group 125012" transform="translate(16322 14135)">
      <g id="Group_125011" data-name="Group 125011" clip-path="url(#clip-path-9)">
        <rect id="Rectangle_17668" data-name="Rectangle 17668" width="4.627" height="7.037" transform="translate(754.579 261.351)" fill="url(#radial-gradient-5)"/>
      </g>
    </g>
    <path id="Path_145351" data-name="Path 145351" d="M736.193,259.061c-.06-.432-.046-.445.382-.5a10.736,10.736,0,0,1,3.494.269,13.35,13.35,0,0,0,5.122.206,12.85,12.85,0,0,0,5.286-2.833c.047-.048,0-.152-.045-.13-1.418.583-3.765,1.6-5.287,1.61a21.965,21.965,0,0,1-6.058-.885,5.722,5.722,0,0,0-5.082.919.849.849,0,0,0-.436.935c.165.828.238,1.68.35,2.522.349,2.634.7,5.276,1.041,7.909.112.872.271,1.743.316,2.62a1.476,1.476,0,0,1-1.443,1.749,2.672,2.672,0,0,1-.389.02c-1.45-.02-2.9-.049-4.351-.056a3.024,3.024,0,0,1-2.669-1.522,5.694,5.694,0,0,1-.488-.912,10.059,10.059,0,0,1-.607-5.534,2.494,2.494,0,0,1,.91-1.64,1.954,1.954,0,0,1,2.775.61.847.847,0,0,1,.086.6,1.624,1.624,0,0,1-.488.756,1.122,1.122,0,0,0-.1,1.692,7.607,7.607,0,0,1,.533.885,1.823,1.823,0,0,1-.085,2.209,2.78,2.78,0,0,0,1.588-.933,1.411,1.411,0,0,0,.271-1.227,3.455,3.455,0,0,0-.4-.982,8.331,8.331,0,0,1-.482-.848,1.114,1.114,0,0,1,.112-1.242,1.4,1.4,0,0,0,.205-1.394,2.122,2.122,0,0,0-.844-1.124,4.435,4.435,0,0,0-3.085-.837,3.647,3.647,0,0,0-2.6,1.394,6.045,6.045,0,0,0-1.174,4.312,9.466,9.466,0,0,0,1.636,4.72,5.97,5.97,0,0,0,4.495,2.687c1.78.152,3.573.111,5.353.118a6.158,6.158,0,0,0,2.274-.384,2.365,2.365,0,0,0,1.6-2.278,11.671,11.671,0,0,0-.2-2.079q-.751-5.688-1.51-11.4" transform="translate(16322 14135)" fill="#fbfbfa"/>
    <path id="Path_145352" data-name="Path 145352" d="M764.9,268.485a8.92,8.92,0,0,0-1.556-4.218,4.938,4.938,0,0,0-2.782-2.063,1.088,1.088,0,0,0-.817.067.651.651,0,0,0-.369.363.923.923,0,0,0,.409,1,4.119,4.119,0,0,1,1.944,2.358,8.76,8.76,0,0,1,.4,1.6,9.072,9.072,0,0,1-.039,3.77,2.382,2.382,0,0,1-2.419,2.1c-1.563.053-3.125.041-4.687.053a2.359,2.359,0,0,1-1.035-.184,2.1,2.1,0,0,1-1.167-1.839q-.345-3.345-.686-6.693a4.233,4.233,0,0,0-1.028-2.484,7.634,7.634,0,0,1-1.338-2.092.361.361,0,0,0-.5-.24c-.231.057-.158.254-.145.4q.189,1.893.389,3.78c.264,2.55.514,5.1.791,7.646a3.465,3.465,0,0,0,1.536,2.723,5.051,5.051,0,0,0,2.057.665,27.856,27.856,0,0,0,3.454.042c.435,0,.877.019,1.311-.008a12.254,12.254,0,0,0,2.664-.219,4.4,4.4,0,0,0,2.913-2.332,7.428,7.428,0,0,0,.7-4.2" transform="translate(16322 14135)" fill="#fbfbfa"/>
    <path id="Path_145353" data-name="Path 145353" d="M746.483,264.246A4.947,4.947,0,0,0,741.737,262a2.877,2.877,0,0,0-2.769,2.366,1.637,1.637,0,0,0,.3,1.393,1.118,1.118,0,0,0,1.041.493c.455-.055.646-.4.771-.816a4.665,4.665,0,0,1,.415-1.07,1.627,1.627,0,0,1,2.2-.59,3.62,3.62,0,0,1,1.456,1.55,7.346,7.346,0,0,1,.574,5.18,3.174,3.174,0,0,1-.963,1.61,2.3,2.3,0,0,1-2.742.158,4.443,4.443,0,0,0-1.028-.506c-.627-.2-.983.157-.851.822a6.38,6.38,0,0,0,.455,1.241,1.863,1.863,0,0,0,1.253,1.064,6.992,6.992,0,0,0,1.621.206,8.093,8.093,0,0,0,1.622-.063,3.5,3.5,0,0,0,2.775-2.593,8.15,8.15,0,0,0,.283-3.587,9.826,9.826,0,0,0-1.674-4.609" transform="translate(16322 14135)" fill="#fbfbfa"/>
    <path id="Path_145354" data-name="Path 145354" d="M756.911,267.778a.581.581,0,0,0,.659-.033,3.393,3.393,0,0,0,.673-.612,1.107,1.107,0,0,0,.092-1.473,5.11,5.11,0,0,0-.31-.445,4.163,4.163,0,0,1-1.174-3.341,2.075,2.075,0,0,0-.2.109,1.56,1.56,0,0,0-.25.18,3.9,3.9,0,0,0-1.193,2.063,4,4,0,0,0,1.707,3.552" transform="translate(16322 14135)" fill="#fbfbfa"/>
    <path id="Path_145355" data-name="Path 145355" d="M736.193,259.061c-.06-.432-.046-.445.382-.5a10.736,10.736,0,0,1,3.494.269,13.35,13.35,0,0,0,5.122.206,12.85,12.85,0,0,0,5.286-2.833c.047-.048,0-.152-.045-.13-1.418.583-3.765,1.6-5.287,1.61a21.965,21.965,0,0,1-6.058-.885,5.722,5.722,0,0,0-5.082.919.849.849,0,0,0-.436.935c.165.828.238,1.68.35,2.522.349,2.634.7,5.276,1.041,7.909.112.872.271,1.743.316,2.62a1.476,1.476,0,0,1-1.443,1.749,2.672,2.672,0,0,1-.389.02c-1.45-.02-2.9-.049-4.351-.056a3.024,3.024,0,0,1-2.669-1.522,5.694,5.694,0,0,1-.488-.912,10.059,10.059,0,0,1-.607-5.534,2.494,2.494,0,0,1,.91-1.64,1.954,1.954,0,0,1,2.775.61.847.847,0,0,1,.086.6,1.624,1.624,0,0,1-.488.756,1.122,1.122,0,0,0-.1,1.692,7.607,7.607,0,0,1,.533.885,1.823,1.823,0,0,1-.085,2.209,2.78,2.78,0,0,0,1.588-.933,1.411,1.411,0,0,0,.271-1.227,3.455,3.455,0,0,0-.4-.982,8.331,8.331,0,0,1-.482-.848,1.114,1.114,0,0,1,.112-1.242,1.4,1.4,0,0,0,.205-1.394,2.122,2.122,0,0,0-.844-1.124,4.435,4.435,0,0,0-3.085-.837,3.647,3.647,0,0,0-2.6,1.394,6.045,6.045,0,0,0-1.174,4.312,9.466,9.466,0,0,0,1.636,4.72,5.97,5.97,0,0,0,4.495,2.687c1.78.152,3.573.111,5.353.118a6.158,6.158,0,0,0,2.274-.384,2.365,2.365,0,0,0,1.6-2.278,11.671,11.671,0,0,0-.2-2.079q-.751-5.688-1.51-11.4" transform="translate(16322 14135)" fill="#fff"/>
    <path id="Path_145356" data-name="Path 145356" d="M764.9,268.485a8.92,8.92,0,0,0-1.556-4.218,4.938,4.938,0,0,0-2.782-2.063,1.088,1.088,0,0,0-.817.067.651.651,0,0,0-.369.363.923.923,0,0,0,.409,1,4.119,4.119,0,0,1,1.944,2.358,8.76,8.76,0,0,1,.4,1.6,9.072,9.072,0,0,1-.039,3.77,2.382,2.382,0,0,1-2.419,2.1c-1.563.053-3.125.041-4.687.053a2.359,2.359,0,0,1-1.035-.184,2.1,2.1,0,0,1-1.167-1.839q-.345-3.345-.686-6.693a4.233,4.233,0,0,0-1.028-2.484,7.634,7.634,0,0,1-1.338-2.092.361.361,0,0,0-.5-.24c-.231.057-.158.254-.145.4q.189,1.893.389,3.78c.264,2.55.514,5.1.791,7.646a3.465,3.465,0,0,0,1.536,2.723,5.051,5.051,0,0,0,2.057.665,27.856,27.856,0,0,0,3.454.042c.435,0,.877.019,1.311-.008a12.254,12.254,0,0,0,2.664-.219,4.4,4.4,0,0,0,2.913-2.332,7.428,7.428,0,0,0,.7-4.2" transform="translate(16322 14135)" fill="#fff"/>
    <path id="Path_145357" data-name="Path 145357" d="M746.483,264.246A4.947,4.947,0,0,0,741.737,262a2.877,2.877,0,0,0-2.769,2.366,1.637,1.637,0,0,0,.3,1.393,1.118,1.118,0,0,0,1.041.493c.455-.055.646-.4.771-.816a4.665,4.665,0,0,1,.415-1.07,1.627,1.627,0,0,1,2.2-.59,3.62,3.62,0,0,1,1.456,1.55,7.346,7.346,0,0,1,.574,5.18,3.174,3.174,0,0,1-.963,1.61,2.3,2.3,0,0,1-2.742.158,4.443,4.443,0,0,0-1.028-.506c-.627-.2-.983.157-.851.822a6.38,6.38,0,0,0,.455,1.241,1.863,1.863,0,0,0,1.253,1.064,6.992,6.992,0,0,0,1.621.206,8.093,8.093,0,0,0,1.622-.063,3.5,3.5,0,0,0,2.775-2.593,8.15,8.15,0,0,0,.283-3.587,9.826,9.826,0,0,0-1.674-4.609" transform="translate(16322 14135)" fill="#fff"/>
    <path id="Path_145358" data-name="Path 145358" d="M756.911,267.778a.581.581,0,0,0,.659-.033,3.393,3.393,0,0,0,.673-.612,1.107,1.107,0,0,0,.092-1.473,5.11,5.11,0,0,0-.31-.445,4.163,4.163,0,0,1-1.174-3.341,2.075,2.075,0,0,0-.2.109,1.56,1.56,0,0,0-.25.18,3.9,3.9,0,0,0-1.193,2.063,4,4,0,0,0,1.707,3.552" transform="translate(16322 14135)" fill="#fff"/>
    <path id="Path_145359" data-name="Path 145359" d="M757.795,283.937a2.827,2.827,0,0,1,.323-.6,2.8,2.8,0,0,0,.739-1.584,8.146,8.146,0,0,0-4.2-1.261,35.133,35.133,0,0,0-8.372.6c-2.122.324-10.566,1.935-16.73-2,0,0,2.967,4.664,6.638,5.62a10.172,10.172,0,0,0,7.12-.8c.593-.3,10.909-5.37,14.482.026" transform="translate(16322 14135)" fill="#84c355"/>
    <path id="Path_145360" data-name="Path 145360" d="M728.573,277.6s1.193,2.229,6.513,2.807,9.413.4,10.831-.194a7.608,7.608,0,0,1-4.47-.814c-1.945-1.166-3.942-2.93-8.8-2.278a3.088,3.088,0,0,0-.389.083,9.571,9.571,0,0,1-3.685.4" transform="translate(16322 14135)" fill="#84c355"/>
    <path id="Path_145361" data-name="Path 145361" d="M751.077,297.408a3.677,3.677,0,0,1-1.021-.145,3.288,3.288,0,0,1-2.274-2.243,6.3,6.3,0,0,1-.291-1.988v-.022a7.334,7.334,0,0,1,.91-3.621,3.95,3.95,0,0,1,4.476-1.816,3.1,3.1,0,0,1,1.655,1.413,3.371,3.371,0,0,1,.461,2.174,1.16,1.16,0,0,1-1.021,1.028c-.653.1-1.312.205-1.958.309-.614.1-1.246.2-1.873.294a3.1,3.1,0,0,0,.185.859,1.388,1.388,0,0,0,.751.848,1.3,1.3,0,0,0,1.108-.087,2.887,2.887,0,0,0,.949-.859.315.315,0,0,0,.026-.041.835.835,0,0,1,1.181-.377.936.936,0,0,1,.481.817,1.762,1.762,0,0,1-.086.513,4.221,4.221,0,0,1-1.813,2.436,3.657,3.657,0,0,1-1.846.508m-2.306-4.4a4.832,4.832,0,0,0,.217,1.55,2,2,0,0,0,1.41,1.406,2.332,2.332,0,0,0,1.662-.123,2.416,2.416,0,0,1-1.451-.116,2.7,2.7,0,0,1-1.476-1.611,4.606,4.606,0,0,1-.27-1.325,1.247,1.247,0,0,1,.171-.94l.039-.041a1.03,1.03,0,0,1-.072-.074.451.451,0,0,1-.079-.116,6.526,6.526,0,0,0-.151,1.39m4.126-3.95a3.314,3.314,0,0,1,.435,1.8c0,.026-.007.048-.007.074l.4-.062a2.17,2.17,0,0,0-.831-1.817m-1.49.542a.878.878,0,0,0-.138.008c-.185.019-.726.165-1.029,1.008.726-.089,1.352-.22,1.767-.31a1.127,1.127,0,0,0-.25-.583.432.432,0,0,0-.35-.123" transform="translate(16322 14135)" fill="#0057a4"/>
    <g id="Group_125016" data-name="Group 125016" transform="translate(16322 14135)">
      <g id="Group_125015" data-name="Group 125015" clip-path="url(#clip-path-10)">
        <rect id="Rectangle_17670" data-name="Rectangle 17670" width="7.435" height="9.706" transform="translate(747.624 287.556)" fill="url(#linear-gradient-5)"/>
      </g>
    </g>
    <path id="Path_145363" data-name="Path 145363" d="M752.68,288.2a3.313,3.313,0,0,0-3.738,1.522,6.653,6.653,0,0,0-.817,3.286,5.684,5.684,0,0,0,.25,1.777,2.653,2.653,0,0,0,1.846,1.824,3.164,3.164,0,0,0,3.9-2.365c.06-.2.126-.427-.085-.542s-.3.115-.409.253A3.537,3.537,0,0,1,752.455,295a1.891,1.891,0,0,1-2.741-1.118,3.867,3.867,0,0,1-.231-1.132c-.04-.541-.033-.534.494-.617,1.3-.2,2.591-.413,3.889-.612a.508.508,0,0,0,.482-.471,2.736,2.736,0,0,0-1.668-2.848m.013,2.62a18.127,18.127,0,0,1-3.026.521h-.092a.127.127,0,0,1-.125-.151c.066-.493.389-2.078,1.74-2.249,1.608-.2,1.5,1.879,1.5,1.879" transform="translate(16322 14135)" fill="#fff"/>
  </g>
</svg>
