<svg xmlns="http://www.w3.org/2000/svg" width="60.402" height="12.343" viewBox="0 0 60.402 12.343">
  <g id="Client_54" transform="translate(-17658.504 -14610.486)">
    <path id="Path_145263" data-name="Path 145263" d="M1358.036,476.342h12.714l-6.447,11.487Z" transform="translate(16322 14135)" fill="#f4ab33"/>
    <path id="Path_145264" data-name="Path 145264" d="M1338.652,483.331l-.507.993v3.335h-1.64V476.8h1.64v4.729l2.147-4.729h1.64l-2.281,4.84,2.281,6.017h-1.685Z" transform="translate(16322 14135)" fill="#244180"/>
    <path id="Path_145265" data-name="Path 145265" d="M1343.478,476.8v8.376c0,.776.328,1.056.85,1.056s.85-.28.85-1.056V476.8h1.55v8.269c0,1.737-.835,2.729-2.445,2.729s-2.445-.992-2.445-2.729V476.8Z" transform="translate(16322 14135)" fill="#244180"/>
    <path id="Path_145266" data-name="Path 145266" d="M1347.142,476.8h2.594c1.64,0,2.445.947,2.445,2.685v5.49c0,1.737-.805,2.685-2.445,2.685h-2.594Zm1.64,1.551v7.757h.924c.522,0,.835-.278.835-1.055v-5.646c0-.777-.313-1.056-.835-1.056Z" transform="translate(16322 14135)" fill="#244180"/>
    <path id="Path_145267" data-name="Path 145267" d="M1354.195,476.8v8.376c0,.776.327,1.056.85,1.056s.85-.28.85-1.056V476.8h1.55v8.269c0,1.737-.836,2.729-2.445,2.729s-2.445-.992-2.445-2.729V476.8Z" transform="translate(16322 14135)" fill="#244180"/>
    <path id="Path_145268" data-name="Path 145268" d="M1376.712,485.33c-.457.372-.951,2.313.461,1.865s3.359-2.5,4.136-3.732.39-5.221-3.216-4.288c-1.943.746-1.381,2.237-1.2,2.424s.884.821,1.977-.449c.32-.374,1.557.151.815,1.418a12.123,12.123,0,0,1-2.971,2.762" transform="translate(16322 14135)" fill="#244180"/>
    <path id="Path_145269" data-name="Path 145269" d="M1373.133,478.949a2.683,2.683,0,0,0-2.733,2.821,2.016,2.016,0,0,0,1.452,2.059h1.856a9.285,9.285,0,0,1-.651.671,3.09,3.09,0,0,1-2.193.679c-.141.03-1.275-.145-1.158,1.137s1.607,1.02,3.351.471a4.556,4.556,0,0,0,3.1-4.348c-.028-2.047-1.267-3.437-3.028-3.49m-.771,2.787v-.327a1.035,1.035,0,0,1,.9-.306,1.012,1.012,0,0,1,.792.7Z" transform="translate(16322 14135)" fill="#244180"/>
    <path id="Path_145270" data-name="Path 145270" d="M1394.586,478.3c-.415.043-3.505,0-3.842,0s-.626-.807-.02-.807h2.967a1.189,1.189,0,0,0,.9-1.132.864.864,0,0,0-.77-.871h-3.281a2.621,2.621,0,0,0-2.171,2.439,2.455,2.455,0,0,0,1.775,2.4h4.3c.5-.046.607.894.187.894s-6.494.15-6.494.15a3.218,3.218,0,0,0-3.012-2.611c-2.5-.024-2.714,2.438-2.65,3.049s.5,1.719,1.315,1.8a13.037,13.037,0,0,0,1.942,0,3.456,3.456,0,0,1-3.236,1.309c-.626.087-1.715,2.35,1.151,2.09a4.945,4.945,0,0,0,4.408-3.573h6.576a2.755,2.755,0,0,0,2.276-2.743,2.345,2.345,0,0,0-2.32-2.394m-10.229,3.068s-.215-.674.6-.651a1.038,1.038,0,0,1,1,.716Z" transform="translate(16322 14135)" fill="#244180"/>
  </g>
</svg>
