<svg xmlns="http://www.w3.org/2000/svg" width="65.068" height="26.388" viewBox="0 0 65.068 26.388">
  <g id="Client_81" transform="translate(-17228.67 -14828.276)">
    <path id="Path_141016" data-name="Path 141016" d="M954.676,716v-4.5a.412.412,0,1,0-.824,0V716a.412.412,0,1,0,.824,0" transform="translate(16322 14135)" fill="#3c498e"/>
    <path id="Path_141017" data-name="Path 141017" d="M956.12,710.086v6.672h-2.71a.43.43,0,0,0,0,.857h3.122a.426.426,0,0,0,.412-.427v-7.1a.412.412,0,1,0-.824,0" transform="translate(16322 14135)" fill="#3c498e"/>
    <path id="Path_141018" data-name="Path 141018" d="M951.377,711.5v5.263h-2.293c.01-1.462.064-2.938,0-4.395a1.232,1.232,0,0,0-2.438-.281,11.876,11.876,0,0,0-.028,2.348v2.328h-2.709a2.418,2.418,0,0,1,0-4.832c.529-.017.531-.873,0-.86a3.277,3.277,0,0,0,0,6.548h3.121a.426.426,0,0,0,.412-.429v-4.421c0-.238-.044-.525.129-.706.4-.412.676.124.688.5.025.81,0,1.626,0,2.437v2.191a.426.426,0,0,0,.412.429h3.122a.426.426,0,0,0,.412-.429V711.5a.412.412,0,1,0-.824,0" transform="translate(16322 14135)" fill="#3c498e"/>
    <path id="Path_141019" data-name="Path 141019" d="M959.9,711.365a3.319,3.319,0,0,0-1.823,3.288,3.181,3.181,0,0,0,3.311,2.917q-.654.683-1.309,1.363c-.375.389.207,1,.583.605l2.77-2.883c.007,0,.01-.011.016-.02a3.171,3.171,0,0,0,.355-.444,3.422,3.422,0,0,0-.371-4.164,3.1,3.1,0,0,0-3.532-.662m-.335,4.684a2.507,2.507,0,0,1,0-3.417,2.288,2.288,0,0,1,3.284,0,2.517,2.517,0,0,1,0,3.417,2.276,2.276,0,0,1-3.284,0" transform="translate(16322 14135)" fill="#3c498e"/>
    <path id="Path_141020" data-name="Path 141020" d="M950.278,718.007a.377.377,0,1,0,.363.377.37.37,0,0,0-.363-.377" transform="translate(16322 14135)" fill="#3c498e"/>
    <path id="Path_141021" data-name="Path 141021" d="M945.581,718.007a.377.377,0,1,0,.363.377.371.371,0,0,0-.363-.377" transform="translate(16322 14135)" fill="#3c498e"/>
    <path id="Path_141022" data-name="Path 141022" d="M944.567,718.007a.377.377,0,1,0,.362.377.37.37,0,0,0-.362-.377" transform="translate(16322 14135)" fill="#3c498e"/>
    <path id="Path_141023" data-name="Path 141023" d="M970.212,712.754c-.53-.037-.527.821,0,.857a.745.745,0,0,1,.5,1.247.708.708,0,0,1-1.2-.517.429.429,0,0,0-.412-.429h-.659a3.251,3.251,0,0,0-3.117-2.845c-.53-.015-.53.843,0,.858a2.418,2.418,0,0,1,0,4.832c-.529.016-.531.873,0,.858a3.25,3.25,0,0,0,3.117-2.844h.33a1.5,1.5,0,0,0,2.52.692,1.613,1.613,0,0,0-1.078-2.709" transform="translate(16322 14135)" fill="#f06c32"/>
    <path id="Path_141024" data-name="Path 141024" d="M971.149,704.212a1.224,1.224,0,0,1,.429.446,1.194,1.194,0,0,1,.159.6,1.222,1.222,0,0,1-.158.617,1.2,1.2,0,0,1-.425.445,1.166,1.166,0,0,1-1.179,0,1.183,1.183,0,0,1-.426-.445,1.241,1.241,0,0,1-.156-.617,1.216,1.216,0,0,1,.158-.607,1.18,1.18,0,0,1,.425-.445,1.122,1.122,0,0,1,1.173,0m-.1,1.927a1.024,1.024,0,0,0,.356-.369,1,1,0,0,0,.132-.507,1.022,1.022,0,0,0-.488-.876.942.942,0,0,0-.975,0,1.012,1.012,0,0,0-.357.369,1.025,1.025,0,0,0-.131.507,1.014,1.014,0,0,0,.131.507,1.032,1.032,0,0,0,.356.369.908.908,0,0,0,.487.138.92.92,0,0,0,.489-.138m.014-.3a.168.168,0,0,1,.024.076.075.075,0,0,1-.027.06.1.1,0,0,1-.071.024.1.1,0,0,1-.088-.05l-.317-.531h-.264v.477a.1.1,0,0,1-.027.073.087.087,0,0,1-.072.031.09.09,0,0,1-.073-.031.1.1,0,0,1-.029-.073v-1.321a.1.1,0,0,1,.03-.075.105.105,0,0,1,.075-.029h.339a.5.5,0,0,1,.358.133.486.486,0,0,1,.065.6.509.509,0,0,1-.2.172Zm-.743-.611h.249a.292.292,0,0,0,.212-.074.311.311,0,0,0,0-.419.289.289,0,0,0-.212-.076h-.249Z" transform="translate(16322 14135)" fill="#3c498e"/>
    <path id="Path_141025" data-name="Path 141025" d="M927.538,693.821a6.163,6.163,0,0,0-6.924,2.028,6.808,6.808,0,0,0-.539,7.473,6.255,6.255,0,0,0,6.533,3.075,6.524,6.524,0,0,0,5.128-6.342c0-.023,0-.047,0-.074a6.609,6.609,0,0,0-4.2-6.16m-.316,11.128a5.015,5.015,0,0,1-5.668-1.585,5.508,5.508,0,0,1-.452-6.1,5.048,5.048,0,0,1,5.35-2.473,5.353,5.353,0,0,1,.77,10.158" transform="translate(16322 14135)" fill="#3c498e"/>
    <path id="Path_141026" data-name="Path 141026" d="M917.5,705.889V694.073a.585.585,0,0,0-.149-.411.525.525,0,0,0-.445-.206,6.463,6.463,0,0,0-6.25,5.992h-.985a.618.618,0,0,0-.594.618.614.614,0,0,1-1.041.448.646.646,0,0,1,.431-1.082c.761-.052.764-1.291,0-1.237a1.9,1.9,0,0,0-1.272,3.194,1.755,1.755,0,0,0,2.935-.7h.54a6.463,6.463,0,0,0,6.236,5.824.616.616,0,0,0,.594-.62m-1.189-11.151v10.486a5.306,5.306,0,0,1,0-10.486" transform="translate(16322 14135)" fill="#f06c32"/>
    <path id="Path_141027" data-name="Path 141027" d="M937.02,705.27h-2.408v-11.2a.6.6,0,1,0-1.19,0v11.815a.616.616,0,0,0,.6.619h3a.621.621,0,0,0,0-1.238" transform="translate(16322 14135)" fill="#3c498e"/>
    <path id="Path_141028" data-name="Path 141028" d="M960.233,699.644a3.848,3.848,0,0,0-1.378-5.922,5.825,5.825,0,0,0-2.3-.267h-2.022a.616.616,0,0,0-.6.619v11.815a.617.617,0,0,0,.6.619h2.223a5.584,5.584,0,0,0,2.582-.379,4.05,4.05,0,0,0,.9-6.485m-2.428,5.624c-.891.032-1.787.015-2.679.006V694.689c.8-.005,1.6-.016,2.4,0a2.448,2.448,0,0,1,2.222,1.524,2.638,2.638,0,0,1-.846,3.041.5.5,0,0,0-.121.685.6.6,0,0,0,.241.287c2.154,1.382,1.372,4.945-1.219,5.038" transform="translate(16322 14135)" fill="#3c498e"/>
    <path id="Path_141029" data-name="Path 141029" d="M947.022,695.087l-.726-1.5a.588.588,0,0,0-1.027,0l-5.093,10.49-.726,1.495c-.344.71.681,1.336,1.027.625l5.093-10.49c.071-.145.142-.292.212-.437q2.291,4.715,4.58,9.431l.726,1.5c.345.71,1.371.085,1.027-.625q-2.547-5.244-5.093-10.489" transform="translate(16322 14135)" fill="#394a8f"/>
    <path id="Path_141030" data-name="Path 141030" d="M970.755,693.488l-3.808,4.926-3.808-4.926c-.48-.62-1.316.261-.841.875q2.028,2.621,4.054,5.243v6.283a.6.6,0,1,0,1.19,0v-6.283l4.054-5.243c.476-.613-.361-1.495-.841-.875" transform="translate(16322 14135)" fill="#3c498e"/>
  </g>
</svg>
