<svg xmlns="http://www.w3.org/2000/svg" width="60.037" height="60.174" viewBox="0 0 60.037 60.174">
  <g id="Client_60" transform="translate(-17814.863 -14695.362)">
    <path id="Path_145278" data-name="Path 145278" d="M1524.341,571.005a.494.494,0,0,0-.637-.6l-9.985,2.448a.749.749,0,0,0-.53.946l.077.276a.987.987,0,0,0,.979.7l8.918-.746a1.033,1.033,0,0,0,.875-.854Z" transform="translate(16322 14135)" fill="#7f213b"/>
    <path id="Path_145279" data-name="Path 145279" d="M1524.364,566c.058-.435-.221-.678-.621-.539l-11.634,4.015a.83.83,0,0,0-.507,1.013l.231.8a.823.823,0,0,0,.985.576l10.391-2.548a1.234,1.234,0,0,0,.836-.966Z" transform="translate(16322 14135)" fill="#7f4398"/>
    <path id="Path_145280" data-name="Path 145280" d="M1516.887,588.715a1.436,1.436,0,0,0,.973.923l2.387.5a.726.726,0,0,0,.862-.633l.618-4.424a.917.917,0,0,0-.633-.988l-5.281-1.413c-.409-.11-.644.142-.521.564Z" transform="translate(16322 14135)" fill="#d12845"/>
    <path id="Path_145281" data-name="Path 145281" d="M1515.161,580.591a1.567,1.567,0,0,0,.965.967l5.721,1.565a.679.679,0,0,0,.86-.585l.259-1.744a.8.8,0,0,0-.643-.906l-6.957-1.068c-.418-.064-.658.226-.534.647Z" transform="translate(16322 14135)" fill="#fab132"/>
    <path id="Path_145282" data-name="Path 145282" d="M1513.992,576a.576.576,0,0,0-.583.711,1.215,1.215,0,0,0,.937.762l7.5,1.126a.777.777,0,0,0,.87-.674l.263-1.887a.6.6,0,0,0-.654-.725Z" transform="translate(16322 14135)" fill="#78c058"/>
    <path id="Path_145283" data-name="Path 145283" d="M1518.565,566.135l-1.4-5.639a.174.174,0,0,0-.191-.132.177.177,0,0,0-.151.178l.011,6.12a.185.185,0,0,0,.072.148.172.172,0,0,0,.1.033.144.144,0,0,0,.054-.01l1.39-.48a.183.183,0,0,0,.114-.218" transform="translate(16322 14135)" fill="#7f4398"/>
    <path id="Path_145284" data-name="Path 145284" d="M1519.639,590.83a.173.173,0,0,0-.111-.079l-1.055-.229a.176.176,0,0,0-.159.052.181.181,0,0,0-.044.168l.553,2.449a.171.171,0,0,0,.337,0l.5-2.222a.188.188,0,0,0-.023-.139" transform="translate(16322 14135)" fill="#7f4398"/>
    <path id="Path_145285" data-name="Path 145285" d="M1524.83,602.16a3.278,3.278,0,0,0-.712,2.188c0,1.505.717,2.438,1.868,2.438a5.74,5.74,0,0,0,1.387-.212,2.262,2.262,0,0,1-1.5,2.192l-.2.082.282.5.137-.042a3.007,3.007,0,0,0,2.2-3.2v-4.776h-1.578a2.4,2.4,0,0,0-1.888.833m2.545,3.6a3.409,3.409,0,0,1-1.11.2c-.3,0-1.215,0-1.215-1.856,0-1.389.578-2.186,1.588-2.186h.737Z" transform="translate(16322 14135)" fill="#7f4398"/>
    <path id="Path_145286" data-name="Path 145286" d="M1535.886,602.905a.683.683,0,1,0-.656-.684.671.671,0,0,0,.656.684" transform="translate(16322 14135)" fill="#7f4398"/>
    <path id="Path_145287" data-name="Path 145287" d="M1538.673,602.905a.683.683,0,1,0-.656-.684.67.67,0,0,0,.656.684" transform="translate(16322 14135)" fill="#7f4398"/>
    <path id="Path_145288" data-name="Path 145288" d="M1541.459,602.905a.683.683,0,1,0-.656-.684.672.672,0,0,0,.656.684" transform="translate(16322 14135)" fill="#7f4398"/>
    <path id="Path_145289" data-name="Path 145289" d="M1520.669,601.357l-.135-.046a4.233,4.233,0,0,0-1.4-.226,2.6,2.6,0,0,0-2.027.857,3.3,3.3,0,0,0-.747,2.249,3.174,3.174,0,0,0,.411,1.675h-8.78v-7.214h-.9v8.013h11.039c1.617,0,2.438-.733,2.438-2.183v-1.858Zm-2.267,4.521c-.664,0-1.11-.775-1.11-1.931a2.846,2.846,0,0,1,.367-1.564,1.338,1.338,0,0,1,1.22-.644,2.572,2.572,0,0,1,.677.113l.109.85a11,11,0,0,1,.1,1.294c0,1.268-.447,1.882-1.366,1.882" transform="translate(16322 14135)" fill="#7f4398"/>
    <path id="Path_145290" data-name="Path 145290" d="M1522.293,606.514a2.425,2.425,0,0,1-.312,1.205,2.473,2.473,0,0,1-1.2,1.048l-.194.083.283.5.136-.042a3.007,3.007,0,0,0,2.2-3.205v-4.793h-.907Z" transform="translate(16322 14135)" fill="#7f4398"/>
    <path id="Path_145291" data-name="Path 145291" d="M1552,601.536v3.126c0,1.059-.541,1.181-.948,1.181a1.579,1.579,0,0,1-1.145-.661v-3.125h-.886v2.6c0,.806-.308,1.181-.97,1.181a1.431,1.431,0,0,1-.947-.477,1.828,1.828,0,0,0,.034-.377v-2.932h-.884l-.012,2.619c0,.82-.312,1.2-.982,1.2l-14.794-.018v-7.209h-.9v8.032l.2-.016,15.784,0a1.494,1.494,0,0,0,1.152-.466,1.412,1.412,0,0,0,.191-.245,1.882,1.882,0,0,0,1.46.711,1.4,1.4,0,0,0,1.4-.876,1.839,1.839,0,0,0,1.582.876,1.572,1.572,0,0,0,1.565-1.774v-3.356Z" transform="translate(16322 14135)" fill="#7f4398"/>
    <path id="Path_145292" data-name="Path 145292" d="M1505.231,605.287a.619.619,0,1,0,.6.619.608.608,0,0,0-.6-.619" transform="translate(16322 14135)" fill="#d12845"/>
    <path id="Path_145293" data-name="Path 145293" d="M1503.022,603.144c-.524-.749-.679-.811-.784-.811-.12,0-.247.082-.247.314,0,.12.052.363.506,1.1.143.217.354.55.637,1a5.566,5.566,0,0,1,.522,1.015l-.075.006a.8.8,0,0,1-.119.011.786.786,0,0,1-.379-.115c-.059-.038-.137-.083-.236-.143l-.185-.111a6.279,6.279,0,0,1-1.176-.933c-.087-.262-.206-.57-.364-.934l-.843-1.956a9.638,9.638,0,0,1-.635-1.87c-.018-.106-.056-.3-.117-.576a.9.9,0,0,0-.3-.485l-.042-.034-.052.009a.407.407,0,0,0-.268.248.817.817,0,0,0-.1.373,7.738,7.738,0,0,0,.456,1.255l1.017,2.634c.263.688.421,1.1.469,1.243l.093.261a2.865,2.865,0,0,1,.227.616.4.4,0,0,0,.015.051,2.76,2.76,0,0,1,.034.394.179.179,0,0,1-.028.117.137.137,0,0,1-.082.02.4.4,0,0,1-.09-.008h-.054c0-.025.005-.049.005-.075a4.124,4.124,0,0,0-.631-1.462c-.65-1.2-.766-1.2-.86-1.2a.318.318,0,0,0-.276.183.626.626,0,0,0-.091.328c0,.163.074.489.72,1.432a7.776,7.776,0,0,1,.417.658c-.141.1-.189.1-.192.1a1.21,1.21,0,0,1-.949-.46,11.191,11.191,0,0,0-.508-1.031c-.112-.208-.208-.378-.291-.521l-.023-.056-.006.01c-.373-.632-.464-.633-.54-.633a.318.318,0,0,0-.276.18.639.639,0,0,0-.091.33c0,.163.074.489.72,1.43.2.293.34.514.417.657-.142.106-.189.109-.191.109a1.234,1.234,0,0,1-1-.517,12.179,12.179,0,0,1-.948-1.925l-.1-.24-.121.227-.018.028h-.052l-.037.044a1.04,1.04,0,0,0-.121.165.546.546,0,0,0-.048.245,3.766,3.766,0,0,0,.218.719c.064.185.125.359.149.445a2.1,2.1,0,0,1,.088.476.371.371,0,0,1-.182.333.638.638,0,0,1-.348.1,1.643,1.643,0,0,1-1.218-.5,2.108,2.108,0,0,1-.563-1.554,1.05,1.05,0,0,1,.046-.366,1.062,1.062,0,0,1,.151-.238.514.514,0,0,0,.285-.229l.05-.073-.173-.28h-.067c-.281,0-.5.217-.652.645a3.094,3.094,0,0,0-.168,1.047,2.061,2.061,0,0,0,.882,1.711,2.542,2.542,0,0,0,1.541.541,1.16,1.16,0,0,0,1.033-.632l.017-.032v-.135l.028-.016c.073.034.269.142.8.468a1.237,1.237,0,0,0,.621.215c.491,0,.692-.218.769-.441.1.06.209.126.35.213a1.216,1.216,0,0,0,.619.214.933.933,0,0,0,.562-.149.475.475,0,0,1,.056.02l.137.051a1.128,1.128,0,0,0,.361.072.533.533,0,0,0,.493-.252,1.347,1.347,0,0,0,.108-.623v-.15c.2.175.346.3.445.384a2.621,2.621,0,0,0,1.516.668c.655,0,.792-.317.792-.583a3.464,3.464,0,0,0-.63-1.46c-.277-.478-.556-.917-.829-1.311" transform="translate(16322 14135)" fill="#d12845"/>
    <path id="Path_145294" data-name="Path 145294" d="M1496.639,614.691a4.283,4.283,0,0,0-.865-.245c-.285-.051-.581-.109-.9-.181-.239-.051-.418-.092-.548-.128a.6.6,0,0,1-.232-.1.223.223,0,0,1-.068-.12,2.269,2.269,0,0,1-.024-.377.643.643,0,0,1,.278-.621,2.059,2.059,0,0,1,1-.193,3.866,3.866,0,0,1,.471.03c.165.019.321.043.464.074s.28.061.4.093.21.061.282.087l.139.051.451-.755-.184-.091a2.191,2.191,0,0,0-.443-.155,5.175,5.175,0,0,0-.529-.1c-.184-.03-.375-.051-.585-.066a4.194,4.194,0,0,0-1.365.077,2.155,2.155,0,0,0-.662.3,1.5,1.5,0,0,0-.469.525,1.517,1.517,0,0,0-.174.739,1.853,1.853,0,0,0,.153.821,1.186,1.186,0,0,0,.505.519,3,3,0,0,0,.819.286q.48.106,1.157.239c.215.046.393.085.538.118a.972.972,0,0,1,.287.112.321.321,0,0,1,.117.15.932.932,0,0,1,.044.326,1.332,1.332,0,0,1-.081.528.5.5,0,0,1-.211.229.959.959,0,0,1-.39.1,7.145,7.145,0,0,1-1.254-.025c-.21-.027-.4-.06-.575-.1a4.21,4.21,0,0,1-.446-.121c-.128-.043-.231-.083-.31-.117l-.14-.055-.08.131q-.075.125-.135.24l-.211.405.168.088a2.442,2.442,0,0,0,.481.18c.182.047.378.091.581.13a5.7,5.7,0,0,0,.635.092,6.062,6.062,0,0,0,.615.032,5.246,5.246,0,0,0,.871-.068,1.907,1.907,0,0,0,.726-.265,1.374,1.374,0,0,0,.5-.556,1.968,1.968,0,0,0,.173-.886,1.362,1.362,0,0,0-.292-.887,1.8,1.8,0,0,0-.679-.484" transform="translate(16322 14135)" fill="#7f4398"/>
    <path id="Path_145295" data-name="Path 145295" d="M1502.265,614.246h-3.087v-2.277h-.937v5.773h.937V615.12h3.087v2.622h.938v-5.773h-.938Z" transform="translate(16322 14135)" fill="#7f4398"/>
    <path id="Path_145296" data-name="Path 145296" d="M1508.151,612.415a1.476,1.476,0,0,0-.8-.45,5.052,5.052,0,0,0-1.135-.107,5.627,5.627,0,0,0-1.075.1,3.322,3.322,0,0,0-.862.276l-.182.092.451.756.139-.053c.073-.027.165-.06.275-.1s.231-.069.362-.1.276-.061.423-.081a3.218,3.218,0,0,1,.454-.033,5.09,5.09,0,0,1,.746.046.782.782,0,0,1,.416.178.889.889,0,0,1,.238.443,3.853,3.853,0,0,1,.1.739h-1.57a4.532,4.532,0,0,0-.878.078,1.943,1.943,0,0,0-.725.292,1.467,1.467,0,0,0-.491.588,2.415,2.415,0,0,0,0,1.79,1.469,1.469,0,0,0,.49.586,1.968,1.968,0,0,0,.726.294,4.709,4.709,0,0,0,.878.079h2.549v-3.007a7.543,7.543,0,0,0-.117-1.477,1.97,1.97,0,0,0-.42-.929m-2.012,2.571h1.587v1.976h-1.579a4.686,4.686,0,0,1-.6-.037,1.16,1.16,0,0,1-.422-.134.664.664,0,0,1-.248-.278,1.62,1.62,0,0,1,0-1.082.641.641,0,0,1,.244-.274,1.107,1.107,0,0,1,.419-.134,4.432,4.432,0,0,1,.6-.037" transform="translate(16322 14135)" fill="#7f4398"/>
    <path id="Path_145297" data-name="Path 145297" d="M1520.886,612.415a1.466,1.466,0,0,0-.8-.45,4.986,4.986,0,0,0-1.134-.107,5.639,5.639,0,0,0-1.076.1,3.375,3.375,0,0,0-.862.276l-.183.092.452.756.139-.054c.073-.026.166-.059.276-.095s.23-.069.362-.1.273-.06.423-.081a3.179,3.179,0,0,1,.452-.033,5.1,5.1,0,0,1,.747.046.775.775,0,0,1,.416.178.892.892,0,0,1,.238.443,3.9,3.9,0,0,1,.1.739h-1.57a4.558,4.558,0,0,0-.879.078,1.94,1.94,0,0,0-.725.292,1.465,1.465,0,0,0-.49.588,2.4,2.4,0,0,0,0,1.79,1.469,1.469,0,0,0,.49.586,1.97,1.97,0,0,0,.726.294,4.718,4.718,0,0,0,.878.079h2.55v-3.007a7.581,7.581,0,0,0-.118-1.477,1.975,1.975,0,0,0-.421-.929m-2.011,2.571h1.588v1.976h-1.58a4.706,4.706,0,0,1-.6-.037,1.178,1.178,0,0,1-.422-.134.654.654,0,0,1-.247-.277,1.259,1.259,0,0,1-.094-.542,1.28,1.28,0,0,1,.093-.541.637.637,0,0,1,.245-.274,1.1,1.1,0,0,1,.417-.134,4.438,4.438,0,0,1,.6-.037" transform="translate(16322 14135)" fill="#7f4398"/>
    <path id="Path_145298" data-name="Path 145298" d="M1538.764,612.415a1.459,1.459,0,0,0-.8-.45,5.037,5.037,0,0,0-1.134-.107,5.623,5.623,0,0,0-1.076.1,3.313,3.313,0,0,0-.861.276l-.183.092.453.756.138-.054c.073-.026.164-.059.275-.095s.23-.069.361-.1.277-.061.424-.081a3.174,3.174,0,0,1,.453-.033,5.115,5.115,0,0,1,.747.046.758.758,0,0,1,.414.179.891.891,0,0,1,.24.442,3.86,3.86,0,0,1,.1.739h-1.569a4.54,4.54,0,0,0-.878.078,1.949,1.949,0,0,0-.726.292,1.483,1.483,0,0,0-.491.589,2.435,2.435,0,0,0,0,1.79,1.473,1.473,0,0,0,.49.585,1.957,1.957,0,0,0,.726.294,4.716,4.716,0,0,0,.878.079h2.549v-3.007a7.472,7.472,0,0,0-.117-1.476,1.956,1.956,0,0,0-.421-.93m-2.011,2.571h1.587v1.976h-1.578a4.741,4.741,0,0,1-.6-.037,1.174,1.174,0,0,1-.42-.134.658.658,0,0,1-.249-.277,1.626,1.626,0,0,1,0-1.081.645.645,0,0,1,.245-.276,1.1,1.1,0,0,1,.419-.134,4.434,4.434,0,0,1,.6-.037" transform="translate(16322 14135)" fill="#7f4398"/>
    <path id="Path_145299" data-name="Path 145299" d="M1514.228,616.378l-1.114-4.41h-.841l-1.034,4.41-1.115-4.41h-.981l1.618,5.773h.964l.98-3.927,1.043,3.927h.964l1.547-5.773h-1Z" transform="translate(16322 14135)" fill="#7f4398"/>
    <path id="Path_145300" data-name="Path 145300" d="M1526.9,616.925a.4.4,0,0,1-.161-.06,1.209,1.209,0,0,1-.216-.185,3.83,3.83,0,0,1-.308-.378l-.438-.591a1.788,1.788,0,0,0,.315-.107,1.125,1.125,0,0,0,.443-.356,1.456,1.456,0,0,0,.235-.572,4.038,4.038,0,0,0,.065-.788,3.431,3.431,0,0,0-.109-.952,1.218,1.218,0,0,0-.4-.619,1.5,1.5,0,0,0-.705-.283,6.194,6.194,0,0,0-.988-.068h-2.276v5.777h.946V615.8h1.383l.7,1a4.443,4.443,0,0,0,.428.531,1.724,1.724,0,0,0,.394.307.965.965,0,0,0,.415.126c.035,0,.071,0,.107,0a2.154,2.154,0,0,0,.31-.025l.124-.022.166-.833-.253.034a.885.885,0,0,1-.182.005m-1.1-2.4a.514.514,0,0,1-.173.273.737.737,0,0,1-.345.12c-.181.016-.393.026-.629.026H1523.3v-2.117h1.345c.248,0,.461.008.63.023a.7.7,0,0,1,.345.112.481.481,0,0,1,.172.27,2.355,2.355,0,0,1,.069.657,2.236,2.236,0,0,1-.069.636" transform="translate(16322 14135)" fill="#7f4398"/>
    <path id="Path_145301" data-name="Path 145301" d="M1531.021,615.978l-.167.5-.171-.514-1.648-4h-1.174v5.776h.913V613.7l1.644,4.039h.873l1.645-4.041v4.041h.913v-5.776h-1.175Z" transform="translate(16322 14135)" fill="#7f4398"/>
    <path id="Path_145302" data-name="Path 145302" d="M1544.508,612.977a2.232,2.232,0,0,0-1.006.38c-.534.315-.793.637-.793.989a.886.886,0,0,0,.1.452l.067.115.107-.08c.025-.019.047-.036.069-.055a5.718,5.718,0,0,1-.3,1.1l-.542,1.314-.008.029a5.007,5.007,0,0,1-.3.942q-.25.625-.383.94a3.137,3.137,0,0,0-.3,1.01c0,.363.169.418.269.418.235,0,.412-.307.591-1.023.073-.3.17-.744.283-1.3a2.438,2.438,0,0,1,.868-1.014,10.706,10.706,0,0,0,1.317-1.185,2.913,2.913,0,0,0,.687-1.9c0-.94-.392-1.137-.721-1.137m-.538,1.062a.571.571,0,0,1,.411-.269c.21,0,.3.091.3.314a1.167,1.167,0,0,1-.139.5c-.189.389-.335.675-.422.827a3.4,3.4,0,0,1-.732.924c-.134.1-.242.186-.329.249a7.963,7.963,0,0,1,.347-1.24,5.653,5.653,0,0,1,.569-1.3" transform="translate(16322 14135)" fill="#d12845"/>
    <path id="Path_145303" data-name="Path 145303" d="M1547.2,610.586a1.151,1.151,0,0,0-.074-.393c-.038-.1-.1-.249-.227-.283l-.069-.017-.05.052a1.1,1.1,0,0,0-.237.538c-.047.3-.076.512-.091.628a13.98,13.98,0,0,1-.5,2.1l-.669,2.182a10.034,10.034,0,0,0-.4,1.664l0,.026.078.254.034.025a.417.417,0,0,0,.249.1c.212,0,.3-.294.35-.522l.1-.667c.027-.163.184-.771.466-1.806l.684-2.492a12.472,12.472,0,0,0,.357-1.384" transform="translate(16322 14135)" fill="#d12845"/>
    <path id="Path_145304" data-name="Path 145304" d="M1549.377,616.864a.472.472,0,0,0-.228-.066h-.053l-.032,0a.42.42,0,0,1-.06.005c-.016,0-.059,0-.059-.166a3.279,3.279,0,0,1,.269-1.214c.249-.6.421-1.022.519-1.251a2.791,2.791,0,0,0,.273-1.076l-.032-.186-.021-.053a.3.3,0,0,0-.235-.155c-.123,0-.233.1-.434.643-.205.558-.345.946-.422,1.161a5.512,5.512,0,0,1-.4.935,3.694,3.694,0,0,1-.827.89c-.148.125-.259.219-.328.28a.466.466,0,0,1-.274.118.531.531,0,0,1-.089-.009l-.046-.006a7.388,7.388,0,0,1,.424-1.171c.224-.5.393-.873.505-1.119a3.457,3.457,0,0,0,.4-1.2c0-.3-.154-.336-.22-.336-.11,0-.228.069-.651.914-.212.428-.433.919-.656,1.46a5.506,5.506,0,0,0-.494,1.606.583.583,0,0,0,.654.638,1.872,1.872,0,0,0,1.231-.762c.067-.077.167-.2.294-.357v.124a1.97,1.97,0,0,0,.084.679.429.429,0,0,0,.416.283.759.759,0,0,0,.312-.087c.157-.083.243-.128.258-.133l.106-.056-.141-.316Z" transform="translate(16322 14135)" fill="#d12845"/>
    <path id="Path_145305" data-name="Path 145305" d="M1552.692,612.207a.184.184,0,0,1-.094-.061l-.072-.073-.083.061c-.051.035-.223.146-.749.463a7.224,7.224,0,0,0-.91.617,2.307,2.307,0,0,0-.66.773l-.025.055.025.055a1.275,1.275,0,0,0,.614.57c.535.275.711.366.781.4a.568.568,0,0,1,.3.514,1.373,1.373,0,0,1-.582,1.009,1.469,1.469,0,0,1-.807.433s-.124-.022-.349-.641c-.26-.718-.389-.878-.472-.937l-.182-.128-.013.385a2.714,2.714,0,0,0,.327,1.4c.229.422.495.637.788.637a1.76,1.76,0,0,0,1.149-.652,2.29,2.29,0,0,0,.725-1.613,1.347,1.347,0,0,0-.628-1.093,5.069,5.069,0,0,0-.727-.4,1.313,1.313,0,0,1,.539-.479l.738-.368a.951.951,0,0,0,.456-.787l.011-.112Z" transform="translate(16322 14135)" fill="#d12845"/>
    <path id="Path_145306" data-name="Path 145306" d="M1541.425,617.066a.6.6,0,1,0-.6.617.608.608,0,0,0,.6-.617" transform="translate(16322 14135)" fill="#d12845"/>
  </g>
</svg>
