<svg xmlns="http://www.w3.org/2000/svg" width="51.305" height="68.432" viewBox="0 0 51.305 68.432">
  <g id="Client_11" transform="translate(-17222.412 -14258.664)">
    <path id="Path_145126" data-name="Path 145126" d="M901.859,176.578a1.5,1.5,0,0,1,.482-.7,1.965,1.965,0,0,1,.707-.436,2.7,2.7,0,0,1,.9-.133,2.588,2.588,0,0,1,.9.133,1.732,1.732,0,0,1,.707.436,2.626,2.626,0,0,1,.482.7,2.521,2.521,0,0,1,.161,1,2.951,2.951,0,0,1-.161,1,1.529,1.529,0,0,1-.45.7,1.987,1.987,0,0,1-.707.436,2.773,2.773,0,0,1-.932.132h-1.189a1.9,1.9,0,0,0-.483.068.649.649,0,0,0-.289.2,1.407,1.407,0,0,0-.161.3,1.178,1.178,0,0,0-.032.334v1.3h-1.028v-1.3a2.155,2.155,0,0,1,.353-1.239,1.647,1.647,0,0,1,1.157-.6,1.526,1.526,0,0,1-.192-.236,2.7,2.7,0,0,1-.193-.334c-.065-.132-.1-.267-.161-.4a1.746,1.746,0,0,1-.064-.4,2.367,2.367,0,0,1,.193-.971m1.189,0a1.6,1.6,0,0,0-.289,1,1.5,1.5,0,0,0,.321,1,1.14,1.14,0,0,0,.9.367,1.188,1.188,0,0,0,.9-.367,1.549,1.549,0,0,0,.322-1,1.674,1.674,0,0,0-.29-1,1.034,1.034,0,0,0-.9-.367,1.089,1.089,0,0,0-.964.367" transform="translate(16322 14135)" fill="#767a7b"/>
    <path id="Path_145127" data-name="Path 145127" d="M910.924,173.2h1.061v4.783a1.321,1.321,0,0,0,.064.4.515.515,0,0,0,.193.266.678.678,0,0,0,.257.167.927.927,0,0,0,.289.068h.483c.064,0,.1,0,.128.034.032,0,.064.032.064.1v.737c0,.065-.064.1-.192.1h-.386a1.661,1.661,0,0,1-.675-.167,1.28,1.28,0,0,1-.515-.4,1.017,1.017,0,0,1-.353.3,2.428,2.428,0,0,1-.418.167,1.576,1.576,0,0,1-.386.065c-.128,0-.225.034-.354.034h-3.375v-.969h1.125V174.9h1.061v3.981h1.286a.379.379,0,0,0,.193-.035c.064-.033.128-.066.193-.1a.618.618,0,0,0,.16-.236,1.044,1.044,0,0,0,.065-.368V173.2Z" transform="translate(16322 14135)" fill="#767a7b"/>
    <path id="Path_145128" data-name="Path 145128" d="M913.078,179.755v-.734c0-.069.031-.1.063-.1s.1-.032.13-.032h1.574c.129,0,.194.032.194.1v.738c0,.065-.033.1-.065.1s-.1.035-.129.035h-1.574c-.13,0-.193-.035-.193-.1" transform="translate(16322 14135)" fill="#767a7b"/>
    <path id="Path_145129" data-name="Path 145129" d="M914.62,179.755v-.734c0-.069.032-.1.064-.1s.1-.032.129-.032h1.575c.129,0,.193.032.193.1v.738c0,.065-.032.1-.064.1s-.1.035-.129.035h-1.575c-.129,0-.193-.035-.193-.1" transform="translate(16322 14135)" fill="#767a7b"/>
    <path id="Path_145130" data-name="Path 145130" d="M916.2,179.755v-.734c0-.069.032-.1.064-.1s.1-.032.129-.032h1.575c.128,0,.193.032.193.1v.738c0,.065-.032.1-.065.1s-.1.035-.128.035h-1.575c-.129,0-.193-.035-.193-.1" transform="translate(16322 14135)" fill="#767a7b"/>
    <path id="Path_145131" data-name="Path 145131" d="M919.539,178.851a.9.9,0,0,1-.193-.267c-.064-.1-.129-.234-.193-.335a1.968,1.968,0,0,1-.129-.4,1.755,1.755,0,0,1-.064-.4,2.643,2.643,0,0,1,.161-.9,1.628,1.628,0,0,1,.45-.669,1.826,1.826,0,0,1,.676-.434,2.354,2.354,0,0,1,.867-.134,1.931,1.931,0,0,1,.8.134,1.823,1.823,0,0,1,.579.4,1.408,1.408,0,0,1,.353.6,4.855,4.855,0,0,1,.193.734h-.964a1.278,1.278,0,0,0-.129-.368,1.929,1.929,0,0,0-.225-.3.774.774,0,0,0-.29-.2,1.138,1.138,0,0,0-.321-.065,1.025,1.025,0,0,0-.772.3,1.268,1.268,0,0,0-.289.9,1.823,1.823,0,0,0,.289,1.069.979.979,0,0,0,.836.4h1.9v.97h-5.143c-.129,0-.193-.033-.193-.1v-.736c0-.065.032-.1.064-.1s.1-.035.129-.035h1.607Z" transform="translate(16322 14135)" fill="#767a7b"/>
    <path id="Path_145132" data-name="Path 145132" d="M924.811,178.887V174.9h1.061v3.982H927.8V173.2h1.061v6.655h-5.175v-.968Zm0,3.109v-.032a.59.59,0,0,1-.1-.2.447.447,0,0,1-.032-.2.6.6,0,0,1,.193-.5.733.733,0,0,1,.547-.167.937.937,0,0,1,.482.167.617.617,0,0,1,.225.5h-.418a.309.309,0,0,0-.1-.234.3.3,0,0,0-.449,0,.392.392,0,0,0-.1.269.334.334,0,0,0,.1.266.352.352,0,0,0,.257.1h.675v.366h-1.64v-.366h.354Z" transform="translate(16322 14135)" fill="#767a7b"/>
    <rect id="Rectangle_17634" data-name="Rectangle 17634" width="1.029" height="6.655" transform="translate(17251.986 14308.2)" fill="#767a7b"/>
    <path id="Path_145133" data-name="Path 145133" d="M938.216,178.619a1.867,1.867,0,0,1-.451.734,1.957,1.957,0,0,1-.707.436,3.356,3.356,0,0,1-1.864,0,1.732,1.732,0,0,1-.707-.436,1.855,1.855,0,0,1-.45-.734,3.271,3.271,0,0,1-.161-1,2.928,2.928,0,0,1,.161-1,1.859,1.859,0,0,1,.45-.737,1.957,1.957,0,0,1,.707-.435,3.308,3.308,0,0,1,1.864,0,1.707,1.707,0,0,1,.707.435,1.872,1.872,0,0,1,.451.737,3.279,3.279,0,0,1,.16,1,3.135,3.135,0,0,1-.16,1M935.9,174.3h-1.029v-1.1H935.9Zm-.675,4.282a1.208,1.208,0,0,0,1.8,0,1.878,1.878,0,0,0,0-2.005,1.2,1.2,0,0,0-1.8,0,1.661,1.661,0,0,0-.289,1,1.248,1.248,0,0,0,.289,1m2.218-4.282h-1.029v-1.1h1.029Z" transform="translate(16322 14135)" fill="#767a7b"/>
    <path id="Path_145134" data-name="Path 145134" d="M939.823,181.125a.46.46,0,0,0,.193-.167,1.147,1.147,0,0,0,.128-.4,3.911,3.911,0,0,0,.033-.669v-4.015h1.028v4.015a3.085,3.085,0,0,1-.354,1.6,1.332,1.332,0,0,1-1.221.569.934.934,0,0,1-.321-.034.585.585,0,0,1-.257-.066c-.065-.033-.161-.066-.226-.1v-.9a1.417,1.417,0,0,0,.675.167.483.483,0,0,0,.322,0" transform="translate(16322 14135)" fill="#767a7b"/>
    <rect id="Rectangle_17635" data-name="Rectangle 17635" width="1.029" height="6.655" transform="translate(17264.33 14308.2)" fill="#767a7b"/>
    <path id="Path_145135" data-name="Path 145135" d="M944.966,181.126a.489.489,0,0,0,.193-.167,1.194,1.194,0,0,0,.129-.4,4.017,4.017,0,0,0,.032-.669v-4.013h1.028v4.013a3.106,3.106,0,0,1-.353,1.607,1.334,1.334,0,0,1-1.222.567.993.993,0,0,1-.321-.032.566.566,0,0,1-.257-.068c-.065-.033-.161-.067-.225-.1v-.9a1.452,1.452,0,0,0,.675.167.493.493,0,0,0,.321,0m1.543-6.824H945.48v-1.1h1.029Z" transform="translate(16322 14135)" fill="#767a7b"/>
    <path id="Path_145136" data-name="Path 145136" d="M949.467,181.094a1.076,1.076,0,0,0,.482-.2,1.415,1.415,0,0,0,.354-.4,2.624,2.624,0,0,0,.225-.668h-.9a2.334,2.334,0,0,1-.868-.168,1.787,1.787,0,0,1-.676-.433,2.01,2.01,0,0,1-.449-.7,2.647,2.647,0,0,1-.161-.9,4.311,4.311,0,0,1,.1-.9,2.054,2.054,0,0,1,.322-.771,1.7,1.7,0,0,1,.642-.535,2.369,2.369,0,0,1,1.029-.2,2.267,2.267,0,0,1,1.029.2,1.594,1.594,0,0,1,.675.535,2.361,2.361,0,0,1,.354.871,6.368,6.368,0,0,1,.1,1.169,10.045,10.045,0,0,1-.128,1.84,3.685,3.685,0,0,1-.45,1.239,1.74,1.74,0,0,1-.836.7,3.559,3.559,0,0,1-1.286.233,1.214,1.214,0,0,1-.354-.032c-.1,0-.193-.034-.257-.034a1.631,1.631,0,0,1-.225-.068v-.935a.944.944,0,0,0,.322.1,1.216,1.216,0,0,0,.385.035.888.888,0,0,0,.579.033m-.675-2.51a1.029,1.029,0,0,0,.836.3h1.028a7.634,7.634,0,0,0,.032-.87,3.02,3.02,0,0,0-.224-1.338.89.89,0,0,0-.836-.469,1.171,1.171,0,0,0-.515.1.717.717,0,0,0-.321.3,1,1,0,0,0-.161.468,3.072,3.072,0,0,0-.064.568,1.122,1.122,0,0,0,.225.937" transform="translate(16322 14135)" fill="#767a7b"/>
    <path id="Path_145137" data-name="Path 145137" d="M904.88,186.009v4.716h-.707V187.28l-.032.166-1.157,3.312h-.676l-1.157-3.312-.032-.166v3.478h-.707v-4.749h.9l1.189,3.411.129.568.129-.535,1.189-3.411h.932Z" transform="translate(16322 14135)" fill="#767a7b"/>
    <path id="Path_145138" data-name="Path 145138" d="M937.6,186.411v4.717H936.9v-3.48l-.032.167-1.157,3.313h-.676l-1.157-3.313-.032-.167v3.48h-.708v-4.717h.9l1.189,3.411.129.568.129-.535,1.189-3.411h.932Z" transform="translate(16322 14135)" fill="#767a7b"/>
    <path id="Path_145139" data-name="Path 145139" d="M905.812,186.579a.415.415,0,0,1,.451-.4.434.434,0,0,1,.45.4.451.451,0,0,1-.9,0m.1.869h.707v3.277h-.707Z" transform="translate(16322 14135)" fill="#767a7b"/>
    <path id="Path_145140" data-name="Path 145140" d="M907.516,187.514a8.948,8.948,0,0,1,1.446-.167c.772,0,1.415.3,1.415,1.237v2.141h-.707v-1.974c0-.5-.258-.669-.74-.669a5.177,5.177,0,0,0-.675.068v2.575h-.707v-3.211Z" transform="translate(16322 14135)" fill="#767a7b"/>
    <path id="Path_145141" data-name="Path 145141" d="M911.213,186.579a.415.415,0,0,1,.45-.4.434.434,0,0,1,.45.4.421.421,0,0,1-.45.433.4.4,0,0,1-.45-.433m.065.869h.707v3.277h-.707Z" transform="translate(16322 14135)" fill="#767a7b"/>
    <path id="Path_145142" data-name="Path 145142" d="M946.091,186.979a.415.415,0,0,1,.45-.4.434.434,0,0,1,.45.4.421.421,0,0,1-.45.436.465.465,0,0,1-.45-.436m.1.869h.707v3.278h-.707Z" transform="translate(16322 14135)" fill="#767a7b"/>
    <path id="Path_145143" data-name="Path 145143" d="M912.595,190.524l.193-.6a2.654,2.654,0,0,0,1.061.235c.45,0,.739-.068.739-.334s-.1-.3-.643-.436a.892.892,0,0,0-.289-.067c-.675-.167-1-.5-1-1.035,0-.571.483-.938,1.254-.938a2.809,2.809,0,0,1,1.254.268l-.193.6a2.444,2.444,0,0,0-.965-.233c-.385,0-.61.066-.61.3s.192.3.61.4l.226.068c.739.2,1.028.535,1.028,1.037,0,.669-.45,1.036-1.382,1.036a2.9,2.9,0,0,1-1.286-.3" transform="translate(16322 14135)" fill="#767a7b"/>
    <path id="Path_145144" data-name="Path 145144" d="M916.1,189.688v-1.571h-.579v-.669h.579v-1.2h.707v1.2h1.189v.669h-1.189v1.338c0,.433.193.567.643.567h.546v.7h-.835c-.8.033-1.061-.3-1.061-1.037" transform="translate(16322 14135)" fill="#767a7b"/>
    <path id="Path_145145" data-name="Path 145145" d="M918.607,187.615a4.556,4.556,0,0,1,1.254-.168h.579v.7h-.515a1.69,1.69,0,0,0-.611.068v2.542h-.707Z" transform="translate(16322 14135)" fill="#767a7b"/>
    <path id="Path_145146" data-name="Path 145146" d="M923.846,190.39v.335A1.305,1.305,0,0,1,922.4,192.1a2.75,2.75,0,0,1-1.028-.167l-.161-.669a2.8,2.8,0,0,0,1.029.2c.578,0,.9-.2.9-.735v-.1a4.451,4.451,0,0,1-.708.068c-.9,0-1.35-.367-1.35-1.272v-1.971h.708v1.8c0,.5.225.669.675.669a4.016,4.016,0,0,0,.675-.066v-2.407h.707Z" transform="translate(16322 14135)" fill="#767a7b"/>
    <path id="Path_145147" data-name="Path 145147" d="M925.389,189.088h0a1.711,1.711,0,0,1,1.7-1.775,1.74,1.74,0,0,1,0,3.479,1.634,1.634,0,0,1-1.7-1.7m1.736,1.035a.981.981,0,0,0,1-1.035,1.031,1.031,0,0,0-1-1.071,1.01,1.01,0,0,0-1,1.071.981.981,0,0,0,1,1.035" transform="translate(16322 14135)" fill="#767a7b"/>
    <path id="Path_145148" data-name="Path 145148" d="M929.729,188.15h-.579v-.7h.579v-.367c0-.837.386-1.072,1.286-1.072h.675v.636h-.579c-.45,0-.643.134-.643.568v.235h1.19v.7h-1.19v2.608h-.707V188.15Z" transform="translate(16322 14135)" fill="#767a7b"/>
    <path id="Path_145149" data-name="Path 145149" d="M941.527,189.656h-2.443a.936.936,0,0,0,1,.8,1.969,1.969,0,0,0,.965-.234l.289.568a2.852,2.852,0,0,1-1.318.335,1.62,1.62,0,0,1-1.672-1.739,1.6,1.6,0,0,1,1.64-1.739,1.52,1.52,0,0,1,1.543,1.673Zm-2.443-.637h1.736a.778.778,0,0,0-.836-.734.888.888,0,0,0-.9.734" transform="translate(16322 14135)" fill="#767a7b"/>
    <path id="Path_145150" data-name="Path 145150" d="M950.945,188.953v1.974a5.639,5.639,0,0,1-1.414.2c-.964,0-1.511-.4-1.511-1.1s.514-1.1,1.414-1.1a7.3,7.3,0,0,1,.772.067v-.033c0-.4-.289-.636-.868-.636a3.439,3.439,0,0,0-1.093.2l.161-.7a3.209,3.209,0,0,1,1.06-.2c.9.069,1.479.437,1.479,1.339m-1.382,1.5a4.265,4.265,0,0,0,.675-.066v-.771a3.614,3.614,0,0,0-.675-.065c-.547,0-.772.132-.772.466,0,.268.225.436.772.436" transform="translate(16322 14135)" fill="#767a7b"/>
    <path id="Path_145151" data-name="Path 145151" d="M945.256,186.143v4.013a8.89,8.89,0,0,0,.032.972h-.739l-.033-.535a1.156,1.156,0,0,1-1.061.6,1.561,1.561,0,0,1-1.414-1.739c0-1.137.675-1.839,1.479-1.839a1.1,1.1,0,0,1,.932.436v-1.942h.8Zm-.836,2.977a.585.585,0,0,0-.032-.233.709.709,0,0,0-.708-.6c-.546,0-.835.5-.835,1.138s.289,1.069.835,1.069a.727.727,0,0,0,.708-.6.683.683,0,0,0,.032-.268Z" transform="translate(16322 14135)" fill="#767a7b"/>
    <path id="Path_145152" data-name="Path 145152" d="M925.948,156.074c1.8,1.237,4.275,3.012,4.179,3.612a1.247,1.247,0,0,1-.161.4c-.064.1-.193.3-.354.266-.192,0-.192-.335-.482-.535a.916.916,0,0,0-.964.033,1.014,1.014,0,0,0-.386.771.984.984,0,0,0,.643.869,1.454,1.454,0,0,0,1.093-.135c.836-.4.9-1.036,1.35-1.068.29,0,.515.334,1.157.9,1.479,1.338,2.636,1.84,3.344,1.84a1.236,1.236,0,0,0,1.285-.636.986.986,0,0,0-.321-1.1.951.951,0,0,0-1.189-.1c-.225.167-.194.5-.354.5a21.462,21.462,0,0,1-3.215-2.975c-.1-.1.482-1.106.676-1.139.321-.067.418.5.9.6a.874.874,0,0,0,.9-.433,1.223,1.223,0,0,0,0-.87,1.246,1.246,0,0,0-1.286-.57c-.868.134-1.35,1.1-1.415,1.17-.16.27-.224.469-.418.535s-.418-.2-.707-.568c-.482-.535-2.186-2.14-2.25-2.273a.106.106,0,0,0-.032-.068c-.032-.234,3.5-2.074,6.526-2.776,2.732-.635,7.3-.836,7.232-.97.193-.2-4.147-1.2-7.393-1.069a14.518,14.518,0,0,0-8.39,3.276h-.032a14.6,14.6,0,0,0-8.39-3.276c-3.247-.167-7.619.869-7.394,1.069-.064.134,4.533.335,7.233.97,3.021.7,6.59,2.542,6.525,2.776a.125.125,0,0,1-.032.068c-.064.133-1.8,1.706-2.25,2.273-.321.368-.514.6-.707.568s-.258-.265-.418-.535a2.162,2.162,0,0,0-1.414-1.17,1.245,1.245,0,0,0-1.286.57,1.058,1.058,0,0,0,0,.87.872.872,0,0,0,.9.433c.482-.067.578-.634.9-.6.193.033.771,1.037.675,1.139a23.159,23.159,0,0,1-3.215,2.975c-.16,0-.128-.3-.354-.5a1,1,0,0,0-1.189.1,1.1,1.1,0,0,0-.321,1.1,1.237,1.237,0,0,0,1.286.636c.707,0,1.864-.469,3.343-1.84.643-.6.868-.935,1.157-.9.482.032.546.669,1.35,1.068a1.318,1.318,0,0,0,1.093.135,1.024,1.024,0,0,0,.643-.869.976.976,0,0,0-.385-.771.917.917,0,0,0-.965-.033c-.289.2-.289.535-.482.535-.129,0-.258-.167-.354-.266a1.271,1.271,0,0,1-.161-.4c-.128-.6,2.379-2.375,4.179-3.612Z" transform="translate(16322 14135)" fill="#006b4f"/>
    <path id="Path_145153" data-name="Path 145153" d="M920.483,130.22a8.14,8.14,0,0,0-3.664,3.444c-.933,1.807-1.094,4.047-.675,4.116.385.033.385-1.505,1.7-3.48a4.126,4.126,0,0,1,3.215-2.141c.032,0,.289,0-.065.335a7.489,7.489,0,0,0-2.7,3.913,6.686,6.686,0,0,0,.225,4.014c.386-.033.161-1.739,1.029-3.644.1-.2,1.093-2.309,2.154-2.243.064,0,.353,0,.353.167A18.168,18.168,0,0,1,921,136.34a4.65,4.65,0,0,0-.514,2.543c.1,1.337.482,2.508.8,2.441s-.064-1.605.739-3.445c.129-.3,1.125-2.607,1.9-2.074a1.643,1.643,0,0,1,.676,1.306c.1,3.412.1,6.487-.032,10.233-.064,1.371-.418,2.609-.515,3.913,0,.034.322.134.322.167l.032.034a16.59,16.59,0,0,1,1.382,1.037.092.092,0,0,0,.129,0,10.854,10.854,0,0,1,1.286-.969c.032-.035.353-.167.353-.2-.128-1.3-.482-2.575-.546-3.947a91.263,91.263,0,0,1,.032-10.3,2.032,2.032,0,0,1,.675-1.3c.8-.535,1.768,1.771,1.9,2.073.8,1.873.417,3.378.739,3.444s.707-1.1.8-2.441a4.593,4.593,0,0,0-.515-2.542c-.546-.937-1.061-1.4-1.061-1.639,0-.134.29-.167.354-.167,1.093-.066,2.09,2.04,2.154,2.24.868,1.908.643,3.614,1.029,3.647a7.013,7.013,0,0,0,.224-4.014,7.676,7.676,0,0,0-2.7-3.914c-.353-.367-.1-.334-.064-.334a4.078,4.078,0,0,1,3.215,2.142c1.35,1.973,1.35,3.512,1.7,3.477.418-.034.258-2.306-.675-4.114a7.963,7.963,0,0,0-3.664-3.443c-.483-.236-.129-.5-.1-.535.257-.269,2.186.132,3.15.968.322.3.868.87.675.134a3.99,3.99,0,0,0-1.9-2.074,24.823,24.823,0,0,0-2.475-.9c-.451-.2-.579-.4-.483-.5.451-.436,1.929-.436,2.765-.57.45-.067-.932-.634-1.864-.7-1.769-.133-2.315.837-2.636.536a.467.467,0,0,1-.129-.4c.1-.669,1.9-1.4,1.447-1.538-.772-.2-2.154.735-2.958,1.505-.1.1-.289.033-.257-.3a2.577,2.577,0,0,0-.225-1.738c-.1-.167-.257-.4-.386-.4-.1,0-.289.236-.386.4a2.577,2.577,0,0,0-.225,1.738c.033.335-.161.368-.257.3-.8-.737-2.186-1.706-2.957-1.505-.45.1,1.35.869,1.447,1.538a.47.47,0,0,1-.129.4c-.322.3-.868-.669-2.636-.536-.932.069-2.315.636-1.864.7.835.134,2.346.134,2.764.57.1.1-.032.3-.482.5-.8.334-1.479.433-2.475.9a3.753,3.753,0,0,0-1.9,2.074c-.161.736.354.134.675-.134.932-.836,2.893-1.237,3.15-.968.129.065.45.3-.032.567" transform="translate(16322 14135)" fill="#006b4f"/>
    <path id="Path_145154" data-name="Path 145154" d="M948.56,167.963c0,.536-10,.972-22.342.972s-22.341-.436-22.341-.972,10-.97,22.341-.97,22.342.436,22.342.97" transform="translate(16322 14135)" fill="#767a7b"/>
  </g>
</svg>
