<svg xmlns="http://www.w3.org/2000/svg" xmlns:xlink="http://www.w3.org/1999/xlink" width="59.945" height="62.81" viewBox="0 0 59.945 62.81">
  <defs>
    <clipPath id="clip-path">
      <path id="Path_141081" data-name="Path 141081" d="M1447.581,127.374v28.173h1.745V127.374l-.882-.9Z" fill="none"/>
    </clipPath>
    <linearGradient id="linear-gradient" x1="-829.504" y1="32.8" x2="-828.931" y2="32.8" gradientUnits="objectBoundingBox">
      <stop offset="0" stop-color="#0db0a3"/>
      <stop offset="1" stop-color="#047043"/>
    </linearGradient>
    <clipPath id="clip-path-2">
      <path id="Path_141082" data-name="Path 141082" d="M1451.069,155.547h1.743V133.874l-1.743-1.815Z" fill="none"/>
    </clipPath>
    <linearGradient id="linear-gradient-2" x1="-832.492" y1="40.359" x2="-831.918" y2="40.359" xlink:href="#linear-gradient"/>
    <clipPath id="clip-path-3">
      <path id="Path_141083" data-name="Path 141083" d="M1458.064,162.267h1.744V144.742l-1.744-1.816Z" fill="none"/>
    </clipPath>
    <linearGradient id="linear-gradient-3" x1="-836.037" y1="48.45" x2="-835.464" y2="48.45" gradientUnits="objectBoundingBox">
      <stop offset="0" stop-color="#0db0a3"/>
      <stop offset="0.751" stop-color="#047043"/>
      <stop offset="1" stop-color="#047043"/>
    </linearGradient>
    <clipPath id="clip-path-4">
      <path id="Path_141084" data-name="Path 141084" d="M1461.552,155.567h1.743v-5.362l-1.743-1.816Z" fill="none"/>
    </clipPath>
    <linearGradient id="linear-gradient-4" x1="-838.448" y1="129.786" x2="-837.874" y2="129.786" xlink:href="#linear-gradient"/>
    <clipPath id="clip-path-5">
      <path id="Path_141085" data-name="Path 141085" d="M1444.074,133.754v21.793h1.744V131.94Z" fill="none"/>
    </clipPath>
    <linearGradient id="linear-gradient-5" x1="-828.073" y1="40.16" x2="-827.5" y2="40.16" xlink:href="#linear-gradient"/>
    <clipPath id="clip-path-6">
      <path id="Path_141086" data-name="Path 141086" d="M1440.587,139.2v16.349h1.743V137.383Z" fill="none"/>
    </clipPath>
    <linearGradient id="linear-gradient-6" x1="-826.537" y1="51.895" x2="-825.963" y2="51.895" xlink:href="#linear-gradient"/>
    <clipPath id="clip-path-7">
      <path id="Path_141087" data-name="Path 141087" d="M1437.1,144.7v21.753h1.744V142.887Z" fill="none"/>
    </clipPath>
    <linearGradient id="linear-gradient-7" x1="-824.073" y1="39.764" x2="-823.5" y2="39.764" xlink:href="#linear-gradient"/>
    <clipPath id="clip-path-8">
      <path id="Path_141088" data-name="Path 141088" d="M1433.611,150.184v5.363h1.742v-7.175Z" fill="none"/>
    </clipPath>
    <linearGradient id="linear-gradient-8" x1="-822.938" y1="129.843" x2="-822.363" y2="129.843" xlink:href="#linear-gradient"/>
    <clipPath id="clip-path-9">
      <path id="Path_141089" data-name="Path 141089" d="M1430.122,155.408v3.769h1.744v-5.584Z" fill="none"/>
    </clipPath>
    <linearGradient id="linear-gradient-9" x1="-819.958" y1="165.904" x2="-819.385" y2="165.904" xlink:href="#linear-gradient"/>
    <clipPath id="clip-path-10">
      <path id="Path_141092" data-name="Path 141092" d="M1454.556,159.177h1.764v-19.92l-1.764-1.814Z" fill="none"/>
    </clipPath>
    <linearGradient id="linear-gradient-10" x1="-824.56" y1="43.368" x2="-823.993" y2="43.368" xlink:href="#linear-gradient"/>
  </defs>
  <g id="Client_5" transform="translate(-17740.471 -14261.476)">
    <path id="Path_141058" data-name="Path 141058" d="M1425.063,180.052c-.211.04-.44.1-.728.141s-.556.1-.863.119c-.287.04-.574.059-.842.1-.269.02-.5.042-.691.042a6.566,6.566,0,0,1-1.245-.122,3.356,3.356,0,0,1-1.112-.419,2.455,2.455,0,0,1-.8-.817,2.533,2.533,0,0,1-.307-1.336v-3.03h1.437V177.7a.985.985,0,0,0,.192.658,1.335,1.335,0,0,0,.479.4,2.071,2.071,0,0,0,.651.2,4.441,4.441,0,0,0,.709.061h.384a3.371,3.371,0,0,0,.46-.021c.153,0,.306-.019.459-.019a1.976,1.976,0,0,0,.384-.04v-5.065h1.418v6.181Zm-3.3-7.078a.752.752,0,0,1-.594-.259.842.842,0,0,1-.249-.618.86.86,0,0,1,.249-.639.815.815,0,0,1,1.188,0,.864.864,0,0,1,.249.639.846.846,0,0,1-.249.618.809.809,0,0,1-.594.259" transform="translate(16322 14135)" fill="#4e5253"/>
    <path id="Path_141059" data-name="Path 141059" d="M1428.762,178.956a2.747,2.747,0,0,1-1.668-.458,1.8,1.8,0,0,1-.593-1.516v-6.36h1.418v6.36c0,.26.076.419.249.5a1.39,1.39,0,0,0,.594.121h.459v1.354Z" transform="translate(16322 14135)" fill="#4e5253"/>
    <path id="Path_141060" data-name="Path 141060" d="M1429.031,178.956V177.6h3.008a1.945,1.945,0,0,0,.364-.042.8.8,0,0,0,.307-.119.755.755,0,0,0,.212-.218.642.642,0,0,0,.075-.339v-.639a.806.806,0,0,0-.095-.4.836.836,0,0,0-.212-.241.746.746,0,0,0-.287-.119,1.9,1.9,0,0,0-.325-.04h-2.607v-1.156l4.7-3.987v1.734l-2.416,2.033h.25a4.785,4.785,0,0,1,.978.1,1.864,1.864,0,0,1,.746.34,1.723,1.723,0,0,1,.5.617,2.716,2.716,0,0,1,.191.957v.777a5.565,5.565,0,0,1-.038.6,1.883,1.883,0,0,0,.364.1,2.875,2.875,0,0,0,.422.042h.632v1.354h-.441a3.308,3.308,0,0,1-.939-.119,6.453,6.453,0,0,1-.747-.259,2.9,2.9,0,0,1-1.61.378Z" transform="translate(16322 14135)" fill="#4e5253"/>
    <path id="Path_141061" data-name="Path 141061" d="M1435.585,178.956V177.6h.459a1.333,1.333,0,0,0,.6-.121.482.482,0,0,0,.249-.5v-3.089h1.418v3.089a4.071,4.071,0,0,1-.038.5,2.518,2.518,0,0,0,.422.139,2.013,2.013,0,0,0,.5.04c.536,0,.805-.3.805-.877v-2.89h1.418v2.991a1.671,1.671,0,0,1-.039.339,1.113,1.113,0,0,1-.076.238,1.907,1.907,0,0,0,.44.159,2.5,2.5,0,0,0,.556.062c.537,0,.805-.3.805-.878v-2.892h1.418v2.95a2.943,2.943,0,0,1-.134,1,1.705,1.705,0,0,1-.4.66,1.623,1.623,0,0,1-.652.358,3.889,3.889,0,0,1-1.84-.021,4.624,4.624,0,0,1-.785-.3,1.678,1.678,0,0,1-.614.318,2.81,2.81,0,0,1-.843.119,6.453,6.453,0,0,1-1.82-.278,2.542,2.542,0,0,1-.614.218,4.342,4.342,0,0,1-.767.06h-.459Z" transform="translate(16322 14135)" fill="#4e5253"/>
    <path id="Path_141062" data-name="Path 141062" d="M1449.46,178.957h-3.718V177.6h1.552v-5.382h1.418V177.6h.748a1.332,1.332,0,0,0,.594-.119.482.482,0,0,0,.248-.5v-6.359h1.419v6.359a1.807,1.807,0,0,1-.594,1.517,2.664,2.664,0,0,1-1.667.458m-2.683,1.993h.4a1.868,1.868,0,0,1-.057-.179.713.713,0,0,1-.019-.178,1.149,1.149,0,0,1,.076-.459.829.829,0,0,1,.537-.48,1.188,1.188,0,0,1,.383-.058.935.935,0,0,1,.326.058c.1.04.21.1.326.159v.718a2.62,2.62,0,0,0-.249-.14.871.871,0,0,0-.307-.079.6.6,0,0,0-.269.039.247.247,0,0,0-.114.242.584.584,0,0,0,.019.159.368.368,0,0,0,.077.178h.824v.659h-1.994v-.639Z" transform="translate(16322 14135)" fill="#4e5253"/>
    <rect id="Rectangle_15532" data-name="Rectangle 15532" width="1.418" height="8.334" transform="translate(17774.967 14305.623)" fill="#4e5253"/>
    <path id="Path_141063" data-name="Path 141063" d="M1463.2,178.956h-2.319a3.791,3.791,0,0,1-1.035-.158,2.952,2.952,0,0,1-.882-.458,2.317,2.317,0,0,1-.613-.8,2.7,2.7,0,0,1-.23-1.156,2.323,2.323,0,0,1,.192-.979,2.417,2.417,0,0,1,.537-.8,2.827,2.827,0,0,1,.881-.538,3.2,3.2,0,0,1,1.207-.2,4.763,4.763,0,0,1,.48.04c.191.019.4.061.612.1a5.711,5.711,0,0,1,.614.138c.192.061.364.119.518.18v4.625Zm-3.507-5.962a.752.752,0,0,1-.594-.259.842.842,0,0,1-.249-.618.857.857,0,0,1,.249-.638.815.815,0,0,1,1.188,0,.861.861,0,0,1,.249.638.846.846,0,0,1-.249.618.828.828,0,0,1-.594.259m2.089,2.313a2.971,2.971,0,0,0-.307-.059,3.391,3.391,0,0,0-.5-.039,1.534,1.534,0,0,0-1.093.339,1.117,1.117,0,0,0-.345.856,1.134,1.134,0,0,0,.364.9,1.451,1.451,0,0,0,1,.317h.9v-2.313Zm.038-2.313a.752.752,0,0,1-.594-.259.842.842,0,0,1-.249-.618.857.857,0,0,1,.249-.638.815.815,0,0,1,1.188,0,.861.861,0,0,1,.249.638.845.845,0,0,1-.249.618.86.86,0,0,1-.594.259" transform="translate(16322 14135)" fill="#4e5253"/>
    <path id="Path_141064" data-name="Path 141064" d="M1465.1,173.891h1.418v5.9a1.622,1.622,0,0,1-.536,1.376,2.013,2.013,0,0,1-1.361.44,2.29,2.29,0,0,1-.518-.061c-.172-.04-.306-.08-.44-.12v-1.235l.4.119a1.22,1.22,0,0,0,.364.039.76.76,0,0,0,.5-.158.885.885,0,0,0,.192-.639v-5.663Z" transform="translate(16322 14135)" fill="#4e5253"/>
    <rect id="Rectangle_15533" data-name="Rectangle 15533" width="1.418" height="8.334" transform="translate(17789.914 14305.623)" fill="#4e5253"/>
    <path id="Path_141065" data-name="Path 141065" d="M1471.191,173.891h1.418v5.9a1.622,1.622,0,0,1-.537,1.376,2.01,2.01,0,0,1-1.36.44,2.284,2.284,0,0,1-.518-.061c-.173-.04-.306-.08-.441-.12v-1.235l.4.119a1.19,1.19,0,0,0,.364.04.755.755,0,0,0,.5-.159.89.89,0,0,0,.192-.639v-5.663Zm.632-.917a.753.753,0,0,1-.594-.259.846.846,0,0,1-.249-.618.864.864,0,0,1,.249-.639.815.815,0,0,1,1.188,0,.864.864,0,0,1,.249.639.846.846,0,0,1-.249.618.779.779,0,0,1-.594.259" transform="translate(16322 14135)" fill="#4e5253"/>
    <path id="Path_141066" data-name="Path 141066" d="M1476.979,178.955h-.882a3.679,3.679,0,0,1-1.035-.159,2.643,2.643,0,0,1-.881-.459,2.274,2.274,0,0,1-.613-.8,2.943,2.943,0,0,1-.058-2.132,2.392,2.392,0,0,1,.537-.8,2.974,2.974,0,0,1,.881-.539,3.183,3.183,0,0,1,1.207-.2c.135,0,.288.02.48.04s.4.06.613.1a5.088,5.088,0,0,1,.613.141c.192.058.365.118.518.178v4.925a2.332,2.332,0,0,1-.249,1.156,2,2,0,0,1-.652.739,2.683,2.683,0,0,1-.862.4,3.681,3.681,0,0,1-.92.119,4.124,4.124,0,0,1-1.8-.4v-1.376a5.765,5.765,0,0,0,.9.419,3.215,3.215,0,0,0,.9.119,1.363,1.363,0,0,0,.882-.3,1.092,1.092,0,0,0,.363-.917v-.26Zm.019-3.648a2.88,2.88,0,0,0-.307-.06,3.357,3.357,0,0,0-.5-.04,1.547,1.547,0,0,0-1.092.339,1.263,1.263,0,0,0,.019,1.755,1.439,1.439,0,0,0,1,.319h.9v-2.313Z" transform="translate(16322 14135)" fill="#4e5253"/>
    <path id="Path_141067" data-name="Path 141067" d="M1421.633,189.245v-3.29l-1.131,2.612h-.383l-1.15-2.612v3.29h-.459v-4.326h.44l1.361,3.069,1.322-3.069h.441v4.326Z" transform="translate(16322 14135)" fill="#4e5253"/>
    <rect id="Rectangle_15534" data-name="Rectangle 15534" width="0.44" height="4.327" transform="translate(17745.281 14319.918)" fill="#4e5253"/>
    <path id="Path_141068" data-name="Path 141068" d="M1427.574,189.245l-2.2-3.47v3.47h-.44v-4.326h.421l2.2,3.449v-3.449H1428v4.326Z" transform="translate(16322 14135)" fill="#4e5253"/>
    <rect id="Rectangle_15535" data-name="Rectangle 15535" width="0.44" height="4.327" transform="translate(17751.203 14319.918)" fill="#4e5253"/>
    <path id="Path_141069" data-name="Path 141069" d="M1431.925,189.285a1.713,1.713,0,0,1-1.419-.579l.307-.317a1.412,1.412,0,0,0,1.13.477c.614,0,.978-.3.978-.8a.708.708,0,0,0-.192-.538.855.855,0,0,0-.536-.2l-.479-.08a1.525,1.525,0,0,1-.767-.319,1.058,1.058,0,0,1-.326-.818,1.2,1.2,0,0,1,1.342-1.216,1.634,1.634,0,0,1,1.245.48l-.287.3a1.3,1.3,0,0,0-.978-.379.781.781,0,0,0-.881.8.623.623,0,0,0,.192.5,1.167,1.167,0,0,0,.555.238l.461.08a1.405,1.405,0,0,1,.766.3,1.086,1.086,0,0,1,.344.856c-.019.758-.594,1.217-1.455,1.217" transform="translate(16322 14135)" fill="#4e5253"/>
    <path id="Path_141070" data-name="Path 141070" d="M1435.508,185.336v3.908h-.441v-3.908h-1.207v-.419h2.855v.419Z" transform="translate(16322 14135)" fill="#4e5253"/>
    <path id="Path_141071" data-name="Path 141071" d="M1439.877,189.245l-.939-1.914h-1v1.914h-.44v-4.327h1.59a1.139,1.139,0,0,1,1.227,1.2,1.105,1.105,0,0,1-.9,1.158l1,1.954h-.537Zm-.843-3.909h-1.112v1.6h1.112a.745.745,0,0,0,.824-.8.729.729,0,0,0-.824-.8" transform="translate(16322 14135)" fill="#4e5253"/>
    <path id="Path_141072" data-name="Path 141072" d="M1442.445,187.47v1.794h-.44V187.47l-1.247-2.531h.48l.977,2.072.978-2.072h.479Z" transform="translate(16322 14135)" fill="#4e5253"/>
    <path id="Path_141073" data-name="Path 141073" d="M1448.137,188.826a1.445,1.445,0,0,1-1.073.459,1.372,1.372,0,0,1-1.054-.459c-.384-.4-.384-.838-.384-1.754s0-1.337.384-1.755a1.431,1.431,0,0,1,1.054-.459,1.476,1.476,0,0,1,1.073.459c.383.4.383.837.383,1.755.02.938.02,1.357-.383,1.754m-.345-3.21a.949.949,0,0,0-1.418,0c-.269.279-.287.578-.287,1.477s.018,1.2.287,1.474a.945.945,0,0,0,1.418,0c.269-.278.287-.579.287-1.474.02-.917-.018-1.2-.287-1.477" transform="translate(16322 14135)" fill="#4e5253"/>
    <path id="Path_141074" data-name="Path 141074" d="M1450.015,185.336v1.6h1.821v.418h-1.821v1.914h-.441V184.94h2.587v.418h-2.146Z" transform="translate(16322 14135)" fill="#4e5253"/>
    <path id="Path_141075" data-name="Path 141075" d="M1456.838,189.245V187.27h-1.974v1.975h-.441v-4.326h.441v1.933h1.974v-1.933h.441v4.326Z" transform="translate(16322 14135)" fill="#4e5253"/>
    <path id="Path_141076" data-name="Path 141076" d="M1460.843,188.826a1.462,1.462,0,0,1-2.127,0c-.384-.4-.384-.838-.384-1.754s0-1.337.384-1.755a1.442,1.442,0,0,1,1.073-.459,1.373,1.373,0,0,1,1.054.459c.383.4.383.837.383,1.755.02.938.02,1.357-.383,1.754m-.345-3.21a.949.949,0,0,0-1.418,0c-.269.279-.288.578-.288,1.477s.038,1.2.288,1.474a.946.946,0,0,0,1.418,0c.269-.278.287-.579.287-1.474.02-.917-.018-1.2-.287-1.477" transform="translate(16322 14135)" fill="#4e5253"/>
    <path id="Path_141077" data-name="Path 141077" d="M1463.679,189.285a1.4,1.4,0,0,1-1.456-1.456v-2.891h.44v2.871a1.01,1.01,0,1,0,2.012,0v-2.871h.441v2.891a1.375,1.375,0,0,1-1.437,1.456" transform="translate(16322 14135)" fill="#4e5253"/>
    <path id="Path_141078" data-name="Path 141078" d="M1467.359,189.285a1.709,1.709,0,0,1-1.418-.579l.306-.317a1.415,1.415,0,0,0,1.131.477c.613,0,.977-.3.977-.8a.707.707,0,0,0-.191-.538.852.852,0,0,0-.537-.2l-.479-.08a1.608,1.608,0,0,1-.767-.319,1.051,1.051,0,0,1-.306-.818,1.2,1.2,0,0,1,1.341-1.216,1.637,1.637,0,0,1,1.246.48l-.287.3a1.3,1.3,0,0,0-.978-.379.782.782,0,0,0-.881.8.623.623,0,0,0,.191.5,1.175,1.175,0,0,0,.556.238l.46.08a1.345,1.345,0,0,1,.767.3,1.087,1.087,0,0,1,.345.856,1.306,1.306,0,0,1-1.476,1.217" transform="translate(16322 14135)" fill="#4e5253"/>
    <rect id="Rectangle_15536" data-name="Rectangle 15536" width="0.441" height="4.327" transform="translate(17791.717 14319.918)" fill="#4e5253"/>
    <path id="Path_141079" data-name="Path 141079" d="M1474.009,189.245l-2.2-3.47v3.47h-.44v-4.326h.421l2.2,3.449v-3.449h.441v4.326Z" transform="translate(16322 14135)" fill="#4e5253"/>
    <path id="Path_141080" data-name="Path 141080" d="M1478.052,188.786a1.5,1.5,0,0,1-1.112.5,1.4,1.4,0,0,1-1.053-.459c-.384-.4-.384-.838-.384-1.755s0-1.336.384-1.754a1.457,1.457,0,0,1,2.51.837h-.441a1.014,1.014,0,0,0-1.744-.557c-.268.279-.287.579-.287,1.474s.019,1.2.287,1.477a1.02,1.02,0,0,0,1.514-.079,1.169,1.169,0,0,0,.23-.78v-.318h-1.016v-.4h1.476v.676a1.662,1.662,0,0,1-.364,1.137" transform="translate(16322 14135)" fill="#4e5253"/>
    <rect id="Rectangle_15537" data-name="Rectangle 15537" width="4.714" height="1.814" transform="translate(17752.123 14299.639)" fill="#02734a"/>
    <rect id="Rectangle_15538" data-name="Rectangle 15538" width="16.576" height="1.814" transform="translate(17760.67 14299.639)" fill="#02734a"/>
    <rect id="Rectangle_15539" data-name="Rectangle 15539" width="4.005" height="1.813" transform="translate(17763.641 14296.011)" fill="#02734a"/>
    <rect id="Rectangle_15540" data-name="Rectangle 15540" width="11.173" height="1.813" transform="translate(17763.641 14292.363)" fill="#02734a"/>
    <rect id="Rectangle_15541" data-name="Rectangle 15541" width="1.744" height="5.443" transform="translate(17773.068 14296.011)" fill="#02734a"/>
    <rect id="Rectangle_15542" data-name="Rectangle 15542" width="1.744" height="5.443" transform="translate(17769.582 14296.011)" fill="#02734a"/>
    <rect id="Rectangle_15543" data-name="Rectangle 15543" width="1.744" height="5.442" transform="translate(17762.588 14292.363)" fill="#02734a"/>
    <rect id="Rectangle_15544" data-name="Rectangle 15544" width="1.744" height="5.443" transform="translate(17766.074 14296.011)" fill="#02734a"/>
    <rect id="Rectangle_15545" data-name="Rectangle 15545" width="1.744" height="5.463" transform="translate(17755.611 14296.011)" fill="#02734a"/>
    <rect id="Rectangle_15546" data-name="Rectangle 15546" width="1.744" height="5.463" transform="translate(17752.123 14296.011)" fill="#02734a"/>
    <rect id="Rectangle_15547" data-name="Rectangle 15547" width="1.744" height="1.813" transform="translate(17755.611 14292.363)" fill="#02734a"/>
    <g id="Group_120906" data-name="Group 120906" transform="translate(16322 14135)">
      <g id="Group_120905" data-name="Group 120905" clip-path="url(#clip-path)">
        <rect id="Rectangle_15549" data-name="Rectangle 15549" width="1.745" height="29.071" transform="translate(1447.581 126.476)" fill="url(#linear-gradient)"/>
      </g>
    </g>
    <g id="Group_120908" data-name="Group 120908" transform="translate(16322 14135)">
      <g id="Group_120907" data-name="Group 120907" clip-path="url(#clip-path-2)">
        <rect id="Rectangle_15550" data-name="Rectangle 15550" width="1.743" height="23.488" transform="translate(1451.069 132.059)" fill="url(#linear-gradient-2)"/>
      </g>
    </g>
    <g id="Group_120910" data-name="Group 120910" transform="translate(16322 14135)">
      <g id="Group_120909" data-name="Group 120909" clip-path="url(#clip-path-3)">
        <rect id="Rectangle_15551" data-name="Rectangle 15551" width="1.744" height="19.341" transform="translate(1458.064 142.926)" fill="url(#linear-gradient-3)"/>
      </g>
    </g>
    <g id="Group_120912" data-name="Group 120912" transform="translate(16322 14135)">
      <g id="Group_120911" data-name="Group 120911" clip-path="url(#clip-path-4)">
        <rect id="Rectangle_15552" data-name="Rectangle 15552" width="1.743" height="7.178" transform="translate(1461.552 148.389)" fill="url(#linear-gradient-4)"/>
      </g>
    </g>
    <g id="Group_120914" data-name="Group 120914" transform="translate(16322 14135)">
      <g id="Group_120913" data-name="Group 120913" clip-path="url(#clip-path-5)">
        <rect id="Rectangle_15553" data-name="Rectangle 15553" width="1.744" height="23.607" transform="translate(1444.074 131.94)" fill="url(#linear-gradient-5)"/>
      </g>
    </g>
    <g id="Group_120916" data-name="Group 120916" transform="translate(16322 14135)">
      <g id="Group_120915" data-name="Group 120915" clip-path="url(#clip-path-6)">
        <rect id="Rectangle_15554" data-name="Rectangle 15554" width="1.743" height="18.164" transform="translate(1440.587 137.383)" fill="url(#linear-gradient-6)"/>
      </g>
    </g>
    <g id="Group_120918" data-name="Group 120918" transform="translate(16322 14135)">
      <g id="Group_120917" data-name="Group 120917" clip-path="url(#clip-path-7)">
        <rect id="Rectangle_15555" data-name="Rectangle 15555" width="1.744" height="23.567" transform="translate(1437.098 142.887)" fill="url(#linear-gradient-7)"/>
      </g>
    </g>
    <g id="Group_120920" data-name="Group 120920" transform="translate(16322 14135)">
      <g id="Group_120919" data-name="Group 120919" clip-path="url(#clip-path-8)">
        <rect id="Rectangle_15556" data-name="Rectangle 15556" width="1.742" height="7.175" transform="translate(1433.611 148.372)" fill="url(#linear-gradient-8)"/>
      </g>
    </g>
    <g id="Group_120922" data-name="Group 120922" transform="translate(16322 14135)">
      <g id="Group_120921" data-name="Group 120921" clip-path="url(#clip-path-9)">
        <rect id="Rectangle_15557" data-name="Rectangle 15557" width="1.744" height="5.584" transform="translate(1430.122 153.593)" fill="url(#linear-gradient-9)"/>
      </g>
    </g>
    <path id="Path_141090" data-name="Path 141090" d="M1426.616,160.991v3.648h-5.826l-1.744,1.817h9.333v-7.278Z" transform="translate(16322 14135)" fill="#02734a"/>
    <path id="Path_141091" data-name="Path 141091" d="M1466.8,155.388l-1.763-1.813v12.879h1.763V155.388Z" transform="translate(16322 14135)" fill="#02734a"/>
    <rect id="Rectangle_15558" data-name="Rectangle 15558" width="4.714" height="1.814" transform="translate(17780.064 14299.639)" fill="#02734a"/>
    <rect id="Rectangle_15559" data-name="Rectangle 15559" width="1.744" height="9.072" transform="translate(17783.553 14292.382)" fill="#02734a"/>
    <rect id="Rectangle_15560" data-name="Rectangle 15560" width="1.744" height="5.443" transform="translate(17776.557 14296.011)" fill="#02734a"/>
    <g id="Group_120924" data-name="Group 120924" transform="translate(16322 14135)">
      <g id="Group_120923" data-name="Group 120923" clip-path="url(#clip-path-10)">
        <rect id="Rectangle_15561" data-name="Rectangle 15561" width="1.764" height="21.734" transform="translate(1454.556 137.443)" fill="url(#linear-gradient-10)"/>
      </g>
    </g>
    <path id="Path_141093" data-name="Path 141093" d="M1470.291,161.01v3.63h5.845l1.744,1.814h-9.333v-7.278Z" transform="translate(16322 14135)" fill="#02734a"/>
    <path id="Path_141094" data-name="Path 141094" d="M1459.808,163.2v-.6h-1.284v1h-.441v.6h1.725v-.6h-.709v-.4Z" transform="translate(16322 14135)" fill="#02734a"/>
  </g>
</svg>
