<svg xmlns="http://www.w3.org/2000/svg" width="60.439" height="9.624" viewBox="0 0 60.439 9.624">
  <g id="Client_39" transform="translate(-17819.965 -14508.588)">
    <path id="Path_143745" data-name="Path 143745" d="M1505.526,375.3a2.905,2.905,0,0,0-2.629-1.689c-1.565-.043-3.133-.01-4.7-.008-.075,0-.162-.035-.221.05q0,4.564-.012,9.129c0,.183.062.218.221.216.763-.007,1.526,0,2.289,0,.075,0,.162.031.22-.053.081-.071.046-.167.047-.254,0-.777,0-1.553,0-2.329,0-.085-.03-.184.052-.253.569,0,1.138.011,1.707,0a1.651,1.651,0,0,0,.6-.09,2.7,2.7,0,0,0,2.323-1.363,3.256,3.256,0,0,0,.1-3.35m-3.368,2.579c-.4-.021-.812-.012-1.217,0-.189,0-.252-.068-.249-.262.009-.5.008-.993,0-1.49,0-.184.064-.252.238-.244.247.011.494,0,.741,0,.215,0,.429,0,.644,0a.861.861,0,0,1,.872.9.953.953,0,0,1-1.03,1.088" transform="translate(16322 14135)" fill="#0f6bae"/>
    <path id="Path_143746" data-name="Path 143746" d="M1548.32,378.088a2.219,2.219,0,0,0-2.167-2.05,2.725,2.725,0,0,0-1.788.553,2.072,2.072,0,0,1-.47.3,1.866,1.866,0,0,1-.059-.38c.01-.2-.067-.236-.238-.234-.635.01-1.271,0-1.908.005-.068,0-.145-.023-.2.049q0,2.889-.008,5.776a5.711,5.711,0,0,0-.032.666c.018.154.067.227.237.224.675-.012,1.351-.005,2.026-.006.077,0,.16.024.225-.048s.034-.174.034-.262c0-1.074.014-2.148-.006-3.22a1.178,1.178,0,0,1,.826-1.3c.72.022.995.319.994,1.073,0,1.174,0,2.349-.007,3.524,0,.184.051.239.229.237.708-.01,1.415-.011,2.122,0,.194,0,.262-.06.235-.254a1.435,1.435,0,0,1,0-.147c0-.679.014-1.358,0-2.034a22.937,22.937,0,0,0-.046-2.476" transform="translate(16322 14135)" fill="#0f6bae"/>
    <path id="Path_143747" data-name="Path 143747" d="M1519.847,378.208a2.243,2.243,0,0,0-2.219-2.171,3.109,3.109,0,0,0-1.951.67c-.094.064-.168.244-.28.179-.095-.057-.041-.232-.033-.351.011-.189-.041-.261-.238-.257-.613.014-1.226,0-1.838.006-.076,0-.163-.028-.22.058-.146.013-.091.134-.091.21-.005,2.058,0,4.117-.011,6.177,0,.2.038.274.247.27.676-.014,1.351-.005,2.027-.006.077,0,.161.026.224-.047s.04-.189.04-.286q0-1.749,0-3.5a1.109,1.109,0,0,1,.073-.356,1.168,1.168,0,0,1,.7-.648c.748-.023,1.034.39,1.014,1.117-.03,1.149-.006,2.3-.012,3.447,0,.191.039.28.251.276.706-.013,1.413-.01,2.12,0,.182,0,.266-.053.251-.253-.013-.164-.005-.33-.006-.495-.011-1.348.072-2.7-.045-4.042" transform="translate(16322 14135)" fill="#0f6bae"/>
    <path id="Path_143748" data-name="Path 143748" d="M1526.93,381c-.049-.906.032-1.817-.059-2.722a1.993,1.993,0,0,0-1.084-1.788,4.7,4.7,0,0,0-1.539-.364,5.43,5.43,0,0,0-2.566.309,1.977,1.977,0,0,0-1.211,1.894c.005.123.006.244.169.24.635-.018,1.269.02,1.9.05.08,0,.166.007.172-.116a.869.869,0,0,1,.58-.791,2.4,2.4,0,0,0,.329-.012c.453-.031.933.292.767.819h0a.086.086,0,0,0-.039.1c-.15,0-.249.128-.391.169-.724.208-1.475.274-2.2.477a1.941,1.941,0,0,0-1.57,1.5c0,.068-.005.133-.012.2a1.838,1.838,0,0,0,.727,1.779,2.581,2.581,0,0,0,2.208.375,2.438,2.438,0,0,0,1.354-.768c.065.173.12.319.172.463a.249.249,0,0,0,.266.193c.677-.006,1.353-.008,2.03,0,.181,0,.178-.071.127-.2a13.155,13.155,0,0,1-.131-1.8m-2.326-.42a.208.208,0,0,0-.036-.243.208.208,0,0,1,.036.243m-4.32.453c.014-.08.038-.165-.019-.228.057.063.033.148.019.228m-.035-.243,0,0,0,0m3.47.808c-.005.016-.007.035-.012.051.005-.016.007-.035.012-.051a1.805,1.805,0,0,1-.75,0,.612.612,0,0,1-.442-.522.423.423,0,0,1,.234-.446,8.8,8.8,0,0,1,1.165-.42,2.967,2.967,0,0,0,.289-.11c.273-.128.293-.115.319.208a6.009,6.009,0,0,1-.1.657l0,.013a1.549,1.549,0,0,1-.712.619" transform="translate(16322 14135)" fill="#0f6bae"/>
    <path id="Path_143749" data-name="Path 143749" d="M1539.875,376.839a3.59,3.59,0,0,0-3.114-.683,3.3,3.3,0,0,0-2.765,2.765,4.042,4.042,0,0,0-.006,1.28,3.6,3.6,0,0,0,1.217,2.228,3.994,3.994,0,0,0,4.31.264,2.878,2.878,0,0,0,1.071-1.091.611.611,0,0,0,.083-.086,3.918,3.918,0,0,0,.488-2.084,3.335,3.335,0,0,0-1.284-2.593m-2.391,4.62h0a.914.914,0,0,1-.824-.673,3.315,3.315,0,0,1,.044-2.4c.129-.325.413-.435.683-.57.847-.039,1.139.591,1.226,1.3a3.772,3.772,0,0,1-.085,1.472,1,1,0,0,1-1.044.87" transform="translate(16322 14135)" fill="#0f6bae"/>
    <path id="Path_143750" data-name="Path 143750" d="M1532.029,378.767c-.661-.2-1.347-.286-2.017-.447-.12-.03-.232-.076-.267-.215a.386.386,0,0,1,.13-.376c.109-.115.266-.134.394-.213a1.513,1.513,0,0,1,.165.007c.382.036.734.119.826.59.025.119.1.1.181.1h1.911c.053,0,.113.018.149-.046.1-.075.067-.184.051-.273a1.816,1.816,0,0,0-1.443-1.611,6.017,6.017,0,0,0-2.564-.147,2.751,2.751,0,0,0-1.486.6,1.164,1.164,0,0,0-.517.678.118.118,0,0,0-.048.1c-.04.019-.046.058-.05.1a1.775,1.775,0,0,0,.289,1.84h0c.015.112.1.166.171.231a2.9,2.9,0,0,0,1.3.564,17.782,17.782,0,0,1,2.014.447h0l.047.05h0a.559.559,0,0,1-.016.623,2.273,2.273,0,0,1-.224.215,2.83,2.83,0,0,1-.566.056.863.863,0,0,1-.809-.7c-.015-.2-.09-.248-.266-.246-.644.006-1.286,0-1.93,0-.069,0-.146-.023-.2.046a1.228,1.228,0,0,0,.031.553,2.267,2.267,0,0,0,1.588,1.635,5.328,5.328,0,0,0,2.841.148,2.61,2.61,0,0,0,1.607-.891.4.4,0,0,0,.194-.3c.029-.029.067-.051.083-.084a2.035,2.035,0,0,0-.046-2.026,2.45,2.45,0,0,0-1.524-1.023" transform="translate(16322 14135)" fill="#0f6bae"/>
    <path id="Path_143751" data-name="Path 143751" d="M1551.284,376.51c0-.167-.038-.232-.211-.23-.684.008-1.367,0-2.05,0-.061,0-.13-.018-.173.052q0,3.227-.013,6.448c0,.164.049.214.2.213.732-.007,1.463-.005,2.193-.006.072-.053.048-.133.048-.206q0-3.135,0-6.274" transform="translate(16322 14135)" fill="#0f6bae"/>
    <path id="Path_143752" data-name="Path 143752" d="M1558.195,380.2c-.7.009-1.393.007-2.091.009-.116.229-.088.5-.189.737h0a1.8,1.8,0,0,1-.43.4.98.98,0,0,1-1.19-.574,2.891,2.891,0,0,1-.077-2.253,1.189,1.189,0,0,1,.749-.663,1.036,1.036,0,0,1,1.058.813c.032.115.1.143.21.142.619-.005,1.239,0,1.859,0,.052,0,.113.017.15-.045.146-.209.028-.418-.025-.61a2.666,2.666,0,0,0-1.93-1.909,3.818,3.818,0,0,0-3.065.32,3.147,3.147,0,0,0-1.557,2.249,3.632,3.632,0,0,0,1.639,3.911,3.682,3.682,0,0,0,2.434.418,3.111,3.111,0,0,0,2.088-1.15,2.19,2.19,0,0,0,.576-1.585c0-.167-.06-.208-.209-.207" transform="translate(16322 14135)" fill="#0f6bae"/>
    <path id="Path_143753" data-name="Path 143753" d="M1549.066,375.387c.652-.007,1.3,0,1.956-.005.067,0,.146.032.2-.044.087-.055.059-.144.06-.223,0-.43-.008-.861.005-1.29.006-.2-.07-.232-.238-.229-.643.009-1.286,0-1.929,0-.076,0-.161-.027-.223.05-.074.052-.048.133-.048.206,0,.436.006.877-.005,1.314-.006.186.066.219.223.217" transform="translate(16322 14135)" fill="#0f6bae"/>
    <path id="Path_143754" data-name="Path 143754" d="M1512.541,382.593c0-.049,0-.1,0-.144a4.348,4.348,0,0,0,0-.523c-.084-.721-.03-1.451-.085-2.174-.039-.527.014-1.058-.053-1.584a1.979,1.979,0,0,0-1.065-1.671,4.366,4.366,0,0,0-1.75-.4,5.224,5.224,0,0,0-2.491.389,2.091,2.091,0,0,0-1.092,1.858c.01.112.024.231.167.224.644-.027,1.286.058,1.929.054.1,0,.133-.042.148-.146a.853.853,0,0,1,.627-.759,1.667,1.667,0,0,0,.185-.023.731.731,0,0,1,.907.775l-.049.056a.084.084,0,0,0-.04.093,4.358,4.358,0,0,1-.713.256,17.575,17.575,0,0,0-2.174.495,1.859,1.859,0,0,0-1.132.992,1.992,1.992,0,0,0,.952,2.6,2.821,2.821,0,0,0,1.815.157,2.41,2.41,0,0,0,1.152-.553c.237-.226.227-.227.34.087.052.145.068.345.285.345.716,0,1.431,0,2.146,0,.113,0,.147-.043.087-.15a.412.412,0,0,0-.093-.252m-6.647-2.087a.15.15,0,0,0,0-.1.15.15,0,0,1,0,.1m-.008-.116-.006-.009.006.009m4.139.258a1.139,1.139,0,0,1-.823.953,1.753,1.753,0,0,1-.654.006.635.635,0,0,1-.494-.525c-.019-.241.1-.417.4-.53.475-.176.956-.336,1.433-.508a.21.21,0,0,1,.179.015c-.023.2,0,.391-.04.589" transform="translate(16322 14135)" fill="#0f6bae"/>
  </g>
</svg>
