<svg xmlns="http://www.w3.org/2000/svg" width="87.867" height="62.588" viewBox="0 0 87.867 62.588">
  <g id="Client_14" transform="translate(-16854.432 -14261.587)">
    <path id="Path_145836" data-name="Path 145836" d="M586.2,165.723l.116-1.549a3.09,3.09,0,0,0-1.1-2.531l-3.18-2.63,8.479-7.278a4.231,4.231,0,0,0,1.389-3.116v-1.374a.125.125,0,0,0-.13-.118.138.138,0,0,0-.035.008l-13.418,11.7a.255.255,0,0,0-.024.35.083.083,0,0,0,.024.025l7.61,6.619a.162.162,0,0,0,.231-.026.171.171,0,0,0,.034-.075" transform="translate(16322 14135)" fill="#d09539"/>
    <path id="Path_145837" data-name="Path 145837" d="M566.545,165.723l-.117-1.549a3.094,3.094,0,0,1,1.1-2.531l3.18-2.63-8.48-7.278a4.234,4.234,0,0,1-1.388-3.116v-1.374a.125.125,0,0,1,.13-.118.13.13,0,0,1,.034.008l13.419,11.7a.255.255,0,0,1,.024.35.081.081,0,0,1-.024.025l-7.589,6.639a.161.161,0,0,1-.232.014.176.176,0,0,1-.054-.135" transform="translate(16322 14135)" fill="#d09539"/>
    <path id="Path_145838" data-name="Path 145838" d="M589.545,135.821a13.287,13.287,0,0,0-10.71.044,11.411,11.411,0,0,1,6.725-5.106l1-.276a.058.058,0,0,0,.05-.066.055.055,0,0,0-.018-.037l-.652-.773a2.156,2.156,0,0,0-2.453-.629,13.686,13.686,0,0,0-6.021,4.78v-5.749a1.284,1.284,0,0,0-.334-.862l-.307-.342a.669.669,0,0,0-.974-.016l-.017.016-.313.342a1.28,1.28,0,0,0-.329.862v5.663a13.676,13.676,0,0,0-5.935-4.683,2.165,2.165,0,0,0-2.475.618l-.652.773a.062.062,0,0,0,0,.086.068.068,0,0,0,.035.017l1,.276a11.419,11.419,0,0,1,6.726,5.106,13.33,13.33,0,0,0-10.716-.044,2.3,2.3,0,0,0-1.336,2.205l.048,1.026a.063.063,0,0,0,.065.064.059.059,0,0,0,.031-.009l.9-.552a11.109,11.109,0,0,1,10.6-.325,13.506,13.506,0,0,0-5.592,2.941,2.364,2.364,0,0,0-.673,2.546l.334.97a.057.057,0,0,0,.08.023.052.052,0,0,0,.021-.023l.721-.776a11.229,11.229,0,0,1,6.826-3.573v12.681l-5.894-5.128a.242.242,0,0,0-.351.025.262.262,0,0,0-.062.175V149.6a2.993,2.993,0,0,0,1.018,2.261l6.3,5.477a.242.242,0,0,0,.312,0l6.291-5.477a3,3,0,0,0,1.018-2.261v-1.509a.255.255,0,0,0-.246-.263.235.235,0,0,0-.168.063l-5.983,5.19a1.087,1.087,0,0,0,0-.228v-12.5a11.229,11.229,0,0,1,6.889,3.579l.716.779a.061.061,0,0,0,.088.017.1.1,0,0,0,.018-.017l.334-.972a2.363,2.363,0,0,0-.626-2.568,13.482,13.482,0,0,0-5.612-2.9,11.11,11.11,0,0,1,10.6.326l.9.551a.061.061,0,0,0,.087-.022.1.1,0,0,0,.009-.033l.047-1.025a2.3,2.3,0,0,0-1.335-2.25" transform="translate(16322 14135)" fill="#006754"/>
    <rect id="Rectangle_17758" data-name="Rectangle 17758" width="0.864" height="0.756" transform="translate(16860.918 14307.986)" fill="#64696b"/>
    <path id="Path_145839" data-name="Path 145839" d="M534.259,179.773a1.681,1.681,0,0,1-1.346-.484,1.833,1.833,0,0,1-.419-1.237v-1.426h.843v1.251a1.09,1.09,0,0,0,1.24,1.2h1.012V172.5h.832v5.048s3.244.039,3.376,0a3.961,3.961,0,0,0,.943-.253l.117-.045-.4-1a1.388,1.388,0,0,0-.529-.657,1.452,1.452,0,0,0-.811-.224,1.966,1.966,0,0,0-.817.16l-.3-.691a2.844,2.844,0,0,1,1.272-.3,2.1,2.1,0,0,1,1.2.352,1.953,1.953,0,0,1,.726.948l.413,1.1a1.006,1.006,0,0,0,.832.68l-.318.732a1.43,1.43,0,0,1-.461-.148,1.609,1.609,0,0,1-.53-.386l-.058-.068-.08.045a4.1,4.1,0,0,1-1.091.413,5.194,5.194,0,0,1-1.177.144h-2.316v1.417Z" transform="translate(16322 14135)" fill="#64696b"/>
    <path id="Path_145840" data-name="Path 145840" d="M547.286,178.356a3.112,3.112,0,0,1-.992-.121,1.024,1.024,0,0,1-.53-.375l-.069-.1-.1.074a2.284,2.284,0,0,1-1.42.549h-.843l-.308-.706h1.013a2.621,2.621,0,0,0,1.409-.336l.085-.054-.991-2.681h.9l.927,2.5a.779.779,0,0,0,.335.435,1.117,1.117,0,0,0,.594.132h.651V172.5h.826v5.838Z" transform="translate(16322 14135)" fill="#64696b"/>
    <rect id="Rectangle_17759" data-name="Rectangle 17759" width="0.832" height="5.84" transform="translate(16871.766 14307.516)" fill="#64696b"/>
    <path id="Path_145841" data-name="Path 145841" d="M552.861,179.442a2.827,2.827,0,0,0,.625-.159,1.066,1.066,0,0,0,.477-.393,1.227,1.227,0,0,0,.165-.682v-2.839h-.1a2.558,2.558,0,0,0-.53-.063c-.482,0-1.06.21-1.06,1.213a1.223,1.223,0,0,0,.271.833,1,1,0,0,0,.779.316h.726l-.5.706h-.408a1.734,1.734,0,0,1-.89-.233,1.564,1.564,0,0,1-.588-.678,2.018,2.018,0,0,1-.228-.988,1.982,1.982,0,0,1,.244-.974,1.747,1.747,0,0,1,.678-.673,2.133,2.133,0,0,1,1.06-.248,9.882,9.882,0,0,1,1.4.142v3.448a2.339,2.339,0,0,1-.233,1.1,1.477,1.477,0,0,1-.642.636,3.358,3.358,0,0,1-.927.3Z" transform="translate(16322 14135)" fill="#64696b"/>
    <rect id="Rectangle_17760" data-name="Rectangle 17760" width="0.864" height="0.756" transform="translate(16881.607 14307.986)" fill="#64696b"/>
    <rect id="Rectangle_17761" data-name="Rectangle 17761" width="0.864" height="0.756" transform="translate(16880.076 14307.986)" fill="#64696b"/>
    <path id="Path_145842" data-name="Path 145842" d="M559.04,178.356a1.757,1.757,0,0,1-.9-.231,1.633,1.633,0,0,1-.62-.661,2.105,2.105,0,0,1-.232-.977,1.993,1.993,0,0,1,.243-.975,1.787,1.787,0,0,1,.684-.685,2.155,2.155,0,0,1,1.06-.248,10.172,10.172,0,0,1,1.4.145v3.632Zm.181-3.066c-.478,0-1.061.21-1.061,1.213a1.231,1.231,0,0,0,.27.833,1,1,0,0,0,.779.314h.6v-2.282h-.089a2.686,2.686,0,0,0-.5-.078" transform="translate(16322 14135)" fill="#64696b"/>
    <path id="Path_145843" data-name="Path 145843" d="M563.222,178.356a1.081,1.081,0,0,1-.9-.375,1.572,1.572,0,0,1-.318-1.037V172.5h.837v4.255a1.013,1.013,0,0,0,.175.663.66.66,0,0,0,.53.214h4.643v-.082a2.537,2.537,0,0,0,.148-.783,1.015,1.015,0,0,0-.344-.85,1.563,1.563,0,0,0-.938-.248h-1.787l-.349-.81,2.062-2.359h.969L565.6,174.96h1.675a2.06,2.06,0,0,1,1.447.447,1.645,1.645,0,0,1,.482,1.283,3.138,3.138,0,0,1-.143.889,6.829,6.829,0,0,1-.265.76Z" transform="translate(16322 14135)" fill="#64696b"/>
    <rect id="Rectangle_17762" data-name="Rectangle 17762" width="0.864" height="0.756" transform="translate(16892.539 14307.986)" fill="#64696b"/>
    <path id="Path_145844" data-name="Path 145844" d="M569.6,179.442a2.089,2.089,0,0,0,.461-.138.743.743,0,0,0,.382-.369,1.527,1.527,0,0,0,.116-.662v-3.61h.837v2.6a.983.983,0,0,0,.8.387.827.827,0,0,0,.561-.287,1.1,1.1,0,0,0,.244-.743V172.5h.837v4.267a2.1,2.1,0,0,1-.042.419v.062l.037.044a.987.987,0,0,0,.832.34h.88V172.5h.826v5.838h-1.7a1.3,1.3,0,0,1-.53-.116,1.508,1.508,0,0,1-.5-.351l-.09-.1-.079.107a1.228,1.228,0,0,1-1.012.461h-.446v-.028h-.058a1.639,1.639,0,0,1-.4-.176l-.175-.11v.216a2.053,2.053,0,0,1-.429,1.443,1.783,1.783,0,0,1-1.06.552Z" transform="translate(16322 14135)" fill="#64696b"/>
    <rect id="Rectangle_17763" data-name="Rectangle 17763" width="0.864" height="0.756" transform="translate(16903.135 14307.986)" fill="#64696b"/>
    <rect id="Rectangle_17764" data-name="Rectangle 17764" width="0.864" height="0.756" transform="translate(16901.607 14307.986)" fill="#64696b"/>
    <path id="Path_145845" data-name="Path 145845" d="M582.565,178.356a1.056,1.056,0,0,1-1.06-.628l-.052-.111-.033-.127a2.08,2.08,0,0,1-.068-.551v-1.571h-.091a2.546,2.546,0,0,0-.529-.06c-.482,0-1.06.21-1.06,1.211a1.231,1.231,0,0,0,.271.834.989.989,0,0,0,.778.314h.816l-.255.706h-.672a1.791,1.791,0,0,1-.9-.23,1.648,1.648,0,0,1-.652-.679,2.027,2.027,0,0,1-.228-.987,1.935,1.935,0,0,1,.244-.977,1.741,1.741,0,0,1,.683-.684,2.166,2.166,0,0,1,1.06-.248,10,10,0,0,1,1.383.138v2.052a.979.979,0,0,0,.181.661.654.654,0,0,0,.529.216h.727v-2.929a10.017,10.017,0,0,1,1.4-.144,2.175,2.175,0,0,1,1.06.249,1.788,1.788,0,0,1,.684.683,2.028,2.028,0,0,1,.245.978,6,6,0,0,1-.425,1.869Zm2.492-3.066a2.378,2.378,0,0,0-.531.062h-.09v2.283h1.473v-.088a3.88,3.88,0,0,0,.159-1.06c.037-.987-.534-1.2-1.011-1.2" transform="translate(16322 14135)" fill="#64696b"/>
    <path id="Path_145846" data-name="Path 145846" d="M594.707,178.357h-.074a7.179,7.179,0,0,1-2.12-.287h-.064a10.054,10.054,0,0,1-2.491.287h-.53a1.094,1.094,0,0,1-.9-.375,1.569,1.569,0,0,1-.319-1.038V172.5h.88v4.257a.98.98,0,0,0,.18.662.641.641,0,0,0,.53.215h.191a8.74,8.74,0,0,0,1.293-.083l.207-.038-.138-.159a12.622,12.622,0,0,1-1.017-1.534l.212-.92a6.843,6.843,0,0,1,.964-.365,2.914,2.914,0,0,1,.87-.127,2.226,2.226,0,0,1,.98.221,2.018,2.018,0,0,1,.726.552,1.205,1.205,0,0,1,.26.727,1.638,1.638,0,0,1-.2.735,2.493,2.493,0,0,1-.53.682l-.2.171.254.044a7.214,7.214,0,0,0,1,.068h.774V172.5h.827v5.84Zm-2.406-3.1a2.88,2.88,0,0,0-1.177.319l-.111.055.053.111a6.533,6.533,0,0,0,.53.9,5.669,5.669,0,0,0,.684.8l.063.056.069-.033a2.658,2.658,0,0,0,.732-.552,1.12,1.12,0,0,0,.328-.761.773.773,0,0,0-.366-.667,1.453,1.453,0,0,0-.8-.231" transform="translate(16322 14135)" fill="#64696b"/>
    <rect id="Rectangle_17765" data-name="Rectangle 17765" width="0.832" height="5.84" transform="translate(16919.234 14307.516)" fill="#64696b"/>
    <rect id="Rectangle_17766" data-name="Rectangle 17766" width="0.864" height="0.756" transform="translate(16922.887 14307.986)" fill="#64696b"/>
    <rect id="Rectangle_17767" data-name="Rectangle 17767" width="0.864" height="0.756" transform="translate(16924.412 14307.986)" fill="#64696b"/>
    <path id="Path_145847" data-name="Path 145847" d="M605.147,173.878l.085-.435h.466l-.079-.175a.6.6,0,0,1-.069-.26.679.679,0,0,1,.731-.743,1.251,1.251,0,0,1,.323.037l-.116.369h-.138a.354.354,0,0,0-.27.115.438.438,0,0,0-.106.305.49.49,0,0,0,.085.3l.032.048h.821v.435Z" transform="translate(16322 14135)" fill="#64696b"/>
    <rect id="Rectangle_17768" data-name="Rectangle 17768" width="0.864" height="0.756" transform="translate(16931.281 14314.298)" fill="#64696b"/>
    <rect id="Rectangle_17769" data-name="Rectangle 17769" width="0.864" height="0.756" transform="translate(16929.756 14314.298)" fill="#64696b"/>
    <path id="Path_145848" data-name="Path 145848" d="M616.685,178.357a1.345,1.345,0,0,1-.567-.151,1.4,1.4,0,0,1-.53-.422l-.09-.118-.09.118a1.375,1.375,0,0,1-1.14.549h-3.524a1.887,1.887,0,0,1-.72-.127,1.441,1.441,0,0,1-.531-.428l-.095-.127-.09.133a1.389,1.389,0,0,1-.456.407,1.344,1.344,0,0,1-.615.142h-.6a1.965,1.965,0,0,1-.727-.127,1.423,1.423,0,0,1-.529-.428l-.1-.127-.09.133a1.268,1.268,0,0,1-1.076.549h-1.293a1.094,1.094,0,0,1-.9-.369,1.571,1.571,0,0,1-.318-1.042v-1.553h-.09a2.492,2.492,0,0,0-.53-.063c-.477,0-1.06.21-1.06,1.213a1.231,1.231,0,0,0,.27.833.99.99,0,0,0,.774.314h.721l-.26.706h-.572a1.792,1.792,0,0,1-.9-.231,1.626,1.626,0,0,1-.626-.65,2.036,2.036,0,0,1-.227-.988,1.939,1.939,0,0,1,.243-.975,1.753,1.753,0,0,1,.684-.685,2.133,2.133,0,0,1,1.06-.248,10.112,10.112,0,0,1,1.4.145v2.049a.983.983,0,0,0,.18.664.654.654,0,0,0,.53.213h.652a.8.8,0,0,0,.61-.292,1.135,1.135,0,0,0,.249-.744v-2.051h.831v2.207a1.984,1.984,0,0,1-.036.39v.062l.042.044a.943.943,0,0,0,.435.292,8.968,8.968,0,0,0,1,.077.784.784,0,0,0,.61-.292,1.134,1.134,0,0,0,.248-.744v-2.036h.833v2.207a2.58,2.58,0,0,1-.032.39v.062l.037.044a.966.966,0,0,0,.434.292c.154.048,1.437.077,1.437.077l-.228-.216a1.124,1.124,0,0,1-.334-.859,1.349,1.349,0,0,1,.2-.7,1.527,1.527,0,0,1,.53-.55,1.725,1.725,0,0,1,1.669,0,1.437,1.437,0,0,1,.53.55,1.616,1.616,0,0,1,.175.706,1.13,1.13,0,0,1-.344.823l-.223.215H614a1.019,1.019,0,0,0,.493-.145,1.122,1.122,0,0,0,.424-.445,1.553,1.553,0,0,0,.169-.75,1.981,1.981,0,0,0-.233-.949,1.69,1.69,0,0,0-.694-.695,2.212,2.212,0,0,0-1.091-.248h-.446l-.3-.712h.757a3.245,3.245,0,0,1,1.521.342,2.439,2.439,0,0,1,.981.91,2.5,2.5,0,0,1,.334,1.279,3.139,3.139,0,0,1-.117.849v.05l.032.051a.894.894,0,0,0,.36.351,1.217,1.217,0,0,0,.53.112h.991V172.5h.827v5.84Zm-4.192-2.549a.708.708,0,0,0-.53.21.845.845,0,0,0-.207.612.985.985,0,0,0,.747.992h.064a.7.7,0,0,0,.583-.281,1.137,1.137,0,0,0,.2-.682.861.861,0,0,0-.107-.4.907.907,0,0,0-.3-.325.775.775,0,0,0-.45-.127" transform="translate(16322 14135)" fill="#64696b"/>
    <rect id="Rectangle_17770" data-name="Rectangle 17770" width="0.832" height="5.84" transform="translate(16941.467 14307.516)" fill="#64696b"/>
    <path id="Path_145849" data-name="Path 145849" d="M532.966,187.63a2.473,2.473,0,0,1-.53-1.7,2.417,2.417,0,0,1,.562-1.7,1.892,1.892,0,0,1,1.473-.584,2.553,2.553,0,0,1,1.23.313v.623h-.287a1.3,1.3,0,0,0-.927-.331,1.153,1.153,0,0,0-.933.386,1.954,1.954,0,0,0-.349,1.268q0,1.738,1.192,1.738a1.671,1.671,0,0,0,.742-.145v-1.1h-.71v-.553h1.431v2a2.887,2.887,0,0,1-1.463.359,1.8,1.8,0,0,1-1.431-.568" transform="translate(16322 14135)" fill="#64696b"/>
    <path id="Path_145850" data-name="Path 145850" d="M537.153,186.649a1.173,1.173,0,0,0,.26.779.867.867,0,0,0,.657.23,1.236,1.236,0,0,0,.858-.3h.25v.5a2,2,0,0,1-1.2.361,1.437,1.437,0,0,1-1.134-.465,1.816,1.816,0,0,1-.4-1.245,1.872,1.872,0,0,1,.424-1.27,1.338,1.338,0,0,1,1.06-.463c.9,0,1.357.552,1.357,1.621v.254Zm0-.485h1.441a1.129,1.129,0,0,0-.19-.688.613.613,0,0,0-.493-.2c-.413,0-.663.3-.731.888Z" transform="translate(16322 14135)" fill="#64696b"/>
    <path id="Path_145851" data-name="Path 145851" d="M540.332,184.818a.221.221,0,0,1,.185.072.627.627,0,0,1,.08.309,1.917,1.917,0,0,1,1.176-.425c.53,0,.838.31.838.939v2.459h-.689V185.86a.573.573,0,0,0-.111-.386.463.463,0,0,0-.329-.1,1.75,1.75,0,0,0-.885.308v2.488H539.9v-3.354Z" transform="translate(16322 14135)" fill="#64696b"/>
    <path id="Path_145852" data-name="Path 145852" d="M543.883,186.649a1.2,1.2,0,0,0,.265.779.859.859,0,0,0,.657.23,1.237,1.237,0,0,0,.859-.3h.249v.5a2.012,2.012,0,0,1-1.2.361,1.43,1.43,0,0,1-1.134-.465,1.815,1.815,0,0,1-.4-1.245,1.874,1.874,0,0,1,.418-1.27,1.356,1.356,0,0,1,1.06-.463q1.352,0,1.352,1.621v.254Zm0-.485h1.442a1.137,1.137,0,0,0-.2-.688.592.592,0,0,0-.488-.2c-.429,0-.684.3-.747.888Z" transform="translate(16322 14135)" fill="#64696b"/>
    <path id="Path_145853" data-name="Path 145853" d="M548.192,185.408a1.293,1.293,0,0,0-.9.349v2.415h-.688v-3.354h.418a.218.218,0,0,1,.186.083.625.625,0,0,1,.079.316,1.148,1.148,0,0,1,.869-.425.65.65,0,0,1,.2.032v.584Z" transform="translate(16322 14135)" fill="#64696b"/>
    <path id="Path_145854" data-name="Path 145854" d="M551.038,188.17a.451.451,0,0,1-.271-.064.443.443,0,0,1-.122-.254,1.248,1.248,0,0,1-.916.363,1.029,1.029,0,0,1-.732-.26,1,1,0,0,1-.286-.759.92.92,0,0,1,.355-.779,1.449,1.449,0,0,1,.9-.254,2.646,2.646,0,0,1,.662.083v-.39c0-.349-.2-.553-.6-.553a1.364,1.364,0,0,0-.853.266h-.238v-.552a2.408,2.408,0,0,1,1.16-.293,1.411,1.411,0,0,1,.9.237.974.974,0,0,1,.313.8v2.36Zm-.414-.827v-.649a2.37,2.37,0,0,0-.556-.062c-.461,0-.689.177-.689.552a.562.562,0,0,0,.153.413.569.569,0,0,0,.4.127.914.914,0,0,0,.694-.381" transform="translate(16322 14135)" fill="#64696b"/>
    <path id="Path_145855" data-name="Path 145855" d="M552.087,188.17v-4.454h.376c.134,0,.219.026.255.083a.8.8,0,0,1,.058.375v4Z" transform="translate(16322 14135)" fill="#64696b"/>
    <path id="Path_145856" data-name="Path 145856" d="M555.065,187.94l1.421-4.242h.741l1.41,4.242v.243h-.689l-.392-1.237h-1.505l-.382,1.237h-.6Zm1.733-3.392-.567,1.81h1.145Z" transform="translate(16322 14135)" fill="#64696b"/>
    <path id="Path_145857" data-name="Path 145857" d="M561.213,187.343v-2.524h.678v3.351h-.418a.222.222,0,0,1-.175-.059.567.567,0,0,1-.074-.283,1.95,1.95,0,0,1-1.113.392.8.8,0,0,1-.894-.7.852.852,0,0,1,0-.22v-2.486h.689v2.342a.4.4,0,0,0,.3.478.343.343,0,0,0,.146,0,1.681,1.681,0,0,0,.864-.3" transform="translate(16322 14135)" fill="#64696b"/>
    <path id="Path_145858" data-name="Path 145858" d="M562.443,184.818h.382v-.888h.678v.888h.678v.553H563.5v1.907a.45.45,0,0,0,.1.33.478.478,0,0,0,.319.083h.318v.481a2.062,2.062,0,0,1-.53.07.773.773,0,0,1-.877-.668.809.809,0,0,1,0-.22v-1.983h-.382Z" transform="translate(16322 14135)" fill="#64696b"/>
    <path id="Path_145859" data-name="Path 145859" d="M565.458,185.182a1.891,1.891,0,0,1,1.171-.425c.562,0,.838.31.838.939v2.46h-.679v-2.313a.567.567,0,0,0-.111-.386.466.466,0,0,0-.334-.1,1.753,1.753,0,0,0-.885.308v2.489h-.684V183.7h.377c.132,0,.212,0,.248.077a.741.741,0,0,1,.059.381Z" transform="translate(16322 14135)" fill="#64696b"/>
    <path id="Path_145860" data-name="Path 145860" d="M568.5,187.759a1.741,1.741,0,0,1-.445-1.252,1.8,1.8,0,0,1,.445-1.27,1.422,1.422,0,0,1,1.1-.463,1.442,1.442,0,0,1,1.1.463,1.806,1.806,0,0,1,.445,1.27,1.746,1.746,0,0,1-.445,1.252,1.548,1.548,0,0,1-2.194,0m1.717-.387a1.435,1.435,0,0,0,.228-.865,1.51,1.51,0,0,0-.228-.883.742.742,0,0,0-.62-.3.726.726,0,0,0-.615.3,1.465,1.465,0,0,0-.233.883,1.389,1.389,0,0,0,.233.859.8.8,0,0,0,1.167.07.645.645,0,0,0,.068-.07Z" transform="translate(16322 14135)" fill="#64696b"/>
    <path id="Path_145861" data-name="Path 145861" d="M573.323,185.408a1.311,1.311,0,0,0-.9.349v2.415h-.684v-3.354h.419a.206.206,0,0,1,.18.083.618.618,0,0,1,.085.316,1.149,1.149,0,0,1,.864-.425.682.682,0,0,1,.206.032v.584Z" transform="translate(16322 14135)" fill="#64696b"/>
    <path id="Path_145862" data-name="Path 145862" d="M574.112,184.409a.374.374,0,0,1-.122-.279.413.413,0,0,1,.122-.294.372.372,0,0,1,.281-.12.406.406,0,0,1,.392.414.369.369,0,0,1-.117.279.385.385,0,0,1-.556,0m-.069,3.761v-3.352h.376c.133,0,.218.034.249.093a1.067,1.067,0,0,1,.053.438v2.821Z" transform="translate(16322 14135)" fill="#64696b"/>
    <path id="Path_145863" data-name="Path 145863" d="M575.236,184.818h.382v-.888h.678v.888h.7v.553h-.7v1.907a.466.466,0,0,0,.1.33.479.479,0,0,0,.319.083h.318v.481a2.062,2.062,0,0,1-.53.07.773.773,0,0,1-.877-.668.811.811,0,0,1,0-.22v-1.983h-.382Z" transform="translate(16322 14135)" fill="#64696b"/>
    <path id="Path_145864" data-name="Path 145864" d="M578.072,188.964l.419-1.024-1.182-2.917v-.215h.652l.874,2.25.816-2.25h.589v.21l-1.59,4.156h-.578Z" transform="translate(16322 14135)" fill="#64696b"/>
    <path id="Path_145865" data-name="Path 145865" d="M582.777,187.759a1.736,1.736,0,0,1-.44-1.252,1.807,1.807,0,0,1,.44-1.27,1.549,1.549,0,0,1,2.194,0,1.81,1.81,0,0,1,.445,1.27,1.75,1.75,0,0,1-.445,1.252,1.548,1.548,0,0,1-2.194,0m1.717-.387a1.442,1.442,0,0,0,.228-.865,1.51,1.51,0,0,0-.228-.883.743.743,0,0,0-.62-.3.725.725,0,0,0-.615.3,1.465,1.465,0,0,0-.233.883,1.387,1.387,0,0,0,.233.883.807.807,0,0,0,1.167.07c.024-.024.047-.047.068-.07Z" transform="translate(16322 14135)" fill="#64696b"/>
    <path id="Path_145866" data-name="Path 145866" d="M585.73,184.818h.382v-.241a.8.8,0,0,1,.668-.911.686.686,0,0,1,.217,0,1.5,1.5,0,0,1,.5.077v.463h-.3a.449.449,0,0,0-.3.077.405.405,0,0,0-.106.319v.215h.646v.553h-.646V188.2h-.678v-2.828h-.382Z" transform="translate(16322 14135)" fill="#64696b"/>
    <path id="Path_145867" data-name="Path 145867" d="M589.45,187.581l2.21-3.309h-2.041v-.549h2.831v.6l-2.205,3.31h2.173v.552h-2.963Z" transform="translate(16322 14135)" fill="#64696b"/>
    <path id="Path_145868" data-name="Path 145868" d="M595.142,188.17a.469.469,0,0,1-.276-.064.429.429,0,0,1-.116-.254,1.259,1.259,0,0,1-.923.363,1.031,1.031,0,0,1-.726-.26,1,1,0,0,1-.291-.759.934.934,0,0,1,.355-.779,1.464,1.464,0,0,1,.9-.254,2.607,2.607,0,0,1,.657.083v-.39c0-.349-.2-.553-.6-.553a1.366,1.366,0,0,0-.853.266h-.239v-.552a2.438,2.438,0,0,1,1.167-.293,1.388,1.388,0,0,1,.9.237.96.96,0,0,1,.313.8v2.36Zm-.419-.827v-.649a2.258,2.258,0,0,0-.53-.062c-.461,0-.694.177-.694.552a.521.521,0,0,0,.159.413.551.551,0,0,0,.4.127.9.9,0,0,0,.668-.381" transform="translate(16322 14135)" fill="#64696b"/>
    <path id="Path_145869" data-name="Path 145869" d="M596.874,186.285l1.235-1.478h.561v.245l-.964,1.1.53.882c.238.387.419.685.53.884v.229h-.609l-.923-1.5-.371.43v1.069h-.673v-4.455h.371c.135,0,.219.029.255.083a.73.73,0,0,1,.058.375Z" transform="translate(16322 14135)" fill="#64696b"/>
    <path id="Path_145870" data-name="Path 145870" d="M601.486,188.17a.469.469,0,0,1-.276-.064.429.429,0,0,1-.116-.254,1.25,1.25,0,0,1-.917.363,1.029,1.029,0,0,1-.732-.26,1,1,0,0,1-.286-.759.929.929,0,0,1,.35-.779,1.464,1.464,0,0,1,.9-.254,2.607,2.607,0,0,1,.657.083v-.39c0-.349-.2-.553-.6-.553a1.366,1.366,0,0,0-.853.266h-.239v-.552a2.437,2.437,0,0,1,1.166-.293,1.389,1.389,0,0,1,.9.237.958.958,0,0,1,.318.8v2.36Zm-.419-.827v-.649a2.258,2.258,0,0,0-.53-.062c-.461,0-.694.177-.694.552a.521.521,0,0,0,.159.413.551.551,0,0,0,.4.127.9.9,0,0,0,.668-.381" transform="translate(16322 14135)" fill="#64696b"/>
    <path id="Path_145871" data-name="Path 145871" d="M602.248,184.818h.376v-.888h.679v.888h.7v.553h-.7v1.907a.444.444,0,0,0,.106.33.465.465,0,0,0,.312.083h.318v.481a2.062,2.062,0,0,1-.53.07.773.773,0,0,1-.876-.668.809.809,0,0,1,0-.22v-1.983h-.376Z" transform="translate(16322 14135)" fill="#64696b"/>
    <path id="Path_145872" data-name="Path 145872" d="M612.037,188.17v-3.9h-1.219v-.552H614v.552h-1.219v3.9Z" transform="translate(16322 14135)" fill="#64696b"/>
    <path id="Path_145873" data-name="Path 145873" d="M616.674,188.17a.45.45,0,0,1-.27-.064.443.443,0,0,1-.122-.254,1.25,1.25,0,0,1-.917.363,1.028,1.028,0,0,1-.731-.26,1,1,0,0,1-.286-.759.92.92,0,0,1,.355-.779,1.449,1.449,0,0,1,.9-.254,2.645,2.645,0,0,1,.662.083v-.39c0-.349-.2-.553-.6-.553a1.364,1.364,0,0,0-.853.266h-.239v-.552a2.415,2.415,0,0,1,1.161-.293,1.411,1.411,0,0,1,.9.237.974.974,0,0,1,.313.8v2.36Zm-.413-.827v-.649a2.372,2.372,0,0,0-.557-.062c-.461,0-.689.177-.689.552a.491.491,0,0,0,.552.54.914.914,0,0,0,.694-.381" transform="translate(16322 14135)" fill="#64696b"/>
    <path id="Path_145874" data-name="Path 145874" d="M617.506,187.939l.943-1.481-.9-1.4v-.237h.626l.747,1.191.7-1.191h.529v.232l-.837,1.378c.069.116.392.618.965,1.511v.231h-.62l-.8-1.334-.783,1.318h-.573Z" transform="translate(16322 14135)" fill="#64696b"/>
    <path id="Path_145875" data-name="Path 145875" d="M608.921,187.239a4.076,4.076,0,0,0,.461-1.373v-.132h-.53a3.647,3.647,0,0,1-.286,1.1l-.827-.986a.234.234,0,0,0,.164-.044,1.31,1.31,0,0,0,.684-.487.822.822,0,0,0,.08-.755.847.847,0,0,0-.456-.55,1.158,1.158,0,0,0-1.224.2.968.968,0,0,0-.313.756,1.371,1.371,0,0,0,.249.782,1.3,1.3,0,0,0-.853,1.213,1.128,1.128,0,0,0,.344.883,1.4,1.4,0,0,0,1.007.34,1.516,1.516,0,0,0,1.124-.467l.36.434h.594v-.221Zm-1.214-1.792-.217.062a1.023,1.023,0,0,1-.2-.552.559.559,0,0,1,.159-.407.535.535,0,0,1,.127-.078.5.5,0,0,1,.318,0,.458.458,0,0,1,.243.3c.1.316-.042.531-.429.673m-.164,2.261a.8.8,0,0,1-.631-.236.79.79,0,0,1-.2-.552.921.921,0,0,1,.488-.821l1.059,1.285a.957.957,0,0,1-.715.324" transform="translate(16322 14135)" fill="#64696b"/>
  </g>
</svg>
