<svg xmlns="http://www.w3.org/2000/svg" width="46.547" height="69.557" viewBox="0 0 46.547 69.557">
  <g id="Client_79" transform="translate(-16962.029 -14805.043)">
    <path id="Path_143857" data-name="Path 143857" d="M679.543,672.252c-3.849-2.028-6.517-2.816-8.29-1.43s-8.87,16.111-8.87,16.111-5.487-14.321-7.856-16.471-10.658,4.536-12.421,6.922,0,2.82,0,2.82l16.342,7.071-16.53.322-1.889,33.373,46.055.382-1.586-34.59-16.356.321c5.8-2.17,15.767-5.936,17.672-6.871,2.719-1.327-2.424-5.929-6.271-7.96M657.185,718.7l-14.026.112.462-12.577H658.21Zm1.348-16.4H643.768l.453-12.267,15.32,0Zm-11.009-21.923c-1.261-.678-4.075-1.535-3.495-2.108s5.145-4.834,6.505-5.572a2.677,2.677,0,0,1,3.592.573c.679,1.066,6.406,12.491,6.406,12.491s-11.746-4.707-13.008-5.384m35.232,38.113-14.651.119-1.616-12.375h16.463Zm.454-28.453-.2,12.263H665.976l-1.6-12.264Zm.041-12.1c-1.34,1.242-18.659,8.521-18.659,8.521s7.254-14.2,8.881-14.082,11.116,4.322,9.778,5.561" transform="translate(16322 14135)" fill="#f06332"/>
    <path id="Path_143858" data-name="Path 143858" d="M645.126,736.1v.777a2.656,2.656,0,0,1-2.673,2.7c-.935,0-1.565-.438-1.565-1.212v-.834a5.673,5.673,0,0,0,.783.079c1.546,0,1.336-1.35,1.336-3.5v-4.807h.821c1.069,0,1.413.457,1.413,1.589v3.179a2.475,2.475,0,0,0,.439.039h1.279V736.1h-1.833Zm7.7-1.986v2.007h-.077a3.984,3.984,0,0,1-2.787-.953c-.764.774-1.795.953-3.379.953v-2.007h.821c.9-.079,1.241-.576,1.241-1.488v-3.279h.687q1.489,0,1.489,1.549v1.212c.077,1.392.573,2.006,2.005,2.006m-2.024,4.231a1.094,1.094,0,0,1-1.088,1.114,1.082,1.082,0,0,1-1.088-1.114,1.1,1.1,0,0,1,1.088-1.152,1.115,1.115,0,0,1,1.088,1.152m6.53-7.449v1.827A3.123,3.123,0,0,1,654.1,736.1h-1.947v-1.986h1.775c.879-.1,1.222-.6,1.222-1.51v-3.277h.707c.974,0,1.47.536,1.47,1.569m-4.468,7.548a1.1,1.1,0,1,1,2.2,0,1.1,1.1,0,1,1-2.2,0m2.5,0a1.111,1.111,0,0,1,1.089-1.132,1.13,1.13,0,0,1,1.126,1.132,1.146,1.146,0,0,1-1.126,1.152,1.128,1.128,0,0,1-1.089-1.152m7.141-4.33V736.1h-.382a3.132,3.132,0,0,1-3.264-3.377v-8.62h.992a1.213,1.213,0,0,1,1.222,1.153v7.726a1.174,1.174,0,0,0,1.2,1.132Zm-.191,0h2.482V736.1H662.31Zm2.2,0h2.482V736.1h-2.482Zm2.2,0h2.482V736.1H666.7Zm2.2,0h2.482V736.1H668.9Zm2.2,0h2.482V736.1h-2.482Zm2.2,0h2.482V736.1H673.29Zm4.716,1.986h-2.711v-1.986h2.252a3.043,3.043,0,0,1-.782-2.024,2.662,2.662,0,0,1,2.806-2.841c2.081,0,2.864,1.826,2.845,3.574l-.019,1.291h1.374a6.057,6.057,0,0,0,.115-1.23c0-2.147-1.012-4.926-4.124-4.926a3.459,3.459,0,0,0-2.673,1.111V728.3c0-1.312.344-2.325,3.093-2.325,4.276,0,5.632,3.794,5.632,7.171a9.444,9.444,0,0,1-.439,2.959c-1.909,0-2.806.021-3.513-.554-.668.356-1.317.554-3.78.554Zm2.825-1.986c0-1.331.153-3.4-1.355-3.4-.783,0-1.184.675-1.184,1.628,0,.121-.019,1.768,2.539,1.768" transform="translate(16322 14135)" fill="#f06332"/>
  </g>
</svg>
