<svg xmlns="http://www.w3.org/2000/svg" width="58.836" height="58.495" viewBox="0 0 58.836 58.495">
  <g id="Client_4" transform="translate(-17829.824 -14263.632)">
    <path id="Path_145876" data-name="Path 145876" d="M1537.4,128.632h0c-.159.481-.291.979-.41,1.485a5.029,5.029,0,0,0-1.811-.33,6.076,6.076,0,0,0-5.459,4.114,5.652,5.652,0,0,1,4.018-2.049,6.48,6.48,0,0,0-3.106,5.6,7.028,7.028,0,0,0,.106,1.183,6.324,6.324,0,0,1,4.005-4.7,6.269,6.269,0,0,0-.5,8.391,6.289,6.289,0,0,1,2.128-6.629,23.867,23.867,0,0,0,1.031,7.054v0a23.447,23.447,0,0,0,1.031-7.054,6.2,6.2,0,0,1,2.366,4.91,6.059,6.059,0,0,1-.238,1.719,6.269,6.269,0,0,0-.5-8.391,6.3,6.3,0,0,1,4.005,4.7,6.908,6.908,0,0,0,.106-1.183,6.479,6.479,0,0,0-3.107-5.6,5.547,5.547,0,0,1,4.019,2.049,6.076,6.076,0,0,0-5.459-4.114,5.081,5.081,0,0,0-1.811.33c-.132-.506-.264-1-.41-1.485" transform="translate(16322 14135)" fill="#05ab5e" fill-rule="evenodd"/>
    <path id="Path_145877" data-name="Path 145877" d="M1544.552,157.487c-.595-.509-2.524-2.117-4.878-4.029,1.587-1.487,3.2-2.956,4.865-4.347.568-.468,1.137-.921,1.718-1.348a16.872,16.872,0,0,1,3.5-2.076,9.12,9.12,0,0,1,2.578-.675,5.92,5.92,0,0,1,3.317.592c3.027,1.528,3.252,5.24,3.252,5.24l.318.041a7.17,7.17,0,0,0-.4-2.709,7.1,7.1,0,0,0-3.252-3.96c-2.551-1.389-5.38-.756-7.231-.013a22.8,22.8,0,0,0-3.978,2.158c-1.943,1.278-4.56,3.272-7.033,5.227-2.471-1.955-5.088-3.949-7.031-5.227a22.84,22.84,0,0,0-3.979-2.158c-1.851-.731-4.679-1.376-7.218.013a7.092,7.092,0,0,0-3.251,3.96,7.178,7.178,0,0,0-.4,2.709l.317-.041s.225-3.712,3.252-5.24a6.047,6.047,0,0,1,3.318-.592,9.12,9.12,0,0,1,2.578.675,17.612,17.612,0,0,1,3.5,2.076c.581.427,1.163.88,1.718,1.348,1.666,1.391,3.264,2.86,4.864,4.347-2.366,1.912-4.283,3.534-4.877,4.029h5.287c.648-.6,1.3-1.21,1.93-1.814.648.6,1.282,1.21,1.93,1.814Z" transform="translate(16322 14135)" fill="#8f7224" fill-rule="evenodd"/>
    <path id="Path_145878" data-name="Path 145878" d="M1538.194,146.87c-1.943-1.484-5.063-3.012-7.905-.521l-.331-.208s2.565-3.191,6.4-2.737a8.459,8.459,0,0,1,4.2,1.982c.423.33.885.713,1.414,1.181,2.419,2.147,4.4,4.621,6.887,6.7a16.894,16.894,0,0,0,2.393,1.773s3.45,2.05,5.789.165a6.054,6.054,0,0,0,1.124-1.112l.211.108a7.861,7.861,0,0,1-3.688,3.163,7.2,7.2,0,0,1-5.486-.521,12.912,12.912,0,0,1-3-2.092l-2.353-2.352a62.433,62.433,0,0,0-5.657-5.528" transform="translate(16322 14135)" fill="#05ab5e" fill-rule="evenodd"/>
    <path id="Path_145879" data-name="Path 145879" d="M1517.784,149.936l2.1-2.173,1.824,1.9,1.837-1.9,2.1,2.173-2.1,2.188-1.837-1.913-1.824,1.913Z" transform="translate(16322 14135)" fill="#05ab5e" fill-rule="evenodd"/>
    <path id="Path_145880" data-name="Path 145880" d="M1512.7,185.725h-.833v-4.441l-1.573,4.441h-.594l-1.534-4.374v4.374h-.33v-5.213h.859l1.573,4.415,1.586-4.415h.846Z" transform="translate(16322 14135)" fill="#8f7224"/>
    <path id="Path_145881" data-name="Path 145881" d="M1514.712,180.954a.337.337,0,0,1-.133.26.479.479,0,0,1-.3.111.456.456,0,0,1-.3-.111.317.317,0,0,1-.132-.26.3.3,0,0,1,.132-.249.487.487,0,0,1,.3-.11.458.458,0,0,1,.3.11.3.3,0,0,1,.133.249m-.093,4.771h-.687v-3.837a2.214,2.214,0,0,0,.687-.109Z" transform="translate(16322 14135)" fill="#8f7224"/>
    <path id="Path_145882" data-name="Path 145882" d="M1519.139,185.725h-.687v-3.054c0-.438-.212-.659-.622-.659a1.236,1.236,0,0,0-1.031.577,1.131,1.131,0,0,0-.277.619v2.517h-.688v-3.863a2.881,2.881,0,0,0,.688-.083v.922a2.211,2.211,0,0,1,.7-.689,1.771,1.771,0,0,1,.86-.233,1.228,1.228,0,0,1,.766.233.786.786,0,0,1,.3.632v3.081Z" transform="translate(16322 14135)" fill="#8f7224"/>
    <path id="Path_145883" data-name="Path 145883" d="M1521.122,180.954a.335.335,0,0,1-.132.26.484.484,0,0,1-.3.111.456.456,0,0,1-.3-.111.315.315,0,0,1-.131-.26.3.3,0,0,1,.131-.249.489.489,0,0,1,.3-.11.461.461,0,0,1,.3.11.3.3,0,0,1,.132.249m-.092,4.771h-.687v-3.837a2.218,2.218,0,0,0,.687-.109Z" transform="translate(16322 14135)" fill="#8f7224"/>
    <path id="Path_145884" data-name="Path 145884" d="M1524.969,184.708a.922.922,0,0,1-.437.8,1.755,1.755,0,0,1-1.044.3,1.641,1.641,0,0,1-1.269-.455,1.216,1.216,0,0,1-.264-.878l.422-.083a1.666,1.666,0,0,0-.066.371.741.741,0,0,0,.331.631,1.3,1.3,0,0,0,.806.25,1.185,1.185,0,0,0,.674-.2.587.587,0,0,0,.265-.521.628.628,0,0,0-.331-.551,3.178,3.178,0,0,0-.687-.274,3.775,3.775,0,0,1-.939-.441.944.944,0,0,1,.027-1.608,1.826,1.826,0,0,1,1.044-.289c.872,0,1.308.371,1.308,1.128l-.4.082c.013-.123.026-.22.026-.3a.737.737,0,0,0-.264-.565.967.967,0,0,0-.661-.218,1.077,1.077,0,0,0-.661.206.588.588,0,0,0-.29.508.765.765,0,0,0,.436.632,6.03,6.03,0,0,0,.819.344,3.456,3.456,0,0,1,.819.386,1.036,1.036,0,0,1,.332.742" transform="translate(16322 14135)" fill="#8f7224"/>
    <path id="Path_145885" data-name="Path 145885" d="M1527.15,185.327c-.066.3-.291.454-.674.454-.45,0-.687-.207-.687-.6v-3.055h-.41v-.233h.41v-.647a3.923,3.923,0,0,0,.687-.315v.962h.515v.233h-.515V185.2c0,.247.079.371.237.371s.212-.082.226-.232h.211Z" transform="translate(16322 14135)" fill="#8f7224"/>
    <path id="Path_145886" data-name="Path 145886" d="M1530.349,182.356a2.224,2.224,0,0,1-.159.7h-.582a4.63,4.63,0,0,0,.172-.686c0-.2-.1-.289-.3-.289-.291,0-.5.191-.647.577a2.21,2.21,0,0,0-.2.757v2.336h-.7V181.9a2.44,2.44,0,0,0,.7-.1v.963c.265-.645.635-.963,1.124-.963a.5.5,0,0,1,.595.551" transform="translate(16322 14135)" fill="#8f7224"/>
    <path id="Path_145887" data-name="Path 145887" d="M1534.288,181.888l-2.009,4.512a1.974,1.974,0,0,1-.3.509.771.771,0,0,1-.582.218.747.747,0,0,1-.436-.094.571.571,0,0,1-.225-.332l.3-.192c.066.275.2.427.4.427.238,0,.436-.165.581-.51l.252-.6-1.6-3.949h.741l1.255,3.151,1.388-3.151h.238Z" transform="translate(16322 14135)" fill="#8f7224"/>
    <path id="Path_145888" data-name="Path 145888" d="M1540.4,183.8a2.5,2.5,0,0,1-.331,1.376,1.785,1.785,0,0,1-2.749,0,2.471,2.471,0,0,1-.344-1.376,2.506,2.506,0,0,1,.344-1.375,1.785,1.785,0,0,1,2.749,0,2.625,2.625,0,0,1,.331,1.375m-.754,0c0-1.251-.317-1.884-.952-1.884s-.951.633-.951,1.884.317,1.886.951,1.886.952-.634.952-1.886" transform="translate(16322 14135)" fill="#8f7224"/>
    <path id="Path_145889" data-name="Path 145889" d="M1543.025,181.077a.782.782,0,0,1-.013.18l-.424.136a2.331,2.331,0,0,0,.053-.357.512.512,0,0,0-.092-.3.289.289,0,0,0-.264-.151.363.363,0,0,0-.317.151.612.612,0,0,0-.107.344,2.885,2.885,0,0,0,.265.8h.713v.22h-.713v3.629h-.687V182.1h-.674v-.22h.674v-.607a.826.826,0,0,1,.211-.59.8.8,0,0,1,.648-.261c.489.013.727.232.727.659" transform="translate(16322 14135)" fill="#8f7224"/>
    <path id="Path_145890" data-name="Path 145890" d="M1549.925,185.725h-.807v-2.694h-2.392v2.694h-.806v-5.213h.806v2.242h2.392v-2.242h.807Z" transform="translate(16322 14135)" fill="#8f7224"/>
    <path id="Path_145891" data-name="Path 145891" d="M1554.274,184.529c0,.866-.489,1.292-1.467,1.292a1.733,1.733,0,0,1-1.917-1.884,3.371,3.371,0,0,1,.146-1,1.594,1.594,0,0,1,.621-.812,1.755,1.755,0,0,1,1.044-.33,1.471,1.471,0,0,1,1.031.371,1.5,1.5,0,0,1,.436.9,5.7,5.7,0,0,1,.053.769h-2.564a4.11,4.11,0,0,0,.172,1.21,1.065,1.065,0,0,0,1.083.646,1.053,1.053,0,0,0,.741-.26.83.83,0,0,0,.3-.634,1.793,1.793,0,0,0-.039-.357l.37.084v.012Zm-.727-.908q-.019-1.692-.873-1.69a.914.914,0,0,0-.9.769,4.452,4.452,0,0,0-.119.921Z" transform="translate(16322 14135)" fill="#8f7224"/>
    <path id="Path_145892" data-name="Path 145892" d="M1558.834,185.713a3.5,3.5,0,0,1-.647.081.973.973,0,0,1-.6-.149.669.669,0,0,1-.184-.51,1.275,1.275,0,0,1-1.2.685,1.346,1.346,0,0,1-.938-.313,1.066,1.066,0,0,1-.33-.825.935.935,0,0,1,.33-.785,2.5,2.5,0,0,1,.9-.384,5.513,5.513,0,0,0,.621-.181,1.112,1.112,0,0,0,.529-.314.609.609,0,0,0,.079-.33.685.685,0,0,0-.251-.566,1.056,1.056,0,0,0-.687-.206,1.081,1.081,0,0,0-.661.206.6.6,0,0,0-.291.511,1.242,1.242,0,0,0,.132.467l-.436-.082a1.437,1.437,0,0,1-.053-.318.775.775,0,0,1,.489-.7,2.005,2.005,0,0,1,.979-.221,2.247,2.247,0,0,1,.964.179.713.713,0,0,1,.476.66v2.406c0,.374.146.551.423.551a1.014,1.014,0,0,0,.3-.067Zm-1.454-1.213v-1.318a1.377,1.377,0,0,1-.529.331c-.171.067-.343.135-.528.19a.976.976,0,0,0-.424.319,1.128,1.128,0,0,0-.224.7,1.241,1.241,0,0,0,.145.6.592.592,0,0,0,.555.318.869.869,0,0,0,.754-.386,1.244,1.244,0,0,0,.251-.759" transform="translate(16322 14135)" fill="#8f7224"/>
    <path id="Path_145893" data-name="Path 145893" d="M1559.971,185.725h-.674v-5.213a5.718,5.718,0,0,0,.674-.067Z" transform="translate(16322 14135)" fill="#8f7224"/>
    <path id="Path_145894" data-name="Path 145894" d="M1562.562,185.327c-.066.3-.291.454-.674.454-.45,0-.688-.207-.688-.6v-3.055h-.409v-.233h.409v-.647a3.9,3.9,0,0,0,.688-.315v.962h.515v.233h-.515V185.2c0,.247.079.371.237.371s.212-.082.225-.232h.212Z" transform="translate(16322 14135)" fill="#8f7224"/>
    <path id="Path_145895" data-name="Path 145895" d="M1566.647,185.725h-.687v-3.081c0-.426-.2-.632-.609-.632a1.244,1.244,0,0,0-1.057.648,1.329,1.329,0,0,0-.264.7v2.35h-.688V180.5a3.211,3.211,0,0,0,.688-.082v2.408a1.88,1.88,0,0,1,.687-.812,1.558,1.558,0,0,1,.859-.233,1.264,1.264,0,0,1,.78.218.751.751,0,0,1,.3.621v3.107Z" transform="translate(16322 14135)" fill="#8f7224"/>
    <path id="Path_145896" data-name="Path 145896" d="M1532.662,174.71c.435,0,.555-.138.555-.579v-1.25a2.415,2.415,0,0,0-.436-1.666,1.914,1.914,0,0,0-1.428-.769c-1.864,0-3.781,2.448-3.926,4.277h5.235Zm30.507-.689a2.176,2.176,0,0,0,1.521.839c.092.016.476.027.568.042a.776.776,0,0,1-.555.66l-.264-.042a2.614,2.614,0,0,1-1.124-.356,2.494,2.494,0,0,1-1.229-2.45,3.318,3.318,0,0,1,3.357-3.2h.886v7.029a1.675,1.675,0,0,1-.265,1.211,2.1,2.1,0,0,1-.859.631,4.4,4.4,0,0,1-1.48.084v-.772h1.044a.706.706,0,0,0,.7-.77v-.646h-.014v-5.928h-.383a1.7,1.7,0,0,0-1.216.524,3.323,3.323,0,0,0-.74.975,2.882,2.882,0,0,0,.052,2.173m-3.991,2.875a.724.724,0,0,1-.74.771H1557.3v.769a5.082,5.082,0,0,0,1.586-.083,2.276,2.276,0,0,0,.925-.632,1.568,1.568,0,0,0,.291-1.211V169.5h-.938v7.4Zm-3.622-1.417h.886v-9.71h-.886Zm-9.438-1.458a3.067,3.067,0,0,0,2.472.9v-4.609h-.41a1.917,1.917,0,0,0-1.322.524,3.368,3.368,0,0,0-.806.975,2.747,2.747,0,0,0,.066,2.214m3.436-4.5h-.964a3.485,3.485,0,0,0-3.649,3.2,2.427,2.427,0,0,0,1.349,2.448,8.366,8.366,0,0,0,3.264.551c-.012-2.062,0-4.138,0-6.2m-9.6,5.955h.886V165.77h-.886c-.013,3.245,0,6.478,0,9.709m19.748-8.788a.73.73,0,1,1-.7.73.72.72,0,0,1,.7-.73m-12.8,0a.73.73,0,1,1-.7.73.729.729,0,0,1,.7-.73m1.956,0a.73.73,0,1,1-.7.73.729.729,0,0,1,.7-.73m-39.219,0a.73.73,0,1,1-.7.73.729.729,0,0,1,.7-.73m1.957,0a.73.73,0,1,1-.7.73.729.729,0,0,1,.7-.73m40.659,10.205a.724.724,0,0,1-.74.771H1550.4v.769a5.087,5.087,0,0,0,1.587-.083,2.283,2.283,0,0,0,.925-.632,1.563,1.563,0,0,0,.291-1.211V169.5h-.939Zm-43.29-3.054a3.015,3.015,0,0,0,2.406.868v-4.471h-.41a1.877,1.877,0,0,0-1.282.511,3.022,3.022,0,0,0-.78.947,2.754,2.754,0,0,0,.066,2.145m27.653,1.06h-2.458v-1.938a4.262,4.262,0,0,0-.146-1.128,2.874,2.874,0,0,0-.753-1.349,2.742,2.742,0,0,0-3.2-.4c-2.062.919-2.512,3.08-3.252,4.1a1.6,1.6,0,0,1-.33.344v-2.915h-.886v3.108h-2.274a7.623,7.623,0,0,0-.33-2.531,3.125,3.125,0,0,0-1.573-1.664,7.98,7.98,0,0,0-3.186-.688c-.859-.027-1.731.029-2.578.029v.727h1.3c1.493,0,3.173-.176,4.388.993a2.666,2.666,0,0,1,.847,1.841c.013.165.013.33.013.509v.784h-9.9v-5.24h-.938a3.388,3.388,0,0,0-3.543,3.108,2.136,2.136,0,0,0,.846,2.078,3.116,3.116,0,0,0,1.137.59,2.306,2.306,0,0,0,1.071-.042l.423-.068.052.357h26.133V165.8h-.885v9.1Z" transform="translate(16322 14135)" fill="#05ab5e" fill-rule="evenodd"/>
  </g>
</svg>
