<svg xmlns="http://www.w3.org/2000/svg" width="67.744" height="46.242" viewBox="0 0 67.744 46.242">
  <g id="Client_76" transform="translate(-16584.523 -14818.35)">
    <path id="Path_140776" data-name="Path 140776" d="M315.2,714.727H301.694v-6.165H315.2a2.533,2.533,0,0,1,1.922.846c1.271,1.408,1,5.319-1.922,5.319m-15.353,1.66h14.874c2.617,0,5.076-1.607,5.076-4.465a4.483,4.483,0,0,0-1.023-3.337l-.275-.325c-.078-.076-.216-.2-.312-.287a5.263,5.263,0,0,0-3.369-1.146H299.852s-.005.266-.005.4" transform="translate(16322 14135)" fill="#191c27" fill-rule="evenodd"/>
    <path id="Path_140777" data-name="Path 140777" d="M293.626,724.665H281.671v-3.13h12.442a1.6,1.6,0,0,1,1.749,1.612c0,1.288-1.007,1.518-2.236,1.518m2.625.909a1.916,1.916,0,0,0,.947-.834,1.612,1.612,0,0,0,.222-.376c.78-1.74-.288-4.346-2.627-4.346H279.922v9.574h1.749v-3.411H294.7l.855,1.638c.327.546.694,1.211.979,1.773.63-.019,1.29,0,2.034,0" transform="translate(16322 14135)" fill="#191c27" fill-rule="evenodd"/>
    <path id="Path_140778" data-name="Path 140778" d="M291.685,706.828h-1.859v9.561s.481,0,.785,0c.6-.005,1.07,0,1.07,0s0-.529,0-1.354V710.1l4.269,6.286h1.869v-9.561h-1.869v6.447" transform="translate(16322 14135)" fill="#191c27" fill-rule="evenodd"/>
    <path id="Path_140779" data-name="Path 140779" d="M270.493,707.226v9.162h1.847v-3.1h4.179v3.1h1.847v-9.559h-1.847v4.815H272.34v-4.815h-1.847Z" transform="translate(16322 14135)" fill="#191c27" fill-rule="evenodd"/>
    <path id="Path_140780" data-name="Path 140780" d="M285.753,713.493h-3.2c.27-.992.2-.725.319-1.135.154-.5.786-2.544.934-3.014l.236-.716m-4.312,7.759h1.743c.129-.437.284-.9.439-1.353h4.33c.176.473.326.915.492,1.353h1.849c-.271-.736-1.517-4.222-1.728-4.772l-1.793-4.788h-1.847c-.27.725-.6,1.621-.9,2.413-.312.826-.563,1.535-.875,2.362-.235.621-1.251,3.512-1.709,4.785" transform="translate(16322 14135)" fill="#191c27" fill-rule="evenodd"/>
    <path id="Path_140781" data-name="Path 140781" d="M305.14,726.738h-3.2c.271-.975.2-.715.321-1.12.153-.493.785-2.5.933-2.964l.236-.705m-4.311,7.637h1.743c.129-.431.284-.883.439-1.331h4.329c.176.465.325.9.492,1.331h1.849c-.271-.727-1.516-4.155-1.727-4.7l-1.776-4.868h-1.847c-.271.713-.62,1.752-.919,2.529-.312.814-.562,1.514-.875,2.326-.234.612-1.251,3.457-1.708,4.711" transform="translate(16322 14135)" fill="#191c27" fill-rule="evenodd"/>
    <path id="Path_140782" data-name="Path 140782" d="M278.172,720.719a6.069,6.069,0,0,0-3.931-.55,4.6,4.6,0,0,0-3.65,4.6c0,3.982,3.336,5.68,6.962,4.412.333-.14.414-.153.626-.241-.134-.651-.185-.933-.338-1.621-2.436,1.341-5.112.5-5.306-2.146a3,3,0,0,1,.75-2.555,3.685,3.685,0,0,1,4.072-.439,3.822,3.822,0,0,1,.484.251" transform="translate(16322 14135)" fill="#191c27" fill-rule="evenodd"/>
    <path id="Path_140783" data-name="Path 140783" d="M311.094,721.636h3.917v-1.617h-5.735v9.567h1.847" transform="translate(16322 14135)" fill="#191c27" fill-rule="evenodd"/>
    <path id="Path_140784" data-name="Path 140784" d="M316.079,721.379v.26s2.728-.012,2.819,0v7.947h1.847v-7.947h2.818v-1.626h-7.484Z" transform="translate(16322 14135)" fill="#191c27" fill-rule="evenodd"/>
    <path id="Path_140785" data-name="Path 140785" d="M275.852,692.028c.878-.905,1.846-1.979,2.664-2.893h-2.495l-.138.005h-.031v2.888" transform="translate(16322 14135)" fill="#802d5e" fill-rule="evenodd"/>
    <path id="Path_140786" data-name="Path 140786" d="M278.516,694.919c.878-.905,1.846-1.978,2.664-2.892h-2.495l-.138.006h-.031v2.886" transform="translate(16322 14135)" fill="#802d5e" fill-rule="evenodd"/>
    <path id="Path_140787" data-name="Path 140787" d="M265.188,692.028c-.878.906-1.846,1.98-2.664,2.894h2.5l.138-.006h.031v-2.888" transform="translate(16322 14135)" fill="#b2435d" fill-rule="evenodd"/>
    <path id="Path_140788" data-name="Path 140788" d="M273.185,683.35c-.878.907-1.846,1.98-2.664,2.894h2.495l.138-.005h.031V683.35" transform="translate(16322 14135)" fill="#b2435d" fill-rule="evenodd"/>
    <path id="Path_140789" data-name="Path 140789" d="M270.521,703.6c.878-.9,1.846-1.979,2.664-2.893H270.69l-.138.005h-.031V703.6" transform="translate(16322 14135)" fill="#812e60" fill-rule="evenodd"/>
    <path id="Path_140790" data-name="Path 140790" d="M278.516,689.135c-.836.928-1.646,1.82-2.664,2.894h2.664" transform="translate(16322 14135)" fill="#b0445d" fill-rule="evenodd"/>
    <path id="Path_140791" data-name="Path 140791" d="M275.852,694.919c.878-.905,1.846-1.978,2.664-2.892h-2.495l-.138.006h-.031v2.886" transform="translate(16322 14135)" fill="#802d5e" fill-rule="evenodd"/>
    <path id="Path_140792" data-name="Path 140792" d="M278.516,692.028c-.836.927-1.646,1.82-2.664,2.894h2.664" transform="translate(16322 14135)" fill="#b0445d" fill-rule="evenodd"/>
    <path id="Path_140793" data-name="Path 140793" d="M275.852,697.812c.878-.905,1.846-1.979,2.664-2.893h-2.495l-.138.006h-.031v2.887" transform="translate(16322 14135)" fill="#802d5e" fill-rule="evenodd"/>
    <path id="Path_140794" data-name="Path 140794" d="M278.516,694.919c-.836.929-1.646,1.822-2.664,2.9h2.664" transform="translate(16322 14135)" fill="#b0445d" fill-rule="evenodd"/>
    <path id="Path_140795" data-name="Path 140795" d="M265.19,692.028c.878-.905,1.846-1.979,2.664-2.893h-2.495l-.138.005h-.031v2.888" transform="translate(16322 14135)" fill="#802d5e" fill-rule="evenodd"/>
    <path id="Path_140796" data-name="Path 140796" d="M267.854,689.135c-.836.928-1.646,1.82-2.665,2.894h2.665" transform="translate(16322 14135)" fill="#b0445d" fill-rule="evenodd"/>
    <path id="Path_140797" data-name="Path 140797" d="M265.19,694.919c.878-.905,1.846-1.978,2.664-2.892h-2.495l-.138.006h-.031v2.886" transform="translate(16322 14135)" fill="#802d5e" fill-rule="evenodd"/>
    <path id="Path_140798" data-name="Path 140798" d="M267.854,692.028c-.836.927-1.646,1.82-2.665,2.894h2.665" transform="translate(16322 14135)" fill="#b0445d" fill-rule="evenodd"/>
    <path id="Path_140799" data-name="Path 140799" d="M265.19,697.812c.878-.905,1.846-1.979,2.664-2.893h-2.495l-.138.006h-.031v2.887" transform="translate(16322 14135)" fill="#802d5e" fill-rule="evenodd"/>
    <path id="Path_140800" data-name="Path 140800" d="M267.854,694.919c-.836.929-1.646,1.822-2.665,2.9h2.665" transform="translate(16322 14135)" fill="#b0445d" fill-rule="evenodd"/>
    <path id="Path_140801" data-name="Path 140801" d="M273.186,692.028c.878-.905,1.846-1.979,2.664-2.893h-2.495l-.138.005h-.031v2.888" transform="translate(16322 14135)" fill="#f06a62" fill-rule="evenodd"/>
    <path id="Path_140802" data-name="Path 140802" d="M275.851,689.135c-.836.928-1.646,1.82-2.664,2.894h2.664" transform="translate(16322 14135)" fill="#f4995f" fill-rule="evenodd"/>
    <path id="Path_140803" data-name="Path 140803" d="M273.186,689.135c.878-.905,1.846-1.979,2.664-2.893h-2.495l-.138.005h-.031v2.888" transform="translate(16322 14135)" fill="#802d5e" fill-rule="evenodd"/>
    <path id="Path_140804" data-name="Path 140804" d="M275.851,686.243c-.836.928-1.646,1.82-2.664,2.894h2.664" transform="translate(16322 14135)" fill="#b0445d" fill-rule="evenodd"/>
    <path id="Path_140805" data-name="Path 140805" d="M273.186,700.705c.878-.905,1.846-1.979,2.664-2.893h-2.495l-.138.005h-.031v2.888" transform="translate(16322 14135)" fill="#802d5e" fill-rule="evenodd"/>
    <path id="Path_140806" data-name="Path 140806" d="M275.851,697.812c-.836.928-1.646,1.821-2.664,2.894h2.664" transform="translate(16322 14135)" fill="#b0445d" fill-rule="evenodd"/>
    <path id="Path_140807" data-name="Path 140807" d="M273.186,694.919c.878-.905,1.846-1.978,2.664-2.892h-2.495l-.138.006h-.031v2.886" transform="translate(16322 14135)" fill="#f06a62" fill-rule="evenodd"/>
    <path id="Path_140808" data-name="Path 140808" d="M275.851,692.028c-.836.927-1.646,1.82-2.664,2.894h2.664" transform="translate(16322 14135)" fill="#f4995f" fill-rule="evenodd"/>
    <path id="Path_140809" data-name="Path 140809" d="M273.186,697.812c.878-.905,1.846-1.979,2.664-2.893h-2.495l-.138.006h-.031v2.887" transform="translate(16322 14135)" fill="#f06a62" fill-rule="evenodd"/>
    <path id="Path_140810" data-name="Path 140810" d="M275.851,694.919c-.836.929-1.646,1.822-2.664,2.9h2.664" transform="translate(16322 14135)" fill="#f4995f" fill-rule="evenodd"/>
    <path id="Path_140811" data-name="Path 140811" d="M270.521,692.028c.878-.905,1.846-1.979,2.665-2.893h-2.5l-.138.005h-.031v2.888" transform="translate(16322 14135)" fill="#802d5e" fill-rule="evenodd"/>
    <path id="Path_140812" data-name="Path 140812" d="M273.185,689.135c-.836.928-1.646,1.82-2.664,2.894h2.664" transform="translate(16322 14135)" fill="#b0445d" fill-rule="evenodd"/>
    <path id="Path_140813" data-name="Path 140813" d="M270.521,689.135c.878-.905,1.846-1.979,2.665-2.893h-2.5l-.138.005h-.031v2.888" transform="translate(16322 14135)" fill="#802d5e" fill-rule="evenodd"/>
    <path id="Path_140814" data-name="Path 140814" d="M273.185,686.243c-.836.928-1.646,1.82-2.664,2.894h2.664" transform="translate(16322 14135)" fill="#b0445d" fill-rule="evenodd"/>
    <path id="Path_140815" data-name="Path 140815" d="M270.521,700.705c.878-.905,1.846-1.979,2.665-2.893h-2.5l-.138.005h-.031v2.888" transform="translate(16322 14135)" fill="#802d5e" fill-rule="evenodd"/>
    <path id="Path_140816" data-name="Path 140816" d="M273.185,697.812c-.836.928-1.646,1.821-2.664,2.894h2.664" transform="translate(16322 14135)" fill="#b0445d" fill-rule="evenodd"/>
    <path id="Path_140817" data-name="Path 140817" d="M270.521,694.919c.878-.905,1.846-1.978,2.665-2.892h-2.5l-.138.006h-.031v2.886" transform="translate(16322 14135)" fill="#f06a62" fill-rule="evenodd"/>
    <path id="Path_140818" data-name="Path 140818" d="M273.185,692.028c-.836.927-1.646,1.82-2.664,2.894h2.664" transform="translate(16322 14135)" fill="#f4995f" fill-rule="evenodd"/>
    <path id="Path_140819" data-name="Path 140819" d="M270.521,697.812c.878-.905,1.846-1.979,2.665-2.893h-2.5l-.138.006h-.031v2.887" transform="translate(16322 14135)" fill="#802d5e" fill-rule="evenodd"/>
    <path id="Path_140820" data-name="Path 140820" d="M273.185,694.919c-.836.929-1.646,1.822-2.664,2.9h2.664" transform="translate(16322 14135)" fill="#b0445d" fill-rule="evenodd"/>
    <path id="Path_140821" data-name="Path 140821" d="M267.855,692.028c.878-.905,1.846-1.979,2.664-2.893h-2.5l-.138.005h-.031v2.888" transform="translate(16322 14135)" fill="#f06a62" fill-rule="evenodd"/>
    <path id="Path_140822" data-name="Path 140822" d="M270.519,689.135c-.836.928-1.646,1.82-2.664,2.894h2.664" transform="translate(16322 14135)" fill="#f4995f" fill-rule="evenodd"/>
    <path id="Path_140823" data-name="Path 140823" d="M267.855,689.135c.878-.905,1.846-1.979,2.664-2.893h-2.5l-.138.005h-.031v2.888" transform="translate(16322 14135)" fill="#802d5e" fill-rule="evenodd"/>
    <path id="Path_140824" data-name="Path 140824" d="M270.519,686.243c-.836.928-1.646,1.82-2.664,2.894h2.664" transform="translate(16322 14135)" fill="#b0445d" fill-rule="evenodd"/>
    <path id="Path_140825" data-name="Path 140825" d="M267.855,700.705c.878-.905,1.846-1.979,2.664-2.893h-2.5l-.138.005h-.031v2.888" transform="translate(16322 14135)" fill="#802d5e" fill-rule="evenodd"/>
    <path id="Path_140826" data-name="Path 140826" d="M270.519,697.812c-.836.928-1.646,1.821-2.664,2.894h2.664" transform="translate(16322 14135)" fill="#b0445d" fill-rule="evenodd"/>
    <path id="Path_140827" data-name="Path 140827" d="M267.855,694.919c.878-.905,1.846-1.978,2.664-2.892h-2.5l-.138.006h-.031v2.886" transform="translate(16322 14135)" fill="#f06a62" fill-rule="evenodd"/>
    <path id="Path_140828" data-name="Path 140828" d="M270.519,692.028c-.836.927-1.646,1.82-2.664,2.894h2.664" transform="translate(16322 14135)" fill="#f4995f" fill-rule="evenodd"/>
    <path id="Path_140829" data-name="Path 140829" d="M267.855,697.812c.878-.905,1.846-1.979,2.664-2.893h-2.5l-.138.006h-.031v2.887" transform="translate(16322 14135)" fill="#f06a62" fill-rule="evenodd"/>
    <path id="Path_140830" data-name="Path 140830" d="M270.519,694.919c-.836.929-1.646,1.822-2.664,2.9h2.664" transform="translate(16322 14135)" fill="#f4995f" fill-rule="evenodd"/>
    <path id="Path_140831" data-name="Path 140831" d="M279.389,697.537v-.62h.253c.1,0,.168.009.208.076a.189.189,0,0,1-.013.213.2.2,0,0,1-.118.059c.075.045.088.076.206.272h-.144c-.174-.268-.149-.259-.271-.259v.259Zm.121-.358c.167,0,.2.006.23-.032a.093.093,0,0,0,0-.1.066.066,0,0,0-.046-.023c-.01,0-.039,0-.088,0h-.093Zm.148.634a.586.586,0,1,1,.561-.585.574.574,0,0,1-.561.585m0-1.1a.514.514,0,1,0,.493.515.5.5,0,0,0-.493-.515" transform="translate(16322 14135)" fill="#b2435d"/>
    <path id="Path_140832" data-name="Path 140832" d="M324.153,729.009a5.622,5.622,0,0,0,2.522.577c2.443,0,3.592-1.333,3.592-2.886,0-1.3-.739-2.157-2.311-2.76-1.149-.453-1.651-.715-1.651-1.306,0-.48.423-.894,1.3-.894a4.072,4.072,0,0,1,1.861.441l.449-1.691a5.3,5.3,0,0,0-2.271-.453c-2.1,0-3.367,1.2-3.367,2.776,0,1.345.964,2.2,2.443,2.733,1.069.4,1.492.73,1.492,1.307,0,.6-.489,1-1.413,1a4.972,4.972,0,0,1-2.232-.577Z" transform="translate(16322 14135)" fill="#161b27" fill-rule="evenodd"/>
  </g>
</svg>
