<svg xmlns="http://www.w3.org/2000/svg" width="51.105" height="65.232" viewBox="0 0 51.105 65.232">
  <g id="Client_21" transform="translate(-17914.26 -14379.039)">
    <path id="Path_141233" data-name="Path 141233" d="M1635.39,262.319c0,9.921-7.73,17.963-17.265,17.963s-17.265-8.042-17.265-17.963,7.729-17.964,17.265-17.964,17.265,8.043,17.265,17.964" transform="translate(16322 14135)" fill="#fff"/>
    <path id="Path_141234" data-name="Path 141234" d="M1635.39,262.319c0,9.921-7.73,17.963-17.265,17.963s-17.265-8.042-17.265-17.963,7.729-17.964,17.265-17.964S1635.39,252.4,1635.39,262.319Z" transform="translate(16322 14135)" fill="none" stroke="#767a7c" stroke-miterlimit="10" stroke-width="0.631"/>
    <path id="Path_141235" data-name="Path 141235" d="M1617.275,262l1.071-9.171,1.07,9.171-1.07,1.112Z" transform="translate(16322 14135)" fill="#767a7e"/>
    <path id="Path_141236" data-name="Path 141236" d="M1617.275,262l1.069-9.163,0,10.275Z" transform="translate(16322 14135)" fill="#767a7e"/>
    <path id="Path_141237" data-name="Path 141237" d="M1617.286,264.235l-8.825-1.118,8.814-1.113,1.07,1.111Z" transform="translate(16322 14135)" fill="#767a7e"/>
    <path id="Path_141238" data-name="Path 141238" d="M1617.275,264.23l-8.814-1.112,9.885,0Z" transform="translate(16322 14135)" fill="#767a7e"/>
    <path id="Path_141239" data-name="Path 141239" d="M1619.416,264.23l-1.071,9.171-1.071-9.171,1.071-1.114Z" transform="translate(16322 14135)" fill="#767a7e"/>
    <path id="Path_141240" data-name="Path 141240" d="M1619.416,264.23l-1.07,9.163V263.117Z" transform="translate(16322 14135)" fill="#767a7e"/>
    <path id="Path_141241" data-name="Path 141241" d="M1619.416,262l8.814,1.113-8.814,1.116-1.071-1.117Z" transform="translate(16322 14135)" fill="#767a7e"/>
    <path id="Path_141242" data-name="Path 141242" d="M1619.416,262l8.806,1.112h-9.877Z" transform="translate(16322 14135)" fill="#767a7e"/>
    <path id="Path_141243" data-name="Path 141243" d="M1617.508,263.116l-3.032-4.025,3.87,3.153v.872Z" transform="translate(16322 14135)" fill="#767a7e"/>
    <path id="Path_141244" data-name="Path 141244" d="M1617.508,263.116l-3.029-4.021,3.867,4.021Z" transform="translate(16322 14135)" fill="#767a7e"/>
    <path id="Path_141245" data-name="Path 141245" d="M1618.352,263.985l-3.876,3.157,3.032-4.026h.837Z" transform="translate(16322 14135)" fill="#767a7e"/>
    <path id="Path_141246" data-name="Path 141246" d="M1618.346,263.988l-3.87,3.154,3.869-4.025Z" transform="translate(16322 14135)" fill="#767a7e"/>
    <path id="Path_141247" data-name="Path 141247" d="M1619.184,263.116l3.031,4.026-3.869-3.153v-.873Z" transform="translate(16322 14135)" fill="#767a7e"/>
    <path id="Path_141248" data-name="Path 141248" d="M1619.184,263.116l3.029,4.023-3.867-4.023Z" transform="translate(16322 14135)" fill="#767a7e"/>
    <path id="Path_141249" data-name="Path 141249" d="M1618.346,262.244l3.869-3.152-3.031,4.024h-.839Z" transform="translate(16322 14135)" fill="#767a7e"/>
    <path id="Path_141250" data-name="Path 141250" d="M1618.346,262.244l3.866-3.15-3.867,4.022Z" transform="translate(16322 14135)" fill="#767a7e"/>
    <path id="Path_141251" data-name="Path 141251" d="M1634.594,260.291a2.376,2.376,0,0,0-1.474-.519,2.412,2.412,0,0,0-1.57.585,14.338,14.338,0,0,0-1.206-4.1c-.173-.367-.354-.727-.553-1.075a13.567,13.567,0,0,0-9.753-6.759,2.622,2.622,0,0,0,.1-3.16,16.445,16.445,0,0,1,11.367,6.912,17.318,17.318,0,0,1,2.458,5.046,17.881,17.881,0,0,1,.631,3.075" transform="translate(16322 14135)" fill="#f59031"/>
    <path id="Path_141252" data-name="Path 141252" d="M1616.256,248.422a13.814,13.814,0,0,0-11.489,11.878,2.4,2.4,0,0,0-1.656-.669,2.358,2.358,0,0,0-1.369.435,16.91,16.91,0,0,1,14.414-14.811,2.653,2.653,0,0,0,.1,3.167" transform="translate(16322 14135)" fill="#f59031"/>
    <path id="Path_141253" data-name="Path 141253" d="M1634.6,264.4a16.907,16.907,0,0,1-14.64,15.1,2.644,2.644,0,0,0,.2-3.2,13.834,13.834,0,0,0,11.4-11.958,2.379,2.379,0,0,0,3.046.062" transform="translate(16322 14135)" fill="#f59031"/>
    <path id="Path_141254" data-name="Path 141254" d="M1616.313,279.488a16.5,16.5,0,0,1-12.186-7.954,17.609,17.609,0,0,1-2.43-7.225,2.384,2.384,0,0,0,3.033-.171,14.408,14.408,0,0,0,1.041,3.91,13.66,13.66,0,0,0,10.351,8.241,2.633,2.633,0,0,0,.191,3.2" transform="translate(16322 14135)" fill="#f59031"/>
    <path id="Path_141255" data-name="Path 141255" d="M1602.542,264.02l-1.089-2.579-.093-.216a.4.4,0,0,0-.141-.167.388.388,0,0,0-.184-.04H1601v-.2h1.182v.2c-.09.01-.141.038-.157.084a.367.367,0,0,0,.042.224l.825,1.938.285-.658-.526-1.246a1.5,1.5,0,0,0-.112-.226.24.24,0,0,0-.191-.116v-.2h1.953v.2a.351.351,0,0,0-.235.155,2.147,2.147,0,0,0-.1.213l-.324.745.468,1.072.614-1.762a.443.443,0,0,0,.028-.315c-.032-.071-.112-.106-.242-.108v-.2h.9v.2a.374.374,0,0,0-.28.142,1.045,1.045,0,0,0-.153.31l-.9,2.55h-.289l-.477-1.1-.464,1.1h-.3m.958-2.2.255-.569c.038-.085.049-.144.032-.177s-.075-.055-.172-.055h-.239c-.086,0-.137.019-.155.051a.216.216,0,0,0,.025.17Z" transform="translate(16322 14135)" fill="#767a7e"/>
    <path id="Path_141256" data-name="Path 141256" d="M1617.247,279.321l-.12-.917h.189c.158.5.434.754.826.754a.545.545,0,0,0,.489-.239.471.471,0,0,0,.07-.25.6.6,0,0,0-.269-.472,4.642,4.642,0,0,0-.488-.291,2.4,2.4,0,0,1-.543-.364.817.817,0,0,1-.251-.6.73.73,0,0,1,.168-.482.874.874,0,0,1,.42-.279,1.263,1.263,0,0,1,.394-.058,1.644,1.644,0,0,1,.427.051c.193.054.3.082.307.082a.147.147,0,0,0,.106-.057h.1l.092.814h-.193a.927.927,0,0,0-.283-.479.729.729,0,0,0-.505-.2.59.59,0,0,0-.309.083.3.3,0,0,0-.163.266.505.505,0,0,0,.261.4c.147.082.294.164.443.244a2.908,2.908,0,0,1,.639.465.936.936,0,0,1,.276.667.861.861,0,0,1-.515.809,1.1,1.1,0,0,1-.516.125,1.878,1.878,0,0,1-.47-.08,2.233,2.233,0,0,0-.356-.081.109.109,0,0,0-.1.081h-.125" transform="translate(16322 14135)" fill="#767a7e"/>
    <path id="Path_141257" data-name="Path 141257" d="M1634.345,261.452a1.127,1.127,0,0,0-.074-.329.265.265,0,0,0-.254-.145h-1.048v1.186h.775a.374.374,0,0,0,.276-.085.418.418,0,0,0,.083-.3h.191v1.05h-.191c0-.19-.052-.305-.155-.346a.834.834,0,0,0-.277-.036h-.7v.949a.49.49,0,0,0,.027.2.146.146,0,0,0,.15.076h.8a.5.5,0,0,0,.383-.128.848.848,0,0,0,.168-.409h.179l-.056.828h-2.875v-.2h.195a.332.332,0,0,0,.374-.378v-2.1a.382.382,0,0,0-.106-.315.515.515,0,0,0-.312-.071h-.046v-.207h2.63l.05.765h-.183" transform="translate(16322 14135)" fill="#767a7e"/>
    <path id="Path_141258" data-name="Path 141258" d="M1615.5,249.066l.242,1.178-.052.012-.24-1.18.05-.01m5.463,26.734-.052.013-.24-1.181.051-.012Z" transform="translate(16322 14135)" fill="#767a7e"/>
    <path id="Path_141259" data-name="Path 141259" d="M1615.05,249.171l.281,1.17-.051.013-.281-1.17Zm6.356,26.521-.052.015-.28-1.17.052-.015Z" transform="translate(16322 14135)" fill="#767a7e"/>
    <path id="Path_141260" data-name="Path 141260" d="M1614.607,249.294l.32,1.159a.354.354,0,0,1-.051.014l-.32-1.159.051-.014m7.242,26.275a.343.343,0,0,0-.051.018l-.32-1.162a.3.3,0,0,0,.051-.015Z" transform="translate(16322 14135)" fill="#767a7e"/>
    <path id="Path_141261" data-name="Path 141261" d="M1614.169,249.432l.358,1.147-.05.017-.359-1.147Zm8.118,26-.05.019-.358-1.149.05-.016Z" transform="translate(16322 14135)" fill="#767a7e"/>
    <path id="Path_141262" data-name="Path 141262" d="M1613.735,249.586l.4,1.133-.049.019-.4-1.134.051-.018m8.985,25.686-.05.02-.4-1.133.05-.02Z" transform="translate(16322 14135)" fill="#767a7e"/>
    <path id="Path_141263" data-name="Path 141263" d="M1613.307,249.756l.434,1.118-.049.021-.434-1.117Zm9.841,25.343-.049.021-.434-1.119.049-.019Z" transform="translate(16322 14135)" fill="#767a7e"/>
    <path id="Path_141264" data-name="Path 141264" d="M1612.884,249.942l.472,1.1-.049.021-.471-1.1.048-.023m10.686,24.971-.049.022-.472-1.1.049-.024Z" transform="translate(16322 14135)" fill="#767a7e"/>
    <path id="Path_141265" data-name="Path 141265" d="M1612.469,250.145l.508,1.084-.048.023-.507-1.085Zm11.516,24.564-.047.025-.508-1.083.047-.026Z" transform="translate(16322 14135)" fill="#767a7e"/>
    <path id="Path_141266" data-name="Path 141266" d="M1612.06,250.36l.544,1.066-.047.023-.543-1.063Zm12.333,24.132-.047.025-.545-1.062.048-.026Z" transform="translate(16322 14135)" fill="#767a7e"/>
    <path id="Path_141267" data-name="Path 141267" d="M1611.658,250.589l.581,1.044a.29.29,0,0,1-.047.028l-.578-1.045c.014-.007.029-.018.044-.027m13.135,23.67a.219.219,0,0,1-.045.027l-.58-1.044a.379.379,0,0,0,.046-.028Z" transform="translate(16322 14135)" fill="#767a7e"/>
    <path id="Path_141268" data-name="Path 141268" d="M1611.266,250.835l.614,1.024-.044.027-.615-1.021Zm13.92,23.176-.045.03-.614-1.021.045-.03Z" transform="translate(16322 14135)" fill="#767a7e"/>
    <path id="Path_141269" data-name="Path 141269" d="M1610.881,251.1l.648,1-.044.029-.648-1Zm14.688,22.656-.044.031-.648-1,.044-.032Z" transform="translate(16322 14135)" fill="#767a7e"/>
    <path id="Path_141270" data-name="Path 141270" d="M1610.505,251.369l.682.974-.043.032-.681-.975Zm15.439,22.107-.043.033-.682-.974.044-.035Z" transform="translate(16322 14135)" fill="#767a7e"/>
    <path id="Path_141271" data-name="Path 141271" d="M1610.139,251.654l.713.95a.273.273,0,0,1-.042.033l-.713-.95c.014-.011.028-.02.042-.033m16.171,21.535a.448.448,0,0,1-.043.033l-.713-.949.042-.033Z" transform="translate(16322 14135)" fill="#767a7e"/>
    <path id="Path_141272" data-name="Path 141272" d="M1609.783,251.954l.745.923-.041.036-.745-.922Zm16.882,20.933-.041.035-.744-.923.04-.035Z" transform="translate(16322 14135)" fill="#767a7e"/>
    <path id="Path_141273" data-name="Path 141273" d="M1609.436,252.267l.775.9-.04.035-.775-.9.04-.036m17.574,20.307c-.013.014-.027.024-.041.037l-.774-.895.039-.038Z" transform="translate(16322 14135)" fill="#767a7e"/>
    <path id="Path_141274" data-name="Path 141274" d="M1609.1,252.592l.805.867-.039.038-.8-.866c.013-.014.026-.028.038-.039m18.244,19.656-.038.039-.805-.866.038-.039Z" transform="translate(16322 14135)" fill="#767a7e"/>
    <path id="Path_141275" data-name="Path 141275" d="M1608.776,252.929l.833.835-.038.042-.832-.838.037-.039m18.892,18.981c-.012.015-.025.026-.037.04l-.834-.838a.438.438,0,0,0,.037-.039Z" transform="translate(16322 14135)" fill="#767a7e"/>
    <path id="Path_141276" data-name="Path 141276" d="M1608.462,253.277l.861.805-.036.042-.86-.806.035-.041m19.518,18.284c-.012.015-.024.027-.035.04l-.861-.807.035-.04Z" transform="translate(16322 14135)" fill="#767a7e"/>
    <path id="Path_141277" data-name="Path 141277" d="M1608.161,253.636l.888.774-.035.042-.887-.774ZM1628.28,271.2l-.034.043-.888-.774.035-.042Z" transform="translate(16322 14135)" fill="#767a7e"/>
    <path id="Path_141278" data-name="Path 141278" d="M1607.87,254.006l.913.741c-.01.016-.021.029-.032.045l-.913-.742a.419.419,0,0,1,.032-.044m20.7,16.824a.375.375,0,0,1-.033.043l-.913-.741c.012-.015.022-.031.033-.043Z" transform="translate(16322 14135)" fill="#767a7e"/>
    <path id="Path_141279" data-name="Path 141279" d="M1607.594,254.386l.937.708-.031.044-.937-.709Zm21.25,16.062-.033.044-.937-.708.032-.045Z" transform="translate(16322 14135)" fill="#767a7e"/>
    <path id="Path_141280" data-name="Path 141280" d="M1607.33,254.775l.961.674-.03.045-.96-.673Zm21.777,15.282-.03.046-.961-.675.03-.046Z" transform="translate(16322 14135)" fill="#767a7e"/>
    <path id="Path_141281" data-name="Path 141281" d="M1607.08,255.175l.983.637-.028.047-.984-.639Zm22.275,14.482-.028.046-.982-.639.028-.047Z" transform="translate(16322 14135)" fill="#767a7e"/>
    <path id="Path_141282" data-name="Path 141282" d="M1606.841,255.582l1,.6a.5.5,0,0,1-.027.047l-1-.6c.009-.017.019-.031.027-.048m22.751,13.666c-.009.018-.018.031-.028.048l-1-.6c.008-.014.018-.031.026-.047Z" transform="translate(16322 14135)" fill="#767a7e"/>
    <path id="Path_141283" data-name="Path 141283" d="M1606.618,256l1.024.565-.025.05-1.023-.565Zm23.195,12.831-.025.051-1.024-.568.025-.048Z" transform="translate(16322 14135)" fill="#767a7e"/>
    <path id="Path_141284" data-name="Path 141284" d="M1606.409,256.424l1.042.528-.024.05-1.041-.53Zm23.612,11.981-.024.05-1.042-.529.024-.049Z" transform="translate(16322 14135)" fill="#767a7e"/>
    <path id="Path_141285" data-name="Path 141285" d="M1606.214,256.856l1.059.488c-.007.019-.014.034-.021.052l-1.059-.49.021-.05m24,11.115-.021.052-1.059-.491.021-.049Z" transform="translate(16322 14135)" fill="#767a7e"/>
    <path id="Path_141286" data-name="Path 141286" d="M1606.034,257.3l1.075.451-.02.051-1.074-.452Zm24.358,10.238-.02.053-1.074-.452.02-.052Z" transform="translate(16322 14135)" fill="#767a7e"/>
    <path id="Path_141287" data-name="Path 141287" d="M1605.868,257.738l1.089.413c-.006.017-.013.036-.018.052l-1.089-.413c.006-.016.011-.034.018-.052m24.688,9.35c-.007.018-.011.034-.018.052l-1.089-.411.018-.054Z" transform="translate(16322 14135)" fill="#767a7e"/>
    <path id="Path_141288" data-name="Path 141288" d="M1605.718,258.189l1.1.374-.015.051-1.1-.374Zm24.986,8.446-.017.054-1.1-.372.017-.054Z" transform="translate(16322 14135)" fill="#767a7e"/>
    <path id="Path_141289" data-name="Path 141289" d="M1605.583,258.645l1.115.333c-.005.016-.011.034-.015.053l-1.115-.332c.006-.019.01-.037.015-.054m25.255,7.534c-.005.02-.01.036-.015.055l-1.114-.333a.55.55,0,0,0,.014-.054Z" transform="translate(16322 14135)" fill="#767a7e"/>
    <path id="Path_141290" data-name="Path 141290" d="M1605.465,259.106l1.124.293-.012.051-1.125-.292Zm25.49,6.612-.013.055-1.124-.292.012-.055Z" transform="translate(16322 14135)" fill="#767a7e"/>
    <path id="Path_141291" data-name="Path 141291" d="M1605.361,259.57l1.134.25c-.005.02-.009.037-.012.055l-1.134-.251.012-.054m25.7,5.683-.011.056-1.134-.252.011-.054Z" transform="translate(16322 14135)" fill="#767a7e"/>
    <path id="Path_141292" data-name="Path 141292" d="M1605.273,260.038l1.141.209c0,.018-.006.036-.009.057l-1.141-.21c0-.019.005-.038.009-.056m25.871,4.747-.009.056-1.142-.21.009-.056Z" transform="translate(16322 14135)" fill="#767a7e"/>
    <path id="Path_141293" data-name="Path 141293" d="M1605.2,260.509l1.147.167-.006.056-1.149-.168Zm26.012,3.8-.008.056-1.147-.168.007-.055Z" transform="translate(16322 14135)" fill="#767a7e"/>
    <path id="Path_141294" data-name="Path 141294" d="M1605.144,260.984l1.152.126-.006.053-1.153-.126c0-.016,0-.036.007-.053m26.123,2.855c0,.02,0,.037-.006.056l-1.152-.126c0-.019,0-.035.007-.055Z" transform="translate(16322 14135)" fill="#767a7e"/>
    <path id="Path_141295" data-name="Path 141295" d="M1605.1,261.46l1.155.084,0,.053-1.156-.084Zm26.2,1.9,0,.057-1.157-.084,0-.057Z" transform="translate(16322 14135)" fill="#767a7e"/>
    <path id="Path_141296" data-name="Path 141296" d="M1605.079,261.935l1.158.042v.055l-1.158-.042Zm26.25.953,0,.056-1.158-.042v-.057Z" transform="translate(16322 14135)" fill="#767a7e"/>
    <path id="Path_141297" data-name="Path 141297" d="M1630.178,262.411v.056h1.158v-.056Zm-25.108,0v.056h1.159v-.056Z" transform="translate(16322 14135)" fill="#767a7e"/>
    <path id="Path_141298" data-name="Path 141298" d="M1605.077,262.888l1.158-.042,0,.056-1.158.043Zm26.25-.954v.056l-1.158.042v-.056Z" transform="translate(16322 14135)" fill="#767a7e"/>
    <path id="Path_141299" data-name="Path 141299" d="M1605.1,263.365l1.156-.085,0,.056-1.156.085Zm26.2-1.906,0,.056-1.156.084,0-.057Z" transform="translate(16322 14135)" fill="#767a7e"/>
    <path id="Path_141300" data-name="Path 141300" d="M1605.138,263.839l1.153-.125c0,.019,0,.038.006.054l-1.152.127c0-.017-.005-.037-.007-.056m26.125-2.856c0,.02,0,.037.006.056l-1.153.126c0-.02,0-.036-.006-.056Z" transform="translate(16322 14135)" fill="#767a7e"/>
    <path id="Path_141301" data-name="Path 141301" d="M1605.193,264.314l1.148-.167.007.053-1.148.167Zm26.012-3.8.007.056-1.147.168-.008-.056Z" transform="translate(16322 14135)" fill="#767a7e"/>
    <path id="Path_141302" data-name="Path 141302" d="M1605.263,264.784l1.141-.209.009.056-1.141.209-.009-.056m25.872-4.746.008.056-1.142.21a.542.542,0,0,0-.009-.057Z" transform="translate(16322 14135)" fill="#767a7e"/>
    <path id="Path_141303" data-name="Path 141303" d="M1605.35,265.255l1.134-.251.01.052-1.133.251-.011-.052m25.7-5.685.011.055-1.134.251a.514.514,0,0,0-.011-.055Z" transform="translate(16322 14135)" fill="#767a7e"/>
    <path id="Path_141304" data-name="Path 141304" d="M1605.452,265.718l1.125-.292.012.054-1.125.292Zm25.49-6.612.013.054-1.124.292-.014-.054Z" transform="translate(16322 14135)" fill="#767a7e"/>
    <path id="Path_141305" data-name="Path 141305" d="M1605.568,266.18l1.115-.333c0,.019.01.034.015.053l-1.115.333-.015-.053m25.255-7.535c.005.019.01.035.015.055l-1.114.331c-.005-.019-.01-.034-.016-.053Z" transform="translate(16322 14135)" fill="#767a7e"/>
    <path id="Path_141306" data-name="Path 141306" d="M1605.7,266.635l1.1-.372.016.053-1.1.372Zm24.985-8.446.016.054-1.1.372-.016-.054Z" transform="translate(16322 14135)" fill="#767a7e"/>
    <path id="Path_141307" data-name="Path 141307" d="M1605.851,267.088l1.089-.412.018.05-1.089.412c-.007-.015-.012-.034-.018-.05m24.688-9.35c.007.018.011.035.018.053l-1.09.412c-.005-.018-.011-.034-.018-.053Z" transform="translate(16322 14135)" fill="#767a7e"/>
    <path id="Path_141308" data-name="Path 141308" d="M1606.014,267.533l1.075-.452.02.051-1.075.453Zm24.359-10.239.019.052-1.074.45-.02-.051Z" transform="translate(16322 14135)" fill="#767a7e"/>
    <path id="Path_141309" data-name="Path 141309" d="M1606.193,267.973l1.059-.491c.007.018.014.033.021.051l-1.059.49c-.007-.018-.014-.033-.021-.05m24-11.118c.007.018.013.033.021.051l-1.059.49-.021-.051Z" transform="translate(16322 14135)" fill="#767a7e"/>
    <path id="Path_141310" data-name="Path 141310" d="M1606.386,268.4l1.041-.528.024.049-1.041.529ZM1630,256.422l.024.051-1.042.527-.023-.05Z" transform="translate(16322 14135)" fill="#767a7e"/>
    <path id="Path_141311" data-name="Path 141311" d="M1606.594,268.831l1.023-.566.025.048-1.023.568ZM1629.788,256l.025.05-1.023.565-.025-.049Z" transform="translate(16322 14135)" fill="#767a7e"/>
    <path id="Path_141312" data-name="Path 141312" d="M1606.815,269.248l1-.6c.009.015.018.032.027.046l-1,.6c-.009-.015-.018-.029-.027-.047m22.75-13.665c.009.017.019.031.027.048l-1,.6-.027-.045Z" transform="translate(16322 14135)" fill="#767a7e"/>
    <path id="Path_141313" data-name="Path 141313" d="M1607.051,269.656l.982-.638.028.048-.982.636Zm22.275-14.483.029.048-.983.639-.028-.046Z" transform="translate(16322 14135)" fill="#767a7e"/>
    <path id="Path_141314" data-name="Path 141314" d="M1607.3,270.057l.961-.674.029.046-.96.675Zm21.777-15.282.031.045-.962.676-.03-.046Z" transform="translate(16322 14135)" fill="#767a7e"/>
    <path id="Path_141315" data-name="Path 141315" d="M1607.563,270.447l.937-.708.031.044-.937.708Zm21.249-16.063.031.045-.937.709-.032-.044Z" transform="translate(16322 14135)" fill="#767a7e"/>
    <path id="Path_141316" data-name="Path 141316" d="M1607.838,270.83l.914-.742a.465.465,0,0,0,.032.043l-.914.742-.032-.043m20.7-16.825c.011.016.022.029.033.044l-.914.741c-.01-.014-.021-.027-.032-.043Z" transform="translate(16322 14135)" fill="#767a7e"/>
    <path id="Path_141317" data-name="Path 141317" d="M1608.127,271.2l.887-.774.035.043-.888.773Zm20.119-17.564.035.042-.888.774-.034-.042Z" transform="translate(16322 14135)" fill="#767a7e"/>
    <path id="Path_141318" data-name="Path 141318" d="M1608.427,271.56l.86-.806.035.042-.861.806Zm19.518-18.285.035.042-.861.808-.036-.041Z" transform="translate(16322 14135)" fill="#767a7e"/>
    <path id="Path_141319" data-name="Path 141319" d="M1608.739,271.909l.833-.836.037.04-.833.836a.343.343,0,0,1-.037-.04m18.892-18.982.037.04-.834.838-.037-.04Z" transform="translate(16322 14135)" fill="#767a7e"/>
    <path id="Path_141320" data-name="Path 141320" d="M1609.062,272.247l.8-.867.037.039-.8.866-.038-.038m18.244-19.656c.013.014.025.025.038.038l-.805.867c-.013-.011-.025-.026-.038-.038Z" transform="translate(16322 14135)" fill="#767a7e"/>
    <path id="Path_141321" data-name="Path 141321" d="M1609.4,272.575l.775-.9a.327.327,0,0,0,.04.036l-.775.9-.04-.037m17.574-20.308.04.036-.776.9a.33.33,0,0,0-.039-.037Z" transform="translate(16322 14135)" fill="#767a7e"/>
    <path id="Path_141322" data-name="Path 141322" d="M1609.742,272.889l.745-.924.041.035-.746.924Zm16.882-20.935.041.036-.746.924-.04-.035Z" transform="translate(16322 14135)" fill="#767a7e"/>
    <path id="Path_141323" data-name="Path 141323" d="M1610.1,273.19l.713-.951.042.034-.713.949a.375.375,0,0,1-.042-.032m16.171-21.535c.013.012.028.021.042.033l-.714.949a.309.309,0,0,1-.042-.033Z" transform="translate(16322 14135)" fill="#767a7e"/>
    <path id="Path_141324" data-name="Path 141324" d="M1610.463,273.477l.681-.974.043.031-.682.977Zm15.439-22.109.042.033-.681.976-.042-.032Z" transform="translate(16322 14135)" fill="#767a7e"/>
    <path id="Path_141325" data-name="Path 141325" d="M1610.837,273.751l.648-1,.044.031-.648,1Zm14.689-22.657.044.031-.648,1-.044-.031Z" transform="translate(16322 14135)" fill="#767a7e"/>
    <path id="Path_141326" data-name="Path 141326" d="M1611.221,274.013l.614-1.023.045.031-.615,1.021Zm13.919-23.177.045.029-.614,1.024-.045-.032Z" transform="translate(16322 14135)" fill="#767a7e"/>
    <path id="Path_141327" data-name="Path 141327" d="M1611.613,274.259l.58-1.044a.37.37,0,0,0,.045.028l-.579,1.044c-.015-.009-.03-.017-.046-.028m13.135-23.67a.275.275,0,0,0,.046.027l-.58,1.045-.045-.027Z" transform="translate(16322 14135)" fill="#767a7e"/>
    <path id="Path_141328" data-name="Path 141328" d="M1612.013,274.492l.545-1.065.046.027-.544,1.064Zm12.333-24.132.047.025-.544,1.065-.047-.026Z" transform="translate(16322 14135)" fill="#767a7e"/>
    <path id="Path_141329" data-name="Path 141329" d="M1612.422,274.709l.507-1.084.048.025-.508,1.083Zm11.516-24.566.048.024-.509,1.084-.047-.024Z" transform="translate(16322 14135)" fill="#767a7e"/>
    <path id="Path_141330" data-name="Path 141330" d="M1612.836,274.914l.472-1.1.048.024-.471,1.1c-.016-.008-.032-.014-.049-.021m10.686-24.972a.342.342,0,0,0,.048.022l-.471,1.1a.351.351,0,0,0-.049-.022Z" transform="translate(16322 14135)" fill="#767a7e"/>
    <path id="Path_141331" data-name="Path 141331" d="M1613.258,275.1l.434-1.118.049.019-.434,1.119Zm9.841-25.345.049.021-.434,1.119-.049-.022Z" transform="translate(16322 14135)" fill="#767a7e"/>
    <path id="Path_141332" data-name="Path 141332" d="M1613.685,275.273l.4-1.132.049.017-.4,1.133-.05-.018m8.986-25.687c.017.008.033.013.05.02l-.4,1.131-.049-.016Z" transform="translate(16322 14135)" fill="#767a7e"/>
    <path id="Path_141333" data-name="Path 141333" d="M1614.12,275.428l.358-1.145.049.014-.358,1.149Zm8.118-26,.049.018-.358,1.145-.049-.017Z" transform="translate(16322 14135)" fill="#767a7e"/>
    <path id="Path_141334" data-name="Path 141334" d="M1614.557,275.568l.32-1.159c.016.005.032.013.05.018l-.319,1.159-.051-.018m7.242-26.276.051.018-.32,1.159c-.017,0-.034-.013-.051-.017Z" transform="translate(16322 14135)" fill="#767a7e"/>
    <path id="Path_141335" data-name="Path 141335" d="M1615,275.692l.281-1.169.051.012-.281,1.17Zm6.355-26.521.052.014-.281,1.17-.051-.013Z" transform="translate(16322 14135)" fill="#767a7e"/>
    <path id="Path_141336" data-name="Path 141336" d="M1615.446,275.8l.241-1.178.051.01-.24,1.18-.052-.012m5.462-26.735.052.013-.241,1.178-.052-.01Z" transform="translate(16322 14135)" fill="#767a7e"/>
    <path id="Path_141337" data-name="Path 141337" d="M1615.9,275.893l.2-1.189.052.01-.2,1.189-.052-.01m4.562-26.918.053.01-.2,1.187a.447.447,0,0,0-.053-.009Z" transform="translate(16322 14135)" fill="#767a7e"/>
    <path id="Path_141338" data-name="Path 141338" d="M1616.349,275.966l.162-1.192.051.007-.161,1.194Zm3.656-27.063.052.008-.161,1.193-.052-.008Z" transform="translate(16322 14135)" fill="#767a7e"/>
    <path id="Path_141339" data-name="Path 141339" d="M1616.8,276.026l.121-1.2.053.007-.121,1.2a.473.473,0,0,1-.053-.005m2.746-27.182.053.009-.121,1.2-.053-.007Z" transform="translate(16322 14135)" fill="#767a7e"/>
    <path id="Path_141340" data-name="Path 141340" d="M1617.26,276.069l.081-1.2h.053l-.081,1.2c-.016,0-.035,0-.053,0m1.833-27.263.053,0-.082,1.2-.052,0Z" transform="translate(16322 14135)" fill="#767a7e"/>
    <path id="Path_141341" data-name="Path 141341" d="M1617.718,276.094l.04-1.206h.054l-.041,1.206Zm.917-27.312.053,0-.041,1.205-.052,0Z" transform="translate(16322 14135)" fill="#767a7e"/>
    <path id="Path_141342" data-name="Path 141342" d="M1618.177,248.774v1.206h.053v-1.206h-.053Zm.027,26.123h-.027v1.2h.053v-1.2Z" transform="translate(16322 14135)" fill="#767a7e"/>
    <path id="Path_141343" data-name="Path 141343" d="M1618.635,276.1l-.041-1.207h.053l.041,1.206Zm-.916-27.312.052,0,.04,1.205-.053,0Z" transform="translate(16322 14135)" fill="#767a7e"/>
    <path id="Path_141344" data-name="Path 141344" d="M1619.092,276.072l-.08-1.2.054,0,.08,1.2-.054,0m-1.831-27.263.053,0,.08,1.2c-.017,0-.034,0-.052,0Z" transform="translate(16322 14135)" fill="#767a7e"/>
    <path id="Path_141345" data-name="Path 141345" d="M1619.55,276.033l-.121-1.2.052,0,.122,1.2c-.018,0-.036.005-.053.006m-2.746-27.182.052-.006.121,1.2-.052.007Z" transform="translate(16322 14135)" fill="#767a7e"/>
    <path id="Path_141346" data-name="Path 141346" d="M1620.005,275.974l-.162-1.193.053-.008.161,1.195Zm-3.656-27.063.052-.009.161,1.2-.052.006Z" transform="translate(16322 14135)" fill="#767a7e"/>
    <path id="Path_141347" data-name="Path 141347" d="M1620.309,274.706a.475.475,0,0,0-.052.008l.2,1.194.052-.011-.2-1.191m-4.413-25.727.2,1.193a.523.523,0,0,1,.053-.008l-.2-1.194-.052.009" transform="translate(16322 14135)" fill="#767a7e"/>
    <path id="Path_141348" data-name="Path 141348" d="M1616.3,258.363l-.037.022-2.4-4.739.035-.019Z" transform="translate(16322 14135)" fill="#767a7e"/>
    <path id="Path_141349" data-name="Path 141349" d="M1614.96,259.422l-.026.033-6.819-5.9.027-.033Z" transform="translate(16322 14135)" fill="#767a7e"/>
    <path id="Path_141350" data-name="Path 141350" d="M1614.114,260.933l-.012.042-4.918-1.589.013-.038Z" transform="translate(16322 14135)" fill="#767a7e"/>
    <path id="Path_141351" data-name="Path 141351" d="M1614.315,264.358l.019.037-4.555,2.5-.02-.037Z" transform="translate(16322 14135)" fill="#767a7e"/>
    <path id="Path_141352" data-name="Path 141352" d="M1615.332,265.752l.031.028-5.682,7.111-.033-.026Z" transform="translate(16322 14135)" fill="#767a7e"/>
    <path id="Path_141353" data-name="Path 141353" d="M1616.786,266.631l.038.015-1.527,5.115-.04-.013Z" transform="translate(16322 14135)" fill="#767a7e"/>
    <path id="Path_141354" data-name="Path 141354" d="M1620.076,266.424l.036-.021,2.4,4.742-.037.016Z" transform="translate(16322 14135)" fill="#767a7e"/>
    <path id="Path_141355" data-name="Path 141355" d="M1621.416,265.366l.024-.033,6.784,5.868-.023.034Z" transform="translate(16322 14135)" fill="#767a7e"/>
    <path id="Path_141356" data-name="Path 141356" d="M1622.261,263.851l.01-.039,4.919,1.588-.013.039Z" transform="translate(16322 14135)" fill="#767a7e"/>
    <path id="Path_141357" data-name="Path 141357" d="M1622.06,260.428l-.02-.035,4.556-2.5.019.035Z" transform="translate(16322 14135)" fill="#767a7e"/>
    <path id="Path_141358" data-name="Path 141358" d="M1620.955,259.127l-.046-.036,5.842-6.972.044.041Z" transform="translate(16322 14135)" fill="#767a7e"/>
    <path id="Path_141359" data-name="Path 141359" d="M1619.589,258.155l-.037-.013,1.524-5.116.04.014Z" transform="translate(16322 14135)" fill="#767a7e"/>
    <path id="Path_141360" data-name="Path 141360" d="M1620.439,258.118l6.983-6.692-6.077,11.1-3.319,1.277.377-3.733Z" transform="translate(16322 14135)" fill="#f59031"/>
    <path id="Path_141361" data-name="Path 141361" d="M1620.439,258.118l6.983-6.692-6.077,11.1-3.319,1.277.377-3.733Z" transform="translate(16322 14135)" fill="none" stroke="#767a7c" stroke-miterlimit="10" stroke-width="0.158"/>
    <path id="Path_141362" data-name="Path 141362" d="M1627.422,251.424l-9.4,12.376,3.32-1.274Z" transform="translate(16322 14135)" fill="#767a7e"/>
    <path id="Path_141363" data-name="Path 141363" d="M1615.67,277.764a2.613,2.613,0,0,0,.643,1.726,16.509,16.509,0,0,1-12.186-7.956,25.117,25.117,0,0,1,1.644-3.488,13.651,13.651,0,0,0,10.351,8.24,2.617,2.617,0,0,0-.452,1.478" transform="translate(16322 14135)" fill="#767a7e"/>
    <path id="Path_141364" data-name="Path 141364" d="M1634.6,264.4a16.907,16.907,0,0,1-14.64,15.1,2.644,2.644,0,0,0,.2-3.2,13.834,13.834,0,0,0,11.4-11.958,2.379,2.379,0,0,0,3.046.062" transform="translate(16322 14135)" fill="#767a7e"/>
    <path id="Path_141365" data-name="Path 141365" d="M1631.552,260.359a14.476,14.476,0,0,0-1.206-4.108,22.328,22.328,0,0,1,3.616.963,17.6,17.6,0,0,1,.632,3.077,2.366,2.366,0,0,0-1.476-.516,2.4,2.4,0,0,0-1.566.584" transform="translate(16322 14135)" fill="#767a7e"/>
    <path id="Path_141366" data-name="Path 141366" d="M1617.749,245.141l1.585,2.074v-1.436a.716.716,0,0,0-.082-.409.45.45,0,0,0-.382-.136v-.093h1.062v.093a.8.8,0,0,0-.275.068.276.276,0,0,0-.108.143.984.984,0,0,0-.039.334v2.783h-.08l-2.174-2.783V247.9a.476.476,0,0,0,.126.388.448.448,0,0,0,.291.1h.076v.092h-1.14V248.4a.506.506,0,0,0,.37-.113.554.554,0,0,0,.1-.377v-2.362l-.069-.089a.642.642,0,0,0-.18-.174.508.508,0,0,0-.225-.046v-.093h1.14" transform="translate(16322 14135)" fill="#767a7e"/>
    <path id="Path_141367" data-name="Path 141367" d="M1619.129,263.116a.733.733,0,1,1-.732-.762.748.748,0,0,1,.732.762" transform="translate(16322 14135)" fill="#fff"/>
    <path id="Path_141368" data-name="Path 141368" d="M1619.129,263.116a.733.733,0,1,1-.732-.762A.748.748,0,0,1,1619.129,263.116Z" transform="translate(16322 14135)" fill="none" stroke="#767a7c" stroke-miterlimit="10" stroke-width="0.158"/>
    <path id="Path_141369" data-name="Path 141369" d="M1593.8,300.856V297.28h1.168a2.658,2.658,0,0,1,.6.05,1.13,1.13,0,0,1,.5.256,1.468,1.468,0,0,1,.4.612,2.535,2.535,0,0,1,.132.849,2.623,2.623,0,0,1-.09.722,1.754,1.754,0,0,1-.231.521,1.281,1.281,0,0,1-.309.327,1.251,1.251,0,0,1-.405.177,2.171,2.171,0,0,1-.544.062H1593.8m.449-.423h.724a1.711,1.711,0,0,0,.526-.064.752.752,0,0,0,.3-.187,1.138,1.138,0,0,0,.248-.453,2.292,2.292,0,0,0,.09-.689,1.741,1.741,0,0,0-.175-.862.885.885,0,0,0-.425-.4,1.633,1.633,0,0,0-.579-.073h-.713Z" transform="translate(16322 14135)" fill="#19181c"/>
    <path id="Path_141370" data-name="Path 141370" d="M1598.774,300.855v-.38a.888.888,0,0,1-.779.44.975.975,0,0,1-.407-.088.671.671,0,0,1-.279-.222.854.854,0,0,1-.129-.324,2.363,2.363,0,0,1-.025-.41v-1.607h.416V299.7a2.589,2.589,0,0,0,.026.463.449.449,0,0,0,.166.271.5.5,0,0,0,.314.1.666.666,0,0,0,.352-.1.546.546,0,0,0,.232-.275,1.436,1.436,0,0,0,.069-.506v-1.39h.416v2.591h-.372" transform="translate(16322 14135)" fill="#19181c"/>
    <rect id="Rectangle_15578" data-name="Rectangle 15578" width="0.416" height="3.575" transform="translate(17921.789 14432.28)" fill="#19181c"/>
    <path id="Path_141371" data-name="Path 141371" d="M1602.454,300.535a1.508,1.508,0,0,1-.446.293,1.221,1.221,0,0,1-.459.085.859.859,0,0,1-.622-.209.7.7,0,0,1-.218-.532.716.716,0,0,1,.083-.346.676.676,0,0,1,.215-.253.944.944,0,0,1,.3-.145,2.836,2.836,0,0,1,.37-.064,3.572,3.572,0,0,0,.743-.153c0-.059,0-.1,0-.114a.5.5,0,0,0-.118-.379.672.672,0,0,0-.474-.147.716.716,0,0,0-.434.107.666.666,0,0,0-.206.384l-.408-.059a1.09,1.09,0,0,1,.183-.444.816.816,0,0,1,.368-.262,1.6,1.6,0,0,1,.557-.092,1.424,1.424,0,0,1,.511.079.682.682,0,0,1,.289.2.692.692,0,0,1,.13.3,2.549,2.549,0,0,1,.021.4v.585a6.447,6.447,0,0,0,.027.774,1.023,1.023,0,0,0,.1.313h-.434a.957.957,0,0,1-.083-.322m-.035-.98a2.948,2.948,0,0,1-.681.166,1.508,1.508,0,0,0-.362.088.365.365,0,0,0-.165.142.394.394,0,0,0-.057.208.381.381,0,0,0,.126.293.513.513,0,0,0,.369.119.81.81,0,0,0,.427-.112.679.679,0,0,0,.275-.3,1.123,1.123,0,0,0,.068-.441Z" transform="translate(16322 14135)" fill="#19181c"/>
    <path id="Path_141372" data-name="Path 141372" d="M1603.485,300.855v-2.591h.375v.368a.87.87,0,0,1,.781-.425.966.966,0,0,1,.409.085.629.629,0,0,1,.278.218.877.877,0,0,1,.13.325,2.724,2.724,0,0,1,.023.427v1.593h-.416v-1.574a1.237,1.237,0,0,0-.049-.4.41.41,0,0,0-.172-.21.527.527,0,0,0-.29-.081.66.66,0,0,0-.46.178.915.915,0,0,0-.193.676v1.415h-.416" transform="translate(16322 14135)" fill="#19181c"/>
    <path id="Path_141373" data-name="Path 141373" d="M1606.122,297.28h.416v.505h-.416Zm0,.984h.416v2.591h-.416Z" transform="translate(16322 14135)" fill="#19181c"/>
    <path id="Path_141374" data-name="Path 141374" d="M1608.523,300.856V297.28h1.273a1.526,1.526,0,0,1,.623.107.826.826,0,0,1,.367.335.917.917,0,0,1,.134.473.838.838,0,0,1-.119.43.34.34,0,1,0,.117.653.9.9,0,0,1,.166.542,1.1,1.1,0,0,1-.1.467.919.919,0,0,1-.249.333,1,1,0,0,1-.37.175,2.149,2.149,0,0,1-.548.061h-1.293m.449-2.073h.733a1.58,1.58,0,0,0,.428-.042.484.484,0,0,0,.258-.179.534.534,0,0,0,.087-.312.6.6,0,0,0-.081-.313.427.427,0,0,0-.231-.187,1.918,1.918,0,0,0-.516-.048h-.678Zm0,1.65h.844a1.876,1.876,0,0,0,.3-.017.677.677,0,0,0,.26-.1.527.527,0,0,0,.171-.2.65.65,0,0,0,.066-.3.614.614,0,0,0-.1-.349.51.51,0,0,0-.269-.208,1.617,1.617,0,0,0-.5-.059h-.784Z" transform="translate(16322 14135)" fill="#19181c"/>
    <path id="Path_141375" data-name="Path 141375" d="M1613.258,300.855v-.38a.888.888,0,0,1-.779.44.975.975,0,0,1-.407-.088.671.671,0,0,1-.279-.222.856.856,0,0,1-.129-.324,2.378,2.378,0,0,1-.025-.41v-1.607h.416V299.7a2.738,2.738,0,0,0,.025.463.455.455,0,0,0,.167.271.5.5,0,0,0,.314.1.666.666,0,0,0,.352-.1.546.546,0,0,0,.232-.275,1.436,1.436,0,0,0,.069-.506v-1.39h.416v2.591h-.372" transform="translate(16322 14135)" fill="#19181c"/>
    <path id="Path_141376" data-name="Path 141376" d="M1614.116,300.082l.412-.066a.621.621,0,0,0,.193.4.642.642,0,0,0,.443.141.62.62,0,0,0,.425-.124.373.373,0,0,0,.139-.288.272.272,0,0,0-.123-.236,1.677,1.677,0,0,0-.425-.147,3.892,3.892,0,0,1-.635-.212.65.65,0,0,1-.269-.246.707.707,0,0,1,.189-.914.79.79,0,0,1,.265-.128,1.234,1.234,0,0,1,.36-.053,1.343,1.343,0,0,1,.507.088.706.706,0,0,1,.323.237.993.993,0,0,1,.144.4l-.408.057a.48.48,0,0,0-.16-.312.563.563,0,0,0-.376-.114.658.658,0,0,0-.41.1.294.294,0,0,0-.123.233.256.256,0,0,0,.052.156.379.379,0,0,0,.159.117c.042.014.164.054.368.111a4.918,4.918,0,0,1,.617.2.639.639,0,0,1,.274.231.668.668,0,0,1,.1.376.771.771,0,0,1-.122.414.809.809,0,0,1-.35.3,1.216,1.216,0,0,1-.518.1,1.1,1.1,0,0,1-.73-.209,1,1,0,0,1-.32-.623" transform="translate(16322 14135)" fill="#19181c"/>
    <path id="Path_141377" data-name="Path 141377" d="M1616.653,297.28h.417v.506h-.417Zm0,.985h.417v2.591h-.417Z" transform="translate(16322 14135)" fill="#19181c"/>
    <path id="Path_141378" data-name="Path 141378" d="M1617.7,300.856v-2.591h.375v.368a.871.871,0,0,1,.781-.426.961.961,0,0,1,.408.085.632.632,0,0,1,.279.218.884.884,0,0,1,.13.325,2.606,2.606,0,0,1,.023.427v1.594h-.416v-1.575a1.257,1.257,0,0,0-.049-.4.417.417,0,0,0-.172-.211.53.53,0,0,0-.291-.081.655.655,0,0,0-.459.179.913.913,0,0,0-.193.675v1.416h-.416" transform="translate(16322 14135)" fill="#19181c"/>
    <path id="Path_141379" data-name="Path 141379" d="M1622.02,300.021l.43.058a1.122,1.122,0,0,1-.377.616,1.219,1.219,0,0,1-1.557-.131,1.4,1.4,0,0,1-.317-.981,1.475,1.475,0,0,1,.32-1.014,1.051,1.051,0,0,1,.828-.362,1.03,1.03,0,0,1,.8.353,1.454,1.454,0,0,1,.312.995c0,.028,0,.067,0,.117h-1.833a1.035,1.035,0,0,0,.23.655.667.667,0,0,0,.513.226.613.613,0,0,0,.391-.127.844.844,0,0,0,.257-.4m-1.367-.709h1.371a.9.9,0,0,0-.157-.49.624.624,0,0,0-.516-.253.642.642,0,0,0-.482.2.822.822,0,0,0-.216.542" transform="translate(16322 14135)" fill="#19181c"/>
    <path id="Path_141380" data-name="Path 141380" d="M1622.806,300.083l.412-.067a.614.614,0,0,0,.193.4.642.642,0,0,0,.443.141.625.625,0,0,0,.426-.124.376.376,0,0,0,.138-.289.271.271,0,0,0-.122-.235,1.689,1.689,0,0,0-.426-.147,3.74,3.74,0,0,1-.635-.212.64.64,0,0,1-.268-.246.684.684,0,0,1-.092-.349.713.713,0,0,1,.28-.565.807.807,0,0,1,.265-.127,1.163,1.163,0,0,1,.359-.054,1.353,1.353,0,0,1,.509.088.707.707,0,0,1,.322.237.983.983,0,0,1,.144.4l-.408.057a.479.479,0,0,0-.16-.311.556.556,0,0,0-.376-.114.658.658,0,0,0-.41.1.3.3,0,0,0-.122.234.261.261,0,0,0,.05.155.371.371,0,0,0,.161.117c.041.015.163.054.367.112a4.858,4.858,0,0,1,.617.2.614.614,0,0,1,.273.232.661.661,0,0,1,.1.376.763.763,0,0,1-.122.413.8.8,0,0,1-.35.3,1.245,1.245,0,0,1-.518.105,1.113,1.113,0,0,1-.73-.21,1,1,0,0,1-.32-.622" transform="translate(16322 14135)" fill="#19181c"/>
    <path id="Path_141381" data-name="Path 141381" d="M1625.175,300.083l.411-.067a.624.624,0,0,0,.194.4.641.641,0,0,0,.442.141.621.621,0,0,0,.426-.124.373.373,0,0,0,.139-.289.272.272,0,0,0-.123-.235,1.672,1.672,0,0,0-.426-.147,3.721,3.721,0,0,1-.634-.212.634.634,0,0,1-.268-.246.674.674,0,0,1-.092-.349.7.7,0,0,1,.28-.565.808.808,0,0,1,.265-.127,1.171,1.171,0,0,1,.36-.054,1.346,1.346,0,0,1,.507.088.711.711,0,0,1,.323.237,1,1,0,0,1,.144.4l-.408.057a.475.475,0,0,0-.16-.311.558.558,0,0,0-.376-.114.658.658,0,0,0-.41.1.292.292,0,0,0-.122.234.255.255,0,0,0,.051.155.364.364,0,0,0,.159.117c.041.015.164.054.368.112a4.711,4.711,0,0,1,.616.2.623.623,0,0,1,.274.232.654.654,0,0,1,.1.376.773.773,0,0,1-.122.413.8.8,0,0,1-.35.3,1.245,1.245,0,0,1-.518.105,1.113,1.113,0,0,1-.73-.21,1,1,0,0,1-.32-.622" transform="translate(16322 14135)" fill="#19181c"/>
    <path id="Path_141382" data-name="Path 141382" d="M1631.5,299.6l.449.12a1.606,1.606,0,0,1-.508.891,1.356,1.356,0,0,1-.9.3,1.546,1.546,0,0,1-.892-.235,1.453,1.453,0,0,1-.523-.682,2.529,2.529,0,0,1-.179-.959,2.2,2.2,0,0,1,.2-.974,1.445,1.445,0,0,1,.576-.632,1.606,1.606,0,0,1,.823-.216,1.333,1.333,0,0,1,.856.275,1.416,1.416,0,0,1,.483.767l-.443.111a1.113,1.113,0,0,0-.341-.571.891.891,0,0,0-.565-.177,1.015,1.015,0,0,0-1.022.728,2.41,2.41,0,0,0,.02,1.483.975.975,0,0,0,.392.508,1.05,1.05,0,0,0,.575.17.938.938,0,0,0,.639-.229,1.187,1.187,0,0,0,.354-.682" transform="translate(16322 14135)" fill="#19181c"/>
    <path id="Path_141383" data-name="Path 141383" d="M1634.128,300.021l.431.058a1.122,1.122,0,0,1-.377.616,1.221,1.221,0,0,1-1.558-.131,1.407,1.407,0,0,1-.316-.981,1.475,1.475,0,0,1,.32-1.014,1.051,1.051,0,0,1,.828-.362,1.031,1.031,0,0,1,.8.353,1.454,1.454,0,0,1,.312.995c0,.028,0,.067,0,.117h-1.832a1.023,1.023,0,0,0,.229.655.668.668,0,0,0,.513.226.613.613,0,0,0,.391-.127.837.837,0,0,0,.256-.4m-1.366-.709h1.372a.908.908,0,0,0-.158-.49.626.626,0,0,0-.516-.253.642.642,0,0,0-.482.2.822.822,0,0,0-.216.542" transform="translate(16322 14135)" fill="#19181c"/>
    <path id="Path_141384" data-name="Path 141384" d="M1635.082,300.856v-2.591h.375v.368a.871.871,0,0,1,.782-.426.957.957,0,0,1,.407.085.621.621,0,0,1,.279.218.867.867,0,0,1,.13.325,2.74,2.74,0,0,1,.023.427v1.594h-.416v-1.575a1.23,1.23,0,0,0-.049-.4.412.412,0,0,0-.172-.211.524.524,0,0,0-.29-.081.651.651,0,0,0-.459.179.908.908,0,0,0-.193.675v1.416h-.417" transform="translate(16322 14135)" fill="#19181c"/>
    <path id="Path_141385" data-name="Path 141385" d="M1638.625,300.463l.06.388a1.542,1.542,0,0,1-.314.04.694.694,0,0,1-.352-.076.428.428,0,0,1-.176-.2,1.647,1.647,0,0,1-.051-.517v-1.491h-.3v-.341h.3v-.643l.414-.264v.907h.419v.341h-.419v1.514a.788.788,0,0,0,.023.242.163.163,0,0,0,.071.084.247.247,0,0,0,.143.034,1.21,1.21,0,0,0,.182-.018" transform="translate(16322 14135)" fill="#19181c"/>
    <path id="Path_141386" data-name="Path 141386" d="M1640.714,300.021l.43.058a1.122,1.122,0,0,1-.377.616,1.219,1.219,0,0,1-1.557-.131,1.408,1.408,0,0,1-.317-.981,1.475,1.475,0,0,1,.32-1.014,1.054,1.054,0,0,1,.828-.362,1.029,1.029,0,0,1,.8.353,1.454,1.454,0,0,1,.312.995c0,.028,0,.067,0,.117h-1.832a1.029,1.029,0,0,0,.229.655.669.669,0,0,0,.513.226.615.615,0,0,0,.392-.127.843.843,0,0,0,.256-.4m-1.367-.709h1.372a.9.9,0,0,0-.158-.49.624.624,0,0,0-.515-.253.64.64,0,0,0-.482.2.822.822,0,0,0-.217.542" transform="translate(16322 14135)" fill="#19181c"/>
    <path id="Path_141387" data-name="Path 141387" d="M1641.662,300.856v-2.591h.375v.394a1.07,1.07,0,0,1,.264-.365.449.449,0,0,1,.268-.087.78.78,0,0,1,.427.141l-.143.406a.582.582,0,0,0-.306-.093.379.379,0,0,0-.245.087.459.459,0,0,0-.155.241,1.788,1.788,0,0,0-.069.511v1.356h-.416" transform="translate(16322 14135)" fill="#19181c"/>
    <path id="Path_141388" data-name="Path 141388" d="M1601.354,288.107a4.936,4.936,0,0,0-.673-1.676,3.558,3.558,0,0,0-1.24-1.156,3.838,3.838,0,0,0-1.908-.437h-4.889v10.814h4.919a3.769,3.769,0,0,0,1.973-.469,3.432,3.432,0,0,0,1.228-1.242,4.79,4.79,0,0,0,.347-.754,5.647,5.647,0,0,0,.274-1.028,12.249,12.249,0,0,0,.16-1.588c.008-.162.01-.326.01-.491a9.366,9.366,0,0,0-.2-1.973m-2.885,5.576a2.65,2.65,0,0,1-1.428.335h-2.707V286.47h2.691a2.859,2.859,0,0,1,1.384.3,2.208,2.208,0,0,1,.828.786,3.11,3.11,0,0,1,.4,1.152,8.763,8.763,0,0,1,.1,1.376c0,.343-.015.68-.042,1.012-.013.153-.028.3-.049.451a3.623,3.623,0,0,1-.374,1.26,2.22,2.22,0,0,1-.695.8,1.351,1.351,0,0,1-.118.08" transform="translate(16322 14135)" fill="#f59031"/>
    <path id="Path_141389" data-name="Path 141389" d="M1609.781,284.838v6.054a7.481,7.481,0,0,1-.108,1.344c-.006.024-.008.047-.013.072a2.741,2.741,0,0,1-.411,1.042,1.852,1.852,0,0,1-.784.636,3.108,3.108,0,0,1-1.243.217,3.348,3.348,0,0,1-1.277-.209,1.709,1.709,0,0,1-.784-.625,2.277,2.277,0,0,1-.312-.676,2.832,2.832,0,0,1-.085-.358,8.142,8.142,0,0,1-.113-1.443v-6.054h-1.69V291a8.892,8.892,0,0,0,.184,1.9c.01.051.02.1.032.15a3.886,3.886,0,0,0,.71,1.525,3.038,3.038,0,0,0,1.309.943,5.577,5.577,0,0,0,2.026.317,5.156,5.156,0,0,0,1.981-.334,3.207,3.207,0,0,0,1.316-.956,3.885,3.885,0,0,0,.726-1.519,7.085,7.085,0,0,0,.163-.906,9.249,9.249,0,0,0,.062-1.124v-6.159h-1.689" transform="translate(16322 14135)" fill="#767a7e"/>
    <path id="Path_141390" data-name="Path 141390" d="M1614.833,294.018v-9.18h-1.687v10.814h6.279l.462-1.634Z" transform="translate(16322 14135)" fill="#767a7e"/>
    <path id="Path_141391" data-name="Path 141391" d="M1628.849,292.285l-2.8-7.447h-2.019l-3.874,10.814h1.78l1.093-3.08h4.186l1.152,3.08h1.75Zm-4.414-3.771.387-1.092.24-1.216.239,1.216.45,1.2.911,2.428h-3.126Z" transform="translate(16322 14135)" fill="#767a7e"/>
    <path id="Path_141392" data-name="Path 141392" d="M1638.175,284.838v8.106l-1.489-2.49-3.354-5.616h-2.064v10.813h1.689v-8.292l1.524,2.572,1.9,3.191,1.5,2.529h1.988V284.838Z" transform="translate(16322 14135)" fill="#767a7e"/>
    <rect id="Rectangle_15579" data-name="Rectangle 15579" width="1.69" height="10.813" transform="translate(17963.676 14419.838)" fill="#767a7e"/>
    <path id="Path_141393" data-name="Path 141393" d="M1596.232,305.588a2,2,0,1,1-3.972,0v-.642h.71v.557c0,.9.515,1.621,1.282,1.621.742,0,1.27-.713,1.27-1.621v-2.981h.71v3.066" transform="translate(16322 14135)" fill="#19181c"/>
    <path id="Path_141394" data-name="Path 141394" d="M1598.735,306.739h-.824a.933.933,0,0,1-.78-.34,1.307,1.307,0,0,1-.25-.849v-3.029h.7v2.735a.76.76,0,0,0,.2.627.961.961,0,0,0,.541.111h.415v.745" transform="translate(16322 14135)" fill="#19181c"/>
    <path id="Path_141395" data-name="Path 141395" d="M1602.62,306.738h-.9a1.316,1.316,0,0,1-1.138.572,1.3,1.3,0,0,1-1.125-.572h-.961v-.745h.678c-.006-.072-.006-.142-.006-.216a1.541,1.541,0,0,1,.39-1.079,1.342,1.342,0,0,1,1.024-.424,1.285,1.285,0,0,1,1.019.438,1.588,1.588,0,0,1,.389,1.091v.19h.629v.745m-1.351-.941a1.034,1.034,0,0,0-.17-.6.644.644,0,0,0-.535-.266.589.589,0,0,0-.508.261.973.973,0,0,0-.164.576.768.768,0,0,0,.71.856.593.593,0,0,0,.5-.249.984.984,0,0,0,.164-.582" transform="translate(16322 14135)" fill="#19181c"/>
    <path id="Path_141396" data-name="Path 141396" d="M1605.933,306.739h-3.482v-.745h.911a1.7,1.7,0,0,1-.138-.687,1.632,1.632,0,0,1,.4-1.118,1.334,1.334,0,0,1,1.044-.459,1.3,1.3,0,0,1,1.232.845l-.6.3a.646.646,0,0,0-.66-.5.6.6,0,0,0-.534.287,1.111,1.111,0,0,0-.17.635,1.029,1.029,0,0,0,.226.7h1.773v.745" transform="translate(16322 14135)" fill="#19181c"/>
    <path id="Path_141397" data-name="Path 141397" d="M1607.669,302.672h-1.088v-.3h.251a1.13,1.13,0,0,1-.056-.23.5.5,0,0,1,.49-.529.428.428,0,0,1,.4.287l-.226.124a.163.163,0,0,0-.176-.142.232.232,0,0,0-.214.249.265.265,0,0,0,.113.241h.51v.3m2.847,4.067h-3.935v-.745h.962l-.792-3.009h.742l.785,3.009a.552.552,0,0,0,.427-.145.887.887,0,0,0,.176-.627v-2.7h.686v3.193a1.367,1.367,0,0,1-.025.28h.974Z" transform="translate(16322 14135)" fill="#19181c"/>
    <path id="Path_141398" data-name="Path 141398" d="M1612.082,305.555q0,1.187-1.056,1.185h-.742v-.747h.6a.441.441,0,0,0,.446-.214,1.5,1.5,0,0,0,.05-.472v-2.786h.7v3.034" transform="translate(16322 14135)" fill="#19181c"/>
    <path id="Path_141399" data-name="Path 141399" d="M1619.506,305.995v.746c-.773,0-.993-.124-1.282-.576a2.035,2.035,0,0,1-2.068,1.661,2.189,2.189,0,0,1-2.162-2.271v-.731h.7v.646a1.458,1.458,0,0,0,1.477,1.65,1.335,1.335,0,0,0,1.433-1.231.622.622,0,0,0-.635-.691.713.713,0,0,0-.113.006v-.667h.276a1.335,1.335,0,0,1,1.245.777c.258.49.5.681.861.681h.264m-3.595,3.276h-.691v-.726h.691Zm1.188,0h-.691v-.726h.691Z" transform="translate(16322 14135)" fill="#19181c"/>
    <path id="Path_141400" data-name="Path 141400" d="M1622.23,306.741h-2.9v-.746h.654a.424.424,0,0,0,.42-.223,1.181,1.181,0,0,0,.076-.5V303.77h.7v1.467a1.286,1.286,0,0,1-.152.758h1.208v.746m-1.056-3.572h-.691v-.727h.691Z" transform="translate(16322 14135)" fill="#19181c"/>
    <path id="Path_141401" data-name="Path 141401" d="M1623.821,305.556q0,1.186-1.056,1.185h-.743v-.748h.6a.443.443,0,0,0,.447-.214,1.508,1.508,0,0,0,.049-.472v-2.784h.705v3.033" transform="translate(16322 14135)" fill="#19181c"/>
    <path id="Path_141402" data-name="Path 141402" d="M1627.4,306.74h-2.986v-.746h2.275c0-.857-.32-1.354-.955-1.5a2.79,2.79,0,0,0-.635-.06v-.667c.346,0,.566.007.654.013a1.532,1.532,0,0,1,.377.094,1.987,1.987,0,0,1,1.27,2.117v.746" transform="translate(16322 14135)" fill="#19181c"/>
    <path id="Path_141403" data-name="Path 141403" d="M1632.031,306.741h-1.125c-.107.7-.679,1.085-1.535,1.085V307.2c.585,0,.875-.3.875-.93v-2.5h.7v2.225h1.081v.746m-1.087-3.572h-.691v-.727h.691Z" transform="translate(16322 14135)" fill="#19181c"/>
    <path id="Path_141404" data-name="Path 141404" d="M1635.992,306.282v.458h-4.2v-.746h3.45a1.626,1.626,0,0,0-.339-1.038,1.309,1.309,0,0,0-1.087-.5h-1.453l1.239-1.937h.836l-.849,1.249h.308a2.017,2.017,0,0,1,1.207.362,2.417,2.417,0,0,1,.893,2.15" transform="translate(16322 14135)" fill="#19181c"/>
    <path id="Path_141405" data-name="Path 141405" d="M1639.116,306.74h-1.125c-.107.7-.679,1.085-1.534,1.085V307.2c.585,0,.874-.3.874-.928v-2.5h.7v2.224h1.081v.746" transform="translate(16322 14135)" fill="#19181c"/>
    <path id="Path_141406" data-name="Path 141406" d="M1642.549,305.811a1.406,1.406,0,0,1-1.408,1.511,1.319,1.319,0,0,1-1.137-.581h-1.132v-.746h.867l-.006-.035a1.7,1.7,0,0,1-.012-.175,1.4,1.4,0,0,1,1.42-1.5,1.429,1.429,0,0,1,1.408,1.529m-.722,0c0-.5-.29-.87-.7-.87-.4,0-.68.348-.68.838a.775.775,0,0,0,.717.861c.39,0,.667-.332.667-.829" transform="translate(16322 14135)" fill="#19181c"/>
    <path id="Path_141407" data-name="Path 141407" d="M1598.588,293.6q1.242-.219,2.523-.415a4.562,4.562,0,0,1-.346.752,3.422,3.422,0,0,1-1.228,1.244,3.77,3.77,0,0,1-1.974.468h-4.918v-.783c1.21-.307,2.463-.588,3.756-.851q1.074-.218,2.187-.415" transform="translate(16322 14135)" fill="#505457"/>
    <path id="Path_141408" data-name="Path 141408" d="M1611.408,292.122a6.889,6.889,0,0,1-.163.906,3.9,3.9,0,0,1-.725,1.52,3.213,3.213,0,0,1-1.316.956,5.216,5.216,0,0,1-1.981.334,5.579,5.579,0,0,1-2.027-.32,3.022,3.022,0,0,1-1.308-.941,3.871,3.871,0,0,1-.711-1.523c-.012-.05-.022-.1-.032-.151.562-.075,1.132-.145,1.7-.209a2.282,2.282,0,0,0,.311.677,1.74,1.74,0,0,0,.784.624,3.33,3.33,0,0,0,1.278.209,3.1,3.1,0,0,0,1.243-.217,1.821,1.821,0,0,0,.783-.636,2.729,2.729,0,0,0,.412-1.042c0-.025.007-.047.012-.072.575-.042,1.152-.081,1.735-.115" transform="translate(16322 14135)" fill="#505457"/>
    <path id="Path_141409" data-name="Path 141409" d="M1614.833,294.018h5.054l-.462,1.634h-6.279v-3.621q.838-.041,1.687-.064v2.051" transform="translate(16322 14135)" fill="#505457"/>
    <path id="Path_141410" data-name="Path 141410" d="M1628.849,292.284l1.269,3.367h-1.751l-1.152-3.08h-4.186l-1.093,3.08h-1.779l1.335-3.726c2.511.048,4.969.17,7.357.359" transform="translate(16322 14135)" fill="#505457"/>
    <path id="Path_141411" data-name="Path 141411" d="M1631.267,292.5c.567.056,1.129.115,1.69.181v2.972h-1.69V292.5" transform="translate(16322 14135)" fill="#505457"/>
    <path id="Path_141412" data-name="Path 141412" d="M1636.377,293.123c1.187.176,2.35.365,3.487.574v1.954h-1.988l-1.5-2.528" transform="translate(16322 14135)" fill="#505457"/>
    <path id="Path_141413" data-name="Path 141413" d="M1643.365,294.411v1.24h-1.69v-1.6c.572.113,1.135.236,1.69.362" transform="translate(16322 14135)" fill="#505457"/>
  </g>
</svg>
