<svg xmlns="http://www.w3.org/2000/svg" width="60.104" height="53.466" viewBox="0 0 60.104 53.466">
  <g id="Client_40" transform="translate(-17726.801 -14486.668)">
    <path id="Path_141450" data-name="Path 141450" d="M1424.784,373.572a4.608,4.608,0,0,1-4.554-4.854,4.537,4.537,0,0,1,4.421-4.74l.953-.048-.583-.786a3.832,3.832,0,0,1-.38-.723,3.254,3.254,0,0,0-.91-1.362,1.468,1.468,0,0,0-.893-.278,2.438,2.438,0,0,0-.93.2l-1.285-2.064a5.154,5.154,0,0,1,2.138-.532l.079,0c.069,0,.138-.007.205-.007a3.6,3.6,0,0,1,2.867,1.545,15.155,15.155,0,0,1,.95,1.481,14.1,14.1,0,0,0,1.163,1.77,3.083,3.083,0,0,0,1.1.91l-1.1,2.452a8.849,8.849,0,0,0-2.836-.53,2.672,2.672,0,0,0-2.631,2.642,2.576,2.576,0,0,0,2.563,2.644,5.089,5.089,0,0,0,2.548-.74l1.087,1.878a7.573,7.573,0,0,1-3.972,1.143" transform="translate(16322 14135)" fill="#da8e3b"/>
    <path id="Path_141451" data-name="Path 141451" d="M1411.031,388.939a1.2,1.2,0,0,1-.71-.227c-.705-.488-.62-1.335-.424-2.477.124-.721.319-1.648.507-2.545.168-.8.395-1.878.5-2.536l.041-.246-.16-.187c-2.754-3.2-3.843-6.389-3.885-11.372-.084-9.992,7.02-17.594,16.524-17.681h.142a14.92,14.92,0,0,1,14.836,15.137,13.756,13.756,0,0,1-3.733,9.613,12.683,12.683,0,0,1-9.172,4.05h-.1a11.576,11.576,0,0,1-11.31-11.667,10.465,10.465,0,0,1,3.577-7.993l1.389,1.941a8,8,0,0,0-2.645,6.032,9.2,9.2,0,0,0,8.99,9.272h.08a10.434,10.434,0,0,0,7.537-3.329,11.29,11.29,0,0,0,3.066-7.9,12.571,12.571,0,0,0-12.516-12.743h-.119c-8.316.076-14.3,6.487-14.224,15.246.039,4.625,1.011,7.307,3.713,10.255.557.606.442,1.256-.263,4.609l-.3,1.455,1-.641c1.841-1.182,3.011-1.825,3.919-1.825a1.6,1.6,0,0,1,.718.163,18.9,18.9,0,0,0,6.738,1.973,1.183,1.183,0,0,1,1.06,1.191,1.238,1.238,0,0,1-.339.867,1.109,1.109,0,0,1-.806.354c-.032,0-.063,0-.095,0a20.874,20.874,0,0,1-7.194-2.025l-.186-.089-.192.074a22.5,22.5,0,0,0-2.993,1.757c-.6.392-1.173.764-1.633,1.023a2.847,2.847,0,0,1-1.332.472" transform="translate(16322 14135)" fill="#da8e3b"/>
    <path id="Path_141452" data-name="Path 141452" d="M1422.963,404.966V396.1h1.779v3.318h3.33V396.1h1.784v8.862h-1.784v-4.013h-3.33v4.013Z" transform="translate(16322 14135)" fill="#2b2f31"/>
    <path id="Path_141453" data-name="Path 141453" d="M1433.8,405.134a1.934,1.934,0,0,1-1.412-.521,1.827,1.827,0,0,1-.533-1.372,2.066,2.066,0,0,1,.483-1.433,2.252,2.252,0,0,1,1.4-.68l1.1-.158a2.56,2.56,0,0,0,.713-.2.429.429,0,0,0,.186-.223.571.571,0,0,0,.053-.242.523.523,0,0,0-.006-.076.565.565,0,0,0-.273-.43,1.472,1.472,0,0,0-.813-.188,1.069,1.069,0,0,0-.746.24.906.906,0,0,0-.28.681h-1.6a2.233,2.233,0,0,1,.756-1.723,3.173,3.173,0,0,1,2.054-.578,3,3,0,0,1,1.859.517,1.681,1.681,0,0,1,.679,1.41v3.666a1.878,1.878,0,0,0,.07.616.509.509,0,0,0,.283.279v.242h-1.8a4.092,4.092,0,0,1-.147-.775l-.006-.015a2.485,2.485,0,0,1-2.025.964m2-2.593v-.748a2.791,2.791,0,0,1-.766.27l-.613.119a1.238,1.238,0,0,0-.659.307.777.777,0,0,0-.227.573.883.883,0,0,0,.2.617.729.729,0,0,0,.562.22,1.562,1.562,0,0,0,1.279-.582.928.928,0,0,0,.153-.339,1.486,1.486,0,0,0,.067-.437" transform="translate(16322 14135)" fill="#2b2f31"/>
    <path id="Path_141454" data-name="Path 141454" d="M1439.751,404.966V396.1h1.658v4.789l2.078-2.489h2.052l-2.278,2.489,2.331,4.073h-1.971l-1.519-2.819-.693.755v2.064Z" transform="translate(16322 14135)" fill="#2b2f31"/>
    <path id="Path_141455" data-name="Path 141455" d="M1447.17,396.041h1.692v1.6h-1.692Zm.013,2.364h1.665v6.562h-1.665Z" transform="translate(16322 14135)" fill="#2b2f31"/>
    <path id="Path_141456" data-name="Path 141456" d="M1416.87,393.036a5.232,5.232,0,0,1-3.532,4.187,7.744,7.744,0,0,1-2.169.384c-.117.006-.235.009-.352.009a6.749,6.749,0,0,1-3.161-.723,4.988,4.988,0,0,1-2.54-3.056,7.189,7.189,0,0,1-.3-1.843c-.013-.386-.019-.738-.019-1.061s.006-.618.019-.886a10.12,10.12,0,0,1,.352-2.191l2.456.473a7.714,7.714,0,0,0-.306,1.813c-.012.246-.018.515-.018.811s.006.617.018.965a5.325,5.325,0,0,0,.214,1.359,2.831,2.831,0,0,0,1.418,1.766,4.166,4.166,0,0,0,1.881.4h.232a4.691,4.691,0,0,0,1.354-.241,2.765,2.765,0,0,0,1.436-1.069,3.166,3.166,0,0,0,.473-1.1h-2.493v-2.171h7.017v2.171Zm-6.359,5.709a1.485,1.485,0,0,1,0,2.045,1.348,1.348,0,0,1-1.965,0,1.485,1.485,0,0,1,0-2.045,1.35,1.35,0,0,1,1.965,0m3.291,0a1.513,1.513,0,0,1,0,2.045,1.36,1.36,0,0,1-1.975,0,1.488,1.488,0,0,1,0-2.045,1.362,1.362,0,0,1,1.975,0" transform="translate(16322 14135)" fill="#2b2f31"/>
    <rect id="Rectangle_15580" data-name="Rectangle 15580" width="4.32" height="2.17" transform="translate(17740.111 14525.867)" fill="#2b2f31"/>
    <rect id="Rectangle_15581" data-name="Rectangle 15581" width="4.32" height="2.17" transform="translate(17743.689 14525.867)" fill="#2b2f31"/>
    <rect id="Rectangle_15582" data-name="Rectangle 15582" width="4.32" height="2.17" transform="translate(17747.268 14525.867)" fill="#2b2f31"/>
    <rect id="Rectangle_15583" data-name="Rectangle 15583" width="4.32" height="2.17" transform="translate(17750.846 14525.867)" fill="#2b2f31"/>
    <rect id="Rectangle_15584" data-name="Rectangle 15584" width="4.32" height="2.17" transform="translate(17754.424 14525.867)" fill="#2b2f31"/>
    <path id="Path_141457" data-name="Path 141457" d="M1436,393.036v-2.159h9.77a2.669,2.669,0,0,0-.76-2.1,4.771,4.771,0,0,0-2.661-.617q-.462-.02-1.306-.019t-2.049.019h-.89l-.862-1.783,7.073-5.536,1.752,1.561-4.579,3.579c.216,0,.537.006.963.02q3.57.114,4.719,1.233a5.165,5.165,0,0,1,1.112,3.626h1.7v2.171Z" transform="translate(16322 14135)" fill="#2b2f31"/>
    <rect id="Rectangle_15585" data-name="Rectangle 15585" width="4.32" height="2.17" transform="translate(17771.248 14525.867)" fill="#2b2f31"/>
    <path id="Path_141458" data-name="Path 141458" d="M1461.243,390.865q-.231-.26-.8-1.041a10.278,10.278,0,0,0-2.206-2.41,2.969,2.969,0,0,0-1.613-.484,4.336,4.336,0,0,0-1.734.435l-1.223-1.891a8.136,8.136,0,0,1,3.244-.83,4.8,4.8,0,0,1,2.411.627,12.747,12.747,0,0,1,3.253,3.406A6.5,6.5,0,0,0,1464.9,391l-.472,2.034h-11.606v-2.171Z" transform="translate(16322 14135)" fill="#2b2f31"/>
  </g>
</svg>
