<svg xmlns="http://www.w3.org/2000/svg" width="57.631" height="66.708" viewBox="0 0 57.631 66.708">
  <g id="Client_17" transform="translate(-16587.104 -14259.526)">
    <path id="Path_145017" data-name="Path 145017" d="M265.224,185.066a3.174,3.174,0,0,0,.088.375.9.9,0,0,0,.176.323.865.865,0,0,0,.3.226,1.129,1.129,0,0,0,.464.084h.712l-.184-.327c-.024-.041-.056-.09-.088-.14s-.056-.109-.088-.166-.048-.11-.064-.152a.4.4,0,0,1-.024-.116.416.416,0,0,1,.056-.223.489.489,0,0,1,.152-.167.646.646,0,0,1,.208-.109.735.735,0,0,1,.216-.042.472.472,0,0,1,.233.059.538.538,0,0,1,.184.175v-.008l.64,1.215h.048v.4h-.2l-.712-1.3a.451.451,0,0,0-.128-.175.268.268,0,0,0-.136-.057.234.234,0,0,0-.16.065.219.219,0,0,0-.064.158.241.241,0,0,0,.032.125c.112.2.217.4.328.592s.216.392.329.591h-1.137a1.991,1.991,0,0,1-.408-.042,1.136,1.136,0,0,1-.32-.125.831.831,0,0,1-.232-.183.975.975,0,0,1-.248-.465,1.327,1.327,0,0,1-.033-.249,1.2,1.2,0,0,1,.009-.193l.024-.175v.026Zm.8,2.03a.32.32,0,0,1,.016-.083.178.178,0,0,1,.04-.065.146.146,0,0,1,.064-.042.235.235,0,0,1,.08-.018.189.189,0,0,1,.144.06.2.2,0,0,1,.056.148.291.291,0,0,1-.016.083.171.171,0,0,1-.04.067.339.339,0,0,1-.064.05.119.119,0,0,1-.08.018.257.257,0,0,1-.08-.018.119.119,0,0,1-.064-.05.171.171,0,0,1-.04-.067.138.138,0,0,1-.016-.083m.56,0a.32.32,0,0,1,.016-.083.178.178,0,0,1,.04-.065.146.146,0,0,1,.064-.042.235.235,0,0,1,.08-.018.189.189,0,0,1,.144.06.2.2,0,0,1,.056.148.26.26,0,0,1-.016.083.171.171,0,0,1-.04.067.34.34,0,0,1-.064.05.12.12,0,0,1-.08.018.214.214,0,0,1-.08-.018.118.118,0,0,1-.064-.05.171.171,0,0,1-.04-.067.245.245,0,0,1-.016-.083" transform="translate(16322 14135)" fill="#ce6632"/>
    <path id="Path_145018" data-name="Path 145018" d="M268.193,186.481v-.4h.872c.008-.065.008-.133.016-.2s.008-.142.016-.217.008-.142.016-.217.008-.139.016-.208l.328-.175-.064,1.016h.1v.4Zm.9-2.148a.254.254,0,0,1,.016-.083.187.187,0,0,1,.048-.074.279.279,0,0,1,.072-.051.255.255,0,0,1,.08-.017.3.3,0,0,1,.088.017.178.178,0,0,1,.072.051.262.262,0,0,1,.048.074.312.312,0,0,1,.016.083.378.378,0,0,1-.016.093.191.191,0,0,1-.048.073.279.279,0,0,1-.072.052.288.288,0,0,1-.088.015.237.237,0,0,1-.08-.015.217.217,0,0,1-.072-.052.306.306,0,0,1-.048-.073.191.191,0,0,1-.016-.093" transform="translate(16322 14135)" fill="#ce6632"/>
    <path id="Path_145019" data-name="Path 145019" d="M270.456,185.258h2.737a.657.657,0,0,1,.224.042.606.606,0,0,1,.208.115.622.622,0,0,1,.152.176.417.417,0,0,1,.064.217v.681H269.4v-.4h.7l.1-3.031.328-.175Zm3.057.823a.469.469,0,0,0-.048-.232.285.285,0,0,0-.12-.125.352.352,0,0,0-.168-.049,1.086,1.086,0,0,0-.176-.01H270.44l-.016.416Z" transform="translate(16322 14135)" fill="#ce6632"/>
    <path id="Path_145020" data-name="Path 145020" d="M274.866,186.415a.654.654,0,0,1-.24-.175.82.82,0,0,1-.16-.25.81.81,0,0,1-.056-.309.765.765,0,0,1,.056-.306.737.737,0,0,1,.16-.25.76.76,0,0,1,.24-.167.735.735,0,0,1,.3-.059.672.672,0,0,1,.288.059.65.65,0,0,1,.232.167,1.006,1.006,0,0,1,.16.25,1.28,1.28,0,0,1,.08.314,1.208,1.208,0,0,1,.016.158c0,.042.008.075.008.11v.132h.048v.4h-.088a2.6,2.6,0,0,1-.12.458,2.123,2.123,0,0,1-.192.375,1.179,1.179,0,0,1-.264.264.742.742,0,0,1-.328.134,1.019,1.019,0,0,0,.168-.191,1.965,1.965,0,0,0,.16-.282,3.091,3.091,0,0,0,.136-.36,2.337,2.337,0,0,0,.08-.4h-.384a.826.826,0,0,1-.3-.075m-.112-.726a.344.344,0,0,0,.032.158.337.337,0,0,0,.088.125.378.378,0,0,0,.128.075.488.488,0,0,0,.16.027h.408v-.393a.424.424,0,0,0-.12-.3.426.426,0,0,0-.128-.09.383.383,0,0,0-.32,0,.346.346,0,0,0-.128.09.471.471,0,0,0-.088.134.748.748,0,0,0-.032.174" transform="translate(16322 14135)" fill="#ce6632"/>
    <path id="Path_145021" data-name="Path 145021" d="M276.651,182.667c.032-.016.056-.032.088-.05a.525.525,0,0,1,.072-.041.3.3,0,0,0,.072-.042.254.254,0,0,1,.08-.042l.128,3.989h-1.168v-.4h.84Z" transform="translate(16322 14135)" fill="#ce6632"/>
    <path id="Path_145022" data-name="Path 145022" d="M277.747,182.675a1.183,1.183,0,0,0,.168-.1c.056-.033.1-.057.16-.09-.016.59-.04,1.181-.056,1.763s-.04,1.175-.056,1.767v.125a.541.541,0,0,0,.016.175.216.216,0,0,0,.048.107.5.5,0,0,1-.136.051.542.542,0,0,1-.1.015c-.056,0-.1-.042-.12-.132a1.6,1.6,0,0,1-.032-.383Z" transform="translate(16322 14135)" fill="#ce6632"/>
    <path id="Path_145023" data-name="Path 145023" d="M281.283,184.892l.352-.175.112,1.763h-1.664a.85.85,0,0,1-.264-.041.929.929,0,0,1-.224-.108,1.232,1.232,0,0,1-.185-.157,1.8,1.8,0,0,1-.151-.184,1.229,1.229,0,0,1-.112-.191c-.032-.068-.056-.124-.081-.184a1.433,1.433,0,0,0,.2.175,1.086,1.086,0,0,0,.24.149,1.363,1.363,0,0,0,.272.1,1.219,1.219,0,0,0,.3.042h1.3Zm-1.392-.393a.319.319,0,0,1,.016-.083.178.178,0,0,1,.04-.065.146.146,0,0,1,.064-.042.235.235,0,0,1,.08-.018.189.189,0,0,1,.144.06.2.2,0,0,1,.056.148.256.256,0,0,1-.016.084.174.174,0,0,1-.04.066.338.338,0,0,1-.064.05.187.187,0,0,1-.16,0,.119.119,0,0,1-.064-.05.175.175,0,0,1-.04-.066.37.37,0,0,1-.016-.084m.28-.458a.26.26,0,0,1,.016-.083.178.178,0,0,1,.04-.065.147.147,0,0,1,.064-.042.236.236,0,0,1,.08-.018.189.189,0,0,1,.144.06.2.2,0,0,1,.056.148.3.3,0,0,1-.016.084.174.174,0,0,1-.04.066.339.339,0,0,1-.064.05.187.187,0,0,1-.16,0,.119.119,0,0,1-.064-.05.174.174,0,0,1-.04-.066.3.3,0,0,1-.016-.084m.28.458a.32.32,0,0,1,.016-.083.178.178,0,0,1,.04-.065.146.146,0,0,1,.064-.042.235.235,0,0,1,.08-.018.189.189,0,0,1,.144.06.2.2,0,0,1,.056.148.256.256,0,0,1-.016.084.175.175,0,0,1-.04.066.339.339,0,0,1-.064.05.214.214,0,0,1-.08.018.257.257,0,0,1-.08-.018.119.119,0,0,1-.064-.05.175.175,0,0,1-.04-.066.372.372,0,0,1-.016-.084" transform="translate(16322 14135)" fill="#ce6632"/>
    <path id="Path_145024" data-name="Path 145024" d="M282.42,182.675a1.183,1.183,0,0,0,.168-.1c.056-.033.1-.057.16-.09-.016.59-.04,1.181-.056,1.763s-.04,1.175-.056,1.767v.125a.54.54,0,0,0,.016.175.216.216,0,0,0,.048.107.5.5,0,0,1-.136.051.542.542,0,0,1-.1.015c-.056,0-.1-.042-.12-.132a1.6,1.6,0,0,1-.032-.383Z" transform="translate(16322 14135)" fill="#ce6632"/>
    <path id="Path_145025" data-name="Path 145025" d="M284.332,185.175l.328-.175.136,1.082h.048v.4h-1.216a2.939,2.939,0,0,1-.032.383,1.143,1.143,0,0,1-.112.343.911.911,0,0,1-.233.265.836.836,0,0,1-.383.151,1.579,1.579,0,0,0,.143-.176,1.4,1.4,0,0,0,.128-.231,1.588,1.588,0,0,0,.1-.292,1.667,1.667,0,0,0,.031-.359c0-.057,0-.134-.007-.208s-.017-.167-.024-.25-.025-.175-.033-.265-.023-.175-.031-.25-.016-.151-.025-.208-.015-.11-.015-.143c.079-.042.143-.083.207-.125s.129-.074.193-.115l.08,1.1h.848Zm-.464-.726a.32.32,0,0,1,.016-.083.166.166,0,0,1,.04-.065.146.146,0,0,1,.064-.042.214.214,0,0,1,.08-.018.189.189,0,0,1,.144.06.2.2,0,0,1,.056.148.291.291,0,0,1-.016.083.172.172,0,0,1-.04.067.339.339,0,0,1-.064.05.236.236,0,0,1-.08.018.289.289,0,0,1-.08-.018.123.123,0,0,1-.064-.05.16.16,0,0,1-.04-.067.245.245,0,0,1-.016-.083m.56,0a.32.32,0,0,1,.016-.083.178.178,0,0,1,.04-.065.146.146,0,0,1,.064-.042.214.214,0,0,1,.08-.018.189.189,0,0,1,.144.06.2.2,0,0,1,.056.148.291.291,0,0,1-.016.083.172.172,0,0,1-.04.067.339.339,0,0,1-.064.05.187.187,0,0,1-.16,0,.123.123,0,0,1-.064-.05.171.171,0,0,1-.04-.067.245.245,0,0,1-.016-.083" transform="translate(16322 14135)" fill="#ce6632"/>
    <path id="Path_145026" data-name="Path 145026" d="M285.493,182.667c.032-.016.056-.032.088-.05a.527.527,0,0,1,.072-.041.3.3,0,0,0,.072-.042.254.254,0,0,1,.08-.042l.128,3.989h-1.168v-.4h.84Z" transform="translate(16322 14135)" fill="#ce6632"/>
    <path id="Path_145027" data-name="Path 145027" d="M286.589,182.675a1.18,1.18,0,0,0,.168-.1c.056-.033.1-.057.16-.09-.016.59-.04,1.181-.056,1.763s-.04,1.175-.056,1.767v.125a.54.54,0,0,0,.016.175.216.216,0,0,0,.048.107.5.5,0,0,1-.136.051.542.542,0,0,1-.1.015c-.056,0-.1-.042-.12-.132a1.6,1.6,0,0,1-.032-.383Z" transform="translate(16322 14135)" fill="#ce6632"/>
    <path id="Path_145028" data-name="Path 145028" d="M288.829,186.032v.092a.689.689,0,0,1-.007.116,2.313,2.313,0,0,1-.1.55,1.744,1.744,0,0,1-.192.448,1.185,1.185,0,0,1-.28.325.865.865,0,0,1-.367.158,1.18,1.18,0,0,0,.183-.209,2.308,2.308,0,0,0,.176-.314,2.541,2.541,0,0,0,.137-.393,1.993,1.993,0,0,0,.064-.431.8.8,0,0,1-.184.083.941.941,0,0,1-.208.033.688.688,0,0,1-.3-.06.728.728,0,0,1-.241-.166.839.839,0,0,1-.16-.25.816.816,0,0,1-.056-.307.8.8,0,0,1,.056-.309.763.763,0,0,1,.16-.249.785.785,0,0,1,.241-.167.712.712,0,0,1,.3-.059.653.653,0,0,1,.287.059.666.666,0,0,1,.232.167.982.982,0,0,1,.16.249,1.32,1.32,0,0,1,.081.316,1.219,1.219,0,0,1,.016.16c0,.042.007.075.007.107Zm-1.191-.343a.4.4,0,0,0,.031.167.375.375,0,0,0,.089.134.453.453,0,0,0,.127.092.366.366,0,0,0,.161.033.359.359,0,0,0,.16-.033.371.371,0,0,0,.127-.092.461.461,0,0,0,.089-.134.4.4,0,0,0,.031-.167.4.4,0,0,0-.031-.166.379.379,0,0,0-.089-.133.468.468,0,0,0-.127-.092.346.346,0,0,0-.16-.033.352.352,0,0,0-.161.033.362.362,0,0,0-.127.092.47.47,0,0,0-.089.133.663.663,0,0,0-.031.166" transform="translate(16322 14135)" fill="#ce6632"/>
    <path id="Path_145029" data-name="Path 145029" d="M290.406,186.455a.752.752,0,0,1-.281-.1.574.574,0,0,1-.2-.192.549.549,0,0,1-.08-.316.954.954,0,0,1,.072-.359.981.981,0,0,1,.225-.316,1.406,1.406,0,0,1,.384-.232,1.687,1.687,0,0,1,.544-.109c0-.042-.008-.084-.008-.134s-.008-.1-.008-.15-.008-.1-.008-.148-.008-.1-.008-.143l.208-.106a1.021,1.021,0,0,0,.152-.1l.136-.092-.168,2.123h.136v.4h-.776a1.85,1.85,0,0,1-.32-.027m.616-.384.056-.856h-.152a1.288,1.288,0,0,0-.232.024.718.718,0,0,0-.232.092.591.591,0,0,0-.184.167.411.411,0,0,0-.072.241.406.406,0,0,0,.024.142.208.208,0,0,0,.08.107.343.343,0,0,0,.136.077.76.76,0,0,0,.2.024Zm-.28-2.688a.3.3,0,0,1,.016-.083.183.183,0,0,1,.04-.066.136.136,0,0,1,.064-.041.214.214,0,0,1,.08-.018.192.192,0,0,1,.144.059.2.2,0,0,1,.056.149.25.25,0,0,1-.016.083.179.179,0,0,1-.04.067.336.336,0,0,1-.064.049.214.214,0,0,1-.08.018.257.257,0,0,1-.08-.018.116.116,0,0,1-.064-.049.179.179,0,0,1-.04-.067.3.3,0,0,1-.016-.083m.56,0a.3.3,0,0,1,.016-.083.183.183,0,0,1,.04-.066.136.136,0,0,1,.064-.041.214.214,0,0,1,.08-.018.192.192,0,0,1,.144.059.2.2,0,0,1,.056.149.25.25,0,0,1-.016.083.179.179,0,0,1-.04.067.336.336,0,0,1-.064.049.119.119,0,0,1-.08.018.214.214,0,0,1-.08-.018.116.116,0,0,1-.064-.049.179.179,0,0,1-.04-.067.3.3,0,0,1-.016-.083" transform="translate(16322 14135)" fill="#ce6632"/>
    <path id="Path_145030" data-name="Path 145030" d="M294.079,186.081a2.865,2.865,0,0,1-.528-.216,3.486,3.486,0,0,1-.488-.315,3.65,3.65,0,0,1-.416-.375,2.411,2.411,0,0,1-.313-.4c.041-.042.073-.083.1-.117a.621.621,0,0,0,.081-.092c.024-.032.048-.056.072-.083s.048-.056.08-.089l.024-.027a4.021,4.021,0,0,0,.207.408,2.726,2.726,0,0,0,.3.391,3.237,3.237,0,0,0,.384.358,2.715,2.715,0,0,0,.48.292,2.87,2.87,0,0,0,1.248.276,1.891,1.891,0,0,0-.064.2,2.09,2.09,0,0,0-.064.2h-3.76v-.4h2.656Z" transform="translate(16322 14135)" fill="#ce6632"/>
    <path id="Path_145031" data-name="Path 145031" d="M295.823,186.48c-.008-.323-.016-.648-.024-.966s-.016-.632-.032-.939-.024-.624-.032-.942-.016-.632-.024-.958c.064-.033.12-.065.176-.091s.1-.057.168-.09l.112,3.588h.048v.4Z" transform="translate(16322 14135)" fill="#ce6632"/>
    <path id="Path_145032" data-name="Path 145032" d="M296.168,186.481v-.4h.96c-.016-.092-.04-.19-.056-.291s-.04-.2-.056-.309-.04-.208-.056-.306-.04-.2-.056-.291c.056-.034.112-.069.16-.093s.1-.059.152-.092l.224,1.374h.049v.4h-1.321Zm.24.641a.3.3,0,0,1,.016-.083.183.183,0,0,1,.04-.066.136.136,0,0,1,.064-.041.214.214,0,0,1,.08-.018.192.192,0,0,1,.144.059.2.2,0,0,1,.056.149.3.3,0,0,1-.016.083.167.167,0,0,1-.04.066.273.273,0,0,1-.064.05.214.214,0,0,1-.08.018.257.257,0,0,1-.08-.018.114.114,0,0,1-.064-.05.167.167,0,0,1-.04-.066.3.3,0,0,1-.016-.083m.56,0a.3.3,0,0,1,.016-.083.183.183,0,0,1,.04-.066.136.136,0,0,1,.064-.041.214.214,0,0,1,.08-.018.192.192,0,0,1,.144.059.2.2,0,0,1,.056.149.3.3,0,0,1-.016.083.167.167,0,0,1-.04.066.273.273,0,0,1-.064.05.187.187,0,0,1-.16,0,.114.114,0,0,1-.064-.05.167.167,0,0,1-.04-.066.3.3,0,0,1-.016-.083" transform="translate(16322 14135)" fill="#ce6632"/>
    <path id="Path_145033" data-name="Path 145033" d="M297.424,186.081h.9c-.008-.083-.008-.166-.016-.249s-.008-.176-.016-.267-.008-.182-.016-.265-.008-.176-.016-.26c.048-.031.1-.058.152-.091a1.074,1.074,0,0,0,.144-.084c.008.144.016.284.024.417s.016.268.016.4.016.256.016.39.016.267.024.408h-1.216Z" transform="translate(16322 14135)" fill="#ce6632"/>
    <path id="Path_145034" data-name="Path 145034" d="M299.8,184.524c.056-.032.112-.059.16-.092a1.027,1.027,0,0,0,.152-.092l.088,1.742h.048v.4h-1.72v-.4h.56c-.016-.1-.024-.208-.04-.318s-.024-.223-.04-.333-.024-.223-.04-.333-.024-.217-.04-.315c.063-.033.12-.068.175-.092s.113-.059.169-.093l.16,1.491h.456Z" transform="translate(16322 14135)" fill="#ce6632"/>
    <path id="Path_145035" data-name="Path 145035" d="M300.161,186.48v-.4h.864l.12-3.415.328-.173-.112,3.588h.088v.4Z" transform="translate(16322 14135)" fill="#ce6632"/>
    <path id="Path_145036" data-name="Path 145036" d="M302.1,182.667c.032-.016.056-.032.088-.05a.528.528,0,0,1,.072-.041.3.3,0,0,0,.072-.042.254.254,0,0,1,.08-.042l.128,3.989h-1.168v-.4h.84Z" transform="translate(16322 14135)" fill="#ce6632"/>
    <path id="Path_145037" data-name="Path 145037" d="M304.106,186.455a.752.752,0,0,1-.281-.1.572.572,0,0,1-.2-.192.541.541,0,0,1-.08-.316.935.935,0,0,1,.072-.359.962.962,0,0,1,.224-.316,1.294,1.294,0,0,1,.384-.232,1.687,1.687,0,0,1,.544-.109c0-.042-.008-.084-.008-.134s-.008-.1-.008-.15-.008-.1-.008-.148-.008-.1-.008-.143l.208-.106a1.018,1.018,0,0,0,.152-.1l.136-.092-.168,2.123h.136v.4h-.776a1.85,1.85,0,0,1-.32-.027m.616-.384.056-.856h-.152a1.287,1.287,0,0,0-.232.024.718.718,0,0,0-.232.092.614.614,0,0,0-.184.167.437.437,0,0,0-.048.383.208.208,0,0,0,.08.107.35.35,0,0,0,.136.077.76.76,0,0,0,.2.024Zm-.28-2.688a.3.3,0,0,1,.016-.083.183.183,0,0,1,.04-.066.137.137,0,0,1,.064-.041.214.214,0,0,1,.08-.018.192.192,0,0,1,.144.059.2.2,0,0,1,.056.149.249.249,0,0,1-.016.083.179.179,0,0,1-.04.067.337.337,0,0,1-.064.049.214.214,0,0,1-.08.018.257.257,0,0,1-.08-.018.116.116,0,0,1-.064-.049.179.179,0,0,1-.04-.067.153.153,0,0,1-.016-.083m.56,0a.3.3,0,0,1,.016-.083.182.182,0,0,1,.04-.066.136.136,0,0,1,.064-.041.214.214,0,0,1,.08-.018.192.192,0,0,1,.144.059.2.2,0,0,1,.056.149.249.249,0,0,1-.016.083.179.179,0,0,1-.04.067.337.337,0,0,1-.064.049.12.12,0,0,1-.08.018.257.257,0,0,1-.08-.018.116.116,0,0,1-.064-.049.178.178,0,0,1-.04-.067.3.3,0,0,1-.016-.083" transform="translate(16322 14135)" fill="#ce6632"/>
    <path id="Path_145038" data-name="Path 145038" d="M305.129,186.08h.857c-.008-.024-.008-.056-.016-.1s-.008-.075-.016-.11a.492.492,0,0,1-.008-.108c0-.032-.008-.058-.008-.074a.788.788,0,0,1,.216-.559,1.041,1.041,0,0,1,.241-.175.69.69,0,0,1,.3-.066.725.725,0,0,1,.3.066.666.666,0,0,1,.24.175,1.067,1.067,0,0,1,.169.25.84.84,0,0,1,.063.309.794.794,0,0,1-.063.307.868.868,0,0,1-.169.25.756.756,0,0,1-.24.166.718.718,0,0,1-.3.059h-1.561Zm1.154-.4a.344.344,0,0,0,.031.158.465.465,0,0,0,.081.125.319.319,0,0,0,.127.083.422.422,0,0,0,.152.033.281.281,0,0,0,.144-.033.3.3,0,0,0,.12-.083.416.416,0,0,0,.08-.125.4.4,0,0,0,0-.315.434.434,0,0,0-.08-.125.3.3,0,0,0-.12-.083.281.281,0,0,0-.144-.033.293.293,0,0,0-.152.033.58.58,0,0,0-.127.083.379.379,0,0,0-.081.125.5.5,0,0,0-.031.157" transform="translate(16322 14135)" fill="#ce6632"/>
    <path id="Path_145039" data-name="Path 145039" d="M308.027,186.48c-.008-.323-.016-.648-.024-.966s-.016-.632-.032-.939-.024-.624-.032-.942-.016-.632-.024-.958c.064-.033.12-.065.176-.091s.1-.057.168-.09l.112,3.588h.048v.4Z" transform="translate(16322 14135)" fill="#ce6632"/>
    <path id="Path_145040" data-name="Path 145040" d="M308.339,186.48v-.4h1.328a5.384,5.384,0,0,1-.232-.493c-.064-.14-.1-.265-.144-.374s-.056-.192-.072-.257a.733.733,0,0,1-.024-.151l.4-.223a1.551,1.551,0,0,0,.024.231,2.377,2.377,0,0,0,.064.352c.032.131.08.282.136.457a5.192,5.192,0,0,0,.232.557c.1-.2.184-.384.248-.542s.113-.306.153-.431.055-.235.072-.326a1.263,1.263,0,0,0,.016-.233v-.092l.383.208a.033.033,0,0,0,.009.027v.074c0,.042-.009.1-.016.167a1.124,1.124,0,0,1-.072.25,2.705,2.705,0,0,1-.145.348c-.064.133-.143.285-.24.458h.633v.4h-2.753Z" transform="translate(16322 14135)" fill="#ce6632"/>
    <path id="Path_145041" data-name="Path 145041" d="M311.74,182.667c.031-.016.056-.032.087-.05a.594.594,0,0,1,.072-.041.3.3,0,0,0,.072-.042.265.265,0,0,1,.08-.042l.128,3.989h-1.168v-.4h.841Z" transform="translate(16322 14135)" fill="#ce6632"/>
    <path id="Path_145042" data-name="Path 145042" d="M312.836,182.675a1.183,1.183,0,0,0,.168-.1c.056-.033.1-.057.16-.09-.016.59-.04,1.181-.056,1.763s-.04,1.175-.056,1.767v.125a.541.541,0,0,0,.016.175.216.216,0,0,0,.048.107.5.5,0,0,1-.136.051.543.543,0,0,1-.1.015c-.056,0-.1-.042-.12-.132a1.6,1.6,0,0,1-.032-.383Z" transform="translate(16322 14135)" fill="#ce6632"/>
    <path id="Path_145043" data-name="Path 145043" d="M314.741,186.455a.752.752,0,0,1-.281-.1.575.575,0,0,1-.2-.192.609.609,0,0,1-.08-.316.935.935,0,0,1,.072-.359.993.993,0,0,1,.224-.316,1.313,1.313,0,0,1,.385-.232,1.682,1.682,0,0,1,.544-.109c0-.042-.008-.084-.008-.134s-.008-.1-.008-.15-.008-.1-.008-.148-.008-.1-.008-.143l.208-.106a1.021,1.021,0,0,0,.152-.1l.136-.092-.168,2.123h.136v.4h-.776a1.85,1.85,0,0,1-.32-.027m.616-.384.056-.856h-.152a1.288,1.288,0,0,0-.232.024.709.709,0,0,0-.232.092.606.606,0,0,0-.185.167.417.417,0,0,0-.071.241.385.385,0,0,0,.024.142.2.2,0,0,0,.08.107.343.343,0,0,0,.136.077.749.749,0,0,0,.2.024Zm-.28-2.688a.3.3,0,0,1,.016-.083.17.17,0,0,1,.04-.066.136.136,0,0,1,.064-.041.21.21,0,0,1,.08-.018.192.192,0,0,1,.144.059.2.2,0,0,1,.056.149.25.25,0,0,1-.016.083.178.178,0,0,1-.04.067.335.335,0,0,1-.064.049.214.214,0,0,1-.08.018.257.257,0,0,1-.08-.018.116.116,0,0,1-.064-.049.167.167,0,0,1-.04-.067.3.3,0,0,1-.016-.083m.56,0a.3.3,0,0,1,.016-.083.183.183,0,0,1,.04-.066.137.137,0,0,1,.064-.041.214.214,0,0,1,.08-.018.192.192,0,0,1,.144.059.2.2,0,0,1,.056.149.25.25,0,0,1-.016.083.178.178,0,0,1-.04.067.335.335,0,0,1-.064.049.119.119,0,0,1-.08.018.214.214,0,0,1-.08-.018.117.117,0,0,1-.064-.049.179.179,0,0,1-.04-.067.3.3,0,0,1-.016-.083" transform="translate(16322 14135)" fill="#ce6632"/>
    <path id="Path_145044" data-name="Path 145044" d="M315.765,186.48v-.4h.864c.008-.065.016-.142.024-.216s.016-.149.024-.232.016-.158.024-.235l.024-.223.328-.176-.088,1.082h.048v.4Zm.232-1.856h.968a.169.169,0,0,0-.008-.058v-.192h-.144a.494.494,0,0,1-.152-.023.335.335,0,0,1-.1-.068.327.327,0,0,1-.064-.092.234.234,0,0,1-.016-.108c0-.166.16-.25.488-.25l-.232-.142c-.008,0-.024-.006-.032-.006h-.032a.59.59,0,0,0-.176.023.644.644,0,0,0-.144.06.333.333,0,0,0-.1.09.206.206,0,0,0-.032.118.579.579,0,0,0,.016.107.348.348,0,0,0,.048.116.561.561,0,0,0,.1.1.366.366,0,0,0,.152.065H316.1Z" transform="translate(16322 14135)" fill="#ce6632"/>
    <path id="Path_145045" data-name="Path 145045" d="M316.94,186.481v-.4h.961c-.016-.092-.04-.19-.056-.291s-.04-.2-.056-.309-.04-.208-.056-.306-.04-.2-.056-.291c.056-.034.112-.069.16-.093s.1-.059.152-.092l.224,1.374h.048v.4H316.94Zm.248.641a.307.307,0,0,1,.017-.083.183.183,0,0,1,.04-.066.136.136,0,0,1,.064-.041.21.21,0,0,1,.08-.018.192.192,0,0,1,.144.059.2.2,0,0,1,.056.149.3.3,0,0,1-.016.083.167.167,0,0,1-.04.066.272.272,0,0,1-.064.05.214.214,0,0,1-.08.018.257.257,0,0,1-.08-.018.114.114,0,0,1-.064-.05.167.167,0,0,1-.04-.066.3.3,0,0,1-.017-.083m.561,0a.3.3,0,0,1,.016-.083.183.183,0,0,1,.04-.066.136.136,0,0,1,.064-.041.214.214,0,0,1,.08-.018.192.192,0,0,1,.144.059.2.2,0,0,1,.056.149.3.3,0,0,1-.016.083.167.167,0,0,1-.04.066.272.272,0,0,1-.064.05.214.214,0,0,1-.08.018.257.257,0,0,1-.08-.018.114.114,0,0,1-.064-.05.167.167,0,0,1-.04-.066.3.3,0,0,1-.016-.083" transform="translate(16322 14135)" fill="#ce6632"/>
    <path id="Path_145046" data-name="Path 145046" d="M319.734,187.388a.633.633,0,0,1-.3-.074.838.838,0,0,1-.248-.2.954.954,0,0,1-.168-.291,1.006,1.006,0,0,1-.064-.342H318.2v-.4h.728c-.008-.1-.016-.191-.016-.283a1.346,1.346,0,0,1,.024-.258.546.546,0,0,1,.088-.208.537.537,0,0,1,.176-.14.739.739,0,0,1,.3-.051h.536c-.008-.042-.008-.083-.016-.133s-.008-.1-.016-.149a.994.994,0,0,1-.016-.152.913.913,0,0,1-.016-.139,1.783,1.783,0,0,0,.168-.093c.056-.032.1-.059.136-.083s.088-.059.128-.092l.056,1.79h.128v.4h-.112a.521.521,0,0,1-.008.083.756.756,0,0,1-.024.173c-.016.069-.04.142-.064.217a.671.671,0,0,1-.128.208.652.652,0,0,1-.208.158.765.765,0,0,1-.3.059m-.464-1.308h.856l-.056-.547h-.536a.305.305,0,0,0-.136.023.2.2,0,0,0-.08.06.286.286,0,0,0-.04.09.473.473,0,0,0-.008.109Zm.464.975a.525.525,0,0,0,.168-.024.286.286,0,0,0,.112-.068.277.277,0,0,0,.072-.1.439.439,0,0,0,.04-.109c.008-.033.008-.065.016-.1v-.175h-.856a.807.807,0,0,0,.024.182.529.529,0,0,0,.08.184.47.47,0,0,0,.136.149.417.417,0,0,0,.208.059" transform="translate(16322 14135)" fill="#ce6632"/>
    <path id="Path_145047" data-name="Path 145047" d="M321.238,182.667c.032-.016.056-.032.088-.05a.527.527,0,0,1,.072-.041.3.3,0,0,0,.072-.042.254.254,0,0,1,.08-.042l.12,3.989H320.5v-.4h.84Z" transform="translate(16322 14135)" fill="#ce6632"/>
    <path id="Path_145048" data-name="Path 145048" d="M322.326,182.675a1.18,1.18,0,0,0,.168-.1c.056-.033.1-.057.16-.09-.016.59-.04,1.181-.056,1.763s-.04,1.175-.056,1.767v.125a.54.54,0,0,0,.016.175.216.216,0,0,0,.048.107.5.5,0,0,1-.136.051.542.542,0,0,1-.1.015c-.056,0-.1-.042-.12-.132a1.6,1.6,0,0,1-.032-.383Z" transform="translate(16322 14135)" fill="#ce6632"/>
    <path id="Path_145049" data-name="Path 145049" d="M265.183,190.277a.84.84,0,0,0,.432.117c.208,0,.328-.1.328-.259,0-.14-.088-.223-.32-.306-.3-.11-.488-.276-.488-.542a.565.565,0,0,1,.632-.541.938.938,0,0,1,.432.092l-.08.274a.781.781,0,0,0-.36-.092c-.208,0-.3.116-.3.226,0,.14.1.208.344.307.312.124.464.284.464.558,0,.3-.216.559-.68.559a1.079,1.079,0,0,1-.488-.119Z" transform="translate(16322 14135)" fill="#ce6632"/>
    <path id="Path_145050" data-name="Path 145050" d="M267.3,190.643l-.024-.148h-.008a.471.471,0,0,1-.384.181.392.392,0,0,1-.408-.4c0-.341.288-.516.768-.508v-.023c0-.094-.032-.235-.264-.235a.671.671,0,0,0-.352.1l-.064-.225a.954.954,0,0,1,.472-.117.5.5,0,0,1,.536.568v.491c0,.125.008.241.016.324H267.3Zm-.04-.657c-.232-.009-.456.051-.456.249a.17.17,0,0,0,.184.191.275.275,0,0,0,.256-.181.245.245,0,0,0,.008-.075v-.184Z" transform="translate(16322 14135)" fill="#ce6632"/>
    <path id="Path_145051" data-name="Path 145051" d="M269.089,190.244c0,.158.008.291.008.408h-.288l-.016-.208h-.008a.458.458,0,0,1-.416.234c-.24,0-.457-.151-.457-.591V189.3h.329v.732c0,.226.072.366.24.366a.277.277,0,0,0,.248-.182.448.448,0,0,0,.016-.11v-.815h.328v.957Z" transform="translate(16322 14135)" fill="#ce6632"/>
    <path id="Path_145052" data-name="Path 145052" d="M270.641,188.678v1.59c0,.144.008.292.008.384h-.3l-.016-.217h-.008a.46.46,0,0,1-.424.242c-.312,0-.552-.275-.552-.691,0-.449.272-.725.584-.725a.427.427,0,0,1,.368.175h.008v-.764h.328Zm-.328,1.183a.4.4,0,0,0-.008-.092.294.294,0,0,0-.28-.241c-.208,0-.328.191-.328.449s.12.425.328.425a.285.285,0,0,0,.28-.24.435.435,0,0,0,.008-.1Z" transform="translate(16322 14135)" fill="#ce6632"/>
    <path id="Path_145053" data-name="Path 145053" d="M271.337,188.919a.184.184,0,0,1-.368,0,.184.184,0,0,1,.368,0m-.344.375h.328v1.349h-.328Z" transform="translate(16322 14135)" fill="#ce6632"/>
    <path id="Path_145054" data-name="Path 145054" d="M273.522,190.593a1.1,1.1,0,0,1-.464.083.869.869,0,0,1-.92-.939.924.924,0,0,1,.96-.993,1.063,1.063,0,0,1,.44.084l-.072.276a.794.794,0,0,0-.352-.075.615.615,0,0,0-.633.69.605.605,0,0,0,.625.675.9.9,0,0,0,.36-.068Z" transform="translate(16322 14135)" fill="#ce6632"/>
    <path id="Path_145055" data-name="Path 145055" d="M274.978,189.96a.652.652,0,0,1-.664.716.641.641,0,0,1-.648-.7.657.657,0,0,1,.672-.716.645.645,0,0,1,.64.7m-.976.017c0,.259.12.458.32.458.184,0,.32-.19.32-.466,0-.208-.088-.45-.312-.45s-.328.233-.328.458" transform="translate(16322 14135)" fill="#ce6632"/>
    <path id="Path_145056" data-name="Path 145056" d="M275.25,189.7c0-.157,0-.282-.008-.4h.28l.016.2h.008a.447.447,0,0,1,.4-.235.377.377,0,0,1,.359.25h.008a.476.476,0,0,1,.161-.166.441.441,0,0,1,.263-.084c.217,0,.433.152.433.583v.8h-.32V189.9c0-.224-.072-.357-.233-.357a.259.259,0,0,0-.231.181.488.488,0,0,0-.017.119v.806h-.32v-.783c0-.19-.072-.323-.224-.323a.252.252,0,0,0-.232.19.256.256,0,0,0-.016.11v.8h-.32v-.94Z" transform="translate(16322 14135)" fill="#ce6632"/>
    <path id="Path_145057" data-name="Path 145057" d="M277.507,189.7c0-.157,0-.282-.008-.4h.28l.016.2h.008a.446.446,0,0,1,.4-.235.379.379,0,0,1,.36.25h.008a.465.465,0,0,1,.16-.166.444.444,0,0,1,.264-.084c.217,0,.432.152.432.583v.8h-.319V189.9c0-.224-.072-.357-.233-.357a.26.26,0,0,0-.232.181.543.543,0,0,0-.016.119v.806h-.32v-.783c0-.19-.072-.323-.224-.323a.252.252,0,0,0-.232.19.256.256,0,0,0-.016.11v.8h-.32v-.94Z" transform="translate(16322 14135)" fill="#ce6632"/>
    <path id="Path_145058" data-name="Path 145058" d="M280.115,188.919a.184.184,0,1,1-.367,0,.172.172,0,0,1,.184-.181.177.177,0,0,1,.183.181m-.352.375h.328v1.349h-.328Z" transform="translate(16322 14135)" fill="#ce6632"/>
    <path id="Path_145059" data-name="Path 145059" d="M280.427,190.336a.664.664,0,0,0,.336.1c.144,0,.208-.06.208-.151s-.056-.14-.216-.2c-.256-.092-.36-.232-.36-.392a.439.439,0,0,1,.488-.423.729.729,0,0,1,.345.084l-.065.241a.569.569,0,0,0-.272-.075c-.12,0-.184.057-.184.14s.064.125.224.193c.232.09.344.215.344.417,0,.241-.184.422-.528.422a.872.872,0,0,1-.392-.09Z" transform="translate(16322 14135)" fill="#ce6632"/>
    <path id="Path_145060" data-name="Path 145060" d="M281.54,190.336a.664.664,0,0,0,.336.1c.144,0,.208-.06.208-.151s-.056-.14-.216-.2c-.256-.092-.36-.232-.36-.392a.439.439,0,0,1,.488-.423.722.722,0,0,1,.344.084l-.064.241a.569.569,0,0,0-.272-.075c-.12,0-.184.057-.184.14s.064.125.224.193c.232.09.344.215.344.417,0,.241-.184.422-.528.422a.873.873,0,0,1-.392-.09Z" transform="translate(16322 14135)" fill="#ce6632"/>
    <path id="Path_145061" data-name="Path 145061" d="M283.012,188.919a.184.184,0,0,1-.368,0,.184.184,0,0,1,.368,0m-.344.375H283v1.349h-.328Z" transform="translate(16322 14135)" fill="#ce6632"/>
    <path id="Path_145062" data-name="Path 145062" d="M284.58,189.96a.652.652,0,0,1-.664.716.641.641,0,0,1-.648-.7.657.657,0,0,1,.672-.716.645.645,0,0,1,.64.7m-.976.017c0,.259.12.458.32.458.184,0,.32-.19.32-.466,0-.208-.088-.45-.312-.45-.24,0-.328.233-.328.458" transform="translate(16322 14135)" fill="#ce6632"/>
    <path id="Path_145063" data-name="Path 145063" d="M284.845,189.7c0-.157,0-.282-.009-.4h.289l.016.2h.007a.465.465,0,0,1,.416-.235c.224,0,.465.152.465.583v.8H285.7v-.765c0-.193-.072-.341-.249-.341a.277.277,0,0,0-.255.2.513.513,0,0,0-.016.108v.791h-.328v-.94Z" transform="translate(16322 14135)" fill="#ce6632"/>
    <path id="Path_145064" data-name="Path 145064" d="M286.957,190.643v-1.1h-.176v-.256h.176v-.06a.637.637,0,0,1,.16-.458.493.493,0,0,1,.336-.133.693.693,0,0,1,.208.033l-.024.267a.291.291,0,0,0-.136-.024c-.16,0-.216.14-.216.306v.069h.288v.256h-.28v1.1Z" transform="translate(16322 14135)" fill="#ce6632"/>
    <path id="Path_145065" data-name="Path 145065" d="M288.973,189.96a.652.652,0,0,1-.664.716.641.641,0,0,1-.648-.7.657.657,0,0,1,.672-.716.645.645,0,0,1,.64.7m-.976.017c0,.259.12.458.32.458.184,0,.32-.19.32-.466,0-.208-.088-.45-.312-.45s-.328.233-.328.458" transform="translate(16322 14135)" fill="#ce6632"/>
    <path id="Path_145066" data-name="Path 145066" d="M289.246,189.736c0-.184,0-.315-.008-.433h.288l.008.258h.008a.394.394,0,0,1,.352-.291.272.272,0,0,1,.08.008v.324a.329.329,0,0,0-.1-.008.3.3,0,0,0-.3.258.474.474,0,0,0-.008.11v.7h-.328Z" transform="translate(16322 14135)" fill="#ce6632"/>
    <path id="Path_145067" data-name="Path 145067" d="M290.99,189.061h-.512v-.281h1.352v.281h-.52v1.582h-.328v-1.582Z" transform="translate(16322 14135)" fill="#ce6632"/>
    <path id="Path_145068" data-name="Path 145068" d="M293.063,189.96a.653.653,0,0,1-.665.716.641.641,0,0,1-.648-.7.657.657,0,0,1,.672-.716.645.645,0,0,1,.641.7m-.977.017c0,.259.12.458.32.458.184,0,.32-.19.32-.466,0-.208-.088-.45-.312-.45-.24,0-.328.233-.328.458" transform="translate(16322 14135)" fill="#ce6632"/>
    <path id="Path_145069" data-name="Path 145069" d="M294.495,190.244c0,.158.008.291.008.408h-.288l-.016-.208h-.008a.458.458,0,0,1-.416.234c-.24,0-.457-.151-.457-.591V189.3h.329v.732c0,.226.072.366.24.366a.277.277,0,0,0,.248-.182.448.448,0,0,0,.016-.11v-.815h.328v.957Z" transform="translate(16322 14135)" fill="#ce6632"/>
    <path id="Path_145070" data-name="Path 145070" d="M294.847,189.736c0-.184,0-.315-.008-.433h.288l.008.258h.008a.394.394,0,0,1,.352-.291.272.272,0,0,1,.08.008v.324a.329.329,0,0,0-.1-.008.3.3,0,0,0-.3.258.473.473,0,0,0-.008.11v.7h-.328Z" transform="translate(16322 14135)" fill="#ce6632"/>
    <path id="Path_145071" data-name="Path 145071" d="M296.144,188.919a.185.185,0,0,1-.369,0,.173.173,0,0,1,.185-.181.177.177,0,0,1,.184.181m-.352.375h.328v1.349h-.328Z" transform="translate(16322 14135)" fill="#ce6632"/>
    <path id="Path_145072" data-name="Path 145072" d="M296.456,190.336a.664.664,0,0,0,.336.1c.144,0,.208-.06.208-.151s-.056-.14-.216-.2c-.256-.092-.36-.232-.36-.392a.439.439,0,0,1,.488-.423.722.722,0,0,1,.344.084l-.064.241a.569.569,0,0,0-.272-.075c-.12,0-.184.057-.184.14s.064.125.224.193c.232.09.344.215.344.417,0,.241-.184.422-.528.422a.873.873,0,0,1-.392-.09Z" transform="translate(16322 14135)" fill="#ce6632"/>
    <path id="Path_145073" data-name="Path 145073" d="M297.584,189.7c0-.157,0-.282-.008-.4h.28l.016.2h.008a.446.446,0,0,1,.4-.235.379.379,0,0,1,.36.25h.008a.467.467,0,0,1,.161-.166.439.439,0,0,1,.263-.084c.217,0,.433.152.433.583v.8h-.32V189.9c0-.224-.072-.357-.233-.357a.261.261,0,0,0-.232.181.543.543,0,0,0-.016.119v.806h-.32v-.783c0-.19-.072-.323-.224-.323a.252.252,0,0,0-.232.19.256.256,0,0,0-.016.11v.8h-.32v-.94Z" transform="translate(16322 14135)" fill="#ce6632"/>
    <path id="Path_145074" data-name="Path 145074" d="M301.545,190.643c-.047-.05-.088-.092-.144-.158a.753.753,0,0,1-.5.185.532.532,0,0,1-.592-.526.617.617,0,0,1,.344-.542v-.008a.605.605,0,0,1-.144-.375.478.478,0,0,1,.5-.482.415.415,0,0,1,.448.416c0,.191-.1.351-.368.491v.009c.128.149.264.316.36.425a1.356,1.356,0,0,0,.161-.5h.3a1.369,1.369,0,0,1-.28.7c.1.117.2.226.312.351h-.392Zm-.3-.341c-.112-.117-.28-.316-.448-.515a.371.371,0,0,0-.184.315.319.319,0,0,0,.328.333.421.421,0,0,0,.3-.133m-.44-1.107a.447.447,0,0,0,.128.3c.152-.1.24-.185.24-.318a.188.188,0,0,0-.176-.208.2.2,0,0,0-.192.225" transform="translate(16322 14135)" fill="#ce6632"/>
    <path id="Path_145075" data-name="Path 145075" d="M302.673,190.643V188.78h.376l.464.8a4.831,4.831,0,0,1,.3.625h.008c-.024-.25-.032-.494-.032-.777v-.647h.3v1.863h-.337l-.472-.823a6.886,6.886,0,0,1-.32-.651h-.008c.016.243.016.493.016.8v.666h-.3Z" transform="translate(16322 14135)" fill="#ce6632"/>
    <path id="Path_145076" data-name="Path 145076" d="M305.194,190.643l-.024-.148h-.008a.471.471,0,0,1-.384.181.392.392,0,0,1-.408-.4c0-.341.288-.516.768-.508v-.023c0-.094-.032-.235-.264-.235a.671.671,0,0,0-.352.1l-.064-.225a.953.953,0,0,1,.472-.117.5.5,0,0,1,.536.568v.491c0,.125.008.241.016.324h-.288Zm-.048-.657c-.232-.009-.456.051-.456.249a.17.17,0,0,0,.184.191.275.275,0,0,0,.256-.181.246.246,0,0,0,.008-.075v-.184Z" transform="translate(16322 14135)" fill="#ce6632"/>
    <path id="Path_145077" data-name="Path 145077" d="M306.17,188.912v.384h.312v.258h-.312v.6c0,.167.04.25.168.25a.622.622,0,0,0,.128-.015l.008.256a.771.771,0,0,1-.24.035.361.361,0,0,1-.28-.109.532.532,0,0,1-.1-.375v-.633h-.184V189.3h.184v-.31Z" transform="translate(16322 14135)" fill="#ce6632"/>
    <path id="Path_145078" data-name="Path 145078" d="M307.083,188.919a.184.184,0,0,1-.368,0,.184.184,0,0,1,.368,0m-.352.375h.328v1.349h-.328Z" transform="translate(16322 14135)" fill="#ce6632"/>
    <path id="Path_145079" data-name="Path 145079" d="M308.651,189.96a.652.652,0,0,1-.664.716.641.641,0,0,1-.648-.7.657.657,0,0,1,.672-.716.649.649,0,0,1,.64.7m-.984.017c0,.259.12.458.32.458.184,0,.32-.19.32-.466,0-.208-.088-.45-.312-.45s-.328.233-.328.458" transform="translate(16322 14135)" fill="#ce6632"/>
    <path id="Path_145080" data-name="Path 145080" d="M308.915,189.7c0-.157,0-.282-.008-.4h.288l.016.2h.008a.464.464,0,0,1,.416-.235c.224,0,.464.152.464.583v.8h-.328v-.765c0-.193-.072-.341-.248-.341a.279.279,0,0,0-.256.2.513.513,0,0,0-.016.108v.791h-.328v-.94Z" transform="translate(16322 14135)" fill="#ce6632"/>
    <path id="Path_145081" data-name="Path 145081" d="M311.171,190.643l-.024-.148h-.008a.471.471,0,0,1-.384.181.392.392,0,0,1-.408-.4c0-.341.288-.516.768-.508v-.023c0-.094-.032-.235-.264-.235a.671.671,0,0,0-.352.1l-.064-.225a.954.954,0,0,1,.472-.117.5.5,0,0,1,.536.568v.491c0,.125.008.241.016.324h-.288Zm-.048-.657c-.232-.009-.456.051-.456.249a.17.17,0,0,0,.184.191.275.275,0,0,0,.256-.181.246.246,0,0,0,.008-.075v-.184Z" transform="translate(16322 14135)" fill="#ce6632"/>
    <rect id="Rectangle_17611" data-name="Rectangle 17611" width="0.328" height="1.965" transform="translate(16633.797 14323.678)" fill="#ce6632"/>
    <path id="Path_145082" data-name="Path 145082" d="M313.372,188.779v.749h.76v-.749h.328v1.864h-.328v-.824h-.76v.824h-.328v-1.864Z" transform="translate(16322 14135)" fill="#ce6632"/>
    <path id="Path_145083" data-name="Path 145083" d="M315.045,190.069a.36.36,0,0,0,.4.351,1.06,1.06,0,0,0,.36-.06l.048.235a1.16,1.16,0,0,1-.456.083.627.627,0,0,1-.672-.684.656.656,0,0,1,.632-.725c.424,0,.56.36.56.66,0,.065-.008.116-.008.14Zm.576-.241c0-.125-.048-.334-.272-.334-.2,0-.288.192-.3.334Z" transform="translate(16322 14135)" fill="#ce6632"/>
    <path id="Path_145084" data-name="Path 145084" d="M316.189,189.736c0-.184,0-.315-.008-.433h.288l.008.258h.008a.394.394,0,0,1,.352-.291.272.272,0,0,1,.08.008v.324a.329.329,0,0,0-.1-.008.3.3,0,0,0-.3.258.474.474,0,0,0-.008.11v.7h-.328Z" transform="translate(16322 14135)" fill="#ce6632"/>
    <path id="Path_145085" data-name="Path 145085" d="M317.485,188.919a.184.184,0,1,1-.368,0,.184.184,0,0,1,.368,0m-.344.375h.328v1.349h-.328Z" transform="translate(16322 14135)" fill="#ce6632"/>
    <path id="Path_145086" data-name="Path 145086" d="M318.2,188.912v.384h.311v.258H318.2v.6c0,.167.039.25.168.25a.611.611,0,0,0,.127-.015l.008.256a.764.764,0,0,1-.239.035.36.36,0,0,1-.28-.109.528.528,0,0,1-.1-.375v-.633h-.185V189.3h.185v-.31Z" transform="translate(16322 14135)" fill="#ce6632"/>
    <path id="Path_145087" data-name="Path 145087" d="M319.486,190.643l-.024-.148h-.008a.471.471,0,0,1-.384.181.392.392,0,0,1-.408-.4c0-.341.288-.516.768-.508v-.023c0-.094-.032-.235-.264-.235a.671.671,0,0,0-.352.1l-.064-.225a.954.954,0,0,1,.472-.117.5.5,0,0,1,.536.568v.491c0,.125.008.241.016.324h-.288Zm-.048-.657c-.232-.009-.456.051-.456.249a.17.17,0,0,0,.184.191.275.275,0,0,0,.256-.181.246.246,0,0,0,.008-.075v-.184Z" transform="translate(16322 14135)" fill="#ce6632"/>
    <path id="Path_145088" data-name="Path 145088" d="M321.294,189.295c-.008.093-.008.2-.008.393v.764a.815.815,0,0,1-.192.616.727.727,0,0,1-.5.166.875.875,0,0,1-.456-.107l.072-.259a.748.748,0,0,0,.376.1c.216,0,.376-.117.376-.408v-.118h-.008a.433.433,0,0,1-.376.2.592.592,0,0,1-.552-.659.643.643,0,0,1,.592-.714.406.406,0,0,1,.376.208H321l.016-.185Zm-.344.541a.338.338,0,0,0-.008-.092.27.27,0,0,0-.264-.216c-.184,0-.32.166-.32.443,0,.231.112.416.32.416a.275.275,0,0,0,.264-.208.582.582,0,0,0,.016-.125v-.218Z" transform="translate(16322 14135)" fill="#ce6632"/>
    <path id="Path_145089" data-name="Path 145089" d="M321.862,190.069a.361.361,0,0,0,.4.351,1.06,1.06,0,0,0,.36-.06l.049.235a1.164,1.164,0,0,1-.456.083.626.626,0,0,1-.672-.684.655.655,0,0,1,.631-.725c.425,0,.56.36.56.66,0,.065-.007.116-.007.14Zm.569-.241c0-.125-.048-.334-.272-.334-.2,0-.289.192-.3.334Z" transform="translate(16322 14135)" fill="#ce6632"/>
    <path id="Path_145090" data-name="Path 145090" d="M285.333,127.268a.342.342,0,0,0-.2.434.332.332,0,0,0,.424.208,17.851,17.851,0,0,1,6.578-.833,19.129,19.129,0,0,1,8.874,2.713.319.319,0,0,0,.448-.125.343.343,0,0,0-.12-.464,19.68,19.68,0,0,0-9.162-2.816,18.486,18.486,0,0,0-6.842.883" transform="translate(16322 14135)" fill="#eeb143"/>
    <path id="Path_145091" data-name="Path 145091" d="M294.031,130.448c-5.473,1.44-10.283,7.494-12.587,10.407l-1.2,1.434a.392.392,0,0,0,0,.514.272.272,0,0,0,.416.009l1.288-1.522c2.264-2.849,6.978-8.793,12.251-10.184,4.145-1.091,7.954.966,11.019,5.961a.319.319,0,0,0,.456.11.347.347,0,0,0,.1-.476c-4.081-6.651-8.634-7.076-11.739-6.253" transform="translate(16322 14135)" fill="#d8703c"/>
    <path id="Path_145092" data-name="Path 145092" d="M287.893,133.13c-3.409.684-6.026,3.821-7.754,9.316a.341.341,0,0,0,.208.424.315.315,0,0,0,.416-.216c1.657-5.245,4.1-8.225,7.258-8.867,6.738-1.34,15.06,8.236,17.452,11.207l.152.2a.3.3,0,0,0,.449.017.35.35,0,0,0,.024-.481l-.128-.175c-3.137-3.89-11.187-12.807-18.077-11.424" transform="translate(16322 14135)" fill="#53a3b4"/>
    <path id="Path_145093" data-name="Path 145093" d="M296.367,135.185c-6.938.916-13.723,12.822-13.731,12.932a.347.347,0,0,0,.224.356.305.305,0,0,0,.376-.148c.071-.135,7.537-13.156,14.508-12.482,3.16.309,5.785,3.413,7.809,9.235a.321.321,0,0,0,.417.208.341.341,0,0,0,.2-.434c-2.416-6.951-5.713-10.2-9.8-9.667" transform="translate(16322 14135)" fill="#056fa7"/>
    <path id="Path_145094" data-name="Path 145094" d="M285.189,127.375a.358.358,0,0,0,.1.477.318.318,0,0,0,.448-.11c1.12-1.864,2.257-2.706,3.377-2.506,3.169.558,6.706,9.527,9.979,24.5a.325.325,0,1,0,.632-.148c-2.353-10.79-6.082-24.245-10.5-25.021-1.4-.265-2.76.683-4.041,2.805" transform="translate(16322 14135)" fill="#7f6bac"/>
    <path id="Path_145095" data-name="Path 145095" d="M282.652,148.048a.341.341,0,0,0,.216.426.331.331,0,0,0,.408-.234c1.777-6.185,3.753-9.382,5.562-9.007,3.888.791,6.841,16.1,5.921,25.868a.351.351,0,0,0,.288.383.343.343,0,0,0,.361-.309c.888-9.351-1.769-25.659-6.45-26.617-2.249-.457-4.369,2.738-6.306,9.49" transform="translate(16322 14135)" fill="#34b369"/>
    <path id="Path_145096" data-name="Path 145096" d="M282.084,134.728a.351.351,0,0,0,.008.482.308.308,0,0,0,.464-.015c.1-.1,9.563-10.623,15.068-9.292,1.512.375,2.6,1.606,3.241,3.7a.328.328,0,0,0,.416.216.338.338,0,0,0,.208-.424c-.712-2.331-1.961-3.722-3.713-4.145-5.873-1.424-15.3,9.057-15.692,9.482" transform="translate(16322 14135)" fill="#056fa7"/>
    <path id="Path_145097" data-name="Path 145097" d="M285.557,129.416c-1.952.851-3.145,2.7-3.561,5.5a.345.345,0,0,0,.272.392.329.329,0,0,0,.368-.285c.376-2.554,1.449-4.227,3.169-4.977,6.282-2.732,19.357,7.017,19.485,7.118a.315.315,0,0,0,.456-.084.341.341,0,0,0-.072-.466c-.536-.425-13.507-10.083-20.117-7.2" transform="translate(16322 14135)" fill="#ee4d4a"/>
    <path id="Path_145098" data-name="Path 145098" d="M271.721,156.691a.336.336,0,0,0,.312.357c.136.009,13.948.684,22.838,8.361a.323.323,0,0,0,.464-.051.351.351,0,0,0-.04-.475c-9.058-7.826-23.086-8.507-23.23-8.507a.321.321,0,0,0-.344.315" transform="translate(16322 14135)" fill="#ee4d4a"/>
    <path id="Path_145099" data-name="Path 145099" d="M271.729,156.625a.336.336,0,0,0,.248.408c17.949,4.254,23.959,16.784,24.014,16.917a.311.311,0,0,0,.433.152.342.342,0,0,0,.152-.458c-.056-.133-6.186-12.948-24.455-17.277a.334.334,0,0,0-.392.258" transform="translate(16322 14135)" fill="#d8703c"/>
    <path id="Path_145100" data-name="Path 145100" d="M315.741,156.366a33.25,33.25,0,0,0-25.127,21.064.34.34,0,0,0,.216.425.319.319,0,0,0,.408-.217,32.572,32.572,0,0,1,24.623-20.6.342.342,0,0,0,.264-.4.338.338,0,0,0-.384-.275" transform="translate(16322 14135)" fill="#53a3b4"/>
    <path id="Path_145101" data-name="Path 145101" d="M315.684,156.391c-.136.06-13.884,5.869-19.685,17.251a.345.345,0,0,0,.128.458.324.324,0,0,0,.448-.142c5.69-11.156,19.213-16.876,19.349-16.942a.345.345,0,0,0,.184-.44.314.314,0,0,0-.424-.185" transform="translate(16322 14135)" fill="#eeb143"/>
    <path id="Path_145102" data-name="Path 145102" d="M297.12,140.581c-3.361,2.141-8.418,16.345-6.5,37.018a.326.326,0,1,0,.649-.06c-1.865-20.1,3.032-34.359,6.185-36.375.552-.35.841-.157.936-.1.384.249,1.561,1.623.777,8.652a.341.341,0,0,0,.288.374.324.324,0,0,0,.36-.3c.568-5.152.192-8.459-1.073-9.3a1.389,1.389,0,0,0-1.624.092" transform="translate(16322 14135)" fill="#056fa7"/>
  </g>
</svg>
