<svg xmlns="http://www.w3.org/2000/svg" width="59.053" height="39.854" viewBox="0 0 59.053 39.854">
  <g id="Client_71" transform="translate(-16685.773 -14705.522)">
    <path id="Path_144830" data-name="Path 144830" d="M409.308,585.9a4.031,4.031,0,0,1-1.076.441c-1.115.041-2.233.016-3.453.016v1.642c-2.466,0-4.836.1-7.193-.036-1.633-.092-2.4-1.23-2.374-2.959.02-1.556,0-3.114,0-4.737h1.344c0,1.571,0,3.123,0,4.678,0,1.3.289,1.636,1.515,1.649,1.77.022,3.541.005,5.426.005V581.1h1.246c0,.924.043,1.855-.013,2.777a1.043,1.043,0,0,0,.952,1.233,5.6,5.6,0,0,0,1.624.039c.157-.02.377-.42.386-.652.04-1.1.018-2.205.018-3.37h1.179c0,.754,0,1.483,0,2.209.01,1.131.313,1.526,1.361,1.766a2.865,2.865,0,0,0,.567.072c.406.011.812,0,1.358,0v-4.054h1.191v5.208c-1.461-.051-2.941.367-4.064-.437" transform="translate(16322 14135)" fill="#115c8d"/>
    <path id="Path_144831" data-name="Path 144831" d="M404.854,590.82c1.819,0,3.645-.1,5.457.036a2.41,2.41,0,0,1,2.1,2.622c.056,2.178.014,4.36.014,6.543a47.462,47.462,0,0,1-5.729-.051,2.823,2.823,0,0,1,.685-5.577c1.172,0,2.345-.012,3.518-.021a.5.5,0,0,0,.148-.056c.334-1.413-.335-2.334-1.717-2.342-1.471-.008-2.942,0-4.481,0Zm6.239,7.857v-2.824c-1.4,0-2.727-.035-4.053.011a1.333,1.333,0,0,0-1.311,1.5,1.22,1.22,0,0,0,1.38,1.306c1.3.024,2.6.006,3.984.006" transform="translate(16322 14135)" fill="#115c8d"/>
    <path id="Path_144832" data-name="Path 144832" d="M422.091,590.823v1.146c-1.643,0-3.271-.007-4.9.009a1.984,1.984,0,0,0-.941.191,1.394,1.394,0,0,0-.706,1.651,1.355,1.355,0,0,0,1.4,1.068c.955.015,1.91.013,2.864,0a2.447,2.447,0,0,1,2.485,1.557,2.517,2.517,0,0,1-.457,2.835,2.47,2.47,0,0,1-1.445.817c-1.982.093-3.97.039-5.992.039v-1.171q1.9,0,3.8,0c.546,0,1.091.015,1.637,0a1.326,1.326,0,0,0,1.412-1.4,1.265,1.265,0,0,0-1.32-1.47c-1.061-.047-2.127,0-3.19-.026a2.437,2.437,0,0,1-2.418-2.456,2.509,2.509,0,0,1,2.1-2.763c1.87-.091,3.748-.026,5.662-.026" transform="translate(16322 14135)" fill="#115c8d"/>
    <path id="Path_144833" data-name="Path 144833" d="M396.472,599.689h-1.28v-8.843c1.93,0,3.83-.075,5.72.03.987.055,1.732,1.083,1.919,2.25a5.394,5.394,0,0,1,.062.844c.005,1.894,0,3.785,0,5.722h-1.325v-1.076c0-1.616.007-3.233,0-4.85-.006-.924-.377-1.394-1.252-1.439-1.114-.06-2.233-.009-3.35-.024-.567-.008-.492.411-.493.765-.007,1.815,0,3.631,0,5.444Z" transform="translate(16322 14135)" fill="#115c8d"/>
    <path id="Path_144834" data-name="Path 144834" d="M421.155,585.73v-3.58h1.367v5.036c-1.495,0-2.982.035-4.465-.016a6.45,6.45,0,0,1-1.976-.362,1.967,1.967,0,0,1-1.279-1.823c-.07-2.283-.025-4.571-.025-6.9h1.3c0,.913,0,1.808,0,2.7,0,1.217,0,2.435,0,3.653,0,.682.312,1.226.963,1.264,1.348.074,2.7.021,4.118.021" transform="translate(16322 14135)" fill="#115c8d"/>
    <rect id="Rectangle_17605" data-name="Rectangle 17605" width="1.172" height="1.066" transform="translate(16740.08 14715.651)" fill="#115c8d"/>
    <path id="Path_144835" data-name="Path 144835" d="M380.881,578.869v-8.346l-8.022,8.346Z" transform="translate(16322 14135)" fill="#3a77a5"/>
    <path id="Path_144836" data-name="Path 144836" d="M380.881,579.38h-8.022l8.022,8.347Z" transform="translate(16322 14135)" fill="#115c8d"/>
    <path id="Path_144837" data-name="Path 144837" d="M381.372,578.869h8.022l-8.022-8.346Z" transform="translate(16322 14135)" fill="#5e97c5"/>
    <path id="Path_144838" data-name="Path 144838" d="M381.372,579.38v8.347l8.022-8.347Z" transform="translate(16322 14135)" fill="#86c6ec"/>
    <path id="Path_144839" data-name="Path 144839" d="M380.881,597.947V589.6l-8.022,8.347Z" transform="translate(16322 14135)" fill="#878b8f"/>
    <path id="Path_144840" data-name="Path 144840" d="M380.881,598.458h-8.022l8.022,8.347Z" transform="translate(16322 14135)" fill="#707578"/>
    <path id="Path_144841" data-name="Path 144841" d="M381.372,597.947h8.022l-8.022-8.347Z" transform="translate(16322 14135)" fill="#94989a"/>
    <path id="Path_144842" data-name="Path 144842" d="M381.372,598.458V606.8l8.022-8.347Z" transform="translate(16322 14135)" fill="#a9adaf"/>
    <path id="Path_144843" data-name="Path 144843" d="M371.8,588.323v-8.347l-8.022,8.347Z" transform="translate(16322 14135)" fill="#8ad0cc"/>
    <path id="Path_144844" data-name="Path 144844" d="M371.8,588.833h-8.022l8.022,8.347Z" transform="translate(16322 14135)" fill="#119d8a"/>
    <path id="Path_144845" data-name="Path 144845" d="M372.286,588.323h8.022l-8.022-8.347Z" transform="translate(16322 14135)" fill="#5bc1b0"/>
    <path id="Path_144846" data-name="Path 144846" d="M372.286,588.833v8.347l8.022-8.347Z" transform="translate(16322 14135)" fill="#5bc1b0"/>
    <path id="Path_144847" data-name="Path 144847" d="M395.853,605.742a.759.759,0,0,1-.217-.033.776.776,0,0,1-.582-.816v-.177a.633.633,0,0,1,.659-.6h.063a.869.869,0,0,1,.714.314,1.8,1.8,0,0,1,.214,1.155h.221v.162Zm.346-.2c.161-.008.265-.014.314-.014v-.519a.853.853,0,0,0-.031-.218.722.722,0,0,0-.714-.516.518.518,0,0,0-.552.528.916.916,0,0,0,.152.542.705.705,0,0,0,.493.214l.264-.012v-.005Zm-.487-1.985a.146.146,0,0,1,.041.1.144.144,0,0,1-.041.1.132.132,0,0,1-.1.043.136.136,0,0,1-.1-.043.139.139,0,0,1-.04-.1.14.14,0,0,1,.139-.143.134.134,0,0,1,.1.042m.45,0a.141.141,0,0,1,.041.1.139.139,0,0,1-.041.1.135.135,0,0,1-.2,0,.14.14,0,0,1-.041-.1.141.141,0,0,1,.041-.1.138.138,0,0,1,.2,0" transform="translate(16322 14135)" fill="#115c8d"/>
    <path id="Path_144848" data-name="Path 144848" d="M395.853,605.742a.759.759,0,0,1-.217-.033.776.776,0,0,1-.582-.816v-.177a.633.633,0,0,1,.659-.6h.063a.869.869,0,0,1,.714.314,1.8,1.8,0,0,1,.214,1.155h.221v.162Zm.346-.2c.161-.008.265-.014.314-.014v-.519a.853.853,0,0,0-.031-.218.722.722,0,0,0-.714-.516.518.518,0,0,0-.552.528.916.916,0,0,0,.152.542.705.705,0,0,0,.493.214l.264-.012v-.005Zm-.487-1.985a.146.146,0,0,1,.041.1.144.144,0,0,1-.041.1.132.132,0,0,1-.1.043.136.136,0,0,1-.1-.043.139.139,0,0,1-.04-.1.14.14,0,0,1,.139-.143A.134.134,0,0,1,395.712,603.554Zm.45,0a.141.141,0,0,1,.041.1.139.139,0,0,1-.041.1.135.135,0,0,1-.2,0,.14.14,0,0,1-.041-.1.141.141,0,0,1,.041-.1.138.138,0,0,1,.2,0Z" transform="translate(16322 14135)" fill="none" stroke="#115c8d" stroke-miterlimit="10" stroke-width="0.5"/>
    <path id="Path_144849" data-name="Path 144849" d="M396.874,605.58h.432a.2.2,0,0,0,.182-.064c.062,0,.093-.232.093-.694v-.68c0-.019.01-.028.031-.031h.093c.018,0,.029.009.032.031v.761a2.735,2.735,0,0,1-.047.6.379.379,0,0,1-.384.244h-.432Zm.3.475a.141.141,0,0,1,.041.1.136.136,0,0,1-.041.1.126.126,0,0,1-.1.043.133.133,0,0,1-.1-.043.136.136,0,0,1-.041-.1.142.142,0,0,1,.14-.142.132.132,0,0,1,.1.042m.451,0a.141.141,0,0,1,.041.1.136.136,0,0,1-.041.1.133.133,0,0,1-.1.043.13.13,0,0,1-.1-.043.136.136,0,0,1-.041-.1.141.141,0,0,1,.041-.1.136.136,0,0,1,.1-.042.14.14,0,0,1,.1.042" transform="translate(16322 14135)" fill="#115c8d"/>
    <path id="Path_144850" data-name="Path 144850" d="M396.874,605.58h.432a.2.2,0,0,0,.182-.064c.062,0,.093-.232.093-.694v-.68c0-.019.01-.028.031-.031h.093c.018,0,.029.009.032.031v.761a2.735,2.735,0,0,1-.047.6.379.379,0,0,1-.384.244h-.432Zm.3.475a.141.141,0,0,1,.041.1.136.136,0,0,1-.041.1.126.126,0,0,1-.1.043.133.133,0,0,1-.1-.043.136.136,0,0,1-.041-.1.142.142,0,0,1,.14-.142A.132.132,0,0,1,397.171,606.055Zm.451,0a.141.141,0,0,1,.041.1.136.136,0,0,1-.041.1.133.133,0,0,1-.1.043.13.13,0,0,1-.1-.043.136.136,0,0,1-.041-.1.141.141,0,0,1,.041-.1.136.136,0,0,1,.1-.042A.14.14,0,0,1,397.622,606.055Z" transform="translate(16322 14135)" fill="none" stroke="#115c8d" stroke-miterlimit="10" stroke-width="0.5"/>
    <path id="Path_144851" data-name="Path 144851" d="M399.174,605.742a.8.8,0,0,1-.625.626.476.476,0,0,1-.14.018h-.093c-.249,0-.373-.023-.373-.066a.293.293,0,0,1,.031-.13,2.615,2.615,0,0,0,.388.049.635.635,0,0,0,.641-.5l.023-.178v-1.432h.171c.008.814.009,1.3,0,1.449h.225v.161Z" transform="translate(16322 14135)" fill="#115c8d"/>
    <path id="Path_144852" data-name="Path 144852" d="M399.174,605.742a.8.8,0,0,1-.625.626.476.476,0,0,1-.14.018h-.093c-.249,0-.373-.023-.373-.066a.293.293,0,0,1,.031-.13,2.615,2.615,0,0,0,.388.049.635.635,0,0,0,.641-.5l.023-.178v-1.432h.171c.008.814.009,1.3,0,1.449h.225v.161Z" transform="translate(16322 14135)" fill="none" stroke="#115c8d" stroke-miterlimit="10" stroke-width="0.5"/>
    <path id="Path_144853" data-name="Path 144853" d="M399.5,605.58a.189.189,0,0,0,.09-.064c.062,0,.093-.232.093-.694V604.3c0-.02.011-.029.031-.032h.094c.018,0,.028.011.031.032v.6a2.741,2.741,0,0,1-.047.6.26.26,0,0,1-.043.081h.567a.191.191,0,0,0,.105-.064c.062,0,.093-.232.093-.694v-.6c0-.019.01-.029.031-.031h.093c.018,0,.029.009.031.031v.68a2.756,2.756,0,0,1-.046.6.439.439,0,0,1-.043.081h.6a.182.182,0,0,0,.136-.064c.062,0,.093-.232.093-.694v-.68c0-.019.01-.028.031-.031h.093c.019,0,.029.009.031.031v.761a2.758,2.758,0,0,1-.046.6.284.284,0,0,1-.043.081h.272v.162h-2.4v-.162Zm.934-2.026a.137.137,0,0,1,.041.1.136.136,0,0,1-.041.1.129.129,0,0,1-.1.043.136.136,0,0,1-.1-.043.139.139,0,0,1-.041-.1.141.141,0,0,1,.041-.1.139.139,0,0,1,.1-.042.132.132,0,0,1,.1.042m.229-.3a.138.138,0,0,1,.041.1.136.136,0,0,1-.041.1.121.121,0,0,1-.094.042.129.129,0,0,1-.1-.042.14.14,0,0,1-.04-.1.142.142,0,0,1,.04-.1.14.14,0,0,1,.1-.042.132.132,0,0,1,.094.042m.222.3a.141.141,0,0,1,.041.1.139.139,0,0,1-.041.1.135.135,0,0,1-.1.043.133.133,0,0,1-.1-.043.139.139,0,0,1-.041-.1.141.141,0,0,1,.041-.1.136.136,0,0,1,.1-.042.138.138,0,0,1,.1.042" transform="translate(16322 14135)" fill="#115c8d"/>
    <path id="Path_144854" data-name="Path 144854" d="M399.5,605.58a.189.189,0,0,0,.09-.064c.062,0,.093-.232.093-.694V604.3c0-.02.011-.029.031-.032h.094c.018,0,.028.011.031.032v.6a2.741,2.741,0,0,1-.047.6.26.26,0,0,1-.043.081h.567a.191.191,0,0,0,.105-.064c.062,0,.093-.232.093-.694v-.6c0-.019.01-.029.031-.031h.093c.018,0,.029.009.031.031v.68a2.756,2.756,0,0,1-.046.6.439.439,0,0,1-.043.081h.6a.182.182,0,0,0,.136-.064c.062,0,.093-.232.093-.694v-.68c0-.019.01-.028.031-.031h.093c.019,0,.029.009.031.031v.761a2.758,2.758,0,0,1-.046.6.284.284,0,0,1-.043.081h.272v.162h-2.4v-.162Zm.934-2.026a.137.137,0,0,1,.041.1.136.136,0,0,1-.041.1.129.129,0,0,1-.1.043.136.136,0,0,1-.1-.043.139.139,0,0,1-.041-.1.141.141,0,0,1,.041-.1.139.139,0,0,1,.1-.042A.132.132,0,0,1,400.433,603.554Zm.229-.3a.138.138,0,0,1,.041.1.136.136,0,0,1-.041.1.121.121,0,0,1-.094.042.129.129,0,0,1-.1-.042.14.14,0,0,1-.04-.1.142.142,0,0,1,.04-.1.14.14,0,0,1,.1-.042A.132.132,0,0,1,400.662,603.259Zm.222.3a.141.141,0,0,1,.041.1.139.139,0,0,1-.041.1.135.135,0,0,1-.1.043.133.133,0,0,1-.1-.043.139.139,0,0,1-.041-.1.141.141,0,0,1,.041-.1.136.136,0,0,1,.1-.042A.138.138,0,0,1,400.884,603.554Z" transform="translate(16322 14135)" fill="none" stroke="#115c8d" stroke-miterlimit="10" stroke-width="0.5"/>
    <path id="Path_144855" data-name="Path 144855" d="M402.175,605.582a.183.183,0,0,0,.136-.066c.062,0,.093-.23.093-.7v-.679a.031.031,0,0,1,.031-.032h.093c.018,0,.028.012.031.032v.76a2.766,2.766,0,0,1-.047.6.326.326,0,0,1-.042.081h.229v.161h-1.021v-.161Zm.252.568a.15.15,0,0,1-.041.1.128.128,0,0,1-.1.042.132.132,0,0,1-.1-.042.15.15,0,0,1-.041-.1.14.14,0,0,1,.041-.1.133.133,0,0,1,.1-.043.129.129,0,0,1,.1.043.14.14,0,0,1,.041.1" transform="translate(16322 14135)" fill="#115c8d"/>
    <path id="Path_144856" data-name="Path 144856" d="M402.175,605.582a.183.183,0,0,0,.136-.066c.062,0,.093-.23.093-.7v-.679a.031.031,0,0,1,.031-.032h.093c.018,0,.028.012.031.032v.76a2.766,2.766,0,0,1-.047.6.326.326,0,0,1-.042.081h.229v.161h-1.021v-.161Zm.252.568a.15.15,0,0,1-.041.1.128.128,0,0,1-.1.042.132.132,0,0,1-.1-.042.15.15,0,0,1-.041-.1.14.14,0,0,1,.041-.1.133.133,0,0,1,.1-.043.129.129,0,0,1,.1.043A.14.14,0,0,1,402.427,606.15Z" transform="translate(16322 14135)" fill="none" stroke="#115c8d" stroke-miterlimit="10" stroke-width="0.5"/>
    <path id="Path_144857" data-name="Path 144857" d="M402.652,605.581h.431a.205.205,0,0,0,.183-.063c.062,0,.093-.234.093-.7v-1.267a.031.031,0,0,1,.031-.034h.093c.018,0,.028.011.031.034V604.9a2.764,2.764,0,0,1-.046.6.381.381,0,0,1-.385.242h-.431Z" transform="translate(16322 14135)" fill="#115c8d"/>
    <path id="Path_144858" data-name="Path 144858" d="M402.652,605.581h.431a.205.205,0,0,0,.183-.063c.062,0,.093-.234.093-.7v-1.267a.031.031,0,0,1,.031-.034h.093c.018,0,.028.011.031.034V604.9a2.764,2.764,0,0,1-.046.6.381.381,0,0,1-.385.242h-.431Z" transform="translate(16322 14135)" fill="none" stroke="#115c8d" stroke-miterlimit="10" stroke-width="0.5"/>
    <path id="Path_144859" data-name="Path 144859" d="M403.875,603.528h.093a.031.031,0,0,1,.031.033V605.7a.028.028,0,0,1-.031.031h-.093a.028.028,0,0,1-.031-.031v-2.142c0-.02.013-.033.031-.033" transform="translate(16322 14135)" fill="#115c8d"/>
    <path id="Path_144860" data-name="Path 144860" d="M403.875,603.528h.093a.031.031,0,0,1,.031.033V605.7a.028.028,0,0,1-.031.031h-.093a.028.028,0,0,1-.031-.031v-2.142C403.846,603.541,403.857,603.528,403.875,603.528Z" transform="translate(16322 14135)" fill="none" stroke="#115c8d" stroke-miterlimit="10" stroke-width="0.5"/>
    <path id="Path_144861" data-name="Path 144861" d="M405.273,605.742v-.161h.936c0-.106.01-.294.031-.566,0-.312-.192-.539-.575-.677a1.041,1.041,0,0,0-.276-.05v-.178a.982.982,0,0,1,.959.662,2.413,2.413,0,0,1,.047.324l-.031.485v.161Z" transform="translate(16322 14135)" fill="#115c8d"/>
    <path id="Path_144862" data-name="Path 144862" d="M405.273,605.742v-.161h.936c0-.106.01-.294.031-.566,0-.312-.192-.539-.575-.677a1.041,1.041,0,0,0-.276-.05v-.178a.982.982,0,0,1,.959.662,2.413,2.413,0,0,1,.047.324l-.031.485v.161Z" transform="translate(16322 14135)" fill="none" stroke="#115c8d" stroke-miterlimit="10" stroke-width="0.5"/>
    <path id="Path_144863" data-name="Path 144863" d="M407.692,605.564V604.13h.171c.008.817.009,1.3,0,1.452l-.028.161a.8.8,0,0,1-.625.626.611.611,0,0,1-.139.015h-.093c-.249,0-.373-.02-.373-.064a.28.28,0,0,1,.031-.13,2.514,2.514,0,0,0,.388.05.635.635,0,0,0,.641-.5Z" transform="translate(16322 14135)" fill="#115c8d"/>
    <path id="Path_144864" data-name="Path 144864" d="M407.692,605.564V604.13h.171c.008.817.009,1.3,0,1.452l-.028.161a.8.8,0,0,1-.625.626.611.611,0,0,1-.139.015h-.093c-.249,0-.373-.02-.373-.064a.28.28,0,0,1,.031-.13,2.514,2.514,0,0,0,.388.05.635.635,0,0,0,.641-.5Z" transform="translate(16322 14135)" fill="none" stroke="#115c8d" stroke-miterlimit="10" stroke-width="0.5"/>
    <path id="Path_144865" data-name="Path 144865" d="M408.285,603.528h.093a.031.031,0,0,1,.031.033V605.7a.028.028,0,0,1-.031.031h-.093a.028.028,0,0,1-.031-.031v-2.142c0-.02.013-.033.031-.033" transform="translate(16322 14135)" fill="#115c8d"/>
    <path id="Path_144866" data-name="Path 144866" d="M408.285,603.528h.093a.031.031,0,0,1,.031.033V605.7a.028.028,0,0,1-.031.031h-.093a.028.028,0,0,1-.031-.031v-2.142C408.256,603.541,408.267,603.528,408.285,603.528Z" transform="translate(16322 14135)" fill="none" stroke="#115c8d" stroke-miterlimit="10" stroke-width="0.5"/>
    <path id="Path_144867" data-name="Path 144867" d="M410.118,605.742h-.536a.833.833,0,0,1-.217-.032.778.778,0,0,1-.583-.816v-.177a.634.634,0,0,1,.66-.607h.062a.755.755,0,0,1,.6.317,1.8,1.8,0,0,1,.214,1.154h.221v.161h-.248a.8.8,0,0,1-.625.626.518.518,0,0,1-.141.018h-.092c-.249,0-.373-.023-.373-.066a.28.28,0,0,1,.031-.13,2.258,2.258,0,0,0,.388.049.635.635,0,0,0,.641-.5m-.3-.161c.166-.011.274-.017.326-.017v-.533a.9.9,0,0,0-.031-.225q-.21-.534-.621-.534a.537.537,0,0,0-.571.545.947.947,0,0,0,.155.56.733.733,0,0,0,.509.221l.159-.013v0Z" transform="translate(16322 14135)" fill="#115c8d"/>
    <path id="Path_144868" data-name="Path 144868" d="M410.118,605.742h-.536a.833.833,0,0,1-.217-.032.778.778,0,0,1-.583-.816v-.177a.634.634,0,0,1,.66-.607h.062a.755.755,0,0,1,.6.317,1.8,1.8,0,0,1,.214,1.154h.221v.161h-.248a.8.8,0,0,1-.625.626.518.518,0,0,1-.141.018h-.092c-.249,0-.373-.023-.373-.066a.28.28,0,0,1,.031-.13,2.258,2.258,0,0,0,.388.049A.635.635,0,0,0,410.118,605.742Zm-.3-.161c.166-.011.274-.017.326-.017v-.533a.9.9,0,0,0-.031-.225q-.21-.534-.621-.534a.537.537,0,0,0-.571.545.947.947,0,0,0,.155.56.733.733,0,0,0,.509.221l.159-.013v0Z" transform="translate(16322 14135)" fill="none" stroke="#115c8d" stroke-miterlimit="10" stroke-width="0.5"/>
    <path id="Path_144869" data-name="Path 144869" d="M412.292,605.742a.84.84,0,0,1-.45.309,1.541,1.541,0,0,1-.2.014h-.047a.686.686,0,0,1-.61-.323h-.516v-.16h.427a1.493,1.493,0,0,1-.062-.179,1.521,1.521,0,0,1-.031-.291V605.1a.889.889,0,0,1,.652-.847.719.719,0,0,1,.14-.018h.078a.823.823,0,0,1,.761.59,1.927,1.927,0,0,1,.031.291,1.219,1.219,0,0,1-.082.47h.245v.16Zm-1.32-.711v.13c.06.484.261.726.606.726h.109c.279,0,.475-.181.589-.547a1.257,1.257,0,0,0,.016-.179v-.13q0-.4-.528-.617a.712.712,0,0,0-.155-.017.776.776,0,0,0-.621.488.571.571,0,0,0-.016.146" transform="translate(16322 14135)" fill="#115c8d"/>
    <path id="Path_144870" data-name="Path 144870" d="M412.292,605.742a.84.84,0,0,1-.45.309,1.541,1.541,0,0,1-.2.014h-.047a.686.686,0,0,1-.61-.323h-.516v-.16h.427a1.493,1.493,0,0,1-.062-.179,1.521,1.521,0,0,1-.031-.291V605.1a.889.889,0,0,1,.652-.847.719.719,0,0,1,.14-.018h.078a.823.823,0,0,1,.761.59,1.927,1.927,0,0,1,.031.291,1.219,1.219,0,0,1-.082.47h.245v.16Zm-1.32-.711v.13c.06.484.261.726.606.726h.109c.279,0,.475-.181.589-.547a1.257,1.257,0,0,0,.016-.179v-.13q0-.4-.528-.617a.712.712,0,0,0-.155-.017.776.776,0,0,0-.621.488A.571.571,0,0,0,410.972,605.031Z" transform="translate(16322 14135)" fill="none" stroke="#115c8d" stroke-miterlimit="10" stroke-width="0.5"/>
    <path id="Path_144871" data-name="Path 144871" d="M412.552,605.581h.431a.205.205,0,0,0,.183-.063c.062,0,.093-.234.093-.7v-1.267a.031.031,0,0,1,.031-.034h.093c.018,0,.028.011.031.034V604.9a2.767,2.767,0,0,1-.046.6.381.381,0,0,1-.385.242h-.431Z" transform="translate(16322 14135)" fill="#115c8d"/>
    <path id="Path_144872" data-name="Path 144872" d="M412.552,605.581h.431a.205.205,0,0,0,.183-.063c.062,0,.093-.234.093-.7v-1.267a.031.031,0,0,1,.031-.034h.093c.018,0,.028.011.031.034V604.9a2.767,2.767,0,0,1-.046.6.381.381,0,0,1-.385.242h-.431Z" transform="translate(16322 14135)" fill="none" stroke="#115c8d" stroke-miterlimit="10" stroke-width="0.5"/>
    <path id="Path_144873" data-name="Path 144873" d="M413.775,603.528h.093a.031.031,0,0,1,.031.033V605.7a.028.028,0,0,1-.031.031h-.093a.028.028,0,0,1-.031-.031v-2.142c0-.02.013-.033.031-.033" transform="translate(16322 14135)" fill="#115c8d"/>
    <path id="Path_144874" data-name="Path 144874" d="M413.775,603.528h.093a.031.031,0,0,1,.031.033V605.7a.028.028,0,0,1-.031.031h-.093a.028.028,0,0,1-.031-.031v-2.142C413.747,603.541,413.757,603.528,413.775,603.528Z" transform="translate(16322 14135)" fill="none" stroke="#115c8d" stroke-miterlimit="10" stroke-width="0.5"/>
    <path id="Path_144875" data-name="Path 144875" d="M415.8,605.742a.577.577,0,0,1-.59-.452,1.522,1.522,0,0,1-.063-.518v-.153c0-.022.014-.031.032-.031h.108c.021,0,.031.012.031.031v.153c0,.524.161.792.482.809h.419a.626.626,0,0,0,.575-.437v-1.62h.155v1.41a.8.8,0,0,1-.155.55.745.745,0,0,1-.513.258H415.8Z" transform="translate(16322 14135)" fill="#115c8d"/>
    <path id="Path_144876" data-name="Path 144876" d="M415.8,605.742a.577.577,0,0,1-.59-.452,1.522,1.522,0,0,1-.063-.518v-.153c0-.022.014-.031.032-.031h.108c.021,0,.031.012.031.031v.153c0,.524.161.792.482.809h.419a.626.626,0,0,0,.575-.437v-1.62h.155v1.41a.8.8,0,0,1-.155.55.745.745,0,0,1-.513.258H415.8Z" transform="translate(16322 14135)" fill="none" stroke="#115c8d" stroke-miterlimit="10" stroke-width="0.5"/>
    <path id="Path_144877" data-name="Path 144877" d="M418.71,605.742h-.536a.832.832,0,0,1-.217-.032.778.778,0,0,1-.583-.816v-.177a.634.634,0,0,1,.66-.607h.062a.755.755,0,0,1,.6.317,1.8,1.8,0,0,1,.214,1.154h.221v.161h-.247a.8.8,0,0,1-.625.626.531.531,0,0,1-.142.018h-.092c-.249,0-.373-.023-.373-.066a.28.28,0,0,1,.031-.13,2.246,2.246,0,0,0,.388.049.635.635,0,0,0,.641-.5m-.3-.161c.165-.011.273-.017.325-.017v-.533a.9.9,0,0,0-.031-.225c-.139-.356-.347-.534-.621-.534a.537.537,0,0,0-.571.545.947.947,0,0,0,.155.56.731.731,0,0,0,.509.221l.159-.013v0Z" transform="translate(16322 14135)" fill="#115c8d"/>
    <path id="Path_144878" data-name="Path 144878" d="M418.71,605.742h-.536a.832.832,0,0,1-.217-.032.778.778,0,0,1-.583-.816v-.177a.634.634,0,0,1,.66-.607h.062a.755.755,0,0,1,.6.317,1.8,1.8,0,0,1,.214,1.154h.221v.161h-.247a.8.8,0,0,1-.625.626.531.531,0,0,1-.142.018h-.092c-.249,0-.373-.023-.373-.066a.28.28,0,0,1,.031-.13,2.246,2.246,0,0,0,.388.049A.635.635,0,0,0,418.71,605.742Zm-.3-.161c.165-.011.273-.017.325-.017v-.533a.9.9,0,0,0-.031-.225c-.139-.356-.347-.534-.621-.534a.537.537,0,0,0-.571.545.947.947,0,0,0,.155.56.731.731,0,0,0,.509.221l.159-.013v0Z" transform="translate(16322 14135)" fill="none" stroke="#115c8d" stroke-miterlimit="10" stroke-width="0.5"/>
    <path id="Path_144879" data-name="Path 144879" d="M419.556,605.581a.185.185,0,0,0,.136-.063c.062,0,.093-.234.093-.7v-1.263a.031.031,0,0,1,.031-.034h.094c.017,0,.028.012.03.034V604.9a2.767,2.767,0,0,1-.046.6.315.315,0,0,1-.043.081h.229v.161h-1.021v-.161Z" transform="translate(16322 14135)" fill="#115c8d"/>
    <path id="Path_144880" data-name="Path 144880" d="M419.556,605.581a.185.185,0,0,0,.136-.063c.062,0,.093-.234.093-.7v-1.263a.031.031,0,0,1,.031-.034h.094c.017,0,.028.012.03.034V604.9a2.767,2.767,0,0,1-.046.6.315.315,0,0,1-.043.081h.229v.161h-1.021v-.161Z" transform="translate(16322 14135)" fill="none" stroke="#115c8d" stroke-miterlimit="10" stroke-width="0.5"/>
    <path id="Path_144881" data-name="Path 144881" d="M421.436,605.581c0-.1.01-.294.031-.564q0-.471-.575-.68a1.064,1.064,0,0,0-.3-.049,1.9,1.9,0,0,0-.252.054v-.192a.053.053,0,0,1,.019-.006l.233-.034a.985.985,0,0,1,.979.662,2.646,2.646,0,0,1,.046.325l-.031.484h.175v.161h-1.751v-.161Z" transform="translate(16322 14135)" fill="#115c8d"/>
    <path id="Path_144882" data-name="Path 144882" d="M421.436,605.581c0-.1.01-.294.031-.564q0-.471-.575-.68a1.064,1.064,0,0,0-.3-.049,1.9,1.9,0,0,0-.252.054v-.192a.053.053,0,0,1,.019-.006l.233-.034a.985.985,0,0,1,.979.662,2.646,2.646,0,0,1,.046.325l-.031.484h.175v.161h-1.751v-.161Z" transform="translate(16322 14135)" fill="none" stroke="#115c8d" stroke-miterlimit="10" stroke-width="0.5"/>
    <path id="Path_144883" data-name="Path 144883" d="M421.715,605.581h.431a.205.205,0,0,0,.183-.063c.062,0,.093-.234.093-.7v-1.267a.031.031,0,0,1,.031-.034h.093c.018,0,.028.011.031.034V604.9a2.75,2.75,0,0,1-.047.6.38.38,0,0,1-.384.242h-.431Z" transform="translate(16322 14135)" fill="#115c8d"/>
    <path id="Path_144884" data-name="Path 144884" d="M421.715,605.581h.431a.205.205,0,0,0,.183-.063c.062,0,.093-.234.093-.7v-1.267a.031.031,0,0,1,.031-.034h.093c.018,0,.028.011.031.034V604.9a2.75,2.75,0,0,1-.047.6.38.38,0,0,1-.384.242h-.431Z" transform="translate(16322 14135)" fill="none" stroke="#115c8d" stroke-miterlimit="10" stroke-width="0.5"/>
    <path id="Path_144885" data-name="Path 144885" d="M395.332,610.333V607.9h1.352v.287H395.6v.752h.941v.287H395.6v1.1Z" transform="translate(16322 14135)" fill="#115c8d"/>
    <path id="Path_144886" data-name="Path 144886" d="M395.332,610.333V607.9h1.352v.287H395.6v.752h.941v.287H395.6v1.1Z" transform="translate(16322 14135)" fill="none" stroke="#115c8d" stroke-miterlimit="10" stroke-width="0"/>
    <path id="Path_144887" data-name="Path 144887" d="M396.949,609.15a1.471,1.471,0,0,1,.275-.955.856.856,0,0,1,.686-.333.844.844,0,0,1,.483.148,1.02,1.02,0,0,1,.347.434,1.646,1.646,0,0,1,.127.677,1.462,1.462,0,0,1-.247.88.859.859,0,0,1-1.426-.01,1.427,1.427,0,0,1-.245-.841m.274.005a1.087,1.087,0,0,0,.2.7.6.6,0,0,0,.974,0,1.168,1.168,0,0,0,.2-.736,1.484,1.484,0,0,0-.1-.561.68.68,0,0,0-.236-.3.584.584,0,0,0-.345-.115.6.6,0,0,0-.494.249,1.249,1.249,0,0,0-.194.77" transform="translate(16322 14135)" fill="#115c8d"/>
    <path id="Path_144888" data-name="Path 144888" d="M396.949,609.15a1.471,1.471,0,0,1,.275-.955.856.856,0,0,1,.686-.333.844.844,0,0,1,.483.148,1.02,1.02,0,0,1,.347.434,1.646,1.646,0,0,1,.127.677,1.462,1.462,0,0,1-.247.88.859.859,0,0,1-1.426-.01A1.427,1.427,0,0,1,396.949,609.15Zm.274.005a1.087,1.087,0,0,0,.2.7.6.6,0,0,0,.974,0,1.168,1.168,0,0,0,.2-.736,1.484,1.484,0,0,0-.1-.561.68.68,0,0,0-.236-.3.584.584,0,0,0-.345-.115.6.6,0,0,0-.494.249A1.249,1.249,0,0,0,397.223,609.155Z" transform="translate(16322 14135)" fill="none" stroke="#115c8d" stroke-miterlimit="10" stroke-width="0"/>
    <path id="Path_144889" data-name="Path 144889" d="M399.2,610.332v-2.426h.889a.953.953,0,0,1,.411.066.512.512,0,0,1,.217.228.746.746,0,0,1,.085.365.618.618,0,0,1-.563.662.7.7,0,0,1,.17.137,1.7,1.7,0,0,1,.209.308l.349.66h-.333l-.267-.5a3.052,3.052,0,0,0-.235-.4.483.483,0,0,0-.153-.14.5.5,0,0,0-.207-.035h-.307v1.078Zm.265-1.356h.57a.72.72,0,0,0,.284-.044.345.345,0,0,0,.154-.142.431.431,0,0,0,.056-.222.381.381,0,0,0-.109-.289.435.435,0,0,0-.321-.107h-.634Z" transform="translate(16322 14135)" fill="#115c8d"/>
    <path id="Path_144890" data-name="Path 144890" d="M399.2,610.332v-2.426h.889a.953.953,0,0,1,.411.066.512.512,0,0,1,.217.228.746.746,0,0,1,.085.365.618.618,0,0,1-.563.662.7.7,0,0,1,.17.137,1.7,1.7,0,0,1,.209.308l.349.66h-.333l-.267-.5a3.052,3.052,0,0,0-.235-.4.483.483,0,0,0-.153-.14.5.5,0,0,0-.207-.035h-.307v1.078Zm.265-1.356h.57a.72.72,0,0,0,.284-.044.345.345,0,0,0,.154-.142.431.431,0,0,0,.056-.222.381.381,0,0,0-.109-.289.435.435,0,0,0-.321-.107h-.634Z" transform="translate(16322 14135)" fill="none" stroke="#115c8d" stroke-miterlimit="10" stroke-width="0"/>
    <path id="Path_144891" data-name="Path 144891" d="M402,610.333V607.9h.265v1h1.042v-1h.265v2.429h-.265v-1.145h-1.042v1.145Z" transform="translate(16322 14135)" fill="#115c8d"/>
    <path id="Path_144892" data-name="Path 144892" d="M404.024,610.332v-2.426h.889a.953.953,0,0,1,.411.066.512.512,0,0,1,.217.228.746.746,0,0,1,.085.365.618.618,0,0,1-.563.662.7.7,0,0,1,.17.137,1.646,1.646,0,0,1,.208.308l.35.66h-.333l-.267-.5a3.047,3.047,0,0,0-.235-.4.493.493,0,0,0-.153-.14.5.5,0,0,0-.207-.035h-.307v1.078Zm.265-1.356h.57a.72.72,0,0,0,.284-.044.338.338,0,0,0,.153-.142.421.421,0,0,0,.057-.222.381.381,0,0,0-.109-.289.435.435,0,0,0-.321-.107h-.634Z" transform="translate(16322 14135)" fill="#115c8d"/>
    <path id="Path_144893" data-name="Path 144893" d="M406.735,609.551l.25-.025a.712.712,0,0,0,.091.31.522.522,0,0,0,.2.182.635.635,0,0,0,.3.066.537.537,0,0,0,.368-.115.377.377,0,0,0,.131-.3.362.362,0,0,0-.047-.186.343.343,0,0,0-.144-.132,2.867,2.867,0,0,0-.414-.146,1.426,1.426,0,0,1-.4-.168.568.568,0,0,1-.186-.215.622.622,0,0,1-.067-.294.641.641,0,0,1,.192-.482.7.7,0,0,1,.516-.186.868.868,0,0,1,.392.086.637.637,0,0,1,.26.252.852.852,0,0,1,.1.387l-.255.024a.524.524,0,0,0-.143-.352.49.49,0,0,0-.344-.113.524.524,0,0,0-.344.1.329.329,0,0,0-.118.26.3.3,0,0,0,.087.23,1.074,1.074,0,0,0,.39.164,2.468,2.468,0,0,1,.416.14.634.634,0,0,1,.371.608.759.759,0,0,1-.1.379.663.663,0,0,1-.268.26.86.86,0,0,1-.408.089.806.806,0,0,1-.593-.22.853.853,0,0,1-.229-.6" transform="translate(16322 14135)" fill="#115c8d"/>
    <path id="Path_144894" data-name="Path 144894" d="M408.617,609.15a1.471,1.471,0,0,1,.275-.955.856.856,0,0,1,.686-.333.844.844,0,0,1,.483.148,1.02,1.02,0,0,1,.347.434,1.646,1.646,0,0,1,.127.677,1.462,1.462,0,0,1-.247.88.859.859,0,0,1-1.426-.01,1.427,1.427,0,0,1-.245-.841m.274.005a1.087,1.087,0,0,0,.2.7.6.6,0,0,0,.974,0,1.168,1.168,0,0,0,.2-.736,1.484,1.484,0,0,0-.1-.561.68.68,0,0,0-.236-.3.584.584,0,0,0-.345-.115.6.6,0,0,0-.494.249,1.249,1.249,0,0,0-.194.77" transform="translate(16322 14135)" fill="#115c8d"/>
    <path id="Path_144895" data-name="Path 144895" d="M410.855,610.333V607.9h.265v2.144h.987v.285Z" transform="translate(16322 14135)" fill="#115c8d"/>
    <path id="Path_144896" data-name="Path 144896" d="M413.739,607.9H414v1.4a2.014,2.014,0,0,1-.069.579.66.66,0,0,1-.252.358.769.769,0,0,1-.463.132.724.724,0,0,1-.594-.237,1.314,1.314,0,0,1-.2-.832v-1.4h.265v1.4a1.6,1.6,0,0,0,.052.478.419.419,0,0,0,.17.224.508.508,0,0,0,.285.078.494.494,0,0,0,.411-.161,1.049,1.049,0,0,0,.128-.619Z" transform="translate(16322 14135)" fill="#115c8d"/>
    <path id="Path_144897" data-name="Path 144897" d="M414.965,610.333v-2.142H414.3V607.9h1.589v.287h-.663v2.142Z" transform="translate(16322 14135)" fill="#115c8d"/>
    <rect id="Rectangle_17606" data-name="Rectangle 17606" width="0.265" height="2.43" transform="translate(16738.213 14742.905)" fill="#115c8d"/>
    <path id="Path_144898" data-name="Path 144898" d="M416.865,609.15a1.471,1.471,0,0,1,.275-.955.87.87,0,0,1,1.17-.185,1.026,1.026,0,0,1,.346.434,1.646,1.646,0,0,1,.127.677,1.462,1.462,0,0,1-.247.88.839.839,0,0,1-.712.375.831.831,0,0,1-.713-.385,1.421,1.421,0,0,1-.246-.841m.274.005a1.087,1.087,0,0,0,.2.7.6.6,0,0,0,.974,0,1.168,1.168,0,0,0,.2-.736,1.464,1.464,0,0,0-.1-.561.68.68,0,0,0-.236-.3.583.583,0,0,0-.344-.115.6.6,0,0,0-.495.249,1.249,1.249,0,0,0-.194.77" transform="translate(16322 14135)" fill="#115c8d"/>
    <path id="Path_144899" data-name="Path 144899" d="M419.112,610.333V607.9h.272l1.053,1.911V607.9h.254v2.429h-.272l-1.052-1.909v1.909Z" transform="translate(16322 14135)" fill="#115c8d"/>
    <path id="Path_144900" data-name="Path 144900" d="M421.051,609.551l.25-.025a.712.712,0,0,0,.091.31.522.522,0,0,0,.2.182.635.635,0,0,0,.3.066.537.537,0,0,0,.368-.115.377.377,0,0,0,.131-.3.362.362,0,0,0-.047-.186.342.342,0,0,0-.144-.132,2.867,2.867,0,0,0-.414-.146,1.426,1.426,0,0,1-.4-.168.568.568,0,0,1-.186-.215.621.621,0,0,1-.067-.294.645.645,0,0,1,.192-.482.705.705,0,0,1,.517-.186.866.866,0,0,1,.391.086.638.638,0,0,1,.26.252.852.852,0,0,1,.1.387l-.256.024a.519.519,0,0,0-.142-.352.49.49,0,0,0-.344-.113.524.524,0,0,0-.344.1.329.329,0,0,0-.118.26.3.3,0,0,0,.087.23,1.075,1.075,0,0,0,.389.164,2.424,2.424,0,0,1,.417.14.634.634,0,0,1,.371.608.759.759,0,0,1-.1.379.663.663,0,0,1-.268.26.86.86,0,0,1-.408.089.806.806,0,0,1-.593-.22.853.853,0,0,1-.229-.6" transform="translate(16322 14135)" fill="#115c8d"/>
  </g>
</svg>
