<svg xmlns="http://www.w3.org/2000/svg" width="74.193" height="57.824" viewBox="0 0 74.193 57.824">
  <g id="Client_21" transform="translate(-16936.365 -14382.901)">
    <path id="Path_144728" data-name="Path 144728" d="M666.948,260.323a.883.883,0,0,0,.054-.479c0-3.8.008-7.61-.009-11.415,0-.425.135-.518.513-.511,1.373.019,2.749.063,4.118-.01a3.769,3.769,0,0,1,3.142,1.391c.737.809,1.5,1.591,2.263,2.379a.887.887,0,0,0,1.43.015c.9-.918,1.786-1.858,2.689-2.778a3.08,3.08,0,0,1,2.308-.991c1.536.01,3.073.011,4.609-.006.38,0,.495.141.494.518q-.009,10.908-.006,21.812c0,.5-.052.548-.549.549q-2.693,0-5.384,0c-.544,0-.58-.037-.581-.6q0-4.92,0-9.844c0-.113,0-.225,0-.339,0-.083.014-.183-.068-.23-.108-.062-.179.033-.243.1q-1.168,1.209-2.332,2.426c-.48.5-.931,1.036-1.725.952a1.656,1.656,0,0,1-1.123-.505c-.883-.942-1.786-1.863-2.682-2.788-.1-.1-.2-.186-.308-.282-.138.143-.08.307-.08.451q-.006,4.988-.005,9.972c0,.672-.014.687-.665.688-1.223,0-2.447,0-3.67,0a6.922,6.922,0,0,1-3.5-.813,6.366,6.366,0,0,1-2.144-2.16c-1.3-1.969-2.565-3.96-3.826-5.955-.738-1.167-1.439-2.359-2.221-3.5a2.39,2.39,0,0,0-1.4-1.158,1.882,1.882,0,0,0-2.024.951c-.961,1.349-1.785,2.8-2.7,4.184a46.391,46.391,0,0,1-2.925,4.477,11.368,11.368,0,0,1-4.55,3.258,11.055,11.055,0,0,1-4.109.752,9.985,9.985,0,0,1-3.865-.721,10.607,10.607,0,0,1-2.972-1.808.4.4,0,0,0-.628,0c-1.624,1.37-3.371.787-5.445,1.02a8.191,8.191,0,0,1-5.013-.872,7.5,7.5,0,0,1-4.036-3.593c-.9-1.481-2.122-2.632-2.273-4.409a9.973,9.973,0,0,1,.531-4.807c.459-1.265,1.129-1.635,2-2.639,1.093-1.268,1.89-2.659,3.409-3.306,2.556-1.09,4.372-1.361,7.015-.413a10.22,10.22,0,0,1,2.055.656c.325.189.254-.011-.021.267-1.092,1.092-1.161,2.423-1.778,3.852-.161.372-.27.77-.393,1.157-.079.249-.2.261-.394.125a4.278,4.278,0,0,0-4.095-.517c-1.766.664-3.951,2.449-4.014,4.574-.07,2.4,2.377,5.34,4.63,5.8,1.471.3,2.9-1.156,3.985-2.215a2.65,2.65,0,0,1,1.671-.874c1.525-.153,3.04-.425,4.564-.672h-.39c-2.6,0-5.038-1.057-7.634-1.051-.844,0-.945.466-1.332-.235-.4-.724-.3-.847.149-1.518.382-.567.346-1.056,1.027-1.076s1.4.013,2.1.03c.313.007.407-.487.468-.82a10.145,10.145,0,0,1,1.75-4.07,11.572,11.572,0,0,1,4.26-3.729,10.306,10.306,0,0,1,6.716-.862,11.345,11.345,0,0,1,4.666,2.133c.241.179.271.326.1.587-1.042,1.618-2.057,3.256-3.111,4.865-.338.519-.33.452-.7.112a4.255,4.255,0,0,0-4.038-1.016,4.406,4.406,0,0,0-2.768,2.088c-.1.153-.146.281.094.333.18.039.221.183.236.349a12.175,12.175,0,0,1-.148,4.252.679.679,0,0,0,.176.722,4.268,4.268,0,0,0,2.623,1.329,4.442,4.442,0,0,0,4.483-1.7c.637-.858,1.136-1.826,1.706-2.738q2.241-3.588,4.487-7.175a12.822,12.822,0,0,1,2.145-2.758,5.862,5.862,0,0,1,8.177.326,24.407,24.407,0,0,1,2.482,3.455c.949,1.463,1.87,2.944,2.8,4.422.468.742.928,1.492,1.393,2.238a.762.762,0,0,0,.352.38" transform="translate(16322 14135)" fill="#2c3470"/>
    <path id="Path_144729" data-name="Path 144729" d="M638.565,287.827c.019-.562-.022-1.226.031-1.89.02-.255.089-.363.338-.337.134.016.272,0,.407.006s.286.006.3.2c.011.158.016.339-.163.392-.268.077-.265.279-.265.5q0,1.74,0,3.478c0,.494-.058.523-.514.513-.6-.012-1.194.02-1.791.033a.924.924,0,0,0-.44.207,1.7,1.7,0,0,1-2.029-.049.941.941,0,0,0-.616-.165,2.1,2.1,0,0,1-1.514-.359.209.209,0,0,0-.295.012,1.536,1.536,0,0,1-2.06-.01.218.218,0,0,0-.3-.01c-.632.518-1.373.346-2.083.358-.679.01-1.357.01-2.036.013a.781.781,0,0,0-.412.16,1.736,1.736,0,0,1-2.135-.019.718.718,0,0,0-.458-.144c-.286,0-.573.02-.857-.006-.4-.033-.67.044-.742.538a.909.909,0,0,1-.7.7,1.958,1.958,0,0,1-1.206-.024c-.2-.065-.343-.187-.256-.439.081-.237.241-.216.431-.154a1.271,1.271,0,0,0,.881-.005.441.441,0,0,0,.314-.449c-.023-.212-.232-.157-.366-.177a3.255,3.255,0,0,1-.974-.279,1.53,1.53,0,0,1-.863-1.338,1.6,1.6,0,0,1,.661-1.426,2.665,2.665,0,0,1,1.914-.411c.242.011.262.2.263.4,0,.65.011,1.3,0,1.951-.006.325.1.484.426.446.04,0,.081,0,.122,0,.716,0,.693,0,.745-.719a1.737,1.737,0,0,1,1.726-1.785,1.81,1.81,0,0,1,1.792,1.817c.014.687.014.687.7.687.766,0,.766,0,.767-.813,0-.437,0-.877,0-1.313,0-.232.083-.392.33-.386s.268.179.266.384c-.007.55.013,1.1-.011,1.653-.017.382.131.518.477.477.067-.006.136,0,.2,0,.73,0,.926-.207.931-.952,0-.381,0-.762,0-1.144,0-.2.006-.421.285-.415s.317.187.309.432q-.021.618,0,1.232a.858.858,0,0,0,.911.914c.494-.005.771-.328.775-.921.005-.622,0-1.243,0-1.865,0-.214.032-.406.295-.413s.292.193.293.4c0,.637,0,1.272,0,1.909,0,.548.188.761.714.812.108.008.218,0,.326.008.274.031.355-.085.323-.37a1.818,1.818,0,0,1,.5-1.587,1.8,1.8,0,0,1,2-.368,1.823,1.823,0,0,1,.988,1.8c-.059.485.121.536.5.528.828-.017.828,0,.827-.843v-1.377m-13.326,1.566a1.162,1.162,0,1,0-1.176,1.217,1.241,1.241,0,0,0,1.176-1.217m9.093.025a1.15,1.15,0,0,0,1.135,1.19,1.225,1.225,0,0,0,1.188-1.242,1.212,1.212,0,0,0-1.2-1.187,1.178,1.178,0,0,0-1.126,1.239m-13.895-.481h0c0-.254,0-.508,0-.761a.281.281,0,0,0-.216-.31,1.327,1.327,0,0,0-1.436.969,1.122,1.122,0,0,0,.979,1.188c.589.094.675.02.677-.578v-.508" transform="translate(16322 14135)" fill="#2c3470"/>
    <path id="Path_144730" data-name="Path 144730" d="M672.658,284.188H660.015a2.352,2.352,0,0,1-1.567-.488,1.552,1.552,0,0,1-.517-1.6,1.57,1.57,0,0,1,1.064-1.232,2.059,2.059,0,0,1,.755-.16.376.376,0,0,0,.363-.149.315.315,0,0,1,.425-.138c.181.079.2.255.2.428,0,.723.023,1.445,0,2.164-.015.419.1.569.526.565q2.957-.035,5.914,0c.392,0,.529-.123.512-.531-.026-.624-.007-1.247,0-1.869,0-.216,0-.446.295-.455.309-.008.3.225.3.442,0,.65.01,1.3,0,1.952-.006.317.09.461.418.458q2.223-.02,4.446,0c.3,0,.409-.11.4-.422-.015-.636-.009-1.271,0-1.908,0-.227-.072-.533.3-.519.349.016.291.313.293.542.007.594.018,1.19,0,1.782-.012.376.1.535.487.527q1.571-.035,3.14,0c.374.008.473-.145.448-.5a1.5,1.5,0,0,1,.679-1.527,1.212,1.212,0,0,1,1.831.93,5.1,5.1,0,0,1,.037.8c0,.166.056.276.23.281.15.005.342.023.364-.179a2.5,2.5,0,0,0-.437-2.159,1.885,1.885,0,0,0-2.274-.279c-.193.077-.359.162-.476-.1-.081-.177-.077-.328.12-.422,1.721-.821,3.595-.2,3.7,2.085,0,.084,0,.17,0,.254,0,.83-.157.8.752.8h2.2c.531,0,.535,0,.536-.576,0-1.117,0-2.236,0-3.354,0-.188-.056-.442.18-.509a.977.977,0,0,1,.831.041.258.258,0,0,1-.048.471c-.325.1-.324.324-.324.589q0,1.633,0,3.268c0,.639-.052.691-.683.692H672.658M660.1,282.465h0c0-.281,0-.561,0-.842,0-.209-.11-.292-.3-.309a1.272,1.272,0,0,0-1.293,1.038,1.194,1.194,0,0,0,.995,1.2c.488.092.6-.007.608-.533,0-.181,0-.366,0-.549m19.38,1.1c.657,0,.674-.015.677-.57,0-.593-.263-.992-.662-.992s-.705.416-.7.97c0,.53.078.593.687.592" transform="translate(16322 14135)" fill="#2c3470"/>
    <path id="Path_144731" data-name="Path 144731" d="M643.169,284.188h-9.216c-.593,0-.613-.022-.614-.648q0-1.889,0-3.778c0-.1,0-.2,0-.3.009-.2.044-.375.292-.365s.272.194.277.389,0,.394,0,.594c0,1,.009,2.007,0,3.011,0,.337.1.483.446.481q3.975-.015,7.952,0c.348,0,.4-.121.271-.428-.173-.4-.317-.812-.5-1.206a.478.478,0,0,1,.138-.664,2.225,2.225,0,0,1,3.1.036.409.409,0,0,1,.126.527c-.165.4-.32.809-.494,1.207s-.114.517.3.518c2.257.005,4.514,0,6.77.009.309,0,.4-.123.4-.429-.011-1.174-.007-2.348,0-3.52,0-.186-.075-.443.177-.5a.912.912,0,0,1,.79.043.273.273,0,0,1-.1.494c-.262.085-.28.26-.279.484q0,1.7,0,3.4c0,.623-.024.65-.616.65h-9.217m.546-.625c.223.016.414,0,.507-.254.163-.445.333-.89.515-1.328a.259.259,0,0,0-.119-.382,1.546,1.546,0,0,0-1.587-.079.391.391,0,0,0-.226.543c.143.38.3.755.417,1.142.084.275.231.4.493.358" transform="translate(16322 14135)" fill="#2c3470"/>
    <path id="Path_144732" data-name="Path 144732" d="M623.143,283.566c1.78,0,3.56-.006,5.34.006.335,0,.45-.072.392-.46a1.831,1.831,0,0,1,1.29-2.04,1.774,1.774,0,0,1,2.071,1.076,1.937,1.937,0,0,1-.693,2.314,1.859,1.859,0,0,1-1.969-.086.963.963,0,0,0-.688-.188q-6.074,0-12.148,0a3.275,3.275,0,0,1-1.119-.183,1.622,1.622,0,0,1-1.112-1.6,1.667,1.667,0,0,1,1.138-1.545,3.376,3.376,0,0,1,.636-.141.612.612,0,0,0,.5-.223.309.309,0,0,1,.409-.078c.152.063.161.216.161.358,0,.777.015,1.557,0,2.333-.008.355.119.463.453.461,1.78-.013,3.56-.006,5.341-.006m6.356-.681a1.086,1.086,0,0,0,1.127,1.2,1.171,1.171,0,0,0,1.15-1.215,1.2,1.2,0,0,0-1.164-1.209,1.117,1.117,0,0,0-1.113,1.226m-12.742-.435h0c0-.268,0-.534,0-.8a.286.286,0,0,0-.247-.325,1.174,1.174,0,0,0-1.329,1.408,1.156,1.156,0,0,0,1.036.823c.433.087.537-.01.544-.465,0-.212,0-.425,0-.637" transform="translate(16322 14135)" fill="#2c3470"/>
    <path id="Path_144733" data-name="Path 144733" d="M663.113,287.834c0-.606,0-1.215,0-1.822,0-.172.006-.38.223-.387.285-.009.612-.152.842.121a.27.27,0,0,1-.106.429c-.354.106-.314.372-.314.639,0,1.089,0,2.175,0,3.263,0,.588-.049.635-.6.639-.3,0-.6,0-.9,0a2.621,2.621,0,0,0-1.408.274,1.708,1.708,0,0,1-1.926-.117c-.485-.323-1.058-.144-1.592-.122-.185.009-.154.236-.178.383a.926.926,0,0,1-1.049.875c-.143-.018-.287-.043-.29-.227s.043-.369.251-.373c.47-.007.5-.329.5-.7q0-1.5,0-3.01c0-.164-.035-.37.166-.433.26-.083.426.014.427.325,0,.637,0,1.271,0,1.907,0,.53.016.522.576.544.388.017.558-.076.541-.536a1.738,1.738,0,1,1,3.456-.359c.05.913.049.9.92.894.337,0,.459-.127.449-.474-.018-.578-.005-1.158-.005-1.738Zm-1.957,1.551a1.127,1.127,0,0,0-1.178-1.2,1.157,1.157,0,0,0-1.105,1.208,1.192,1.192,0,0,0,1.147,1.222,1.177,1.177,0,0,0,1.136-1.226" transform="translate(16322 14135)" fill="#2c3470"/>
    <path id="Path_144734" data-name="Path 144734" d="M654.469,262.953v-1.99a.627.627,0,0,1,.274-.619c.228-.122.428.019.6.159.733.6,1.47,1.2,2.178,1.84a.815.815,0,0,1-.033,1.339c-.7.6-1.412,1.187-2.125,1.773a.573.573,0,0,1-.638.161c-.233-.122-.251-.384-.251-.63,0-.678,0-1.354,0-2.033" transform="translate(16322 14135)" fill="#2c3470"/>
    <path id="Path_144735" data-name="Path 144735" d="M655.221,288.967c0,.452,0,.9,0,1.356,0,.243-.073.338-.329.359-.639.05-1.277.012-1.915.04-.4.016-.572-.2-.53-.563.066-.568-.036-1.128-.023-1.692.005-.237.123-.573-.294-.617a.752.752,0,0,0-.914.568,2.715,2.715,0,0,0-.021.423c0,.638-.006,1.272,0,1.909,0,.4-.134.611-.555.574a6.255,6.255,0,0,1-1.976-.167,1.394,1.394,0,0,1-.884-1.258c-.04-.392-.011-.79-.012-1.188,0-.2.053-.367.291-.37s.3.149.3.36c0,.326-.009.653.011.975a.865.865,0,0,0,.791.962l.04.009c1.179.264,1.34.128,1.351-1.1a4.343,4.343,0,0,1,.116-1.512,1.111,1.111,0,0,1,.937-.772,8.586,8.586,0,0,1,1.18-.033c.242,0,.238.178.239.353.005.679.022,1.359.005,2.035-.009.326.119.432.407.42.257-.011.517-.014.774,0,.325.022.429-.138.423-.457-.014-.606-.007-1.216,0-1.822,0-.238-.031-.517.32-.519s.263.286.267.494c.008.41,0,.82,0,1.229Z" transform="translate(16322 14135)" fill="#2c3470"/>
    <path id="Path_144736" data-name="Path 144736" d="M677.139,287.555c0-.522,0-1.047,0-1.568,0-.193.017-.4.251-.415.25-.023.546-.124.732.1a.333.333,0,0,1-.122.533c-.187.088-.208.238-.213.414-.028.948.06,1.895-.056,2.839a.38.38,0,0,0,.168.365,1.093,1.093,0,0,0,.446.2c.727.125.806.039.626-.678a1.79,1.79,0,0,1,.6-1.851,1.891,1.891,0,0,1,1.94-.064c.143.1.23.2.156.381a.276.276,0,0,1-.364.181c-.171-.042-.341-.1-.514-.13a1.036,1.036,0,0,0-1.26,1.316c.129.758.25.863.982.864.34,0,.68,0,1.02,0,.2,0,.4.029.4.3a.327.327,0,0,1-.366.36c-1.086,0-2.172.049-3.256-.052a.621.621,0,0,1-.417-.153c-.33-.363-.625-.211-.985-.025a4.334,4.334,0,0,1-2.244.212c-.2-.01-.234-.216-.233-.391,0-.209.149-.249.309-.251.422-.005.843,0,1.264-.006.851-.009,1.132-.3,1.135-1.171,0-.438,0-.877,0-1.315" transform="translate(16322 14135)" fill="#2c3470"/>
    <path id="Path_144737" data-name="Path 144737" d="M674.2,302.694c-.306.859-.615,1.719-.915,2.579-.079.227-.16.4-.441.409s-.415-.167-.5-.4c-.25-.7-.5-1.4-.743-2.107a.812.812,0,0,0-.2-.433.838.838,0,0,0-.051.449c-.005.707,0,1.414,0,2.121,0,.206-.058.36-.3.366s-.345-.124-.344-.364q0-1.76,0-3.519c0-.218.069-.4.3-.435.28-.038.565-.026.689.3.192.513.365,1.032.541,1.552.136.4.263.8.4,1.2a3.149,3.149,0,0,0,.173.337,4.524,4.524,0,0,0,.39-.952c.241-.692.483-1.38.716-2.075a.5.5,0,0,1,.516-.384c.3-.006.451.1.448.437-.011,1.159,0,2.318,0,3.48,0,.206,0,.409-.282.415-.3.005-.313-.2-.313-.432V302.7l-.083,0" transform="translate(16322 14135)" fill="#2c3470"/>
    <path id="Path_144738" data-name="Path 144738" d="M660.189,297.021c-.314.871-.634,1.739-.937,2.614a.418.418,0,0,1-.448.337.447.447,0,0,1-.446-.352c-.258-.745-.527-1.484-.786-2.227a1.187,1.187,0,0,0-.252-.475v2.061c0,.2,0,.4,0,.6s-.032.376-.277.382-.29-.162-.295-.365c0-.055,0-.113,0-.17q0-1.611,0-3.221c0-.239-.037-.5.3-.542.311-.037.563.018.681.375.244.732.5,1.464.75,2.193a2.588,2.588,0,0,0,.361.823c.24-.664.469-1.285.69-1.909.127-.357.257-.716.358-1.081.108-.394.38-.434.7-.4s.312.3.313.542c.005,1.1,0,2.2,0,3.305,0,.214.009.453-.293.453s-.349-.207-.349-.459c0-.83,0-1.66,0-2.489l-.069.01" transform="translate(16322 14135)" fill="#2c3470"/>
    <path id="Path_144739" data-name="Path 144739" d="M664.4,299.036c.359-1.013.721-1.971,1.034-2.946a.552.552,0,0,1,.675-.436c.358.031.341.307.341.562,0,1.089,0,2.175,0,3.264,0,.226.021.485-.311.479-.307-.008-.33-.235-.33-.477,0-.818,0-1.636-.063-2.471-.24.661-.48,1.32-.719,1.982-.072.2-.15.395-.209.6-.072.24-.189.388-.46.383s-.384-.149-.465-.386c-.263-.774-.534-1.542-.8-2.313a.518.518,0,0,0-.218-.281v1.454c0,.356,0,.708,0,1.062,0,.214.008.456-.3.446s-.281-.255-.282-.465c0-.764,0-1.526,0-2.29,0-.34,0-.68,0-1.018,0-.223-.03-.482.281-.519.293-.033.563-.041.689.344.272.827.57,1.645.859,2.467a1.165,1.165,0,0,0,.284.562" transform="translate(16322 14135)" fill="#2c3470"/>
    <path id="Path_144740" data-name="Path 144740" d="M687.319,287.8c0-.594,0-1.186,0-1.777,0-.169-.006-.377.216-.393.262-.016.568-.133.773.1a.287.287,0,0,1-.13.479c-.267.083-.271.274-.27.493q0,1.738,0,3.474c0,.505-.073.567-.545.536-.175-.01-.351.005-.527.005a1.515,1.515,0,0,1-1.246-.388c-.142-.153-.251-.135-.419-.021a3.865,3.865,0,0,1-2.527.393c-.216-.01-.281-.2-.274-.4s.159-.242.316-.244c.461,0,.923,0,1.384-.006.707-.015.983-.307.987-1.039.005-.961,0-1.922,0-2.881,0-.19-.049-.429.181-.513a.93.93,0,0,1,.754.013.339.339,0,0,1-.082.576c-.239.086-.262.24-.262.453,0,.9.01,1.807-.012,2.711a.58.58,0,0,0,.382.583,2.006,2.006,0,0,0,1.083.076c.215-.026.21-.231.21-.4,0-.606,0-1.214,0-1.822Z" transform="translate(16322 14135)" fill="#2c3470"/>
    <path id="Path_144741" data-name="Path 144741" d="M668.99,291.225a2.026,2.026,0,0,1,.56-1.657c.052-.045.1-.12.158-.13.556-.092.778-.52,1.044-.979a1.625,1.625,0,0,1,2-.721,1.894,1.894,0,0,1,0,3.526,1.779,1.779,0,0,1-2.142-.933c-.092-.181-.076-.5-.4-.419a.688.688,0,0,0-.54.621c-.036.364-.023.733-.035,1.1-.006.181-.05.34-.259.369s-.36-.023-.375-.269c-.011-.169,0-.339,0-.509m4.319-1.731a1.109,1.109,0,0,0-1.131-1.213,1.2,1.2,0,0,0-1.152,1.191,1.22,1.22,0,0,0,1.194,1.237,1.113,1.113,0,0,0,1.089-1.215" transform="translate(16322 14135)" fill="#2c3470"/>
    <path id="Path_144742" data-name="Path 144742" d="M685.456,296.824c0,.859,0,1.721,0,2.579a1.27,1.27,0,0,1-.052.416c-.058.156-.213.156-.351.139a.269.269,0,0,1-.231-.3q0-1.844,0-3.689a.277.277,0,0,1,.274-.307c.231-.017.462-.05.608.219.4.724.8,1.444,1.2,2.166.1.182.2.369.3.549.046.083.075.214.191.183s.086-.164.086-.258c0-.749,0-1.5.005-2.248a2.664,2.664,0,0,1,.021-.38.246.246,0,0,1,.257-.222.253.253,0,0,1,.293.228,1.82,1.82,0,0,1,.018.295c0,1.075,0,2.151,0,3.226,0,.2.07.473-.212.521s-.565.07-.744-.268c-.479-.9-.976-1.795-1.466-2.693-.032-.058-.069-.116-.1-.175Z" transform="translate(16322 14135)" fill="#2c3470"/>
    <path id="Path_144743" data-name="Path 144743" d="M625.745,298.854c.136-.12.077-.287.078-.432.007-.762,0-1.528.006-2.292,0-.213-.013-.459.286-.459s.288.245.289.458q0,1.656,0,3.31c0,.2.054.459-.233.514s-.54.055-.707-.259q-.591-1.113-1.2-2.218a1.509,1.509,0,0,0-.532-.689v1.2c0,.466,0,.93.045,1.4.024.247.047.558-.318.566-.346.007-.312-.286-.313-.525,0-1.059,0-2.122,0-3.181,0-.24-.024-.5.29-.573a.555.555,0,0,1,.681.312c.473.891.961,1.77,1.444,2.654.045.083.065.193.184.218" transform="translate(16322 14135)" fill="#2c3470"/>
    <path id="Path_144744" data-name="Path 144744" d="M644.672,289.173c0,.51.022,1.02-.005,1.527a1.42,1.42,0,0,1-2.17,1.171.283.283,0,0,1-.112-.394c.063-.173.178-.256.35-.184a1.546,1.546,0,0,0,.72.1.591.591,0,0,0,.431-.209c.194-.232.136-.409-.157-.468a4.162,4.162,0,0,1-.982-.258,1.487,1.487,0,0,1-.915-1.34,1.636,1.636,0,0,1,.716-1.522,2.7,2.7,0,0,1,1.849-.347c.23.016.274.2.275.4,0,.507,0,1.016,0,1.525m-.645-.209c0-.254,0-.507,0-.761,0-.126,0-.278-.167-.284a1.245,1.245,0,0,0-1.157.353,1.162,1.162,0,0,0-.165,1.153.961.961,0,0,0,.905.6c.518.067.584-.006.586-.556,0-.17,0-.339,0-.507" transform="translate(16322 14135)" fill="#2c3470"/>
    <path id="Path_144745" data-name="Path 144745" d="M655.622,297.816a2.072,2.072,0,0,1-2.12,2.218,2.111,2.111,0,0,1-2.121-2.2,2.123,2.123,0,1,1,4.241-.017m-3.6-.019a1.55,1.55,0,0,0,1.538,1.651,1.634,1.634,0,0,0-.038-3.252,1.513,1.513,0,0,0-1.5,1.6" transform="translate(16322 14135)" fill="#2c3470"/>
    <path id="Path_144746" data-name="Path 144746" d="M644.864,305.693a2.018,2.018,0,0,1-2.109-2.175,2.1,2.1,0,0,1,2.162-2.2,2.169,2.169,0,0,1,2.119,2.214,2.069,2.069,0,0,1-2.172,2.161m.026-3.76a1.491,1.491,0,0,0-1.5,1.552,1.538,1.538,0,0,0,1.5,1.657,1.608,1.608,0,0,0,0-3.209" transform="translate(16322 14135)" fill="#2c3470"/>
    <path id="Path_144747" data-name="Path 144747" d="M679.491,297.8a2.128,2.128,0,1,1,2.12,2.251,2.147,2.147,0,0,1-2.12-2.251m3.6,0a1.534,1.534,0,0,0-1.493-1.615,1.612,1.612,0,0,0-1.5,1.635,1.581,1.581,0,0,0,1.537,1.628,1.518,1.518,0,0,0,1.457-1.648" transform="translate(16322 14135)" fill="#2c3470"/>
    <path id="Path_144748" data-name="Path 144748" d="M619.646,305.7a2.1,2.1,0,0,1-2.123-2.223,2.168,2.168,0,0,1,2.172-2.159,2.106,2.106,0,0,1,2.1,2.25,2.061,2.061,0,0,1-2.148,2.132m.028-3.771a1.5,1.5,0,0,0-1.505,1.6,1.52,1.52,0,0,0,1.446,1.613,1.607,1.607,0,0,0,.059-3.208" transform="translate(16322 14135)" fill="#2c3470"/>
    <path id="Path_144749" data-name="Path 144749" d="M623.562,301.341a2.768,2.768,0,0,1,1.278.2,1.055,1.055,0,0,1,.673.93,1.1,1.1,0,0,1-.521,1.187c-.232.124-.288.257-.128.495.217.323.413.663.611,1,.085.147.292.324.08.468a.392.392,0,0,1-.575-.136c-.244-.389-.48-.787-.723-1.177a.614.614,0,0,0-.35-.334c-.487-.132-.68.015-.684.544,0,.283,0,.564-.006.847a.274.274,0,0,1-.311.3c-.2,0-.292-.09-.291-.309.006-1.214.005-2.425,0-3.639,0-.268.118-.391.372-.384.177,0,.354,0,.571,0m-.34,1.326c0,.689,0,.689.588.687.726,0,1.1-.244,1.1-.7-.008-.44-.438-.7-1.163-.7-.522,0-.522,0-.52.716" transform="translate(16322 14135)" fill="#2c3470"/>
    <path id="Path_144750" data-name="Path 144750" d="M631.545,297.831c0-.579,0-1.158,0-1.736,0-.246.079-.427.337-.431a5.508,5.508,0,0,1,1.7.088,1.1,1.1,0,0,1,.87.947,1.175,1.175,0,0,1-.471,1.258c-.3.2-.255.362-.084.61.236.344.441.712.666,1.063.152.24.068.326-.177.341a.506.506,0,0,1-.5-.287c-.243-.407-.511-.8-.74-1.217-.2-.362-.512-.271-.793-.232s-.2.321-.208.517c-.012.283,0,.565,0,.847,0,.178.011.356-.229.362a.315.315,0,0,1-.364-.35c0-.594,0-1.187,0-1.78Zm.593-.855c0,.656.1.751.745.67.094-.013.187-.033.281-.042.355-.027.63-.135.669-.577.041-.468-.249-.623-.588-.728-.795-.244-1.107-.048-1.107.677" transform="translate(16322 14135)" fill="#2c3470"/>
    <path id="Path_144751" data-name="Path 144751" d="M679.484,303.514c0-.579.007-1.158,0-1.737-.005-.3.109-.436.4-.44a4.658,4.658,0,0,1,1.607.213,1.953,1.953,0,0,1,1.358,2.1,2.054,2.054,0,0,1-1.543,1.942,6.5,6.5,0,0,1-1.5.084c-.249,0-.326-.147-.325-.38,0-.6,0-1.188,0-1.781m.6-.027h0c0,.409,0,.817,0,1.228,0,.143.012.3.185.331a1.559,1.559,0,0,0,1.857-.961,1.589,1.589,0,0,0-1.77-2.125c-.213.005-.271.153-.272.342,0,.4,0,.79,0,1.185" transform="translate(16322 14135)" fill="#2c3470"/>
    <path id="Path_144752" data-name="Path 144752" d="M637.174,303.486c0-.563.008-1.128,0-1.691-.006-.326.128-.455.436-.458a4.117,4.117,0,0,1,1.755.271,2.156,2.156,0,0,1-.273,3.97,6.23,6.23,0,0,1-1.618.1c-.267,0-.3-.2-.3-.41,0-.591,0-1.183,0-1.777m.585.041h0v.722c0,.875.021.892.878.806a1.441,1.441,0,0,0,1.3-1.34c.1-1.26-.9-1.79-1.9-1.757-.214.007-.272.15-.273.34,0,.412,0,.821,0,1.229" transform="translate(16322 14135)" fill="#2c3470"/>
    <path id="Path_144753" data-name="Path 144753" d="M618.013,298.723c0,1.084-.007,1.1-1.062,1.259a2.072,2.072,0,0,1-2.3-.983,2.5,2.5,0,0,1,.066-2.455,2.156,2.156,0,0,1,2.223-.9,4.856,4.856,0,0,1,.551.15c.194.073.459.1.331.448-.115.315-.313.247-.526.14a1.646,1.646,0,0,0-1.533.016,1.7,1.7,0,0,0-.582,2.25,1.558,1.558,0,0,0,2.016.677c.3-.172.208-.461.2-.715s-.218-.242-.394-.251c-.148-.008-.3-.006-.447-.026s-.227-.13-.232-.3a.232.232,0,0,1,.245-.271c.381-.008.761-.006,1.141,0,.2,0,.3.12.3.324v.637" transform="translate(16322 14135)" fill="#2c3470"/>
    <path id="Path_144754" data-name="Path 144754" d="M627.8,297.809c0-.551.007-1.1,0-1.651-.006-.35.118-.522.477-.51.556.015,1.113,0,1.669.006.216,0,.433.045.427.331s-.234.263-.423.266c-.38,0-.76.008-1.14,0-.259-.005-.375.117-.364.383.006.154,0,.311,0,.465a.292.292,0,0,0,.332.331,5.136,5.136,0,0,1,.691.011c.258.033.687-.18.679.336-.007.468-.408.294-.662.319a5.891,5.891,0,0,1-.691.008c-.234,0-.334.107-.354.354-.071.874-.036.922.787.923.285,0,.57,0,.855.007.185.007.316.089.307.31-.009.2-.142.264-.3.265-.651.006-1.3,0-1.953,0-.278,0-.333-.183-.332-.423,0-.579,0-1.158,0-1.736" transform="translate(16322 14135)" fill="#2c3470"/>
    <path id="Path_144755" data-name="Path 144755" d="M616.416,290.718c-.285,0-.57-.007-.855,0-.395.013-.509.208-.325.571a1.738,1.738,0,0,0,.532.574c.114.087.349.153.2.376a.355.355,0,0,1-.505.125,1.731,1.731,0,0,1-.684-.643,2.424,2.424,0,0,1-.281-1.3c0-.129.017-.3.145-.324.409-.088.241-.346.182-.575a1.677,1.677,0,0,1,1.3-2.316,1.976,1.976,0,0,1,1.185.212.272.272,0,0,1,.152.38.262.262,0,0,1-.349.2c-.184-.046-.367-.109-.553-.137a1.007,1.007,0,0,0-1.2,1.281c.026.152.065.3.1.454a.508.508,0,0,0,.583.455c.433-.015.868,0,1.3,0,.228,0,.359.1.354.354,0,.24-.139.317-.342.317h-.937Z" transform="translate(16322 14135)" fill="#2c3470"/>
    <path id="Path_144756" data-name="Path 144756" d="M619.389,297.821c0-.564.01-1.131,0-1.694-.008-.347.134-.487.462-.48.569.012,1.139,0,1.71.007.2,0,.4.044.409.309.008.286-.207.289-.4.29-.393,0-.787.007-1.18,0-.268-.005-.413.1-.4.394.007.154,0,.312,0,.466.005.269.135.37.393.354.325-.022.65-.009.976-.02.21-.007.387.023.4.3s-.17.354-.4.355c-.313,0-.625.013-.937,0s-.431.124-.437.451c-.016.83-.027.829.788.83.3,0,.6,0,.9,0,.186,0,.32.081.318.3s-.148.284-.329.285c-.625,0-1.249,0-1.873,0-.271,0-.4-.128-.391-.414.007-.578,0-1.157,0-1.736Z" transform="translate(16322 14135)" fill="#2c3470"/>
    <path id="Path_144757" data-name="Path 144757" d="M675.988,303.474c0-.564.016-1.131-.006-1.694-.012-.32.112-.443.4-.441.57,0,1.141,0,1.711,0,.222,0,.421.047.424.335s-.217.276-.406.278c-.381,0-.761.007-1.141,0-.279-.008-.4.121-.388.406.005.127.006.255,0,.381-.015.265.1.4.357.395.338,0,.677-.012,1.016,0,.194.005.4.036.409.307.01.3-.2.341-.414.348-.339.009-.679.009-1.019.006-.235,0-.332.11-.35.358-.064.9-.051.92.826.921.285,0,.571,0,.856.009a.262.262,0,0,1,.286.287.27.27,0,0,1-.3.307c-.638,0-1.276,0-1.915,0-.281,0-.333-.18-.333-.42,0-.593,0-1.185,0-1.78Z" transform="translate(16322 14135)" fill="#2c3470"/>
    <path id="Path_144758" data-name="Path 144758" d="M637.1,295.658c.275,0,.408.177.5.419.418,1.118.844,2.233,1.255,3.351.06.163.231.392-.049.5a.346.346,0,0,1-.5-.282c-.149-.736-.578-.933-1.267-.872-.764.066-.77.014-1.052.8-.059.163-.114.324-.3.367a.343.343,0,0,1-.348-.043c-.1-.1-.028-.212.009-.314q.686-1.836,1.376-3.668a.363.363,0,0,1,.376-.263m.072,1.016-.109.015c-.147.4-.295.8-.44,1.211-.034.091-.071.224.048.251a2.528,2.528,0,0,0,.922,0c.073-.01.1-.091.075-.168-.163-.438-.33-.876-.5-1.313" transform="translate(16322 14135)" fill="#2c3470"/>
    <path id="Path_144759" data-name="Path 144759" d="M656.836,302.974c0-.408-.006-.818,0-1.229,0-.192.044-.387.284-.383s.28.194.282.387c.007.551,0,1.1.005,1.656,0,.182-.005.368.012.549a1.162,1.162,0,0,0,1.776,1.055.963.963,0,0,0,.484-.956c.02-.679.008-1.356.011-2.036a2.4,2.4,0,0,1,.022-.38.288.288,0,0,1,.307-.275.279.279,0,0,1,.293.291,10.786,10.786,0,0,1-.156,3.157,1.079,1.079,0,0,1-.648.724,2.2,2.2,0,0,1-2.142-.181,1.546,1.546,0,0,1-.53-1.275c-.02-.368,0-.736,0-1.1Z" transform="translate(16322 14135)" fill="#2c3470"/>
    <path id="Path_144760" data-name="Path 144760" d="M688.225,305.673a.315.315,0,0,1-.357-.3c-.146-.808-.645-.972-1.358-.908-.693.06-.7.014-.925.691a1.593,1.593,0,0,1-.159.386.357.357,0,0,1-.479.1c-.18-.08-.084-.238-.036-.365.446-1.178.9-2.357,1.336-3.54.079-.211.17-.381.419-.386s.363.172.443.371c.237.583.47,1.17.693,1.759s.439,1.212.666,1.814c.092.244.058.387-.243.382m-1.534-3.379c-.136.336-.228.569-.326.8-.338.8-.254.907.587.839.24-.021.329-.119.243-.35-.149-.4-.312-.8-.5-1.29" transform="translate(16322 14135)" fill="#2c3470"/>
    <path id="Path_144761" data-name="Path 144761" d="M632.166,305.381c.015.15-.013.246-.125.273-.165.038-.339.042-.433-.137s-.169-.386-.25-.578c-.027-.067-.046-.134-.076-.2-.219-.457-.625-.246-.945-.249-.3,0-.7-.2-.9.255-.1.232-.206.461-.3.7a.335.335,0,0,1-.47.2c-.239-.085-.119-.287-.065-.43q.646-1.737,1.309-3.471c.083-.219.2-.408.469-.395.247.009.339.193.418.4q.639,1.673,1.281,3.345c.04.1.065.215.086.283m-1.873-1.456c.625.024.682-.059.465-.638-.083-.22-.172-.44-.26-.661-.03-.076-.047-.178-.145-.18s-.137.085-.157.167a6.034,6.034,0,0,1-.359,1.027c-.079.177-.014.264.172.264.107,0,.215.015.284.021" transform="translate(16322 14135)" fill="#2c3470"/>
    <path id="Path_144762" data-name="Path 144762" d="M660.809,305.321c.241-.641.5-1.336.765-2.033.2-.524.406-1.046.6-1.571.074-.2.168-.351.394-.37a.442.442,0,0,1,.459.344q.678,1.788,1.34,3.587c.047.129.11.292-.068.361a.327.327,0,0,1-.46-.137,1.829,1.829,0,0,1-.2-.463.634.634,0,0,0-.832-.561.991.991,0,0,1-.122,0c-.937.022-.874-.185-1.252.871-.075.21-.186.335-.414.325-.194-.008-.276-.1-.216-.354m1.747-1.392c.634-.007.669-.064.427-.661-.079-.193-.136-.4-.206-.594-.031-.088-.035-.21-.151-.224s-.143.108-.178.195c-.1.244-.2.487-.286.739-.162.494-.116.551.394.545" transform="translate(16322 14135)" fill="#2c3470"/>
    <path id="Path_144763" data-name="Path 144763" d="M636.119,303.1a9.857,9.857,0,0,1-.044,1.373,1.354,1.354,0,0,1-1.315,1.214,6.423,6.423,0,0,1-.651,0,1.373,1.373,0,0,1-1.419-1.333c-.1-.871.029-1.75-.065-2.623a.3.3,0,0,1,.3-.365c.223,0,.315.152.318.358.01.509.007,1.017.01,1.524,0,.242-.008.483.008.72a1.139,1.139,0,0,0,1.726,1.056,1.06,1.06,0,0,0,.539-1.061c.018-.621.005-1.243.008-1.863,0-.128,0-.255.006-.382.015-.2.078-.369.312-.358.213.008.258.174.26.357,0,.426,0,.849,0,1.378" transform="translate(16322 14135)" fill="#2c3470"/>
    <path id="Path_144764" data-name="Path 144764" d="M675.046,300.072c-.362-.076-.736-.144-1.1-.235-.219-.056-.378-.189-.276-.46.1-.252.27-.22.471-.139a2,2,0,0,0,1.19.182c.312-.07.567-.217.583-.6a.637.637,0,0,0-.514-.666c-.335-.117-.673-.225-1-.358a1.119,1.119,0,0,1-.688-1.094,1.051,1.051,0,0,1,.72-.975,2.283,2.283,0,0,1,1.851.17.253.253,0,0,1,.142.377.278.278,0,0,1-.4.181,2.5,2.5,0,0,0-.653-.228,1.992,1.992,0,0,0-.323-.031c-.309.028-.639.108-.7.465s.224.532.525.649a5.235,5.235,0,0,1,1.1.439,1.141,1.141,0,0,1,.563,1.21,1.076,1.076,0,0,1-.876.98c-.2.045-.4.087-.615.134" transform="translate(16322 14135)" fill="#2c3470"/>
    <path id="Path_144765" data-name="Path 144765" d="M671.219,295.635a2.084,2.084,0,0,1,.989.228c.19.086.284.211.189.431-.085.2-.228.214-.4.151-.217-.081-.436-.158-.657-.224a.964.964,0,0,0-.676.068.492.492,0,0,0-.342.434.482.482,0,0,0,.323.489c.214.089.431.172.652.24a2.569,2.569,0,0,1,.776.366,1.084,1.084,0,0,1,.466,1.171,1.122,1.122,0,0,1-.835.932,2.978,2.978,0,0,1-1.724-.069c-.224-.067-.419-.176-.315-.481s.305-.2.5-.118a1.743,1.743,0,0,0,1.19.15c.291-.083.548-.212.563-.577a.676.676,0,0,0-.523-.67c-.252-.1-.517-.167-.773-.26a1.2,1.2,0,0,1-.9-1.364,1.171,1.171,0,0,1,1.227-.9c.081,0,.163,0,.281,0" transform="translate(16322 14135)" fill="#2c3470"/>
    <path id="Path_144766" data-name="Path 144766" d="M654.376,305.678a2.241,2.241,0,0,1-1.079-.158c-.2-.1-.368-.2-.238-.482.119-.254.278-.182.473-.094a1.851,1.851,0,0,0,1.311.13.583.583,0,0,0,.457-.575.565.565,0,0,0-.388-.573,11,11,0,0,1-1.285-.521,1.073,1.073,0,0,1-.531-1.179,1.107,1.107,0,0,1,.954-.871,2.23,2.23,0,0,1,1.473.185c.167.085.39.152.278.423s-.3.257-.508.139a1.686,1.686,0,0,0-.993-.162c-.276.015-.541.12-.593.42-.057.331.194.513.456.621a7.569,7.569,0,0,1,1.213.487,1.187,1.187,0,0,1,.545,1.307,1.132,1.132,0,0,1-1.056.9c-.162.015-.326,0-.489,0" transform="translate(16322 14135)" fill="#2c3470"/>
    <path id="Path_144767" data-name="Path 144767" d="M647.861,297.666a1.566,1.566,0,0,0,2.169,1.665,1.609,1.609,0,0,0,.226-.1c.174-.087.316-.078.4.132a.314.314,0,0,1-.147.428,2.244,2.244,0,0,1-3.292-1.766,2.141,2.141,0,0,1,.991-2.088,2.258,2.258,0,0,1,2.263-.085.3.3,0,0,1,.174.441c-.106.225-.277.2-.45.114a1.6,1.6,0,0,0-1.488-.043,1.492,1.492,0,0,0-.843,1.3" transform="translate(16322 14135)" fill="#2c3470"/>
    <path id="Path_144768" data-name="Path 144768" d="M649.08,304.719c.35-.978.661-1.848.972-2.719.018-.052.033-.106.055-.159.11-.253.191-.606.552-.466.343.135.092.434.029.615-.387,1.128-.807,2.246-1.21,3.368a.408.408,0,0,1-.417.322.431.431,0,0,1-.45-.343q-.656-1.824-1.315-3.644c-.041-.114-.076-.234.046-.3a.331.331,0,0,1,.445.069,1.591,1.591,0,0,1,.257.526q.376,1.117.773,2.228a4.391,4.391,0,0,0,.263.5" transform="translate(16322 14135)" fill="#2c3470"/>
    <path id="Path_144769" data-name="Path 144769" d="M614.655,303.549c0-.565.007-1.132,0-1.7-.006-.36.151-.519.491-.516.543.006,1.087,0,1.63,0,.215,0,.368.053.371.329.005.316-.2.283-.386.283-.367,0-.734.012-1.1,0-.294-.009-.41.114-.419.422-.02.737-.017.745.71.753.244,0,.487.033.731.041.189.007.324.073.321.292a.3.3,0,0,1-.317.319c-.325.015-.652.022-.977.011s-.48.118-.466.471,0,.68,0,1.019c0,.218-.04.4-.307.392-.248-.006-.277-.184-.278-.381,0-.579,0-1.159,0-1.738Z" transform="translate(16322 14135)" fill="#2c3470"/>
    <path id="Path_144770" data-name="Path 144770" d="M665.716,303.237c0,.408,0,.817,0,1.228,0,.6.007.6.6.6.325,0,.65,0,.976,0,.2,0,.353.07.358.309s-.164.295-.357.295c-.61,0-1.22,0-1.829,0-.279,0-.391-.136-.39-.414,0-1.155,0-2.31,0-3.466,0-.209.037-.416.295-.42s.342.182.342.424c0,.478,0,.958,0,1.437Z" transform="translate(16322 14135)" fill="#2c3470"/>
    <path id="Path_144771" data-name="Path 144771" d="M639.921,297.768c0-.564,0-1.131,0-1.7,0-.188-.007-.392.249-.4s.346.169.346.413q0,1.359,0,2.713c0,.576.009.582.578.584.34,0,.68,0,1.019,0,.193,0,.359.062.35.311-.009.225-.169.269-.344.27-.61,0-1.222,0-1.833,0-.285,0-.375-.144-.37-.424.01-.593,0-1.185,0-1.78" transform="translate(16322 14135)" fill="#2c3470"/>
    <path id="Path_144772" data-name="Path 144772" d="M654.87,281.6v2.119c0,.246-.036.465-.344.454-.289-.01-.3-.231-.3-.454q0-2.1,0-4.194c0-.228.031-.437.32-.435s.324.2.324.434c0,.691,0,1.385,0,2.076" transform="translate(16322 14135)" fill="#2c3470"/>
    <path id="Path_144773" data-name="Path 144773" d="M665.559,288.157c0,.678,0,1.354,0,2.029,0,.216.049.5-.275.51-.357.009-.3-.3-.3-.526-.005-1.4,0-2.791-.007-4.187,0-.211-.015-.41.267-.415s.315.206.315.433c0,.719,0,1.436,0,2.156" transform="translate(16322 14135)" fill="#2c3470"/>
    <path id="Path_144774" data-name="Path 144774" d="M641.011,288.161q0,1.059,0,2.118c0,.208-.018.419-.285.422s-.292-.2-.292-.413q0-2.16,0-4.321c0-.192.008-.378.273-.37.236.006.3.152.3.36q0,1.1,0,2.2Z" transform="translate(16322 14135)" fill="#2c3470"/>
    <path id="Path_144775" data-name="Path 144775" d="M687.918,281.617v2.117c0,.227-.022.446-.313.435-.264-.012-.278-.224-.278-.43,0-1.438,0-2.878-.009-4.316,0-.205.058-.326.269-.332s.328.1.328.327v2.2Z" transform="translate(16322 14135)" fill="#2c3470"/>
    <path id="Path_144776" data-name="Path 144776" d="M641.336,303.538c0-.563,0-1.129,0-1.693,0-.243.04-.48.332-.485.319,0,.306.268.307.491.006,1.1,0,2.2,0,3.3,0,.043,0,.085-.007.127-.018.214-.069.394-.327.393s-.308-.178-.308-.4v-1.736" transform="translate(16322 14135)" fill="#2c3470"/>
    <path id="Path_144777" data-name="Path 144777" d="M668.422,297.866c0,.565-.006,1.132,0,1.7,0,.224-.016.4-.287.4-.232,0-.3-.152-.3-.363,0-1.185,0-2.374,0-3.56,0-.2.06-.372.294-.372s.288.173.288.375c0,.606,0,1.215,0,1.822Z" transform="translate(16322 14135)" fill="#2c3470"/>
    <path id="Path_144778" data-name="Path 144778" d="M677.786,297.783v-1.736c0-.2.025-.38.274-.381s.318.166.318.391v3.518c0,.2-.045.374-.282.383-.262.009-.31-.175-.31-.4Z" transform="translate(16322 14135)" fill="#2c3470"/>
    <path id="Path_144779" data-name="Path 144779" d="M684.251,303.524v1.735c0,.212-.022.4-.292.41s-.306-.177-.306-.4q0-1.732,0-3.47c0-.232.047-.439.32-.438s.278.221.279.425c0,.578,0,1.157,0,1.733" transform="translate(16322 14135)" fill="#2c3470"/>
    <path id="Path_144780" data-name="Path 144780" d="M652.1,303.529c0,.565,0,1.132,0,1.7,0,.215.008.45-.3.443-.274-.005-.283-.212-.283-.418q0-1.738,0-3.479c0-.209.014-.4.3-.392s.284.207.285.413c0,.579,0,1.158,0,1.737" transform="translate(16322 14135)" fill="#2c3470"/>
    <path id="Path_144781" data-name="Path 144781" d="M683.319,288.051c0-.466,0-.933,0-1.4,0-.216.07-.359.3-.351.209.008.285.139.285.333,0,.946,0,1.894,0,2.839,0,.237-.1.381-.343.373-.256-.008-.249-.213-.25-.4,0-.465,0-.932,0-1.4Z" transform="translate(16322 14135)" fill="#2c3470"/>
    <path id="Path_144782" data-name="Path 144782" d="M675.347,288.052V286.7c0-.22.043-.4.31-.393.249.01.268.194.269.389q0,1.379,0,2.756c0,.19-.011.386-.261.395s-.318-.169-.318-.392v-1.4" transform="translate(16322 14135)" fill="#2c3470"/>
    <path id="Path_144783" data-name="Path 144783" d="M667.923,280.2c-.177-.057-.506.132-.577-.173a1.011,1.011,0,0,1,.141-.927.789.789,0,0,1,.794-.206.175.175,0,0,1,.156.169.17.17,0,0,1-.139.183c-.078.022-.16.029-.238.055-.135.042-.273.1-.249.28s.167.158.289.171c.04.005.081,0,.122.005.17.016.408-.022.4.241s-.257.182-.42.2a2.249,2.249,0,0,1-.276,0" transform="translate(16322 14135)" fill="#2c3470"/>
    <path id="Path_144784" data-name="Path 144784" d="M654.841,286.726c-.178-.067-.464.1-.526-.184a.983.983,0,0,1,.179-.95.757.757,0,0,1,.752-.189.186.186,0,0,1,.156.172.189.189,0,0,1-.158.21c-.078.021-.16.028-.237.053-.134.043-.27.1-.243.284s.172.138.288.164c.189.039.529-.123.515.212s-.365.166-.565.226a.542.542,0,0,1-.161,0" transform="translate(16322 14135)" fill="#2c3470"/>
    <path id="Path_144785" data-name="Path 144785" d="M683.555,291.723c.016.027.023.061.042.069.153.077.461.045.359.33s-.37.13-.564.069a.549.549,0,0,1-.388-.49c-.056-.412.039-.54.443-.545a3.4,3.4,0,0,1,.524.025.248.248,0,0,1,.221.262c0,.159-.125.194-.252.218s-.268-.041-.385.062" transform="translate(16322 14135)" fill="#2c3470"/>
    <path id="Path_144786" data-name="Path 144786" d="M629.052,262.489a16.7,16.7,0,0,0,2.912,4.831l.826.9a12.4,12.4,0,0,0-2.479,1.451,10.686,10.686,0,0,1-5.493,1.152,10.5,10.5,0,0,1-6.579-2.717,11.158,11.158,0,0,1-2.651-3.513,11.7,11.7,0,0,1-.942-7.551,11.083,11.083,0,0,1,3.534-6.239,10.633,10.633,0,0,1,12.968-1.144.393.393,0,0,1,.079.645,11.568,11.568,0,0,0-2.842,4.8c-.115.39-.258.391-.577.191a4.321,4.321,0,0,0-4.078-.389,4.894,4.894,0,0,0-2.666,6.276,4.56,4.56,0,0,0,4.369,3.09,4.212,4.212,0,0,0,1.96-.495,7.329,7.329,0,0,0,1.266-.994c.059-.053.129-.094.182-.138Z" transform="translate(16322 14135)" fill="#3fbec5"/>
    <path id="Path_144787" data-name="Path 144787" d="M634.68,261.445h-.459c-2.556,0-5.117.036-7.672.031a2.07,2.07,0,0,1-1.948-1.349,2.117,2.117,0,0,1,1.862-2.887c.557-.019,1.114,0,1.672,0l8.022.055c.126.047.106.192.119.32a11.717,11.717,0,0,1-.083,4.046,1.018,1.018,0,0,0-.062.606,1.483,1.483,0,0,0,.412.514,2.023,2.023,0,0,1-1.149-1.467" transform="translate(16322 14135)" fill="#3fbec5"/>
  </g>
</svg>
