<svg xmlns="http://www.w3.org/2000/svg" width="65.992" height="37.688" viewBox="0 0 65.992 37.688">
  <g id="Client_61" transform="translate(-17717.049 -14706.605)">
    <path id="Path_144468" data-name="Path 144468" d="M1434.253,581.063c.361.482.581.747.769,1.034a7.154,7.154,0,0,1,.511.908,4.113,4.113,0,0,1-3.65,5.958,4.621,4.621,0,0,1-2.732-1.067c-.188-.136-.546-.016-.826-.014.105.223.154.522.323.657a4.646,4.646,0,0,0,2.88,1.054,4.884,4.884,0,0,0,4.726-2.794,4.777,4.777,0,0,0-.521-5.329c-.221-.293-.461-.571-.689-.85,2.161-3.12,2.3-5.421.411-7.515a4.456,4.456,0,0,0-2.647-1.439,5.689,5.689,0,0,0-4.751,1.737,4.984,4.984,0,0,0-4.766-1.645,5.044,5.044,0,0,0-3.236,7.74c.382.592.594.626,1.07.181a14.719,14.719,0,0,1-.824-1.911c-.813-2.93,1.218-5.722,4.014-5.528a5.047,5.047,0,0,1,3.185,1.83c1.8,1.841,3.579,3.7,5.355,5.569.376.4.719.519,1.189.014-1.85-1.906-3.68-3.793-5.538-5.709a4.866,4.866,0,0,1,2.686-1.615,4.163,4.163,0,0,1,4.2,2.213,4.459,4.459,0,0,1-.448,4.987c-.9,1.046-1.9,2-2.864,2.984-.409.42-.834.824-1.32,1.3l-2.088-2.379c.52-.693.6-1.222.23-1.642a1.29,1.29,0,0,0-1.571-.052c-.543.412-.54.846-.086,1.778-.7.784-1.344,1.515-1.926,2.169l-3.084-3.189c1.781-1.858,3.6-3.749,5.415-5.644l-.139-.272a3.321,3.321,0,0,0-.785.224,2.765,2.765,0,0,0-.532.533c-1.955,2.044-3.973,4.029-5.844,6.152a4.984,4.984,0,0,0,4.075,8.148c2.011-.122,3.343-1.387,4.532-2.864a.939.939,0,0,0-.718-1.527,1.169,1.169,0,0,0-1.268.6,1.074,1.074,0,0,0,.265,1.276c.069.081.124.171.178.247a3.919,3.919,0,0,1-6.146.247,4.42,4.42,0,0,1,.289-6.29c1.008,1.061,2.015,2.125,3.033,3.2-.591,1.106-.616,1.41-.129,1.806a1.243,1.243,0,0,0,1.564-.109c.51-.454.483-.906-.08-1.845l2.013-2.176q1.1,1.077,2.186,2.141c-.613.867-.664,1.374-.221,1.8a1.141,1.141,0,0,0,1.547-.021c.543-.457.526-.955.023-1.762l2.758-3.3" transform="translate(16322 14135)" fill="#fff"/>
    <path id="Path_144469" data-name="Path 144469" d="M1404.753,605.893c-.949-2.245-1.812-4.3-2.7-6.352-.081-.188-.317-.426-.476-.421s-.4.237-.487.427c-.608,1.255-1.184,2.527-1.773,3.789-.369.79-.743,1.578-1.174,2.494-.139-.34-.23-.542-.307-.75-.681-1.834-1.366-3.666-2.033-5.505-.14-.387-.305-.622-.757-.42.82,2.2,1.63,4.407,2.474,6.6a1.057,1.057,0,0,0,.566.534c.4.154.516-.214.654-.516q1.25-2.726,2.511-5.446c.081-.173.18-.336.308-.575.107.226.169.349.223.476.8,1.884,1.6,3.769,2.423,5.644a.812.812,0,0,0,.512.41.617.617,0,0,0,.533-.253c1.051-2.277,2.075-4.567,3.111-6.865-.419-.183-.6-.033-.756.335-.4.966-.843,1.915-1.271,2.872-.5,1.116-1,2.231-1.583,3.522" transform="translate(16322 14135)" fill="#fff"/>
    <path id="Path_144470" data-name="Path 144470" d="M1442.052,601.65l.144-.207c-.132-.112-.263-.323-.4-.324a29.923,29.923,0,0,0-3.1.076,2.172,2.172,0,0,0-1.867,1.87c-.1,1.057-.023,2.131-.023,3.242,2.027,0,4.006.005,5.984-.01.158,0,.315-.142.473-.217-.163-.1-.327-.278-.492-.28-1.575-.022-3.151-.011-4.727-.015-.239,0-.478-.024-.777-.038,0-.7,0-1.326,0-1.954a2,2,0,0,1,2.088-2.142c.9-.007,1.8,0,2.692,0" transform="translate(16322 14135)" fill="#fff"/>
    <path id="Path_144471" data-name="Path 144471" d="M1419.091,605.836V599.15c-.515-.173-.557.088-.554.449.008,1.546,0,3.091,0,4.635V606.3c1.86,0,3.633,0,5.407-.011.1,0,.195-.126.293-.192-.1-.088-.2-.244-.3-.249-.494-.029-.989-.017-1.484-.017h-3.363" transform="translate(16322 14135)" fill="#fff"/>
    <path id="Path_144472" data-name="Path 144472" d="M1434.253,581.063l-2.758,3.3c.5.807.52,1.3-.023,1.762a1.141,1.141,0,0,1-1.547.021c-.443-.423-.392-.93.221-1.8q-1.083-1.062-2.186-2.141l-2.013,2.176c.563.939.59,1.391.08,1.845a1.243,1.243,0,0,1-1.564.109c-.487-.4-.462-.7.129-1.806-1.018-1.071-2.025-2.135-3.033-3.2a4.42,4.42,0,0,0-.289,6.29,3.919,3.919,0,0,0,6.146-.247c-.054-.076-.109-.166-.178-.247a1.074,1.074,0,0,1-.265-1.276,1.169,1.169,0,0,1,1.268-.6.939.939,0,0,1,.718,1.527c-1.189,1.477-2.521,2.742-4.532,2.864a4.984,4.984,0,0,1-4.075-8.148c1.871-2.123,3.889-4.108,5.844-6.152a2.765,2.765,0,0,1,.532-.533,3.321,3.321,0,0,1,.785-.224l.139.272c-1.817,1.895-3.634,3.786-5.415,5.644l3.084,3.189c.582-.654,1.229-1.385,1.926-2.169-.454-.932-.457-1.366.086-1.778a1.29,1.29,0,0,1,1.571.052c.373.42.29.949-.23,1.642l2.088,2.379c.486-.478.911-.882,1.32-1.3.963-.987,1.963-1.938,2.864-2.984a4.459,4.459,0,0,0,.448-4.987,4.163,4.163,0,0,0-4.2-2.213,4.866,4.866,0,0,0-2.686,1.615c1.858,1.916,3.688,3.8,5.538,5.709-.47.505-.813.383-1.189-.014-1.776-1.865-3.555-3.728-5.355-5.569a5.047,5.047,0,0,0-3.185-1.83c-2.8-.194-4.827,2.6-4.014,5.528a14.719,14.719,0,0,0,.824,1.911c-.476.445-.688.411-1.07-.181a5.044,5.044,0,0,1,3.236-7.74,4.984,4.984,0,0,1,4.766,1.645,5.689,5.689,0,0,1,4.751-1.737,4.456,4.456,0,0,1,2.647,1.439c1.885,2.094,1.75,4.4-.411,7.515.228.279.468.557.689.85a4.777,4.777,0,0,1,.521,5.329,4.884,4.884,0,0,1-4.726,2.794,4.646,4.646,0,0,1-2.88-1.054c-.169-.135-.218-.434-.323-.657.28,0,.638-.122.826.014a4.621,4.621,0,0,0,2.732,1.067,4.113,4.113,0,0,0,3.65-5.958,7.154,7.154,0,0,0-.511-.908c-.188-.287-.408-.552-.769-1.034" transform="translate(16322 14135)" fill="#231f20"/>
    <path id="Path_144473" data-name="Path 144473" d="M1404.753,605.893c.58-1.291,1.083-2.406,1.583-3.522.428-.957.869-1.906,1.271-2.872.154-.368.337-.518.756-.335-1.036,2.3-2.06,4.588-3.111,6.865a.617.617,0,0,1-.533.253.812.812,0,0,1-.512-.41c-.823-1.875-1.619-3.76-2.423-5.644-.054-.127-.116-.25-.223-.476-.128.239-.227.4-.308.575q-1.259,2.719-2.511,5.446c-.138.3-.254.67-.654.516a1.057,1.057,0,0,1-.566-.534c-.844-2.193-1.654-4.4-2.474-6.6.452-.2.617.033.757.42.667,1.839,1.352,3.671,2.033,5.505.077.208.168.41.307.75.431-.916.8-1.7,1.174-2.494.589-1.262,1.165-2.534,1.773-3.789.092-.19.318-.423.487-.427s.4.233.476.421c.886,2.048,1.749,4.107,2.7,6.352" transform="translate(16322 14135)" fill="#231f20"/>
    <path id="Path_144474" data-name="Path 144474" d="M1447.831,602.734c-.622-.272-1.145-.473-1.644-.725a2.7,2.7,0,0,1-1.089-2.977.353.353,0,0,1,.309-.155.376.376,0,0,1,.205.278,9.515,9.515,0,0,1,.012.984,1.406,1.406,0,0,0,.894,1.428c.6.264,1.208.511,1.812.767.042.019.092.063.124.05.87-.343,1.766-.632,2.6-1.058.576-.294.537-.96.559-1.557a2.482,2.482,0,0,1,.224-.869c.58.089.269.582.276.882a2.063,2.063,0,0,1-1.559,2.442c-.351.149-.7.3-1.1.482a13.937,13.937,0,0,1,2.133,1.209c.691.564.582,1.46.514,2.338h-6.928c-.371-1.671-.009-2.168,2.664-3.519m3.695,3.02c.135-1.028-.093-1.476-.9-1.859-1.963-.934-1.963-.934-3.952-.035-.02.01-.042.017-.062.026a1.434,1.434,0,0,0-.9,1.868Z" transform="translate(16322 14135)" fill="#231f20"/>
    <path id="Path_144475" data-name="Path 144475" d="M1461.016,601.117c0,1.853.069,3.631-.021,5.4a2.9,2.9,0,0,1-2.778,2.749,15.09,15.09,0,0,1-1.688.007c-.116-.005-.226-.183-.339-.282.113-.074.222-.209.338-.215.517-.023,1.036.007,1.553-.017a2.436,2.436,0,0,0,2.339-2.454c-1.233,0-2.468-.006-3.7,0a2.3,2.3,0,0,1-2.276-1.45,2.661,2.661,0,0,1,.293-2.781,2.183,2.183,0,0,1,1.8-.95c1.46-.032,2.922-.011,4.481-.011m-.559.542c-1.382,0-2.708-.049-4.03.017a1.971,1.971,0,0,0-1.715,1.951,1.9,1.9,0,0,0,1.485,2.057c1.405.106,2.822.03,4.26.03Z" transform="translate(16322 14135)" fill="#231f20"/>
    <path id="Path_144476" data-name="Path 144476" d="M1416.19,606.387c-.188-.148-.5-.268-.545-.455-.388-1.757-1.483-2.012-3.063-2.009s-2.674.28-3.148,1.973c-.058.2-.37.33-.565.493-.055-.054-.11-.107-.165-.163q.915-1.728,1.83-3.462c.586-1.106,1.162-2.22,1.76-3.319.272-.5.714-.512.957-.05.044.082.073.172.112.256q1.492,3.266,2.984,6.526c-.052.071-.1.141-.157.21m-3.419-6.906c-.736,1.431-1.391,2.7-2.063,4.01h3.833l-1.77-4.01" transform="translate(16322 14135)" fill="#231f20"/>
    <path id="Path_144477" data-name="Path 144477" d="M1432.568,606.386c-.194-.156-.517-.279-.563-.472-.391-1.647-1.372-2.008-2.94-1.992-1.595.017-2.776.228-3.274,1.995-.056.2-.377.311-.576.465-.048-.052-.095-.106-.143-.16q1.392-2.631,2.787-5.261c.283-.534.547-1.079.851-1.6a.474.474,0,0,1,.885,0c1.052,2.275,2.088,4.561,3.129,6.843-.052.06-.1.122-.156.184m-1.642-2.861c-.608-1.373-1.165-2.633-1.785-4.04-.729,1.411-1.386,2.686-2.084,4.04Z" transform="translate(16322 14135)" fill="#231f20"/>
    <path id="Path_144478" data-name="Path 144478" d="M1442.052,601.65c-.9,0-1.8-.006-2.692,0a2,2,0,0,0-2.088,2.142c-.005.628,0,1.255,0,1.954.3.014.538.038.777.038,1.576,0,3.152-.007,4.727.015.165,0,.329.182.492.28-.158.075-.315.216-.473.217-1.978.015-3.957.01-5.984.01,0-1.111-.077-2.185.023-3.242a2.172,2.172,0,0,1,1.867-1.87,29.923,29.923,0,0,1,3.1-.076c.133,0,.264.212.4.324l-.144.207" transform="translate(16322 14135)" fill="#231f20"/>
    <path id="Path_144479" data-name="Path 144479" d="M1419.091,605.836h3.363c.495,0,.99-.012,1.484.017.1,0,.2.161.3.249-.1.066-.195.191-.293.192-1.774.013-3.547.011-5.407.011v-2.071c0-1.544,0-3.089,0-4.635,0-.361.039-.622.554-.449Z" transform="translate(16322 14135)" fill="#231f20"/>
  </g>
</svg>
