<svg xmlns="http://www.w3.org/2000/svg" width="59.52" height="50.488" viewBox="0 0 59.52 50.488">
  <g id="Client_27" transform="translate(-17410.379 -14386.569)">
    <path id="Path_145783" data-name="Path 145783" d="M1132.313,281.546H1103.5V251.569h28.812Zm-27.38-1.489h25.949v-27h-25.949Z" transform="translate(16322 14135)" fill="#19a6de"/>
    <path id="Path_145784" data-name="Path 145784" d="M1125.634,274.6h-15.453V258.518h15.453Zm-14.022-1.489h12.59v-13.1h-12.59Z" transform="translate(16322 14135)" fill="#19a6de"/>
    <path id="Path_145785" data-name="Path 145785" d="M1127.542,256.733v19.85h-19.078l-1.431,1.488h21.94V255.245Z" transform="translate(16322 14135)" fill="#19a6de"/>
    <path id="Path_145786" data-name="Path 145786" d="M1108.272,276.265V256.534h18.965l1.431-1.49h-21.827v22.71Z" transform="translate(16322 14135)" fill="#19a6de"/>
    <path id="Path_145787" data-name="Path 145787" d="M1092.62,297.162h-.8a.108.108,0,0,0-.11.071l-1.15,2.748h-.027l-1.171-2.748a.107.107,0,0,0-.11-.071h-.81c-.045,0-.068.024-.068.071v4.675c0,.047.023.071.068.071h.77a.062.062,0,0,0,.068-.071V299.2h.028l.857,2.032a.134.134,0,0,0,.129.092h.47a.134.134,0,0,0,.129-.092l.858-2.032h.027v2.712a.062.062,0,0,0,.068.071h.77c.045,0,.068-.024.068-.071v-4.675c0-.047-.023-.071-.068-.071" transform="translate(16322 14135)" fill="#1d79bb"/>
    <path id="Path_145788" data-name="Path 145788" d="M1095.853,297.234a.087.087,0,0,0-.088-.073h-.858a.088.088,0,0,0-.089.073l-1.592,4.675c-.014.045,0,.07.047.07h.893a.086.086,0,0,0,.087-.07l.259-.843h1.621l.265.843a.088.088,0,0,0,.089.07h.884c.046,0,.062-.025.049-.07Zm-1.062,2.946.525-1.687h.02l.525,1.687Z" transform="translate(16322 14135)" fill="#1d79bb"/>
    <path id="Path_145789" data-name="Path 145789" d="M1100.618,299.995a1.371,1.371,0,0,0,.606-.523,1.5,1.5,0,0,0,.218-.814,1.585,1.585,0,0,0-.112-.6,1.364,1.364,0,0,0-.32-.476,1.46,1.46,0,0,0-.5-.306,1.8,1.8,0,0,0-.643-.112h-1.845c-.045,0-.068.026-.068.073v4.675a.063.063,0,0,0,.068.071h.866a.063.063,0,0,0,.068-.071v-1.722c0-.029.012-.042.04-.042h.62l.8,1.764a.1.1,0,0,0,.1.071h.966a.05.05,0,0,0,.048-.026.067.067,0,0,0,0-.059Zm-.347-.9a.635.635,0,0,1-.456.163H1099c-.028,0-.04-.015-.04-.043v-1.111c0-.03.012-.042.04-.042h.817a.634.634,0,0,1,.456.162.64.64,0,0,1,0,.871" transform="translate(16322 14135)" fill="#1d79bb"/>
    <path id="Path_145790" data-name="Path 145790" d="M1104.472,299.082l1.4-1.826a.072.072,0,0,0,.017-.066.044.044,0,0,0-.044-.028h-.987a.132.132,0,0,0-.116.066l-1.538,2.088v-2.083a.062.062,0,0,0-.068-.071h-.865a.062.062,0,0,0-.069.071v4.675a.062.062,0,0,0,.069.071h.865a.062.062,0,0,0,.068-.071v-1.224l.606-.792,1.048,2.024a.108.108,0,0,0,.1.063h1c.059,0,.072-.028.04-.084Z" transform="translate(16322 14135)" fill="#1d79bb"/>
    <path id="Path_145791" data-name="Path 145791" d="M1109.633,297.162h-2.97a.062.062,0,0,0-.068.071v4.675a.062.062,0,0,0,.068.071h2.97a.062.062,0,0,0,.068-.071v-.757a.062.062,0,0,0-.068-.071h-2c-.028,0-.04-.015-.04-.043v-1c0-.027.012-.043.04-.043h1.663c.044,0,.066-.022.066-.07v-.75c0-.047-.022-.073-.066-.073h-1.663c-.028,0-.04-.013-.04-.043V298.1c0-.028.012-.042.04-.042h2a.062.062,0,0,0,.068-.071v-.758a.062.062,0,0,0-.068-.071" transform="translate(16322 14135)" fill="#1d79bb"/>
    <path id="Path_145792" data-name="Path 145792" d="M1113.609,297.162h-3.425a.062.062,0,0,0-.068.071v.786c0,.048.023.073.068.073h1.171c.028,0,.041.012.041.042v3.774c0,.047.023.071.068.071h.865c.045,0,.068-.024.068-.071v-3.774c0-.03.013-.042.041-.042h1.171c.045,0,.068-.025.068-.073v-.786c0-.047-.023-.071-.068-.071" transform="translate(16322 14135)" fill="#1d79bb"/>
    <path id="Path_145793" data-name="Path 145793" d="M1115.167,297.162h-.865c-.045,0-.068.024-.068.071v4.675c0,.047.023.071.068.071h.865c.045,0,.068-.024.068-.071v-4.675c0-.047-.023-.071-.068-.071" transform="translate(16322 14135)" fill="#1d79bb"/>
    <path id="Path_145794" data-name="Path 145794" d="M1119.627,297.162h-.77a.062.062,0,0,0-.068.071v3.033h-.033l-1.634-3.033a.129.129,0,0,0-.117-.071h-.817c-.045,0-.068.024-.068.071v4.675c0,.047.023.071.068.071h.77c.045,0,.068-.024.068-.071v-3.023h.035l1.639,3.023a.13.13,0,0,0,.117.071h.81c.045,0,.068-.024.068-.071v-4.675c0-.047-.023-.071-.068-.071" transform="translate(16322 14135)" fill="#1d79bb"/>
    <path id="Path_145795" data-name="Path 145795" d="M1124.025,299.3h-1.594c-.044,0-.067.023-.067.07v.681c0,.048.023.07.067.07h.627c.027,0,.04.015.04.043a2.343,2.343,0,0,1-.013.271,1.29,1.29,0,0,1-.04.2.648.648,0,0,1-.28.368.856.856,0,0,1-.462.128.794.794,0,0,1-.494-.142.743.743,0,0,1-.263-.388,1.036,1.036,0,0,1-.033-.147c-.009-.054-.018-.12-.024-.2s-.012-.174-.014-.287,0-.247,0-.4,0-.29,0-.4.007-.206.014-.284.015-.143.024-.2a.949.949,0,0,1,.033-.147.774.774,0,0,1,.259-.392.752.752,0,0,1,.483-.147.84.84,0,0,1,.474.125,1.017,1.017,0,0,1,.323.371c.013.038.045.051.1.036l.728-.319a.071.071,0,0,0,.028-.1,1.483,1.483,0,0,0-.583-.735,1.718,1.718,0,0,0-.474-.217,2.161,2.161,0,0,0-.592-.077,1.941,1.941,0,0,0-1.071.29,1.524,1.524,0,0,0-.63.879,2.329,2.329,0,0,0-.065.247,2.576,2.576,0,0,0-.037.272c-.01.1-.016.212-.021.34s-.007.279-.007.459,0,.333.007.459.011.242.021.34a2.535,2.535,0,0,0,.037.27,2.342,2.342,0,0,0,.065.248,1.512,1.512,0,0,0,.63.878,1.941,1.941,0,0,0,1.071.291,1.811,1.811,0,0,0,1.066-.313,1.624,1.624,0,0,0,.623-.89,2.529,2.529,0,0,0,.089-.484q.027-.282.027-.6v-.4a.061.061,0,0,0-.068-.07" transform="translate(16322 14135)" fill="#1d79bb"/>
    <path id="Path_145796" data-name="Path 145796" d="M1129.862,297.162h-2.969a.062.062,0,0,0-.068.071v4.675a.062.062,0,0,0,.068.071h.865a.062.062,0,0,0,.068-.071V300.1c0-.031.013-.044.041-.044h1.662c.045,0,.068-.024.068-.072v-.751a.061.061,0,0,0-.068-.07h-1.662a.037.037,0,0,1-.041-.042V298.1c0-.028.013-.042.041-.042h2c.045,0,.068-.023.068-.071v-.758a.062.062,0,0,0-.068-.071" transform="translate(16322 14135)" fill="#1d79bb"/>
    <path id="Path_145797" data-name="Path 145797" d="M1134.1,298.772a2.576,2.576,0,0,0-.037-.272,2.091,2.091,0,0,0-.065-.247,1.544,1.544,0,0,0-.629-.875,2.053,2.053,0,0,0-2.117,0,1.547,1.547,0,0,0-.631.875,2.316,2.316,0,0,0-.064.247c-.016.08-.028.171-.038.272s-.016.212-.02.34-.007.279-.007.459,0,.333.007.461.011.24.02.338.022.19.038.27a2.329,2.329,0,0,0,.064.248,1.509,1.509,0,0,0,.631.878,2.07,2.07,0,0,0,2.117,0,1.506,1.506,0,0,0,.629-.878,2.1,2.1,0,0,0,.065-.248,2.572,2.572,0,0,0,.037-.27c.01-.1.017-.21.021-.338s.007-.282.007-.461,0-.332-.007-.459-.011-.242-.021-.34m-.99,1.2c0,.113-.007.209-.014.287s-.015.145-.024.2a1.211,1.211,0,0,1-.033.147.761.761,0,0,1-.26.389.852.852,0,0,1-.939,0,.753.753,0,0,1-.259-.389,1.068,1.068,0,0,1-.033-.147,1.877,1.877,0,0,1-.024-.2c-.007-.078-.011-.174-.014-.287s0-.248,0-.4,0-.29,0-.405.007-.209.014-.286.014-.142.024-.2a.934.934,0,0,1,.033-.144.758.758,0,0,1,1.458,0,1.046,1.046,0,0,1,.033.144c.009.057.017.121.024.2s.011.174.014.286,0,.248,0,.405,0,.291,0,.4" transform="translate(16322 14135)" fill="#1d79bb"/>
    <path id="Path_145798" data-name="Path 145798" d="M1137.555,299.995a1.371,1.371,0,0,0,.606-.523,1.5,1.5,0,0,0,.218-.814,1.587,1.587,0,0,0-.113-.6,1.362,1.362,0,0,0-.319-.476,1.471,1.471,0,0,0-.5-.306,1.8,1.8,0,0,0-.643-.112h-1.845c-.045,0-.068.026-.068.073v4.675a.063.063,0,0,0,.068.071h.865a.063.063,0,0,0,.068-.071v-1.722c0-.029.013-.042.041-.042h.619l.8,1.764a.1.1,0,0,0,.1.071h.967a.05.05,0,0,0,.048-.026.076.076,0,0,0,0-.059Zm-.347-.9a.636.636,0,0,1-.456.163h-.817c-.028,0-.041-.015-.041-.043v-1.111c0-.03.013-.042.041-.042h.817a.636.636,0,0,1,.456.162.643.643,0,0,1,0,.871" transform="translate(16322 14135)" fill="#1d79bb"/>
    <path id="Path_145799" data-name="Path 145799" d="M1142.6,297.162h-.865c-.045,0-.067.024-.067.071v3a.955.955,0,0,1-.212.665.716.716,0,0,1-.558.236.727.727,0,0,1-.565-.236.955.955,0,0,1-.211-.665v-3c0-.047-.023-.071-.068-.071h-.865c-.046,0-.067.024-.067.071v2.975a2.231,2.231,0,0,0,.132.795,1.613,1.613,0,0,0,.368.58,1.551,1.551,0,0,0,.561.354,2.083,2.083,0,0,0,.715.121,2.049,2.049,0,0,0,.711-.121,1.561,1.561,0,0,0,.559-.354,1.642,1.642,0,0,0,.368-.58,2.231,2.231,0,0,0,.132-.795v-2.975c0-.047-.022-.071-.068-.071" transform="translate(16322 14135)" fill="#1d79bb"/>
    <path id="Path_145800" data-name="Path 145800" d="M1147.774,297.162h-.8a.108.108,0,0,0-.11.071l-1.15,2.748h-.027l-1.171-2.748a.108.108,0,0,0-.11-.071h-.81a.062.062,0,0,0-.068.071v4.675a.062.062,0,0,0,.068.071h.77c.045,0,.068-.024.068-.071V299.2h.027l.858,2.032a.134.134,0,0,0,.129.092h.47a.134.134,0,0,0,.129-.092l.858-2.032h.027v2.712c0,.047.023.071.068.071h.77a.062.062,0,0,0,.068-.071v-4.675a.062.062,0,0,0-.068-.071" transform="translate(16322 14135)" fill="#1d79bb"/>
    <rect id="Rectangle_17744" data-name="Rectangle 17744" width="0.986" height="0.897" transform="translate(17414.021 14423.454)" fill="#1d79bb"/>
    <path id="Path_145801" data-name="Path 145801" d="M1090.056,294.757h3.19v-1.268h2.534v-3.533h-.952v2.679h-1.582v-2.607a9.327,9.327,0,0,0-1.363-.143,1.966,1.966,0,0,0-.975.235,1.67,1.67,0,0,0-.654.653,1.862,1.862,0,0,0-.233.928,1.989,1.989,0,0,0,.216.942,1.572,1.572,0,0,0,.6.627,1.676,1.676,0,0,0,.852.219h.1l.37-.854h-.3a.783.783,0,0,1-.62-.245.994.994,0,0,1-.216-.674c0-.65.279-.977.836-.977a2.186,2.186,0,0,1,.438.05v3.12h-1.945q-1.007,0-1.006-.961v-1.232h-.959v1.39a1.748,1.748,0,0,0,.4,1.181,1.586,1.586,0,0,0,1.274.47" transform="translate(16322 14135)" fill="#1d79bb"/>
    <rect id="Rectangle_17745" data-name="Rectangle 17745" width="0.986" height="0.897" transform="translate(17412.652 14423.454)" fill="#1d79bb"/>
    <rect id="Rectangle_17746" data-name="Rectangle 17746" width="0.986" height="0.896" transform="translate(17416.957 14429.118)" fill="#1d79bb"/>
    <rect id="Rectangle_17747" data-name="Rectangle 17747" width="0.986" height="0.896" transform="translate(17415.59 14429.118)" fill="#1d79bb"/>
    <rect id="Rectangle_17748" data-name="Rectangle 17748" width="0.986" height="0.897" transform="translate(17436.336 14423.454)" fill="#1d79bb"/>
    <rect id="Rectangle_17749" data-name="Rectangle 17749" width="0.986" height="0.897" transform="translate(17434.965 14423.454)" fill="#1d79bb"/>
    <path id="Path_145802" data-name="Path 145802" d="M1117.17,288.033h-.952v4.6h-.684a2.083,2.083,0,0,1-.59-.062.751.751,0,0,1-.342-.229,2.12,2.12,0,0,0,.035-.373v-2.085h-.959v1.929a.871.871,0,0,1-.2.6.6.6,0,0,1-.469.225h-3.286a2.064,2.064,0,0,1-.592-.062.772.772,0,0,1-.346-.237,2.224,2.224,0,0,0,.041-.365v-2.315h-.959v2.159a.906.906,0,0,1-.178.616.575.575,0,0,1-.451.2.838.838,0,0,1-.51-.167.569.569,0,0,1-.23-.49v-2.021h-.958v1.858a.871.871,0,0,1-.2.6.6.6,0,0,1-.469.225h-.424v-2.678h-.959v2.678h-3.772v-2.608a9.152,9.152,0,0,0-1.363-.141,1.979,1.979,0,0,0-.976.234,1.648,1.648,0,0,0-.653.651,1.87,1.87,0,0,0-.234.93,1.974,1.974,0,0,0,.217.94,1.533,1.533,0,0,0,.6.627,1.645,1.645,0,0,0,.852.221h.1l.37-.854h-.3a.78.78,0,0,1-.62-.247.981.981,0,0,1-.216-.672q0-.978.836-.977a2.195,2.195,0,0,1,.438.051v2.458a1.015,1.015,0,0,1-.13.552.8.8,0,0,1-.38.3,2.734,2.734,0,0,1-.675.16l.384.891a2.617,2.617,0,0,0,1.243-.5,1.594,1.594,0,0,0,.5-1.168h5.457a.828.828,0,0,1,1.469-.121,1.879,1.879,0,0,0,.742.121,1.455,1.455,0,0,0,.654-.148,1.366,1.366,0,0,0,.49-.413,1.4,1.4,0,0,0,.5.433,1.793,1.793,0,0,0,.7.128h3.574a1.265,1.265,0,0,0,.6-.143,1.242,1.242,0,0,0,.449-.4,1.343,1.343,0,0,0,.492.416,1.775,1.775,0,0,0,.693.125h1.636Z" transform="translate(16322 14135)" fill="#1d79bb"/>
    <rect id="Rectangle_17750" data-name="Rectangle 17750" width="0.959" height="5.457" transform="translate(17440.332 14423.034)" fill="#1d79bb"/>
    <path id="Path_145803" data-name="Path 145803" d="M1127.2,289.957v2.679h.959V289.1h-1.472a1.588,1.588,0,0,0-1.273.472,1.763,1.763,0,0,0-.4,1.188v1.873h-1.22q-1.005,0-1.006-.954v-1.725h-.959v1.882a1.746,1.746,0,0,0,.405,1.181,1.589,1.589,0,0,0,1.273.47h2.465v-2.571q0-.963,1.006-.962Z" transform="translate(16322 14135)" fill="#1d79bb"/>
    <rect id="Rectangle_17751" data-name="Rectangle 17751" width="0.986" height="0.897" transform="translate(17458.232 14423.454)" fill="#1d79bb"/>
    <rect id="Rectangle_17752" data-name="Rectangle 17752" width="0.986" height="0.897" transform="translate(17456.861 14423.454)" fill="#1d79bb"/>
    <rect id="Rectangle_17753" data-name="Rectangle 17753" width="0.985" height="0.897" transform="translate(17462.889 14423.454)" fill="#1d79bb"/>
    <path id="Path_145804" data-name="Path 145804" d="M1144.263,293.49h3.224a5.511,5.511,0,0,0,.411-1.788,1.884,1.884,0,0,0-.233-.93,1.658,1.658,0,0,0-.654-.651,1.97,1.97,0,0,0-.975-.234,9.4,9.4,0,0,0-1.363.141v2.609h-2.19a.79.79,0,0,1-.664-.265,1.942,1.942,0,0,0,.041-.4v-2.017h-.959v1.859a.872.872,0,0,1-.195.6.6.6,0,0,1-.469.226h-2.807a2.121,2.121,0,0,1-.59-.062.767.767,0,0,1-.341-.23,2.209,2.209,0,0,0,.034-.371v-2.087h-.959v1.929a.872.872,0,0,1-.195.6.6.6,0,0,1-.469.226h-2.4a.911.911,0,0,1-.478-.1.6.6,0,0,1-.254-.331l-.856-2.314H1129.9l.911,2.465a2.292,2.292,0,0,1-1.212.285h-1.062l.37.853h.836a2.139,2.139,0,0,0,1.335-.491,1,1,0,0,0,.517.374,2.9,2.9,0,0,0,.92.117h2.684a1.294,1.294,0,0,0,.6-.141,1.255,1.255,0,0,0,.448-.4,1.344,1.344,0,0,0,.493.416,1.766,1.766,0,0,0,.691.125h3.1a1.2,1.2,0,0,0,.985-.456,1.4,1.4,0,0,0,.48.343,1.271,1.271,0,0,0,.492.113h1.781Zm1.369-2.7a2.117,2.117,0,0,1,.438-.05q.836,0,.835.978a3.458,3.458,0,0,1-.137.919h-1.136Z" transform="translate(16322 14135)" fill="#1d79bb"/>
  </g>
</svg>
