<svg xmlns="http://www.w3.org/2000/svg" width="60.328" height="27.524" viewBox="0 0 60.328 27.524">
  <g id="Client_42" transform="translate(-17443.619 -14499.638)">
    <path id="Path_145160" data-name="Path 145160" d="M1132.108,371.625c0-.271.167-.354.371-.186l1.208,1.009a.391.391,0,0,1,0,.62l-1.208,1.008c-.2.171-.371.087-.371-.184Z" transform="translate(16322 14135)" fill="#3fbec5"/>
    <path id="Path_145161" data-name="Path 145161" d="M1137.657,375.518h.258V373.64h-.258Zm-10.031,0h.258V373.64h-.258Z" transform="translate(16322 14135)" fill="#302f72"/>
    <path id="Path_145162" data-name="Path 145162" d="M1141.647,366.57a1.206,1.206,0,0,0,1.483,0,.91.91,0,0,0,.316-.752.923.923,0,0,0-.3-.717,1.176,1.176,0,0,0-1.509,0,.923.923,0,0,0-.3.717.91.91,0,0,0,.316.752" transform="translate(16322 14135)" fill="#302f72"/>
    <path id="Path_145163" data-name="Path 145163" d="M1149.377,376.458a1.016,1.016,0,0,0-.716.269.908.908,0,0,0-.29.7.865.865,0,0,0,.3.711,1.167,1.167,0,0,0,1.418,0,.865.865,0,0,0,.3-.711.917.917,0,0,0-.284-.7,1.01,1.01,0,0,0-.722-.269" transform="translate(16322 14135)" fill="#302f72"/>
    <path id="Path_145164" data-name="Path 145164" d="M1146.579,376.458a1.016,1.016,0,0,0-.716.269.908.908,0,0,0-.29.7.865.865,0,0,0,.3.711,1.167,1.167,0,0,0,1.418,0,.865.865,0,0,0,.3-.711.908.908,0,0,0-.29-.7,1.016,1.016,0,0,0-.716-.269" transform="translate(16322 14135)" fill="#302f72"/>
    <path id="Path_145165" data-name="Path 145165" d="M1175.061,373.2a.429.429,0,0,1-.419.437H1169.5a2.55,2.55,0,0,1-1.6-.445.456.456,0,0,1-.17-.414c.013-.106.025-.218.035-.329.017-.191.026-.395.026-.609V367.78a.741.741,0,0,0-.725-.754h-.343a.74.74,0,0,0-.725.754v4.3a1.837,1.837,0,0,1-.387,1.234,1.436,1.436,0,0,1-1.16.456,1.56,1.56,0,0,1-1.18-.463,1.991,1.991,0,0,1-.445-1.427v-2.493a.74.74,0,0,0-.725-.753h-.355a.739.739,0,0,0-.725.753v2.573a1.891,1.891,0,0,1-.155.818,1.409,1.409,0,0,1-.406.517,1.461,1.461,0,0,1-.554.267,2.443,2.443,0,0,1-.587.075h-.9a.429.429,0,0,1-.419-.437v-3.813a.74.74,0,0,0-.725-.753h-.356a.74.74,0,0,0-.725.753V373.2a.428.428,0,0,1-.418.437H1149.4a.429.429,0,0,1-.419-.437v-4.483a.739.739,0,0,0-.725-.754h-.355a.74.74,0,0,0-.725.754V373.2a.429.429,0,0,1-.419.437h-2.991a.429.429,0,0,1-.42-.437v-4.483a.739.739,0,0,0-.725-.754h-.355a.74.74,0,0,0-.725.754V373.2a.428.428,0,0,1-.418.437h-4.648c.026-.134.047-.274.064-.416a3.983,3.983,0,0,0,.026-.443,4.3,4.3,0,0,0-.3-1.623,3.994,3.994,0,0,0-.838-1.3,3.906,3.906,0,0,0-1.251-.865,3.744,3.744,0,0,0-1.528-.314,3.566,3.566,0,0,0-1.5.32,3.9,3.9,0,0,0-1.224.88,4.143,4.143,0,0,0-.826,1.3,4.191,4.191,0,0,0-.3,1.6c0,.152.006.3.02.443a2.468,2.468,0,0,0,.07.416h-4.506a.428.428,0,0,1-.419-.437v-7.812a.739.739,0,0,0-.725-.752h-.356a.739.739,0,0,0-.725.752v9.691a.428.428,0,0,0,.42.435h7.1a.413.413,0,0,1,.291.126,4.03,4.03,0,0,0,1.143.807,3.547,3.547,0,0,0,1.547.343,3.819,3.819,0,0,0,2.742-1.147.411.411,0,0,1,.293-.129h23.51a3.659,3.659,0,0,0,1.48-.283,3.6,3.6,0,0,0,.892-.554.4.4,0,0,1,.571.039,2.321,2.321,0,0,0,.264.268,2.6,2.6,0,0,0,.626.4,3.049,3.049,0,0,0,.7.208,4.472,4.472,0,0,0,.735.058,3.025,3.025,0,0,0,2.746-1.247,2.6,2.6,0,0,0,.291.4,1.828,1.828,0,0,0,.445.363,2.461,2.461,0,0,0,.657.255,3.8,3.8,0,0,0,.644.081v.011h7.214a.428.428,0,0,0,.419-.435v-8.131a.428.428,0,0,1,.419-.435.428.428,0,0,0,.419-.437v-1.006a.426.426,0,0,0-.419-.434h-1.805a.426.426,0,0,0-.419.434Z" transform="translate(16322 14135)" fill="#302f72"/>
    <path id="Path_145166" data-name="Path 145166" d="M1179.9,365.392v9.69a.427.427,0,0,0,.419.436h.967a.427.427,0,0,0,.419-.436v-9.69a.74.74,0,0,0-.725-.754h-.355a.739.739,0,0,0-.725.754" transform="translate(16322 14135)" fill="#302f72"/>
    <path id="Path_145167" data-name="Path 145167" d="M1135.75,375.473a.351.351,0,0,1,0-.057.808.808,0,0,1,0-.133,4.316,4.316,0,0,0-.26-5.624,3.908,3.908,0,0,0-5.687,0,4.312,4.312,0,0,0,0,5.921,3.911,3.911,0,0,0,5.524.159,1.407,1.407,0,0,0,1.341,1.065v-.493a.932.932,0,0,1-.912-.838m-.6-.244a3.456,3.456,0,0,1-5.023,0,3.795,3.795,0,0,1,0-5.222,3.454,3.454,0,0,1,5.023,0,3.8,3.8,0,0,1,0,5.222" transform="translate(16322 14135)" fill="#04bac1"/>
    <path id="Path_145168" data-name="Path 145168" d="M1124.173,380.182a1.054,1.054,0,0,0,.7-.243.978.978,0,0,0,.006-1.388,1.089,1.089,0,0,0-1.408,0,.977.977,0,0,0,.005,1.388,1.059,1.059,0,0,0,.7.243" transform="translate(16322 14135)" fill="#04bac1"/>
    <path id="Path_145169" data-name="Path 145169" d="M1126.928,380.182a1.056,1.056,0,0,0,.7-.243.871.871,0,0,0,.292-.707.884.884,0,0,0-.279-.681,1.1,1.1,0,0,0-1.416,0,.977.977,0,0,0,.007,1.388,1.056,1.056,0,0,0,.7.243" transform="translate(16322 14135)" fill="#04bac1"/>
    <path id="Path_145170" data-name="Path 145170" d="M1132.558,381.821h-.167a.821.821,0,0,0-.8.838v4.319a.424.424,0,0,1-.414.43h-2.767a.422.422,0,0,1-.412-.43v-5.389a.42.42,0,0,0-.412-.428h-.952a.419.419,0,0,0-.413.428v.232h-.254a5.531,5.531,0,0,0-1.834.283,4.035,4.035,0,0,0-1.365.779,3.294,3.294,0,0,0-.852,1.176,3.751,3.751,0,0,0-.292,1.485,3.888,3.888,0,0,0,.324,1.639,3.174,3.174,0,0,0,.9,1.162,3.856,3.856,0,0,0,1.373.688,6.448,6.448,0,0,0,1.745.223h6.987a.422.422,0,0,0,.414-.428v-6.169a.822.822,0,0,0-.806-.838m-6.341,5.157a.424.424,0,0,1-.414.43h-.361a2.461,2.461,0,0,1-.761-.118,2.017,2.017,0,0,1-.655-.359,1.724,1.724,0,0,1-.628-1.387,1.67,1.67,0,0,1,.185-.8,1.772,1.772,0,0,1,.487-.588,2.251,2.251,0,0,1,.686-.365,2.479,2.479,0,0,1,.775-.125h.272a.423.423,0,0,1,.414.429Z" transform="translate(16322 14135)" fill="#04bac1"/>
    <path id="Path_145171" data-name="Path 145171" d="M1133.1,390.181a1,1,0,0,0-.705.265.889.889,0,0,0-.285.685.849.849,0,0,0,.292.7,1.139,1.139,0,0,0,1.4,0,.849.849,0,0,0,.292-.7.9.9,0,0,0-.279-.685.993.993,0,0,0-.711-.265" transform="translate(16322 14135)" fill="#04bac1"/>
    <path id="Path_145172" data-name="Path 145172" d="M1130.343,390.181a1,1,0,0,0-.706.265.892.892,0,0,0-.285.685.849.849,0,0,0,.292.7,1.14,1.14,0,0,0,1.4,0,.852.852,0,0,0,.292-.7.889.889,0,0,0-.286-.685,1,1,0,0,0-.7-.265" transform="translate(16322 14135)" fill="#04bac1"/>
    <path id="Path_145173" data-name="Path 145173" d="M1140.244,382.811a2.775,2.775,0,0,0-1.13-.76,4.5,4.5,0,0,0-1.511-.23.6.6,0,0,0-.584.606v.635a.6.6,0,0,0,.584.607h.178a1.415,1.415,0,0,1,.629.139,1.194,1.194,0,0,1,.45.363,1.468,1.468,0,0,1,.26.523,2.6,2.6,0,0,1,.083.692v1.592a.423.423,0,0,1-.413.43h-3.6a.42.42,0,0,0-.412.428v.992a.42.42,0,0,0,.412.428h5.383a.42.42,0,0,0,.412-.428v-3.363a6.55,6.55,0,0,0-.164-1.51,2.561,2.561,0,0,0-.572-1.144" transform="translate(16322 14135)" fill="#04bac1"/>
    <path id="Path_145174" data-name="Path 145174" d="M1175.409,386.978a.421.421,0,0,1-.413.429h-.564a2.518,2.518,0,0,1-1.582-.437.45.45,0,0,1-.166-.407c.013-.1.024-.215.034-.325.017-.188.025-.39.025-.6V381.6a.692.692,0,0,0-.677-.7h-.41a.692.692,0,0,0-.677.7v4.278a1.821,1.821,0,0,1-.381,1.215,1.42,1.42,0,0,1-1.143.449,1.543,1.543,0,0,1-1.161-.456,1.97,1.97,0,0,1-.438-1.407v-2.493a.692.692,0,0,0-.677-.7h-.423a.692.692,0,0,0-.677.7v2.573a1.848,1.848,0,0,1-.153.8,1.4,1.4,0,0,1-.4.508,1.459,1.459,0,0,1-.547.266,2.447,2.447,0,0,1-.577.071h-.882a.421.421,0,0,1-.413-.429v-3.793a.692.692,0,0,0-.677-.7h-.423a.692.692,0,0,0-.677.7v3.793a.421.421,0,0,1-.413.429h-3.852a.427.427,0,0,1-.386-.581l1.21-3.325a.446.446,0,0,0-.114-.48,8.812,8.812,0,0,0-1.625-1.162,4.264,4.264,0,0,0-2.069-.527,4.047,4.047,0,0,0-1.054.138,4.822,4.822,0,0,0-.983.389,7.23,7.23,0,0,0-.94.6q-.348.258-.693.554a.44.44,0,0,0-.12.486l1.247,3.327a.427.427,0,0,1-.384.585h-2.068a.419.419,0,0,1-.412-.43l.01-4.632a.514.514,0,0,0-.5-.525h-1.5a5.68,5.68,0,0,0-1.752.258,4.158,4.158,0,0,0-1.377.733,3.329,3.329,0,0,0-.9,1.162,3.612,3.612,0,0,0-.324,1.559,3.917,3.917,0,0,0,.337,1.7,3.1,3.1,0,0,0,.927,1.157,3.98,3.98,0,0,0,1.383.661,6.7,6.7,0,0,0,1.708.211h.2a1.45,1.45,0,0,1-.158.553.863.863,0,0,1-.318.325,1.211,1.211,0,0,1-.476.144,5.382,5.382,0,0,1-.648.033,5.031,5.031,0,0,1-.888-.079c-.132-.022-.269-.053-.41-.089a.42.42,0,0,0-.514.446l.065.951a.429.429,0,0,0,.305.384l.236.065c.153.035.3.065.438.093s.282.047.425.058.3.02.47.02a4.335,4.335,0,0,0,1.448-.211,2.556,2.556,0,0,0,.977-.6,2.45,2.45,0,0,0,.572-.917,4.342,4.342,0,0,0,.2-.827.411.411,0,0,1,.405-.354h15.26a3.6,3.6,0,0,0,1.456-.28,3.537,3.537,0,0,0,1.2-.856,2.4,2.4,0,0,0,.5.613,2.527,2.527,0,0,0,.616.39,2.932,2.932,0,0,0,.686.206,4.559,4.559,0,0,0,.723.057,2.979,2.979,0,0,0,2.7-1.228,2.4,2.4,0,0,0,.286.4,1.789,1.789,0,0,0,.438.358,2.459,2.459,0,0,0,.647.251,3.609,3.609,0,0,0,.635.079v.014h2.609a.422.422,0,0,0,.412-.431v-8a.423.423,0,0,1,.413-.43.42.42,0,0,0,.413-.427v-.993a.419.419,0,0,0-.413-.427h-1.777a.419.419,0,0,0-.413.427Zm-28.5,0a.42.42,0,0,1-.412.429h-.337a2.694,2.694,0,0,1-.806-.117,1.859,1.859,0,0,1-.654-.359,1.668,1.668,0,0,1-.438-.586,1.969,1.969,0,0,1-.158-.813,1.7,1.7,0,0,1,.171-.767,1.876,1.876,0,0,1,.457-.587,2.106,2.106,0,0,1,.774-.414,2.728,2.728,0,0,1,.78-.093h.12a.512.512,0,0,1,.5.522Zm7.655.429h-.939a.411.411,0,0,1-.389-.285l-.953-2.812a.441.441,0,0,1,.176-.51,3.3,3.3,0,0,1,.646-.341,2.691,2.691,0,0,1,.977-.172,2.8,2.8,0,0,1,.971.158,3.519,3.519,0,0,1,.669.346.441.441,0,0,1,.182.513l-.951,2.816a.412.412,0,0,1-.389.287" transform="translate(16322 14135)" fill="#04bac1"/>
    <path id="Path_145175" data-name="Path 145175" d="M1180.17,378.973v9.854a.42.42,0,0,0,.412.429h.952a.42.42,0,0,0,.413-.429v-9.854a.422.422,0,0,0-.413-.429h-.952a.422.422,0,0,0-.412.429" transform="translate(16322 14135)" fill="#04bac1"/>
    <path id="Path_145176" data-name="Path 145176" d="M1136.538,372.618a3.9,3.9,0,1,1-3.9-4.055,3.98,3.98,0,0,1,3.9,4.055" transform="translate(16322 14135)" fill="#04bac1"/>
    <path id="Path_145177" data-name="Path 145177" d="M1131.033,371.814a1.884,1.884,0,0,0-.176.555.264.264,0,0,1-.184.226l-.094.026-.274.077-.258.068a.255.255,0,0,1-.316-.248A2.435,2.435,0,0,1,1130.2,371a.25.25,0,0,1,.4-.005l.16.2.227.289.024.027a.281.281,0,0,1,.023.3" transform="translate(16322 14135)" fill="#fff"/>
    <path id="Path_145178" data-name="Path 145178" d="M1131.949,374.533l-.011.212-.009.154-.015.3a.26.26,0,0,1-.325.24,2.178,2.178,0,0,1-.7-.356,2.3,2.3,0,0,1-.54-.582.269.269,0,0,1,.118-.4l.262-.1.183-.077.153-.062a.255.255,0,0,1,.278.068,1.745,1.745,0,0,0,.458.351.264.264,0,0,1,.148.252" transform="translate(16322 14135)" fill="#fff"/>
    <path id="Path_145179" data-name="Path 145179" d="M1134.832,374.5a2.331,2.331,0,0,1-.54.583,2.212,2.212,0,0,1-.7.357.26.26,0,0,1-.325-.239l-.016-.3-.008-.153-.011-.212a.263.263,0,0,1,.148-.252,1.815,1.815,0,0,0,.454-.344.252.252,0,0,1,.282-.071l.153.061.183.073.263.106a.267.267,0,0,1,.117.394" transform="translate(16322 14135)" fill="#fff"/>
    <path id="Path_145180" data-name="Path 145180" d="M1135.45,372.518a.256.256,0,0,1-.317.248l-.258-.068-.274-.077-.094-.026a.269.269,0,0,1-.188-.226,1.775,1.775,0,0,0-.172-.555.28.28,0,0,1,.024-.3l.023-.027.227-.294.157-.2a.251.251,0,0,1,.4,0,2.421,2.421,0,0,1,.367.716,2.358,2.358,0,0,1,.106.8" transform="translate(16322 14135)" fill="#fff"/>
    <path id="Path_145181" data-name="Path 145181" d="M1133.482,370.169l-.129.209-.223.358v0a.258.258,0,0,1-.258.116,1.467,1.467,0,0,0-.282-.027,1.436,1.436,0,0,0-.282.027.257.257,0,0,1-.258-.116v0l-.223-.358-.129-.209a.27.27,0,0,1,.126-.394,2.213,2.213,0,0,1,1.533,0,.27.27,0,0,1,.125.394" transform="translate(16322 14135)" fill="#fff"/>
    <path id="Path_145182" data-name="Path 145182" d="M1131.033,371.814a1.884,1.884,0,0,0-.176.555.264.264,0,0,1-.184.226l-.094.026a2.1,2.1,0,0,1,.407-1.131l.024.027a.281.281,0,0,1,.023.3" transform="translate(16322 14135)" fill="#302f72"/>
    <path id="Path_145183" data-name="Path 145183" d="M1131.949,374.533l-.011.212a2.021,2.021,0,0,1-1.026-.821l.153-.062a.255.255,0,0,1,.278.068,1.745,1.745,0,0,0,.458.351.264.264,0,0,1,.148.252" transform="translate(16322 14135)" fill="#302f72"/>
    <path id="Path_145184" data-name="Path 145184" d="M1132.591,370.658a1.968,1.968,0,0,1,.539.078v0a.252.252,0,0,1-.259.114,1.6,1.6,0,0,0-.563,0,.251.251,0,0,1-.257-.114v0a1.958,1.958,0,0,1,.54-.078" transform="translate(16322 14135)" fill="#302f72"/>
    <path id="Path_145185" data-name="Path 145185" d="M1134.116,373.866l.152.062a2.043,2.043,0,0,1-1.025.817l-.012-.212a.267.267,0,0,1,.149-.252,1.769,1.769,0,0,0,.454-.346.254.254,0,0,1,.282-.069" transform="translate(16322 14135)" fill="#302f72"/>
    <path id="Path_145186" data-name="Path 145186" d="M1134.6,372.62l-.094-.023a.273.273,0,0,1-.188-.229,1.785,1.785,0,0,0-.172-.554.28.28,0,0,1,.024-.3l.023-.028a2.1,2.1,0,0,1,.407,1.131" transform="translate(16322 14135)" fill="#302f72"/>
    <path id="Path_145187" data-name="Path 145187" d="M1132.641,376.515a3.9,3.9,0,1,1,3.745-3.9,3.828,3.828,0,0,1-3.745,3.9m0-7.733a3.84,3.84,0,1,0,3.687,3.837,3.77,3.77,0,0,0-3.687-3.837" transform="translate(16322 14135)" fill="#fff"/>
    <path id="Path_145188" data-name="Path 145188" d="M1136.662,376.311v.493a1.409,1.409,0,0,1-1.342-1.065c.114-.1.423-.456.423-.456a.7.7,0,0,0,0,.133c0,.024,0,.041,0,.057a.93.93,0,0,0,.911.838" transform="translate(16322 14135)" fill="#302f72"/>
    <path id="Path_145189" data-name="Path 145189" d="M1130.674,372.6l-.094.024-.274.08a.539.539,0,0,1,0-.08,2.407,2.407,0,0,1,.458-1.42l.227.291.023.028a.279.279,0,0,1,.024.3,1.884,1.884,0,0,0-.176.552.263.263,0,0,1-.184.228" transform="translate(16322 14135)" fill="#302f72"/>
    <path id="Path_145190" data-name="Path 145190" d="M1131.949,374.533l-.011.212-.009.154a2.27,2.27,0,0,1-1.2-.9l.183-.077.153-.062a.255.255,0,0,1,.278.068,1.745,1.745,0,0,0,.458.351.264.264,0,0,1,.148.252" transform="translate(16322 14135)" fill="#302f72"/>
    <path id="Path_145191" data-name="Path 145191" d="M1133.353,370.378l-.223.358v0a.253.253,0,0,1-.258.115,1.548,1.548,0,0,0-.282-.025,1.5,1.5,0,0,0-.281.025.254.254,0,0,1-.259-.115v0l-.223-.358a2.164,2.164,0,0,1,1.526,0" transform="translate(16322 14135)" fill="#302f72"/>
    <path id="Path_145192" data-name="Path 145192" d="M1134.269,373.926l.184.073a2.283,2.283,0,0,1-1.2.9l-.008-.156-.012-.212a.265.265,0,0,1,.149-.252,1.742,1.742,0,0,0,.454-.345.257.257,0,0,1,.282-.07Z" transform="translate(16322 14135)" fill="#302f72"/>
    <path id="Path_145193" data-name="Path 145193" d="M1134.879,372.62a.506.506,0,0,1,0,.078l-.274-.078-.094-.023a.274.274,0,0,1-.188-.229,1.785,1.785,0,0,0-.172-.554.28.28,0,0,1,.024-.3l.023-.028.227-.293a2.415,2.415,0,0,1,.458,1.424" transform="translate(16322 14135)" fill="#302f72"/>
  </g>
</svg>
