<svg xmlns="http://www.w3.org/2000/svg" width="60.998" height="63.505" viewBox="0 0 60.998 63.505">
  <g id="Client_9" transform="translate(-17392.645 -14261.128)">
    <path id="Path_140982" data-name="Path 140982" d="M1087.3,136.473c-.007,0-.019,0-.023.011s-.018.009-.025.01l-.185.013c.054-.046.106-.1.166-.137a.354.354,0,0,0,.067.1m-8.538,13.722a11.154,11.154,0,0,1,.312-1.335c.058-.227.072-.186.3-.24s1.952-.528,2.1-.612c.326-.179.231-.576-.089-.577-.145,0-1.38.438-1.662.518-.153.044-.282.1-.433.139a3.72,3.72,0,0,0,.129-.385l.436-1.206c.072-.109.221-.092.389-.115l.472-.061c.3-.035.654-.088.943-.125.315-.041.676-.015.791-.252a.26.26,0,0,0-.124-.358,17.616,17.616,0,0,0-2.238.358l.171-.409c.141-.362.425-.92.593-1.249.261,0,.379.035.631.034.274,0,1.092-.016,1.311.021.637.1.656-.539.219-.539-.1,0-.145.034-.3.036-.557.006-1.139.067-1.663.067l.8-1.451,1.771.2c.407.056.581-.462.057-.478-.2,0-.278-.035-.5-.034-.366,0-.731,0-1.1,0,.126-.248.61-.9.764-1.138h1.229c.188,0,.415.01.6,0,.483-.036.49-.534-.008-.461-.445.063-1.26.132-1.619.218l.672-.889c.207-.227.125-.268.3-.262l1.487.079c.4.023.888.208.764-.346a1.946,1.946,0,0,0-.533-.035c-.15.005-.142.025-.266.035-.1.007-.2,0-.3,0-.34.031-.757.074-1.1.1l1.122-1.218c.6-.627.195-.5,1.766-.369.332.027.858.189.966-.075a.155.155,0,0,0,0-.139c-.034-.082-.01-.086-.151-.12-.289-.068-1.586.09-1.946.09a1.175,1.175,0,0,1,.289-.286l.75-.674c.156-.132.234-.032.427-.013.46.051,1.519.039,1.989.039.057-.089.123-.09.095-.231-.061-.3-.581-.143-.826-.113l-1.262.137V136.3l1.122-.836c.143-.106.133-.111.319-.041a13.334,13.334,0,0,0,1.8.625c.181-.041.38-.336-.165-.459a11.93,11.93,0,0,0-1.582-.36,4.666,4.666,0,0,1,.974-.645c.206-.123.251-.038.288-.185a.551.551,0,0,1,.266.069c.42.179.877.31,1.3.486.861.355.75-.21.518-.3a13.114,13.114,0,0,1-1.681-.5,1.79,1.79,0,0,0,.42-.219c.153-.081.268-.139.422-.219a15.649,15.649,0,0,1,1.753-.8,4.04,4.04,0,0,0,.8-.41c.06-.041.024-.012.058-.043a1.191,1.191,0,0,0-.934.1,18.492,18.492,0,0,0-2.555,1.075,12.065,12.065,0,0,1,.287-1.361c.063-.269.074-.237-.054-.436-.429,0-.373.316-.429.833-.038.356-.136.789-.136,1.137a11.545,11.545,0,0,1-1.129.588l.3-1.488c.05-.24.038-.293-.132-.412-.364.089-.269.479-.323.907l-.076,1.166a3.232,3.232,0,0,0-.663.383c-.2.129-.422.3-.632.413.051-.229.091-.582.123-.806.034-.241.135-.679-.157-.679-.274,0-.2.425-.2.723v.935l-1.263.931c-.085.072-.091.111-.2.139.006-.266.092-.689.124-.941.023-.187.03-.285.051-.472.022-.208.024-.233-.141-.35-.36.033-.266.459-.266.866s.033.71.033,1.1c-.361.251-1.094.979-1.229,1.071,0-.158.02-.474.042-.646a5.3,5.3,0,0,0,.025-.666c-.111-.077-.173-.2-.33-.032-.1.1-.074.275-.07.481s.036.284.034.519c-.006.671.2.461-.34.96-.179.163-.523.6-.657.7a6.645,6.645,0,0,1-.066-.864,1.222,1.222,0,0,0-.166-.795h-.2c-.2.31-.1.42-.02.848.063.323.119.61.17.935.045.286-.134.334-.274.508a4.815,4.815,0,0,1-.641.751,7.234,7.234,0,0,0-.137-1c-.023-.145-.041-.314-.075-.476-.043-.2-.093-.256-.319-.256-.213.331-.111.366.022.842.084.306.157.6.24.891.119.411-.012.385-.257.726l-.4.559c-.029.038-.051.064-.075.093a7.071,7.071,0,0,0-.244-.99c-.05-.178-.083-.316-.128-.49-.136-.523-.569-.317-.479.047l.588,1.64c.057.165-.029.251-.109.373a5.223,5.223,0,0,0-.426.7,9.127,9.127,0,0,1-.553-1.362c-.095-.212-.088-.262-.377-.262-.225.348-.155.335.078.816l.562,1.207c.027.131-.314.619-.374.74a1.32,1.32,0,0,1-.233.38,2.006,2.006,0,0,0-.232-.482,9.018,9.018,0,0,0-.5-1.006c-.115-.168-.39-.213-.456.016-.089.307.272.785.414,1.031a9.375,9.375,0,0,1,.538.961.809.809,0,0,1-.07.17,9.385,9.385,0,0,0-.561,1.281h-.066a15.952,15.952,0,0,0-.665-1.451c-.092-.193-.2-.6-.517-.508-.137.04-.205.175-.18.364a1.746,1.746,0,0,0,.165.385l.731,1.417c.326.688.276.293,0,1.145-.047.15-.065.295-.17.376a13.348,13.348,0,0,0-.971-1.686.252.252,0,0,0-.366.018c-.248.319.3.934.563,1.4l.517.846c.061.094.075.084.068.162-.027.3-.31.894-.343,1.3-.28-.2-.934-1.305-1.262-1.487-.246-.135-.852-.018-.174.736l.762.9c.116.144.47.483.475.644l-.265,1.455-.8-.894a3.848,3.848,0,0,0-.531-.589.306.306,0,0,0-.405.02.45.45,0,0,0-.058.463c.073.182.27.305.391.457.056.069.055.085.118.154l.831.9c.333.347.341.194.294.773-.031.378-.07.7-.07,1.1-.144-.1-.162-.176-.274-.3s-.176-.183-.286-.327c-.162-.211-.411-.43-.574-.646-.088-.114-.147-.224-.309-.269-.43-.12-.507.384-.351.645.145.243.752.854.973,1.131l.431.484c.365.376.324.365.324.907a6.388,6.388,0,0,0,.033,1.21,2.274,2.274,0,0,1-.324-.32l-.93-1.036c-.513-.612-1.166-.121-.8.347.243.308.543.563.8.864.066.078.074.108.149.189.108.117.214.208.315.328l.615.709c.127.138.247.191.271.411.038.349.13.911.136,1.206a.558.558,0,0,1-.209-.129l-.588-.425c-.259-.192-.529-.358-.788-.564-.643-.506-1.061.189-.566.66a8,8,0,0,0,.789.6c.215.159,1.45,1.032,1.552,1.151a7.255,7.255,0,0,1,.275,1.1,4.633,4.633,0,0,1,.133.587c-.534-.294-1.251-.772-1.754-1.112a.74.74,0,0,0-.5-.2.365.365,0,0,0-.337.416c.01.379.461.59.707.756l2.161,1.416a.807.807,0,0,1,.27.477l.287.809a2.02,2.02,0,0,1,.1.276,5.62,5.62,0,0,1-.973-.336l-.949-.36c-.28-.105-.769-.27-.858.191a.5.5,0,0,0,.179.448,6.871,6.871,0,0,0,1.392.59l1.4.543c.246.092.275.029.392.284.146.315.29.624.442.922-.6,0-1.254-.049-1.862-.1a6.611,6.611,0,0,0-.943-.018c-.5.15-.315.7.084.843a2.818,2.818,0,0,0,.438.063c.339.047.609.006.941.057l1.874.124a9.284,9.284,0,0,0,.7,1.21c-.822,0-1.649.072-2.492.071-.344,0-.864-.006-.759.508a.5.5,0,0,0,.312.335,24.115,24.115,0,0,0,3.138.02c.6,0,.4-.012,1.077.884a2.76,2.76,0,0,1,.285.394c-.665,0-1.35.106-1.992.106l-.7.035a1.1,1.1,0,0,0-.62.081.466.466,0,0,0,.173.829,8.57,8.57,0,0,0,1.342.02c.273,0,.42-.036.664-.035l1.729-.035c.169,0,.207-.026.309.061s.245.258.346.364a8.241,8.241,0,0,1,.706.752c-.19,0-.473.055-.666.067l-2.055.212c-.428.044-1.012.008-.968.548.057.721,1.159.444,1.7.417.24-.012.485-.012.722-.044a6.518,6.518,0,0,1,.673-.058c.454,0,.943-.08,1.4-.106.153-.01.186-.064.3-.007.137.07.667.576.845.714a.792.792,0,0,1,.213.192c-.233,0-.487.054-.729.072-.74.051-1.493.189-2.226.241-.359.024-1.069-.011-1.18.47a.529.529,0,0,0,.247.533.834.834,0,0,0,.667.1c.741-.064,1.518-.086,2.263-.17l2.288-.179c.256-.009.683.333.928.487l.134.1c-.2,0-3.247.633-3.663.715-.75.148-.71.729-.336.956a.916.916,0,0,0,.725.072l3.036-.506c.486-.068,1.006-.166,1.515-.256.461-.081.457-.046.983.228a1.222,1.222,0,0,0,.332.137c-.092.13-.489.235-.646.3l-2.788,1.073c-.268.1-.479.139-.622.357-.341.519.271.951.863.76l1.427-.487c.47-.162.97-.319,1.443-.5a22.02,22.02,0,0,1,2.143-.726c.185.016.507.214.737.233a3.162,3.162,0,0,1-.609.368c-.09.051-.131.071-.215.122s-.132.074-.216.122l-.831.483c-.09.054-.11.073-.21.126a11.441,11.441,0,0,0-1.66,1c-.412.561.263,1.023.852.748.955-.449,2.543-1.36,3.5-1.857.313-.163.563-.307.874-.471.37-.2.4-.1,1.049.038a24.319,24.319,0,0,0,10.112-.111c.455-.111.547.084.943.291l2.2,1.17c.571.326,1.157.6,1.745.915a.808.808,0,0,0,.53.117.518.518,0,0,0,.387-.792,2.042,2.042,0,0,0-.784-.534l-.432-.243c-.292-.171-.561-.338-.853-.5-.086-.046-.119-.076-.21-.127l-1.406-.816-.021-.015c-.066-.047-.019-.01-.057-.044.232-.019.493-.19.712-.228.154-.029,3.177,1.075,3.561,1.21l1.428.483c.707.249,1.177-.271.92-.715-.179-.3-.948-.5-1.286-.632-.453-.181-2.567-1.033-2.777-1.05v-.071a4.706,4.706,0,0,0,.6-.27c.345-.147.23-.181.683-.1l4.551.761a.963.963,0,0,0,.708-.044c.512-.3.315-.844-.235-.967l-3.719-.726.234-.171c.211-.133.552-.419.8-.421l3.759.308c.272.033.515.026.793.04.3.017.385.075.655-.079a.5.5,0,0,0-.165-.95l-.756-.076c-.718-.047-1.474-.167-2.2-.238a7.255,7.255,0,0,0-.761-.074l.2-.168c.071-.058.13-.108.2-.168l.622-.531c.1-.078.147-.06.275-.043l1.387.117a5.925,5.925,0,0,1,.718.047c.456.073.986.053,1.418.116.531.075.985-.023,1.049-.451.1-.667-1.015-.558-1.6-.636-.423-.058-1.736-.218-2.083-.218a8.112,8.112,0,0,1,.856-.906c.356-.375.068-.27.838-.27.476,0,.863.037,1.363.034.258,0,.39.037.663.035A9.49,9.49,0,0,0,1123,174.2a.508.508,0,0,0,.369-.347.382.382,0,0,0-.154-.469c-.2-.124-.33-.1-.633-.1l-.663-.035c-.671,0-1.366-.106-2.06-.106.061-.1.164-.211.237-.3a5.985,5.985,0,0,0,.694-.972l2.99.033c.4,0,.634.02.822-.216a.383.383,0,0,0-.169-.637,3.119,3.119,0,0,0-.986-.044c-.213,0-.272-.036-.463-.038l-1.53-.033c.038-.146.6-1.021.7-1.21.277,0,.627-.061.9-.07l1.89-.106c.329-.04.569-.03.742-.266a.388.388,0,0,0-.175-.627,8.781,8.781,0,0,0-1.858.067l-.964.035c.064-.247.309-.617.412-.884.091-.24.125-.212.347-.3l1.43-.553c.316-.118.622-.23.948-.36.306-.121.687-.218.653-.67-.038-.5-.576-.313-.837-.215l-1.42.527a2.678,2.678,0,0,1-.5.169c.015-.189.37-1.031.46-1.319.075-.238.184-.24.377-.367l1.973-1.3c.253-.172.7-.367.713-.747a.379.379,0,0,0-.3-.412.7.7,0,0,0-.538.2c-.215.133-1.59,1.064-1.784,1.116a6.383,6.383,0,0,0,.279-1.091c.123-.565.049-.529.505-.858.541-.39,1.048-.773,1.575-1.161.068-.05.123-.089.194-.144.19-.146.42-.287.439-.584a.382.382,0,0,0-.262-.42.552.552,0,0,0-.5.154c-.4.283-1.189.9-1.6,1.134a4.542,4.542,0,0,1,.065-.59c.124-.9-.087-.623.625-1.356l1.229-1.383c.144-.167.585-.453.415-.829a.393.393,0,0,0-.426-.187c-.3.064-.76.68-1.036.966a5.27,5.27,0,0,1-.639.681c0-.241.032-.345.035-.55a8.911,8.911,0,0,1,.006-1.205,4.915,4.915,0,0,1,.549-.637l.857-.975c.145-.193.476-.418.368-.8-.114-.4-.547-.18-.724.051a3.19,3.19,0,0,1-.269.308l-.565.656a2.348,2.348,0,0,1-.29.32c0-.519-.1-1.045-.133-1.52.148-.1.7-.752.905-.96.166-.172.28-.325.448-.5.128-.132.365-.351.376-.579a.317.317,0,0,0-.5-.312,6.892,6.892,0,0,0-.674.751l-.688.737a7.879,7.879,0,0,0-.266-1.522c.119-.083.718-.814.821-.942a2.426,2.426,0,0,1,.2-.241c.09-.092.112-.148.2-.243.139-.151.357-.347.343-.578-.016-.292-.315-.326-.516-.188a17.683,17.683,0,0,0-1.214,1.467l-.34-1.241c-.023-.092-.023-.089.031-.183.292-.517.618-.984.921-1.5.092-.159.391-.494.2-.757a.25.25,0,0,0-.358-.065c-.13.089-.152.188-.225.322a13.664,13.664,0,0,0-.762,1.383h-.067a5.978,5.978,0,0,0-.266-.794c-.124-.323-.065-.349.16-.734.267-.456.464-.963.731-1.417.115-.2.3-.569.012-.725-.306-.168-.462.3-.548.478-.119.247-.647,1.318-.687,1.5l-.047-.09c-.023-.049-.035-.078-.053-.117l-.535-1.176c-.058-.158.077-.316.159-.46.248-.427.511-.839.722-1.289.131-.279.029-.329-.08-.5-.279,0-.3.035-.4.241a8.758,8.758,0,0,0-.664,1.383h-.066a3.694,3.694,0,0,0-.418-.808c-.061-.109-.087-.167-.147-.263.039-.176.588-1.287.709-1.543a.415.415,0,0,0-.045-.529c-.41,0-.4.3-.555.7-.061.158-.116.3-.171.444a3.5,3.5,0,0,0-.171.48l-.575-.858c-.1-.173.088-.453.148-.625a12.363,12.363,0,0,0,.446-1.293c.017-.257-.333-.563-.5.065l-.238.928a2.354,2.354,0,0,0-.113.5,5.627,5.627,0,0,1-.461-.628c-.445-.619-.423-.249-.049-1.6.094-.339.239-.585.045-.888h-.2a1.907,1.907,0,0,0-.218.811c-.049.308-.084.635-.147.919l-.506-.616c-.106-.11-.144-.185-.249-.294-.158-.159-.18-.1-.135-.36.055-.306.114-.623.173-.964.055-.315.253-.8-.18-.808-.124.086-.152.111-.167.309-.03.419-.1.917-.1,1.35a7.046,7.046,0,0,1-1.028-1.11c-.044-.254.1-1.133.063-1.378-.024-.185-.233-.375-.377-.156a5.025,5.025,0,0,0,.047,1.329c-.1-.072-.167-.161-.285-.257l-.9-.787c-.221-.313.231-1.99-.24-2-.322-.005-.15.643-.13.827.033.31.1.661.13.971l-.717-.566c-.262-.188-.488-.361-.744-.539v-.935c0-.287.064-.714-.2-.724a.22.22,0,0,0-.217.216,2.6,2.6,0,0,0,.048.41,5.856,5.856,0,0,1,.1.826c-.281-.078-.947-.673-1.263-.762l-.09-1.149c-.053-.42.053-.836-.309-.924-.3.041-.089.717-.046.913a6.113,6.113,0,0,0,.213.987,5.265,5.265,0,0,1-.731-.38c-.463-.241-.373-.083-.455-.668a6.238,6.238,0,0,0-.248-1.435.232.232,0,0,0-.166-.089c-.278-.012-.169.384-.136.543s.049.266.088.427c.07.288.124.565.186.841l-.806-.37c-.562-.25-1.135-.494-1.723-.7a1.228,1.228,0,0,0-.959-.107.368.368,0,0,0,.077.056,11.043,11.043,0,0,0,1.649.774c.291.134.573.276.864.415a6.657,6.657,0,0,0,.865.447c-.079.112-.355.133-.472.166-.178.052-.324.08-.5.135s-.324.091-.5.134c-.223.057-.334.065-.385.291.089.176.164.262.4.18l.489-.183a8.95,8.95,0,0,1,1.321-.466,6.492,6.492,0,0,1,1.308.815,14.292,14.292,0,0,0-1.616.36c-.487.124-.359.418-.133.46a13.862,13.862,0,0,0,1.854-.647c.184-.061.427.173.616.32a7.791,7.791,0,0,1,.71.54c.09.089.064.02.064.211l.04-.061c.042-.042-.015-.012.06-.042l.1.134a16.906,16.906,0,0,1-1.879-.225c-.256-.04-.418-.006-.418.3l.107.1a11.839,11.839,0,0,0,2.178-.075c.19-.037.465.264.662.439a3.847,3.847,0,0,1,.608.576c-.55,0-1.112-.1-1.695-.1-.3,0-.326-.034-.432.173.053.24.193.279.489.235l1.339-.129c.361-.018.347-.124.6.1a16.356,16.356,0,0,1,1.456,1.561c-.145,0-.116-.025-.266-.032-.5-.026-1.005-.107-1.494-.107-.32,0-.383-.052-.5.174.054.241.154.245.432.244l1.96-.139c.263.408.633.764.9,1.174l-1.053-.148c-.193-.026-.912-.22-.94.113.03.375.58.279.963.279h1.23l.385.565c.129.2.252.377.378.573-.354,0-.709,0-1.063,0-.216,0-.331.027-.5.033-.524.024-.361.339-.286.406.178.157.6.033.846.006a10.455,10.455,0,0,1,1.2-.132c.147.225.276.46.418.706s.281.485.413.745l-2.047-.094a.505.505,0,0,0-.212.128v.242c.4.281.456.138,1.13.138.221,0,.443,0,.664,0,.258,0,.392-.034.664-.034.271.53.493,1.126.765,1.658-.188-.017-.4-.074-.594-.107a14.893,14.893,0,0,0-1.562-.273c-.138.02-.142.072-.236.139,0,.26.058.357.259.422.266.085,1.518.2,1.831.236.137.018.448.005.531.141a10.215,10.215,0,0,1,.535,1.586c-.308-.155-1.492-.494-1.9-.621-.214-.067-.547-.018-.451.329.082.295.843.415,1.2.518.234.069.441.117.654.185a4.246,4.246,0,0,0,.694.175c.031.387.327,1.046.365,1.521-.213-.019-1.337-.513-1.582-.6a.687.687,0,0,0-.437-.085.266.266,0,0,0-.2.332.408.408,0,0,0,.243.3,3.618,3.618,0,0,0,.412.159c.264.091.515.193.789.287.146.048.255.083.4.138.7.283.523.02.683,1.019.025.15.044.308.067.481a4.5,4.5,0,0,1,.061.526,1.427,1.427,0,0,1-.321-.152c-.433-.217-.852-.457-1.3-.654-.213-.094-.506-.323-.729-.149a.368.368,0,0,0-.091.377c.077.239.346.348.549.434.446.189.873.427,1.314.64l.675.334c0,.343.028.766.062,1.076s.005.831.005,1.17c-.108-.031-.114-.07-.2-.139l-1.352-1.082c-.185-.156-.616-.6-.866-.224a.434.434,0,0,0,.038.5,4.082,4.082,0,0,0,.752.636l1.352,1.081a1.106,1.106,0,0,1,.187.153c.08.1.058.121.057.287,0,.462-.135,1.275-.135,1.659a1.34,1.34,0,0,1-.294-.315l-1.414-1.674a.379.379,0,0,0-.645.356c.046.3.677.938.915,1.23l.848,1.017c.064.073.066.1.133.173a2.774,2.774,0,0,1,.291.355l-.2,1.04a3.151,3.151,0,0,0-.07.341c-.2-.138-1.482-1.719-1.673-1.887-.486-.426-.89.227-.539.7l1.091,1.283c.217.223.65.833.856.978-.089.191-.291,1.019-.4,1.317a1.8,1.8,0,0,0-.137.445c-.113-.032-.126-.109-.192-.215l-1.482-2.259c-.329-.467-.957-.123-.714.466.116.281.78,1.26.966,1.551.114.178.927,1.376.968,1.517.026.089-.038.176-.082.283a8.33,8.33,0,0,1-.693,1.456,5.546,5.546,0,0,0-.246-.573l-.385-.844a11.136,11.136,0,0,0-.655-1.427.383.383,0,0,0-.561-.01.681.681,0,0,0-.067.665c.08.207.177.387.258.594.306.785.679,1.536,1,2.311.2.476.136.305-.319,1.1a7.04,7.04,0,0,1-.654,1.014,3.706,3.706,0,0,0-.162-.661c-.062-.22-.111-.428-.174-.647-.094-.333-.393-1.7-.527-1.942a.377.377,0,0,0-.517-.191c-.424.247-.178.856-.081,1.263.1.432.223.884.332,1.315l.421,1.675c.038.154.034.161-.049.264l-.728.906a2.805,2.805,0,0,1-.184.221,1.311,1.311,0,0,0-.095.11c-.059.074-.023.078-.129.106,0-.5-.181-1.864-.243-2.375-.021-.175-.04-.382-.063-.591a5.723,5.723,0,0,0-.068-.586.406.406,0,0,0-.736-.2c-.237.306-.12.671-.089,1.09l.335,3.659a.944.944,0,0,0-.157.147,1.478,1.478,0,0,1-.166.14l-.615.605c-.072.069-.1.072-.166.137a1.164,1.164,0,0,1-.159.148c0-.233-.034-.361-.033-.622,0-.22,0-.439,0-.659,0-.261-.034-.389-.034-.621a9.53,9.53,0,0,0-.013-1.3c-.048-.33.093-.867-.259-1.044a.456.456,0,0,0-.5.086c-.261.248-.223.586-.223,1.082v3.973l-1.694,1.21a4.934,4.934,0,0,1,.019-.671l.081-2.058c0-.274.034-.422.034-.657,0-.4.133-.9-.257-1.085-.37-.174-.667.191-.739.533-.109.512-.105,1.428-.163,1.973l-.171,2.692-1.484.771a2.841,2.841,0,0,1-.542.232c.022-.284.815-3.454.93-3.908a1.062,1.062,0,0,0,.028-.825c-.275-.461-.9-.177-1.058.447-.066.252-.141.477-.214.745s-.143.524-.214.778L1108,178.43c-.11.4-.131.313-.5.451-.475.175-.975.308-1.471.438-.272.071-.488.133-.776.2a18.493,18.493,0,0,1-3.3.51,7.279,7.279,0,0,1-1.314.056,3.188,3.188,0,0,0-.481-.02l-.857-.076a21.9,21.9,0,0,1-4-.785l-1.072-.336a1.235,1.235,0,0,0-.386-.116,4.391,4.391,0,0,0-.17-.689l-1.139-4.135c-.3-1.124-1.277-.857-1.151-.084.071.434.24.991.347,1.436.231.961.472,1.9.685,2.85a2.514,2.514,0,0,1-.52-.22l-1.507-.783a2.407,2.407,0,0,0-.031-.314l-.149-2.334c-.062-.429-.045-.883-.09-1.323s-.021-.869-.285-1.121a.46.46,0,0,0-.794.266l.078,2c.031.231-.011.475.014.709l.061,1.388c-.428-.3-.859-.563-1.271-.888-.15-.117-.274-.216-.423-.322v-3.939c0-.469.025-.9-.225-1.114-.319-.275-.658-.1-.747.274a10.109,10.109,0,0,0-.024,1.289c0,.849-.067,1.743-.067,2.593a5.211,5.211,0,0,1-.408-.37,2.123,2.123,0,0,1-.215-.193,2.6,2.6,0,0,0-.2-.2,2.456,2.456,0,0,1-.4-.384c-.08-.122-.018-.167-.007-.338.052-.857.393-3.567.33-4.143-.05-.462-.623-.649-.827-.21a2.951,2.951,0,0,0-.1.723l-.239,2.206c-.025.2-.045.532-.09.734a.634.634,0,0,1-.194-.212l-.556-.667c-.448-.589-.509-.414-.325-1.068.125-.445.22-.86.33-1.317s.237-.909.339-1.338.326-.99-.058-1.241c-.5-.327-.625.436-.718.778-.079.289-.673,2.4-.678,2.646a7.339,7.339,0,0,1-.651-.981c-.605-1.035-.515-.661-.09-1.691.323-.78.688-1.529,1-2.314a.635.635,0,0,0-.017-.655.349.349,0,0,0-.545-.07,1.507,1.507,0,0,0-.3.549l-.642,1.439c-.05.114-.069.179-.121.29s-.088.17-.132.279a2.279,2.279,0,0,0-.124.319,1.913,1.913,0,0,1-.287-.528,7.509,7.509,0,0,1-.5-1.169c0-.122,1.143-1.834,1.292-2.064a10.646,10.646,0,0,0,.635-1.031c.239-.558-.3-.963-.684-.505-.327.389-1.445,2.349-1.686,2.533a6.9,6.9,0,0,0-.344-1.127,3.1,3.1,0,0,1-.169-.586c-.013-.12-.021-.033.022-.112a7.762,7.762,0,0,1,.6-.694l.517-.6a2.2,2.2,0,0,1,.167-.206,1.532,1.532,0,0,0,.17-.2c.06-.079.115-.118.179-.193.221-.262.54-.59.349-.968a.367.367,0,0,0-.512-.136c-.172.1-.235.244-.368.378l-.7.795c-.157.161-.577.7-.706.786-.088-.392-.16-.784-.243-1.2-.052-.261.061-.308.2-.466l.662-.795a12.507,12.507,0,0,0,1.268-1.622.385.385,0,0,0-.653-.4l-1.145,1.366c-.08.086-.09.124-.165.208a2.5,2.5,0,0,1-.358.389c-.006-.278-.085-.655-.1-.934-.015-.315-.043-.67-.067-.966.314-.172,1.535-1.215,1.889-1.493.115-.089.2-.162.319-.256.494-.395.2-1.051-.3-.727-.317.2-.954.755-1.261,1a4.606,4.606,0,0,1-.645.5c0-.381,0-.762,0-1.143,0-.364.068-.721.068-1.1.631-.349,1.317-.641,1.959-.97.259-.133.828-.387.511-.772a.358.358,0,0,0-.4-.077l-1.631.826a1.586,1.586,0,0,1-.344.163,10.539,10.539,0,0,1,.266-1.832c.208-.05.4-.146.619-.22l1.229-.449c.276-.1.707-.311.481-.647-.067-.1-.162-.123-.331-.1a1.229,1.229,0,0,0-.3.1l-.915.361a3.991,3.991,0,0,1-.617.222" transform="translate(16322 14135)" fill="#0ba354" fill-rule="evenodd"/>
    <path id="Path_140983" data-name="Path 140983" d="M1072.155,157.9a30.937,30.937,0,0,1,2.012-11.077l1.122-2.6.971-1.824q.672-1.17,1.448-2.261c.135-.193.237-.35.383-.534l1.447-1.815c.5-.583,1.03-1.139,1.562-1.692a26.836,26.836,0,0,1,2.43-2.173c.178-.144.336-.265.513-.4a27.239,27.239,0,0,1,3.925-2.518c.4-.21.811-.439,1.234-.616l1.262-.554c.22-.092.415-.174.647-.26a28.58,28.58,0,0,1,10.046-1.852,27.414,27.414,0,0,1,13.066,3.236l1.175.647c.761.421,1.491.949,2.2,1.439.53.364,1.04.784,1.543,1.194a21.774,21.774,0,0,1,1.921,1.736l.57.582c.01.008.047.049.05.05.236.257.528.513.738.789l.418.5a25.948,25.948,0,0,1,1.993,2.591c.515.715.961,1.512,1.4,2.276l.788,1.494c.059.122.1.2.155.323a25.382,25.382,0,0,1,1.33,3.318c.155.484.3.907.438,1.41s.263.967.38,1.47a32.422,32.422,0,0,1,.8,7.537c0,.628-.052,1.167-.066,1.762a15.687,15.687,0,0,1-.169,1.692,31.618,31.618,0,0,1-.556,3.153c-.177.73-.356,1.446-.584,2.158-.041.127-.07.208-.106.339a27.417,27.417,0,0,1-1.72,4.261l-.971,1.789c-.337.586-.677,1.139-1.064,1.692l-1.332,1.828a33.706,33.706,0,0,1-2.36,2.661l-.934.894c-.5.416-.968.856-1.481,1.26l-3.2,2.232c-.192.121-.386.211-.577.332a26.1,26.1,0,0,1-4.645,2.115c-.129.042-.218.071-.353.119a25.133,25.133,0,0,1-5.1,1.192,29,29,0,0,1-5.014.21c-.139-.008-.292.01-.432,0l-.83-.069a28.736,28.736,0,0,1-6.692-1.437l-3.978-1.737c-.073-.041-.076-.045-.15-.085-.1-.06-.18-.1-.287-.152-.126-.065-.182-.108-.3-.171-.574-.321-1.15-.665-1.69-1.042l-1.07-.753a25.462,25.462,0,0,1-2.5-2.064l-.465-.449c-.479-.438-.925-.931-1.379-1.4l-.632-.725c-.478-.592-.978-1.174-1.429-1.8-.135-.186-.25-.349-.384-.533-.392-.541-.723-1.1-1.087-1.668a27.058,27.058,0,0,1-1.6-3.005l-.3-.66c-.094-.233-.175-.418-.271-.65a32.008,32.008,0,0,1-1.537-4.968c-.116-.49-.218-1.04-.3-1.556a32.04,32.04,0,0,1-.431-5.184m28.869,31.729,1.131-.032c.144-.013.318,0,.464,0,.517-.008,1.669-.143,2.2-.2.59-.069,1.108-.155,1.655-.247a24.725,24.725,0,0,0,3.078-.74c.259-.081.464-.137.721-.216a33.964,33.964,0,0,0,3.462-1.375c.124-.053.207-.108.318-.155.127-.053.195-.091.317-.154.836-.436,1.658-.886,2.459-1.382l.595-.384c.2-.14.383-.254.584-.392l1.384-1.015a26.664,26.664,0,0,0,2.339-2.025l1.445-1.471c.079-.083.16-.153.231-.242.493-.613,1.025-1.176,1.542-1.853.565-.737,1.1-1.486,1.6-2.271.137-.213.244-.4.379-.609a20.992,20.992,0,0,0,1.214-2.159c.063-.129.1-.217.165-.346a32.6,32.6,0,0,0,2.875-8.9,33.518,33.518,0,0,0-1.154-15.831,28.6,28.6,0,0,0-1.455-3.671l-.244-.507c-.155-.324-.338-.645-.5-.967l-.525-.94c-.182-.312-.355-.6-.551-.913l-2.113-2.985-1-1.2a20.707,20.707,0,0,0-1.592-1.661,2.029,2.029,0,0,1-.186-.185l-.559-.526c-.086-.069-.112-.114-.191-.181s-.114-.1-.2-.176a25.113,25.113,0,0,0-2.636-2.1l-4.078-2.426-1.493-.695c-.856-.352-1.737-.681-2.619-.972-.735-.245-1.514-.436-2.268-.615a30.051,30.051,0,0,0-3.7-.605c-.176-.021-.479-.064-.669-.065-.585,0-2.215-.171-2.749-.092-.514.072-1.167.011-1.679.084-.12.015-.228,0-.348.018-.194.028-.445.04-.667.067a30.117,30.117,0,0,0-10.028,2.942c-.308.148-.658.325-.952.5-.156.092-.306.166-.452.255a33.575,33.575,0,0,0-3.9,2.645c-.144.118-.254.2-.4.315l-1.924,1.731c-.082.084-.118.1-.2.172l-.548.571a31.871,31.871,0,0,0-4.957,6.732c-.088.159-.154.3-.248.469a33.274,33.274,0,0,0-2.969,8.075,32.806,32.806,0,0,0,1.044,18.049,25.542,25.542,0,0,0,1.041,2.613c.229.482.46,1.038.725,1.493l.515.95c.253.474.546.906.81,1.369a19.5,19.5,0,0,0,1.178,1.749c.433.6.87,1.1,1.277,1.643l.338.408c.554.651,1.129,1.293,1.744,1.885.08.077.118.09.2.172a23.376,23.376,0,0,0,2.1,1.892c.865.673,1.627,1.211,2.52,1.836.157.111.3.188.452.291l.9.545c.442.281,1.4.788,1.884,1.013.152.071.314.146.479.229a27.637,27.637,0,0,0,5.916,2.036c.806.183,1.6.316,2.431.443a12.254,12.254,0,0,0,1.277.157l1,.07a3.162,3.162,0,0,1,.331.036c.487.026.931.033,1.429.033" transform="translate(16322 14135)" fill="#0ba354" fill-rule="evenodd"/>
    <path id="Path_140984" data-name="Path 140984" d="M1102.253,171.625c-.162,0-.2-.161-.366-.208a.617.617,0,0,1,.3-.414,3.945,3.945,0,0,1,.4.312c-.046.071-.236.31-.332.31m-2.85-.648a3.807,3.807,0,0,0,.325.233l.226-.215c.135.078.216.164.339.249a1.351,1.351,0,0,1-.232.346,4.756,4.756,0,0,1-.4-.275l-.192.216a2.681,2.681,0,0,1-.34-.251Zm-1.668-1.392c0,.257.049.247.431.313a12.256,12.256,0,0,0,1.761.207,1.075,1.075,0,0,1,.366-.829,4.027,4.027,0,0,0-.066.758.333.333,0,0,0,.232.105h1.3c.3,0,.467-.034.764-.034-.053-.115-.059-.2-.126-.32a.7.7,0,0,0-.206-.269c.038-.17.154-.406.166-.553a1.57,1.57,0,0,1,.432.935l-.034.724-.626.04c-.408.047-1.316.031-1.766.031a.363.363,0,0,1-.4-.381.814.814,0,0,0-.2.345,19.661,19.661,0,0,1-2.1-.3c-.312-.067-.255-.254-.255-.6-.244.068-.195.433-.508.29a3.392,3.392,0,0,0-.622-.29,1.49,1.49,0,0,1,1.2-.968.779.779,0,0,1,.332-.588c0,.5-.066.875-.066,1.383m-1-1.763a.574.574,0,0,0,.233.312.5.5,0,0,1,.266-.139.521.521,0,0,0,.232.278c.114-.079.134-.171.266-.207-.018-.225-.147-.143-.2-.347a1.551,1.551,0,0,1-.3.173.821.821,0,0,1-.166-.277c-.147.041-.187.167-.333.207m-1.461,1.869a7.71,7.71,0,0,1,.489-1.669c.082-.1.267-.308.374-.336a8.89,8.89,0,0,1-.3,1.136,1.433,1.433,0,0,1-.561.869m12.159-2.869c0,.253.033.412.033.622a.364.364,0,0,1,.3.212c.076.109.136.177.217.291a2.533,2.533,0,0,1,.385.6l-.428.18a9.758,9.758,0,0,1-1.234.477c0-.265.042-.409-.107-.545a.657.657,0,0,0-.424-.179c-.631,0-.513.6-.565.828a.4.4,0,0,1,.565.1l-1.42.355c-.649.137-.62.142-.931-.224a3.079,3.079,0,0,0-.207-.234c-.036.16-.1.324-.133.484.17.264.539.358.193.787-.44.548-.615.7-1.189.388.039.156.22.219.412.3.586.242.91.3,1.136-.553.093-.349-.044-.309.244-.3a2.07,2.07,0,0,0,.481-.088,8.9,8.9,0,0,0,.979-.223c.677-.2.671-.107.7-.482.356.1-.186.418,1.324-.213.171-.071.329-.144.517-.22a4.288,4.288,0,0,1,.484-.224,1.823,1.823,0,0,0-.358-.9c-.4-.611-.24-.235-.24-.961a2.413,2.413,0,0,1-.427-.073c-.212-.061-.153-.1-.3-.2m1-.244.687.84a1.811,1.811,0,0,1,.476,1.1,2.345,2.345,0,0,1-.347-.4c-.494-.655-.816-.761-.816-1.536m1.263-.551h-.333v.275a3.243,3.243,0,0,1-.4-.035v-.38c.082.041.4.1.4-.067v-.174h.432c0,.271.036.381-.1.381m-17.641.8c-.294.024-.566.308-.631.31a8.187,8.187,0,0,1-1.137-.821c-.13-.112-.3-.209-.325-.321a.464.464,0,0,0,.381-.776c-.389-.422-.734-.107-.979-.087.072.112.168.149.195.287.045.232-.01.273-.136.142l-1.321-1.432a1.409,1.409,0,0,0,.466-.517c.289-.627-1.157-.218-1.271-.113-.229.213.08.558.107.665a1.308,1.308,0,0,1-1.03-.551c-.033-.067-.046-.113-.083-.193-.05-.111.031-.08-.116-.12a1.175,1.175,0,0,0,.311.989,1.539,1.539,0,0,0,1.117.082,12.708,12.708,0,0,0,.839.959c.884.92.578.641,1.022.631-.041.089-.059.189-.1.278l.826.7c.2.163.7.583.935.583.057.123.022.123.137.2.483.335.377.266.594.246,0,.148.014.135.111.2.543.345.357.206.587.185-.037.164-.029.148.119.222.1.048.162.081.246.125l1.256.592a.573.573,0,0,0,.305.064c.079-.154.169-.241.26-.387.361-.569.021-.7.8-1.135a1.954,1.954,0,0,0-.179-.333c-.1-.207-.058-.14-.053-.357-.142.039-.335.288-.465.38.017.21.066.134-.011.368l-.321.945a13.1,13.1,0,0,1-1.562-.725c0-.264.031-.31.233-.622-.237.056-.474.155-.532.414-.188-.017-.188-.1-.332-.139.015-.192.183-.218.4-.553a1.225,1.225,0,0,0-.632.381c-.206-.05-.292-.225-.5-.277.037-.146.116-.15.224-.25a1.3,1.3,0,0,0,.241-.232m-5.98-4.667c.153-.078.351-.1.5-.172.136.266.329.491.465.758a.8.8,0,0,0,.3-.725c.185-.016.388-.088.564-.1a1.2,1.2,0,0,1-.876,1.127c-.43.178-.391.039-.572-.242a3.631,3.631,0,0,1-.379-.642m-1.162-.865a.73.73,0,0,0,.332.138c0,.2-.034.241-.034.415-.6-.014-.4-.249-.4-.519a.725.725,0,0,0-.3-.1c0-.463.044-.486.465-.275a2.6,2.6,0,0,0-.066.344m30.131-2.7a1.264,1.264,0,0,0,.327.286c.157.11.129-.045.4-.048.187,0,.3.04.532.038a4.638,4.638,0,0,1,.532.035,7.481,7.481,0,0,1-.5,1.279c-.036.075-.062.143-.093.215-.087.2-.414.256-.632.23-.2-.022-.318-.106-.339.176-.048.654.258.538.334.831a1.922,1.922,0,0,1-.219.394,5.787,5.787,0,0,1-.711,1.057l-.886-.39a5.036,5.036,0,0,0-.875-.37,3.053,3.053,0,0,0,.246.435,8.738,8.738,0,0,0,1.349.6,1.657,1.657,0,0,1-.207.3l-.683.846c-.283.336-.247.217-.772.232l-.963.036c.018-.228.38-.6.432-.83a.8.8,0,0,0-.365-.379,1.491,1.491,0,0,1-.165.312c-.373.647-.439.628-.24.9.321.444.256.414.535.411.332,0,.58.035.866.035l-.692.7c-.254.211-.48.414-.736.617-.165.131-.234.237-.443.081-.136-.1-.235-.2-.369-.307s-.229-.2-.366-.312c-.076-.062-.117-.1-.184-.153-.082-.069-.1-.111-.2-.139.112.5.066.479.266.588-.1.469-.406.623.033,1.486l.8-.344c0-.206-.063-.261-.067-.451.161.039.2.13.345.2.175.079.242.022.368-.077.5-.4.954-.825,1.421-1.252a2.532,2.532,0,0,1,.258-.25c-.273-.539-.039-.415.4-.415a2.4,2.4,0,0,1,.425-.528l.539-.681c.028-.04.039-.058.072-.1s.043-.053.061-.073a1.415,1.415,0,0,1-.2-.348.714.714,0,0,0,.365.14l.771-1.239c.35-.564.228-.4.059-.664a5.9,5.9,0,0,1,.931-.622c-.056-.11-.08-.123-.2-.207.1-.2.174-.4.277-.61l.507-1.27c.057-.16.061-.439.412-.469v-.07c-.128-.036-.1-.085-.26-.144-.448-.164-.4.226-.718.3a4.9,4.9,0,0,1-.682-.056c-.174-.054-.2-.21-.4-.345-.327.229-.392.38-.7.38m-30.6-.9c.086.185.02.512.083.742.072.258.38.1.514.294-.145.036-.431.127-.431.31a19.428,19.428,0,0,0,1.2,2.7,4.061,4.061,0,0,0,.85-.219,1.653,1.653,0,0,0,.545-.54,1.871,1.871,0,0,1-.343-.028c-.179-.027-.192-.021-.283.069-.117.111-.2.293-.371.34a13.679,13.679,0,0,1-1-2.284c0-.106.57-.275.694-.314.23-.072.51-.184.735-.237l-.068-.034-.077-.024c-.683-.192-.4-.007-.593-.073-.223-.079-.48-.7-1.454-.7m2.126.242c.126.029.139.071.265.1a1.2,1.2,0,0,1-.1.346,1,1,0,0,1-.4-.173,1.229,1.229,0,0,0,.1-.346c-.33-.18-.241-.118-.166-.449a1.16,1.16,0,0,1,.4.173c-.037.168-.095.142-.1.347m29.068-.382c.169,0,.181-.033.366-.033.474,0,1.514-.072,1.76.309-.2,0-.4,0-.6,0a3.863,3.863,0,0,1-1.15-.011Zm-15.049,15.036a18.074,18.074,0,0,0,3.678-.286,17.829,17.829,0,0,0,2.181-.53c.144-.045.262-.08.408-.129a18.568,18.568,0,0,0,3.024-1.314c.252-.131.444-.253.687-.39a18.948,18.948,0,0,0,2.546-1.81,22.275,22.275,0,0,0,2.464-2.448c.083-.11.164-.221.252-.324l.711-.92c.08-.114.143-.209.222-.323a20.774,20.774,0,0,0,2.286-4.327l.889-2.947a2.439,2.439,0,0,0,.086-.5h-5.183a13.566,13.566,0,0,1-.792,2.32,14.958,14.958,0,0,1-4.024,5.354,15.133,15.133,0,0,1-1.8,1.276,14.238,14.238,0,0,1-5.112,1.836,14.073,14.073,0,0,1-11.157-3.121c-.138-.116-.27-.221-.4-.347-.082-.081-.119-.094-.2-.172l-.4-.38c-.075-.077-.125-.13-.2-.208a15.137,15.137,0,0,1-2.3-3.168l-.519-1.051a12.531,12.531,0,0,1-.809-2.339h-5.249a20.883,20.883,0,0,0,.974,3.446,20.214,20.214,0,0,0,4.217,6.741l.946.953a1.964,1.964,0,0,0,.166.137c.2.176.374.347.574.509l1.223.94c.224.156.427.309.66.455a18.583,18.583,0,0,0,6.083,2.587,17.338,17.338,0,0,0,3.861.477" transform="translate(16322 14135)" fill="#0ba354" fill-rule="evenodd"/>
    <path id="Path_140985" data-name="Path 140985" d="M1104.943,162.743c-.518,0-.207-1.131-.2-1.488.647.157,1.03.035,1.03.83,0,.3-.5.658-.831.658m-1.993-.968c0-.264.067-.394.067-.622a.247.247,0,0,1,.055.081c.206.365.928,1.7.543,1.992-.063-.278-.665-1.3-.665-1.451m-.365,1.071c0,.734.078.574-.584.671a5.052,5.052,0,0,1-.745.056,1.039,1.039,0,0,1-.1-.278c-.282.078.048.278-.5.278a5.72,5.72,0,0,1-1.03-.071,1.526,1.526,0,0,1,.12-.5.7.7,0,0,1,.245-.4,3.8,3.8,0,0,0-.033.415,1.61,1.61,0,0,0,.233.034h.864c0-.308-.166-.587-.166-.863a1.088,1.088,0,0,1,.109-.268c.019-.049.025-.076.046-.124a.358.358,0,0,1,.077-.128,4.392,4.392,0,0,0,.465,1.383c.815-.2.825.259.453-.921-.08-.253-.047-.279-.254-.391.1-.212.12-.5.233-.588.022.268.375.394.6.448-.449.884-.033.673-.033,1.245m-3.788.554c.083-.37.147-.8.209-1.2.01-.066.032-.236.048-.3a2.028,2.028,0,0,1,.475-.578c-.147.65-.1,1.723-.732,2.074m-1.428-2.559a1.5,1.5,0,0,1,.465-.139c.012.15.063.22.067.381-.435.217-.491.092-.532-.242m6.844.312c.113,0,.123-.129.133-.244h.5v-.344c-.552-.135-.46.071-.5.241a1.322,1.322,0,0,1-.433-.067c0,.16-.054.229-.066.379.145,0,.125.035.366.035m1.76-.451a2.313,2.313,0,0,1,.942.231,1.027,1.027,0,0,1,.342,1.416.8.8,0,0,1-.358.217,3.321,3.321,0,0,1-.992.177v-.071a1.078,1.078,0,0,0,.93-.724c.375-.877-.083-.72-.481-.779-.32-.047-.178-.062-.383-.467m-13.221-.207c.159.039.339.065.5.1.057.7.281.325.5.518a1.677,1.677,0,0,1,.131.417h-.5a2.3,2.3,0,0,1-.1-.31c-.052-.193.016-.184-.185-.222-.141-.027-.207.021-.266-.137a2.565,2.565,0,0,1-.077-.37m15.082.414-1.427-.794a1.573,1.573,0,0,1-.268-.519,7.117,7.117,0,0,1,.976.507c.269.152.711.418.719.806m-.266-1.553c.482-.043,1.059-.229,1.521.248.53.55.413.913-.225,1.271a1.934,1.934,0,0,1-.765.312v-.069a.971.971,0,0,0,.712-1.292c-.112-.374-.362-.2-.827-.135-.208.027-.341-.188-.416-.335m-.964-.381a2.445,2.445,0,0,0,.5-.068,1.14,1.14,0,0,1,.033.344,3.587,3.587,0,0,1-.465.07c-.011-.134-.049-.207-.067-.346m2.857,1.141a2.768,2.768,0,0,1,.248-.435c.375-.641.156-1.4-.28-1.433.049.195.3.111.123.474-.211.43-.752.3-1.132-.22a.329.329,0,0,1-.088-.288c.8-.557,2.3.037,2.074.811a2.983,2.983,0,0,1-.945,1.091m-17.175-1.936c.1.2.189.479.279.711.1.254.242.291.652.291-.052.2-.3.2-.3.38,0,.148.3.5.406.614a5.682,5.682,0,0,1,.491.526,1.485,1.485,0,0,1,.431-.034c-.158.246-.151.333.166.588.448.361.2.311.764.172-.144.226-.3.216,0,.416.062.041.11.075.18.124,1.212.849,1.3.4,1.909.641.484.192.666.375.882.218a2.388,2.388,0,0,0,.352-.257c-.225-.02-.647-.422-.769-.582-.159-.206-.439-.628-.726-.628a1.774,1.774,0,0,0-.731.241.876.876,0,0,1,.764.589,1.554,1.554,0,0,1-.754-.288,2.349,2.349,0,0,1-.608-.4,2.523,2.523,0,0,1,.291-.353l.871-1.064a3.3,3.3,0,0,0-.529.14c-.157.056-.189.116-.348.329a6.057,6.057,0,0,0-.584.741c-.14-.011-.192-.1-.371-.237-.649-.5.121-.464.338-.8-.176.043-.4.007-.552.049s-.226.193-.412.193c0,0-.768-.688-.83-.966a12.647,12.647,0,0,1,1.229-.83,2,2,0,0,1-.376-.028.521.521,0,0,0-.337.045c-.111.022-.412-.168-.517-.224a1.979,1.979,0,0,0-1.262-.312m2.259-.035a1.074,1.074,0,0,0,.333.1v.312a3.99,3.99,0,0,1-.466-.068v-.347a1.722,1.722,0,0,0-.3-.1v-.31c.6.052.432.255.432.414m18.4-1.8h-5.382a7.509,7.509,0,0,1-1.071,1.514l-.822.768a7.44,7.44,0,0,1-4.485,1.7,7.267,7.267,0,0,1-4.685-1.523,8.219,8.219,0,0,1-2.126-2.454h-5.415l.344.991c.069.161.118.317.187.462l.432.9c.076.151.159.272.244.435a14.322,14.322,0,0,0,1.21,1.749,13.294,13.294,0,0,0,2.979,2.64,12.327,12.327,0,0,0,5.344,1.87l1.253.081,1.227-.073a12.455,12.455,0,0,0,3.6-.955,12.716,12.716,0,0,0,4.235-3.027l1.171-1.476a13.486,13.486,0,0,0,1.59-3.082c.034-.1.049-.156.083-.26s.066-.157.088-.255" transform="translate(16322 14135)" fill="#0ba354" fill-rule="evenodd"/>
    <path id="Path_140986" data-name="Path 140986" d="M1100.492,130.6a.518.518,0,0,0,.033.173c-.171,0-.115.027-.2-.072-.351-.438-.557-.862-1.266-.862l.121.081a.369.369,0,0,1,.138.1.642.642,0,0,1,.152.291,3.485,3.485,0,0,1,.054.844c-.662-.33-.309-.435-1.231-.45-.2,0-.726-.089-.862.1.3,0,.829-.248,1.063.795-1.079,0-2.609-.165-2.824.795a6.536,6.536,0,0,1,1.661-.1l.066.244a3.8,3.8,0,0,0-1.356.523.948.948,0,0,0-.365.588,1.265,1.265,0,0,0-.039.823c.4-.1.066-.31,1.3-.31a1.927,1.927,0,0,1-.358.353,2.156,2.156,0,0,0-.639,1.514c0,.223.052.752.2.863.347-.1.255-.853.8-.9a5.068,5.068,0,0,0,.348,2.334c.087.184.195.222.338.337.087.072.02.059.144.093,0-.207-.019-.53,0-.721.026-.232.183-.352.2-.523h.2a2.214,2.214,0,0,0,.1,1,6.359,6.359,0,0,0,.292.63.365.365,0,0,0,.272.2,3.922,3.922,0,0,1,.006-.475.754.754,0,0,1,.184-.329c.13-.179.286-.474.541-.474.279,0,.5.333.5.622a2.761,2.761,0,0,0,.071,1.1.651.651,0,0,1,.095.316c-.154.043-.1.139-.1.348,0,.183-.028.246-.034.448a2.318,2.318,0,0,0,0,.863c-.368.2-.033.629-.033.968,0,.187-.1.135-.1.554,0,.151.037.12.014.255a1.934,1.934,0,0,0-.049.295c-.03.368,0,.61,0,1-.619,0-.664.114-.664.761,0,.513.1.938.1,1.451h3.222c0-.638.4-2.212-.266-2.212h-.3a7.637,7.637,0,0,0-.017-1.228c-.038-.247.051-.21.051-.4a1.036,1.036,0,0,1-.233-.553c0-.26.233-.246.233-.726,0-.14-.031-.179-.134-.207a12.39,12.39,0,0,0-.092-1.493c-.032-.127.028-.095-.107-.132,0-.066.2-.732.248-1.091s-.059-.948.45-.948c.246,0,.649.568.7.825a1.684,1.684,0,0,1-.005.453c.378-.032.417-.574.579-.848.228-.389.022-.584.084-.878.072-.339.353.083.4.415.076.547-.159.862.185.608.329-.244.293-.187.475-.752a5.156,5.156,0,0,0,.2-1.481c0-.173-.033-.213-.033-.415.281.023.355.184.464.38.082.148.152.467.333.518.189-.144.2-.666.2-.934a2.606,2.606,0,0,0-.579-1.471,1.61,1.61,0,0,1-.252-.464c.907,0,.894.427,1.163.449l0-.415a1.834,1.834,0,0,0-.072-.411.944.944,0,0,0-.362-.591,4.127,4.127,0,0,0-.627-.314,2.648,2.648,0,0,0-.735-.2,1.182,1.182,0,0,1,.06-.182c.095-.172.4-.1.571-.1.4,0,.717.129,1.1.138-.08-.985-2.146-.795-2.791-.795,0-.264.284-.829.6-.829.19,0,.23.034.432.034-.148-.21-.937-.109-1.164-.1-.406.007-.574.272-.9.45a4.231,4.231,0,0,1,.031-.831.629.629,0,0,1,.322-.427c.07-.043.03-.012.079-.057a1.165,1.165,0,0,0-.836.341c-.315.265-.358.587-.592.593,0-.443-.163-.311-.248-.951-.044-.331-.01-.666-.217-.812-.212.149-.218.445-.234.794a3.138,3.138,0,0,1-.265.8" transform="translate(16322 14135)" fill="#0ba354" fill-rule="evenodd"/>
    <path id="Path_140987" data-name="Path 140987" d="M1090.127,146.29l1.2,0a12.587,12.587,0,0,1,1.785.219,16.731,16.731,0,0,1,3.131.925c.185.077.39.152.564.241a22.241,22.241,0,0,1,2.137,1.13,11.386,11.386,0,0,0,1.019.633,3.473,3.473,0,0,1-.626.522c-.307.257-.762.682-1.068.894a.862.862,0,0,0-.259-.385.717.717,0,0,0-1,1c.117.183.2.148.295.28-.166.048-1.558,1.507-1.728,1.624,0-1.242-1.332-1.325-1.572-.633a1.472,1.472,0,0,0,.1.95,1.418,1.418,0,0,0,1.4,1c.446,0,.778-.425,1.1-.65a4.945,4.945,0,0,0,.632-.552l.624-.594c.11-.087.185-.237.332-.278a.7.7,0,0,0,1.362-.242.757.757,0,0,0-.4-.655.894.894,0,0,1,.194-.213l1.6-1.31a4.212,4.212,0,0,1,.465.346c.161.125.309.254.465.382l.675.575c.109.1.141.094.222.22a.733.733,0,0,0,.3,1.382.723.723,0,0,0,.664-.485,4.3,4.3,0,0,1,.624.562,6.15,6.15,0,0,0,.917.842c.624.425,1.051.959,1.859.509.545-.3,1.182-1.591.6-2.032-.643-.489-1.344.025-1.41.846a7.933,7.933,0,0,1-.623-.6l-.648-.6a3.675,3.675,0,0,1-.423-.423.741.741,0,0,0-.222-1.4.693.693,0,0,0-.742.53c-.308-.214-.934-.779-1.276-1.057a2.1,2.1,0,0,1-.418-.359c.666-.368,1.173-.767,2.026-1.209a17.04,17.04,0,0,1,5.488-1.828,15.5,15.5,0,0,1,2.319-.109,6.5,6.5,0,0,0-2.525-.622c-.2,0-.244-.037-.431-.037-.318,0-1.356.129-1.628.176a9.752,9.752,0,0,0-1.466.376,13.916,13.916,0,0,0-1.3.509c-.217.1-.421.184-.62.288-.8.419-1.563.865-2.319,1.356-.192.127-.381.269-.571.373-.537-.374-1.087-.748-1.661-1.07a12.955,12.955,0,0,0-1.177-.644c-.223-.1-.405-.191-.618-.289a12.046,12.046,0,0,0-4.385-1.073l-.835.063a7.732,7.732,0,0,0-1.842.435c-.12.044-.248.068-.312.159" transform="translate(16322 14135)" fill="#0ba354" fill-rule="evenodd"/>
    <path id="Path_140988" data-name="Path 140988" d="M1104.778,161.982c0,.573.547.076.7.034-.026-.1-.024-.085-.107-.13a.591.591,0,0,0-.178-.056,2.338,2.338,0,0,0-.38-.089,1.889,1.889,0,0,0-.033.241" transform="translate(16322 14135)" fill="#0ba354" fill-rule="evenodd"/>
    <path id="Path_140989" data-name="Path 140989" d="M1093.416,159.113a1.19,1.19,0,0,0,.4-.275c-.378,0-.44-.193-.631-.207a2.263,2.263,0,0,0,.232.482" transform="translate(16322 14135)" fill="#0ba354" fill-rule="evenodd"/>
    <path id="Path_140990" data-name="Path 140990" d="M1096.97,169.378a4.063,4.063,0,0,0,.432.14,1.891,1.891,0,0,0,.033-.485l-.372.235c-.095.05-.065,0-.093.11" transform="translate(16322 14135)" fill="#0ba354" fill-rule="evenodd"/>
    <path id="Path_140991" data-name="Path 140991" d="M1110.359,167.028c.182-.016.256-.13.432-.173-.027-.1-.061-.127-.146-.192a1.389,1.389,0,0,0-.219-.154c0,.474-.048.285-.067.519" transform="translate(16322 14135)" fill="#0ba354" fill-rule="evenodd"/>
    <path id="Path_140992" data-name="Path 140992" d="M1085.244,158.628a.693.693,0,0,0,.432-.172c-.281-.022-.342-.232-.5-.274a1.217,1.217,0,0,0,.067.446" transform="translate(16322 14135)" fill="#0ba354" fill-rule="evenodd"/>
    <path id="Path_140993" data-name="Path 140993" d="M1087.736,163.572c0,.163.064.139.1.276.182-.014.232-.138.232-.344-.068-.018-.332-.089-.332.068" transform="translate(16322 14135)" fill="#0ba354" fill-rule="evenodd"/>
    <path id="Path_140994" data-name="Path 140994" d="M1108.764,158.56c0,.385.655-.208.266-.208-.13,0-.266.074-.266.208" transform="translate(16322 14135)" fill="#0ba354" fill-rule="evenodd"/>
    <path id="Path_140995" data-name="Path 140995" d="M1115.608,161.221c.152-.042.16-.131.332-.173l-.266-.1a.4.4,0,0,0-.066.275" transform="translate(16322 14135)" fill="#0ba354" fill-rule="evenodd"/>
  </g>
</svg>
