<svg xmlns="http://www.w3.org/2000/svg" xmlns:xlink="http://www.w3.org/1999/xlink" width="73.877" height="44.85" viewBox="0 0 73.877 44.85">
  <defs>
    <clipPath id="clip-path">
      <path id="Path_143998" data-name="Path 143998" d="M1235.629,573.192c1.779-1.174,7.523-5.088,7.192-1.224-.185,2.166-2.168,4.968-2.383,5.265l.013.02c2.807,3.954,2.875,7.977,1.21,13.18a14.359,14.359,0,0,0,1.669-13.415c.047-.072,3.457-5.21,1.874-7.285a2.1,2.1,0,0,0-1.773-.81c-2.617,0-6.536,3.151-7.8,4.269" fill="none"/>
    </clipPath>
    <linearGradient id="linear-gradient" x1="-52.524" y1="37.547" x2="-52.481" y2="37.547" gradientUnits="objectBoundingBox">
      <stop offset="0" stop-color="#f4843e"/>
      <stop offset="1" stop-color="#fcc03b"/>
    </linearGradient>
    <clipPath id="clip-path-2">
      <rect id="Rectangle_17559" data-name="Rectangle 17559" width="26.99" height="32.062" transform="translate(1212.93 567.125)" fill="none"/>
    </clipPath>
    <clipPath id="clip-path-3">
      <path id="Path_144000" data-name="Path 144000" d="M1228.79,571.533c-7.868,3.291-8.875,12.024-5.79,17.508,2.251,4,6.162,6.246,9.939,6.056h0a18.144,18.144,0,0,1-4.61-7.329,23.176,23.176,0,0,1-3.389,1.4q1.6-1.022,3.166-2.112-.18-.62-.322-1.258a18.726,18.726,0,0,1,2.942-14.771,12.6,12.6,0,0,0-1.936.506" fill="none"/>
    </clipPath>
    <linearGradient id="linear-gradient-2" x1="-61.628" y1="18.861" x2="-61.577" y2="18.861" gradientUnits="objectBoundingBox">
      <stop offset="0" stop-color="#fff"/>
      <stop offset="1" stop-color="#231f20"/>
    </linearGradient>
  </defs>
  <g id="Client_63" transform="translate(-17534.93 -14702.125)">
    <g id="Group_124901" data-name="Group 124901" transform="translate(16322 14135)">
      <g id="Group_124900" data-name="Group 124900" clip-path="url(#clip-path)">
        <rect id="Rectangle_17557" data-name="Rectangle 17557" width="23.408" height="13.516" transform="translate(1233.219 590.17) rotate(-83.767)" fill="url(#linear-gradient)"/>
      </g>
    </g>
    <path id="Path_143999" data-name="Path 143999" d="M1223,589.041c3.086,5.482,9.3,7.675,13.994,4.807,5.594-3.416,5.271-11.665,2.573-15.469-4.332,5.484-9.853,9.272-14.628,10.789,5.146-3.282,10.045-7.019,13.784-12.007a11.758,11.758,0,0,0-4.529-3.572,7.476,7.476,0,0,1,5.3,2.5c.355-.516.753-1.126,1.123-1.788a10.834,10.834,0,0,0-11.83-2.77c-7.867,3.29-8.875,12.026-5.789,17.508" transform="translate(16322 14135)" fill="#535a60"/>
    <g id="Group_124906" data-name="Group 124906" transform="translate(16322 14135)" opacity="0.2" style="mix-blend-mode: screen;isolation: isolate">
      <g id="Group_124905" data-name="Group 124905">
        <g id="Group_124904" data-name="Group 124904" clip-path="url(#clip-path-2)">
          <g id="Group_124903" data-name="Group 124903">
            <g id="Group_124902" data-name="Group 124902" clip-path="url(#clip-path-3)">
              <rect id="Rectangle_17558" data-name="Rectangle 17558" width="19.74" height="27.06" transform="translate(1212.933 573.238) rotate(-17.572)" fill="url(#linear-gradient-2)"/>
            </g>
          </g>
        </g>
      </g>
    </g>
    <path id="Path_144001" data-name="Path 144001" d="M1223.247,610.56a1.515,1.515,0,0,1,.077.217,1.379,1.379,0,0,1,.045.221,1.551,1.551,0,0,1-.336.093,2.037,2.037,0,0,1-.322.024,1.281,1.281,0,0,1-.536-.1,1.068,1.068,0,0,1-.387-.288,1.255,1.255,0,0,1-.235-.438,1.862,1.862,0,0,1-.079-.555,1.79,1.79,0,0,1,.083-.557,1.311,1.311,0,0,1,.238-.443,1.1,1.1,0,0,1,.385-.292,1.266,1.266,0,0,1,.52-.1,1.964,1.964,0,0,1,.318.023,1.409,1.409,0,0,1,.315.095.824.824,0,0,1-.043.217c-.024.073-.05.143-.079.215a1.352,1.352,0,0,0-.223-.062,1.108,1.108,0,0,0-.23-.02.637.637,0,0,0-.531.235,1.1,1.1,0,0,0-.185.694q0,.912.745.913a1.26,1.26,0,0,0,.46-.083" transform="translate(16322 14135)" fill="#6d757a"/>
    <path id="Path_144002" data-name="Path 144002" d="M1223.585,609.134a1.565,1.565,0,0,1,.511,0v1.025a1.107,1.107,0,0,0,.023.253.4.4,0,0,0,.072.159.273.273,0,0,0,.121.082.565.565,0,0,0,.169.023.879.879,0,0,0,.223-.025v-1.517a1.463,1.463,0,0,1,.251-.021,1.487,1.487,0,0,1,.256.021v1.86a2,2,0,0,1-.3.08,1.808,1.808,0,0,1-.394.04,1.914,1.914,0,0,1-.352-.03.625.625,0,0,1-.5-.412,1.362,1.362,0,0,1-.075-.5Z" transform="translate(16322 14135)" fill="#6d757a"/>
    <path id="Path_144003" data-name="Path 144003" d="M1225.963,610.227a.717.717,0,0,1-.315-.178.487.487,0,0,1-.113-.352.546.546,0,0,1,.2-.447.818.818,0,0,1,.534-.161,1.357,1.357,0,0,1,.277.028,1.671,1.671,0,0,1,.277.078,1.086,1.086,0,0,1-.036.2.952.952,0,0,1-.069.184,1.406,1.406,0,0,0-.19-.067.927.927,0,0,0-.219-.027.355.355,0,0,0-.191.04.155.155,0,0,0-.02.24.522.522,0,0,0,.139.064l.2.063a1.037,1.037,0,0,1,.181.073.52.52,0,0,1,.139.108.433.433,0,0,1,.09.156.724.724,0,0,1,.032.228.588.588,0,0,1-.056.258.573.573,0,0,1-.162.208.746.746,0,0,1-.257.139,1.087,1.087,0,0,1-.341.052c-.058,0-.111,0-.158-.006s-.095-.012-.139-.021a.99.99,0,0,1-.131-.031,1.2,1.2,0,0,1-.141-.049,1.153,1.153,0,0,1,.034-.2,1.214,1.214,0,0,1,.071-.2,1.269,1.269,0,0,0,.225.073.887.887,0,0,0,.221.026.753.753,0,0,0,.11-.009.608.608,0,0,0,.109-.034.279.279,0,0,0,.085-.065.179.179,0,0,0-.018-.231.5.5,0,0,0-.146-.071Z" transform="translate(16322 14135)" fill="#6d757a"/>
    <path id="Path_144004" data-name="Path 144004" d="M1227.236,609.539H1227l-.018-.073.673-.9h.082v.567h.435a.9.9,0,0,1,.015.1c0,.032,0,.063,0,.094s0,.069,0,.1a.978.978,0,0,1-.015.107h-.435v.761a.848.848,0,0,0,.018.186.306.306,0,0,0,.052.113.177.177,0,0,0,.085.055.417.417,0,0,0,.119.016.621.621,0,0,0,.106-.01l.092-.017a.71.71,0,0,1,.035.148.908.908,0,0,1,.011.138c0,.026,0,.048,0,.068a.469.469,0,0,1-.006.055,1.431,1.431,0,0,1-.342.041.719.719,0,0,1-.5-.158.685.685,0,0,1-.173-.521Z" transform="translate(16322 14135)" fill="#6d757a"/>
    <path id="Path_144005" data-name="Path 144005" d="M1229.279,611.115a.943.943,0,0,1-.394-.077.755.755,0,0,1-.277-.214.938.938,0,0,1-.165-.319,1.371,1.371,0,0,1-.056-.4,1.4,1.4,0,0,1,.056-.4.931.931,0,0,1,.165-.323.759.759,0,0,1,.277-.216.912.912,0,0,1,.394-.079.924.924,0,0,1,.4.079.774.774,0,0,1,.281.216.9.9,0,0,1,.165.323,1.432,1.432,0,0,1,.054.4,1.405,1.405,0,0,1-.054.4.9.9,0,0,1-.165.319.77.77,0,0,1-.281.214.955.955,0,0,1-.4.077m0-.4a.309.309,0,0,0,.29-.153,1.184,1.184,0,0,0,0-.9.311.311,0,0,0-.29-.156.307.307,0,0,0-.286.156,1.184,1.184,0,0,0,0,.9.3.3,0,0,0,.286.153" transform="translate(16322 14135)" fill="#6d757a"/>
    <path id="Path_144006" data-name="Path 144006" d="M1230.506,609.134a.844.844,0,0,1,.1-.017.95.95,0,0,1,.111,0,.882.882,0,0,1,.108,0,.932.932,0,0,1,.1.017.2.2,0,0,1,.02.056c.006.022.011.048.016.073s.009.054.013.077.006.046.009.065a.561.561,0,0,1,.075-.114.509.509,0,0,1,.112-.1.545.545,0,0,1,.146-.075.564.564,0,0,1,.181-.028.526.526,0,0,1,.558.346.7.7,0,0,1,.2-.242.514.514,0,0,1,.333-.1.571.571,0,0,1,.466.183.883.883,0,0,1,.149.566v1.232a1.565,1.565,0,0,1-.511,0v-1.093a.8.8,0,0,0-.049-.312.192.192,0,0,0-.2-.108.447.447,0,0,0-.12.018.267.267,0,0,0-.108.071.371.371,0,0,0-.079.141.753.753,0,0,0-.031.239v1.044a1.559,1.559,0,0,1-.51,0v-1.093a.8.8,0,0,0-.049-.312.194.194,0,0,0-.2-.108.461.461,0,0,0-.122.018.241.241,0,0,0-.11.075.375.375,0,0,0-.077.15.893.893,0,0,0-.029.255v1.015a1.565,1.565,0,0,1-.511,0Z" transform="translate(16322 14135)" fill="#6d757a"/>
    <path id="Path_144007" data-name="Path 144007" d="M1234,610.264a.413.413,0,0,0,.151.326.581.581,0,0,0,.36.1,1.358,1.358,0,0,0,.25-.025,1.273,1.273,0,0,0,.242-.07.853.853,0,0,1,.069.181.925.925,0,0,1,.032.223,1.649,1.649,0,0,1-.633.115,1.2,1.2,0,0,1-.444-.076.783.783,0,0,1-.3-.209.82.82,0,0,1-.172-.316,1.375,1.375,0,0,1-.056-.4,1.336,1.336,0,0,1,.058-.4.942.942,0,0,1,.17-.325.835.835,0,0,1,.281-.22.934.934,0,0,1,.391-.08.81.81,0,0,1,.345.073.733.733,0,0,1,.257.193.836.836,0,0,1,.16.294,1.2,1.2,0,0,1,.054.365c0,.047,0,.1-.005.141s-.008.084-.013.109Zm.73-.37a.49.49,0,0,0-.1-.29.3.3,0,0,0-.247-.109.355.355,0,0,0-.273.1.508.508,0,0,0-.112.3Z" transform="translate(16322 14135)" fill="#6d757a"/>
    <path id="Path_144008" data-name="Path 144008" d="M1235.545,609.134a1.042,1.042,0,0,1,.1-.017.883.883,0,0,1,.106,0,.618.618,0,0,1,.106.006c.034.005.069.011.1.019a.206.206,0,0,1,.02.055.663.663,0,0,1,.016.075c.005.025.009.052.013.078s.006.049.009.065a1,1,0,0,1,.194-.208.454.454,0,0,1,.288-.09c.024,0,.052,0,.083,0a.271.271,0,0,1,.068.011.546.546,0,0,1,.01.086c0,.033,0,.068,0,.1s0,.089-.005.137a.874.874,0,0,1-.02.142.574.574,0,0,0-.088-.007h-.06a.777.777,0,0,0-.136.013.331.331,0,0,0-.144.069.4.4,0,0,0-.113.169.881.881,0,0,0-.045.316v.918a.937.937,0,0,1-.13.015c-.043,0-.085,0-.126,0s-.082,0-.124,0a1.022,1.022,0,0,1-.131-.015Z" transform="translate(16322 14135)" fill="#6d757a"/>
    <path id="Path_144009" data-name="Path 144009" d="M1237.639,608.378h1.468a1.25,1.25,0,0,1,.021.229,1.279,1.279,0,0,1-.021.236h-.943v.584h.748a1.234,1.234,0,0,1,.022.231,1.266,1.266,0,0,1-.022.237h-.748v.711h.968a1.226,1.226,0,0,1,.021.227,1.265,1.265,0,0,1-.021.235h-1.493Z" transform="translate(16322 14135)" fill="#6d757a"/>
    <path id="Path_144010" data-name="Path 144010" d="M1239.7,610.07l-.357-.934a1.331,1.331,0,0,1,.263-.024,1.626,1.626,0,0,1,.276.024l.285.946-.371.987a1.388,1.388,0,0,1-.255.024,1.567,1.567,0,0,1-.266-.024Zm.492.012.288-.946a1.561,1.561,0,0,1,.277-.024,1.427,1.427,0,0,1,.262.024l-.359.934.428,1a1.577,1.577,0,0,1-.266.024,1.4,1.4,0,0,1-.256-.024Z" transform="translate(16322 14135)" fill="#6d757a"/>
    <path id="Path_144011" data-name="Path 144011" d="M1241.315,609.132a.718.718,0,0,1,.1-.016c.033,0,.069,0,.11,0a.917.917,0,0,1,.2.024.2.2,0,0,1,.02.053c.006.025.012.049.018.076s.011.054.014.081.007.048.009.066a.828.828,0,0,1,.079-.117.54.54,0,0,1,.113-.1.7.7,0,0,1,.15-.072.559.559,0,0,1,.183-.027.719.719,0,0,1,.29.058.646.646,0,0,1,.235.183.829.829,0,0,1,.157.305,1.5,1.5,0,0,1,.056.433,1.288,1.288,0,0,1-.069.437.891.891,0,0,1-.2.328.881.881,0,0,1-.316.208,1.175,1.175,0,0,1-.424.072,1.189,1.189,0,0,1-.121-.006c-.04,0-.073-.009-.1-.014v.863a1.022,1.022,0,0,1-.131.013c-.043,0-.084,0-.124,0s-.083,0-.124,0a1.039,1.039,0,0,1-.132-.013Zm.511,1.526a.725.725,0,0,0,.223.03.413.413,0,0,0,.342-.15.719.719,0,0,0,.119-.451,1.31,1.31,0,0,0-.018-.217.5.5,0,0,0-.062-.17.306.306,0,0,0-.109-.111.35.35,0,0,0-.317-.006.287.287,0,0,0-.1.1.451.451,0,0,0-.057.144.846.846,0,0,0-.018.177Z" transform="translate(16322 14135)" fill="#6d757a"/>
    <path id="Path_144012" data-name="Path 144012" d="M1243.786,610.264a.413.413,0,0,0,.151.326.58.58,0,0,0,.36.1,1.35,1.35,0,0,0,.25-.025,1.252,1.252,0,0,0,.242-.07.853.853,0,0,1,.069.181.937.937,0,0,1,.032.223,1.649,1.649,0,0,1-.633.115,1.2,1.2,0,0,1-.444-.076.782.782,0,0,1-.3-.209.833.833,0,0,1-.172-.316,1.436,1.436,0,0,1,0-.8.944.944,0,0,1,.17-.325.835.835,0,0,1,.281-.22.933.933,0,0,1,.391-.08.809.809,0,0,1,.345.073.745.745,0,0,1,.258.193.852.852,0,0,1,.159.294,1.2,1.2,0,0,1,.054.365c0,.047,0,.1-.005.141a1.093,1.093,0,0,1-.013.109Zm.73-.37a.49.49,0,0,0-.095-.29.3.3,0,0,0-.247-.109.354.354,0,0,0-.273.1.508.508,0,0,0-.112.3Z" transform="translate(16322 14135)" fill="#6d757a"/>
    <path id="Path_144013" data-name="Path 144013" d="M1245.33,609.134c.036-.008.07-.013.1-.017a.889.889,0,0,1,.106,0,.631.631,0,0,1,.107.006c.034.005.068.011.1.019a.235.235,0,0,1,.02.055c.006.023.011.047.016.075s.009.052.013.078l.008.065a1,1,0,0,1,.194-.208.457.457,0,0,1,.289-.09c.023,0,.051,0,.082,0a.281.281,0,0,1,.069.011c0,.027.008.054.01.086s0,.068,0,.1,0,.089-.006.137a1.018,1.018,0,0,1-.019.142.586.586,0,0,0-.088-.007h-.06a.8.8,0,0,0-.137.013.33.33,0,0,0-.144.069.423.423,0,0,0-.113.169.878.878,0,0,0-.045.316v.918a.936.936,0,0,1-.129.015c-.043,0-.085,0-.126,0s-.082,0-.124,0a1.024,1.024,0,0,1-.131-.015Z" transform="translate(16322 14135)" fill="#6d757a"/>
    <path id="Path_144014" data-name="Path 144014" d="M1246.8,609.538h-.24a.792.792,0,0,1-.017-.1c0-.036-.005-.07-.005-.1a.89.89,0,0,1,.022-.2h.741v1.936a1.439,1.439,0,0,1-.5,0Zm-.075-.729a1.535,1.535,0,0,1-.022-.251,1.594,1.594,0,0,1,.022-.251,1.27,1.27,0,0,1,.131-.017c.047,0,.09,0,.128,0s.085,0,.133,0a1.212,1.212,0,0,1,.133.017c.007.043.012.084.015.125s0,.083,0,.126,0,.081,0,.123-.008.085-.015.128a.858.858,0,0,1-.131.016c-.047,0-.091,0-.131,0s-.082,0-.13,0a.883.883,0,0,1-.133-.016" transform="translate(16322 14135)" fill="#6d757a"/>
    <path id="Path_144015" data-name="Path 144015" d="M1248.142,610.264a.413.413,0,0,0,.151.326.581.581,0,0,0,.36.1,1.358,1.358,0,0,0,.25-.025,1.273,1.273,0,0,0,.242-.07.86.86,0,0,1,.069.181.925.925,0,0,1,.032.223,1.649,1.649,0,0,1-.633.115,1.2,1.2,0,0,1-.444-.076.783.783,0,0,1-.3-.209.82.82,0,0,1-.172-.316,1.375,1.375,0,0,1-.056-.4,1.336,1.336,0,0,1,.058-.4.942.942,0,0,1,.17-.325.835.835,0,0,1,.281-.22.934.934,0,0,1,.391-.08.81.81,0,0,1,.345.073.733.733,0,0,1,.257.193.836.836,0,0,1,.16.294,1.2,1.2,0,0,1,.054.365c0,.047,0,.1-.005.141s-.008.084-.013.109Zm.73-.37a.49.49,0,0,0-.095-.29.3.3,0,0,0-.247-.109.353.353,0,0,0-.273.1.508.508,0,0,0-.112.3Z" transform="translate(16322 14135)" fill="#6d757a"/>
    <path id="Path_144016" data-name="Path 144016" d="M1249.685,609.134a.876.876,0,0,1,.1-.017.959.959,0,0,1,.111,0,.882.882,0,0,1,.108,0,.9.9,0,0,1,.1.017.2.2,0,0,1,.02.056c.006.022.011.048.016.073s.009.054.013.077.006.046.009.065a.808.808,0,0,1,.086-.114.589.589,0,0,1,.117-.1.561.561,0,0,1,.149-.075.688.688,0,0,1,.66.153.824.824,0,0,1,.161.564v1.236a1.571,1.571,0,0,1-.512,0v-1.093a.66.66,0,0,0-.059-.312.214.214,0,0,0-.206-.108.511.511,0,0,0-.126.018.256.256,0,0,0-.117.075.4.4,0,0,0-.085.15.818.818,0,0,0-.032.255v1.015a1.565,1.565,0,0,1-.511,0Z" transform="translate(16322 14135)" fill="#6d757a"/>
    <path id="Path_144017" data-name="Path 144017" d="M1252.973,610.613a.777.777,0,0,1,.072.174.854.854,0,0,1,.029.234,1.065,1.065,0,0,1-.27.076,1.858,1.858,0,0,1-.263.018,1,1,0,0,1-.407-.076.775.775,0,0,1-.285-.213.91.91,0,0,1-.171-.318,1.432,1.432,0,0,1,0-.8.957.957,0,0,1,.169-.323.776.776,0,0,1,.283-.215.9.9,0,0,1,.392-.079l.146,0a1.026,1.026,0,0,1,.127.015c.041.008.082.019.122.03s.087.03.137.049a.966.966,0,0,1-.022.194.892.892,0,0,1-.068.2,1.2,1.2,0,0,0-.189-.052,1.128,1.128,0,0,0-.185-.013.392.392,0,0,0-.336.153.7.7,0,0,0-.113.431.662.662,0,0,0,.122.443.424.424,0,0,0,.331.137l.1,0,.089-.008a.614.614,0,0,0,.088-.024c.03-.01.065-.021.106-.037" transform="translate(16322 14135)" fill="#6d757a"/>
    <path id="Path_144018" data-name="Path 144018" d="M1253.714,610.264a.413.413,0,0,0,.151.326.581.581,0,0,0,.36.1,1.358,1.358,0,0,0,.25-.025,1.276,1.276,0,0,0,.242-.07.86.86,0,0,1,.069.181.925.925,0,0,1,.032.223,1.649,1.649,0,0,1-.633.115,1.2,1.2,0,0,1-.444-.076.782.782,0,0,1-.3-.209.833.833,0,0,1-.172-.316,1.375,1.375,0,0,1-.056-.4,1.34,1.34,0,0,1,.058-.4.944.944,0,0,1,.17-.325.835.835,0,0,1,.281-.22.934.934,0,0,1,.391-.08.809.809,0,0,1,.345.073.732.732,0,0,1,.257.193.836.836,0,0,1,.16.294,1.2,1.2,0,0,1,.054.365c0,.047,0,.1-.005.141a1.093,1.093,0,0,1-.013.109Zm.73-.37a.49.49,0,0,0-.095-.29.3.3,0,0,0-.247-.109.354.354,0,0,0-.273.1.508.508,0,0,0-.112.3Z" transform="translate(16322 14135)" fill="#6d757a"/>
    <path id="Path_144019" data-name="Path 144019" d="M1255.782,608.378a1.746,1.746,0,0,1,.3-.021c.043,0,.087,0,.132,0a.753.753,0,0,1,.131.019l.37,2.025.446-2.025c.048-.008.093-.013.133-.017s.083,0,.126,0a1.326,1.326,0,0,1,.234.021l.464,2.077.371-2.077a1.157,1.157,0,0,1,.23-.021,1.074,1.074,0,0,1,.14.006l.133.015-.622,2.69a1.476,1.476,0,0,1-.27.023,2.046,2.046,0,0,1-.3-.023l-.413-1.792-.446,1.792-.153.016a1.357,1.357,0,0,1-.387-.016Z" transform="translate(16322 14135)" fill="#6d757a"/>
    <path id="Path_144020" data-name="Path 144020" d="M1259.887,611.115a.942.942,0,0,1-.394-.077.754.754,0,0,1-.277-.214.957.957,0,0,1-.166-.319,1.367,1.367,0,0,1-.055-.4,1.392,1.392,0,0,1,.055-.4.949.949,0,0,1,.166-.323.758.758,0,0,1,.277-.216.911.911,0,0,1,.394-.079.924.924,0,0,1,.4.079.769.769,0,0,1,.28.216.9.9,0,0,1,.166.323,1.432,1.432,0,0,1,.054.4,1.405,1.405,0,0,1-.054.4.907.907,0,0,1-.166.319.765.765,0,0,1-.28.214.955.955,0,0,1-.4.077m0-.4a.307.307,0,0,0,.289-.153,1.172,1.172,0,0,0,0-.9.343.343,0,0,0-.575,0,1.184,1.184,0,0,0,0,.9.305.305,0,0,0,.286.153" transform="translate(16322 14135)" fill="#6d757a"/>
    <path id="Path_144021" data-name="Path 144021" d="M1261.114,609.134a1.008,1.008,0,0,1,.1-.017.891.891,0,0,1,.106,0,.629.629,0,0,1,.107.006c.035.005.069.011.1.019a.319.319,0,0,1,.019.055.5.5,0,0,1,.016.075c.005.025.009.052.013.078s.006.049.01.065a.972.972,0,0,1,.193-.208.452.452,0,0,1,.288-.09c.024,0,.052,0,.083,0a.263.263,0,0,1,.068.011.693.693,0,0,1,.01.086c0,.033,0,.068,0,.1s0,.089-.005.137a1.014,1.014,0,0,1-.02.142.585.585,0,0,0-.088-.007h-.059a.761.761,0,0,0-.136.013.324.324,0,0,0-.145.069.416.416,0,0,0-.114.169.91.91,0,0,0-.043.316v.918a.989.989,0,0,1-.13.015c-.044,0-.086,0-.127,0s-.082,0-.123,0a1,1,0,0,1-.131-.015Z" transform="translate(16322 14135)" fill="#6d757a"/>
    <path id="Path_144022" data-name="Path 144022" d="M1262.473,608.333a1.621,1.621,0,0,1,.508,0V610.3a1.057,1.057,0,0,0,.012.187.3.3,0,0,0,.04.112.135.135,0,0,0,.07.052.332.332,0,0,0,.108.015.459.459,0,0,0,.062,0,.492.492,0,0,0,.067-.011,1.184,1.184,0,0,1,.039.3V611a.305.305,0,0,1-.006.056.883.883,0,0,1-.139.025c-.054.005-.1.007-.15.007a.623.623,0,0,1-.443-.157.7.7,0,0,1-.168-.52Z" transform="translate(16322 14135)" fill="#6d757a"/>
    <path id="Path_144023" data-name="Path 144023" d="M1264.7,608.335a.811.811,0,0,1,.128-.016c.042,0,.083,0,.124,0s.083,0,.126,0a.81.81,0,0,1,.129.016v2.672a3.025,3.025,0,0,1-.344.081,2.968,2.968,0,0,1-.422.026,1.2,1.2,0,0,1-.365-.054.793.793,0,0,1-.518-.475,1.335,1.335,0,0,1-.011-.861.967.967,0,0,1,.191-.327.89.89,0,0,1,.3-.218.913.913,0,0,1,.392-.081c.044,0,.088,0,.135.005a.6.6,0,0,1,.135.025Zm0,1.2a.737.737,0,0,0-.117-.023.878.878,0,0,0-.113-.006.4.4,0,0,0-.207.05.479.479,0,0,0-.146.134.629.629,0,0,0-.085.2,1.1,1.1,0,0,0-.026.239.835.835,0,0,0,.036.26.443.443,0,0,0,.1.168.35.35,0,0,0,.15.092.564.564,0,0,0,.187.03.922.922,0,0,0,.111-.006.691.691,0,0,0,.112-.025Z" transform="translate(16322 14135)" fill="#6d757a"/>
    <path id="Path_144024" data-name="Path 144024" d="M1221.494,598.042c.25-.04.539-.073.866-.1s.738-.038,1.229-.038a6.48,6.48,0,0,1,1.217.111,2.958,2.958,0,0,1,1,.37,1.906,1.906,0,0,1,.673.7,2.219,2.219,0,0,1,.246,1.1,2.274,2.274,0,0,1-.112.723,2.025,2.025,0,0,1-.3.585,1.9,1.9,0,0,1-.421.414,1.14,1.14,0,0,1-.48.2,2.4,2.4,0,0,1,.6.17,1.945,1.945,0,0,1,.608.394,2.088,2.088,0,0,1,.468.677,2.4,2.4,0,0,1,.188,1,2.61,2.61,0,0,1-.287,1.3,2.168,2.168,0,0,1-.773.8,3.2,3.2,0,0,1-1.123.4,7.807,7.807,0,0,1-1.34.11c-.359,0-.714-.009-1.065-.03s-.749-.059-1.194-.115Zm2.212,3.556a2.594,2.594,0,0,0,.544-.055,1.105,1.105,0,0,0,.439-.2.943.943,0,0,0,.293-.377,1.5,1.5,0,0,0,.1-.6,1.2,1.2,0,0,0-.123-.578.982.982,0,0,0-.316-.352,1.15,1.15,0,0,0-.433-.171,2.85,2.85,0,0,0-.474-.042,3.65,3.65,0,0,0-.55.036V601.6Zm-.515,3.872c.11.017.236.028.381.036s.275.013.392.013a2.949,2.949,0,0,0,.515-.049,1.485,1.485,0,0,0,.5-.188,1.133,1.133,0,0,0,.386-.389,1.251,1.251,0,0,0,.152-.652,1.477,1.477,0,0,0-.117-.627,1,1,0,0,0-.334-.4,1.386,1.386,0,0,0-.514-.214,3.379,3.379,0,0,0-.662-.059h-.7Z" transform="translate(16322 14135)" fill="#535a60"/>
    <path id="Path_144025" data-name="Path 144025" d="M1228.212,600.514a4.834,4.834,0,0,1,1.662,0v3.336a3.664,3.664,0,0,0,.076.822,1.236,1.236,0,0,0,.234.512.851.851,0,0,0,.392.267,1.712,1.712,0,0,0,.55.081,2.72,2.72,0,0,0,.726-.085v-4.933a4.746,4.746,0,0,1,.819-.072,4.832,4.832,0,0,1,.831.072v6.053a7.62,7.62,0,0,1-.989.26,6.3,6.3,0,0,1-1.282.128,6.768,6.768,0,0,1-1.147-.1,2.226,2.226,0,0,1-.965-.414,2.122,2.122,0,0,1-.661-.927,4.388,4.388,0,0,1-.246-1.618Z" transform="translate(16322 14135)" fill="#535a60"/>
    <path id="Path_144026" data-name="Path 144026" d="M1235.948,604.07a2.282,2.282,0,0,1-1.025-.579,1.6,1.6,0,0,1-.369-1.15,1.77,1.77,0,0,1,.639-1.449,2.662,2.662,0,0,1,1.737-.523,4.6,4.6,0,0,1,.9.086,5.16,5.16,0,0,1,.9.256,3.458,3.458,0,0,1-.117.657,3.269,3.269,0,0,1-.222.6,4.04,4.04,0,0,0-.62-.213,2.647,2.647,0,0,0-.714-.092,1.255,1.255,0,0,0-.621.128.437.437,0,0,0-.221.407.423.423,0,0,0,.157.377,1.752,1.752,0,0,0,.45.207l.668.207a3.4,3.4,0,0,1,.591.237,1.642,1.642,0,0,1,.45.347,1.5,1.5,0,0,1,.293.513,2.292,2.292,0,0,1,.1.742,1.971,1.971,0,0,1-.181.841,1.946,1.946,0,0,1-.527.675,2.619,2.619,0,0,1-.836.451,3.517,3.517,0,0,1-1.112.165c-.188,0-.358-.007-.515-.02a4.2,4.2,0,0,1-.451-.059q-.216-.045-.427-.1c-.14-.041-.293-.094-.456-.159a3.513,3.513,0,0,1,.111-.662,4.279,4.279,0,0,1,.229-.653,4.768,4.768,0,0,0,.731.239,3.2,3.2,0,0,0,.72.078,2.461,2.461,0,0,0,.356-.029,1.284,1.284,0,0,0,.357-.111.842.842,0,0,0,.275-.207.487.487,0,0,0,.111-.335.494.494,0,0,0-.169-.42,1.6,1.6,0,0,0-.474-.224Z" transform="translate(16322 14135)" fill="#535a60"/>
    <path id="Path_144027" data-name="Path 144027" d="M1240.254,601.83h-.784a2.8,2.8,0,0,1-.053-.335,3.292,3.292,0,0,1-.017-.335,2.935,2.935,0,0,1,.07-.644h2.41v6.293a4.766,4.766,0,0,1-.819.075,4.7,4.7,0,0,1-.807-.075Zm-.246-2.375a4.831,4.831,0,0,1-.07-.814,5.032,5.032,0,0,1,.07-.818c.132-.022.275-.042.427-.054s.291-.018.415-.018.277.007.433.018.3.032.433.054a3.477,3.477,0,0,1,.047.408c.008.134.012.27.012.41s0,.262-.012.4a.34.34,0,0,1-.474.463c-.152.009-.294.013-.427.013s-.265,0-.421-.013a3.413,3.413,0,0,1-.433-.049" transform="translate(16322 14135)" fill="#535a60"/>
    <path id="Path_144028" data-name="Path 144028" d="M1243.285,600.514c.109-.023.219-.042.328-.055s.23-.017.362-.017a3.277,3.277,0,0,1,.351.017c.1.013.207.032.317.055a.782.782,0,0,1,.064.178c.019.076.036.157.052.242s.03.169.042.25.021.15.029.207a2.786,2.786,0,0,1,.281-.364,1.958,1.958,0,0,1,.38-.329,1.978,1.978,0,0,1,.485-.239,1.881,1.881,0,0,1,.6-.091,1.974,1.974,0,0,1,1.55.584,2.716,2.716,0,0,1,.521,1.839v4.018a4.766,4.766,0,0,1-1.662,0v-3.555a2.147,2.147,0,0,0-.193-1.011.7.7,0,0,0-.673-.353,1.448,1.448,0,0,0-.409.061.871.871,0,0,0-.381.238,1.273,1.273,0,0,0-.275.493,2.686,2.686,0,0,0-.1.827v3.3a4.766,4.766,0,0,1-1.662,0Z" transform="translate(16322 14135)" fill="#535a60"/>
    <path id="Path_144029" data-name="Path 144029" d="M1251.243,604.191a1.349,1.349,0,0,0,.49,1.061,1.933,1.933,0,0,0,1.171.329,4.487,4.487,0,0,0,.813-.079,4.535,4.535,0,0,0,.79-.227,2.919,2.919,0,0,1,.223.585,3.146,3.146,0,0,1,.1.73,5.472,5.472,0,0,1-2.06.367,3.864,3.864,0,0,1-1.445-.243,2.6,2.6,0,0,1-.983-.677,2.73,2.73,0,0,1-.562-1.03,4.705,4.705,0,0,1,.006-2.606,3.1,3.1,0,0,1,.556-1.059,2.634,2.634,0,0,1,.913-.71,2.889,2.889,0,0,1,1.27-.263,2.608,2.608,0,0,1,1.123.23,2.514,2.514,0,0,1,.837.634,2.708,2.708,0,0,1,.521.955,3.923,3.923,0,0,1,.175,1.189c0,.153-.006.3-.018.457s-.025.268-.04.357Zm2.375-1.2a1.567,1.567,0,0,0-.31-.942.966.966,0,0,0-.8-.361,1.134,1.134,0,0,0-.889.341,1.641,1.641,0,0,0-.363.962Z" transform="translate(16322 14135)" fill="#535a60"/>
    <path id="Path_144030" data-name="Path 144030" d="M1257.433,604.07a2.289,2.289,0,0,1-1.025-.579,1.6,1.6,0,0,1-.368-1.15,1.773,1.773,0,0,1,.638-1.449,2.665,2.665,0,0,1,1.738-.523,4.607,4.607,0,0,1,.9.086,5.208,5.208,0,0,1,.9.256,3.527,3.527,0,0,1-.117.657,3.351,3.351,0,0,1-.223.6,4.013,4.013,0,0,0-.62-.213,2.646,2.646,0,0,0-.713-.092,1.256,1.256,0,0,0-.621.128.434.434,0,0,0-.222.407.424.424,0,0,0,.158.377,1.751,1.751,0,0,0,.45.207l.667.207a3.34,3.34,0,0,1,.591.237,1.648,1.648,0,0,1,.451.347,1.479,1.479,0,0,1,.292.513,2.264,2.264,0,0,1,.106.742,1.972,1.972,0,0,1-.182.841,1.931,1.931,0,0,1-.526.675,2.624,2.624,0,0,1-.837.451,3.506,3.506,0,0,1-1.111.165c-.188,0-.359-.007-.515-.02a4.159,4.159,0,0,1-.451-.059c-.144-.03-.287-.065-.427-.1s-.293-.094-.456-.159a3.513,3.513,0,0,1,.111-.662,4.185,4.185,0,0,1,.228-.653,4.8,4.8,0,0,0,.731.239,3.2,3.2,0,0,0,.72.078,2.46,2.46,0,0,0,.357-.029,1.294,1.294,0,0,0,.357-.111.853.853,0,0,0,.275-.207.585.585,0,0,0-.059-.755,1.589,1.589,0,0,0-.474-.224Z" transform="translate(16322 14135)" fill="#535a60"/>
    <path id="Path_144031" data-name="Path 144031" d="M1262.325,604.07a2.284,2.284,0,0,1-1.024-.579,1.6,1.6,0,0,1-.369-1.15,1.773,1.773,0,0,1,.638-1.449,2.665,2.665,0,0,1,1.738-.523,4.609,4.609,0,0,1,.9.086,5.171,5.171,0,0,1,.9.256,3.373,3.373,0,0,1-.117.657,3.269,3.269,0,0,1-.222.6,4.049,4.049,0,0,0-.62-.213,2.653,2.653,0,0,0-.714-.092,1.257,1.257,0,0,0-.621.128.433.433,0,0,0-.221.407.423.423,0,0,0,.157.377,1.748,1.748,0,0,0,.451.207l.667.207a3.4,3.4,0,0,1,.591.237,1.644,1.644,0,0,1,.45.347,1.494,1.494,0,0,1,.293.513,2.289,2.289,0,0,1,.1.742,1.971,1.971,0,0,1-.181.841,1.946,1.946,0,0,1-.527.675,2.619,2.619,0,0,1-.836.451,3.517,3.517,0,0,1-1.112.165c-.187,0-.359-.007-.515-.02a4.2,4.2,0,0,1-.451-.059c-.144-.03-.287-.065-.427-.1s-.293-.094-.456-.159a3.5,3.5,0,0,1,.111-.662,4.275,4.275,0,0,1,.228-.653,4.809,4.809,0,0,0,.731.239,3.213,3.213,0,0,0,.721.078,2.45,2.45,0,0,0,.356-.029,1.284,1.284,0,0,0,.357-.111.841.841,0,0,0,.275-.207.585.585,0,0,0-.059-.755,1.584,1.584,0,0,0-.473-.224Z" transform="translate(16322 14135)" fill="#535a60"/>
    <path id="Path_144032" data-name="Path 144032" d="M1265.567,600.526a3.032,3.032,0,0,1,.509-.071c.16-.009.294-.014.4-.014.156,0,.308.005.456.014a2.337,2.337,0,0,1,.421.059l.972,4.653,1.123-4.653a4.019,4.019,0,0,1,.8-.073l.5.024a2.064,2.064,0,0,1,.351.049l1.1,4.568.96-4.568c.133-.024.258-.043.375-.053a3.386,3.386,0,0,1,.4-.02c.11,0,.24.005.393.014a3.275,3.275,0,0,1,.509.071l-1.885,6.283a3.406,3.406,0,0,1-.45.049c-.16.008-.295.013-.4.013s-.248,0-.392-.013a2.163,2.163,0,0,1-.416-.061l-1.1-4.164-1.136,4.176a3.755,3.755,0,0,1-.462.049c-.16.008-.3.013-.4.013s-.236,0-.38-.013a2.141,2.141,0,0,1-.415-.061Z" transform="translate(16322 14135)" fill="#fcc03b"/>
    <path id="Path_144033" data-name="Path 144033" d="M1278.522,602.669a1.041,1.041,0,0,0-.094-.475.72.72,0,0,0-.257-.286,1.026,1.026,0,0,0-.4-.139,3.354,3.354,0,0,0-.532-.036,4.028,4.028,0,0,0-1.346.254,3.353,3.353,0,0,1-.246-.595,2.4,2.4,0,0,1-.082-.67,6.115,6.115,0,0,1,1.03-.27,6.225,6.225,0,0,1,.96-.085,2.751,2.751,0,0,1,1.9.611,2.477,2.477,0,0,1,.685,1.947v3.652a9.24,9.24,0,0,1-.995.256,6.525,6.525,0,0,1-1.322.122,5.219,5.219,0,0,1-1.094-.108,2.306,2.306,0,0,1-.855-.365,1.7,1.7,0,0,1-.55-.66,2.247,2.247,0,0,1-.193-.986,1.852,1.852,0,0,1,.24-.979,1.877,1.877,0,0,1,.62-.633,2.7,2.7,0,0,1,.848-.342,4.4,4.4,0,0,1,.937-.1q.339,0,.749.038Zm0,1.254c-.094-.016-.195-.029-.3-.042a2.508,2.508,0,0,0-.293-.019,1.69,1.69,0,0,0-.907.213.757.757,0,0,0-.333.689.789.789,0,0,0,.128.486.77.77,0,0,0,.311.25,1.268,1.268,0,0,0,.386.1c.136.011.255.016.357.016a1.894,1.894,0,0,0,.351-.03c.116-.018.218-.038.3-.055Z" transform="translate(16322 14135)" fill="#fcc03b"/>
    <path id="Path_144034" data-name="Path 144034" d="M1280.675,600.514a2.54,2.54,0,0,1,.474-.066c.136,0,.262-.006.381-.006.154,0,.315,0,.479.011a2.478,2.478,0,0,1,.444.061l1.265,5.491,1.427-5.491a4.243,4.243,0,0,1,.8-.072c.117,0,.241,0,.375.006a2.992,2.992,0,0,1,.491.066l-2.259,7.78a3.086,3.086,0,0,1-.334.768,1.653,1.653,0,0,1-.438.474,1.532,1.532,0,0,1-.551.239,3.008,3.008,0,0,1-.654.066,3.665,3.665,0,0,1-.592-.043,4.476,4.476,0,0,1-.521-.115.52.52,0,0,1-.01-.1v-.09a2.366,2.366,0,0,1,.063-.555,3.9,3.9,0,0,1,.159-.506,1.836,1.836,0,0,0,.28.067,2,2,0,0,0,.352.032,2.053,2.053,0,0,0,.281-.02.643.643,0,0,0,.273-.108.891.891,0,0,0,.253-.286,2.22,2.22,0,0,0,.21-.548l.2-.756c-.087.009-.181.016-.288.018s-.212.006-.321.006h-.245a.809.809,0,0,1-.212-.024Z" transform="translate(16322 14135)" fill="#fcc03b"/>
  </g>
</svg>
