<svg xmlns="http://www.w3.org/2000/svg" width="63.172" height="30.879" viewBox="0 0 63.172 30.879">
  <g id="Client_41" transform="translate(-17537.008 -14497.96)">
    <path id="Path_145805" data-name="Path 145805" d="M1237.353,383.5v.374a3.3,3.3,0,0,1-3.221,3.353h-2.166l-5.286-7.078-2.346-3.137a3.448,3.448,0,0,1,.569-4.7l.286-.234a3.144,3.144,0,0,1,4.513.591l5.849,7.829,1.739,2.325s-.005,0,0,.005a3.8,3.8,0,0,1,.063.672" transform="translate(16322 14135)" fill="#55669e"/>
    <path id="Path_145806" data-name="Path 145806" d="M1277.673,381.657v0a3.28,3.28,0,0,1-3.206,3.032h-3.139l-3.341-4.549-1.312-1.754-1.035-1.383a3.453,3.453,0,0,1,.568-4.7l.287-.232a3.142,3.142,0,0,1,4.513.592l1.632,2.182,2.021,2.782Z" transform="translate(16322 14135)" fill="#55669e"/>
    <path id="Path_145807" data-name="Path 145807" d="M1237.353,383.5v.374a3.3,3.3,0,0,1-3.221,3.353h-15.9a3.3,3.3,0,0,1-3.221-3.353V383.5a3.3,3.3,0,0,1,3.221-3.351h15.9a3.01,3.01,0,0,1,1.419.349,3.367,3.367,0,0,1,1.739,2.325s-.005,0,0,.005a3.8,3.8,0,0,1,.063.672" transform="translate(16322 14135)" fill="#8091bc"/>
    <path id="Path_145808" data-name="Path 145808" d="M1241.421,378.124h-14.937a3.3,3.3,0,0,1-3.219-3.349V374.4a3.3,3.3,0,0,1,3.219-3.347h14.937a3.3,3.3,0,0,1,3.219,3.347v.379a3.3,3.3,0,0,1-3.219,3.349" transform="translate(16322 14135)" fill="#8091bc"/>
    <path id="Path_145809" data-name="Path 145809" d="M1252.9,366.309v17.059a3.3,3.3,0,0,1-3.219,3.347h-.364a3.3,3.3,0,0,1-3.218-3.347V366.309a3.3,3.3,0,0,1,3.218-3.349h.364a3.3,3.3,0,0,1,3.219,3.349" transform="translate(16322 14135)" fill="#8091bc"/>
    <path id="Path_145810" data-name="Path 145810" d="M1262.128,374.4v12.822h-3.58a3.3,3.3,0,0,1-3.221-3.35V374.4a3.3,3.3,0,0,1,3.221-3.352h.36a3.3,3.3,0,0,1,3.22,3.352" transform="translate(16322 14135)" fill="#55669e"/>
    <path id="Path_145811" data-name="Path 145811" d="M1278.158,383.5v.374c0,.106-.005.208-.014.314v.005a3.28,3.28,0,0,1-3.206,3.034h-16.391a3.3,3.3,0,0,1-3.22-3.353V383.5a3.3,3.3,0,0,1,3.22-3.351h16.391a1.266,1.266,0,0,1,.194.01,3.3,3.3,0,0,1,3.026,3.341" transform="translate(16322 14135)" fill="#8091bc"/>
    <path id="Path_145812" data-name="Path 145812" d="M1277.415,369.49l-6.482,7.909a3.137,3.137,0,0,1-4.534.375l-.281-.249a3.45,3.45,0,0,1-.36-4.717l6.482-7.91a3.143,3.143,0,0,1,4.534-.375l.281.25a3.45,3.45,0,0,1,.36,4.717" transform="translate(16322 14135)" fill="#8091bc"/>
    <path id="Path_145813" data-name="Path 145813" d="M1258.242,367.509a1.944,1.944,0,1,1-1.943-2.021,1.983,1.983,0,0,1,1.943,2.021" transform="translate(16322 14135)" fill="#a8a786"/>
    <path id="Path_145814" data-name="Path 145814" d="M1263.585,367.509a1.944,1.944,0,1,1-1.943-2.021,1.983,1.983,0,0,1,1.943,2.021" transform="translate(16322 14135)" fill="#a8a786"/>
    <path id="Path_145815" data-name="Path 145815" d="M1224.723,390.759a1.944,1.944,0,1,1-1.943-2.021,1.983,1.983,0,0,1,1.943,2.021" transform="translate(16322 14135)" fill="#a8a786"/>
    <path id="Path_145816" data-name="Path 145816" d="M1230.066,390.759a1.944,1.944,0,1,1-1.943-2.021,1.983,1.983,0,0,1,1.943,2.021" transform="translate(16322 14135)" fill="#a8a786"/>
    <path id="Path_145817" data-name="Path 145817" d="M1243.182,383.683a1.944,1.944,0,1,1-1.943-2.021,1.983,1.983,0,0,1,1.943,2.021" transform="translate(16322 14135)" fill="#a8a786"/>
    <path id="Path_145818" data-name="Path 145818" d="M1236.564,392.628c0,.8-.467,1.2-1.4,1.2a1.36,1.36,0,0,1-1.143-.453,2.421,2.421,0,0,1-.367-1.242l.5-.17a1.864,1.864,0,0,0,.225,1.075.94.94,0,0,0,.792.306,1.228,1.228,0,0,0,.65-.133.638.638,0,0,0,.246-.565V389.43l.5-.159Z" transform="translate(16322 14135)" fill="#8091bc"/>
    <path id="Path_145819" data-name="Path 145819" d="M1238.257,392.776h-.556a.643.643,0,0,1-.691-.7v-2.65l.5-.164v2.8a.228.228,0,0,0,.256.262h.493Z" transform="translate(16322 14135)" fill="#8091bc"/>
    <path id="Path_145820" data-name="Path 145820" d="M1240.289,392.776h-.315a.939.939,0,0,1-.728-.289.958.958,0,0,1-.744.289h-.378v-.447h.347c.351,0,.524-.185.524-.556v-1.3l.492-.154v1.473c0,.359.174.539.519.539h.283Zm-1.121.764a.283.283,0,0,1-.273.283.275.275,0,0,1-.267-.283.27.27,0,0,1,.267-.277.279.279,0,0,1,.273.277m.7,0a.283.283,0,0,1-.272.283.279.279,0,0,1-.268-.283.275.275,0,0,1,.268-.277.279.279,0,0,1,.272.277" transform="translate(16322 14135)" fill="#8091bc"/>
    <path id="Path_145821" data-name="Path 145821" d="M1243.675,392.777h-3.511v-.449h2.353v-.2a2.617,2.617,0,0,0-.111-.9.669.669,0,0,0-.691-.458,1.057,1.057,0,0,0-.8.418l-.357-.342a1.593,1.593,0,0,1,1.153-.534,1.131,1.131,0,0,1,1.1.6,2.786,2.786,0,0,1,.209,1.216v.187h.65Zm-1.682-3.229a.275.275,0,1,1-.55,0,.275.275,0,1,1,.55,0" transform="translate(16322 14135)" fill="#8091bc"/>
    <path id="Path_145822" data-name="Path 145822" d="M1244.869,391.811a.954.954,0,0,1-.267.692.97.97,0,0,1-.718.274h-.336v-.458h.31c.34,0,.513-.187.513-.557v-2.34l.5-.152Z" transform="translate(16322 14135)" fill="#8091bc"/>
    <path id="Path_145823" data-name="Path 145823" d="M1245.817,392.776h-.5v-3.353l.5-.164Z" transform="translate(16322 14135)" fill="#8091bc"/>
    <path id="Path_145824" data-name="Path 145824" d="M1251.261,392.777h-.146a.813.813,0,0,1-.818-.47,1.033,1.033,0,0,1-1.6.021,1.412,1.412,0,0,1-.215-.812,1.517,1.517,0,0,1,.152-.725h-.282a.981.981,0,0,0-.572.116.6.6,0,0,0-.167.5v2.272l-.5.152v-2.424a1.083,1.083,0,0,1,.311-.869,1.29,1.29,0,0,1,.833-.222h1.236a.9.9,0,0,1,.8.382,1.439,1.439,0,0,1,.2.816,1.015,1.015,0,0,0,.131.584.57.57,0,0,0,.513.219h.115Zm-1.251-1.261c0-.5-.174-.746-.514-.746s-.514.25-.514.746.174.727.514.727.514-.242.514-.727" transform="translate(16322 14135)" fill="#8091bc"/>
    <path id="Path_145825" data-name="Path 145825" d="M1252.456,391.811a.954.954,0,0,1-.267.692.969.969,0,0,1-.718.274h-.335v-.458h.309c.34,0,.513-.187.513-.557v-2.34l.5-.152Z" transform="translate(16322 14135)" fill="#8091bc"/>
    <path id="Path_145826" data-name="Path 145826" d="M1254.154,392.776h-.555a.645.645,0,0,1-.693-.7v-2.65l.5-.164v2.8a.228.228,0,0,0,.256.262h.493Z" transform="translate(16322 14135)" fill="#8091bc"/>
    <path id="Path_145827" data-name="Path 145827" d="M1256.832,392.776h-2.8v-.458h.581v-.932a1.091,1.091,0,0,1,.278-.757,1.069,1.069,0,0,1,1.52.01l-.373.349a.536.536,0,0,0-.424-.233.5.5,0,0,0-.5.543v1.02h1.346Z" transform="translate(16322 14135)" fill="#8091bc"/>
    <path id="Path_145828" data-name="Path 145828" d="M1260.782,392.776a.856.856,0,0,1-.356.8,1.543,1.543,0,0,1-.933.251,1.33,1.33,0,0,1-1.048-.4,1.393,1.393,0,0,1-.315-.959,2.7,2.7,0,0,1,.21-1.016l.571-.358a3.27,3.27,0,0,0-.309,1.274c0,.627.309,1,.891.992a1.448,1.448,0,0,0,.54-.069.542.542,0,0,0,.345-.509.689.689,0,0,1-.644-.414l.231-.49c.131.342.267.458.6.458h.215Z" transform="translate(16322 14135)" fill="#8091bc"/>
    <path id="Path_145829" data-name="Path 145829" d="M1262.039,391.811a.954.954,0,0,1-.267.692.969.969,0,0,1-.718.274h-.336v-.458h.31c.34,0,.513-.187.513-.557v-2.34l.5-.152Z" transform="translate(16322 14135)" fill="#8091bc"/>
    <path id="Path_145830" data-name="Path 145830" d="M1263.1,393.839h-.864l.11-.19h.151v-.1q0-.375.331-.375a.325.325,0,0,1,.241.114l-.116.151a.163.163,0,0,0-.142-.082c-.083,0-.125.067-.125.192v.1h.414Zm-.115-1.063h-.5v-3.353l.5-.164Z" transform="translate(16322 14135)" fill="#8091bc"/>
    <path id="Path_145831" data-name="Path 145831" d="M1266.414,391.527a1.471,1.471,0,0,1-.22.851,1.086,1.086,0,0,1-1.682,0,1.709,1.709,0,0,1,0-1.695,1.095,1.095,0,0,1,1.682,0,1.46,1.46,0,0,1,.22.844m-1.147-1.979a.284.284,0,0,1-.278.283.278.278,0,0,1-.267-.283.274.274,0,0,1,.267-.277.28.28,0,0,1,.278.277m.66,1.979c0-.535-.194-.8-.576-.8s-.566.265-.566.8.188.813.566.813.576-.272.576-.813m.042-1.979a.27.27,0,1,1-.54,0,.27.27,0,1,1,.54,0" transform="translate(16322 14135)" fill="#8091bc"/>
    <path id="Path_145832" data-name="Path 145832" d="M1269.659,392.777h-2.794l.3-.449h1.289v-1.035a.479.479,0,0,0-.544-.535.786.786,0,0,0-.708.476v-.589a1.067,1.067,0,0,1,.708-.323,1.1,1.1,0,0,1,.749.256.85.85,0,0,1,.288.677v1.064h.713Zm-1.415-3.229a.279.279,0,0,1-.268.283.287.287,0,1,1,.268-.283" transform="translate(16322 14135)" fill="#8091bc"/>
    <path id="Path_145833" data-name="Path 145833" d="M1271.99,391.92a.8.8,0,0,1-.278.688,1.126,1.126,0,0,1-.691.169h-1.494v-.458h1.431a1.228,1.228,0,0,0,.366-.034.319.319,0,0,0,.168-.327h-.707a.865.865,0,0,1-.7-.233.994.994,0,0,1-.168-.639c0-.528.387-.873,1.017-.873a1.1,1.1,0,0,1,.806.278.794.794,0,0,1,.247.6Zm-.5-.817c0-.289-.183-.432-.555-.432-.352,0-.524.143-.524.432,0,.19.026.3.078.353a.721.721,0,0,0,.394.067h.607Zm-.283-1.555a.273.273,0,1,1-.545,0,.273.273,0,1,1,.545,0" transform="translate(16322 14135)" fill="#8091bc"/>
    <path id="Path_145834" data-name="Path 145834" d="M1273.682,392.776h-.556a.644.644,0,0,1-.691-.7v-2.65l.5-.164v2.8a.228.228,0,0,0,.257.262h.492Z" transform="translate(16322 14135)" fill="#8091bc"/>
    <path id="Path_145835" data-name="Path 145835" d="M1274.939,391.812a.947.947,0,0,1-.267.691.965.965,0,0,1-.718.274h-.4v-.449h.377c.346,0,.519-.184.519-.554v-1.3l.492-.151Zm-.314-2.264a.271.271,0,1,1-.272-.289.283.283,0,0,1,.272.289" transform="translate(16322 14135)" fill="#8091bc"/>
  </g>
</svg>
