<svg xmlns="http://www.w3.org/2000/svg" xmlns:xlink="http://www.w3.org/1999/xlink" width="58.416" height="73.873" viewBox="0 0 58.416 73.873">
  <defs>
    <clipPath id="clip-path">
      <path id="Path_141005" data-name="Path 141005" d="M1071.931,593.487a1.027,1.027,0,0,0-.163.013q-3.183.513-6.364,1.025c-1.168.189-.672,2.036.488,1.847l6.366-1.026c1.111-.179.715-1.859-.326-1.859Z" fill="none"/>
    </clipPath>
    <radialGradient id="radial-gradient" cx="1.81" cy="-3.047" r="5.778" gradientTransform="matrix(-0.504, 0.856, 0.817, 0.508, -171.436, 98.731)" gradientUnits="objectBoundingBox">
      <stop offset="0" stop-color="#507e6d"/>
      <stop offset="0.215" stop-color="#507e6d"/>
      <stop offset="0.661" stop-color="#6c5fa8"/>
      <stop offset="0.962" stop-color="#282a66"/>
      <stop offset="1" stop-color="#282a66"/>
    </radialGradient>
    <clipPath id="clip-path-2">
      <path id="Path_141007" data-name="Path 141007" d="M1075.8,559.78c.024,1.4-.028,2.75,1.119,3.726.077.065.159.125.24.184l-4.3.662c-.9.14-.858,1.673,0,1.848q2.344.474,4.689.951l-8.636,1.446c-1.11.186-.7,1.771.244,1.88l10.38,1.218-15.622,2.274c-1.071.156-.738,1.829.245,1.88l16.069.848q-8.5,1.03-17,2.064l-4.016.489a.96.96,0,0,0,0,1.914q13.035.774,26.07,1.548l-26.946,2.834-5.52.58a.96.96,0,0,0,0,1.914q18.22,1.322,36.443,2.637l-8.328,1.344c-1.167.189-.672,2.034.489,1.848q8.151-1.317,16.3-2.63c1.081-.175.726-1.812-.245-1.882q-16.935-1.223-33.871-2.451l27.8-2.92q2.757-.293,5.519-.581a.961.961,0,0,0,0-1.916q-13.563-.8-27.126-1.612l17.407-2.114,4.016-.488a.961.961,0,0,0,0-1.917l-17.4-.914q6.624-.964,13.248-1.931c1.112-.161.691-1.77-.244-1.88l-10.918-1.279q3.556-.6,7.115-1.19c.893-.151.863-1.672,0-1.848l-4.5-.913q.977-.15,1.952-.3a.981.981,0,0,0,.22-1.749c-.724-.355-1.485-.672-2.184-1.077-.982-.567-.851-1.481-.868-2.495a.907.907,0,0,0-.938-.925.867.867,0,0,0-.9.925" fill="none"/>
    </clipPath>
    <radialGradient id="radial-gradient-2" cx="0.616" cy="0.22" r="0.842" gradientTransform="matrix(-0.527, 0.856, 0.855, 0.508, -26.519, 14.952)" xlink:href="#radial-gradient"/>
    <clipPath id="clip-path-3">
      <path id="Path_141009" data-name="Path 141009" d="M1098.188,596.642a27.738,27.738,0,0,1-10.607,8.811,1.3,1.3,0,0,0-.615,1.688,1.225,1.225,0,0,0,1.12.752,1.186,1.186,0,0,0,.5-.112,30.227,30.227,0,0,0,11.557-9.6,1.311,1.311,0,0,0-.239-1.788,1.2,1.2,0,0,0-.74-.259,1.208,1.208,0,0,0-.979.508" fill="none"/>
    </clipPath>
    <radialGradient id="radial-gradient-3" cx="0.102" cy="-1.444" r="2.701" gradientTransform="matrix(-0.531, 0.856, 0.862, 0.508, -86.944, 48.799)" xlink:href="#radial-gradient"/>
    <clipPath id="clip-path-4">
      <path id="Path_141011" data-name="Path 141011" d="M1101.476,590.773c-.228.55-.477,1.1-.738,1.636a1.3,1.3,0,0,0,.534,1.716,1.172,1.172,0,0,0,.556.141,1.221,1.221,0,0,0,1.095-.7c.286-.584.558-1.184.806-1.784a1.3,1.3,0,0,0-.64-1.678,1.164,1.164,0,0,0-.485-.106,1.228,1.228,0,0,0-1.128.771" fill="none"/>
    </clipPath>
    <radialGradient id="radial-gradient-4" cx="-2.019" cy="-4.498" r="8.767" gradientTransform="matrix(-0.543, 0.856, 0.881, 0.508, -294.191, 163.359)" xlink:href="#radial-gradient"/>
    <clipPath id="clip-path-5">
      <path id="Path_141013" data-name="Path 141013" d="M1091.243,554.079a1.3,1.3,0,0,0,.334,1.769,28.5,28.5,0,0,1,11,15.53,1.216,1.216,0,0,0,1.526.86,1.288,1.288,0,0,0,.826-1.589,31.043,31.043,0,0,0-11.987-16.921,1.194,1.194,0,0,0-.683-.216,1.211,1.211,0,0,0-1.019.567" fill="none"/>
    </clipPath>
    <radialGradient id="radial-gradient-5" cx="0.04" cy="0.237" r="2.074" gradientTransform="matrix(-0.547, 0.856, 0.887, 0.508, -70.513, 39.038)" xlink:href="#radial-gradient"/>
    <clipPath id="clip-path-6">
      <path id="Path_141015" data-name="Path 141015" d="M1050.887,563.393a32.373,32.373,0,0,0-3.881,21.554,31.264,31.264,0,0,0,11.108,19.139,29.4,29.4,0,0,0,7.047,4.192,28.958,28.958,0,0,0,3.933,1.317l.383.1a12.756,12.756,0,0,0,3.215.545,5.425,5.425,0,0,0,1.612-.232c3.515-1.1,3.514-4.7,3.512-7.085v-9.369a1.228,1.228,0,1,0-2.454,0v9.371c0,2.542-.118,4.123-1.763,4.637a6.9,6.9,0,0,1-3.523-.343l-.4-.1a26.438,26.438,0,0,1-3.6-1.209,26.869,26.869,0,0,1-6.464-3.845,28.661,28.661,0,0,1-10.187-17.546,29.33,29.33,0,0,1,3.559-19.8,1.308,1.308,0,0,0-.411-1.754,1.182,1.182,0,0,0-.637-.185,1.219,1.219,0,0,0-1.049.612" fill="none"/>
    </clipPath>
    <radialGradient id="radial-gradient-6" cx="0.81" cy="0.083" r="0.86" gradientTransform="matrix(-0.551, 0.856, 0.894, 0.508, -28.265, 15.591)" xlink:href="#radial-gradient"/>
  </defs>
  <g id="Client_65" transform="translate(-17368.566 -14688.512)">
    <path id="Path_140996" data-name="Path 140996" d="M1070.21,625.613a3.467,3.467,0,1,1,3.329-3.464,3.4,3.4,0,0,1-3.329,3.464m0-5.784a2.323,2.323,0,1,0,2.23,2.32,2.279,2.279,0,0,0-2.23-2.32" transform="translate(16322 14135)" fill="#423d7f"/>
    <path id="Path_140997" data-name="Path 140997" d="M1075.769,625.613a3.4,3.4,0,0,1-3.329-3.464.55.55,0,1,1,1.1,0,2.232,2.232,0,1,0,4.46,0v-2.433a.55.55,0,1,1,1.1,0v2.433a3.4,3.4,0,0,1-3.329,3.464" transform="translate(16322 14135)" fill="#423d7f"/>
    <path id="Path_140998" data-name="Path 140998" d="M1075.769,625.613a3.4,3.4,0,0,1-3.329-3.464.55.55,0,1,1,1.1,0,2.232,2.232,0,1,0,4.46,0v-2.433a.55.55,0,1,1,1.1,0v2.433a3.4,3.4,0,0,1-3.329,3.464" transform="translate(16322 14135)" fill="#423d7f"/>
    <path id="Path_140999" data-name="Path 140999" d="M1084.669,619.719a.555.555,0,1,1-.555-.576.567.567,0,0,1,.555.576" transform="translate(16322 14135)" fill="#423d7f"/>
    <path id="Path_141000" data-name="Path 141000" d="M1070.21,618.685a3.4,3.4,0,0,1,3.329,3.464.55.55,0,1,1-1.1,0,2.232,2.232,0,1,0-4.46,0v2.892a.55.55,0,1,1-1.1,0v-2.892a3.4,3.4,0,0,1,3.329-3.464" transform="translate(16322 14135)" fill="#423d7f"/>
    <path id="Path_141001" data-name="Path 141001" d="M1078.266,626.808a.555.555,0,1,1-.555-.577.566.566,0,0,1,.555.577" transform="translate(16322 14135)" fill="#423d7f"/>
    <path id="Path_141002" data-name="Path 141002" d="M1079.951,626.808a.555.555,0,1,1-.554-.577.566.566,0,0,1,.554.577" transform="translate(16322 14135)" fill="#423d7f"/>
    <path id="Path_141003" data-name="Path 141003" d="M1084.063,620.747a.588.588,0,0,0-.493.6v.726a2.338,2.338,0,0,1-2.077,2.391,2.176,2.176,0,0,1-1.647-.6.49.49,0,0,0-.771.154,4.021,4.021,0,0,1-.241.4,3.267,3.267,0,0,0,2.611,1.188,3.468,3.468,0,0,0,3.224-3.555v-.742a.558.558,0,0,0-.606-.568" transform="translate(16322 14135)" fill="#423d7f"/>
    <g id="Group_120884" data-name="Group 120884" transform="translate(16322 14135)">
      <g id="Group_120883" data-name="Group 120883" clip-path="url(#clip-path)">
        <path id="Path_141004" data-name="Path 141004" d="M1074.666,594.287l-3.675,6.444-8.052-4.97,3.675-6.444Z" fill="url(#radial-gradient)"/>
      </g>
    </g>
    <g id="Group_120886" data-name="Group 120886" transform="translate(16322 14135)">
      <g id="Group_120885" data-name="Group 120885" clip-path="url(#clip-path-2)">
        <path id="Path_141006" data-name="Path 141006" d="M1113.65,568.02,1086.518,615.6l-49.747-30.709,27.132-47.579Z" fill="url(#radial-gradient-2)"/>
      </g>
    </g>
    <g id="Group_120888" data-name="Group 120888" transform="translate(16322 14135)">
      <g id="Group_120887" data-name="Group 120887" clip-path="url(#clip-path-3)">
        <path id="Path_141008" data-name="Path 141008" d="M1105.514,599.2l-8.57,15.028-15.215-9.393,8.57-15.028Z" fill="url(#radial-gradient-3)"/>
      </g>
    </g>
    <g id="Group_120890" data-name="Group 120890" transform="translate(16322 14135)">
      <g id="Group_120889" data-name="Group 120889" clip-path="url(#clip-path-4)">
        <path id="Path_141010" data-name="Path 141010" d="M1105.8,591.112l-2.728,4.783-4.438-2.74,2.728-4.783Z" fill="url(#radial-gradient-4)"/>
      </g>
    </g>
    <g id="Group_120892" data-name="Group 120892" transform="translate(16322 14135)">
      <g id="Group_120891" data-name="Group 120891" clip-path="url(#clip-path-5)">
        <path id="Path_141012" data-name="Path 141012" d="M1113.045,558.4l-11.633,20.4-18.468-11.4,11.633-20.4Z" fill="url(#radial-gradient-5)"/>
      </g>
    </g>
    <g id="Group_120894" data-name="Group 120894" transform="translate(16322 14135)">
      <g id="Group_120893" data-name="Group 120893" clip-path="url(#clip-path-6)">
        <path id="Path_141014" data-name="Path 141014" d="M1097.836,575.138l-28.36,49.733-43.718-26.988,28.36-49.733Z" fill="url(#radial-gradient-6)"/>
      </g>
    </g>
  </g>
</svg>
