<svg xmlns="http://www.w3.org/2000/svg" width="140.016" height="60.268" viewBox="0 0 140.016 60.268">
  <g id="Client_13" transform="translate(-16971.709 -14262.746)">
    <rect id="Rectangle_17604" data-name="Rectangle 17604" width="0.343" height="53.977" transform="translate(17020.707 14267.775)" fill="#656a6d"/>
    <path id="Path_144679" data-name="Path 144679" d="M788.906,174.541a1.58,1.58,0,0,0-1.569-.01.453.453,0,0,0-.813.132c-.022.54.016,1.106-.011,1.668a.424.424,0,0,1-.379.442h-3a.414.414,0,0,1-.361-.452,3.577,3.577,0,0,1,.033-.888c.139-.271.467-.236.707-.236.195.016.423-.035.6.091.228.174.094.545.323.707a.428.428,0,0,0,.679-.237,1.29,1.29,0,0,0-1.208-1.435,3.635,3.635,0,0,0-1.153.068,1.37,1.37,0,0,0-.829,1.21,3.231,3.231,0,0,0,.05,1.172h-1.653a.535.535,0,0,1-.557-.222c-.134-.392.039-.846-.1-1.245-.228-.226-.657-.028-.78.221-.039.632,0,1.261-.022,1.905a1.188,1.188,0,0,1-.8,1.089c-.212.047-.484.013-.618.221a.447.447,0,0,0,.334.694,1.965,1.965,0,0,0,1.915-1.829,5.95,5.95,0,0,0,.624.056h5.817a1.454,1.454,0,0,0,.913-.421,1.568,1.568,0,0,0,1.219.4,1.615,1.615,0,0,0,1.448-1.483,1.7,1.7,0,0,0-.808-1.622m-.072,1.662a.743.743,0,0,1-1.253.342.8.8,0,0,1,.329-1.307.764.764,0,0,1,.924.965m-12.62-1.753a1.693,1.693,0,0,0-.885-.127c-.607.01-1.22-.006-1.843.01a1.683,1.683,0,0,0-1.559,1.443c-.039.555.006,1.111-.016,1.663a.756.756,0,0,1-.858.705.776.776,0,0,1-.646-.857c.017-.29.318-.5.229-.776a.41.41,0,0,0-.679-.23,1.719,1.719,0,0,0-.034,2.166,1.6,1.6,0,0,0,2.021.381,1.758,1.758,0,0,0,.807-1.165h4.192v-2.054a1.272,1.272,0,0,0-.729-1.159m-.117,2.323h-3.34c.016-.32-.017-.651.027-.975a.855.855,0,0,1,.863-.6h1.993a.432.432,0,0,1,.457.393c.022.4,0,.781,0,1.177m-8.345-4.785a.47.47,0,0,0-.2.427V177.2a.436.436,0,0,0,.6.432.489.489,0,0,0,.262-.508v-4.786a.437.437,0,0,0-.657-.346m-1.62-.059a.443.443,0,0,0-.479.5v3.894a.408.408,0,0,1-.378.445l-1.765.007a.4.4,0,0,1-.406-.378c-.023-.342.022-.678-.023-1-.05-.214-.312-.214-.478-.155-.139.074-.346.174-.346.363-.011.6.012,1.211-.005,1.831a1.215,1.215,0,0,1-.663,1.037c-.228.127-.518.028-.707.214a.448.448,0,0,0,.256.753,1.958,1.958,0,0,0,1.943-1.829,17.884,17.884,0,0,0,2.283.039A1.28,1.28,0,0,0,766.5,176.4v-3.98a.447.447,0,0,0-.367-.486m-5.8,2.811a.418.418,0,0,0-.835-.006c-.028.55.017,1.111-.016,1.661a.4.4,0,0,1-.407.378h-5.689a.44.44,0,0,1-.457-.452c0-1.332.022-2.659,0-3.975a.425.425,0,0,0-.6-.382.448.448,0,0,0-.24.451v3.916a1.337,1.337,0,0,0,.623,1.154,2.219,2.219,0,0,0,1.192.178c.367-.023,5.049.024,5.433-.029a1.343,1.343,0,0,0,1.008-1.3Zm-10.232-.407c-.54-.016-1.069,0-1.609-.01a3.1,3.1,0,0,0-1.258.137,1.653,1.653,0,0,0-1.007,1.373c-.034.534.005,1.073-.017,1.606a.792.792,0,0,1-.4.625.757.757,0,0,1-1.092-.532c-.1-.309.129-.564.234-.841a.427.427,0,0,0-.7-.41,1.706,1.706,0,0,0-.022,2.166,1.562,1.562,0,0,0,1.921.433,1.757,1.757,0,0,0,.885-1.217h4.2v-2.054a1.288,1.288,0,0,0-1.141-1.276m.295,2.44h-3.335a4.955,4.955,0,0,1,.045-1.027.859.859,0,0,1,.852-.543h1.993a.432.432,0,0,1,.445.393Zm-7.632-4.439a.431.431,0,0,0-.6-.376.5.5,0,0,0-.256.457l.006,4.79a.417.417,0,0,0,.668.373.586.586,0,0,0,.189-.544c-.022-1.566,0-3.123-.011-4.7m-2.054-.311a.431.431,0,0,0-.7.311v3.911a.552.552,0,0,1-.128.417c-.173.173-.423.1-.635.111-.256,0-.607.046-.735-.234a5.3,5.3,0,0,1-.033-.93,1.306,1.306,0,0,0-.83-1.195,3.236,3.236,0,0,0-1.152-.081,1.292,1.292,0,0,0-1.219,1.425.43.43,0,0,0,.679.237c.229-.162.1-.527.329-.7.161-.128.4-.069.595-.1.245.006.563-.035.7.236a3.388,3.388,0,0,1,.056.888.42.42,0,0,1-.379.445c-.534.022-1.068-.006-1.592.018a.425.425,0,0,0-.384.5.437.437,0,0,0,.445.376h1.542a1.406,1.406,0,0,0,.78-.312,1.593,1.593,0,0,0,.807.312,5.585,5.585,0,0,0,1.086-.056,1.329,1.329,0,0,0,.923-1.286v-3.807c0-.18,0-.382-.155-.491m-6.419,3.433a1.636,1.636,0,0,0-.974-1.042,1.564,1.564,0,0,0-1.587.326,1.685,1.685,0,0,0-.54,1.5,1.661,1.661,0,0,0,1.064,1.321,1.733,1.733,0,0,0,1.264-.071,1.391,1.391,0,0,1-1.354.743c-.423.062-.417.8,0,.85a2.109,2.109,0,0,0,2.066-1.112,3.27,3.27,0,0,0,.156-1.332,4.021,4.021,0,0,0-.095-1.188m-1.508,1.317a.765.765,0,0,1-.763-.772.787.787,0,0,1,.557-.763.753.753,0,0,1,.946.682.766.766,0,0,1-.74.853m-2.951-4.831a.429.429,0,0,0-.34.485v3.9a.42.42,0,0,1-.362.435h-.679a.394.394,0,0,1-.334-.3,8.05,8.05,0,0,1-.016-1.1,2.741,2.741,0,0,0-.051-.655,1.212,1.212,0,0,0-1.146-.9h-2.121a.817.817,0,0,0-.713.389,1,1,0,0,0-.156.589l.006.591a.846.846,0,0,0,.79.822l.947.006-.011.286a.4.4,0,0,1-.39.278h-2.205a.422.422,0,0,1-.467-.378c-.034-.578.028-1.157-.017-1.732a.424.424,0,0,0-.8-.081,6.756,6.756,0,0,0-.045,1.019,3.589,3.589,0,0,0,.133,1.332,1.276,1.276,0,0,0,1.125.73h2.294a1.275,1.275,0,0,0,1.113-.73,1.477,1.477,0,0,0,.145-.59c0-.261-.017-.742,0-1-.663-.029-1.108-.006-1.759-.006v-.649c.69.035,1.519-.006,2.215.035.2.04.251.214.268.4.005.158-.017.834-.012.962a1.418,1.418,0,0,0,.54,1.332c.4.326.8.232,1.286.249a1.292,1.292,0,0,0,1.164-.776,2.037,2.037,0,0,0,.1-.8v-3.748a.41.41,0,0,0-.5-.392M707.64,175.2c-.005-.245.067-.585-.178-.737a.421.421,0,0,0-.662.268c-.034.572.016,1.157-.012,1.73a.444.444,0,0,1-.423.371h-2.143a.432.432,0,0,1-.451-.423c-.017-.543.011-1.077-.005-1.6a.421.421,0,1,0-.841,0v1.18a2,2,0,0,0,.128.992,1.266,1.266,0,0,0,1.163.734h2.161a1.293,1.293,0,0,0,1.241-1.054c.067-.474,0-.966.022-1.464m12.793-3.187a.416.416,0,0,0-.573.4l-.006,4a.419.419,0,0,1-.418.423,3.655,3.655,0,0,1-.768-.023.442.442,0,0,1-.278-.481v-3.742a.679.679,0,0,0-.112-.469.433.433,0,0,0-.734.382V176.4a.43.43,0,0,1-.407.44h-.807a.407.407,0,0,1-.2-.029h-.045a.4.4,0,0,1-.228-.2,6.75,6.75,0,0,1-.045-.929,1.323,1.323,0,0,0-.818-1.21,2.507,2.507,0,0,0-.88-.081h-.2c.557-.579.8-.834,1.626-1.686a.447.447,0,0,0-.151-.7.439.439,0,0,0-.5.122L712.6,174.5a.452.452,0,0,0,.218.764l.088.013,1.314-.013c.24,0,.568-.027.7.244a1.914,1.914,0,0,1,.044.208v.672a.458.458,0,0,1-.245.446h-2.578a.432.432,0,0,1-.472-.423c-.023-.567.022-1.124-.011-1.672a.42.42,0,0,0-.808-.077c-.078.6,0,1.2-.044,1.8a.405.405,0,0,1-.356.371h-.724a.429.429,0,0,1-.4-.423l0-4a.422.422,0,0,0-.64-.365.466.466,0,0,0-.206.452V176.4a1.288,1.288,0,0,0,1.158,1.314,6.592,6.592,0,0,0,.707.012,1.425,1.425,0,0,0,.9-.311,1.779,1.779,0,0,0,1.2.324h2.16a1.35,1.35,0,0,0,.779-.314,1.6,1.6,0,0,0,.824.314h.289v-.013c.624-.027.958.116,1.47-.311a1.385,1.385,0,0,0,.857.311,2.458,2.458,0,0,0,1.209-.155,1.347,1.347,0,0,0,.673-1.171V172.5a.445.445,0,0,0-.267-.486" transform="translate(16322 14135)" fill="#00684b" fill-rule="evenodd"/>
    <path id="Path_144680" data-name="Path 144680" d="M711.954,171.981a.584.584,0,0,0-.573.586.574.574,0,1,0,1.147,0,.584.584,0,0,0-.574-.586m-1.391,0a.585.585,0,0,0-.58.586.578.578,0,0,0,.58.592.57.57,0,0,0,.562-.592.578.578,0,0,0-.562-.586m-5.172,6.163a.6.6,0,1,0,.568.6.589.589,0,0,0-.568-.6m18.861.019a.6.6,0,1,0,.573.6.59.59,0,0,0-.573-.6m1.408,0a.6.6,0,1,0,.563.6.587.587,0,0,0-.563-.6m23.325-6.182a.573.573,0,0,0-.573.586.568.568,0,1,0,1.136,0,.574.574,0,0,0-.563-.586m6.458,6.182a.6.6,0,1,0,.574.6.585.585,0,0,0-.574-.6m1.4,0a.6.6,0,1,0,.574.6.586.586,0,0,0-.574-.6m17.614-6.182a.576.576,0,0,0-.573.586.568.568,0,1,0,.573-.586" transform="translate(16322 14135)" fill="#656a6d" fill-rule="evenodd"/>
    <path id="Path_144681" data-name="Path 144681" d="M714.255,150.658l-.334,1.456-2-.408.342-1.471Z" transform="translate(16322 14135)" fill="#656a6d" fill-rule="evenodd"/>
    <path id="Path_144682" data-name="Path 144682" d="M714.729,148.695l-.343,1.456-1.994-.4.339-1.475Z" transform="translate(16322 14135)" fill="#656a6d" fill-rule="evenodd"/>
    <path id="Path_144683" data-name="Path 144683" d="M733.023,165.1a.41.41,0,0,1-.121.3.376.376,0,0,1-.324.133h-2.769v-.583a1.9,1.9,0,0,1,.59-1.439,4.215,4.215,0,0,1,1.1-.7c.4-.184.6-.349.6-.49a.489.489,0,0,0-.377-.513.829.829,0,0,0-.27-.031,1.627,1.627,0,0,0-.65.133,1.581,1.581,0,0,1-.163.022.344.344,0,0,1-.291-.151.429.429,0,0,1-.115-.316.4.4,0,0,1,.295-.4,2.6,2.6,0,0,1,.916-.179,1.458,1.458,0,0,1,1.061.369,1.391,1.391,0,0,1,.441,1.1,1.11,1.11,0,0,1-.6.926c-.351.193-.715.378-1.069.563-.39.238-.583.5-.583.787h1.875a.488.488,0,0,1,.346.141.482.482,0,0,1,.1.312" transform="translate(16322 14135)" fill="#656a6d" fill-rule="evenodd"/>
    <path id="Path_144684" data-name="Path 144684" d="M736.2,163.24a2.71,2.71,0,0,0-.141-1.055.781.781,0,0,0-.8-.44.8.8,0,0,0-.8.44,3.243,3.243,0,0,0-.119,1.055,3.184,3.184,0,0,0,.119,1.042.8.8,0,0,0,.8.455.784.784,0,0,0,.8-.455,2.612,2.612,0,0,0,.141-1.042m.848,0a3.275,3.275,0,0,1-.355,1.685,1.552,1.552,0,0,1-1.43.693c-1.185,0-1.771-.8-1.771-2.378s.586-2.382,1.771-2.382,1.785.808,1.785,2.382" transform="translate(16322 14135)" fill="#656a6d" fill-rule="evenodd"/>
    <path id="Path_144685" data-name="Path 144685" d="M739.27,165.1a.423.423,0,0,1-.133.329.454.454,0,0,1-.6,0,.408.408,0,0,1-.124-.329v-2.991a.476.476,0,0,1-.252.079.428.428,0,0,1-.326-.154.474.474,0,0,1-.136-.319.455.455,0,0,1,.291-.429l.513-.274a.6.6,0,0,1,.33-.088.4.4,0,0,1,.3.119.3.3,0,0,1,.133.243Z" transform="translate(16322 14135)" fill="#656a6d" fill-rule="evenodd"/>
    <path id="Path_144686" data-name="Path 144686" d="M746.168,143.112a14.8,14.8,0,0,1,3.932-2.04,14.507,14.507,0,0,1,6.128-.578,50.3,50.3,0,0,1,8.024,1.8c2.533.663,5.1,1.255,7.681,1.725a40.85,40.85,0,0,0,6.265.744l.864,0,2.375,9.991c.086.374.184.742.266,1.121a7.24,7.24,0,0,1-2.992.6,34.065,34.065,0,0,1-6.188-.583c-3.3-.546-6.547-1.322-9.786-2.171a29.134,29.134,0,0,0-7.672-1.489,12.9,12.9,0,0,0-6.145,1.311,14.61,14.61,0,0,0-2.722,1.7,14.2,14.2,0,0,0-2.366-1.67,12.625,12.625,0,0,0-5.17-1.316,21.366,21.366,0,0,0-6.444.813c-1.438.4-2.867.842-4.327,1.18-2.126.534-4.266,1.019-6.418,1.422l.564-2.393c2.8-.57,5.581-1.263,8.329-2.02a38.917,38.917,0,0,1,5.562-1.211,14.619,14.619,0,0,1,6.072.383,13.17,13.17,0,0,1,4.2,2.194v-6.944c-.005.007-.017.021-.03.021Zm2.067,1.175v7.07a12.667,12.667,0,0,1,2.516-.943,16.8,16.8,0,0,1,8.442.054c2.547.56,5.016,1.348,7.537,1.931,2.511.607,5.027,1.136,7.569,1.51a27.711,27.711,0,0,0,4.84.353l.086,0-1.737-7.3a34.592,34.592,0,0,1-4.417-.469c-2.216-.334-4.42-.792-6.615-1.312-1.678-.411-3.364-.811-5.016-1.319a20.729,20.729,0,0,0-9.178-.927,12.633,12.633,0,0,0-4.027,1.354" transform="translate(16322 14135)" fill="#00684b" fill-rule="evenodd"/>
    <path id="Path_144687" data-name="Path 144687" d="M713.809,152.528l-.4,1.729.287.017c.517.009,1.031,0,1.557-.036a14.2,14.2,0,0,0,1.537-.143v.024c.954-.108,1.912-.24,2.862-.414.013,0,.505-.08.6-.085h.009l-.573,2.354a40.586,40.586,0,0,1-4.4.478c-.441.025-.895.025-1.352.025a7.214,7.214,0,0,1-2.988-.6c.077-.379.343-1.494.432-1.867l.42-1.835Z" transform="translate(16322 14135)" fill="#00684b" fill-rule="evenodd"/>
    <path id="Path_144688" data-name="Path 144688" d="M712.824,147.884l.754-3.121.868.006c.762-.01,1.516-.076,2.264-.156.782-.082,1.54-.2,2.345-.322a105.579,105.579,0,0,0,11.228-2.547,38.437,38.437,0,0,1,6.176-1.273,14.487,14.487,0,0,1,5.481.459,12.377,12.377,0,0,1,2.64,1.126v2.473a11.968,11.968,0,0,0-1.93-.946,13.423,13.423,0,0,0-4.766-.849,23.5,23.5,0,0,0-6.043.921c-1.425.4-2.837.819-4.274,1.166a84.578,84.578,0,0,1-9.732,1.907v.016c-.894.108-1.792.193-2.687.213l-.326,1.35Z" transform="translate(16322 14135)" fill="#00684b" fill-rule="evenodd"/>
    <path id="Path_144689" data-name="Path 144689" d="M779.726,167.189c-.33.031-.681.041-1.015.06a36.216,36.216,0,0,1-6.187-.563c-3.282-.557-6.547-1.321-9.782-2.189a28.634,28.634,0,0,0-7.673-1.475,13.181,13.181,0,0,0-6.149,1.311,14.191,14.191,0,0,0-2.644,1.745.147.147,0,0,0-.073.04V163.5c.03-.009.046-.023.073-.033a14.208,14.208,0,0,1,4.484-2.275,16.9,16.9,0,0,1,8.456.055c2.524.573,4.993,1.361,7.519,1.94,2.507.587,5.023,1.126,7.565,1.5a26.814,26.814,0,0,0,4.848.359l.069,0c.15.6.4,1.542.509,2.146" transform="translate(16322 14135)" fill="#00684b" fill-rule="evenodd"/>
    <path id="Path_144690" data-name="Path 144690" d="M746.228,127.747l5.357,5.6-5.336,5.619-5.361-5.6Z" transform="translate(16322 14135)" fill="#656a6d" fill-rule="evenodd"/>
    <path id="Path_144691" data-name="Path 144691" d="M746.228,127.747l5.357,5.6-5.336,5.619-5.361-5.6Z" transform="translate(16322 14135)" fill="none" stroke="#acb1b4" stroke-linecap="round" stroke-linejoin="round" stroke-width="0"/>
    <path id="Path_144692" data-name="Path 144692" d="M711.691,161.593l.488-2.062a5.767,5.767,0,0,0,1.27.152,28.461,28.461,0,0,0,5.7-.464,104.323,104.323,0,0,0,11.211-2.546,36.359,36.359,0,0,1,6.188-1.276,14.4,14.4,0,0,1,5.473.458,13.348,13.348,0,0,1,4.2,2.2,15.106,15.106,0,0,1,3.954-2.048,14.456,14.456,0,0,1,6.132-.6,53.745,53.745,0,0,1,8.028,1.8c2.541.673,5.1,1.261,7.677,1.741a40.557,40.557,0,0,0,6.248.745,11.946,11.946,0,0,0,1.787-.077l.5,2.083a10.861,10.861,0,0,1-1.3.165,29.929,29.929,0,0,1-6.1-.444c-2.217-.348-4.416-.81-6.616-1.332-1.673-.395-3.363-.81-5.015-1.3a20.459,20.459,0,0,0-9.171-.924,12.8,12.8,0,0,0-6.127,2.8,12.046,12.046,0,0,0-3.5-2.169,13.337,13.337,0,0,0-4.759-.842,22.95,22.95,0,0,0-6.038.922c-1.421.407-2.841.816-4.275,1.162a75.32,75.32,0,0,1-11.472,2.084,21.183,21.183,0,0,1-3.013.037,7.468,7.468,0,0,1-1.472-.268" transform="translate(16322 14135)" fill="#00684b" fill-rule="evenodd"/>
    <path id="Path_144693" data-name="Path 144693" d="M706.472,183.886a1.558,1.558,0,0,1-.262.9,1.157,1.157,0,0,1-.718.5l.749.8a.45.45,0,0,1,.111.285.413.413,0,0,1-.124.294.424.424,0,0,1-.283.129.412.412,0,0,1-.287-.129l-1.848-2.016v1.722a.4.4,0,0,1-.111.312.393.393,0,0,1-.278.111.379.379,0,0,1-.279-.111.387.387,0,0,1-.119-.312V182.48h2.126a1.243,1.243,0,0,1,.959.414,1.418,1.418,0,0,1,.364.992m-.788,0a.547.547,0,0,0-.192-.418.661.661,0,0,0-.436-.159H703.81v1.24h1.168a.866.866,0,0,0,.514-.124.69.69,0,0,0,.192-.539" transform="translate(16322 14135)" fill="#656a6d"/>
    <path id="Path_144694" data-name="Path 144694" d="M707.815,182.713a.48.48,0,0,1-.115.3.465.465,0,0,1-.291.117.392.392,0,0,1-.279-.117.438.438,0,0,1-.115-.3.376.376,0,0,1,.115-.294.36.36,0,0,1,.279-.125.421.421,0,0,1,.291.125.406.406,0,0,1,.115.294m0,3.653a.428.428,0,0,1-.115.312.5.5,0,0,1-.291.1.389.389,0,0,1-.266-.1.365.365,0,0,1-.128-.312v-2.582a.393.393,0,0,1,.128-.314.44.44,0,0,1,.266-.1.507.507,0,0,1,.291.111.419.419,0,0,1,.115.3Z" transform="translate(16322 14135)" fill="#656a6d"/>
    <path id="Path_144695" data-name="Path 144695" d="M711.671,183.762a.881.881,0,0,1-.021.169L710.2,187.76a.353.353,0,0,1-.359.254.433.433,0,0,1-.287-.1.339.339,0,0,1-.129-.276.317.317,0,0,1,.043-.183l.141-.32c0-.035-.419-1.1-1.232-3.2a.581.581,0,0,1-.043-.169.4.4,0,0,1,.12-.294.437.437,0,0,1,.282-.106.376.376,0,0,1,.372.254l.582,1.456a9.255,9.255,0,0,1,.338,1.049c.073-.3.18-.64.321-1.042l.557-1.451a.367.367,0,0,1,.355-.266.393.393,0,0,1,.291.106.428.428,0,0,1,.124.294" transform="translate(16322 14135)" fill="#656a6d"/>
    <path id="Path_144696" data-name="Path 144696" d="M714.675,186.79h-1.793a1.23,1.23,0,0,1-.882-.32,1.206,1.206,0,0,1-.329-.9,1.119,1.119,0,0,1,.427-.962,1.576,1.576,0,0,1,.976-.3,1.092,1.092,0,0,1,.433.124.767.767,0,0,1,.355.355l.013-.145a.509.509,0,0,0-.429-.554c-.021,0-.115-.013-.295-.03a.478.478,0,0,1-.278-.093.411.411,0,0,1-.162-.349c0-.254.171-.379.509-.379a1.539,1.539,0,0,1,1.006.318,1.113,1.113,0,0,1,.449.953Zm-.8-.833v-.314a.447.447,0,0,0-.274-.412,1.052,1.052,0,0,0-.515-.128c-.415,0-.619.152-.619.462,0,.267.171.392.513.392Z" transform="translate(16322 14135)" fill="#656a6d"/>
    <path id="Path_144697" data-name="Path 144697" d="M717.961,186.367a.383.383,0,0,1-.123.3.4.4,0,0,1-.275.108l-.129-.015c-.072-.021-.14-.124-.192-.283-.068.125-.136.214-.231.234a1.242,1.242,0,0,1-.376.064,1.366,1.366,0,0,1-1.306-.762,1.966,1.966,0,0,1-.226-.887,2.023,2.023,0,0,1,.467-1.312,1.275,1.275,0,0,1,1.039-.487,1.226,1.226,0,0,1,.338.054.435.435,0,0,1,.214.3v-.672a.4.4,0,0,1,.12-.3.419.419,0,0,1,.557,0,.394.394,0,0,1,.123.3Zm-.8-.936v-.837c0-.289-.162-.432-.5-.432a.575.575,0,0,0-.488.2,1.215,1.215,0,0,0-.266.783.918.918,0,0,0,.167.56.676.676,0,0,0,.557.247.523.523,0,0,0,.3-.129.451.451,0,0,0,.227-.389" transform="translate(16322 14135)" fill="#656a6d"/>
    <path id="Path_144698" data-name="Path 144698" d="M721.29,184.679v1.687a.373.373,0,0,1-.12.312.4.4,0,0,1-.269.1.416.416,0,0,1-.282-.1.41.41,0,0,1-.116-.312v-1.7a.414.414,0,0,0-.146-.325.668.668,0,0,0-.372-.11.684.684,0,0,0-.415.137.374.374,0,0,0-.172.338v1.661a.432.432,0,0,1-.119.312.467.467,0,0,1-.283.1.413.413,0,0,1-.273-.1.37.37,0,0,1-.12-.312v-3.472a.351.351,0,0,1,.12-.3.394.394,0,0,1,.273-.111.445.445,0,0,1,.283.111.408.408,0,0,1,.119.3v.867a.661.661,0,0,1,.6-.347,1.275,1.275,0,0,1,.89.322,1.167,1.167,0,0,1,.4.943" transform="translate(16322 14135)" fill="#656a6d"/>
    <path id="Path_144699" data-name="Path 144699" d="M724.512,186.366a.386.386,0,0,1-.119.312.416.416,0,0,1-.269.1.432.432,0,0,1-.283-.1.4.4,0,0,1-.111-.312v-3.472a.387.387,0,0,1,.111-.3.4.4,0,0,1,.283-.113.387.387,0,0,1,.269.113.378.378,0,0,1,.119.3Z" transform="translate(16322 14135)" fill="#656a6d"/>
    <path id="Path_144700" data-name="Path 144700" d="M728.235,186.366a.4.4,0,0,1-.115.312.443.443,0,0,1-.556,0,.413.413,0,0,1-.116-.312V184.6a.407.407,0,0,0-.462-.454H726v2.217a.4.4,0,0,1-.119.312.425.425,0,0,1-.278.1.4.4,0,0,1-.265-.1.387.387,0,0,1-.125-.312v-3.05h1.772a1.21,1.21,0,0,1,.907.362,1.268,1.268,0,0,1,.342.925Z" transform="translate(16322 14135)" fill="#656a6d"/>
    <path id="Path_144701" data-name="Path 144701" d="M730.875,186.384c0,.3-.244.454-.744.454-.668,0-1.01-.392-1.01-1.158v-1.49a.308.308,0,0,1-.252-.117.485.485,0,0,1-.108-.293c0-.063.069-.129.194-.209s.166-.144.166-.209v-.331a.349.349,0,0,1,.124-.3.353.353,0,0,1,.278-.121.332.332,0,0,1,.278.121.345.345,0,0,1,.116.3v.331h.569a.384.384,0,0,1,.291.121.409.409,0,0,1,.1.288.4.4,0,0,1-.1.29.355.355,0,0,1-.291.129h-.569v1.566a.407.407,0,0,0,.042.2c.022.029.077.054.185.054a.8.8,0,0,0,.171-.025l.171-.02a.364.364,0,0,1,.274.134.412.412,0,0,1,.115.285" transform="translate(16322 14135)" fill="#656a6d"/>
    <path id="Path_144702" data-name="Path 144702" d="M734.453,185.617h-2.311a.772.772,0,0,0,.749.393.4.4,0,0,1,.329.135.421.421,0,0,1,.1.3.36.36,0,0,1-.107.27.426.426,0,0,1-.321.125,1.6,1.6,0,0,1-1.206-.484,1.783,1.783,0,0,1-.459-1.27,1.867,1.867,0,0,1,.45-1.322,1.622,1.622,0,0,1,1.232-.482,1.348,1.348,0,0,1,1.168.583,2.219,2.219,0,0,1,.377,1.329Zm-.839-.818a1.023,1.023,0,0,0-.192-.463.657.657,0,0,0-.514-.226.764.764,0,0,0-.86.689Z" transform="translate(16322 14135)" fill="#656a6d"/>
    <path id="Path_144703" data-name="Path 144703" d="M737.183,183.717a.41.41,0,0,1-.09.285.3.3,0,0,1-.261.129l-.1,0-.115-.017a.885.885,0,0,0-.582.226.709.709,0,0,0-.278.557v1.472a.417.417,0,0,1-.116.314.45.45,0,0,1-.282.1.4.4,0,0,1-.265-.1.388.388,0,0,1-.138-.314v-2.593a.453.453,0,0,1,.129-.305.478.478,0,0,1,.286-.1.34.34,0,0,1,.275.128.7.7,0,0,1,.111.406v.012a.806.806,0,0,1,.5-.539,1.285,1.285,0,0,1,.419-.084.726.726,0,0,1,.193.028.379.379,0,0,1,.312.4" transform="translate(16322 14135)" fill="#656a6d"/>
    <path id="Path_144704" data-name="Path 144704" d="M740.7,186.366a.384.384,0,0,1-.12.312.429.429,0,0,1-.274.1.444.444,0,0,1-.283-.1.39.39,0,0,1-.119-.312V184.6a.4.4,0,0,0-.453-.454h-.989v2.217a.419.419,0,0,1-.1.312.44.44,0,0,1-.286.1.4.4,0,0,1-.269-.1.392.392,0,0,1-.129-.312v-3.05h1.777a1.2,1.2,0,0,1,.9.362,1.274,1.274,0,0,1,.346.925Z" transform="translate(16322 14135)" fill="#656a6d"/>
    <path id="Path_144705" data-name="Path 144705" d="M744.253,186.79h-1.8a1.214,1.214,0,0,1-.878-.32,1.178,1.178,0,0,1-.334-.9,1.113,1.113,0,0,1,.437-.962,1.48,1.48,0,0,1,.963-.3,1.059,1.059,0,0,1,.428.124.722.722,0,0,1,.363.355l.013-.145a.523.523,0,0,0-.423-.554c-.026,0-.124-.013-.308-.03a.472.472,0,0,1-.27-.093.4.4,0,0,1-.167-.349c0-.254.167-.379.51-.379a1.576,1.576,0,0,1,1.01.318,1.126,1.126,0,0,1,.453.953Zm-.8-.833v-.314a.455.455,0,0,0-.282-.412,1.035,1.035,0,0,0-.514-.128c-.406,0-.612.152-.612.462,0,.267.172.392.51.392Z" transform="translate(16322 14135)" fill="#656a6d"/>
    <path id="Path_144706" data-name="Path 144706" d="M746.889,186.384c0,.3-.244.454-.741.454-.676,0-1.014-.392-1.014-1.158v-1.49a.328.328,0,0,1-.265-.117.528.528,0,0,1-.086-.293c0-.063.064-.129.18-.209s.171-.144.171-.209v-.331a.371.371,0,0,1,.12-.3.351.351,0,0,1,.287-.121.376.376,0,0,1,.278.121.347.347,0,0,1,.12.3v.331h.565a.382.382,0,0,1,.29.121.427.427,0,0,1,.095.288.42.42,0,0,1-.095.29.353.353,0,0,1-.29.129h-.565v1.566a.371.371,0,0,0,.034.2c.008.029.081.054.179.054a.676.676,0,0,0,.167-.025l.185-.02a.34.34,0,0,1,.265.134.4.4,0,0,1,.12.285" transform="translate(16322 14135)" fill="#656a6d"/>
    <path id="Path_144707" data-name="Path 144707" d="M748.143,182.713a.407.407,0,0,1-.121.3.374.374,0,0,1-.277.117.4.4,0,0,1-.278-.117.476.476,0,0,1-.112-.3.4.4,0,0,1,.112-.294.363.363,0,0,1,.278-.125.344.344,0,0,1,.277.125.352.352,0,0,1,.121.294m0,3.653a.372.372,0,0,1-.121.312.4.4,0,0,1-.277.1.408.408,0,0,1-.266-.1.389.389,0,0,1-.124-.312v-2.582a.421.421,0,0,1,.124-.314.465.465,0,0,1,.266-.1.4.4,0,0,1,.277.111.364.364,0,0,1,.121.3Z" transform="translate(16322 14135)" fill="#656a6d"/>
    <path id="Path_144708" data-name="Path 144708" d="M751.938,185.071a1.823,1.823,0,0,1-.45,1.273,1.727,1.727,0,0,1-2.434-.011,1.815,1.815,0,0,1-.428-1.262,1.768,1.768,0,0,1,.475-1.256,1.462,1.462,0,0,1,1.172-.507,1.521,1.521,0,0,1,1.2.5,1.78,1.78,0,0,1,.467,1.26m-.792,0a.922.922,0,0,0-.244-.677.862.862,0,0,0-1.236,0,.935.935,0,0,0-.245.677c0,.633.283.939.852.939a.81.81,0,0,0,.651-.252.993.993,0,0,0,.222-.687" transform="translate(16322 14135)" fill="#656a6d"/>
    <path id="Path_144709" data-name="Path 144709" d="M755.6,186.366a.394.394,0,0,1-.121.312.452.452,0,0,1-.277.1.384.384,0,0,1-.266-.1.377.377,0,0,1-.124-.312V184.6a.4.4,0,0,0-.461-.454h-.99v2.217a.408.408,0,0,1-.106.312.46.46,0,0,1-.282.1.383.383,0,0,1-.27-.1.393.393,0,0,1-.134-.312v-3.05h1.782a1.175,1.175,0,0,1,.9.362,1.219,1.219,0,0,1,.352.925Z" transform="translate(16322 14135)" fill="#656a6d"/>
    <path id="Path_144710" data-name="Path 144710" d="M759.135,186.79h-1.78a1.244,1.244,0,0,1-.886-.32,1.191,1.191,0,0,1-.329-.9,1.12,1.12,0,0,1,.432-.962,1.517,1.517,0,0,1,.967-.3,1.088,1.088,0,0,1,.432.124.75.75,0,0,1,.359.355l.018-.145a.527.527,0,0,0-.432-.554c-.022,0-.124-.013-.3-.03a.517.517,0,0,1-.283-.093.412.412,0,0,1-.163-.349c0-.254.171-.379.509-.379a1.614,1.614,0,0,1,1.019.318,1.131,1.131,0,0,1,.432.953Zm-.787-.833v-.314a.455.455,0,0,0-.283-.412,1.034,1.034,0,0,0-.513-.128c-.41,0-.621.152-.621.462,0,.267.18.392.527.392Z" transform="translate(16322 14135)" fill="#656a6d"/>
    <path id="Path_144711" data-name="Path 144711" d="M760.561,186.366a.427.427,0,0,1-.121.312.418.418,0,0,1-.286.1.384.384,0,0,1-.261-.1.392.392,0,0,1-.133-.312v-3.479a.381.381,0,0,1,.133-.3.348.348,0,0,1,.261-.117.376.376,0,0,1,.286.117.415.415,0,0,1,.121.3Z" transform="translate(16322 14135)" fill="#656a6d"/>
    <path id="Path_144712" data-name="Path 144712" d="M766.4,185.389a1.3,1.3,0,0,1-.449,1.058,1.715,1.715,0,0,1-1.122.329h-1.865v-4.3h1.823a1.286,1.286,0,0,1,.852.33,1.146,1.146,0,0,1,.4.895,1.168,1.168,0,0,1-.223.687,1.127,1.127,0,0,1,.582,1m-.8,0a.331.331,0,0,0-.137-.254,1.035,1.035,0,0,0-.676-.189h-1.027v1.011h1.069a1.41,1.41,0,0,0,.557-.1.52.52,0,0,0,.214-.47m-.355-1.685a.342.342,0,0,0-.124-.275.484.484,0,0,0-.334-.121h-1.027v.854h1.027a.489.489,0,0,0,.312-.128.443.443,0,0,0,.146-.33" transform="translate(16322 14135)" fill="#656a6d"/>
    <path id="Path_144713" data-name="Path 144713" d="M770.081,185.071a1.825,1.825,0,0,1-.453,1.273,1.555,1.555,0,0,1-1.2.5,1.532,1.532,0,0,1-1.224-.507,1.8,1.8,0,0,1-.432-1.262,1.78,1.78,0,0,1,.462-1.256,1.659,1.659,0,0,1,2.384,0,1.8,1.8,0,0,1,.461,1.26m-.782,0a1,1,0,0,0-.244-.677.827.827,0,0,0-.625-.261.78.78,0,0,0-.616.261.89.89,0,0,0-.249.677c0,.633.278.939.865.939a.783.783,0,0,0,.633-.252.936.936,0,0,0,.236-.687" transform="translate(16322 14135)" fill="#656a6d"/>
    <path id="Path_144714" data-name="Path 144714" d="M773.826,185.071a1.851,1.851,0,0,1-.441,1.273,1.571,1.571,0,0,1-1.223.5,1.508,1.508,0,0,1-1.207-.507,1.787,1.787,0,0,1-.437-1.262,1.813,1.813,0,0,1,.459-1.256,1.658,1.658,0,0,1,2.383,0,1.8,1.8,0,0,1,.466,1.26m-.787,0a.952.952,0,0,0-.236-.677.835.835,0,0,0-.641-.261.815.815,0,0,0-.613.261.938.938,0,0,0-.234.677c0,.633.286.939.847.939a.8.8,0,0,0,.646-.252.973.973,0,0,0,.231-.687" transform="translate(16322 14135)" fill="#656a6d"/>
    <path id="Path_144715" data-name="Path 144715" d="M777.279,186.366a.379.379,0,0,1-.129.305.47.47,0,0,1-.29.12.365.365,0,0,1-.326-.2l-.9-1.55c-.115.125-.286.311-.539.544v.777a.405.405,0,0,1-.394.425.388.388,0,0,1-.282-.113.4.4,0,0,1-.119-.312v-3.479a.372.372,0,0,1,.119-.3.4.4,0,0,1,.282-.12.386.386,0,0,1,.27.12.338.338,0,0,1,.124.3v1.676a2.273,2.273,0,0,1,.326-.454l.487-.5a.4.4,0,0,1,.283-.136.343.343,0,0,1,.278.136.4.4,0,0,1,.133.3.392.392,0,0,1-.133.285,3.2,3.2,0,0,0-.244.28l1,1.678a.517.517,0,0,1,.06.214" transform="translate(16322 14135)" fill="#656a6d"/>
    <path id="Path_144716" data-name="Path 144716" d="M782.419,182.893a.414.414,0,0,1-.112.29.384.384,0,0,1-.29.125h-1.661v.7H781.4a.357.357,0,0,1,.292.125.454.454,0,0,1,.107.294.436.436,0,0,1-.107.29.36.36,0,0,1-.292.119h-1.048v1.533a.37.37,0,0,1-.4.41.359.359,0,0,1-.387-.41v-3.888h2.443a.4.4,0,0,1,.29.126.436.436,0,0,1,.112.288" transform="translate(16322 14135)" fill="#656a6d"/>
    <path id="Path_144717" data-name="Path 144717" d="M785.247,186.79h-1.78a1.217,1.217,0,0,1-.886-.32,1.185,1.185,0,0,1-.325-.9,1.117,1.117,0,0,1,.423-.962,1.538,1.538,0,0,1,.972-.3,1.116,1.116,0,0,1,.432.124.7.7,0,0,1,.351.355.3.3,0,0,0,.025-.145.519.519,0,0,0-.436-.554c-.022,0-.116-.013-.295-.03a.54.54,0,0,1-.282-.093.431.431,0,0,1-.155-.349c0-.254.176-.379.5-.379a1.6,1.6,0,0,1,1.018.318,1.122,1.122,0,0,1,.437.953Zm-.788-.833v-.314a.459.459,0,0,0-.286-.412,1.037,1.037,0,0,0-.514-.128c-.411,0-.617.152-.617.462,0,.267.168.392.52.392Z" transform="translate(16322 14135)" fill="#656a6d"/>
    <path id="Path_144718" data-name="Path 144718" d="M786.673,182.713a.4.4,0,0,1-.129.3.343.343,0,0,1-.265.117.461.461,0,0,1-.3-.117.561.561,0,0,1-.1-.3.466.466,0,0,1,.1-.294.418.418,0,0,1,.3-.125.317.317,0,0,1,.265.125.347.347,0,0,1,.129.294m0,3.653a.387.387,0,0,1-.394.41.381.381,0,0,1-.4-.41v-2.582a.437.437,0,0,1,.124-.314.456.456,0,0,1,.274-.1.368.368,0,0,1,.265.111.358.358,0,0,1,.129.3Z" transform="translate(16322 14135)" fill="#656a6d"/>
    <path id="Path_144719" data-name="Path 144719" d="M789.518,183.717a.412.412,0,0,1-.1.285.3.3,0,0,1-.261.129l-.1,0-.1-.017a.881.881,0,0,0-.594.226.705.705,0,0,0-.275.557v1.472a.437.437,0,0,1-.115.314.492.492,0,0,1-.287.1.376.376,0,0,1-.264-.1.382.382,0,0,1-.134-.314v-2.593a.417.417,0,0,1,.134-.305.425.425,0,0,1,.281-.1.355.355,0,0,1,.27.128.7.7,0,0,1,.115.406v.012a.8.8,0,0,1,.493-.539,1.33,1.33,0,0,1,.411-.084.552.552,0,0,1,.188.028.389.389,0,0,1,.334.4" transform="translate(16322 14135)" fill="#656a6d"/>
    <path id="Path_144720" data-name="Path 144720" d="M742.806,163.074a1.355,1.355,0,0,0,.222-1.769,1.374,1.374,0,0,0-1.238-.432,1.267,1.267,0,0,0-.731,2.259,1.57,1.57,0,0,0-.635,1.287c.124,1.343,2.067,1.57,2.774.62a1.346,1.346,0,0,0,.219-1.1,1.792,1.792,0,0,0-.611-.861m-.86-1.594a.584.584,0,0,1,.629.628.639.639,0,0,1-1.277-.013.6.6,0,0,1,.648-.615m-.006,3.511a.757.757,0,0,1-.743-.576c-.261-1.149,1.5-1.222,1.5-.114a.685.685,0,0,1-.759.69" transform="translate(16322 14135)" fill="#656a6d"/>
    <path id="Path_144721" data-name="Path 144721" d="M672.551,176.686c2.6,1.785,6.176,4.319,6.012,5.2a1.728,1.728,0,0,1-.245.562c-.11.158-.286.414-.49.408-.278-.008-.283-.489-.687-.766a1.234,1.234,0,0,0-1.372.051,1.434,1.434,0,0,0-.54,1.122,1.483,1.483,0,0,0,.932,1.275,1.9,1.9,0,0,0,1.568-.2c1.188-.571,1.28-1.505,1.962-1.53.435-.016.721.46,1.665,1.323,2.132,1.951,3.811,2.647,4.811,2.647a1.81,1.81,0,0,0,1.859-.908,1.494,1.494,0,0,0-.441-1.581,1.4,1.4,0,0,0-1.716-.155c-.327.262-.257.7-.491.715-.369.02-3.5-3.005-4.658-4.285a3.153,3.153,0,0,1,.973-1.642c.466-.074.608.742,1.315.861a1.28,1.28,0,0,0,1.292-.648,1.438,1.438,0,0,0-.02-1.228,1.821,1.821,0,0,0-1.876-.822,3.223,3.223,0,0,0-2.027,1.694c-.229.394-.324.7-.588.764-.293.076-.581-.3-1.03-.816-.681-.785-3.17-3.074-3.257-3.264a.563.563,0,0,1-.028-.1c-.058-.334,5.047-3.014,9.423-4.02,3.92-.9,10.534-1.2,10.435-1.387h0v0c.293-.289-5.979-1.748-10.673-1.532a21.1,21.1,0,0,0-12.112,4.746H672.5a21.105,21.105,0,0,0-12.112-4.746c-4.694-.217-10.966,1.243-10.673,1.532v0h0c-.1.188,6.514.486,10.433,1.387,4.377,1.006,9.482,3.686,9.424,4.02a.569.569,0,0,1-.028.1c-.087.19-2.576,2.479-3.257,3.264-.449.519-.737.892-1.03.816-.264-.067-.359-.37-.588-.764a3.221,3.221,0,0,0-2.027-1.694,1.822,1.822,0,0,0-1.876.822,1.438,1.438,0,0,0-.02,1.228,1.28,1.28,0,0,0,1.293.648c.705-.119.848-.935,1.314-.861a3.152,3.152,0,0,1,.973,1.642c-1.16,1.28-4.288,4.3-4.658,4.285-.234-.013-.165-.453-.491-.715a1.4,1.4,0,0,0-1.715.155,1.493,1.493,0,0,0-.442,1.581,1.81,1.81,0,0,0,1.859.908c1,0,2.679-.7,4.812-2.647.943-.863,1.229-1.339,1.664-1.323.682.025.774.959,1.961,1.53a1.9,1.9,0,0,0,1.57.2,1.484,1.484,0,0,0,.931-1.275,1.434,1.434,0,0,0-.54-1.122,1.234,1.234,0,0,0-1.372-.051c-.4.277-.409.758-.687.766-.2.006-.38-.25-.49-.408a1.73,1.73,0,0,1-.245-.562c-.164-.884,3.414-3.418,6.012-5.2Z" transform="translate(16322 14135)" fill="#00684b"/>
    <path id="Path_144722" data-name="Path 144722" d="M664.693,139.374a11.624,11.624,0,0,0-5.272,4.987c-1.325,2.605-1.554,5.851-.968,5.917.554.064.549-2.175,2.479-5.01,1.732-2.544,3.659-3.094,4.657-3.081.041,0,.4-.02-.1.5a10.986,10.986,0,0,0-3.9,5.659c-.673,2.525.08,5.818.307,5.8.548-.049.24-2.531,1.5-5.256.13-.283,1.562-3.318,3.127-3.227.084.005.515.008.508.224a25.544,25.544,0,0,1-1.54,2.349,6.83,6.83,0,0,0-.726,3.674c.117,1.94.687,3.628,1.144,3.541.478-.091-.1-2.293,1.068-4.976.195-.449,1.6-3.784,2.753-3a2.3,2.3,0,0,1,.991,1.9c.161,4.928.161,9.356-.054,14.77-.078,1.954-.617,3.773-.743,5.658,0,.039.446.19.48.236a.2.2,0,0,0,.059.058,18.413,18.413,0,0,1,1.971,1.5.138.138,0,0,0,.182,0c.47-.41,1.371-1.1,1.835-1.41.064-.042.488-.228.488-.308-.166-1.874-.686-3.69-.784-5.667a136.187,136.187,0,0,1,.037-14.839,3.074,3.074,0,0,1,.99-1.9c1.153-.781,2.558,2.554,2.753,3,1.172,2.683.591,4.885,1.069,4.976.456.087,1.026-1.6,1.144-3.541a6.832,6.832,0,0,0-.727-3.674,25.659,25.659,0,0,1-1.539-2.349c-.008-.216.424-.219.508-.224,1.565-.091,3,2.944,3.127,3.227,1.256,2.725.949,5.207,1.5,5.256.227.019.981-3.274.307-5.8a10.974,10.974,0,0,0-3.9-5.659c-.494-.52-.137-.5-.1-.5,1-.013,2.924.537,4.657,3.081,1.929,2.835,1.925,5.074,2.479,5.01.586-.066.357-3.312-.968-5.917a11.629,11.629,0,0,0-5.272-4.987c-.685-.349-.2-.717-.148-.773.363-.4,3.16.2,4.521,1.4.475.417,1.23,1.248.979.209a5.616,5.616,0,0,0-2.747-2.978,37.68,37.68,0,0,0-3.58-1.306c-.671-.27-.824-.588-.7-.715.632-.633,2.8-.625,4.009-.835.663-.113-1.332-.912-2.677-1.019-2.569-.2-3.353,1.192-3.818.769a.706.706,0,0,1-.187-.584c.122-.954,2.718-2.038,2.079-2.193-1.107-.272-3.1,1.083-4.27,2.167-.142.131-.41.05-.374-.417a3.875,3.875,0,0,0-.321-2.5c-.125-.242-.383-.582-.535-.584s-.41.342-.534.584a3.869,3.869,0,0,0-.321,2.5c.035.467-.232.548-.374.417-1.173-1.084-3.164-2.439-4.27-2.167-.64.155,1.957,1.239,2.079,2.193a.7.7,0,0,1-.188.584c-.465.423-1.249-.972-3.818-.769-1.344.107-3.339.906-2.676,1.019,1.207.21,3.377.2,4.009.835.127.127-.025.445-.7.715a37.68,37.68,0,0,0-3.58,1.306,5.608,5.608,0,0,0-2.747,2.978c-.251,1.039.5.208.979-.209,1.361-1.193,4.158-1.8,4.52-1.4.052.056.538.424-.147.773" transform="translate(16322 14135)" fill="#00684b"/>
  </g>
</svg>
