<svg xmlns="http://www.w3.org/2000/svg" width="73.418" height="49.919" viewBox="0 0 73.418 49.919">
  <g id="Client_20" transform="translate(-17994.15 -14386.854)">
    <path id="Path_143601" data-name="Path 143601" d="M1745.569,275.353s-2.871.484-7.537,8.1a25.691,25.691,0,0,0-1.652,3.2c-1.091,2.511-4.113,8.222-9.427,9.393a22.184,22.184,0,0,0,5.208-7.524c.307-.85.914-2.22,1.3-3.033,1.489-3.139,4.985-9.071,12.108-10.135" transform="translate(16322 14135)" fill="#9a8c3c"/>
    <path id="Path_143602" data-name="Path 143602" d="M1726.906,258.536l-4.852,4.555v12.423h4.852Z" transform="translate(16322 14135)" fill="#206639"/>
    <path id="Path_143603" data-name="Path 143603" d="M1711.588,261.6s-2.9,5.842-7.088,0l-3.9,4.9h10.989a3.929,3.929,0,0,1,3.377,3.862h-16.7V261.6l-4.472,4.382v4.38h-2.473V251.854l-4.852,4.7v18.957h2.473s3.52-5.146,7.279,0h23.738v-5.443s-.619-7.92-8.373-8.465" transform="translate(16322 14135)" fill="#206639"/>
    <path id="Path_143604" data-name="Path 143604" d="M1684.378,261.8v13.116s1.237,8.414-8.278,9.553v-5.2s2.331.89,3.52-2.871V266.157Z" transform="translate(16322 14135)" fill="#206639"/>
    <path id="Path_143605" data-name="Path 143605" d="M1695.152,277.082a2.523,2.523,0,1,1-2.522-2.623,2.574,2.574,0,0,1,2.522,2.623" transform="translate(16322 14135)" fill="#9a8c3c"/>
    <path id="Path_143606" data-name="Path 143606" d="M1710.708,260.352a2.523,2.523,0,1,1-2.521-2.623,2.574,2.574,0,0,1,2.521,2.623" transform="translate(16322 14135)" fill="#9a8c3c"/>
    <path id="Path_143607" data-name="Path 143607" d="M1724.446,254.13h2.46v2.055h-4.853V254.13h.928v-.568a1.369,1.369,0,0,1,1.5-1.46h2.427v.916h-2.427s-.479-.012-.47.6a.513.513,0,0,0,.437.508" transform="translate(16322 14135)" fill="#206639"/>
    <path id="Path_143608" data-name="Path 143608" d="M1696.8,288.487s3.269-.944,15.982,3.921a25.214,25.214,0,0,0,7.674,1.37,74.266,74.266,0,0,1-9.5-3.729,20.053,20.053,0,0,0-5.584-2.04,17.83,17.83,0,0,0-8.573.478" transform="translate(16322 14135)" fill="#206639"/>
    <path id="Path_143609" data-name="Path 143609" d="M1720.914,295.053a80.194,80.194,0,0,1-17.6-4.354,19.719,19.719,0,0,0-6.53-1.247,23.151,23.151,0,0,0-12.733,3.522,33.431,33.431,0,0,1,7.623-.189,85.416,85.416,0,0,1,16.959,3.781s7.061,2.079,12.282-1.513" transform="translate(16322 14135)" fill="#9a8c3c"/>
    <path id="Path_143610" data-name="Path 143610" d="M1739.712,275.589a8.62,8.62,0,0,0-5.415,1.932,13.758,13.758,0,0,0-4.575,5.892c-.688,1.649-1.656,3.939-2.356,5.823-4.272,11.517-21.291,9.137-26.288,7.021a24.721,24.721,0,0,0-2.578-.95c-3.286-.978-10.2-2.529-16.361-.632,0,0-6.493,1.513-9.989,6.851a19.632,19.632,0,0,1,7.925-2.08c5.589-.388,13.6.666,20.77,1.842,0,0,10.943,2.363,21.159-3.352A24.108,24.108,0,0,0,1732.22,284.8s2.361-7.087,7.492-9.213" transform="translate(16322 14135)" fill="#206639"/>
    <path id="Path_143611" data-name="Path 143611" d="M1702.914,283.739h-.786a1.227,1.227,0,0,1-1.175-1,.993.993,0,0,1-.832.507c-.831,0-1.344-.65-1.344-1.588,0-1.015.513-1.644,1.344-1.644h1.6v2.144c0,.526.24.809.727.809h.461Zm-1.942-2.156V280.6h-.656c-.507,0-.818.419-.818,1.048,0,.52.279.968.714.968.474,0,.76-.46.76-1.035m-.533-2.116h-.715v-.757h.715Zm1.228,0h-.714v-.757h.714Zm1.71,5.751h-.715v-.757h.715Zm1.247-2.7c0,.818-.364,1.224-1.085,1.224h-.766v-.772h.61a.458.458,0,0,0,.462-.221,1.55,1.55,0,0,0,.052-.488v-1.589h.727Zm-.019,2.7h-.714v-.757h.714Zm3.716-1.479h-3.085v-.772h2.351c0-.884-.331-1.4-.987-1.547a2.972,2.972,0,0,0-.656-.061v-.69c.357,0,.584.007.675.014a1.512,1.512,0,0,1,.39.1,2.053,2.053,0,0,1,1.312,2.188Zm4.308,0h-.883c-.1.743-.572,1.114-1.416,1.114v-.6a.67.67,0,0,0,.721-.519h-.7a1.491,1.491,0,0,1-1.423-1.574,1.426,1.426,0,0,1,1.455-1.5,1.386,1.386,0,0,1,1.351,1.519v.783h.89Zm-1.617-.772v-.925c-.039-.4-.26-.683-.637-.683a.693.693,0,0,0-.7.765.776.776,0,0,0,.7.843Zm6.347.772h-1.383a1.241,1.241,0,0,1-.578-.162,1.38,1.38,0,0,1-.416-.325,2.508,2.508,0,0,1-1.435.487h-1.092v-.772h1.078a1.926,1.926,0,0,0,.507-.047,1.289,1.289,0,0,0,.468-.209,1.857,1.857,0,0,0-.552-.5,2.505,2.505,0,0,0-.767-.365v-.717a3.168,3.168,0,0,1,1.761-.552,2.68,2.68,0,0,1,1.851.7,2.844,2.844,0,0,1-.461.751,3.936,3.936,0,0,1-.748.757.584.584,0,0,0,.26.169,2.515,2.515,0,0,0,.286.011h1.221Zm-1.448-2.237a1.759,1.759,0,0,0-.942-.271,2.088,2.088,0,0,0-1,.277,2.591,2.591,0,0,1,1.1.812,1.951,1.951,0,0,0,.474-.371,3.173,3.173,0,0,0,.364-.447m1.217,2.237v-.772h.662c.37,0,.552-.261.552-.8v-1.5h.734v1.474a1.71,1.71,0,0,1-.117.784v.04h.676c.37,0,.552-.25.552-.75v-1.548h.734v1.474a1.414,1.414,0,0,1-.15.824h.708c.371,0,.553-.25.553-.743v-1.555h.734v1.46a1.984,1.984,0,0,1-.163.838h1.111v.772Zm8.225-1.224c0,.818-.363,1.224-1.091,1.224h-.766v-.772h.617a.456.456,0,0,0,.461-.221,1.55,1.55,0,0,0,.052-.488v-2.879h.727Zm1.391,1.224h-.721v-4.365h.721Z" transform="translate(16322 14135)" fill="#9a8c3c"/>
  </g>
</svg>
