<svg xmlns="http://www.w3.org/2000/svg" width="60.109" height="67.52" viewBox="0 0 60.109 67.52">
  <g id="Client_10" transform="translate(-17303.127 -14259.121)">
    <path id="Path_144788" data-name="Path 144788" d="M998.581,183.292c-2.882,0-5.763,0-8.643-.008a.784.784,0,0,0-.7.347,4.791,4.791,0,0,1-6.231,1.017,4.508,4.508,0,0,1-1.669-4.666,3.915,3.915,0,0,1,3.233-3.055c.391-.065.56.031.493.457a.561.561,0,0,0,0,.153.958.958,0,0,1-.722,1.219,2.336,2.336,0,0,0-1.281,3.009,2.531,2.531,0,0,0,2.958,1.794,2.693,2.693,0,0,0,2.276-2.787c.006-2.142.011-4.282-.007-6.424,0-.393.107-.518.473-.481a4.525,4.525,0,0,0,.938,0c.352-.033.437.106.435.46-.015,2.261.008,4.523-.02,6.784-.006.482.132.585.569.578,1.646-.028,3.292-.023,4.938,0,.4.005.578,0,.427-.531a5.273,5.273,0,0,1,.034-2.841,2.617,2.617,0,0,1,1.958-1.972,4.788,4.788,0,0,1,2.492.021,2.612,2.612,0,0,1,1.946,2.273,5.954,5.954,0,0,1-.076,2.646c-.093.334-.017.438.3.4a3.481,3.481,0,0,1,.4,0c.675-.008.893-.191.912-.91.031-1.149.029-2.3.011-3.444-.006-.357.083-.488.436-.456.44.04,1.025-.14,1.289.091.308.271.09.9.1,1.368q.024,1.492,0,2.981c-.005.28.052.419.341.372a1.188,1.188,0,0,1,.2,0c1.519,0,1.966-.409,2.006-2.017.044-1.761.031-3.528.01-5.292-.005-.419.117-.539.5-.5.422.045.971-.175,1.242.083s.084.843.087,1.284c.01,1.471,0,2.944,0,4.418a6.312,6.312,0,0,1-.078.92c-.293,1.843-1.172,2.681-2.971,2.7-2.864.033-5.727.007-8.591.007Zm.64-1.615a1.282,1.282,0,0,0,1.477-1.1,3.951,3.951,0,0,0-.023-1.677,1.482,1.482,0,0,0-2.877-.014,4.221,4.221,0,0,0-.071,1.373c.08,1.008.516,1.422,1.494,1.423" transform="translate(16322 14135)" fill="#353738"/>
    <path id="Path_144789" data-name="Path 144789" d="M991.249,141.579c1.146.728,2.2,1.392,3.248,2.061q7.16,4.563,14.322,9.119a.925.925,0,0,1,.5.933c-.037,1.028,0,2.056-.018,3.083,0,.316.057.464.4.458,1.071-.019,2.141-.016,3.212,0,.312.005.389-.119.385-.422-.014-1.061.011-2.125-.015-3.186a.818.818,0,0,1,.429-.82q6.012-3.809,12.007-7.64,2.526-1.608,5.054-3.22a1.122,1.122,0,0,1,.549-.275.849.849,0,0,1-.459.773l-13.035,10.008c-.61.469-1.209.95-1.832,1.4a.769.769,0,0,0-.349.721q.02,3.546,0,7.094a4.364,4.364,0,0,1-1.87,3.706c-.128.094-.266.276-.428.185-.135-.079-.056-.284-.057-.43-.006-.857-.011-1.714,0-2.569.005-.311-.051-.462-.4-.456-1.07.023-2.141.02-3.211,0-.31,0-.394.1-.388.414.016.908-.006,1.816.011,2.723.008.4-.109.4-.385.215a4.342,4.342,0,0,1-1.978-3.749c-.023-2.347-.016-4.693,0-7.042a.973.973,0,0,0-.439-.882q-7.424-5.676-14.83-11.373a.991.991,0,0,1-.438-.828m20.032,19.124c.56,0,1.119,0,1.678,0,.206,0,.35-.024.343-.3-.013-.5-.01-.992,0-1.488,0-.225-.091-.3-.3-.3-1.135,0-2.27.007-3.405,0-.212,0-.293.081-.289.3.008.495.011.992,0,1.488-.008.277.143.3.346.3.542-.006,1.085,0,1.628,0" transform="translate(16322 14135)" fill="#3bbeba"/>
    <path id="Path_144790" data-name="Path 144790" d="M1025.669,131.913c-1.321.062-2.614.027-3.906.091a33.9,33.9,0,0,0-16.074,4.936,66.872,66.872,0,0,0-8.327,6.147c-.127.1-.259.207-.409.325-.088-.2.049-.308.114-.42,3.918-6.737,9.532-11,17.006-12.454a18.607,18.607,0,0,1,10.679.944c.312.125.611.286.917.431" transform="translate(16322 14135)" fill="#3bbeba"/>
    <path id="Path_144791" data-name="Path 144791" d="M1016.972,159.287q1,1.879,2,3.762a.72.72,0,0,1,0,.5,7.9,7.9,0,0,1-6.2,6.394,2.834,2.834,0,0,0-1.116.624c-.235.171-.42.214-.649,0a3.663,3.663,0,0,0-1.6-.726,7.845,7.845,0,0,1-5.781-6.286.8.8,0,0,1,.044-.594c.627-1.163,1.245-2.333,1.867-3.5.031-.059.065-.119.222-.083,0,.482.01.986,0,1.49a7.434,7.434,0,0,0,.617,3.746,5.664,5.664,0,0,0,3.191,2.823c.536.195.539.188.54-.384,0-1.216.011-2.433-.008-3.649-.005-.34.1-.454.419-.438.509.02,1.021.026,1.53,0,.386-.025.466.144.46.51-.019,1.233.006,2.465-.015,3.7-.006.383.105.407.423.31a5.75,5.75,0,0,0,3.927-5.348c.014-.937,0-1.872,0-2.81.042-.014.084-.026.126-.041" transform="translate(16322 14135)" fill="#3bbeba"/>
    <path id="Path_144792" data-name="Path 144792" d="M1040.959,181.617c0,.734.04,1.474-.009,2.205a2.31,2.31,0,0,1-1.776,2.247,10.862,10.862,0,0,1-3.139.224c-.893.009-.893,0-.917-.931-.016-.647-.016-.642.635-.651a15.7,15.7,0,0,0,2.414-.078,1.055,1.055,0,0,0,1-1.018c.012-.24-.054-.333-.3-.326-.543.012-1.087.013-1.629-.01-1.927-.083-2.843-1.051-2.915-3.055a6,6,0,0,1,.071-1.175,2.571,2.571,0,0,1,1.982-2.288,5.2,5.2,0,0,1,2.639.007,2.5,2.5,0,0,1,1.91,2.334,19.02,19.02,0,0,1,.034,2.515m-1.8-1.129c0-.308.017-.616,0-.924a1.287,1.287,0,0,0-1.442-1.381,1.31,1.31,0,0,0-1.541,1.334c-.15,1.9.481,2.218,1.852,2.168,1.141-.041,1.142-.008,1.134-1.2" transform="translate(16322 14135)" fill="#353738"/>
    <path id="Path_144793" data-name="Path 144793" d="M1025.7,143.424c-4.279-3.637-8.674-6.984-13.878-9.054a.694.694,0,0,1,.4-.23c.9-.326,1.824-.57,2.737-.853a1.707,1.707,0,0,1,1.526.218,25.832,25.832,0,0,1,9.06,9.382c.066.117.127.238.184.361.011.025-.009.065-.027.176" transform="translate(16322 14135)" fill="#3bbeba"/>
    <path id="Path_144794" data-name="Path 144794" d="M1019.593,176.667c2.641.023,3.494,1.475,3.206,4.157a2.4,2.4,0,0,1-2.287,2.389,6.014,6.014,0,0,1-2.157-.032,2.465,2.465,0,0,1-2.1-2.144,5.465,5.465,0,0,1-.005-2.04,2.627,2.627,0,0,1,2.459-2.269c.293-.038.589-.041.885-.061m-.048,1.684c-1.123,0-1.549.436-1.557,1.6-.007,1.24.405,1.709,1.508,1.71,1.085,0,1.537-.474,1.548-1.637.012-1.18-.429-1.673-1.5-1.677" transform="translate(16322 14135)" fill="#353738"/>
    <path id="Path_144795" data-name="Path 144795" d="M1010.694,131.079c-.8.342-1.588.674-2.373,1.005-.015.008-.033.01-.046.018a3.6,3.6,0,0,1-3.178.381,32.016,32.016,0,0,0-7.622-.481c-.144.005-.287,0-.451,0,1.889-1.841,10.616-2.428,13.67-.923" transform="translate(16322 14135)" fill="#3bbeba"/>
    <path id="Path_144796" data-name="Path 144796" d="M1011.186,134.58a33.612,33.612,0,0,0-4.5,12.88,1.717,1.717,0,0,1-.278-.807,7.86,7.86,0,0,1-.133-.808,19.28,19.28,0,0,1,1.4-9.534.579.579,0,0,1,.189-.288,18.962,18.962,0,0,1,3.319-1.443" transform="translate(16322 14135)" fill="#3bbeba"/>
    <path id="Path_144797" data-name="Path 144797" d="M1016.051,147.448a34.582,34.582,0,0,0-4.543-12.808c.165-.127.279-.014.39.035.726.318,1.438.678,2.177.96a2.026,2.026,0,0,1,1.232,1.392,18.937,18.937,0,0,1,.953,9.48c-.054.315-.139.628-.209.941" transform="translate(16322 14135)" fill="#3bbeba"/>
    <path id="Path_144798" data-name="Path 144798" d="M1033.193,179.731a18.145,18.145,0,0,1-.132,3.086c-.371,1.985-1.374,2.926-3.316,2.973-1.554.037-1.179.327-1.239-1.288-.009-.258.1-.311.319-.315,1.534-.026,2.517-.42,2.535-2.853.009-1.352.01-2.705-.006-4.055,0-.309.068-.434.381-.409a7.84,7.84,0,0,0,1.084,0c.317-.024.388.108.38.415-.018.767-.006,1.539-.006,2.446" transform="translate(16322 14135)" fill="#353738"/>
    <path id="Path_144799" data-name="Path 144799" d="M1026.249,179.951a18.068,18.068,0,0,1-.135,2.892,3.145,3.145,0,0,1-3.189,2.949l-.148.011c-1.28.067-1.326.012-1.223-1.318.017-.22.079-.314.29-.291a.537.537,0,0,0,.1,0c1.8-.132,2.424-.779,2.467-2.666.033-1.4.026-2.805.008-4.209-.005-.37.109-.474.446-.448.439.036,1.011-.137,1.287.094.294.244.078.863.095,1.317.017.481,0,.959,0,1.671" transform="translate(16322 14135)" fill="#353738"/>
    <path id="Path_144800" data-name="Path 144800" d="M1011.3,178.616c0-1.438.008-2.878-.007-4.315,0-.307.061-.439.379-.414a7.157,7.157,0,0,0,1.086,0c.315-.023.379.111.378.416q-.015,4.289,0,8.581c0,.3-.062.438-.38.416a6.674,6.674,0,0,0-1.086,0c-.325.024-.379-.123-.377-.419.013-1.421.006-2.843.006-4.266" transform="translate(16322 14135)" fill="#353738"/>
    <path id="Path_144801" data-name="Path 144801" d="M1029.185,178.634c0,1.4-.012,2.81.008,4.214.005.362-.093.487-.44.448-.437-.048-1.008.19-1.283-.094s-.084-.877-.085-1.334c-.009-2.483,0-4.965-.011-7.45,0-.369.04-.591.47-.527s1.016-.2,1.266.112c.214.266.072.849.074,1.291,0,1.113,0,2.227,0,3.34" transform="translate(16322 14135)" fill="#353738"/>
    <path id="Path_144802" data-name="Path 144802" d="M1010.106,145.539c0-1.009.012-2.019-.007-3.025-.006-.343.064-.5.43-.476.54.03,1.084.018,1.627.005.247-.006.349.075.348.35q-.011,3.182,0,6.361c0,.279-.112.348-.355.344-.542-.013-1.085-.022-1.626,0-.319.013-.43-.088-.424-.432.019-1.042.007-2.086.007-3.129" transform="translate(16322 14135)" fill="#3bbeba"/>
    <path id="Path_144803" data-name="Path 144803" d="M1002.094,124.166a9.934,9.934,0,0,1,2.95,1.129,21.579,21.579,0,0,1,6.37,5.113c.1.115.329.219.206.4-.089.132-.3.107-.465.061a21.7,21.7,0,0,0-2.743-.631.529.529,0,0,1-.326-.215,61.412,61.412,0,0,0-5.833-5.679,1.986,1.986,0,0,1-.159-.182" transform="translate(16322 14135)" fill="#3bbeba"/>
    <path id="Path_144804" data-name="Path 144804" d="M1012.5,153.13c0,.925-.01,1.848.005,2.771.005.314-.057.469-.4.454-.541-.028-1.084-.018-1.626,0-.268.007-.378-.077-.376-.377q.016-2.849,0-5.7c0-.3.11-.38.377-.374.526.014,1.053.023,1.577,0,.338-.014.463.088.454.457-.023.923-.008,1.847-.008,2.77" transform="translate(16322 14135)" fill="#3bbeba"/>
    <path id="Path_144805" data-name="Path 144805" d="M1020.83,124.161c-.688.612-1.346,1.2-2,1.784a46.428,46.428,0,0,0-4.006,3.956.98.98,0,0,1-.581.35c-.63.116-1.263.23-1.881.4-.352.1-.524-.074-.694-.315-.2-.292.091-.4.218-.531a21.183,21.183,0,0,1,8.416-5.562c.123-.045.248-.087.375-.124.026-.007.059.015.156.039" transform="translate(16322 14135)" fill="#3bbeba"/>
    <path id="Path_144806" data-name="Path 144806" d="M1012.5,139.035c0,.615-.012,1.231.005,1.848.008.3-.071.431-.385.421-.558-.023-1.117-.016-1.676,0-.253,0-.344-.089-.342-.358.01-1.229,0-2.462,0-3.692a.774.774,0,0,1,.1-.391c.314-.559.636-1.117.939-1.683.16-.3.268-.265.432,0a4.4,4.4,0,0,1,.928,3.087,4.923,4.923,0,0,0-.006.769" transform="translate(16322 14135)" fill="#3bbeba"/>
    <path id="Path_144807" data-name="Path 144807" d="M1018.714,189.153c-.208.279-.414.561-.622.838-.327.438-.39.434-.711-.03-.172-.25-.343-.5-.519-.749-.013-.021-.055-.019-.139-.04,0,.689-.023,1.368.009,2.041.02.424-.223.37-.47.37s-.478.056-.465-.371c.032-1.062,0-2.122.017-3.185,0-.176-.133-.485.142-.51.3-.023.661-.189.905.177s.494.728.733,1.1c.114.176.2.183.319,0,.225-.337.466-.663.694-1a.549.549,0,0,1,.465-.311c.679-.019.677-.033.677.668,0,1.012-.019,2.021.007,3.03.01.383-.16.416-.444.4-.262-.015-.526.058-.5-.4.034-.664.008-1.331.008-2-.035-.013-.069-.025-.1-.04" transform="translate(16322 14135)" fill="#353738"/>
    <path id="Path_144808" data-name="Path 144808" d="M1023.166,189.441c0,.575-.025,1.146.008,1.711.023.393-.139.446-.457.436-.292-.007-.489,0-.478-.418.03-1.061.005-2.122.016-3.18,0-.163-.122-.446.133-.472.281-.025.621-.18.842.2.332.572.682,1.129,1.03,1.689.056.091.08.225.279.248,0-.583.023-1.156-.008-1.728-.022-.382.13-.451.454-.441.3.009.483.009.471.422-.03,1.042,0,2.086-.017,3.129,0,.182.163.5-.184.532-.29.027-.609.115-.817-.273-.3-.568-.659-1.1-1-1.65-.048-.077-.072-.193-.275-.2" transform="translate(16322 14135)" fill="#353738"/>
    <path id="Path_144809" data-name="Path 144809" d="M994.407,189.646c0-.572.023-1.147-.008-1.721-.022-.386.138-.447.458-.44.3.006.483.015.472.424-.028,1.042,0,2.087-.016,3.13,0,.179.134.48-.142.52-.3.043-.636.147-.862-.267a12.824,12.824,0,0,0-1.286-1.924c0,.593-.024,1.19.009,1.784.021.39-.134.445-.455.437-.3-.006-.48-.024-.469-.429.029-1.043,0-2.087.017-3.13,0-.177-.14-.482.145-.515s.639-.161.866.253c.359.651.769,1.272,1.157,1.9.038-.007.076-.016.114-.026" transform="translate(16322 14135)" fill="#353738"/>
    <path id="Path_144810" data-name="Path 144810" d="M1006.952,189.52c0-.548.012-1.1-.005-1.644-.009-.278.058-.4.352-.387.444.022.889,0,1.333.01a1.083,1.083,0,0,1,1.12.677,1.469,1.469,0,0,1-.211,1.587c-.242.255-.2.389-.005.6a1.255,1.255,0,0,1,.268.425c.086.249.434.483.2.754-.211.241-.869-.042-1.042-.38a6.815,6.815,0,0,0-.392-.649.471.471,0,0,0-.541-.142c-.244.049-.115.276-.144.424a1.079,1.079,0,0,0,0,.205c0,.55-.241.727-.759.577-.216-.062-.165-.224-.166-.367,0-.563,0-1.13,0-1.694m.917-.59c.094.218-.2.652.352.635.479-.018.68-.194.691-.656.013-.487-.258-.582-.66-.61-.546-.039-.321.366-.383.631" transform="translate(16322 14135)" fill="#353738"/>
    <path id="Path_144811" data-name="Path 144811" d="M1034.477,189.513c0-.567.008-1.13,0-1.7-.006-.236.057-.337.3-.327.444.02.889-.005,1.333.009a1.1,1.1,0,0,1,1.163.685,1.493,1.493,0,0,1-.216,1.588c-.206.223-.228.345-.023.571a3.039,3.039,0,0,1,.526.924c.082.2.078.315-.184.321-.416.008-.827.066-.953-.525a1.751,1.751,0,0,0-.31-.517.494.494,0,0,0-.581-.168c-.237.053-.108.279-.135.43a1.454,1.454,0,0,0,0,.256.538.538,0,0,1-.81.5c-.164-.086-.1-.237-.1-.36-.008-.565,0-1.13,0-1.693m.907-.56c.078.223-.192.646.362.612.473-.028.68-.2.688-.654s-.243-.586-.652-.612c-.565-.038-.343.376-.4.654" transform="translate(16322 14135)" fill="#353738"/>
    <path id="Path_144812" data-name="Path 144812" d="M984.616,189.536c0-.567.011-1.131-.005-1.7-.008-.268.08-.361.338-.349.444.017.889,0,1.333.009a1.1,1.1,0,0,1,1.133.662,1.482,1.482,0,0,1-.193,1.59c-.211.239-.248.38-.025.611a1.347,1.347,0,0,1,.295.467c.085.238.441.5.142.729s-.817-.046-1-.383-.265-.762-.732-.811c-.227-.027-.4.015-.359.317a2.464,2.464,0,0,1,0,.31c0,.581-.194.722-.745.591-.222-.05-.179-.208-.181-.35,0-.568,0-1.132,0-1.7m.924-.646c0,.674,0,.674.376.668.477-.006.658-.195.665-.667.008-.488-.274-.564-.666-.593-.532-.036-.336.353-.375.592" transform="translate(16322 14135)" fill="#353738"/>
    <path id="Path_144813" data-name="Path 144813" d="M1002.754,189.521c.015-1.58.87-2.334,2.311-2.031a1.474,1.474,0,0,1,1.2,1.144,3.621,3.621,0,0,1,.042,1.574,1.785,1.785,0,0,1-3.485.023,6.415,6.415,0,0,1-.068-.71m.973.1c0,.035,0,.189.022.342.068.542.318.8.773.824.481.021.769-.24.853-.793a3.018,3.018,0,0,0-.016-1.068.756.756,0,0,0-.854-.665c-.563.038-.777.379-.778,1.36" transform="translate(16322 14135)" fill="#353738"/>
    <path id="Path_144814" data-name="Path 144814" d="M989.769,187.5c.481-.13.682.116.829.551.352,1.048.685,2.1.955,3.175.071.287.007.349-.262.361-.429.023-.792.019-.791-.584,0-.249-.151-.348-.394-.322a1.835,1.835,0,0,1-.491,0c-.4-.063-.606.074-.658.515-.04.329-.59.533-.88.371-.127-.073-.075-.166-.052-.262a28.507,28.507,0,0,1,1.091-3.56c.146-.383.438-.191.653-.244m.424,2.3a7.556,7.556,0,0,0-.429-1.514c-.1.322-.176.542-.241.767-.258.882-.257.882.67.747" transform="translate(16322 14135)" fill="#353738"/>
    <path id="Path_144815" data-name="Path 144815" d="M1000.434,187.493h.443c.976.01,1.453.45,1.489,1.368.04,1.024-.416,1.631-1.381,1.662-.53.018-.685.2-.6.708.06.379-.189.369-.43.348-.216-.021-.513.127-.506-.327.017-1.142.014-2.288,0-3.43,0-.287.11-.352.35-.332.212.013.427,0,.64,0m-.053,1.484c0,.758,0,.758.322.757.509,0,.714-.219.71-.755,0-.5-.169-.648-.661-.676-.64-.036-.256.475-.371.674" transform="translate(16322 14135)" fill="#353738"/>
    <path id="Path_144816" data-name="Path 144816" d="M1028.978,191.631c-.238-.033-.529-.081-.823-.114-.243-.031-.312-.158-.326-.41-.022-.384.058-.538.456-.406a2.284,2.284,0,0,0,1.027.076.4.4,0,0,0,.081-.8c-.252-.08-.509-.141-.76-.222a1.177,1.177,0,0,1,.025-2.232,3.492,3.492,0,0,1,1.516-.018c.432.062.265.4.281.637.024.362-.233.178-.376.173a4.171,4.171,0,0,0-.934-.041c-.173.035-.325.1-.34.309a.346.346,0,0,0,.279.37c.221.07.445.125.666.194a1.243,1.243,0,0,1-.124,2.426c-.193.036-.392.034-.648.054" transform="translate(16322 14135)" fill="#353738"/>
    <path id="Path_144817" data-name="Path 144817" d="M997.164,191.634a6.951,6.951,0,0,0-.7-.091c-.418-.013-.513-.241-.484-.632.018-.239.081-.291.3-.237a3.308,3.308,0,0,0,.975.118c.269-.012.557-.015.6-.382.041-.341-.226-.413-.467-.485-.189-.058-.382-.1-.571-.16a1.17,1.17,0,0,1,.015-2.242,3.181,3.181,0,0,1,1.563.007c.388.082.2.406.222.626.027.314-.2.179-.342.171-.263-.014-.524-.065-.785-.063-.223,0-.5,0-.525.329-.023.294.217.349.423.41.189.06.383.1.571.16a1.242,1.242,0,0,1-.124,2.4,6.343,6.343,0,0,1-.67.07" transform="translate(16322 14135)" fill="#353738"/>
    <path id="Path_144818" data-name="Path 144818" d="M1041.237,187.553c-.272.505-.5,1-.788,1.45a3.056,3.056,0,0,0-.531,2.121c.06.424-.144.461-.479.468s-.48-.1-.431-.463a3.18,3.18,0,0,0-.494-2.088c-.282-.473-.505-.987-.764-1.5.913-.125.912-.124,1.276.653.141.3.291.606.448.937a2.924,2.924,0,0,0,.531-.967.858.858,0,0,1,1.232-.613" transform="translate(16322 14135)" fill="#353738"/>
    <path id="Path_144819" data-name="Path 144819" d="M982.19,189.935a9.875,9.875,0,0,1,.008-1.075c.05-.454-.1-.61-.537-.565-.191.02-.517.181-.533-.283-.014-.366.039-.553.465-.528.737.039,1.478.027,2.216,0,.333-.013.364.139.371.425.009.314-.084.41-.39.406-.676-.011-.677.009-.677.689,0,.737-.023,1.471.009,2.2.017.42-.218.375-.468.372s-.506.065-.472-.366.008-.852.008-1.28" transform="translate(16322 14135)" fill="#353738"/>
    <path id="Path_144820" data-name="Path 144820" d="M1032.04,189.951c0-.428-.018-.855.006-1.281.016-.3-.092-.4-.365-.365-.129.016-.264-.009-.393.005-.287.035-.329-.134-.313-.375.014-.211-.064-.454.293-.446q1.232.027,2.465,0c.317-.006.283.192.284.4,0,.229.029.421-.312.429-.762.019-.762.039-.762.863,0,.684-.017,1.37.01,2.051.016.382-.194.363-.433.351s-.515.093-.486-.35c.028-.425.006-.852.006-1.281" transform="translate(16322 14135)" fill="#353738"/>
    <path id="Path_144821" data-name="Path 144821" d="M1011.284,189.944a8.538,8.538,0,0,1,.006-.973c.058-.511-.084-.77-.621-.664-.383.076-.484-.113-.455-.486.018-.231.068-.335.31-.332.821.013,1.643.017,2.463,0,.326-.007.274.207.272.406s.059.4-.264.421c-.809.064-.807.081-.807.917,0,.667-.019,1.334.006,2,.014.378-.194.359-.436.35s-.51.075-.481-.357.007-.853.007-1.281" transform="translate(16322 14135)" fill="#353738"/>
    <path id="Path_144822" data-name="Path 144822" d="M1027.16,189.564c0,.563-.017,1.128.006,1.69.015.407-.244.329-.46.325s-.477.1-.471-.313c.014-1.143.021-2.289,0-3.432-.009-.447.263-.333.488-.339s.465-.077.446.328c-.028.578-.007,1.16-.007,1.741" transform="translate(16322 14135)" fill="#353738"/>
    <path id="Path_144823" data-name="Path 144823" d="M1021.448,189.512c0,.582-.017,1.164.007,1.745.016.413-.248.317-.461.32s-.461.075-.454-.327c.018-1.145.019-2.293,0-3.438-.007-.413.249-.314.459-.316s.473-.088.455.323c-.025.562-.006,1.129-.006,1.693" transform="translate(16322 14135)" fill="#353738"/>
    <path id="Path_144824" data-name="Path 144824" d="M1021.068,173.732c.88,0,.885,0,.879.9-.006.825.112.7-.724.709-1.115.007-1.1,0-1.112-1.135-.005-.38.087-.54.465-.483a3.1,3.1,0,0,0,.492,0" transform="translate(16322 14135)" fill="#353738"/>
    <path id="Path_144825" data-name="Path 144825" d="M1018.369,173.732c.9,0,.9,0,.9.93-.005.776.1.674-.643.684a.8.8,0,0,1-.1,0c-.352-.037-.878.172-1.016-.094a3.24,3.24,0,0,1-.076-1.294c-.005-.185.1-.229.25-.227.229,0,.458,0,.687,0" transform="translate(16322 14135)" fill="#353738"/>
    <path id="Path_144826" data-name="Path 144826" d="M1000.57,175.452c-.933,0-.936,0-.93-.957.006-.723-.093-.64.637-.647.049,0,.1,0,.147,0,.337.036.816-.167.979.092.219.349.057.861.07,1.3.006.19-.118.215-.263.213-.214,0-.427,0-.64,0" transform="translate(16322 14135)" fill="#353738"/>
    <path id="Path_144827" data-name="Path 144827" d="M997.911,173.847c.891,0,.861,0,.9.944.023.528-.111.764-.636.66a.64.64,0,0,0-.1,0c-1.13,0-1.118,0-1.117-1.173,0-.327.074-.478.408-.435a4.053,4.053,0,0,0,.54,0" transform="translate(16322 14135)" fill="#353738"/>
    <path id="Path_144828" data-name="Path 144828" d="M1032.3,175.463c-.92,0-.892,0-.935-.965-.023-.51.1-.743.613-.638a.721.721,0,0,0,.147,0c1.082,0,1.065,0,1.081,1.123.005.376-.083.543-.462.483a2.859,2.859,0,0,0-.444,0" transform="translate(16322 14135)" fill="#353738"/>
    <path id="Path_144829" data-name="Path 144829" d="M1004.969,173.861c.882,0,.882,0,.882.905,0,.7,0,.7-.784.7-1.028,0-1,0-1.036-1.057-.015-.464.115-.62.544-.549a2.252,2.252,0,0,0,.394,0" transform="translate(16322 14135)" fill="#353738"/>
  </g>
</svg>
