<svg xmlns="http://www.w3.org/2000/svg" xmlns:xlink="http://www.w3.org/1999/xlink" width="59.828" height="61.515" viewBox="0 0 59.828 61.515">
  <defs>
    <clipPath id="clip-path">
      <path id="Path_143612" data-name="Path 143612" d="M789.514,578.072a.9.9,0,0,0-.242.05c-.366.141-.724.3-1.095.424-.306.1-.626.143-.939.225-.054.015-.094.1-.14.149.22.044.371.046.368.315,0,.114.12.241.205.344a1.371,1.371,0,0,0,.239.175c.474.374.475.561.034.992-.159.156-.288.349-.446.513a.468.468,0,0,1-.256.131,2.577,2.577,0,0,1-.5,0c-.152-.013-.226.082-.295.2-.175.287-.334.585-.52.861s-.307.283-.629.162c-.411-.154-.834-.272-1.244-.428a.726.726,0,0,1-.274-.261,1.352,1.352,0,0,1-.115-.308c-.065.092-.117.161-.169.236a3.512,3.512,0,0,0-.7,1.243,1,1,0,0,1-.1.306.248.248,0,0,1-.19.11c-.053,0-.114-.082-.15-.14a4.05,4.05,0,0,0-.388-.628,1.764,1.764,0,0,1-.561-.92c-.024-.159-.051-.316-.072-.475a.618.618,0,0,0-.627-.6c-.171,0-.244.07-.252.261a3.384,3.384,0,0,0,.214,1.274,6.966,6.966,0,0,0,.737,1.718,3.867,3.867,0,0,1,.515.911c.283.855.5,1.73.768,2.592a11.628,11.628,0,0,0,.535,1.544c.3.637.667,1.237,1.01,1.85.189.336.194.334-.206.413.028.153.048.309.084.459.018.075.074.141.1.212a1.871,1.871,0,0,0,.1.37c.4.659.789,1.318,1.215,1.954a3.3,3.3,0,0,1,.637,1.846c0,.716.016,1.429.034,2.142a3.481,3.481,0,0,0,.583,2.072,7.988,7.988,0,0,1,.654.817c.4.719.777,1.453,1.107,2.21a2.937,2.937,0,0,1,.124.959.748.748,0,0,0,.426.641,1.542,1.542,0,0,1,.557.467,8.467,8.467,0,0,1,.544,1.193c.141.354.154.376.535.389a.61.61,0,0,1,.586.247,7.1,7.1,0,0,0,1.53,1.622.306.306,0,0,1,.119.212,1.665,1.665,0,0,0,.666,1.273,2.744,2.744,0,0,1,.852.995c.005.013.035.014.114.037a1.342,1.342,0,0,0-.1-.487,4.376,4.376,0,0,0-.608-.647,1.736,1.736,0,0,1-.691-1.228.759.759,0,0,0-.455-.632,3.36,3.36,0,0,1-1.137-1.1,1.047,1.047,0,0,0-1.011-.558.249.249,0,0,1-.189-.118,8.871,8.871,0,0,1-.374-1.034,1.2,1.2,0,0,0-.877-.872.266.266,0,0,1-.22-.243,1.01,1.01,0,0,1-.017-.239,2.266,2.266,0,0,0-.293-1.247c-.064-.126-.119-.261-.182-.389a9,9,0,0,0-1.239-2.084,2.834,2.834,0,0,1-.738-1.872c-.006-.611-.014-1.224-.011-1.835a4.391,4.391,0,0,0-.448-2.187c-.264-.489-.612-.932-.9-1.409a2.819,2.819,0,0,1-.679-1.618c.16.012.328.024.53.036-.047-.086-.076-.143-.106-.2a15.262,15.262,0,0,1-1-1.712,13.047,13.047,0,0,1-.652-1.545c-.21-.792-.472-1.569-.73-2.348a13.7,13.7,0,0,0-.529-1.387c-.163-.35-.432-.65-.584-1-.223-.518-.392-1.066-.564-1.607-.082-.26-.117-.539-.182-.856.218.077.422.005.489.223s.107.462.176.687a2.653,2.653,0,0,0,.235.632c.206.337.459.638.684.96.114.164.214.341.336.54a2.781,2.781,0,0,0,.619-1.35.587.587,0,0,1,.37-.485.164.164,0,0,1,.156.039.413.413,0,0,1-.072.527,2.585,2.585,0,0,0-.66,1.28.274.274,0,0,0,.177.367,6.523,6.523,0,0,1,.815.336,2.974,2.974,0,0,1,.956.657,4.7,4.7,0,0,1,.543,1.235c.181.485.306.994.505,1.47.263.63.559,1.246.868,1.854a9.771,9.771,0,0,0,.807,1.4,9.545,9.545,0,0,0,1.041,1.1.892.892,0,0,1,.32.7c-.024.456-.064.914-.065,1.372a2.067,2.067,0,0,0,.093,1.09,2.237,2.237,0,0,1,.151.471,2.63,2.63,0,0,0,.249.863,3.242,3.242,0,0,0,1.409,1.277,1.155,1.155,0,0,1,.73.786,14.28,14.28,0,0,0,.478,1.528,3.082,3.082,0,0,0,.594,1.034,17.323,17.323,0,0,1,1.2,1.584,3.045,3.045,0,0,1,.522,1.824,6.942,6.942,0,0,0,.063,1.886c.068.293.028.61.253.852a.438.438,0,0,1,.082.222c.077.5.171,1,.212,1.507a4.059,4.059,0,0,0,.4,1.314c.14.322.258.368.568.228a4.991,4.991,0,0,0,.594-.318c.31-.2.3-.193.6,0a2.961,2.961,0,0,0,.518.2c.059-.208.1-.352.143-.5a1.052,1.052,0,0,1,.664-.775,6.992,6.992,0,0,1,.863-.256c.35-.07.707-.105,1.06-.151a3.9,3.9,0,0,0,1.509-.714c.687-.438,1.369-.887,2.062-1.312a8.432,8.432,0,0,1,1.86-.835,6.418,6.418,0,0,1,1.529-.548,1.7,1.7,0,0,0,.5-.146.9.9,0,0,0,.61-.91c0-.169-.019-.335-.019-.5,0-.33.04-.532.536-.462a1.588,1.588,0,0,0,.56.022,7.5,7.5,0,0,0,.824-.336,4.934,4.934,0,0,0,1.114-.707c.2-.147.37-.351.562-.514a12.209,12.209,0,0,0,1.7-1.73c.241-.3.5-.6.771-.883a1.811,1.811,0,0,1,1.09-.5.941.941,0,0,0,.661-.347,1.094,1.094,0,0,1-.2-.163c-.084-.106-.213-.229-.205-.338a14.224,14.224,0,0,1,.159-1.622c.053-.3.243-.315.446-.081.061.07.105.154.162.225a1.432,1.432,0,0,0,.157.145l.049-.027c-.016-.073-.028-.151-.045-.223a1.371,1.371,0,0,1,.054-1.094c.149-.237.289-.476.429-.72a1.242,1.242,0,0,1,.578-.574.886.886,0,0,0,.577-1.044c-.04-.306-.157-.445-.455-.468a.836.836,0,0,1-.4-.142,2.422,2.422,0,0,1-.423-.418c-.239-.285-.462-.583-.7-.864a.3.3,0,0,0-.187-.1c-.517-.048-1.033-.1-1.552-.122a.8.8,0,0,1-.759-.392,3.009,3.009,0,0,1-.551-1.406c-.046-.652-.056-1.308-.08-1.963,0-.141,0-.294-.157-.344a.321.321,0,0,0-.419.152,10.283,10.283,0,0,0-.532,1.053,2.7,2.7,0,0,1-.8,1.172,1.82,1.82,0,0,0-.707,1.166.4.4,0,0,1-.35.363c-.279.069-.561.125-.842.186-.512.111-1.027.211-1.535.337a5.116,5.116,0,0,0-.6.234c-.271.1-.4.026-.457-.261-.024-.105-.039-.211-.06-.336-.135.014-.259.036-.382.036-.075,0-.206-.033-.209-.058a.621.621,0,0,1,.051-.3c.02-.047.117-.053.156-.1.11-.133.276-.265.3-.413a1.959,1.959,0,0,0-.088-.7c-.062-.252-.168-.49-.25-.737-.035-.1-.009-.181.116-.206.189-.037.263-.155.234-.358s-.165-.215-.308-.2c-.22.033-.324-.071-.352-.286a1.074,1.074,0,0,0-.029-.122c-.029-.008-.058-.02-.087-.031a1.341,1.341,0,0,0-.085.284.991.991,0,0,1-.237.631.811.811,0,0,0-.2.723,4.161,4.161,0,0,1,.037.651.714.714,0,0,1-.11.246c-.074-.043-.154-.077-.223-.126a.462.462,0,0,1-.087-.122c-.2-.3-.4-.609-.6-.914a.759.759,0,0,1-.1-.719,1.241,1.241,0,0,0,.063-.575,1.345,1.345,0,0,0-.447-1.011,3.378,3.378,0,0,1-.741-.635,2.69,2.69,0,0,1-.753-1.6c-.008-.348-.073-.406-.4-.41-.1,0-.2,0-.293,0a5.818,5.818,0,0,1-.591-.012.775.775,0,0,1-.428-.178c-.2-.176-.354-.409-.547-.6a.557.557,0,0,0-.331-.18c-.857.01-1.713.029-2.568.08-.324.018-.589.018-.707-.359-.012-.037-.054-.065-.083-.1-.479-.565-.949-1.137-1.443-1.687a1.574,1.574,0,0,0-.718-.547.665.665,0,0,1-.338-.259c-.222-.33-.465-.6-.9-.553a.234.234,0,0,1-.155-.055,6.269,6.269,0,0,1-1.365-1.176.559.559,0,0,0-.318-.23,7.181,7.181,0,0,0-1.408-.167c-.12,0-.241,0-.362.016" fill="none"/>
    </clipPath>
    <linearGradient id="linear-gradient" x1="-20.533" y1="15.044" x2="-20.507" y2="15.044" gradientUnits="objectBoundingBox">
      <stop offset="0" stop-color="#469b51"/>
      <stop offset="0.005" stop-color="#469b51"/>
      <stop offset="0.463" stop-color="#417d46"/>
      <stop offset="1" stop-color="#004423"/>
    </linearGradient>
  </defs>
  <g id="Client_67" transform="translate(-17090.25 -14694.692)">
    <g id="Group_124779" data-name="Group 124779" transform="translate(16322 14135)">
      <g id="Group_124778" data-name="Group 124778" clip-path="url(#clip-path)">
        <rect id="Rectangle_17533" data-name="Rectangle 17533" width="38.008" height="33.366" transform="translate(780.427 578.056)" fill="url(#linear-gradient)"/>
      </g>
    </g>
    <path id="Path_143613" data-name="Path 143613" d="M770.321,596.981a.9.9,0,0,0,.153-.013.809.809,0,0,0,.615-.508c.042-.112.079-.216.116-.322.027-.078.054-.155.084-.232.106-.29.166-.362.318-.39a.3.3,0,0,1,.36.275.525.525,0,0,1-.127.413.985.985,0,0,1-.414.3l-.035.017.03.185.884-.15-.03-.191-.039,0c-.089-.008-.091-.02-.1-.046a.475.475,0,0,1,.014-.131,1.127,1.127,0,0,0,.022-.435.722.722,0,0,0-.9-.667c-.409.07-.577.348-.7.746l-.031.092a2.491,2.491,0,0,1-.136.357.362.362,0,0,1-.252.221.342.342,0,0,1-.418-.32.55.55,0,0,1,.169-.492,1.213,1.213,0,0,1,.468-.278l.036-.016-.029-.189-.993.166.03.19h.04c.087,0,.09.021.092.039a.534.534,0,0,1-.013.128,1.307,1.307,0,0,0-.019.478.951.951,0,0,0,.328.609.761.761,0,0,0,.477.163" transform="translate(16322 14135)"/>
    <path id="Path_143614" data-name="Path 143614" d="M770.586,599.985c-.026-.241,0-.269.15-.309l1.7-.448c.152-.039.2-.02.276.195l.014.043.18-.046-.289-1.188-.012-.05-.18.048.008.047c.035.221.012.267-.155.311l-.675.177-.173-.71.677-.177c.16-.044.206-.017.275.2l.016.045.179-.049-.286-1.176-.013-.05-.179.048.007.045c.032.213.01.254-.156.3l-1.7.447c-.151.038-.184.032-.27-.185l-.016-.041-.178.047.3,1.224.178-.047-.005-.045c-.03-.242,0-.27.15-.309l.761-.2.173.71-.761.2c-.15.037-.191.023-.274-.2l-.016-.042-.179.045.289,1.187.012.05.179-.048Z" transform="translate(16322 14135)"/>
    <path id="Path_143615" data-name="Path 143615" d="M771.088,601.5c-.06-.243-.044-.281.147-.349l1.628-.573c.157-.055.216-.038.3.191l.018.044.177-.062-.388-1.2-.016-.049-.176.062.01.046c.059.237.027.281-.127.335l-1.63.573c-.179.065-.221.043-.318-.178l-.018-.041-.177.059.388,1.2.016.046.177-.06Z" transform="translate(16322 14135)"/>
    <path id="Path_143616" data-name="Path 143616" d="M772.5,603.595a.716.716,0,0,0,.405-.746.527.527,0,0,0,.657.155.56.56,0,0,0,.314-.314,1.089,1.089,0,0,0-.072-.793l-.426-1.06-.171.074.013.046c.065.2.041.263-.132.337l-1.576.688c-.156.066-.2.064-.313-.145l-.022-.039-.17.073.442,1.1c.177.438.467.682.784.682a.648.648,0,0,0,.267-.057m-.26-.643a.6.6,0,0,1-.453.053.306.306,0,0,1-.162-.181c-.042-.1-.035-.165.115-.229l.781-.341.015.035a.456.456,0,0,1-.3.663m.474-.784.693-.3c.1-.048.149-.027.191.074.027.068.109.271-.309.454-.281.122-.425.117-.575-.227" transform="translate(16322 14135)"/>
    <path id="Path_143617" data-name="Path 143617" d="M773.411,606.164l1.545-.861c.141-.078.2-.073.312.117l.025.04.163-.091-.555-1.079-.023-.045-.164.091.018.044c.087.2.075.255-.077.34l-.614.34-.333-.644.615-.344c.149-.083.2-.067.313.122l.025.04.163-.091-.55-1.071-.023-.045-.163.091.017.043c.079.2.067.243-.083.327l-1.544.864c-.138.077-.173.078-.307-.115l-.025-.036-.161.09.551,1.07.023.046.162-.091-.015-.042c-.086-.226-.066-.261.072-.339l.692-.385.333.643-.693.386c-.133.075-.178.075-.311-.124l-.025-.037-.162.091.555,1.08.023.045.161-.092-.014-.042c-.082-.228-.063-.26.074-.336" transform="translate(16322 14135)"/>
    <path id="Path_143618" data-name="Path 143618" d="M775.609,609.053l1.115-1.784.019-.031-.094-.135-2.08.6c-.351.1-.41.093-.5,0l-.029-.028-.146.109.42.611.03.041.15-.116-.023-.039c-.118-.2-.078-.229-.049-.251a1.032,1.032,0,0,1,.267-.1l.159-.049.4.573a1.687,1.687,0,0,1-.283.389c-.029.022-.049.039-.122-.048l-.1-.117-.148.112.683.987.156-.116-.03-.042c-.057-.081-.053-.147.211-.569m.189-1.462-.411.646-.3-.429Z" transform="translate(16322 14135)"/>
    <path id="Path_143619" data-name="Path 143619" d="M776.385,610.538l1.281-1.159c.206-.188.242-.186.423.012l.033.035.141-.128-.827-.984-.141.127.028.037c.124.17.122.222-.013.343l-1.319,1.2c-.121.107-.151.117-.324-.043l-.033-.031-.138.126,1.292,1.546.028.032.8-.51-.123-.149-.031.012a1.573,1.573,0,0,1-.559.123.653.653,0,0,1-.489-.29c-.071-.084-.1-.144-.1-.189,0-.02.009-.052.068-.106" transform="translate(16322 14135)"/>
    <path id="Path_143620" data-name="Path 143620" d="M780.249,612.094c.167-.187.214-.2.384-.055l.035.031.128-.144-.933-.891-.128.144.034.036c.186.192.178.242.062.372l-1.36,1.542c-.084.1-.152.145-.209.148h0a.153.153,0,0,1-.1-.048.136.136,0,0,1-.045-.078l.018-.044a.131.131,0,0,1,.082-.04.3.3,0,0,0,.148-.082.372.372,0,0,0,.09-.258.279.279,0,0,0-.083-.2.307.307,0,0,0-.426.044.624.624,0,0,0-.119.509.746.746,0,0,0,.221.346.735.735,0,0,0,.5.234.888.888,0,0,0,.638-.364Z" transform="translate(16322 14135)"/>
    <path id="Path_143621" data-name="Path 143621" d="M781.769,612.717l.009-.033-.127-.106-1.838,1.18c-.31.2-.372.2-.481.144l-.036-.018-.112.147.566.464.039.031.115-.152-.033-.031c-.166-.159-.136-.2-.114-.228a1.082,1.082,0,0,1,.232-.177l.137-.088.535.435a1.7,1.7,0,0,1-.168.455c-.023.029-.035.052-.13-.012l-.129-.083-.114.151.882.721.039.032.117-.157-.039-.032c-.076-.06-.091-.127.053-.607Zm-1.428.988.623-.413-.223.74Z" transform="translate(16322 14135)"/>
    <path id="Path_143622" data-name="Path 143622" d="M783.671,616.118l-.149-.1-.046.04c-.237.207-.345.3-.559.323a1.02,1.02,0,0,1-.613-.244l-.163-.11,2.228-1.243.012-.006.066-.105-1.5-1.013-.037-.023-.536.7.156.1.028-.026c.4-.359.525-.341.948-.082l.163.1-2.232,1.238-.012.006-.065.1,1.658,1.118.037.026.585-.76Z" transform="translate(16322 14135)"/>
    <path id="Path_143623" data-name="Path 143623" d="M784.458,617.212l.831-1.565c.078-.153.135-.179.344-.072l.042.023.091-.171-1.062-.611-.044-.025-.09.17.039.026c.2.133.2.189.122.338l-.831,1.569c-.094.176-.137.185-.352.09l-.04-.018-.09.168,1.062.611.043.025.09-.169-.038-.028c-.2-.134-.215-.175-.117-.361" transform="translate(16322 14135)"/>
    <path id="Path_143624" data-name="Path 143624" d="M787.15,617.427a.7.7,0,0,0,.344-.369.619.619,0,0,0-.033-.6,1.479,1.479,0,0,0-.625-.486l-.931-.444-.044-.023-.076.176.039.025c.181.1.207.146.092.406l-.658,1.49c-.111.254-.13.246-.352.175l-.041-.014-.077.173,1.068.512.043.02.077-.173-.035-.024c-.2-.136-.209-.152-.108-.382l.277-.631.016.007.145,1.354,0,.028.69.33.078-.18-.044-.02a.134.134,0,0,1-.07-.1l-.164-1.2a.745.745,0,0,0,.386-.046m-.584-1.2a.129.129,0,0,1,.057-.075.161.161,0,0,1,.106.02c.254.121.293.293.143.633-.168.379-.327.4-.671.246Z" transform="translate(16322 14135)"/>
    <path id="Path_143625" data-name="Path 143625" d="M789.291,619.079l-.069-2.129v-.035l-.152-.055-1.373,1.735c-.233.3-.287.317-.408.3l-.041-.006-.061.176.729.265.06-.184-.042-.019c-.2-.092-.19-.141-.178-.175a1.2,1.2,0,0,1,.169-.251l.1-.126.642.234a1.753,1.753,0,0,1-.018.487c-.011.034-.017.062-.126.033l-.148-.036-.06.183,1.1.4.064-.187-.047-.015c-.092-.033-.127-.09-.141-.594m-.63-.538-.48-.174.461-.6Z" transform="translate(16322 14135)"/>
    <path id="Path_143626" data-name="Path 143626" d="M793.311,618.069c-.081.131-.1.125-.126.119a.389.389,0,0,1-.122-.075,1.246,1.246,0,0,0-.5-.25,1.085,1.085,0,0,0-.931.225,1.588,1.588,0,0,0-.529.942,1.48,1.48,0,0,0,.131,1.013,1.152,1.152,0,0,0,.793.568,1.325,1.325,0,0,0,.277.032,1.148,1.148,0,0,0,.812-.386l.034-.03-.135-.192-.041.03a1.442,1.442,0,0,1-.391.25.72.72,0,0,1-.409.037.533.533,0,0,1-.386-.351,1.723,1.723,0,0,1,0-.908,1.463,1.463,0,0,1,.47-.929.381.381,0,0,1,.3-.068.661.661,0,0,1,.443.425,1.285,1.285,0,0,1,.128.459l0,.037.165.035.193-.974-.168-.037Z" transform="translate(16322 14135)"/>
    <path id="Path_143627" data-name="Path 143627" d="M794.941,618.245a1.413,1.413,0,0,0-.307,2.787,1.323,1.323,0,0,0,.14.006,1.145,1.145,0,0,0,.78-.3,1.637,1.637,0,0,0,.169-2.057,1.136,1.136,0,0,0-.782-.437m.373,1.481c-.052.5-.2,1.081-.6,1.081a.415.415,0,0,1-.05,0,.426.426,0,0,1-.363-.313,2.043,2.043,0,0,1-.057-.892,2.247,2.247,0,0,1,.237-.881.435.435,0,0,1,.367-.254l.042,0c.354.04.506.489.425,1.26" transform="translate(16322 14135)"/>
    <path id="Path_143628" data-name="Path 143628" d="M797.818,618.648l.044.006c.209.024.262.062.259.354l-.011.985-1.057-1.524-.015-.02-.774-.008,0,.2h.048c.036,0,.1.029.233.242l-.019,1.773c0,.206-.033.238-.253.267l-.043.005,0,.192.851.01,0-.193-.044-.006c-.228-.033-.269-.087-.266-.356l.014-1.354,1.379,1.966.015.022.166,0,.023-2.284c0-.213.027-.231.221-.261l.041-.008,0-.19-.81-.006Z" transform="translate(16322 14135)"/>
    <path id="Path_143629" data-name="Path 143629" d="M800.852,618.282l-2.086.174.052.812,0,.052.189-.016,0-.043c.02-.413.151-.584.5-.639l.149,1.944c.019.255,0,.277-.255.321l-.044.008.015.194,1.281-.107-.015-.192h-.055c-.257,0-.273-.02-.292-.277l-.149-1.946h.008c.341,0,.495.151.576.55l.009.044.189-.016-.07-.812Z" transform="translate(16322 14135)"/>
    <path id="Path_143630" data-name="Path 143630" d="M803.712,620.3a.126.126,0,0,1-.113-.041l-.784-.891a.792.792,0,0,0,.293-.266.72.72,0,0,0,.082-.506.588.588,0,0,0-.355-.479,1.4,1.4,0,0,0-.778-.036l-1.058.188.031.191.045,0c.209-.019.252,0,.3.283l.267,1.616c.045.274.027.279-.2.351l-.041.012.031.19,1.205-.216-.03-.188-.044,0c-.239,0-.254-.005-.3-.252l-.113-.683.016,0,.873,1.056.747-.133-.031-.2Zm-1.348-1.948a.6.6,0,0,1,.176.4c.066.412-.051.522-.42.6l-.149-.892a.147.147,0,0,1,.009-.1.162.162,0,0,1,.1-.043.647.647,0,0,1,.11-.011.287.287,0,0,1,.176.051" transform="translate(16322 14135)"/>
    <path id="Path_143631" data-name="Path 143631" d="M806.206,619.609c-.094.029-.153,0-.438-.406l-1.212-1.717-.02-.028-.155.044-.192,2.238c-.031.38-.061.432-.175.491l-.036.017.048.183.743-.21-.049-.189-.045.01c-.22.045-.233-.005-.243-.04a1.12,1.12,0,0,1,0-.293l.012-.176.656-.184a1.711,1.711,0,0,1,.251.412c.008.036.015.061-.087.1l-.142.058.048.187,1.129-.32-.05-.19Zm-1.249-.479-.491.14.054-.768Z" transform="translate(16322 14135)"/>
    <path id="Path_143632" data-name="Path 143632" d="M808.269,618.338a1.62,1.62,0,0,1-.2.429.762.762,0,0,1-.329.257.525.525,0,0,1-.507-.086,1.683,1.683,0,0,1-.458-.773,1.869,1.869,0,0,1-.127-.864.474.474,0,0,1,.277-.408.619.619,0,0,1,.591.116,1.237,1.237,0,0,1,.343.318l.022.031.158-.063-.333-.935-.162.062v.036c0,.152-.022.16-.046.17a.4.4,0,0,1-.141,0,1.272,1.272,0,0,0-.553.064,1.341,1.341,0,0,0-.646,1.8,1.407,1.407,0,0,0,.628.786,1.054,1.054,0,0,0,.515.133,1.214,1.214,0,0,0,.446-.087,1.149,1.149,0,0,0,.745-.9l.012-.044-.213-.09Z" transform="translate(16322 14135)"/>
    <path id="Path_143633" data-name="Path 143633" d="M810.449,617.807c-.25.1-.27.092-.378-.145l-.807-1.759c.322-.134.52-.052.734.295l.023.037.172-.084-.365-.781-1.846.916-.044.021.347.788.173-.085-.014-.043c-.123-.389-.06-.6.245-.78l.807,1.762c.106.229.1.255-.127.394l-.038.025.079.172,1.161-.575-.08-.176Z" transform="translate(16322 14135)"/>
    <path id="Path_143634" data-name="Path 143634" d="M812.181,616.818c-.22.109-.258.1-.357-.085l-.85-1.558c-.081-.148-.074-.211.123-.339l.041-.028-.093-.17-1.1.65.092.167.041-.021c.209-.1.258-.081.341.07l.848,1.555c.1.176.082.22-.109.363l-.035.025.091.167,1.055-.621.043-.026-.092-.169Z" transform="translate(16322 14135)"/>
    <path id="Path_143635" data-name="Path 143635" d="M813.175,613.424l.031-.028-.1-.159-.673.468.1.159.039-.02c.187-.1.252-.1.406.142l.526.816-1.7-.637-.023-.01-.644.451.1.163.041-.029c.032-.022.1-.034.322.064l.946,1.474c.111.171.1.216-.064.371l-.031.028.1.158.707-.491-.1-.158-.039.019c-.2.108-.267.089-.412-.136l-.723-1.126,2.2.813.023.01.139-.1-1.218-1.9c-.115-.18-.1-.207.039-.348" transform="translate(16322 14135)"/>
    <path id="Path_143636" data-name="Path 143636" d="M816.1,612.866l.03-.031-.116-.15-.924.785-.038.033.118.15.037-.026c.221-.164.271-.141.367-.016l.207.262a.245.245,0,0,1-.043.389.472.472,0,0,1-.552.076,1.832,1.832,0,0,1-.652-.579c-.452-.574-.551-1.038-.276-1.274a.6.6,0,0,1,.451-.125,1.36,1.36,0,0,1,.574.223l.029.015.127-.109-.575-.73-.032-.039-.133.112.01.033c.047.147.029.159.01.178a.469.469,0,0,1-.133.05,1.159,1.159,0,0,0-.5.246,1.186,1.186,0,0,0-.415.892,1.56,1.56,0,0,0,.345,1,1.332,1.332,0,0,0,1.03.558,1.177,1.177,0,0,0,.763-.3,1.961,1.961,0,0,0,.584-.815l.008-.029-.29-.368c-.142-.181-.161-.257-.013-.415" transform="translate(16322 14135)"/>
    <path id="Path_143637" data-name="Path 143637" d="M818.947,610.493l-.229.02,0,.051a1.665,1.665,0,0,1,0,.478.82.82,0,0,1-.183.384.525.525,0,0,1-.491.157,1.592,1.592,0,0,1-.741-.476c-.487-.472-.65-.948-.416-1.207a.649.649,0,0,1,.58-.172,1.232,1.232,0,0,1,.443.125l.032.016.115-.127-.7-.682-.119.132.015.031c.064.137.049.156.031.174a.382.382,0,0,1-.124.069,1.278,1.278,0,0,0-.465.313,1.354,1.354,0,0,0,.2,1.907,1.326,1.326,0,0,0,.918.41,1.144,1.144,0,0,0,.86-.407,1.189,1.189,0,0,0,.278-1.151Z" transform="translate(16322 14135)"/>
    <path id="Path_143638" data-name="Path 143638" d="M820.063,607.729a1.211,1.211,0,0,0-1.809.141,1.331,1.331,0,0,0,.315,1.886,1.419,1.419,0,0,0,.876.335,1.146,1.146,0,0,0,.933-.493,1.26,1.26,0,0,0,.24-.97,1.484,1.484,0,0,0-.555-.9m.145,1.723a.391.391,0,0,1-.272.166q-.031,0-.063,0A1.58,1.58,0,0,1,819,609.2c-.58-.464-.8-.888-.591-1.163.215-.295.664-.2,1.255.278a1.985,1.985,0,0,1,.574.65.453.453,0,0,1-.03.49" transform="translate(16322 14135)"/>
    <path id="Path_143639" data-name="Path 143639" d="M822.733,605.388c-.139.192-.183.187-.4.048l-1.339-.846c-.213-.134-.23-.183-.133-.385l.02-.042-.159-.1-.477.817,1.073,1.45-1.7-.32-.033-.006-.454.779-.025.044.158.1.027-.038c.136-.191.182-.191.319-.1l1.468.927c.179.112.186.14.085.367l-.019.04.157.1.43-.735.025-.044-.159-.1-.026.038c-.142.2-.214.219-.435.079l-1.229-.776,2.065.387.083-.141-1.314-1.749,1.322.835c.162.1.189.147.091.363l-.019.042.158.1.6-1.026.025-.044-.158-.1Z" transform="translate(16322 14135)"/>
    <path id="Path_143640" data-name="Path 143640" d="M823.384,603.953c-.133.209-.147.212-.347.112l-.591-.291a1.781,1.781,0,0,0,.216-.659.725.725,0,0,0-.411-.732c-.415-.207-.787,0-1.048.57l-.471,1.029.167.083.023-.041c.1-.18.141-.2.38-.082l1.412.7c.172.084.224.137.221.228a.482.482,0,0,1-.033.138l-.013.043.165.083.519-1.133-.165-.082Zm-2-.841a.315.315,0,0,1,.164-.178.3.3,0,0,1,.094-.014.89.89,0,0,1,.362.109c.325.162.383.306.242.645l-.841-.416a.07.07,0,0,1-.041-.046.176.176,0,0,1,.02-.1" transform="translate(16322 14135)"/>
    <path id="Path_143641" data-name="Path 143641" d="M824.584,600.891c-.034.1-.089.129-.572.13l-2.048.01h-.035l-.056.156,1.627,1.478c.276.251.3.308.278.435l-.008.042.17.069.273-.75-.173-.07-.02.043c-.1.209-.14.2-.174.181a.94.94,0,0,1-.225-.175l-.13-.113.242-.661h.058a1.371,1.371,0,0,1,.411.033c.032.014.056.023.029.132l-.04.152.173.07.416-1.138-.178-.07Zm-1.107.77-.181.494-.564-.5Z" transform="translate(16322 14135)"/>
    <path id="Path_143642" data-name="Path 143642" d="M823.217,597.561l0-.043-.176-.051-.2.764-.013.05.178.051.016-.042c.076-.206.128-.247.395-.169l.91.26-1.684.673-.024.01-.191.729-.014.049.182.053.013-.049c.01-.035.05-.091.283-.172l1.644.473c.19.055.212.094.182.322l-.005.044.177.051.212-.8.014-.05-.178-.049-.016.041c-.09.221-.149.248-.4.175l-1.255-.359,2.2-.894.046-.168-2.114-.606c-.2-.058-.208-.087-.188-.29" transform="translate(16322 14135)"/>
    <path id="Path_143643" data-name="Path 143643" d="M825.723,595.969l-.011.045c-.065.241-.094.261-.351.213l-.629-.115-1-.848a.245.245,0,0,1-.083-.218V595l-.181-.033-.142.852.183.033.011-.045c.058-.236.084-.234.143-.223a.943.943,0,0,1,.322.2l.5.428-.812.231a1.146,1.146,0,0,1-.2.042h-.005c-.037-.009-.046-.01-.033-.15l.013-.139-.184-.036-.209,1.246.183.033.012-.048a.311.311,0,0,1,.227-.207l1.273-.394.479.087c.254.047.3.075.277.331l0,.046.183.034.216-1.284Z" transform="translate(16322 14135)"/>
    <path id="Path_143644" data-name="Path 143644" d="M769.008,585.907a.381.381,0,0,0-.3.057.4.4,0,0,0-.162.27.41.41,0,0,0,.057.31.4.4,0,0,0,.264.167.372.372,0,0,0,.3-.058.393.393,0,0,0,.161-.267.416.416,0,0,0-.057-.313.381.381,0,0,0-.26-.166" transform="translate(16322 14135)"/>
    <path id="Path_143645" data-name="Path 143645" d="M769.255,584.532a.381.381,0,0,0-.3.058.389.389,0,0,0-.161.265.416.416,0,0,0,.057.315.4.4,0,0,0,.263.167.376.376,0,0,0,.3-.059.4.4,0,0,0,.161-.269.407.407,0,0,0-.057-.311.385.385,0,0,0-.26-.166" transform="translate(16322 14135)"/>
    <path id="Path_143646" data-name="Path 143646" d="M772.119,581.733l-2.661-1a.6.6,0,0,0-.265-.058,8.708,8.708,0,0,0-.943.472l3.6,1.359Z" transform="translate(16322 14135)"/>
    <path id="Path_143647" data-name="Path 143647" d="M774.343,580.621l-5.24-1.977q.085.326.167.649a.733.733,0,0,0,.434.448l4.109,1.549a.877.877,0,0,1,.387.275.454.454,0,0,1,.094.452.415.415,0,0,1-.349.282.879.879,0,0,1-.466-.052l-.876-.33-.267.767,1.138.43a1.24,1.24,0,0,0,.98-.063,1.216,1.216,0,0,0,.686-.714,1.446,1.446,0,0,0-.8-1.716" transform="translate(16322 14135)"/>
    <path id="Path_143648" data-name="Path 143648" d="M786.481,562.072a.367.367,0,0,0-.306,0,.386.386,0,0,0-.222.215.415.415,0,0,0,0,.317.4.4,0,0,0,.207.238.364.364,0,0,0,.3,0,.39.39,0,0,0,.225-.214.425.425,0,0,0,0-.323.4.4,0,0,0-.206-.234" transform="translate(16322 14135)"/>
    <path id="Path_143649" data-name="Path 143649" d="M787.414,562.332a.369.369,0,0,0,.3,0,.387.387,0,0,0,.226-.217.418.418,0,0,0-.005-.32.394.394,0,0,0-.205-.234.381.381,0,0,0-.307,0,.393.393,0,0,0-.221.215.424.424,0,0,0,0,.319.407.407,0,0,0,.208.237" transform="translate(16322 14135)"/>
    <path id="Path_143650" data-name="Path 143650" d="M795.136,565.75a.374.374,0,0,0-.3-.068.386.386,0,0,0-.263.159.418.418,0,0,0-.063.313.41.41,0,0,0,.152.278.364.364,0,0,0,.3.068.381.381,0,0,0,.265-.159.431.431,0,0,0,.063-.313.419.419,0,0,0-.151-.278" transform="translate(16322 14135)"/>
    <path id="Path_143651" data-name="Path 143651" d="M793.81,565.965a.408.408,0,0,0-.561.092.465.465,0,0,0,.088.59.369.369,0,0,0,.3.067.378.378,0,0,0,.262-.159.426.426,0,0,0,.065-.313.406.406,0,0,0-.153-.277" transform="translate(16322 14135)"/>
    <path id="Path_143652" data-name="Path 143652" d="M796.709,561.588a.371.371,0,0,0,.276-.13.462.462,0,0,0-.025-.6.369.369,0,0,0-.287-.1.381.381,0,0,0-.28.128.458.458,0,0,0,.025.594.363.363,0,0,0,.291.1" transform="translate(16322 14135)"/>
    <path id="Path_143653" data-name="Path 143653" d="M799.371,565.623a.374.374,0,0,0-.293.084.406.406,0,0,0-.139.283.428.428,0,0,0,.08.313.37.37,0,0,0,.27.143.363.363,0,0,0,.295-.084.42.42,0,0,0,.137-.288.414.414,0,0,0-.078-.3.382.382,0,0,0-.272-.146" transform="translate(16322 14135)"/>
    <path id="Path_143654" data-name="Path 143654" d="M820.835,572.1a.385.385,0,0,0,.288-.115.417.417,0,0,0,.142-.281.4.4,0,0,0-.106-.3.368.368,0,0,0-.557-.034.414.414,0,0,0-.144.287.4.4,0,0,0,.106.295.373.373,0,0,0,.271.146" transform="translate(16322 14135)"/>
    <path id="Path_143655" data-name="Path 143655" d="M819.945,571.058a.379.379,0,0,0,.289-.113.412.412,0,0,0,.141-.283.4.4,0,0,0-.106-.295.373.373,0,0,0-.272-.147.378.378,0,0,0-.284.112.419.419,0,0,0-.145.286.4.4,0,0,0,.106.3.377.377,0,0,0,.271.144" transform="translate(16322 14135)"/>
    <path id="Path_143656" data-name="Path 143656" d="M826.763,586.083q-.393.084-.309.516a.452.452,0,0,0,.168.283.365.365,0,0,0,.308.061.38.38,0,0,0,.258-.179.47.47,0,0,0,.046-.329q-.084-.435-.471-.352" transform="translate(16322 14135)"/>
    <path id="Path_143657" data-name="Path 143657" d="M828.067,585.5c-.056-.288-.213-.4-.472-.351s-.364.226-.308.514a.447.447,0,0,0,.167.284.36.36,0,0,0,.307.063.37.37,0,0,0,.259-.182.466.466,0,0,0,.047-.328" transform="translate(16322 14135)"/>
    <path id="Path_143658" data-name="Path 143658" d="M826.646,585.477a.366.366,0,0,0,.258-.178.456.456,0,0,0,.048-.327c-.057-.29-.214-.409-.473-.353s-.364.226-.307.516a.434.434,0,0,0,.167.282.368.368,0,0,0,.307.06" transform="translate(16322 14135)"/>
    <path id="Path_143659" data-name="Path 143659" d="M823.9,584.63h0" transform="translate(16322 14135)"/>
    <path id="Path_143660" data-name="Path 143660" d="M810.1,569.022a.368.368,0,0,0-.3-.042.393.393,0,0,0-.234.2.429.429,0,0,0-.046.318.394.394,0,0,0,.193.245.384.384,0,0,0,.3.045.414.414,0,0,0,.236-.208.429.429,0,0,0,.044-.316.409.409,0,0,0-.2-.245" transform="translate(16322 14135)"/>
    <path id="Path_143661" data-name="Path 143661" d="M814.6,566.87a.415.415,0,0,0,.306.092.383.383,0,0,0,.265-.171.4.4,0,0,0,.076-.314.439.439,0,0,0-.177-.274.357.357,0,0,0-.579.068.39.39,0,0,0,.109.6" transform="translate(16322 14135)"/>
    <path id="Path_143662" data-name="Path 143662" d="M816.233,565.81a.356.356,0,0,0-.576.071.387.387,0,0,0,.105.6.423.423,0,0,0,.308.093.38.38,0,0,0,.267-.169.4.4,0,0,0,.074-.316.451.451,0,0,0-.178-.275" transform="translate(16322 14135)"/>
    <path id="Path_143663" data-name="Path 143663" d="M816.222,567.084a.356.356,0,0,0-.576.072.388.388,0,0,0,.106.6.42.42,0,0,0,.307.093.381.381,0,0,0,.267-.169.4.4,0,0,0,.074-.316.452.452,0,0,0-.178-.276" transform="translate(16322 14135)"/>
    <path id="Path_143664" data-name="Path 143664" d="M815.059,569.332c-.024.034-.087.128-.186.28s-.183.274-.265.393c-.147-.125-.3-.249-.445-.37l.737-1.045c-.454-.08-.7-.121-.731-.119-.11,0-.221.085-.335.247-.019.027-.066.093-.139.2l-.16.225c-.154-.117-.309-.233-.466-.346l.514-.731-.725-.123c-.085-.013-.174.034-.266.149.03-.042-.029.04-.173.246-.079-.056-.157-.111-.236-.162l-.013-.009c-.026-.019-.054-.035-.08-.054l-.377-.248.693-1.291a4.143,4.143,0,0,0-.89.172,2.362,2.362,0,0,0-.478.7c-.293-.175-.59-.343-.889-.507q-.234-.127-.473-.252l-.022-.011.8-1.935a1.426,1.426,0,0,1-.794.085l-.6-.19a.962.962,0,0,0-.6-.02,1.737,1.737,0,0,0-1.094,1.011c0,.008-.009.015-.013.024l-.344.833a24.772,24.772,0,0,1,7.346,4.522.367.367,0,0,0,.536-.042l.312-.443.949-1.346a5.9,5.9,0,0,0-.742-.106.522.522,0,0,0-.355.261m-6.113-3.008-.014.033-.849-.38.016-.044c.005-.013.01-.03.016-.043a.692.692,0,0,1,.384-.376.635.635,0,0,1,.526,0,.828.828,0,0,1,.2.132Z" transform="translate(16322 14135)"/>
    <path id="Path_143665" data-name="Path 143665" d="M803.449,559.692l-.52.311a.682.682,0,0,0-.355.544l-.358,3.608-.093.93v0a.434.434,0,0,1-.142.291.359.359,0,0,1-.3.094.322.322,0,0,1-.246-.169.467.467,0,0,1-.079-.3l-.018-1a2.341,2.341,0,0,1-.5-.631,5.646,5.646,0,0,1-.248-.694,5.924,5.924,0,0,0-.278-.564.676.676,0,0,0-.472-.357.668.668,0,0,0-.589.311l-.085.855a.415.415,0,0,1,.411-.208c.11.012.194.1.252.272.034.131.068.261.1.39a1.37,1.37,0,0,0,.375.505c-.333-.033-.669-.058-1.006-.08-.528-.032-1.06-.051-1.6-.051h-.046l-.223,0-.041-.965q-.614.358-.646.39a.768.768,0,0,0-.221.6c0,.02,0,.04,0,.061l.038.87.023.535-1.016.045a1.019,1.019,0,0,0,.356.667.98.98,0,0,0,.7.244.87.87,0,0,0,.636-.308.947.947,0,0,0,.234-.691l-.024-.514c.077,0,.154-.005.231-.005.195,0,.388.005.582.009.116,0,.231.008.347.012.676.023,1.345.077,2.006.154l-.013.108a1.138,1.138,0,0,0,.246.875,1.123,1.123,0,0,0,.782.43,1.046,1.046,0,0,0,.835-.281,1.238,1.238,0,0,0,.409-.765Z" transform="translate(16322 14135)"/>
    <path id="Path_143666" data-name="Path 143666" d="M803.916,565.473c.255.065.509.135.76.207l.21-.907,1.016-4.4c-.2.081-.4.161-.6.242a.726.726,0,0,0-.38.487Z" transform="translate(16322 14135)"/>
    <path id="Path_143667" data-name="Path 143667" d="M775.6,570.672a.375.375,0,0,0,.266-.147.408.408,0,0,0,.1-.3.416.416,0,0,0-.146-.282.368.368,0,0,0-.56.043.405.405,0,0,0-.1.3.425.425,0,0,0,.148.284.375.375,0,0,0,.289.1" transform="translate(16322 14135)"/>
    <path id="Path_143668" data-name="Path 143668" d="M774.773,571.674a.385.385,0,0,0,.27-.15.406.406,0,0,0,.1-.3.412.412,0,0,0-.146-.282.382.382,0,0,0-.29-.108.377.377,0,0,0-.267.15.4.4,0,0,0-.1.3.42.42,0,0,0,.149.284.374.374,0,0,0,.288.105" transform="translate(16322 14135)"/>
    <path id="Path_143669" data-name="Path 143669" d="M784.766,567.217l-2.249-3.9-.282.6a.723.723,0,0,0,.067.611l1.782,3.087c-.181.112-.362.227-.541.343-.156.1-.31.205-.464.308l0-.006-2.516-3.707c-.081.208-.161.416-.24.622a.723.723,0,0,0,.111.6l1.995,2.942c-.169.123-.338.248-.505.375-.282.213-.558.435-.831.661l-.071-.032a1.16,1.16,0,0,0-.421-.083,1.068,1.068,0,0,0-.242.028,1.966,1.966,0,0,0-.279.04.578.578,0,0,1-.3-.027c-.02-.006-.114-.045-.284-.116a1.3,1.3,0,0,1,.062.617,1.993,1.993,0,0,0-.071.286,1.283,1.283,0,0,0-.06.383,1.237,1.237,0,0,0,.027.259c.006.026.012.054.02.08a.081.081,0,0,0-.016.016l-.19.182c-.249.246-.492.5-.732.752l-.042-.039-1.627-1.447a1.1,1.1,0,0,1-.092.546,1.639,1.639,0,0,1-.277.412l-.331.386a.92.92,0,0,0-.243.657.809.809,0,0,0,.274.547.767.767,0,0,0,.543.2.662.662,0,0,0,.517-.243l.514-.626.221.2-.016.02c-.455.512-.892,1.045-1.309,1.592-.169.222-.334.447-.5.673-.061.084-.12.169-.179.255l-2.883-2.041a.641.641,0,0,0-.579-.083l-.578.251,3.587,2.541.742.526a26.928,26.928,0,0,1,2.825-3.6c.084-.089.167-.18.252-.268.222-.232.45-.46.681-.682a1.148,1.148,0,0,0,.556.145,1.191,1.191,0,0,0,1.168-1.211,1.24,1.24,0,0,0-.07-.405,24.914,24.914,0,0,1,3.25-2.278c.082-.044.126-.062.153-.16a.436.436,0,0,0-.06-.327Zm-7.753,5.333c-.108.131-.212.151-.312.061q-.174-.152,0-.362l.315-.383.325.288Zm3.817-1.388a.368.368,0,0,1-.558-.039.408.408,0,0,1-.106-.3.4.4,0,0,1,.139-.28.387.387,0,0,1,.287-.114.38.38,0,0,1,.271.146.415.415,0,0,1,.109.3.408.408,0,0,1-.142.282" transform="translate(16322 14135)"/>
    <path id="Path_143670" data-name="Path 143670" d="M791.765,565.445l-.01-.037a23.953,23.953,0,0,1,3.115-.559.328.328,0,0,0,.221-.1.428.428,0,0,0,.076-.329l-.079-.53-.228-1.513a3.163,3.163,0,0,0-.607.686,2.821,2.821,0,0,0,.052.916c-.6.079-1.193.182-1.781.3-.281.059-.56.118-.839.186-.055.011-.112.026-.167.041l-.244-.935q-.523.488-.548.528a.78.78,0,0,0-.088.639c0,.02.005.037.01.058l.222.844.133.511-.98.278a1,1,0,0,0,.487.57.965.965,0,0,0,.735.075.888.888,0,0,0,.557-.443.979.979,0,0,0,.083-.73Z" transform="translate(16322 14135)"/>
    <path id="Path_143671" data-name="Path 143671" d="M789.265,565.168l-.759-2.009a1.512,1.512,0,0,1-.507.641q-.281.153-.558.308a.993.993,0,0,0-.433.419,1.847,1.847,0,0,0-.086,1.545l.01.031.32.873.019-.01c.628-.286,1.268-.549,1.92-.784l.057-.025a.316.316,0,0,0,.188-.32,1,1,0,0,0-.066-.394Zm-.817.3-.733.295-.054.02a.658.658,0,0,1-.041-.091.719.719,0,0,1,.02-.549.678.678,0,0,1,.371-.389.818.818,0,0,1,.232-.052l.28.737Z" transform="translate(16322 14135)"/>
    <path id="Path_143672" data-name="Path 143672" d="M772.359,584.132l-.459-.089-1.494-.291c.1.222.211.442.319.663a.563.563,0,0,0,.289.263c.073.029.346.083.686.149q-.316,1.313-.513,2.672l-.913-.178.269.57a.962.962,0,0,0,.175.276.551.551,0,0,0,.293.13l.072.015.507.1a.35.35,0,0,0,.291-.09.364.364,0,0,0,.132-.257l.016-.087a27.858,27.858,0,0,1,.629-3.268l.012-.061a.469.469,0,0,0-.072-.319.371.371,0,0,0-.239-.2" transform="translate(16322 14135)"/>
    <path id="Path_143673" data-name="Path 143673" d="M776.276,577.719l-.574-.318-.794-.437-1.763-.974.01.49a1.9,1.9,0,0,1-.15.536,1.442,1.442,0,0,0-.125.625,1.75,1.75,0,0,0,.917,1.37c.037.021.072.047.111.067l.679.375c.132-.27.269-.536.409-.8.1-.182.2-.366.3-.547l.614.333-.693,1.361a.821.821,0,0,0,.773.035,1.515,1.515,0,0,0,.615-.621,1.291,1.291,0,0,0,.143-.831.89.89,0,0,0-.469-.664m-2.112.568c-.028-.012-.055-.023-.077-.034a.666.666,0,0,1-.322-.424.74.74,0,0,1,.051-.544l.686.379c-.115.206-.228.413-.338.623" transform="translate(16322 14135)"/>
    <path id="Path_143674" data-name="Path 143674" d="M821.545,581.072a.469.469,0,0,0,.474.191l.492-.2.779-.431a.714.714,0,0,0,.251-.2,1.587,1.587,0,0,0,.1-.3.823.823,0,0,0-.059-.587l-.883-1.722a.234.234,0,0,1-.013-.184.24.24,0,0,1,.118-.152c.06-.033.2.025.413.171l1.762,1.18.275-.039-3.64-2.809c-.111-.086-.272-.07-.482.046a.613.613,0,0,0-.177.145l1.7,3.318a.436.436,0,0,1-.009.515,2.011,2.011,0,0,1-.443.295,28.137,28.137,0,0,0-1.92-3.7c-.133-.213-.27-.426-.408-.637q-.384-.588-.8-1.152c-.033-.045-.066-.09-.1-.132-.079-.11-.159-.217-.241-.326l1.5-1.381a1.44,1.44,0,0,1-.753-.274l-.466-.435a1,1,0,0,0-.531-.284,1.673,1.673,0,0,0-1.384.413c-.013.013-.027.024-.04.036l-.633.585a27.122,27.122,0,0,1,5.113,8.048l.006.008m-3.913-8.077.015-.016a.654.654,0,0,1,.5-.169.647.647,0,0,1,.477.228.852.852,0,0,1,.128.211l-.514.475q-.3-.371-.608-.729" transform="translate(16322 14135)"/>
    <path id="Path_143675" data-name="Path 143675" d="M825.35,587.336a.5.5,0,0,0-.431-.057c-.04.008-.147.035-.319.078-.141.036-.269.064-.39.089-.029-.2-.06-.388-.092-.584l1.165-.244q-.428-.565-.465-.6a.454.454,0,0,0-.406-.054l-.232.05c-.075.014-.143.028-.207.043-.038-.2-.079-.391-.121-.584l.8-.167-.457-.6a.3.3,0,0,0-.292-.078c-.024.006-.1.021-.231.05-.111-.447-.231-.887-.361-1.323l.8-.288q-.5-.508-.543-.534a.67.67,0,0,0-.542-.071c.006-.006-.85.3-.85.3l-.557.2-.332-1a.987.987,0,0,0-.513.545,1.079,1.079,0,0,0-.024.767.9.9,0,0,0,.464.548.855.855,0,0,0,.7.037l.54-.2a26.145,26.145,0,0,1,.944,4.5.286.286,0,0,0,.343.213l.573-.119,1.516-.317a5.894,5.894,0,0,0-.48-.6" transform="translate(16322 14135)"/>
  </g>
</svg>
