<svg xmlns="http://www.w3.org/2000/svg" width="50.338" height="54.43" viewBox="0 0 50.338 54.43">
  <g id="Client_53" transform="translate(-17749.563 -14589.443)">
    <path id="Path_145307" data-name="Path 145307" d="M1453.315,506.373a1.226,1.226,0,0,0-1.116,1h-.07a1.175,1.175,0,0,0-1.124-1,1.227,1.227,0,0,0,0,2.452,1.223,1.223,0,0,0,1.116-1h.07a1.172,1.172,0,0,0,1.123,1,1.227,1.227,0,0,0,0-2.452" transform="translate(16322 14135)" fill="#1c7da9"/>
    <path id="Path_145308" data-name="Path 145308" d="M1448.277,498.8a1.226,1.226,0,1,0-1.178-1.227,1.206,1.206,0,0,0,1.178,1.227" transform="translate(16322 14135)" fill="#1c7da9"/>
    <path id="Path_145309" data-name="Path 145309" d="M1470.035,499.487a4.617,4.617,0,0,0-1.711-.316,5.466,5.466,0,0,0-1.766.251,3.31,3.31,0,0,0-2.423,3.2,3.016,3.016,0,0,0,3.279,3.216h.755c0,.463-.176.771-.845.771h-2.059a.217.217,0,0,0-.211.222v1.818a.215.215,0,0,0,.211.219h2.348c1.525,0,2.635-1.111,2.713-3.092.051-1.319.046-4.957.016-5.806a.468.468,0,0,0-.307-.488m-1.88,3.969h-.641c-.651,0-1.08-.337-1.08-.894a1,1,0,0,1,1.074-.933h.526c.094,0,.121.056.121.13Z" transform="translate(16322 14135)" fill="#1c7da9"/>
    <path id="Path_145310" data-name="Path 145310" d="M1477.29,500.761a3.483,3.483,0,0,0-3.188-1.479h-2.159a.218.218,0,0,0-.212.222v1.919a.216.216,0,0,0,.212.22h2.3a1.588,1.588,0,0,1,1.141.425,1.876,1.876,0,0,1,.27,1.193.084.084,0,0,1-.086.077l-4.052,0a.217.217,0,0,0-.212.221v2.062a.216.216,0,0,0,.212.221h5.723a.351.351,0,0,0,.348-.221,11.478,11.478,0,0,0,.311-2.42,4.066,4.066,0,0,0-.611-2.438" transform="translate(16322 14135)" fill="#1c7da9"/>
    <path id="Path_145311" data-name="Path 145311" d="M1430.462,496.307a1.227,1.227,0,1,0,1.179,1.226,1.205,1.205,0,0,0-1.179-1.226" transform="translate(16322 14135)" fill="#1c7da9"/>
    <path id="Path_145312" data-name="Path 145312" d="M1431.32,499.286H1429.6a.216.216,0,0,0-.211.22v5.768c0,1.016-.356,1.343-.89,1.343h-.727a.216.216,0,0,0-.213.222v1.814a.215.215,0,0,0,.213.22h.769c2.288,0,2.986-1.4,2.986-3.824v-5.543a.216.216,0,0,0-.211-.22" transform="translate(16322 14135)" fill="#1c7da9"/>
    <path id="Path_145313" data-name="Path 145313" d="M1460.113,499.182a2.75,2.75,0,0,0-2.075.985,7.647,7.647,0,0,0-1.113,1.81c-.361.721-.593,1.366-1.283,1.366h-.535c-.487,0-1.016-.187-1.016-1.276v-2.563a.216.216,0,0,0-.212-.219h-1.711a.216.216,0,0,0-.211.219v2.563c0,1.016-.312,1.276-.935,1.276h-.641c-.487,0-1.016-.187-1.016-1.276v-2.563a.216.216,0,0,0-.212-.219h-1.711a.216.216,0,0,0-.212.219v2.563c0,1.016-.311,1.276-.935,1.276h-7.567c.007-1.4,0-2.867-.021-3.369a.469.469,0,0,0-.306-.488,4.647,4.647,0,0,0-1.711-.316,5.494,5.494,0,0,0-1.766.251,3.309,3.309,0,0,0-2.423,3.205,3.016,3.016,0,0,0,3.28,3.216h.754c0,.462-.176.77-.844.77h-2.059a.217.217,0,0,0-.212.222v1.818a.215.215,0,0,0,.212.219h2.348c1.509,0,2.61-1.091,2.707-3.031h8.432a1.826,1.826,0,0,0,1.791-1.455h.074a1.705,1.705,0,0,0,1.616,1.455h1.244a1.825,1.825,0,0,0,1.792-1.455h.076a1.7,1.7,0,0,0,1.614,1.455h.574c.683,0,1.282-.245,1.769-1.424h.072a3.017,3.017,0,0,0,2.512,1.507,2.675,2.675,0,0,0,1.994-.818,3.694,3.694,0,0,0,1.036-2.551,3.174,3.174,0,0,0-3.169-3.373m-23.592,4.274h-.642c-.65,0-1.081-.336-1.081-.9a1,1,0,0,1,1.073-.931h.528c.094,0,.122.056.122.13Zm23.437.125a1.04,1.04,0,0,1-1.022-1.048,1.1,1.1,0,0,1,1.074-1.123,1.043,1.043,0,0,1,1,1.1,1.021,1.021,0,0,1-1.051,1.076" transform="translate(16322 14135)" fill="#1c7da9"/>
    <path id="Path_145314" data-name="Path 145314" d="M1470,465.584l-10.048-10.457a2.184,2.184,0,0,0-3.175,0l-8.431,8.771-14.023,14.589a2.413,2.413,0,0,0,0,3.31l10.045,10.458a2.226,2.226,0,0,0,1.593.683,2.2,2.2,0,0,0,1.585-.683l12.574-13.086,9.88-10.281a2.4,2.4,0,0,0,0-3.3" transform="translate(16322 14135)" fill="#fff"/>
    <path id="Path_145315" data-name="Path 145315" d="M1460.45,469.35a2.835,2.835,0,0,1-4.116,0,3.107,3.107,0,0,1,0-4.283,2.829,2.829,0,0,1,4.116,0,3.115,3.115,0,0,1,0,4.283m8.836-3.024-10.046-10.451a1.2,1.2,0,0,0-1.756,0l-10.867,11.3,11.8,12.285,10.867-11.311a1.325,1.325,0,0,0,0-1.825" transform="translate(16322 14135)" fill="#e22f47"/>
    <path id="Path_145316" data-name="Path 145316" d="M1448.158,478.08a2.823,2.823,0,0,1,4.115,0,3.1,3.1,0,0,1,0,4.283,2.83,2.83,0,0,1-4.115,0,3.112,3.112,0,0,1,0-4.283m-4.426,4.164a2.843,2.843,0,0,1-4.119,0,3.13,3.13,0,0,1,0-4.287,2.839,2.839,0,0,1,4.119,0,3.128,3.128,0,0,1,0,4.287m-8.7-3.015a1.328,1.328,0,0,0,0,1.828l10.048,10.451a1.2,1.2,0,0,0,1.757,0l10.859-11.3-11.808-12.283Z" transform="translate(16322 14135)" fill="#1c7da9"/>
    <path id="Path_145317" data-name="Path 145317" d="M1451.746,491.889v-1.323h-.459v-.314h1.248v.314h-.451v1.323Z" transform="translate(16322 14135)" fill="#1c7da9"/>
    <path id="Path_145318" data-name="Path 145318" d="M1454.118,491.889v-1.182l-.445,1.182h-.148l-.44-1.182v1.182h-.336v-1.637h.47l.382,1.017.386-1.017h.471v1.637Z" transform="translate(16322 14135)" fill="#1c7da9"/>
  </g>
</svg>
