<svg xmlns="http://www.w3.org/2000/svg" xmlns:xlink="http://www.w3.org/1999/xlink" width="43.682" height="58.973" viewBox="0 0 43.682 58.973">
  <defs>
    <clipPath id="clip-path">
      <path id="Path_145678" data-name="Path 145678" d="M635.923,384.977h0v1.809h1.737v-1.809Z" fill="none"/>
    </clipPath>
    <linearGradient id="linear-gradient" x1="-266.435" y1="287.904" x2="-266.016" y2="287.904" gradientUnits="objectBoundingBox">
      <stop offset="0" stop-color="#955f43"/>
      <stop offset="1" stop-color="#21010a"/>
    </linearGradient>
    <clipPath id="clip-path-2">
      <path id="Path_145679" data-name="Path 145679" d="M638.115,384.977h0v1.809h1.738v-1.809Z" fill="none"/>
    </clipPath>
    <linearGradient id="linear-gradient-2" x1="-267.355" y1="287.9" x2="-266.935" y2="287.9" xlink:href="#linear-gradient"/>
    <clipPath id="clip-path-3">
      <path id="Path_145680" data-name="Path 145680" d="M623.493,384.977h0v1.809h1.738v-1.809Z" fill="none"/>
    </clipPath>
    <linearGradient id="linear-gradient-3" x1="-261.225" y1="287.897" x2="-260.806" y2="287.897" xlink:href="#linear-gradient"/>
    <clipPath id="clip-path-4">
      <path id="Path_145681" data-name="Path 145681" d="M625.685,384.977h0v1.809h1.738v-1.808h-1.738Z" fill="none"/>
    </clipPath>
    <linearGradient id="linear-gradient-4" x1="-262.144" y1="287.893" x2="-261.725" y2="287.893" xlink:href="#linear-gradient"/>
    <clipPath id="clip-path-5">
      <path id="Path_145682" data-name="Path 145682" d="M624.568,382.783h0v1.808H626.3v-1.808Z" fill="none"/>
    </clipPath>
    <linearGradient id="linear-gradient-5" x1="-261.877" y1="289.072" x2="-261.458" y2="289.072" xlink:href="#linear-gradient"/>
    <clipPath id="clip-path-6">
      <path id="Path_145683" data-name="Path 145683" d="M645.635,392.7a3.1,3.1,0,1,1,3.093,3.218,3.163,3.163,0,0,1-3.093-3.218m-8.617-5.092v7.752h-5.872v-7.73h-1.737v7.73h-3.083V388.12h-1.737v7.235h-3.082v-7.73h-1.738v8.238h-5.356a2.915,2.915,0,0,1,0-5.826v-1.81a4.725,4.725,0,0,0,0,9.443h6.882v-.506h3.294v.513h1.737v-.513h19v-.9a4.714,4.714,0,0,0,3.4,1.459,5.029,5.029,0,1,0-4.83-5.025,5.132,5.132,0,0,0,.739,2.66h-5.881V387.6Z" fill="none"/>
    </clipPath>
    <linearGradient id="linear-gradient-6" x1="-14.089" y1="23.804" x2="-14.066" y2="23.804" xlink:href="#linear-gradient"/>
    <clipPath id="clip-path-7">
      <path id="Path_145684" data-name="Path 145684" d="M627.973,407.239a.384.384,0,0,0,0,.536.354.354,0,0,0,.517,0,.386.386,0,0,0,0-.536.354.354,0,0,0-.517,0" fill="none"/>
    </clipPath>
    <linearGradient id="linear-gradient-7" x1="-619.109" y1="671.069" x2="-618.122" y2="671.069" gradientUnits="objectBoundingBox">
      <stop offset="0" stop-color="#e8dba9"/>
      <stop offset="1" stop-color="#a4945c"/>
    </linearGradient>
    <clipPath id="clip-path-8">
      <path id="Path_145685" data-name="Path 145685" d="M628.968,407.239a.381.381,0,0,0,0,.536.343.343,0,0,0,.257.112.346.346,0,0,0,.258-.112.384.384,0,0,0,0-.536.352.352,0,0,0-.515,0" fill="none"/>
    </clipPath>
    <linearGradient id="linear-gradient-8" x1="-620.164" y1="671.09" x2="-619.177" y2="671.09" xlink:href="#linear-gradient-7"/>
    <clipPath id="clip-path-9">
      <path id="Path_145686" data-name="Path 145686" d="M625.524,406.062a1.217,1.217,0,0,1-.4-.222.991.991,0,0,1-.263-.349,1.123,1.123,0,0,1-.1-.477,1.009,1.009,0,0,1,.1-.456,1.121,1.121,0,0,1,.277-.354,1.482,1.482,0,0,1,.411-.231,1.363,1.363,0,0,1,.47-.084h.349v2.253h-.349a1.473,1.473,0,0,1-.5-.08m5.9-.106a1.393,1.393,0,0,1-.242-.258,1.411,1.411,0,0,1-.159-.315,1.1,1.1,0,0,1-.06-.374,1.071,1.071,0,0,1,.1-.473,1.058,1.058,0,0,1,.271-.351,1.283,1.283,0,0,1,.4-.221,1.528,1.528,0,0,1,.468-.075h.456v2.253H631.7a1.508,1.508,0,0,1-.277-.186m-5.05-2.906v.29h-.194a2.379,2.379,0,0,0-.794.125,1.889,1.889,0,0,0-.615.349,1.519,1.519,0,0,0-.4.536,1.744,1.744,0,0,0,.029,1.425,1.487,1.487,0,0,0,.439.527,1.757,1.757,0,0,0,.622.3,2.743,2.743,0,0,0,.717.093h7.006V403.34h-.829a2.5,2.5,0,0,0-.8.117,1.783,1.783,0,0,0-.6.342,1.407,1.407,0,0,0-.384.532,1.715,1.715,0,0,0-.132.678,1.631,1.631,0,0,0,.059.46,1.555,1.555,0,0,0,.163.386,1.493,1.493,0,0,0,.174.248.513.513,0,0,0,.042.039h-1.833v-2.8h-.527v2.8H626.9V403.05Z" fill="none"/>
    </clipPath>
    <linearGradient id="linear-gradient-9" x1="-84.697" y1="70.687" x2="-84.561" y2="70.687" xlink:href="#linear-gradient-7"/>
    <clipPath id="clip-path-10">
      <path id="Path_145687" data-name="Path 145687" d="M631.989,402.231a.382.382,0,0,0-.107.271.374.374,0,0,0,.107.267.346.346,0,0,0,.259.113.342.342,0,0,0,.258-.113.376.376,0,0,0,.109-.267.383.383,0,0,0-.109-.271.356.356,0,0,0-.517,0" fill="none"/>
    </clipPath>
    <linearGradient id="linear-gradient-10" x1="-622.284" y1="676.02" x2="-621.299" y2="676.02" xlink:href="#linear-gradient-7"/>
    <clipPath id="clip-path-11">
      <path id="Path_145688" data-name="Path 145688" d="M636.44,401.71l-1.009,2.083-.009.026.007.025a.853.853,0,0,0,.075.2.81.81,0,0,0,.142.171l.019.021h2.377a.662.662,0,0,1,.264.061.559.559,0,0,1,.211.168.72.72,0,0,1,.117.241,1.279,1.279,0,0,1,.037.333v1.1h-4.1v-4.428h-.527v4.977H639.2V404.97a1.714,1.714,0,0,0-.063-.457,1.126,1.126,0,0,0-.215-.413,1.3,1.3,0,0,0-.4-.31,1.18,1.18,0,0,0-.515-.1h-1.926l.945-1.976Z" fill="none"/>
    </clipPath>
    <linearGradient id="linear-gradient-11" x1="-93.088" y1="98.829" x2="-92.941" y2="98.829" xlink:href="#linear-gradient-7"/>
    <clipPath id="clip-path-12">
      <path id="Path_145689" data-name="Path 145689" d="M625.992,363.956l.5.743a2.489,2.489,0,0,1,.736-.329.848.848,0,0,0-.041.253.819.819,0,1,0,1.636,0,.9.9,0,0,0-.039-.244,2.369,2.369,0,0,1,.626.321l.5-.745a3.155,3.155,0,0,0-1.876-.606,3.755,3.755,0,0,0-2.037.607" fill="none"/>
    </clipPath>
    <linearGradient id="linear-gradient-12" x1="-148.742" y1="166.094" x2="-148.505" y2="166.094" xlink:href="#linear-gradient-7"/>
    <clipPath id="clip-path-13">
      <path id="Path_145690" data-name="Path 145690" d="M640.434,381.82a.474.474,0,0,1-.16-.109.52.52,0,0,1-.106-.169.593.593,0,0,1-.039-.217.6.6,0,0,1,.039-.22.481.481,0,0,1,.106-.169.46.46,0,0,1,.16-.109.516.516,0,0,1,.2-.04.508.508,0,0,1,.2.04.474.474,0,0,1,.159.109.5.5,0,0,1,.107.169.581.581,0,0,1,.038.22.572.572,0,0,1-.038.217.54.54,0,0,1-.107.169.489.489,0,0,1-.159.109.545.545,0,0,1-.2.037.554.554,0,0,1-.2-.037m-.038-1.09a.541.541,0,0,0-.193.134.567.567,0,0,0-.13.2.731.731,0,0,0,0,.521.582.582,0,0,0,.13.2.539.539,0,0,0,.193.128.571.571,0,0,0,.237.048.577.577,0,0,0,.239-.048.557.557,0,0,0,.193-.128.615.615,0,0,0,.131-.2.73.73,0,0,0,0-.521.6.6,0,0,0-.131-.2.559.559,0,0,0-.193-.134.593.593,0,0,0-.239-.048.587.587,0,0,0-.237.048" fill="none"/>
    </clipPath>
    <linearGradient id="linear-gradient-13" x1="-362.312" y1="397.028" x2="-361.746" y2="397.028" xlink:href="#linear-gradient-7"/>
    <clipPath id="clip-path-14">
      <path id="Path_145691" data-name="Path 145691" d="M640.5,381.061h.147a.382.382,0,0,1,.071.005.191.191,0,0,1,.051.018.092.092,0,0,1,.033.035.111.111,0,0,1,.01.049.094.094,0,0,1-.034.079.2.2,0,0,1-.122.028H640.5Zm-.1-.1v.7h.1v-.279h.2l.132.28h.114l-.145-.3a.172.172,0,0,0,.083-.064.225.225,0,0,0,.013-.225.181.181,0,0,0-.065-.064.261.261,0,0,0-.089-.031.912.912,0,0,0-.107-.008Z" fill="none"/>
    </clipPath>
    <linearGradient id="linear-gradient-14" x1="-727.932" y1="803.995" x2="-726.795" y2="803.995" xlink:href="#linear-gradient-7"/>
    <clipPath id="clip-path-15">
      <path id="Path_145692" data-name="Path 145692" d="M631.717,381.876a11.556,11.556,0,0,1-8.625-3.965l-.635.618a12.205,12.205,0,0,0,18.52,0l-.635-.618a11.559,11.559,0,0,1-8.625,3.965" fill="none"/>
    </clipPath>
    <linearGradient id="linear-gradient-15" x1="-38.761" y1="41.758" x2="-38.699" y2="41.758" xlink:href="#linear-gradient-7"/>
    <clipPath id="clip-path-16">
      <path id="Path_145693" data-name="Path 145693" d="M630.994,379.168a17.536,17.536,0,0,1,.787-4.784,17.255,17.255,0,0,1,.485,1.938,17.49,17.49,0,0,1,.3,2.846,6.911,6.911,0,0,1-1.575,0m-1.541-.362a13.136,13.136,0,0,1-1.382-3.2,13.446,13.446,0,0,1-.33-1.495,2.39,2.39,0,0,0,1.368.431,4.361,4.361,0,0,0,1.594-.306l.183-.078a17.924,17.924,0,0,0-.492,1.978,18.532,18.532,0,0,0-.316,2.86c-.211-.053-.42-.12-.625-.193m6.372-4.7a12.94,12.94,0,0,1-.332,1.5,13.114,13.114,0,0,1-1.38,3.195c-.2.074-.414.141-.628.2a18.282,18.282,0,0,0-.808-4.838l.182.078a4.344,4.344,0,0,0,1.593.306,2.381,2.381,0,0,0,1.373-.437m-9.031,2.958a7.392,7.392,0,0,1-1.5-2.3,15.587,15.587,0,0,1,1.469-.969,14.3,14.3,0,0,0,.425,2.083,14.149,14.149,0,0,0,.826,2.206,7.165,7.165,0,0,1-1.223-1.02m9.58-1.186a14.328,14.328,0,0,0,.425-2.083,16.724,16.724,0,0,1,1.465.964,7.386,7.386,0,0,1-1.5,2.309,7.053,7.053,0,0,1-1.213,1.008,14.117,14.117,0,0,0,.824-2.2m-8.335-2.743a15.275,15.275,0,0,1,2.271-.834,5.538,5.538,0,0,0,1.348-.581l.124-.078.127.078a5.5,5.5,0,0,0,1.345.581,15.287,15.287,0,0,1,2.272.834,1.513,1.513,0,0,1-1.074.45,3.381,3.381,0,0,1-1.265-.243,3.511,3.511,0,0,1-1.1-.7l-.306-.284-.306.284a3.526,3.526,0,0,1-1.1.7,3.377,3.377,0,0,1-1.265.243,1.508,1.508,0,0,1-1.07-.45m-5.561-4.41a2.67,2.67,0,0,1-.694-1.339,2.523,2.523,0,0,1,1.288.72,2.692,2.692,0,0,1,.693,1.34,2.5,2.5,0,0,1-1.287-.721m18-.765a2.5,2.5,0,0,1,1.33-.729,2.693,2.693,0,0,1-.727,1.575,2.513,2.513,0,0,1-1.33.729,2.693,2.693,0,0,1,.727-1.575m-15.748,3.92V366.26l.092.1a6.484,6.484,0,0,1,1.348,2.1,6.714,6.714,0,0,1,.472,2.476v0c0,.62,0,1.212.025,1.829a16.4,16.4,0,0,0-1.69,1.063,7.5,7.5,0,0,1-.247-1.945m12.158.882c.014-.248.021-.5.021-.748v-1.084a6.7,6.7,0,0,1,.473-2.476,6.472,6.472,0,0,1,1.348-2.1l.092-.1v3.321l-.008.253h.008v2.048a7.6,7.6,0,0,1-.249,1.941,16.467,16.467,0,0,0-1.685-1.059m2.855-8.431a2.485,2.485,0,0,1,1.337.73,2.69,2.69,0,0,1,.665,1.21,3.417,3.417,0,0,0-1.918,1.014l-.084.093Zm-16.028,3.1a3.416,3.416,0,0,0-1.952-1.019,2.687,2.687,0,0,1,.71-1.426,2.505,2.505,0,0,1,1.337-.733v3.282Zm8.522-2.923a3.76,3.76,0,0,1,1.037-2.611,3.428,3.428,0,0,1,3.875-.793,3.674,3.674,0,0,1,1.643,2.311l-.027.956a2.639,2.639,0,0,1-.685,1.309,7.492,7.492,0,0,0-1.547,2.409,7.7,7.7,0,0,0-.544,2.842V372a1.672,1.672,0,0,1-.029.293,16.039,16.039,0,0,0-2.473-.916,4.562,4.562,0,0,1-.9-.359l.226-.222a1.539,1.539,0,0,1,.5-.348,1.485,1.485,0,0,1,.591-.122h.46v-.478a2.655,2.655,0,0,0-.188-.98,2.553,2.553,0,0,0-.534-.831,5.043,5.043,0,0,1-1.039-1.618,5.148,5.148,0,0,1-.165-.491,2.639,2.639,0,0,1,1.532-1.592.283.283,0,0,1,.031-.006.867.867,0,0,0-.052.29.818.818,0,1,0,1.635,0,.882.882,0,0,0-.036-.237,3,3,0,0,1,.665.293l.458-.769a3.714,3.714,0,0,0-2.96-.436,3.026,3.026,0,0,0-1.47,1.061v-.026m-4.67,7.583,0-1.157v0a7.679,7.679,0,0,0-.545-2.839,7.468,7.468,0,0,0-1.546-2.412,2.7,2.7,0,0,1-.551-.854,2.937,2.937,0,0,1-.132-.437l-.031-.956a3.845,3.845,0,0,1,1.945-2.527,9.713,9.713,0,0,1,5.073-1.3,11.018,11.018,0,0,1,2.947.391,4.409,4.409,0,0,0-2.1,1.231,4.729,4.729,0,0,0-1.308,3.284,6.145,6.145,0,0,0,.436,2.275,5.966,5.966,0,0,0,1.236,1.93v0a1.6,1.6,0,0,1,.336.517l.063.194a2.59,2.59,0,0,0-.426.141,2.481,2.481,0,0,0-.8.552,4.585,4.585,0,0,1-.382.357,4.9,4.9,0,0,1-.382-.357,2.477,2.477,0,0,0-.8-.552,2.343,2.343,0,0,0-.94-.2v.956a1.5,1.5,0,0,1,.592.123,1.532,1.532,0,0,1,.5.347l.226.222a4.6,4.6,0,0,1-.9.359,15.989,15.989,0,0,0-2.477.918Zm-8.012-5.031a9.047,9.047,0,0,1-2.274-5.138,6.558,6.558,0,0,1,1.331-4.62,6.056,6.056,0,0,1,4.127-2.348l.535-.037q1.981-.048,3.914-.176t3.878-.348l.081-.009c1.288-.144,2.56-.32,3.813-.518q1.918-.3,3.857-.7l.532-.085a5.966,5.966,0,0,1,4.517,1.376,6.456,6.456,0,0,1,2.262,4.294,7.739,7.739,0,0,1-.86,4.446,7.358,7.358,0,0,1-2.636,2.816,3.666,3.666,0,0,0-.9-1.628,3.406,3.406,0,0,0-2.017-1.026,4.726,4.726,0,0,0-2.394-3.276,11.389,11.389,0,0,0-11.09,0,4.761,4.761,0,0,0-2.382,3.193,3.412,3.412,0,0,0-2.028,1.028,3.615,3.615,0,0,0-.857,1.475l0,.008a3.769,3.769,0,0,0,.2,2.664,8.558,8.558,0,0,1-1.611-1.394m14.3-14.238a4.369,4.369,0,0,0,.662-1.211l.362,1.3-1.262.191c.083-.09.164-.182.238-.28m-6.572-2.166c.487-.139.987-.262,1.5-.365.617-.126,1.235-.227,1.85-.294s1.25-.114,1.868-.127c.444-.007.892,0,1.341.018a3.4,3.4,0,0,1-.7,2.334,3.159,3.159,0,0,1-2.1,1.213l-.054.006q-1.915.218-3.857.345l-.051,0Zm5.2-1.739c-.652.012-1.3.056-1.948.128s-1.3.178-1.927.305-1.259.289-1.887.481l-.309.093-.252,3.923q-1.458.08-2.9.115l-.308.013-.307.027a6.985,6.985,0,0,0-4.747,2.7,7.539,7.539,0,0,0-1.518,5.4,10.018,10.018,0,0,0,2.507,5.616,9.381,9.381,0,0,0,4.926,2.883l0,1.281a8.425,8.425,0,0,0,2.334,5.862,7.743,7.743,0,0,0,11.267,0,8.434,8.434,0,0,0,2.334-5.86v-1.374a3.423,3.423,0,0,0,1.989-1.024,3.658,3.658,0,0,0,1.011-2.439,8.285,8.285,0,0,0,3.327-3.378,8.742,8.742,0,0,0,.971-5.012,7.431,7.431,0,0,0-2.6-4.94,6.859,6.859,0,0,0-5.19-1.581l-.3.042-.3.053q-1.418.287-2.856.532l-1.051-3.773-.322-.024c-.489-.034-.988-.05-1.489-.05-.149,0-.3,0-.45,0" fill="none"/>
    </clipPath>
    <linearGradient id="linear-gradient-16" x1="-13.848" y1="16.754" x2="-13.825" y2="16.754" xlink:href="#linear-gradient-7"/>
  </defs>
  <g id="Client_47" transform="translate(-16931.875 -14483.914)">
    <g id="Group_125109" data-name="Group 125109" transform="translate(16322 14135)">
      <g id="Group_125108" data-name="Group 125108" clip-path="url(#clip-path)">
        <rect id="Rectangle_17724" data-name="Rectangle 17724" width="2.386" height="2.415" transform="matrix(0.882, -0.471, 0.471, 0.882, 635.169, 385.378)" fill="url(#linear-gradient)"/>
      </g>
    </g>
    <g id="Group_125111" data-name="Group 125111" transform="translate(16322 14135)">
      <g id="Group_125110" data-name="Group 125110" clip-path="url(#clip-path-2)">
        <rect id="Rectangle_17725" data-name="Rectangle 17725" width="2.386" height="2.415" transform="matrix(0.882, -0.471, 0.471, 0.882, 637.362, 385.378)" fill="url(#linear-gradient-2)"/>
      </g>
    </g>
    <g id="Group_125113" data-name="Group 125113" transform="translate(16322 14135)">
      <g id="Group_125112" data-name="Group 125112" clip-path="url(#clip-path-3)">
        <rect id="Rectangle_17726" data-name="Rectangle 17726" width="2.386" height="2.415" transform="translate(622.74 385.378) rotate(-28.094)" fill="url(#linear-gradient-3)"/>
      </g>
    </g>
    <g id="Group_125115" data-name="Group 125115" transform="translate(16322 14135)">
      <g id="Group_125114" data-name="Group 125114" clip-path="url(#clip-path-4)">
        <rect id="Rectangle_17727" data-name="Rectangle 17727" width="2.386" height="2.415" transform="matrix(0.882, -0.471, 0.471, 0.882, 624.933, 385.378)" fill="url(#linear-gradient-4)"/>
      </g>
    </g>
    <g id="Group_125117" data-name="Group 125117" transform="translate(16322 14135)">
      <g id="Group_125116" data-name="Group 125116" clip-path="url(#clip-path-5)">
        <rect id="Rectangle_17728" data-name="Rectangle 17728" width="2.384" height="2.413" transform="translate(623.817 383.184) rotate(-28.093)" fill="url(#linear-gradient-5)"/>
      </g>
    </g>
    <g id="Group_125119" data-name="Group 125119" transform="translate(16322 14135)">
      <g id="Group_125118" data-name="Group 125118" clip-path="url(#clip-path-6)">
        <rect id="Rectangle_17729" data-name="Rectangle 17729" width="43.3" height="29.495" transform="translate(605.672 389.846) rotate(-28.093)" fill="url(#linear-gradient-6)"/>
      </g>
    </g>
    <g id="Group_125121" data-name="Group 125121" transform="translate(16322 14135)">
      <g id="Group_125120" data-name="Group 125120" clip-path="url(#clip-path-7)">
        <rect id="Rectangle_17730" data-name="Rectangle 17730" width="1.014" height="1.003" transform="translate(627.552 407.723) rotate(-62.354)" fill="url(#linear-gradient-7)"/>
      </g>
    </g>
    <g id="Group_125123" data-name="Group 125123" transform="translate(16322 14135)">
      <g id="Group_125122" data-name="Group 125122" clip-path="url(#clip-path-8)">
        <rect id="Rectangle_17731" data-name="Rectangle 17731" width="1.014" height="1.003" transform="translate(628.546 407.723) rotate(-62.355)" fill="url(#linear-gradient-8)"/>
      </g>
    </g>
    <g id="Group_125125" data-name="Group 125125" transform="translate(16322 14135)">
      <g id="Group_125124" data-name="Group 125124" clip-path="url(#clip-path-9)">
        <rect id="Rectangle_17732" data-name="Rectangle 17732" width="7.38" height="9.619" transform="translate(622.739 405.908) rotate(-62.354)" fill="url(#linear-gradient-9)"/>
      </g>
    </g>
    <g id="Group_125127" data-name="Group 125127" transform="translate(16322 14135)">
      <g id="Group_125126" data-name="Group 125126" clip-path="url(#clip-path-10)">
        <rect id="Rectangle_17733" data-name="Rectangle 17733" width="1.015" height="1.003" transform="translate(631.569 402.718) rotate(-62.353)" fill="url(#linear-gradient-10)"/>
      </g>
    </g>
    <g id="Group_125129" data-name="Group 125129" transform="translate(16322 14135)">
      <g id="Group_125128" data-name="Group 125128" clip-path="url(#clip-path-11)">
        <rect id="Rectangle_17734" data-name="Rectangle 17734" width="6.802" height="6.873" transform="translate(632 405.619) rotate(-62.354)" fill="url(#linear-gradient-11)"/>
      </g>
    </g>
    <g id="Group_125131" data-name="Group 125131" transform="translate(16322 14135)">
      <g id="Group_125130" data-name="Group 125130" clip-path="url(#clip-path-12)">
        <rect id="Rectangle_17735" data-name="Rectangle 17735" width="4.208" height="4.321" transform="translate(624.934 364.506) rotate(-47.577)" fill="url(#linear-gradient-12)"/>
      </g>
    </g>
    <g id="Group_125133" data-name="Group 125133" transform="translate(16322 14135)">
      <g id="Group_125132" data-name="Group 125132" clip-path="url(#clip-path-13)">
        <rect id="Rectangle_17736" data-name="Rectangle 17736" width="1.766" height="1.762" transform="matrix(0.675, -0.738, 0.738, 0.675, 639.389, 381.378)" fill="url(#linear-gradient-13)"/>
      </g>
    </g>
    <g id="Group_125135" data-name="Group 125135" transform="translate(16322 14135)">
      <g id="Group_125134" data-name="Group 125134" clip-path="url(#clip-path-14)">
        <rect id="Rectangle_17737" data-name="Rectangle 17737" width="0.88" height="0.87" transform="matrix(0.675, -0.738, 0.738, 0.675, 640.051, 381.338)" fill="url(#linear-gradient-14)"/>
      </g>
    </g>
    <g id="Group_125137" data-name="Group 125137" transform="translate(16322 14135)">
      <g id="Group_125136" data-name="Group 125136" clip-path="url(#clip-path-15)">
        <rect id="Rectangle_17738" data-name="Rectangle 17738" width="16.09" height="16.958" transform="matrix(0.675, -0.738, 0.738, 0.675, 620.031, 380.566)" fill="url(#linear-gradient-15)"/>
      </g>
    </g>
    <g id="Group_125139" data-name="Group 125139" transform="translate(16322 14135)">
      <g id="Group_125138" data-name="Group 125138" clip-path="url(#clip-path-16)">
        <rect id="Rectangle_17739" data-name="Rectangle 17739" width="44.029" height="44.016" transform="matrix(0.675, -0.738, 0.738, 0.675, 600.605, 365.948)" fill="url(#linear-gradient-16)"/>
      </g>
    </g>
  </g>
</svg>
