<svg xmlns="http://www.w3.org/2000/svg" width="55.924" height="68.418" viewBox="0 0 55.924 68.418">
  <g id="Client_78" transform="translate(-16876.191 -14807.262)">
    <path id="Path_140949" data-name="Path 140949" d="M554.192,717.436c.2-.1.18-.321.235-.492a3.876,3.876,0,0,1,4.331-2.85.669.669,0,0,1,.66.708.649.649,0,0,1-.705.717c-.062,0-.124.005-.186,0a2.46,2.46,0,0,0-2.6,1.354,3.75,3.75,0,0,0,.051,3.583,2.192,2.192,0,0,0,1.987,1.229c1.945.021,3.89-.006,5.835.02.437,0,.446-.208.445-.55-.01-2.2-.008-4.394-.005-6.59a2.565,2.565,0,0,1,2.477-2.793,2.591,2.591,0,0,1,2.493,2.789c0,2.176.013,4.351-.009,6.523,0,.461.075.639.567.623,1.282-.041,2.567-.038,3.848,0,.481.014.577-.145.574-.617-.023-2.713-.011-5.425-.011-8.137,0-.153,0-.3,0-.454a.667.667,0,1,1,1.332-.022c.028.494.011.99.011,1.485,0,2.391.011,4.782-.01,7.17,0,.454.12.594.554.574a18.974,18.974,0,0,1,2.172,0c.522.034.7-.089.693-.69-.037-2.712-.017-5.426-.016-8.139a2.739,2.739,0,0,1,.016-.513.641.641,0,0,1,.653-.575.648.648,0,0,1,.664.562,2.865,2.865,0,0,1,.019.579c0,2.734.011,5.47-.009,8.2,0,.455.114.591.551.572a22.341,22.341,0,0,1,2.357,0c.495.03.571-.167.567-.625-.019-2.693-.009-5.383-.009-8.076,0-.15,0-.3,0-.452,0-.462.212-.764.656-.763s.663.314.669.766c.01.6,0,1.205,0,1.81q0,3.84,0,7.685c0,.884-.183,1.072-1.014,1.073h-15.21c-.846,0-1-.166-1-1.066,0-2.5.009-4.995,0-7.493,0-1.008-.741-1.609-1.532-1.258a1.208,1.208,0,0,0-.694,1.249c.011,2.411.006,4.823,0,7.234,0,1.057-.268,1.334-1.284,1.334h-5.9a3.8,3.8,0,0,1-4.068-3.044c-.037-.116-.014-.268-.166-.32Z" transform="translate(16322 14135)" fill="#595d5c"/>
    <path id="Path_140950" data-name="Path 140950" d="M600.731,721.7a6.2,6.2,0,0,1-1.465-6.259,5.364,5.364,0,0,1,6.012-3.844,5.466,5.466,0,0,1,4.793,5.242c.207,3.675-2.154,6.29-5.69,6.292q-6.766.006-13.533-.006c-.416,0-.637.043-.737.564a3.1,3.1,0,0,1-3,2.583c-.469.022-.845-.107-.878-.663s.322-.726.791-.778a1.872,1.872,0,0,0,1.834-2.135q.008-4.906,0-9.817a2.515,2.515,0,0,1,.02-.578.64.64,0,0,1,.728-.552.614.614,0,0,1,.6.615c.024.321.011.648.011.97,0,2.584.018,5.168-.013,7.751-.007.538.161.645.628.626a22.715,22.715,0,0,1,2.42,0c.542.034.639-.179.635-.694-.024-2.713-.012-5.425-.011-8.137a3.828,3.828,0,0,1,.03-.644.629.629,0,0,1,.662-.558.609.609,0,0,1,.637.507,3.038,3.038,0,0,1,.045.64c0,2.758.013,5.514-.009,8.268,0,.476.1.626.578.618,1.587-.035,3.175-.014,4.906-.014m3.818.041a4.415,4.415,0,1,0-4.207-4.413,4.191,4.191,0,0,0,4.207,4.413" transform="translate(16322 14135)" fill="#595d5c"/>
    <path id="Path_140951" data-name="Path 140951" d="M555.693,732.755c0,2.4,0,4.588,0,6.783,0,.66-.258,1.046-.7.994-.538-.061-.683-.444-.681-.965q.016-4.685,0-9.366c0-.452.079-.833.553-.946s.7.225.891.612q1.876,3.887,3.761,7.766c.08.166.168.327.293.569.669-1.4,1.3-2.718,1.929-4.039q1.016-2.136,2.022-4.275c.182-.389.4-.746.88-.64.511.114.568.541.567,1.005-.006,3.1,0,6.2,0,9.3,0,.645-.283,1.036-.726.982-.547-.068-.675-.473-.673-.979.006-2.111,0-4.221,0-6.329,0-.117-.011-.236-.026-.534-.675,1.422-1.275,2.682-1.871,3.946q-.721,1.53-1.436,3.067c-.142.308-.327.563-.681.577-.392.019-.587-.257-.742-.582q-1.559-3.257-3.12-6.509c-.043-.09-.1-.176-.24-.436" transform="translate(16322 14135)" fill="#595d5c"/>
    <path id="Path_140952" data-name="Path 140952" d="M580.292,734.858q0-2.29,0-4.583c0-.843.207-1.067,1.036-1.051a18.207,18.207,0,0,1,2.971.084,3.52,3.52,0,0,1,1.157,6.417c-.323.2-.326.309-.137.611.622.987,1.209,2,1.813,3,.23.379.37.767-.071,1.064-.458.31-.819.114-1.09-.338-.657-1.091-1.335-2.172-1.97-3.279a.932.932,0,0,0-.933-.549c-1.4.03-1.4.007-1.4,1.435,0,.644-.012,1.291.005,1.935.013.528-.149.936-.7.92s-.69-.434-.686-.954c.011-1.571,0-3.14,0-4.713m1.377-2.113c0,.581.006,1.162,0,1.743,0,.231.041.38.3.369a12.783,12.783,0,0,0,2.043-.06,2,2,0,0,0,1.723-2.157,2.058,2.058,0,0,0-1.981-2.005c-.556-.036-1.117.006-1.674-.022-.339-.014-.424.128-.412.454.021.56.006,1.119.006,1.678" transform="translate(16322 14135)" fill="#595d5c"/>
    <path id="Path_140953" data-name="Path 140953" d="M568.866,734.846q0-2.291,0-4.583c0-.813.215-1.042.988-1.044q2.916-.006,5.832,0c.64,0,.988.352.874.86-.107.478-.461.543-.863.541-1.634,0-3.267.012-4.9-.01-.419-.005-.586.094-.565.565.037.816.037,1.636,0,2.451-.021.457.156.534.537.529,1.1-.022,2.192-.014,3.289-.006.63,0,1.007.287.953.741-.07.579-.474.673-.957.666-1.116-.016-2.233.005-3.35-.012-.337-.005-.48.083-.469.467.024.882.027,1.766,0,2.647-.014.418.146.5.505.493,1.634-.018,3.268,0,4.9-.011.473,0,.895.061.933.677.03.479-.3.725-.954.726q-2.885,0-5.769,0c-.762,0-.982-.24-.983-1.051q0-2.322,0-4.647" transform="translate(16322 14135)" fill="#595d5c"/>
    <path id="Path_140954" data-name="Path 140954" d="M596.159,740.68a5.589,5.589,0,0,1-5.513-4.034,6,6,0,0,1,2.128-6.569,5.139,5.139,0,0,1,6.206.088q.8.636.143,1.2c-.317.27-.6.176-.895-.055a3.645,3.645,0,0,0-4.412-.249,4.47,4.47,0,0,0-2.009,4.58,4.266,4.266,0,0,0,2.991,3.515,3.78,3.78,0,0,0,3.36-.648c.387-.283.789-.506,1.129-.007s.032.875-.364,1.185a4.738,4.738,0,0,1-2.764.995" transform="translate(16322 14135)" fill="#595d5c"/>
    <path id="Path_140955" data-name="Path 140955" d="M605.659,734.955l2.671-4.462c.164-.272.32-.551.493-.817.243-.376.565-.619.987-.327.407.282.361.689.127,1.078-.989,1.634-1.957,3.285-2.991,4.889a3.406,3.406,0,0,0-.624,2.212c.057.7.009,1.418.013,2.128,0,.5-.2.874-.7.87s-.7-.376-.677-.883c.006-.106-.012-.215,0-.322a7.142,7.142,0,0,0-1.522-5.486c-.726-.983-1.295-2.093-1.933-3.147-.431-.712-.439-1.071-.035-1.342s.75-.11,1.163.583q1.324,2.212,2.647,4.429c.107.179.223.351.38.6" transform="translate(16322 14135)" fill="#595d5c"/>
    <path id="Path_140956" data-name="Path 140956" d="M595.841,725.488a.927.927,0,1,1,.878-.968.918.918,0,0,1-.878.968" transform="translate(16322 14135)" fill="#595d5c"/>
    <path id="Path_140957" data-name="Path 140957" d="M563.369,724.571a.9.9,0,1,1-.908-.935.916.916,0,0,1,.908.935" transform="translate(16322 14135)" fill="#595d5c"/>
    <path id="Path_140958" data-name="Path 140958" d="M560.5,723.637a.913.913,0,0,1,.879.965.907.907,0,1,1-1.813-.053.912.912,0,0,1,.934-.912" transform="translate(16322 14135)" fill="#595d5c"/>
    <path id="Path_140959" data-name="Path 140959" d="M594.705,724.54a.878.878,0,0,1-.878.947.926.926,0,0,1-.036-1.849.863.863,0,0,1,.914.9" transform="translate(16322 14135)" fill="#595d5c"/>
    <path id="Path_140960" data-name="Path 140960" d="M577.263,697.713c.024.021.049.04.074.062-.078.094-.069-.01-.09-.043Z" transform="translate(16322 14135)" fill="#fbfbfa"/>
    <path id="Path_140961" data-name="Path 140961" d="M586.081,682.638a1.924,1.924,0,0,1-1.9-2.012,2.008,2.008,0,0,1,1.935-2.011,2.065,2.065,0,0,1,1.934,2.04,2.029,2.029,0,0,1-1.967,1.983m.5-2.017a.454.454,0,0,0-.466-.468.467.467,0,0,0-.522.5.454.454,0,0,0,.462.5c.3.008.494-.174.526-.528" transform="translate(16322 14135)" fill="#97a775"/>
    <path id="Path_140962" data-name="Path 140962" d="M577.94,682.636a1.921,1.921,0,0,1-1.952-1.963,2.009,2.009,0,0,1,1.953-2.058,2.063,2.063,0,0,1,1.917,2.057,2.028,2.028,0,0,1-1.918,1.964m.453-2.026a.449.449,0,0,0-.476-.457.466.466,0,0,0-.51.513.453.453,0,0,0,.474.483c.3,0,.492-.184.512-.539" transform="translate(16322 14135)" fill="#97a775"/>
    <path id="Path_140963" data-name="Path 140963" d="M583.785,672.313c3.242.339,5.246,2.8,6.527,5.867a8.681,8.681,0,0,1-.174,6.98,1.925,1.925,0,0,0-.113,1.227,15.087,15.087,0,0,1-3.752,14.029c-.053.055-.094.126-.21.283,1.464,0,2.837.005,4.21-.005a.742.742,0,0,1,.806.46c.229.57-.134,1.056-.835,1.06-1.531.012-3.062,0-4.593,0-.744,0-.738,0-.474.761.237.688.5,1.368.677,2.072a1.6,1.6,0,0,1-1.138,2.042,3.626,3.626,0,0,1-1.347.181,32.659,32.659,0,0,1-3.715-.1,1.715,1.715,0,0,1-1.435-2.443c.2-.676.435-1.345.691-2,.166-.425.037-.52-.36-.519-1.552.014-3.1.005-4.655.007a.95.95,0,0,1-.894-.329.8.8,0,0,1-.05-.8.7.7,0,0,1,.721-.394c1.323.005,2.645,0,4.08,0-.4-.478-.756-.874-1.084-1.3a15.044,15.044,0,0,1-2.83-13.146,1.827,1.827,0,0,0-.1-1.176c-2.288-5.523.916-11.921,6.124-12.671a21.115,21.115,0,0,1,3.918-.1m-6.538,25.418c.022.033.012.14.09.043l-.074-.061a.812.812,0,0,0,0-.191,15.616,15.616,0,0,1-.039-7.778c.036-.144.093-.312-.057-.415a11.551,11.551,0,0,1-2.1-1.951,15.216,15.216,0,0,0-.032,5.035,11.932,11.932,0,0,0,2.211,5.318m4.672,2.968a11.893,11.893,0,0,1,1.239.009c.467.048.7-.171.91-.577a14.1,14.1,0,0,0,1.375-9.413c-.071-.379-.157-.554-.6-.394a8.126,8.126,0,0,1-5.7-.024c-.438-.162-.572-.042-.657.41a14.337,14.337,0,0,0,1.067,8.846c.4.864.868,1.341,1.817,1.148a2.879,2.879,0,0,1,.557-.005m-6.342-15.375c-.068,1.242,2.385,3.121,4.647,3.58,3.657.741,7.16-1.358,8.037-3.483a4.733,4.733,0,0,1-5.541-.93c0,.512,0,.894,0,1.278.006.512-.207.838-.718.85s-.728-.338-.743-.832c-.013-.394,0-.786,0-1.288a4.672,4.672,0,0,1-5.68.825m10.417-1.023a3.413,3.413,0,1,0,0-6.824,3.415,3.415,0,0,0,0,6.824m-11.5-3.42a3.165,3.165,0,0,0,3.115,3.419,3.422,3.422,0,1,0,.214-6.837,3.2,3.2,0,0,0-3.329,3.418m2.19-4.895c2.469-.333,3.323.005,5.092,2.067.258.3.323.081.444-.086a4.793,4.793,0,0,1,3.065-2.029,12.4,12.4,0,0,1,1.595-.089c-2.649-2.68-8.078-2.471-10.2.137m5.344,29.745c.6,0,1.2,0,1.794,0,.479,0,.678-.172.532-.713-.229-.848-.559-1.653-.849-2.476a.446.446,0,0,0-.517-.328c-.659.008-1.319,0-1.978,0-.215,0-.412.006-.5.262a24.358,24.358,0,0,0-.886,2.6c-.1.425.039.66.492.652.638-.01,1.278,0,1.916,0m4.728-8.332a13.46,13.46,0,0,0,2.011-9.9,8.39,8.39,0,0,1-1.735,1.653.645.645,0,0,0-.29.8,15.072,15.072,0,0,1,.352,4.914c-.088.849-.256,1.682-.338,2.531" transform="translate(16322 14135)" fill="#97a775"/>
    <path id="Path_140964" data-name="Path 140964" d="M588.93,704.2h.087l.053.005a1.1,1.1,0,0,1,.332.085,1.07,1.07,0,0,1,.363.24,1.222,1.222,0,0,1,.342.78,1.164,1.164,0,0,1-.058.453,1.244,1.244,0,0,1-.234.421,1.105,1.105,0,0,1-.306.242,1.126,1.126,0,0,1-.462.138,1,1,0,0,1-.317-.027,1.16,1.16,0,0,1-.492-.248,1.135,1.135,0,0,1-.307-.434,1.191,1.191,0,0,1-.091-.383l0-.04v-.107a1.209,1.209,0,0,1,.08-.378,1.188,1.188,0,0,1,.231-.382,1.065,1.065,0,0,1,.36-.259,1.111,1.111,0,0,1,.382-.1l.039,0m-.9,1.184a.948.948,0,1,0,.956-.985.96.96,0,0,0-.956.985" transform="translate(16322 14135)" fill="#97a775"/>
    <path id="Path_140965" data-name="Path 140965" d="M589.437,706.049h-.011c-.048,0-.1,0-.144,0-.011,0-.016,0-.019-.013-.012-.042-.026-.082-.037-.124-.018-.073-.032-.146-.05-.218a.465.465,0,0,0-.034-.095.2.2,0,0,0-.164-.117.4.4,0,0,0-.069-.005h-.134v.572h-.164v-1.3l.062-.009a1.654,1.654,0,0,1,.281-.019.677.677,0,0,1,.223.037.318.318,0,0,1,.176.149.368.368,0,0,1-.061.426.339.339,0,0,1-.128.081l-.008.006.007.006a.271.271,0,0,1,.133.13.707.707,0,0,1,.053.161c.022.095.046.189.07.282a.566.566,0,0,0,.018.054m-.662-.7h.175a.345.345,0,0,0,.11-.017.233.233,0,0,0,.136-.1.261.261,0,0,0,.032-.159.21.21,0,0,0-.125-.184.375.375,0,0,0-.152-.03.7.7,0,0,0-.164.013c-.009,0-.012,0-.012.014v.468Z" transform="translate(16322 14135)" fill="#97a775"/>
  </g>
</svg>
