<svg xmlns="http://www.w3.org/2000/svg" width="64.975" height="67.672" viewBox="0 0 64.975 67.672">
  <g id="Client_19" transform="translate(-18096.354 -14377.978)">
    <path id="Path_145772" data-name="Path 145772" d="M1830.338,300.942c-2.717,0-5.434,0-8.151,0a3.309,3.309,0,0,1-2.559-1.1c-.171-.188-.25-.207-.44,0a3.237,3.237,0,0,1-2.44,1.1q-11.8,0-23.6,0c-.476,0-.536-.11-.3-.533.6-1.062,1.2-2.122,1.792-3.189a.672.672,0,0,1,.677-.4c2.086.018,4.172,0,6.258.017.32,0,.408-.092.406-.425-.012-3.268-.007-6.538-.006-9.807,0-.636,0-.637.622-.637,2.923,0,5.847-.02,8.769.007a3.766,3.766,0,0,1,3.652,2.468,3,3,0,0,1,.212,1.215c0,2.25.006,4.5-.008,6.752,0,.332.083.436.405.428.875-.024,1.751-.027,2.627,0,.344.011.427-.1.426-.446-.012-5.066-.005-10.129-.016-15.2a.67.67,0,0,1,.362-.669c1.016-.6,2.017-1.236,3.028-1.85.47-.287.577-.217.577.349q0,8.665-.01,17.323c0,.387.091.5.465.488.849-.03,1.7-.025,2.549,0,.315.008.415-.077.413-.421-.016-2.17-.009-4.341-.007-6.511a3.83,3.83,0,0,1,3.742-3.927c3.038-.017,6.078,0,9.117,0,.438,0,.514.138.3.53-.615,1.1-1.24,2.19-1.848,3.294a.611.611,0,0,1-.621.349c-1.854-.013-3.709-.007-5.563-.007-.815,0-1.112.317-1.113,1.17,0,1.7.005,3.4-.013,5.106,0,.342.1.42.413.418,2.769-.014,5.537-.008,8.306-.008.563,0,.564,0,.565.567q0,1.508,0,3.015c0,.526,0,.527-.524.528h-8.46m-19.06-7.108c0-.884.005-1.768,0-2.65,0-.681-.325-1.03-.964-1.034-1.351-.006-2.7,0-4.054-.008-.262,0-.322.091-.32.345.008,1.783,0,3.564.005,5.343a.911.911,0,0,0,.966,1c1.338.005,2.677-.009,4.015.01.3,0,.364-.11.359-.395-.015-.87-.006-1.741-.005-2.611" transform="translate(16322 14135)" fill="#757b7f"/>
    <path id="Path_145773" data-name="Path 145773" d="M1795.04,267.457q0-3.963-.006-7.925c2.229-1.334,4.454-2.635,6.686-3.963.089-.051.244-.144.244-.144s-.01-.23-.011-.338c0-2.545,0-5.089,0-7.634,0-.149.015-.36.015-.36s.186-.141.293-.2l6.658-3.912v.422c0,2.493-.006,4.983.005,7.473,0,.141,0,.359,0,.359s-.2.134-.314.2c-2.043,1.213-4.071,2.457-6.123,3.655-.191.11-.519.335-.519.335s.008.361.011.6c.022,2.557.01,5.117.009,7.674q-3.474,2.092-6.948,4.18Z" transform="translate(16322 14135)" fill="#161a46"/>
    <path id="Path_145774" data-name="Path 145774" d="M1816.212,263.919c1.152.676,2.268,1.4,3.414,2.081,1.024.612,2.073,1.232,3.1,1.842l-6.956,4.19-.337-.2q-3.1-1.881-6.2-3.766c-.113-.071-.309-.206-.309-.206s-.237.129-.378.217c-1.131.709-2.278,1.388-3.422,2.073q-1.363.819-2.732,1.629c-.133.079-.275.14-.413.209l-6.939-4.111q3.476-2.09,6.949-4.181l6.935,4.164s.152-.1.239-.156l6.279-3.737c.166-.094.458-.256.458-.256" transform="translate(16322 14135)" fill="#37c3eb"/>
    <path id="Path_145775" data-name="Path 145775" d="M1781.2,284.509l-6.851-4.22,6.858-4.126,6.934,4.172s.2-.133.332-.212c2.089-1.267,4.478-2.77,6.572-4.032l6.793,4.289-6.762,4.129-6.935-4.174-.349.208Z" transform="translate(16322 14135)" fill="#883994"/>
    <path id="Path_145776" data-name="Path 145776" d="M1788.094,263.75l.086-8.318q2.209,1.314,4.419,2.628c.815.485,1.624.98,2.436,1.472v8.343Z" transform="translate(16322 14135)" fill="#633a94"/>
    <path id="Path_145777" data-name="Path 145777" d="M1795.05,276.092c0-2.722-.014-5.5-.014-8.218l6.939,4.113-.133,8.392Z" transform="translate(16322 14135)" fill="#161a46"/>
    <path id="Path_145778" data-name="Path 145778" d="M1781.2,259.858v-.316s.156-.106.251-.163l6.729-3.949-.086,8.321-6.894,4.038Z" transform="translate(16322 14135)" fill="#161a46"/>
    <path id="Path_145779" data-name="Path 145779" d="M1822.724,259.52v8.32c-1.025-.61-2.074-1.227-3.1-1.841-1.146-.686-2.262-1.406-3.414-2.081-.224-.159-.316-.21-.316-.21s-.013-.293-.013-.393c.014-2.448-.045-4.9-.047-7.347,0-.145.008-.421,0-.566Z" transform="translate(16322 14135)" fill="#0376ba"/>
    <path id="Path_145780" data-name="Path 145780" d="M1833.673,306.01a1.674,1.674,0,0,1,2.337-.008c.137.112.2.08.321-.015a2,2,0,0,1,1.863-.37,1.545,1.545,0,0,1,1.121,1.554c.025,1.044,0,2.089.01,3.134,0,.212-.073.284-.271.275-.27-.01-.541-.013-.811,0-.243.015-.309-.09-.306-.329.01-.87.007-1.741,0-2.61a.776.776,0,0,0-.477-.833c-.516-.181-.942.155-.952.761-.014.858-.021,1.715,0,2.573.01.36-.107.449-.44.442-.971-.019-.972-.006-.972-1.012,0-.641.005-1.285,0-1.927-.006-.576-.243-.864-.694-.867s-.738.307-.744.873c-.007.856-.011,1.713,0,2.571.005.283-.087.382-.355.357a5.123,5.123,0,0,0-.733,0c-.244.02-.3-.09-.3-.326.008-1.42.011-2.84,0-4.259,0-.269.085-.351.332-.334a4.863,4.863,0,0,0,.734,0c.226-.017.347.059.333.35" transform="translate(16322 14135)" fill="#757b7f"/>
    <path id="Path_145781" data-name="Path 145781" d="M1823.806,307.139c0-1.018.008-2.033-.005-3.052,0-.3.051-.43.38-.427,1.248.02,2.5.014,3.744,0,.264,0,.357.075.358.362.006.965.016.965-.9.967-.6,0-1.209.008-1.814,0-.23,0-.308.07-.315.318-.031,1.123-.039,1.123,1.047,1.123.386,0,.772.011,1.158,0,.24-.008.34.068.346.338.023.981.031.981-.907.981-.437,0-.875.013-1.312,0-.258-.011-.342.094-.33.349a8.7,8.7,0,0,1,0,.883c-.014.258.095.317.319.313.785-.007,1.57.007,2.354-.008.27-.006.349.082.35.361,0,.938.012.938-.878.938-1.068,0-2.136-.014-3.2.007-.338.008-.408-.114-.4-.433.016-1,.006-2.009.006-3.013" transform="translate(16322 14135)" fill="#757b7f"/>
    <path id="Path_145782" data-name="Path 145782" d="M1829.287,306.639c0-.883.007-1.766-.005-2.647,0-.248.076-.321.309-.329,1.076-.035,1.076-.042,1.076,1.088,0,1.338,0,2.676,0,4.013,0,.371.048.683.513.654.105-.006.212.032.213.174,0,.295,0,.589,0,.883,0,.141-.1.173-.214.172-.232,0-.464.013-.694-.011a1.194,1.194,0,0,1-1.185-1.308c-.02-.9,0-1.793,0-2.689Z" transform="translate(16322 14135)" fill="#757b7f"/>
  </g>
</svg>
