<svg xmlns="http://www.w3.org/2000/svg" width="71.447" height="44.73" viewBox="0 0 71.447 44.73">
  <g id="Client_38_" data-name="Client_38 " transform="translate(-16406.998 -14389.448)">
    <path id="Path_141095" data-name="Path 141095" d="M86.654,292.2a.418.418,0,0,0-.314.135.466.466,0,0,0-.127.335.424.424,0,0,0,.127.317.433.433,0,0,0,.314.126.42.42,0,0,0,.311-.126.434.434,0,0,0,.125-.317.477.477,0,0,0-.125-.335.406.406,0,0,0-.311-.135" transform="translate(16322 14135)" fill="#aa9464"/>
    <path id="Path_141096" data-name="Path 141096" d="M120.1,266.431a4.624,4.624,0,0,0,.9-2.78V263.4a3.156,3.156,0,0,0-1.116-2.628,4.459,4.459,0,0,0-2.9-.975h-6.392a1.281,1.281,0,0,1-1.238-1.3v-.083a1.268,1.268,0,0,1,1.238-1.288H119.6v-2.677h-8.729a4.435,4.435,0,0,0-2.891.983,3.865,3.865,0,0,0-1.173,2.918v.2a4.26,4.26,0,0,0,1.369,3.038,3.706,3.706,0,0,0,2.717.786h6.369a1.205,1.205,0,0,1,.911.376,1.251,1.251,0,0,1,.369.93,1.174,1.174,0,0,1-.369.931,1.478,1.478,0,0,1-.911.387H106.808v2.639H117.7a3.061,3.061,0,0,0,2.4-1.209" transform="translate(16322 14135)" fill="#08ad9e"/>
    <path id="Path_141097" data-name="Path 141097" d="M122.633,258.606v14.2h2.691V258.35a3.754,3.754,0,0,0-1.238-2.873,4.157,4.157,0,0,0-2.858-1.029v2.679a1.352,1.352,0,0,1,1.405,1.479" transform="translate(16322 14135)" fill="#aa9464"/>
    <path id="Path_141098" data-name="Path 141098" d="M134.3,274.995a1.264,1.264,0,0,0-1.811,0,1.349,1.349,0,0,0,0,1.883,1.267,1.267,0,0,0,1.811,0,1.4,1.4,0,0,0,0-1.883" transform="translate(16322 14135)" fill="#aa9464"/>
    <path id="Path_141099" data-name="Path 141099" d="M132.1,273.715h2.56v-15.3a5.983,5.983,0,0,0-.052-.81,3.74,3.74,0,0,0-1.034-2,3.561,3.561,0,0,0-2.665-1.15c-.025,0-.048,0-.072,0a3.7,3.7,0,0,0-1.7.38,3.787,3.787,0,0,0-1.034.773,4.025,4.025,0,0,0-1.166,2.744v16.239l-4.3-.034a3.507,3.507,0,0,1-1.657,2.718h8.519l0-18.838a1.278,1.278,0,0,1,.376-.949,1.321,1.321,0,0,1,1.858,0,.361.361,0,0,1,.023.031c.006.005.008.01.013.013a1.271,1.271,0,0,1,.34.9Z" transform="translate(16322 14135)" fill="#08ad9e"/>
    <path id="Path_141100" data-name="Path 141100" d="M119.9,270.414a3.776,3.776,0,0,0-2.815-1.118h-6.409a3.738,3.738,0,0,0-2.765,1.161,3.872,3.872,0,0,0-1.141,2.654v.348a3.933,3.933,0,0,0,3.906,3.814h6.409a3.775,3.775,0,0,0,2.815-1.117,3.722,3.722,0,0,0,1.093-2.7v-.348a3.712,3.712,0,0,0-1.093-2.7m-1.363,2.929a1.251,1.251,0,0,1-.367.907,1.274,1.274,0,0,1-.948.375h-6.694a1.319,1.319,0,0,1-1.314-1.282v-.118a1.3,1.3,0,0,1,.384-.892,1.249,1.249,0,0,1,.93-.389h6.694a1.271,1.271,0,0,1,.948.376,1.244,1.244,0,0,1,.367.9Z" transform="translate(16322 14135)" fill="#08ad9e"/>
    <path id="Path_141101" data-name="Path 141101" d="M92.839,287.788a3.838,3.838,0,0,0-.652-.734,2.063,2.063,0,0,0-.722-.421l-.182.688a2.39,2.39,0,0,1,.758.529,2.692,2.692,0,0,1,.458.663,2.605,2.605,0,0,1,.225.672,2.739,2.739,0,0,1,.052.568h-1.9a1.882,1.882,0,0,1-.26-.018,1.246,1.246,0,0,1-.206-.041c-.069-.02-.132-.044-.188-.064l-.04.584c.052.019.109.043.172.063a1.52,1.52,0,0,0,.2.045,1.225,1.225,0,0,0,.254.022h2.692v-.591a3.06,3.06,0,0,0-.181-1.028,4.185,4.185,0,0,0-.474-.937" transform="translate(16322 14135)" fill="#aa9464"/>
    <path id="Path_141102" data-name="Path 141102" d="M87.8,292.208a.41.41,0,0,0-.308.132.46.46,0,0,0-.126.328.421.421,0,0,0,.126.312.429.429,0,0,0,.308.124.414.414,0,0,0,.305-.124.426.426,0,0,0,.122-.312.466.466,0,0,0-.122-.328.4.4,0,0,0-.305-.132" transform="translate(16322 14135)" fill="#aa9464"/>
    <path id="Path_141103" data-name="Path 141103" d="M88.138,287.776a1.261,1.261,0,0,1,.855-.341.242.242,0,0,1,.115.029.209.209,0,0,0,.1.03.1.1,0,0,0,.078-.041.407.407,0,0,0,.054-.1.52.52,0,0,0,.037-.12.543.543,0,0,0,.012-.1.249.249,0,0,0-.059-.167.28.28,0,0,0-.218-.071,1.932,1.932,0,0,0-.923.209,2.029,2.029,0,0,0-.635.528,2.321,2.321,0,0,0-.494,1.381.738.738,0,0,0,.046.285.344.344,0,0,0,.167.172.957.957,0,0,0,.319.087,4.443,4.443,0,0,0,.51.025h.567c.086,0,.127.032.127.1,0,.136,0,.282-.012.43a.692.692,0,0,1-.166.415,1.121,1.121,0,0,1-.516.314,3.446,3.446,0,0,1-1.058.124A1.455,1.455,0,0,1,86,290.6a1.518,1.518,0,0,1-.384-1.149,2.283,2.283,0,0,1,.136-.752,5.7,5.7,0,0,1,.306-.718h-.473c-.062.093-.128.194-.2.309a2.508,2.508,0,0,0-.19.388,2.968,2.968,0,0,0-.141.514,3.6,3.6,0,0,0-.056.669,1.425,1.425,0,0,0,.146.612,1.829,1.829,0,0,0,.412.555,2.1,2.1,0,0,0,.638.4,2.169,2.169,0,0,0,.841.157,5.6,5.6,0,0,0,1.062-.09,1.8,1.8,0,0,0,.729-.3,1.264,1.264,0,0,0,.424-.579,2.648,2.648,0,0,0,.138-.923,1.393,1.393,0,0,0-.044-.391.435.435,0,0,0-.118-.208.338.338,0,0,0-.178-.083,1.527,1.527,0,0,0-.222-.017h-.9a.154.154,0,0,1-.163-.1.565.565,0,0,1-.035-.178,1.184,1.184,0,0,1,.116-.531,1.342,1.342,0,0,1,.292-.4" transform="translate(16322 14135)" fill="#aa9464"/>
    <path id="Path_141104" data-name="Path 141104" d="M147.807,286.3a.409.409,0,0,0,.3-.122.421.421,0,0,0,.122-.314.462.462,0,0,0-.122-.328.4.4,0,0,0-.3-.131.413.413,0,0,0-.309.131.461.461,0,0,0-.126.328.42.42,0,0,0,.126.314.428.428,0,0,0,.309.122" transform="translate(16322 14135)" fill="#aa9464"/>
    <path id="Path_141105" data-name="Path 141105" d="M146.512,286.3a.413.413,0,0,0,.3-.122.433.433,0,0,0,.122-.314.476.476,0,0,0-.122-.328.4.4,0,0,0-.3-.131.41.41,0,0,0-.309.131.462.462,0,0,0-.127.328.426.426,0,0,0,.436.436" transform="translate(16322 14135)" fill="#aa9464"/>
    <path id="Path_141106" data-name="Path 141106" d="M118.4,286.294a.414.414,0,0,0,.305-.124.428.428,0,0,0,.122-.311.469.469,0,0,0-.122-.328.4.4,0,0,0-.305-.133.407.407,0,0,0-.307.133.454.454,0,0,0-.126.328.415.415,0,0,0,.126.311.425.425,0,0,0,.307.124" transform="translate(16322 14135)" fill="#aa9464"/>
    <path id="Path_141107" data-name="Path 141107" d="M117.106,286.294a.409.409,0,0,0,.3-.124.424.424,0,0,0,.123-.311.465.465,0,0,0-.123-.328.392.392,0,0,0-.3-.133.406.406,0,0,0-.309.133.454.454,0,0,0-.125.328.414.414,0,0,0,.125.311.425.425,0,0,0,.309.124" transform="translate(16322 14135)" fill="#aa9464"/>
    <path id="Path_141108" data-name="Path 141108" d="M124.912,289.333c-.09.027-.183.056-.28.081s-.206.058-.328.083a.392.392,0,0,1-.227-.016.725.725,0,0,1-.235-.13.746.746,0,0,1-.173-.219.508.508,0,0,1-.051-.291.583.583,0,0,1,.185-.387.679.679,0,0,1,.872.082l.506-.475a1.032,1.032,0,0,0-.43-.288,1.243,1.243,0,0,0-.49-.063,1.562,1.562,0,0,0-.486.128,1.621,1.621,0,0,0-.423.275,1.372,1.372,0,0,0-.3.391,1,1,0,0,0-.115.469.864.864,0,0,0,.043.251,1.472,1.472,0,0,0,.119.265.924.924,0,0,0,.181.227.5.5,0,0,0,.234.118c-.128.082-.266.176-.419.279a4.507,4.507,0,0,0-.4.3v.444a5.355,5.355,0,0,1,.563-.341,5.7,5.7,0,0,1,.624-.28,4.3,4.3,0,0,1,.648-.186,2.981,2.981,0,0,1,.644-.073,3.425,3.425,0,0,1,.132-.418c.049-.115.1-.233.15-.353a2.039,2.039,0,0,0-.279.05c-.086.02-.176.047-.265.073" transform="translate(16322 14135)" fill="#aa9464"/>
    <path id="Path_141109" data-name="Path 141109" d="M131.725,291.042a.409.409,0,0,0-.307.132.452.452,0,0,0-.127.327.414.414,0,0,0,.127.312.422.422,0,0,0,.307.125.414.414,0,0,0,.3-.125.426.426,0,0,0,.122-.312.465.465,0,0,0-.122-.327.4.4,0,0,0-.3-.132" transform="translate(16322 14135)" fill="#aa9464"/>
    <path id="Path_141110" data-name="Path 141110" d="M134.055,289.752h-2.093V286.86l-.607.181v2.711h-2.116c-.006-.2-.015-.417-.028-.656s-.028-.491-.047-.751-.043-.523-.075-.781-.066-.508-.1-.745l-.624.2a8.3,8.3,0,0,1,.221,1.561c.026.542.04,1.061.04,1.552a1.5,1.5,0,0,1-.072.484,1.515,1.515,0,0,1-.18.377,1.311,1.311,0,0,1-.253.284,1.881,1.881,0,0,1-.292.2,2.547,2.547,0,0,1-.8.269l.15.468a2.359,2.359,0,0,0,1.019-.237,1.929,1.929,0,0,0,.619-.509,1.9,1.9,0,0,0,.316-.605,2.572,2.572,0,0,0,.107-.522h5.423V284.89l-.607.18Z" transform="translate(16322 14135)" fill="#aa9464"/>
    <path id="Path_141111" data-name="Path 141111" d="M135.586,290.342h.608V284.89l-.608.18Z" transform="translate(16322 14135)" fill="#aa9464"/>
    <path id="Path_141112" data-name="Path 141112" d="M142.178,291.042a.414.414,0,0,0-.309.132.456.456,0,0,0-.127.327.418.418,0,0,0,.127.312.426.426,0,0,0,.309.125.4.4,0,0,0,.3-.125.42.42,0,0,0,.124-.312.458.458,0,0,0-.124-.327.393.393,0,0,0-.3-.132" transform="translate(16322 14135)" fill="#aa9464"/>
    <path id="Path_141113" data-name="Path 141113" d="M156.423,289.262a4.891,4.891,0,0,0-.091-.528c-.043-.192-.1-.391-.158-.593a3.266,3.266,0,0,0-.225-.551,1.757,1.757,0,0,0-.287-.406.49.49,0,0,0-.349-.158.616.616,0,0,0-.357.214,3.892,3.892,0,0,0-.491.582c-.175.247-.359.534-.55.865a10.01,10.01,0,0,0-.519,1.064h-1.524V289.2a1.83,1.83,0,0,0-.174-.768,4.934,4.934,0,0,0-.426-.752c-.078-.109-.17-.224-.272-.347s-.212-.237-.329-.35-.232-.224-.35-.324-.233-.2-.343-.277l2.123-.73.181-.789-2.809,1.059-.04,1.009a3.072,3.072,0,0,1,.714.461,4.405,4.405,0,0,1,.588.607,3.193,3.193,0,0,1,.4.641,1.406,1.406,0,0,1,.145.56v.549h-3.828v-2.89l-.609.181v2.709h-1.981v-2.89l-.609.181v2.709h-3.59a.765.765,0,0,1-.892-.854,2.547,2.547,0,0,1,.185-.846,5.815,5.815,0,0,1,.453-.926h-.552c-.059.1-.129.212-.213.333a2.665,2.665,0,0,0-.241.413,2.9,2.9,0,0,0-.2.571,3.332,3.332,0,0,0-.083.794,1.046,1.046,0,0,0,.118.515.915.915,0,0,0,.332.345,1.489,1.489,0,0,0,.5.19,2.987,2.987,0,0,0,.615.056H153.19a1.167,1.167,0,0,0,.521-.1.807.807,0,0,0,.324-.412c.384.2.71.366.974.489s.478.219.637.283a.515.515,0,0,0,.22.059.347.347,0,0,0,.12-.019.3.3,0,0,0,.1-.063.681.681,0,0,0,.106-.151c.037-.063.086-.151.142-.261a.762.762,0,0,0,.1-.3c.005-.091.011-.171.016-.244a2.221,2.221,0,0,0-.02-.366m-.944.551c-.136-.052-.275-.111-.417-.181s-.283-.141-.418-.22a3.052,3.052,0,0,1-.372-.251c.027-.056.079-.156.157-.3s.169-.293.269-.445a3.58,3.58,0,0,1,.3-.4c.1-.113.191-.172.265-.172s.149.063.212.19a2.3,2.3,0,0,1,.167.487q.07.3.122.676c.034.248.063.5.083.743-.11-.034-.234-.075-.372-.129" transform="translate(16322 14135)" fill="#aa9464"/>
    <path id="Path_141114" data-name="Path 141114" d="M109.543,289.752H107.6V286.86l-.608.181v2.711H105.8V286.86l-.609.181v2.711h-1.184V286.86l-.606.181v2.711h-2.757l1.257-1.667a5.977,5.977,0,0,0-.483-.547,2.647,2.647,0,0,0-.465-.369,1.81,1.81,0,0,0-.493-.209,2.294,2.294,0,0,0-.572-.065,2.255,2.255,0,0,0-.577.068,1.86,1.86,0,0,0-.5.219,2.285,2.285,0,0,0-.458.378,5.771,5.771,0,0,0-.458.549l1.255,1.643H97.044q0-.8-.066-1.494c-.044-.467-.1-.9-.162-1.29a5.65,5.65,0,0,0-1.251.312,3.143,3.143,0,0,0-.848.476,1.734,1.734,0,0,0-.483.589,1.479,1.479,0,0,0-.149.636,1.355,1.355,0,0,0,.355,1.031,1.535,1.535,0,0,0,1.075.331h.891a1.383,1.383,0,0,1-.1.42,1.415,1.415,0,0,1-.186.315,1.273,1.273,0,0,1-.232.232,1.42,1.42,0,0,1-.251.15,1.757,1.757,0,0,1-.665.173l.174.575a2,2,0,0,0,1.5-.785,1.8,1.8,0,0,0,.3-.582,2.088,2.088,0,0,0,.094-.5h2.235a1.408,1.408,0,0,0,.382-.04.447.447,0,0,0,.234-.231.327.327,0,0,0,.189.231,1.355,1.355,0,0,0,.378.04h9.695V284.89l-.607.18Zm-14.148,0a.612.612,0,0,1-.331-.078.686.686,0,0,1-.206-.2.8.8,0,0,1-.106-.255,1.289,1.289,0,0,1-.028-.26,1,1,0,0,1,.383-.761,3.038,3.038,0,0,1,1.2-.513c.017.131.031.274.043.426s.025.308.036.462.018.3.024.456.009.291.009.422c0,.049,0,.1,0,.15s0,.1,0,.146Zm4.493,0L98.634,288.1a1.133,1.133,0,0,1,.184-.209,1.28,1.28,0,0,1,.272-.2,1.889,1.889,0,0,1,.355-.152,1.484,1.484,0,0,1,.443-.06,1.6,1.6,0,0,1,.437.056,2.028,2.028,0,0,1,.372.145,1.57,1.57,0,0,1,.3.191,1.643,1.643,0,0,1,.212.215Z" transform="translate(16322 14135)" fill="#a99365"/>
    <path id="Path_141115" data-name="Path 141115" d="M119.743,289.752H116.15a.877.877,0,0,1-.7-.237.891.891,0,0,1-.193-.617,2.532,2.532,0,0,1,.185-.845,5.771,5.771,0,0,1,.454-.93h-.552a3.446,3.446,0,0,1-.213.334,2.815,2.815,0,0,0-.242.413,3.183,3.183,0,0,0-.2.571,3.4,3.4,0,0,0-.083.793,1.055,1.055,0,0,0,.119.518.925.925,0,0,0,.332.346,1.5,1.5,0,0,0,.5.188,3.061,3.061,0,0,0,.617.057h4.176V286.86l-.607.181Z" transform="translate(16322 14135)" fill="#aa9464"/>
    <path id="Path_141116" data-name="Path 141116" d="M111.075,290.342h.608V284.89l-.608.18Z" transform="translate(16322 14135)" fill="#aa9464"/>
    <path id="Path_141117" data-name="Path 141117" d="M126.145,290.342h.607V284.89l-.607.18Z" transform="translate(16322 14135)" fill="#aa9464"/>
    <path id="Path_141118" data-name="Path 141118" d="M121.225,290.342h.609V284.89l-.609.18Z" transform="translate(16322 14135)" fill="#aa9464"/>
    <path id="Path_141119" data-name="Path 141119" d="M87.831,294.809a1.312,1.312,0,0,0-.807-.237,1.759,1.759,0,0,0-.391.042.976.976,0,0,0-.343.137.744.744,0,0,0-.239.259.824.824,0,0,0-.089.4.529.529,0,0,0,.129.371.97.97,0,0,0,.345.23,2.742,2.742,0,0,0,.489.148c.181.041.366.083.554.128s.373.1.555.164a1.774,1.774,0,0,1,.488.251,1.219,1.219,0,0,1,.345.4,1.456,1.456,0,0,1-.04,1.28,1.407,1.407,0,0,1-.435.456,1.863,1.863,0,0,1-.594.256,2.721,2.721,0,0,1-.654.079,2.683,2.683,0,0,1-.754-.1,1.828,1.828,0,0,1-.624-.316,1.454,1.454,0,0,1-.425-.538,1.794,1.794,0,0,1-.156-.776h.6a1.16,1.16,0,0,0,.116.535,1.111,1.111,0,0,0,.306.368,1.241,1.241,0,0,0,.442.216,1.953,1.953,0,0,0,.518.067,2.082,2.082,0,0,0,.428-.041,1.227,1.227,0,0,0,.388-.14.8.8,0,0,0,.279-.275.822.822,0,0,0,.106-.44.632.632,0,0,0-.129-.415.927.927,0,0,0-.345-.259,2.562,2.562,0,0,0-.488-.163l-.555-.127q-.282-.068-.554-.152a1.96,1.96,0,0,1-.488-.229,1.1,1.1,0,0,1-.346-.365,1.127,1.127,0,0,1-.129-.565,1.343,1.343,0,0,1,.146-.644,1.3,1.3,0,0,1,.388-.449,1.662,1.662,0,0,1,.551-.263,2.3,2.3,0,0,1,.635-.087,2.364,2.364,0,0,1,.677.091,1.494,1.494,0,0,1,.548.281,1.388,1.388,0,0,1,.372.487,1.808,1.808,0,0,1,.149.7h-.6a1.048,1.048,0,0,0-.369-.771" transform="translate(16322 14135)" fill="#aa9464"/>
    <path id="Path_141120" data-name="Path 141120" d="M93.5,299.055a.757.757,0,0,1-.406.09.474.474,0,0,1-.348-.128.572.572,0,0,1-.13-.418,1.357,1.357,0,0,1-.541.418,1.79,1.79,0,0,1-1.109.072.989.989,0,0,1-.362-.173.818.818,0,0,1-.242-.3,1.266,1.266,0,0,1,.01-.957.894.894,0,0,1,.262-.316,1.183,1.183,0,0,1,.372-.182c.14-.041.283-.077.429-.105s.3-.056.441-.072a2.356,2.356,0,0,0,.368-.068.649.649,0,0,0,.253-.131.331.331,0,0,0,.093-.252.61.61,0,0,0-.07-.313.478.478,0,0,0-.179-.178.683.683,0,0,0-.246-.084,2.045,2.045,0,0,0-.269-.021,1.157,1.157,0,0,0-.6.143.606.606,0,0,0-.26.535H90.4a1.318,1.318,0,0,1,.133-.561,1.066,1.066,0,0,1,.319-.369,1.281,1.281,0,0,1,.455-.2,2.28,2.28,0,0,1,.547-.063,2.856,2.856,0,0,1,.462.036,1.139,1.139,0,0,1,.415.14.819.819,0,0,1,.3.3.989.989,0,0,1,.112.5v1.833a1.387,1.387,0,0,0,.024.3c.015.063.067.1.156.1a.611.611,0,0,0,.173-.028Zm-.917-1.831a.638.638,0,0,1-.279.12c-.115.026-.235.047-.362.064s-.253.034-.381.053a1.419,1.419,0,0,0-.346.1.652.652,0,0,0-.249.2.565.565,0,0,0-.1.349.47.47,0,0,0,.2.4.612.612,0,0,0,.208.089,1.039,1.039,0,0,0,.253.028,1.289,1.289,0,0,0,.478-.08.985.985,0,0,0,.325-.2.772.772,0,0,0,.186-.261.665.665,0,0,0,.06-.263Z" transform="translate(16322 14135)" fill="#aa9464"/>
    <path id="Path_141121" data-name="Path 141121" d="M97.124,299.069V298.5h-.013a1.189,1.189,0,0,1-.459.486,1.335,1.335,0,0,1-.657.155,1.463,1.463,0,0,1-.564-.094.9.9,0,0,1-.366-.264,1.033,1.033,0,0,1-.2-.411,2.349,2.349,0,0,1-.056-.53V295.5h.564v2.418a.724.724,0,0,0,.186.523.678.678,0,0,0,.512.194,1.116,1.116,0,0,0,.448-.083.811.811,0,0,0,.315-.235,1.03,1.03,0,0,0,.189-.354,1.489,1.489,0,0,0,.063-.448V295.5h.565v3.57Z" transform="translate(16322 14135)" fill="#aa9464"/>
    <path id="Path_141122" data-name="Path 141122" d="M101.8,299.07v-.485h-.013a.855.855,0,0,1-.439.429,1.607,1.607,0,0,1-.657.132,1.489,1.489,0,0,1-.694-.154,1.445,1.445,0,0,1-.492-.407,1.793,1.793,0,0,1-.295-.6,2.523,2.523,0,0,1-.1-.716,2.631,2.631,0,0,1,.1-.72,1.712,1.712,0,0,1,.292-.591,1.389,1.389,0,0,1,.491-.4,1.578,1.578,0,0,1,.973-.121,1.313,1.313,0,0,1,.305.092,1.29,1.29,0,0,1,.289.172.972.972,0,0,1,.23.266h.013v-1.837h.564v4.934ZM99.77,297.8a1.325,1.325,0,0,0,.193.426.935.935,0,0,0,.806.407.942.942,0,0,0,.485-.118.98.98,0,0,0,.326-.308,1.3,1.3,0,0,0,.182-.429,2.169,2.169,0,0,0,.057-.493,2.124,2.124,0,0,0-.06-.506,1.272,1.272,0,0,0-.189-.433.984.984,0,0,0-.336-.3,1.013,1.013,0,0,0-.5-.114.944.944,0,0,0-.485.117.925.925,0,0,0-.318.313,1.345,1.345,0,0,0-.173.44,2.413,2.413,0,0,0-.053.513,1.889,1.889,0,0,0,.063.486" transform="translate(16322 14135)" fill="#aa9464"/>
    <path id="Path_141123" data-name="Path 141123" d="M104.057,294.136h.564v.719h-.564Zm.564,4.934h-.564V295.5h.564Z" transform="translate(16322 14135)" fill="#aa9464"/>
    <path id="Path_141124" data-name="Path 141124" d="M111.1,294.138a1.442,1.442,0,0,1,1.086.382,1.755,1.755,0,0,1,0,2.153,1.407,1.407,0,0,1-1.086.38h-1.447v2.016h-.631v-4.931Zm-.212,2.361a1.089,1.089,0,0,0,.787-.228.882.882,0,0,0,.249-.675.872.872,0,0,0-.249-.674,1.132,1.132,0,0,0-.787-.233h-1.235v1.81Z" transform="translate(16322 14135)" fill="#aa9464"/>
    <path id="Path_141125" data-name="Path 141125" d="M117.058,299.055a.751.751,0,0,1-.4.09.474.474,0,0,1-.348-.128.567.567,0,0,1-.13-.418,1.357,1.357,0,0,1-.541.418,1.736,1.736,0,0,1-.668.128,1.718,1.718,0,0,1-.441-.056.981.981,0,0,1-.362-.173.809.809,0,0,1-.242-.3,1.253,1.253,0,0,1,.01-.957.884.884,0,0,1,.262-.316,1.173,1.173,0,0,1,.372-.182c.139-.041.282-.077.428-.105s.3-.056.442-.072a2.357,2.357,0,0,0,.368-.068.644.644,0,0,0,.252-.131.328.328,0,0,0,.094-.252.62.62,0,0,0-.07-.313.48.48,0,0,0-.18-.178.677.677,0,0,0-.246-.084,2.03,2.03,0,0,0-.268-.021,1.161,1.161,0,0,0-.6.143.607.607,0,0,0-.259.535h-.564a1.318,1.318,0,0,1,.133-.561,1.063,1.063,0,0,1,.318-.369,1.3,1.3,0,0,1,.455-.2,2.282,2.282,0,0,1,.548-.063,2.856,2.856,0,0,1,.462.036,1.146,1.146,0,0,1,.415.14.819.819,0,0,1,.3.3.989.989,0,0,1,.112.5v1.833a1.387,1.387,0,0,0,.024.3c.015.063.067.1.156.1a.6.6,0,0,0,.172-.028Zm-.916-1.831a.638.638,0,0,1-.279.12c-.115.026-.236.047-.362.064s-.253.034-.382.053a1.424,1.424,0,0,0-.345.1.637.637,0,0,0-.249.2.565.565,0,0,0-.1.349.474.474,0,0,0,.056.242.487.487,0,0,0,.147.162.612.612,0,0,0,.208.089,1.039,1.039,0,0,0,.253.028,1.279,1.279,0,0,0,.477-.08.98.98,0,0,0,.326-.2.786.786,0,0,0,.186-.261.665.665,0,0,0,.06-.263Z" transform="translate(16322 14135)" fill="#aa9464"/>
    <path id="Path_141126" data-name="Path 141126" d="M119.84,295.5v.519h-.684v2.216a.66.66,0,0,0,.017.166.169.169,0,0,0,.063.1.272.272,0,0,0,.129.045,1.576,1.576,0,0,0,.216.012h.259v.516h-.432a1.852,1.852,0,0,1-.375-.031.533.533,0,0,1-.252-.113.488.488,0,0,1-.143-.236,1.394,1.394,0,0,1-.046-.4v-2.272h-.585V295.5h.585v-1.07h.564v1.07Z" transform="translate(16322 14135)" fill="#aa9464"/>
    <path id="Path_141127" data-name="Path 141127" d="M123.685,298.841a1.521,1.521,0,0,1-.969.3,1.7,1.7,0,0,1-.715-.139,1.433,1.433,0,0,1-.508-.388,1.674,1.674,0,0,1-.309-.593,2.968,2.968,0,0,1-.115-.752,2.227,2.227,0,0,1,.119-.748,1.823,1.823,0,0,1,.335-.586,1.552,1.552,0,0,1,.512-.388,1.511,1.511,0,0,1,.647-.138,1.384,1.384,0,0,1,.76.2,1.547,1.547,0,0,1,.485.5,2.051,2.051,0,0,1,.253.665,2.96,2.96,0,0,1,.056.683h-2.57a1.505,1.505,0,0,0,.053.445,1.013,1.013,0,0,0,.193.373.932.932,0,0,0,.338.259,1.111,1.111,0,0,0,.485.1.958.958,0,0,0,.588-.172.843.843,0,0,0,.3-.524h.558a1.445,1.445,0,0,1-.5.9m-.136-2.294a1.018,1.018,0,0,0-.206-.32.994.994,0,0,0-.305-.216.936.936,0,0,0-.389-.078.948.948,0,0,0-.4.078.923.923,0,0,0-.3.22,1.033,1.033,0,0,0-.2.319,1.3,1.3,0,0,0-.086.392h1.973a1.244,1.244,0,0,0-.09-.395" transform="translate(16322 14135)" fill="#aa9464"/>
    <path id="Path_141128" data-name="Path 141128" d="M126.142,295.5v.566h.013a1.181,1.181,0,0,1,1.115-.649,1.41,1.41,0,0,1,.565.1.91.91,0,0,1,.365.268,1.015,1.015,0,0,1,.2.41,2.292,2.292,0,0,1,.056.53v2.348h-.564v-2.418a.731.731,0,0,0-.186-.525.674.674,0,0,0-.511-.192,1.079,1.079,0,0,0-.448.083.823.823,0,0,0-.316.234,1.035,1.035,0,0,0-.189.355,1.514,1.514,0,0,0-.064.447v2.016h-.563V295.5Z" transform="translate(16322 14135)" fill="#aa9464"/>
    <path id="Path_141129" data-name="Path 141129" d="M131.56,295.5v.519h-.684v2.216a.66.66,0,0,0,.017.166.169.169,0,0,0,.063.1.264.264,0,0,0,.129.045,1.576,1.576,0,0,0,.216.012h.259v.516h-.432a1.852,1.852,0,0,1-.375-.031.533.533,0,0,1-.252-.113.5.5,0,0,1-.143-.236,1.393,1.393,0,0,1-.046-.4v-2.272h-.585V295.5h.585v-1.07h.564v1.07Z" transform="translate(16322 14135)" fill="#aa9464"/>
    <path id="Path_141130" data-name="Path 141130" d="M135.581,295.631a2.458,2.458,0,0,1,.428-.824,2.077,2.077,0,0,1,.711-.573,2.392,2.392,0,0,1,1.978,0,2.068,2.068,0,0,1,.711.573,2.44,2.44,0,0,1,.428.824,3.368,3.368,0,0,1,0,1.942,2.492,2.492,0,0,1-.428.827,2.054,2.054,0,0,1-.711.568,2.423,2.423,0,0,1-1.978,0,2.064,2.064,0,0,1-.711-.568,2.511,2.511,0,0,1-.428-.827,3.368,3.368,0,0,1,0-1.942m.581,1.707a2.03,2.03,0,0,0,.292.652,1.52,1.52,0,0,0,2.51,0,2.054,2.054,0,0,0,.293-.652,2.986,2.986,0,0,0,.093-.735,3.02,3.02,0,0,0-.093-.737,2.06,2.06,0,0,0-.293-.653,1.525,1.525,0,0,0-.511-.466,1.661,1.661,0,0,0-1.488,0,1.525,1.525,0,0,0-.511.466,2.036,2.036,0,0,0-.292.653,2.972,2.972,0,0,0-.093.737,2.939,2.939,0,0,0,.093.735" transform="translate(16322 14135)" fill="#aa9464"/>
    <path id="Path_141131" data-name="Path 141131" d="M141.1,296.015V295.5h.578v-.532a.855.855,0,0,1,.242-.66,1.012,1.012,0,0,1,.707-.225,1.415,1.415,0,0,1,.182.014,1.246,1.246,0,0,1,.183.042v.512a.616.616,0,0,0-.159-.037,1.029,1.029,0,0,0-.159-.012.537.537,0,0,0-.32.082.38.38,0,0,0-.112.318v.5h.664v.518h-.664v3.055h-.564v-3.055Z" transform="translate(16322 14135)" fill="#aa9464"/>
    <path id="Path_141132" data-name="Path 141132" d="M143.739,296.015V295.5h.577v-.532a.859.859,0,0,1,.243-.66,1.012,1.012,0,0,1,.707-.225,1.443,1.443,0,0,1,.183.014,1.31,1.31,0,0,1,.183.042v.512a.634.634,0,0,0-.16-.037,1.029,1.029,0,0,0-.159-.012.532.532,0,0,0-.319.082.378.378,0,0,0-.113.318v.5h.664v.518h-.664v3.055h-.565v-3.055Z" transform="translate(16322 14135)" fill="#aa9464"/>
    <path id="Path_141133" data-name="Path 141133" d="M146.873,294.136h.565v.719h-.565Zm.564,4.934h-.565V295.5h.565Z" transform="translate(16322 14135)" fill="#aa9464"/>
    <path id="Path_141134" data-name="Path 141134" d="M151.156,296.119a.837.837,0,0,0-.571-.187,1.009,1.009,0,0,0-.511.12.913.913,0,0,0-.329.309,1.342,1.342,0,0,0-.176.445,2.555,2.555,0,0,0-.053.523,2.084,2.084,0,0,0,.056.482,1.324,1.324,0,0,0,.176.418.889.889,0,0,0,.771.407.908.908,0,0,0,.654-.23,1.042,1.042,0,0,0,.288-.641h.578a1.658,1.658,0,0,1-.475,1.021,1.455,1.455,0,0,1-1.039.359,1.748,1.748,0,0,1-.693-.13,1.315,1.315,0,0,1-.505-.374,1.627,1.627,0,0,1-.306-.577,2.468,2.468,0,0,1-.1-.735,2.693,2.693,0,0,1,.1-.75,1.747,1.747,0,0,1,.3-.607,1.433,1.433,0,0,1,.508-.409,1.618,1.618,0,0,1,.711-.148,1.97,1.97,0,0,1,.547.072,1.3,1.3,0,0,1,.452.225,1.2,1.2,0,0,1,.322.385,1.439,1.439,0,0,1,.159.547h-.584a.914.914,0,0,0-.279-.525" transform="translate(16322 14135)" fill="#aa9464"/>
    <path id="Path_141135" data-name="Path 141135" d="M155.4,298.76a1.548,1.548,0,0,1-.988.308,1.751,1.751,0,0,1-.728-.138,1.454,1.454,0,0,1-.518-.4,1.714,1.714,0,0,1-.316-.6,3.1,3.1,0,0,1-.118-.771,2.281,2.281,0,0,1,.122-.76,1.848,1.848,0,0,1,.342-.6,1.58,1.58,0,0,1,.521-.394,1.556,1.556,0,0,1,.66-.14,1.384,1.384,0,0,1,.776.2,1.6,1.6,0,0,1,.494.511,2.1,2.1,0,0,1,.258.676,3.047,3.047,0,0,1,.057.7h-2.62a1.471,1.471,0,0,0,.054.453,1.059,1.059,0,0,0,.2.382.992.992,0,0,0,.346.261,1.116,1.116,0,0,0,.493.1.97.97,0,0,0,.6-.177.863.863,0,0,0,.309-.536h.568a1.469,1.469,0,0,1-.508.924m-.139-2.34a1.027,1.027,0,0,0-.21-.326,1.012,1.012,0,0,0-.311-.219.933.933,0,0,0-.4-.083.952.952,0,0,0-.4.083.942.942,0,0,0-.308.222,1.054,1.054,0,0,0-.2.327,1.288,1.288,0,0,0-.088.4h2.011a1.273,1.273,0,0,0-.092-.4" transform="translate(16322 14135)" fill="#aa9464"/>
  </g>
</svg>
