<svg xmlns="http://www.w3.org/2000/svg" width="64.41" height="28.466" viewBox="0 0 64.41 28.466">
  <g id="Client_85" transform="translate(-17613.354 -14827.238)">
    <path id="Path_144069" data-name="Path 144069" d="M1302.263,702.9a9.432,9.432,0,0,0,3.7-2.433,5.735,5.735,0,0,0,1.472-4.456,2.908,2.908,0,0,0-2.835-2.789,10.946,10.946,0,0,0-9.89,6.4,5.782,5.782,0,0,0,2.892,7.8c1.633.821,3.377,1.319,5.066,1.974a15.459,15.459,0,0,1,2.344,1.119,5.044,5.044,0,0,1,2.637,4.718,4.958,4.958,0,0,1-2.879,4.551,7.484,7.484,0,0,1-10.81-4.457c.436.553.862,1.116,1.308,1.664a6.678,6.678,0,0,0,6.168,2.738,3.966,3.966,0,0,0,3.523-2.726,4.018,4.018,0,0,0-1.689-4.44,19.812,19.812,0,0,0-4.773-2.011c-1.043-.384-2.107-.726-3.109-1.206-3.564-1.7-4.944-5.467-3.422-9.34,1.6-4.079,4.825-6.106,8.7-7.221a10.919,10.919,0,0,1,5.6-.306,4.443,4.443,0,0,1,2.593,7.213,7.476,7.476,0,0,1-6.6,3.205" transform="translate(16322 14135)" fill="#c49357"/>
    <path id="Path_144070" data-name="Path 144070" d="M1349.388,708.728c-1.542,1.861-3.137,2.1-4.858.608-.407-.351-.532-.151-.776.077a2.423,2.423,0,0,1-2.926.644c-1.181-.6-1.271-1.786-1.279-2.971a3.179,3.179,0,0,1,.072-.761c.274-1.123.188-1.993-1.329-1.913a8.541,8.541,0,0,1-2.647,4.907c-1.359,1.3-2.264,1.384-3.557.169-.422-.4-.562-.037-.8.1-1.695,1.021-2.322.913-3.587-.631-.033-.032-.067-.065-.1-.1a5.78,5.78,0,0,1,3.075-5.66,2.236,2.236,0,0,1,1.675-.192c.3.078.57.293.456.634-.106.318-.41.191-.627.076-1.175-.615-1.89.093-2.458.993-.766,1.215-.842,3.044-.254,3.765a1.093,1.093,0,0,0,1.222.386c.5-.145,1.047-.241,1.154-.961a6.024,6.024,0,0,1,1.161-2.617c0,.867-.013,1.508,0,2.149a1.506,1.506,0,0,0,1.118,1.635,1.664,1.664,0,0,0,1.981-.924,6.173,6.173,0,0,0,.727-4.186,2.926,2.926,0,0,1-.1-1.01c.084-.609.632-.892.926-.432.617.966,1.5.906,2.379,1.038,1.385.207,1.614.612,1.273,2.089a5.447,5.447,0,0,0-.157,2.531,1.321,1.321,0,0,0,1.63,1.162c.812-.135,1.286-.494,1.15-1.551a4.734,4.734,0,0,1,2.354-4.668,7.24,7.24,0,0,0-.977,3.338c.023,2.374,1.461,3.326,3.517,2.322.147-.074.3-.12.456-.181l.1.127" transform="translate(16322 14135)" fill="#c49357"/>
    <path id="Path_144071" data-name="Path 144071" d="M1327.7,708.961a2.209,2.209,0,0,1-2.372,1.422c-1.052-.172-1.544-1.051-1.821-2.03a17.024,17.024,0,0,1-.6-3.664,7.41,7.41,0,0,0-1.678,3.086c-.227.591-.381,1.212-.575,1.819-.13.406-.253.854-.761.884-.568.029-.566-.485-.715-.87s-.039-.866-.371-1.19l.029.026c-.084-1.272-.174-2.546-.25-3.82a1.871,1.871,0,0,1,.269-1.345,1.085,1.085,0,0,1,1.185-.491c.532.17.232.657.2.987a17.441,17.441,0,0,0,.057,4.919,20.222,20.222,0,0,1,2.045-4.582c.337-.486.648-1.077,1.344-.872.607.177.495.808.569,1.295.146.969.243,1.948.422,2.908.406,2.181,1.152,2.532,2.926,1.42.033.034.067.068.1.1" transform="translate(16322 14135)" fill="#c49357"/>
    <path id="Path_144072" data-name="Path 144072" d="M1318.807,708.419c-2.079,2.55-4.751,2.664-6.886.3l-.108-.122c-.492-2.74.1-4.442,1.9-5.408a4.192,4.192,0,0,1,1.033-.4,2.014,2.014,0,0,1,2.493,1.089,2.218,2.218,0,0,1-1.382,2.658,5.088,5.088,0,0,1-2.015.539c-.672.022-.61.357-.444.819a2.673,2.673,0,0,0,2.891,1.44c.927-.094,1.642-.766,2.545-.886l-.028-.026m-3.021-3.844c-.01-.725-.312-1.1-.889-1.106-.88-.01-1.719,1.26-1.756,2.569-.015.571.25.613.676.583a2.129,2.129,0,0,0,1.969-2.046" transform="translate(16322 14135)" fill="#c49357"/>
    <path id="Path_144073" data-name="Path 144073" d="M1349.289,708.6c-.444-2.094-.242-3.974,1.762-5.462-.243,1.165-.816,2.091-.612,3.144a6.655,6.655,0,0,0,.361,1.351,2.272,2.272,0,0,0,2.044,1.593,1.778,1.778,0,0,0,1.786-1.312,2.393,2.393,0,0,0-.612-2.579,3.055,3.055,0,0,0-1-.727c-.344-.153-.973-.052-.875-.66.09-.559.652-.78,1.136-.845a1.833,1.833,0,0,1,1.775.924,4.309,4.309,0,0,1-.6,5.464c-1.631,1.38-3.314,1.128-5.07-.764l-.1-.127" transform="translate(16322 14135)" fill="#c49357"/>
    <path id="Path_144074" data-name="Path 144074" d="M1311.922,708.713a3.811,3.811,0,0,1-2.021,1.374,3.441,3.441,0,0,1-4.015-.633,3.49,3.49,0,0,1-.62-3.7,4.049,4.049,0,0,1,3.061-3,.711.711,0,0,1,.122-.016c.8-.043,1.683-.069,1.923.926.248,1.031-.554,1.362-1.562,1.767.491-.631,1.278-1.032.692-1.65-.566-.6-1.242-.183-1.78.224a3.507,3.507,0,0,0-.951,3.934,2.667,2.667,0,0,0,3.349,1.388,13.709,13.709,0,0,0,1.693-.738l.109.122" transform="translate(16322 14135)" fill="#c49357"/>
    <path id="Path_144075" data-name="Path 144075" d="M1345.914,700.7c.52.078.77.323.732.779a1.233,1.233,0,0,1-1.177,1.226c-.422.042-.667-.3-.634-.745a1.388,1.388,0,0,1,1.079-1.26" transform="translate(16322 14135)" fill="#c49357"/>
    <path id="Path_144076" data-name="Path 144076" d="M1310.994,713.148v1.472h-2.009v-.791a.678.678,0,0,1,.2-.481.625.625,0,0,1,.465-.2h.115v.413h-.115a.253.253,0,0,0-.187.084.269.269,0,0,0-.08.2v.366h1.213v-1.059Zm-.611-.179-.235-.244-.232.244-.236-.246.236-.245.232.243.235-.243.234.245Zm.871-.435h.4v2.086h-.4Zm1.451.611v1.062h.21v.413h-.236a.659.659,0,0,1-.233.365.632.632,0,0,1-.41.148h-.125v-.253h.125a.238.238,0,0,0,.183-.088.312.312,0,0,0,.083-.192v-1.455Zm.463,1.062v-1.062h.767a.63.63,0,0,1,.471.2.682.682,0,0,1,.194.489v.37h.181v.413h-.184l0,.008-.224.141a.266.266,0,0,0-.234-.149h-1.235c-.1,0-.152-.043-.152-.13v-.15c0-.089.051-.133.152-.133Zm1.034-.37a.264.264,0,0,0-.076-.191.283.283,0,0,0-.191-.086h-.37v.647h.424a.751.751,0,0,1,.213.032Zm.945.37v-1.059h.4v1.2a.33.33,0,0,1-.031.134.207.207,0,0,1-.2.135h-.539c-.1,0-.153-.043-.153-.13v-.15c0-.089.051-.133.153-.133Zm.448-1.238-.234-.244-.233.244-.236-.246.236-.245.233.243.234-.243.235.245Zm.824-.191v.137h-.461v-.137h.064a.2.2,0,0,1-.011-.07v-.022a.176.176,0,0,1,.051-.127.16.16,0,0,1,.123-.053h.04a.157.157,0,0,1,.116.047.175.175,0,0,1,.058.12h-.106c-.01-.04-.032-.061-.068-.061h-.04a.065.065,0,0,0-.071.074v.022c0,.048.018.07.054.07Zm.961.37v1.059h.22v.413h-.245a.655.655,0,0,1-.234.359.622.622,0,0,1-.4.145h-.127v-.253h.127a.226.226,0,0,0,.168-.074.327.327,0,0,0,.092-.177h-1.02v-.779a.675.675,0,0,1,.192-.489.629.629,0,0,1,.469-.2Zm-1.025,1.059h.627v-.638h-.363a.255.255,0,0,0-.182.076.272.272,0,0,0-.082.184Zm1.495,0v-1.062h.768a.626.626,0,0,1,.47.2.679.679,0,0,1,.195.489v.37h.18v.413h-.184l0,.008-.224.141a.266.266,0,0,0-.234-.149h-1.235c-.1,0-.153-.043-.153-.13v-.15c0-.089.051-.133.153-.133Zm1.035-.37a.264.264,0,0,0-.076-.191.285.285,0,0,0-.191-.086h-.37v.647h.424a.751.751,0,0,1,.213.032Zm.8.37v-1.673h.4v1.813a.339.339,0,0,1-.031.134.209.209,0,0,1-.2.136v0h-.394c-.1,0-.153-.043-.153-.13v-.15c0-.089.051-.133.153-.133Zm.661-1.673h.4v2.086h-.4Zm2.08.614v1.286a.683.683,0,0,1-.193.486.618.618,0,0,1-.469.2h-.126v-.253h.126a.228.228,0,0,0,.169-.074.341.341,0,0,0,.092-.177H1321v-.779a.675.675,0,0,1,.192-.489.629.629,0,0,1,.469-.2Zm-1.025,1.059h.627v-.638h-.363a.256.256,0,0,0-.182.076.272.272,0,0,0-.082.184Zm5,.413h-1.55l-.078-.119a.674.674,0,0,1-.214.441.632.632,0,0,1-.448.177h-.288a.628.628,0,0,1-.469-.2.688.688,0,0,1-.192-.489v-.087a.678.678,0,0,1,.192-.487.634.634,0,0,1,.469-.2h.075v.415h-.075a.253.253,0,0,0-.186.08.269.269,0,0,0-.078.194v.087a.273.273,0,0,0,.078.2.245.245,0,0,0,.186.079h.288a.254.254,0,0,0,.19-.079.28.28,0,0,0,.076-.2v-1.282h.4v.205a.63.63,0,0,1,.469-.205h.495a.627.627,0,0,1,.465.2.674.674,0,0,1,.2.481Zm-.4-.413v-.366a.282.282,0,0,0-.076-.2.249.249,0,0,0-.186-.084h-.669a.293.293,0,0,0-.2.084.26.26,0,0,0-.09.2v.366Zm-.766-1.245-.236-.244.236-.246.235.246Zm2.218.183v1.294a.68.68,0,0,1-.2.49.637.637,0,0,1-.472.2h-.125v-.253h.125a.238.238,0,0,0,.189-.1.319.319,0,0,0,.077-.21v-1.43Zm.66-.611v1.673h.186v.413h-.35a.21.21,0,0,1-.206-.137.357.357,0,0,1-.031-.136v-1.813Zm.464,1.673a.705.705,0,0,1-.058-.277v-.089a.673.673,0,0,1,.2-.489.629.629,0,0,1,.469-.2h.146a.629.629,0,0,1,.469.2.678.678,0,0,1,.192.489v.055l-.4.007v-.062a.268.268,0,0,0-.078-.2.246.246,0,0,0-.186-.084h-.146a.249.249,0,0,0-.187.084.268.268,0,0,0-.078.2v.089a.271.271,0,0,0,.078.194.245.245,0,0,0,.187.083h1.1v.413h-1.995c-.1,0-.152-.043-.152-.13v-.15c0-.089.051-.133.152-.133Zm1.959,0v-1.062h.768a.628.628,0,0,1,.47.2.679.679,0,0,1,.2.489v.37h.18v.413h-.184l0,.008-.224.141a.267.267,0,0,0-.235-.149h-1.234c-.1,0-.153-.043-.153-.13v-.15c0-.089.051-.133.153-.133Zm1.035-.37a.264.264,0,0,0-.076-.191.285.285,0,0,0-.191-.086h-.37v.647h.423a.752.752,0,0,1,.214.032Zm.8.37v-1.673h.4v1.813a.339.339,0,0,1-.031.134.208.208,0,0,1-.2.136v0h-.394c-.1,0-.153-.043-.153-.13v-.15c0-.089.051-.133.153-.133Zm.661-1.673h.4v2.086h-.4Zm2.966,1.673h.191v.413h-1.511a.251.251,0,0,0-.178.08.261.261,0,0,0-.089.194v.23h-.241v-.23a.642.642,0,0,1,.394-.628v-1.118h.769a.632.632,0,0,1,.465.2.682.682,0,0,1,.2.481Zm-.4-.366a.27.27,0,0,0-.078-.2.277.277,0,0,0-.191-.084h-.366v.646h.635Zm.958.366v-1.059h.4v1.059h.365v.413h-1.141c-.1,0-.153-.043-.153-.13v-.15c0-.089.051-.133.153-.133Zm.573.774-.234-.245-.235.243-.232-.243-.237.245.237.247.232-.245.235.245Zm.415-.774v-1.673h.4v.814a.624.624,0,0,1,.469-.2h.495a.622.622,0,0,1,.465.2.679.679,0,0,1,.2.48v.382h.18v.413h-2.439c-.1,0-.153-.043-.153-.13v-.15c0-.089.051-.133.153-.133Zm1.625-.37a.269.269,0,0,0-.076-.194.241.241,0,0,0-.186-.083h-.668a.3.3,0,0,0-.2.083.254.254,0,0,0-.09.194v.37h1.222Zm-.653-.875-.236-.244.236-.246.235.246Zm1.457,1.245v-1.062h.4v1.062h.215v.413h-.845c-.1,0-.153-.043-.153-.13v-.15c0-.089.051-.133.153-.133Zm.177-1.245-.236-.244.236-.246.234.246Zm.8,1.245v-1.059h.4v1.059h.364v.413h-1.141c-.1,0-.152-.043-.152-.13v-.15c0-.089.051-.133.152-.133Zm.448-1.238-.234-.244-.233.244-.236-.246.236-.245.233.243.234-.243.235.245Zm.537,1.238v-1.673h.4v1.813a.341.341,0,0,1-.031.134.209.209,0,0,1-.205.136v0h-.394c-.1,0-.153-.043-.153-.13v-.15c0-.089.051-.133.153-.133Z" transform="translate(16322 14135)" fill="#c49357"/>
    <text id="Events_Management" data-name="Events Management" transform="translate(17630.811 14853.413)" fill="#c49357" font-size="3.752" font-family="SegoeUI, Segoe UI"><tspan x="0" y="0" letter-spacing="-0.011em">E</tspan><tspan y="0" letter-spacing="-0.013em">v</tspan><tspan y="0">e</tspan><tspan y="0" letter-spacing="-0.003em">n</tspan><tspan y="0">ts </tspan><tspan y="0" letter-spacing="0.002em">M</tspan><tspan y="0">anageme</tspan><tspan y="0" letter-spacing="-0.005em">n</tspan><tspan y="0">t</tspan></text>
  </g>
</svg>
