<svg xmlns="http://www.w3.org/2000/svg" width="84.398" height="36.426" viewBox="0 0 84.398 36.426">
  <g id="Client_33" transform="translate(-16826.182 -14393.59)">
    <path id="Path_140844" data-name="Path 140844" d="M552.954,269.387l.007-.01.009-.017a.246.246,0,0,0-.016.027m-24.019,21.935-.019-.013a.151.151,0,0,1-.016-.011.154.154,0,0,0,.035.024m32.8-22.255a.285.285,0,0,1,.022.026l.011.012a.415.415,0,0,0-.033-.038m19.408,10.393a3.268,3.268,0,0,0,.562-2.16v-2.869a2.176,2.176,0,0,0,.931.43c.408.082,1.8.188,2.574-1.92a5.993,5.993,0,0,0,.367-1.914,2.691,2.691,0,0,0-2.447-2.853,2.288,2.288,0,0,0-1.916,1.168c-.035-.052-.069-.1-.108-.154-.006-.008-.013-.018-.02-.026a2.6,2.6,0,0,0-4.538,1.061l-.772-.988a2.429,2.429,0,0,0-1.989-1.059,2.592,2.592,0,0,0-2.4,1.481,2.859,2.859,0,0,0-.386-.589,2.6,2.6,0,0,0-1.964-.892,2.543,2.543,0,0,0-1.948.906,2.732,2.732,0,0,0-.338.479,2.655,2.655,0,0,0-2.282-1.385,2.574,2.574,0,0,0-2.178,1.248s-.058.09-.153.234a2.552,2.552,0,0,0-.383-.565,2.619,2.619,0,0,0-1.972-.917,2.517,2.517,0,0,0-2.331,1.516,2.944,2.944,0,0,0-.309-.5c-.006-.008-.012-.017-.019-.025a2.541,2.541,0,0,0-4.169.214,2.538,2.538,0,0,0-.369.846c-.416-.531-.772-.988-.772-.988a2.434,2.434,0,0,0-1.99-1.059,2.593,2.593,0,0,0-2.353,1.4,3,3,0,0,0-.278-.41,2.678,2.678,0,0,0-2.037-.986,2.586,2.586,0,0,0-2.036,1.033,2.416,2.416,0,0,0-.406.728,2.551,2.551,0,0,0-.54-.9,2.565,2.565,0,0,0-3.984.19.225.225,0,0,0-.019.024,2.776,2.776,0,0,0-.538,1.76,5.814,5.814,0,0,0-5.175-2.758h-1.946a2.658,2.658,0,0,0-2.732,1.836,2.628,2.628,0,0,0-.124.906h-.047a3.361,3.361,0,0,0-3.255-2.832l-8.686,0c-.068-.351-.034-.151-.185-.431a2.278,2.278,0,0,1,.3-1.57c-.023.035.3,1.327.3,1.326s.788-.651.8-.664a2.8,2.8,0,0,0,.989-2.314,3.147,3.147,0,0,0-.083-.717,2.784,2.784,0,0,0-2.271-2.148,3.7,3.7,0,0,0-2.6.736,3.364,3.364,0,0,0-1.282,2.275,3.145,3.145,0,0,0-.03.424,2.9,2.9,0,0,0,.152.925,2.8,2.8,0,0,0-2.949.333l-.008.007a3.259,3.259,0,0,0-1.4,2.261,2.88,2.88,0,0,0,.173,1.366,3.554,3.554,0,0,0-.4,1.654v16.734a3.392,3.392,0,0,0,3.311,3.461H524.36a3.358,3.358,0,0,0,3.248-2.791h.144l0,.2a2.717,2.717,0,0,0,.084.58,2.516,2.516,0,0,0,1.078,1.5,2.965,2.965,0,0,0,1.909.45h1.344a10.231,10.231,0,0,0,1.817-.138l.022-.005a5.744,5.744,0,0,0,2.753-1.476l.2-.2.01-.012a5.987,5.987,0,0,0,.754-1,6.324,6.324,0,0,0,.676.966,5.936,5.936,0,0,0,9.1,0l.134-.164a2.651,2.651,0,0,0,.443,1.018.2.2,0,0,0,.023.032,2.6,2.6,0,0,0,2.071,1.053,2.575,2.575,0,0,0,2-.976l.018-.026a2.569,2.569,0,0,0,.51-1.112c.007.011.774,1.032.774,1.032a2.5,2.5,0,0,0,2.056,1.082,2.556,2.556,0,0,0,2.046-1.026,2.619,2.619,0,0,0,.459-1c.011.015.026.038.026.038a5.057,5.057,0,0,0,4.095,2.171,5,5,0,0,0,3.814-1.835l.283-.366a5.731,5.731,0,0,0,.978-3.47v-1.688a3.024,3.024,0,0,0,.817.142v3.981l.011.457a2.778,2.778,0,0,0,.427,1.425.454.454,0,0,0,.03.046,2.574,2.574,0,0,0,2.135,1.126,2.491,2.491,0,0,0,2.174-1.247,2.988,2.988,0,0,0,.409-1.315s.006-.163.011-.308h.276a2.958,2.958,0,0,0,.2.653,4.609,4.609,0,0,0,4.391,2.4,4.48,4.48,0,0,0,3.419-1.318,4.262,4.262,0,0,0,.714-1.027,4.729,4.729,0,0,0,.494-2.107,4.248,4.248,0,0,0-1.2-3.041,2.4,2.4,0,0,0,.766-1.329,1.548,1.548,0,0,0,.995.365,1.6,1.6,0,0,0,1.561-1.364v0a.433.433,0,0,0,.005-.062l.019-.229a1.62,1.62,0,0,0-1.586-1.65,1.589,1.589,0,0,0-1.4.858,3.511,3.511,0,0,0-1.258-1.144,2.553,2.553,0,0,0,.5-.505c.474-.646-.143.193,0,0m2.194,3.213.006.012h-.008l0-.013m-6.427-13.287.007-.009.008-.016-.015.025m-9.825-.3.006-.006c.005-.005.008-.011.013-.015a.191.191,0,0,0-.019.021" transform="translate(16322 14135)" fill="#fff" fill-rule="evenodd"/>
    <path id="Path_140845" data-name="Path 140845" d="M552.954,269.387l.007-.01.009-.017A.246.246,0,0,0,552.954,269.387Zm-24.019,21.935-.019-.013a.151.151,0,0,1-.016-.011A.154.154,0,0,0,528.935,291.322Zm32.8-22.255a.285.285,0,0,1,.022.026l.011.012A.415.415,0,0,0,561.739,269.067Zm19.408,10.393a3.268,3.268,0,0,0,.562-2.16v-2.869a2.176,2.176,0,0,0,.931.43c.408.082,1.8.188,2.574-1.92a5.993,5.993,0,0,0,.367-1.914,2.691,2.691,0,0,0-2.447-2.853,2.288,2.288,0,0,0-1.916,1.168c-.035-.052-.069-.1-.108-.154-.006-.008-.013-.018-.02-.026a2.6,2.6,0,0,0-4.538,1.061l-.772-.988a2.429,2.429,0,0,0-1.989-1.059,2.592,2.592,0,0,0-2.4,1.481,2.859,2.859,0,0,0-.386-.589,2.6,2.6,0,0,0-1.964-.892,2.543,2.543,0,0,0-1.948.906,2.732,2.732,0,0,0-.338.479,2.655,2.655,0,0,0-2.282-1.385,2.574,2.574,0,0,0-2.178,1.248s-.058.09-.153.234a2.552,2.552,0,0,0-.383-.565,2.619,2.619,0,0,0-1.972-.917,2.517,2.517,0,0,0-2.331,1.516,2.944,2.944,0,0,0-.309-.5c-.006-.008-.012-.017-.019-.025a2.541,2.541,0,0,0-4.169.214,2.538,2.538,0,0,0-.369.846c-.416-.531-.772-.988-.772-.988a2.434,2.434,0,0,0-1.99-1.059,2.593,2.593,0,0,0-2.353,1.4,3,3,0,0,0-.278-.41,2.678,2.678,0,0,0-2.037-.986,2.586,2.586,0,0,0-2.036,1.033,2.416,2.416,0,0,0-.406.728,2.551,2.551,0,0,0-.54-.9,2.565,2.565,0,0,0-3.984.19.225.225,0,0,0-.019.024,2.776,2.776,0,0,0-.538,1.76,5.814,5.814,0,0,0-5.175-2.758h-1.946a2.658,2.658,0,0,0-2.732,1.836,2.628,2.628,0,0,0-.124.906h-.047a3.361,3.361,0,0,0-3.255-2.832l-8.686,0c-.068-.351-.034-.151-.185-.431a2.278,2.278,0,0,1,.3-1.57c-.023.035.3,1.327.3,1.326s.788-.651.8-.664a2.8,2.8,0,0,0,.989-2.314,3.147,3.147,0,0,0-.083-.717,2.784,2.784,0,0,0-2.271-2.148,3.7,3.7,0,0,0-2.6.736,3.364,3.364,0,0,0-1.282,2.275,3.145,3.145,0,0,0-.03.424,2.9,2.9,0,0,0,.152.925,2.8,2.8,0,0,0-2.949.333l-.008.007a3.259,3.259,0,0,0-1.4,2.261,2.88,2.88,0,0,0,.173,1.366,3.554,3.554,0,0,0-.4,1.654v16.734a3.392,3.392,0,0,0,3.311,3.461H524.36a3.358,3.358,0,0,0,3.248-2.791h.144l0,.2a2.717,2.717,0,0,0,.084.58,2.516,2.516,0,0,0,1.078,1.5,2.965,2.965,0,0,0,1.909.45h1.344a10.231,10.231,0,0,0,1.817-.138l.022-.005a5.744,5.744,0,0,0,2.753-1.476l.2-.2.01-.012a5.987,5.987,0,0,0,.754-1,6.324,6.324,0,0,0,.676.966,5.936,5.936,0,0,0,9.1,0l.134-.164a2.651,2.651,0,0,0,.443,1.018.2.2,0,0,0,.023.032,2.6,2.6,0,0,0,2.071,1.053,2.575,2.575,0,0,0,2-.976l.018-.026a2.569,2.569,0,0,0,.51-1.112c.007.011.774,1.032.774,1.032a2.5,2.5,0,0,0,2.056,1.082,2.556,2.556,0,0,0,2.046-1.026,2.619,2.619,0,0,0,.459-1c.011.015.026.038.026.038a5.057,5.057,0,0,0,4.095,2.171,5,5,0,0,0,3.814-1.835l.283-.366a5.731,5.731,0,0,0,.978-3.47v-1.688a3.024,3.024,0,0,0,.817.142v3.981l.011.457a2.778,2.778,0,0,0,.427,1.425.454.454,0,0,0,.03.046,2.574,2.574,0,0,0,2.135,1.126,2.491,2.491,0,0,0,2.174-1.247,2.988,2.988,0,0,0,.409-1.315s.006-.163.011-.308h.276a2.958,2.958,0,0,0,.2.653,4.609,4.609,0,0,0,4.391,2.4,4.48,4.48,0,0,0,3.419-1.318,4.262,4.262,0,0,0,.714-1.027,4.729,4.729,0,0,0,.494-2.107,4.248,4.248,0,0,0-1.2-3.041,2.4,2.4,0,0,0,.766-1.329,1.548,1.548,0,0,0,.995.365,1.6,1.6,0,0,0,1.561-1.364v0a.433.433,0,0,0,.005-.062l.019-.229a1.62,1.62,0,0,0-1.586-1.65,1.589,1.589,0,0,0-1.4.858,3.511,3.511,0,0,0-1.258-1.144,2.553,2.553,0,0,0,.5-.505C581.621,278.814,581,279.653,581.147,279.46Zm2.194,3.213.006.012h-.008Zm-6.427-13.287.007-.009.008-.016Zm-9.825-.3.006-.006c.005-.005.008-.011.013-.015A.191.191,0,0,0,567.089,269.088Z" transform="translate(16322 14135)" fill="none" stroke="#fff" stroke-width="6"/>
    <path id="Path_140846" data-name="Path 140846" d="M545.162,269.258a1.562,1.562,0,0,0-1.225.632,1.683,1.683,0,0,0-.346,1.318v3.99c0,.692-.317,1.112-.865,1.112s-.865-.437-.865-1.156v-3.946a1.862,1.862,0,0,0-.433-1.425,1.55,1.55,0,0,0-2.422.121c-.274.375-.332.616-.332,1.559v3.525a4.334,4.334,0,0,0,.779,2.868,3.918,3.918,0,0,0,6.315.268,4.519,4.519,0,0,0,1.009-3.136v-3.553c0-.9-.071-1.2-.374-1.575a1.656,1.656,0,0,0-1.241-.6m-7.931,3.3a4.877,4.877,0,0,0-1.277-1.943,4.817,4.817,0,0,0-3.489-1.277h-1.947a1.622,1.622,0,0,0-1.744,1.1,3.4,3.4,0,0,0-.073,1.154v5.506a4.153,4.153,0,0,0,.059,1.079,1.458,1.458,0,0,0,.663.9,2.068,2.068,0,0,0,1.34.268H532.1a9.245,9.245,0,0,0,1.629-.12A4.729,4.729,0,0,0,536,278a5.137,5.137,0,0,0,1.543-3.676,5.243,5.243,0,0,0-.309-1.775m-4.024,0a1.536,1.536,0,0,1,.152.065,1.939,1.939,0,0,1,1.024,1.726,2.042,2.042,0,0,1-.779,1.591c-.375.268-.635.314-1.73.33v-3.857h.259a2.944,2.944,0,0,1,1.074.144Zm21.915-3.3a1.559,1.559,0,0,0-1.3.722,2.033,2.033,0,0,0-.289,1.3v1.862l-.462-.592-2.061-2.635a1.422,1.422,0,0,0-1.182-.66,1.621,1.621,0,0,0-1.659,1.771v6.331a2.1,2.1,0,0,0,.332,1.41,1.6,1.6,0,0,0,1.269.644,1.581,1.581,0,0,0,1.226-.6,1.869,1.869,0,0,0,.36-1.321v-2.1l2.509,3.344a1.5,1.5,0,0,0,1.254.675,1.532,1.532,0,0,0,1.24-.615,2.195,2.195,0,0,0,.346-1.5v-6.121a1.925,1.925,0,0,0-.375-1.318,1.553,1.553,0,0,0-1.211-.6m9.094,4.967,1.1-1.672.511-.774a1.6,1.6,0,0,0,.245-.871,1.657,1.657,0,0,0-1.6-1.65,1.531,1.531,0,0,0-1.311.767l-1.648,2.528-.111.172v-1.607a1.743,1.743,0,0,0-.419-1.3,1.57,1.57,0,0,0-1.2-.557,1.641,1.641,0,0,0-1.586,1.847v6.42c0,1.154.62,1.889,1.615,1.889.951,0,1.586-.75,1.586-1.9v-1.726l2.379,3.136a1.424,1.424,0,0,0,1.11.495,1.649,1.649,0,0,0,1.586-1.678,1.41,1.41,0,0,0-.3-.9Zm14.867-4.967a1.562,1.562,0,0,0-1.3.722,2.034,2.034,0,0,0-.288,1.3v1.862l-.463-.592-2.061-2.635a1.42,1.42,0,0,0-1.182-.66,1.62,1.62,0,0,0-1.658,1.771v6.331a2.11,2.11,0,0,0,.332,1.41,1.6,1.6,0,0,0,1.268.644,1.579,1.579,0,0,0,1.226-.6,1.864,1.864,0,0,0,.361-1.321v-2.1l2.508,3.344a1.5,1.5,0,0,0,1.255.675,1.535,1.535,0,0,0,1.24-.615,2.2,2.2,0,0,0,.346-1.5v-6.121a1.925,1.925,0,0,0-.375-1.318,1.554,1.554,0,0,0-1.211-.6m4.052,0c-.839,0-1.407,1.053-1.407,1.925a7.2,7.2,0,0,0,.086,1.372,1.369,1.369,0,0,0,1.024,1.243c.674.137,1.134-.507,1.4-1.244h0a4.883,4.883,0,0,0,.3-1.525c0-.873-.569-1.771-1.4-1.771m-14.092,0a1.5,1.5,0,0,0-1.168.54c-.332.375-.4.677-.4,1.517v6.194a1.827,1.827,0,0,0,.4,1.381,1.567,1.567,0,0,0,2.365-.03,1.879,1.879,0,0,0,.4-1.351v-6.194a2.025,2.025,0,0,0-.418-1.532,1.569,1.569,0,0,0-1.182-.525" transform="translate(16322 14135)" fill="#ff671d" fill-rule="evenodd"/>
    <path id="Path_140847" data-name="Path 140847" d="M566.172,282.13h0a1.473,1.473,0,0,0-.347-.909,1.63,1.63,0,0,0-1.221-.592,1.542,1.542,0,0,0-1.207.621,1.313,1.313,0,0,0-.33.879c-.008.121-.011.261-.011.427v4c0,.7-.325,1.14-.9,1.14s-.895-.456-.895-1.186v-3.954q0-.236-.018-.426a1.543,1.543,0,0,0-.407-.983,1.526,1.526,0,0,0-2.386.119,1.439,1.439,0,0,0-.307.863c-.014.18-.019.4-.019.682v3.534a4.306,4.306,0,0,0,.755,2.826l.019.028a3.9,3.9,0,0,0,6.287.27c.083-.1.16-.2.231-.3h0a4.668,4.668,0,0,0,.773-2.826V282.78c0-.261-.006-.472-.022-.65" transform="translate(16322 14135)" fill="#df1683" fill-rule="evenodd"/>
    <path id="Path_140848" data-name="Path 140848" d="M583.5,281.959c.248-.007.441-.114.441-.4a.353.353,0,0,0-.157-.311.609.609,0,0,0-.339-.073h-.607v1.451h.17v-.669h.313l.1.172.3.5h.2l-.313-.5Zm-.231-.14h-.261v-.513h.4c.173,0,.362.029.362.251,0,.3-.3.262-.5.262" transform="translate(16322 14135)" fill="#df1683" fill-rule="evenodd"/>
    <path id="Path_140849" data-name="Path 140849" d="M584.524,282.13a1.412,1.412,0,0,0,.019-.229,1.247,1.247,0,1,0-2.493,0,1.309,1.309,0,0,0,.02.229,1.238,1.238,0,0,0,2.454,0h-.152a1.087,1.087,0,0,1-2.146,0,1.2,1.2,0,0,1-.022-.228,1.1,1.1,0,1,1,2.189,0,1.2,1.2,0,0,1-.021.228Z" transform="translate(16322 14135)" fill="#df1683" fill-rule="evenodd"/>
    <path id="Path_140850" data-name="Path 140850" d="M536.225,289.169a5.129,5.129,0,0,0,1.365-3.487,5.253,5.253,0,0,0-.315-1.793h0a4.916,4.916,0,0,0-1.1-1.76h0c-.052-.052-.1-.1-.16-.155a4.815,4.815,0,0,0-3.479-1.271h-1.952a1.6,1.6,0,0,0-1.722,1.079,1.18,1.18,0,0,0-.062.347h0c-.009.155-.009.386-.009.8v.96h0v4.56c0,.35,0,.565.008.72a1.616,1.616,0,0,0,.049.355,1.429,1.429,0,0,0,.654.885,2.034,2.034,0,0,0,1.328.265h1.344a9.232,9.232,0,0,0,1.628-.12,4.721,4.721,0,0,0,2.256-1.211c.059-.057.117-.114.172-.174Zm-4.315-5.28v-.162h.288a2.891,2.891,0,0,1,1.125.162h0c.039.018.077.033.114.053a1.969,1.969,0,0,1,1.043,1.756,2.074,2.074,0,0,1-.793,1.618c-.383.275-.653.32-1.75.336h-.029Z" transform="translate(16322 14135)" fill="#df1683" fill-rule="evenodd"/>
    <path id="Path_140851" data-name="Path 140851" d="M547.705,283.891h0a5.234,5.234,0,0,0-1.044-1.761,4.974,4.974,0,0,0-7.431,0h0a5.2,5.2,0,0,0-1.034,1.761h0a5.338,5.338,0,0,0-.29,1.746,5.431,5.431,0,0,0,1.275,3.533h0a4.919,4.919,0,0,0,7.543,0h0a5.391,5.391,0,0,0,.979-5.28m-4.74,3.82a1.984,1.984,0,0,1-1.921-2.027,1.952,1.952,0,0,1,1.155-1.793,1.88,1.88,0,0,1,1.527,0h0a2,2,0,0,1-.761,3.819" transform="translate(16322 14135)" fill="#df1683" fill-rule="evenodd"/>
    <path id="Path_140852" data-name="Path 140852" d="M557.078,282.13h0a1.663,1.663,0,0,0-.352-.909,1.548,1.548,0,0,0-2.736.91h0c-.013.143-.017.3-.017.5v1.947l-.538-.686-1.377-1.761-.665-.851a1.4,1.4,0,0,0-1.163-.65,1.564,1.564,0,0,0-1.622,1.5,2.418,2.418,0,0,0-.012.244v6.347c0,.173,0,.319.013.45a1.675,1.675,0,0,0,.313.945,1.538,1.538,0,0,0,2.457.044,1.6,1.6,0,0,0,.346-.988c.006-.1.009-.2.009-.315v-2.192l1.879,2.506.686.915a1.481,1.481,0,0,0,1.235.665,1.52,1.52,0,0,0,1.221-.6,1.687,1.687,0,0,0,.326-.976c.011-.145.015-.313.015-.512v-6.133a3.893,3.893,0,0,0-.018-.4" transform="translate(16322 14135)" fill="#df1683" fill-rule="evenodd"/>
    <path id="Path_140853" data-name="Path 140853" d="M574.672,282.13h0a1.448,1.448,0,0,0-1.274-1.395,1.789,1.789,0,0,0-.274-.027c-.136,0-.359,0-.806,0h-3.209c-1.259,0-1.383.017-1.709.162a1.569,1.569,0,0,0-.8,1.264h0c0,.03,0,.061,0,.094a1.583,1.583,0,0,0,.44,1.077,1.494,1.494,0,0,0,1.18.427h.881v5.051c0,.149,0,.277.009.391a1.685,1.685,0,0,0,.26.9,1.557,1.557,0,0,0,1.292.679,1.478,1.478,0,0,0,1.292-.737,1.876,1.876,0,0,0,.254-.842c.011-.125.016-.264.016-.422v-5.021h.736a1.682,1.682,0,0,0,1.21-.354,1.658,1.658,0,0,0,.511-1.166c0-.026,0-.054,0-.079" transform="translate(16322 14135)" fill="#df1683" fill-rule="evenodd"/>
    <path id="Path_140854" data-name="Path 140854" d="M580.74,285.223a6.067,6.067,0,0,0-2.043-1.048,3.772,3.772,0,0,1-.7-.286h0a.464.464,0,0,1-.277-.432.421.421,0,0,1,.4-.421c.184,0,.349.083.682.37a2.844,2.844,0,0,0,.808.484h0a1.422,1.422,0,0,0,.488.079,1.221,1.221,0,0,0,.441-.079h0a1.283,1.283,0,0,0,.775-1.259,1.61,1.61,0,0,0-.08-.5,2.992,2.992,0,0,0-2.985-1.667,3.4,3.4,0,0,0-3.128,1.667,3.332,3.332,0,0,0-.385,1.6c0,.056,0,.109,0,.162h0a2.8,2.8,0,0,0,2.074,2.666c.26.106.52.2.78.286a2.717,2.717,0,0,1,.642.288.5.5,0,0,1,.258.447.427.427,0,0,1-.433.464c-.243,0-.339-.068-1.029-.622a1.624,1.624,0,0,0-1.11-.474,1.431,1.431,0,0,0-1.417,1.473,1.883,1.883,0,0,0,.157.752h0a3.619,3.619,0,0,0,3.443,1.76,3.492,3.492,0,0,0,2.683-1,3.182,3.182,0,0,0,.526-.762h0a3.62,3.62,0,0,0,.375-1.607,3.139,3.139,0,0,0-.958-2.34" transform="translate(16322 14135)" fill="#df1683" fill-rule="evenodd"/>
    <path id="Path_140855" data-name="Path 140855" d="M509.955,271.706a2.587,2.587,0,0,1-1.743-.743,2.5,2.5,0,0,0-.075.609v1.969" transform="translate(16322 14135)" fill="#ff671d"/>
    <path id="Path_140856" data-name="Path 140856" d="M511.649,281.128a1.67,1.67,0,0,1-1.479-.975s-1.921-5.07-1.945-5.131a1.562,1.562,0,0,1-.088-.165v13.525a2.393,2.393,0,0,0,2.336,2.432H516.6a3.156,3.156,0,0,1-.533-.781l-4.418-8.9" transform="translate(16322 14135)" fill="#ff671d"/>
    <path id="Path_140857" data-name="Path 140857" d="M524.4,269.141h-3.465l.009.017a1.219,1.219,0,0,1,.151.282,1.4,1.4,0,0,1,.065.241c1.675,4.42,1.91,5.04,1.945,5.135v0l.005.014-.005-.012a1.34,1.34,0,0,1,.09.484,2.123,2.123,0,0,1-.519,1.274c.42,1.356,1.2,4.053,2.572,9.34l.068.259.027.1a3.981,3.981,0,0,1-2.136,4.543H524.4a2.392,2.392,0,0,0,2.336-2.431V271.573a2.393,2.393,0,0,0-2.336-2.432" transform="translate(16322 14135)" fill="#df1683"/>
    <path id="Path_140858" data-name="Path 140858" d="M517.2,269.368l-.005,0a21.284,21.284,0,0,0-6.291,2.6c-1.531.926-2.323,1.78-2.177,2.343,0,.015.006.032.008.047a.66.66,0,0,0,.038.169.626.626,0,0,0,.069.127.3.3,0,0,1,.031.065l1.958,5.164c.117.3.489.486,1.106.537a.3.3,0,0,1,.243.168l4.518,9.106c.867,1.789,3.343,1.731,5.277.92,2.177-.912,3.172-2.489,2.661-4.219l-.075-.286c-1.452-5.579-2.234-8.263-2.633-9.536a.32.32,0,0,1,.063-.307c.417-.476.568-.874.451-1.179l-1.957-5.165a.27.27,0,0,1-.017-.068.65.65,0,0,0-.036-.142.582.582,0,0,0-.083-.151.32.32,0,0,1-.025-.041c-.266-.511-1.4-.569-3.124-.152" transform="translate(16322 14135)" fill="#673918"/>
    <path id="Path_140859" data-name="Path 140859" d="M513.34,262.954h0a2.662,2.662,0,0,0-1.008,1.8,2.943,2.943,0,0,0,.927,2.343,2.213,2.213,0,0,1,.725,2.233.377.377,0,0,0,.025.28.348.348,0,0,0,.648-.063,2.944,2.944,0,0,0-.861-2.926c-.536-.652-.858-1.088-.766-1.766a1.9,1.9,0,0,1,.727-1.308,2.437,2.437,0,0,1,1.552-.475,1.365,1.365,0,0,1,1.139,1.066,1.57,1.57,0,0,1,.032.551,1.472,1.472,0,0,1-.526.974l-.011.008c-.35.188-.633.187-.821,0a.564.564,0,0,1-.128-.6c.069-.139.245-.189.5-.144a.339.339,0,0,0,.263-.063.365.365,0,0,0,.145-.235.369.369,0,0,0-.287-.425,1.083,1.083,0,0,0-1.245.534,1.313,1.313,0,0,0,.263,1.453,1.335,1.335,0,0,0,1.68.109l.043-.031a2.261,2.261,0,0,0,.778-2.309,2.089,2.089,0,0,0-1.71-1.612,3.069,3.069,0,0,0-2.081.605" transform="translate(16322 14135)" fill="#673918"/>
    <path id="Path_140860" data-name="Path 140860" d="M509.215,266.924a2.573,2.573,0,0,0-1.115,1.764,2.124,2.124,0,0,0,.33,1.414,1.9,1.9,0,0,0,2.77.467l.014-.011a1.491,1.491,0,0,0,.185-1.938,1.031,1.031,0,0,0-1.55-.229.377.377,0,0,0-.1.509.353.353,0,0,0,.225.154.345.345,0,0,0,.264-.056c.334-.233.493-.085.583.046a.906.906,0,0,1,.134.588.486.486,0,0,1-.159.33,1.2,1.2,0,0,1-1.788-.274,1.566,1.566,0,0,1,.606-2.163,1.4,1.4,0,0,1,1.934.053,2.006,2.006,0,0,1,.51,2.2.377.377,0,0,0,.135.5.358.358,0,0,0,.268.032.353.353,0,0,0,.211-.175,2.723,2.723,0,0,0-.649-3.1,2.09,2.09,0,0,0-2.812-.113" transform="translate(16322 14135)" fill="#673918"/>
    <path id="Path_140861" data-name="Path 140861" d="M519.087,270.8a18.446,18.446,0,0,0-4.473,1.283A18.926,18.926,0,0,0,510.5,274.4a2.326,2.326,0,0,1-1.176-.083c.1-.41,1.67-1.907,4.908-3.245s5.312-1.4,5.658-1.177a2.489,2.489,0,0,1-.8.9" transform="translate(16322 14135)" fill="#fff"/>
    <path id="Path_140862" data-name="Path 140862" d="M523.989,286.552c.43,1.454-.64,2.67-2.262,3.351-1.706.713-3.768.745-4.409-.579-.22-.456-3.059-5.875-4.441-8.923a17.326,17.326,0,0,0,4.416-1.2,17.711,17.711,0,0,0,4-2.277c1,3.207,2.547,9.146,2.691,9.63" transform="translate(16322 14135)" fill="#fff"/>
    <path id="Path_140863" data-name="Path 140863" d="M517.051,278.5c-2.981,1.231-5.241,1.323-5.593,1.028l-1.645-4.261a14.585,14.585,0,0,0,5.492-1.289A14.987,14.987,0,0,0,520.152,271l1.646,4.263c-.061.467-1.767,2.011-4.747,3.241" transform="translate(16322 14135)" fill="#fff"/>
    <path id="Path_140864" data-name="Path 140864" d="M518.239,281.856h0a1.492,1.492,0,0,0-.59-.411,1.844,1.844,0,0,0-1.206-.017c-.2.058-.4.113-.6.162-.289.068-.431.212-.415.428,0,.07.016.094.118.33.223.517.447,1.037.671,1.552a1.439,1.439,0,0,0,.148.3.6.6,0,0,0,.308.214.686.686,0,0,0,.429-.018c.132-.032.263-.065.393-.1a2.413,2.413,0,0,0,.461-.174,1.3,1.3,0,0,0,.518-.569,1.6,1.6,0,0,0,.05-1.225,1.539,1.539,0,0,0-.28-.472m-.7,1.343c-.081.109-.152.148-.476.243-.149-.363-.3-.726-.449-1.091.027-.006.053-.014.08-.022a1.083,1.083,0,0,1,.342-.054h0a.494.494,0,0,1,.053,0,.641.641,0,0,1,.5.394.575.575,0,0,1-.051.525" transform="translate(16322 14135)" fill="#ff671d" fill-rule="evenodd"/>
    <path id="Path_140865" data-name="Path 140865" d="M520.9,280.481h0a1.042,1.042,0,0,0-.527-.354,1.471,1.471,0,0,0-1.1.182c-.187.1-.374.189-.564.277a.572.572,0,0,0-.4.542,1.042,1.042,0,0,0,.1.34l.582,1.58a1.36,1.36,0,0,0,.13.3.42.42,0,0,0,.281.18.6.6,0,0,0,.4-.092c.124-.06.246-.118.367-.181a2.416,2.416,0,0,0,.428-.266,1.765,1.765,0,0,0,.486-.706,2.1,2.1,0,0,0,.066-1.336,1.386,1.386,0,0,0-.245-.469m-.662,1.574c-.076.136-.142.187-.444.346q-.194-.557-.387-1.116c.024-.011.049-.025.073-.037a1,1,0,0,1,.317-.116l.049,0a.473.473,0,0,1,.451.346.768.768,0,0,1-.059.581" transform="translate(16322 14135)" fill="#df1683" fill-rule="evenodd"/>
  </g>
</svg>
