<svg xmlns="http://www.w3.org/2000/svg" xmlns:xlink="http://www.w3.org/1999/xlink" width="45.377" height="66.264" viewBox="0 0 45.377 66.264">
  <defs>
    <clipPath id="clip-path">
      <path id="Path_145401" data-name="Path 145401" d="M374.511,137.553c-.528-.093-1.079-.058-1.269.309.172-.034.429.033.445.119-.4.093-.815.061-1,.711a1.234,1.234,0,0,1,.585-.111,1.735,1.735,0,0,0-.371,1.473,2.849,2.849,0,0,1,.616-.7,3.17,3.17,0,0,0,.009,1.14,3.016,3.016,0,0,1,.453-.789,2.974,2.974,0,0,0,.256,1.062c.107-.232.172-.326.28-.386v2.809h-.149c-.049.84.857.822.8.009H375c.009-.915.041-1.91,0-2.818a.692.692,0,0,1,.395.3,2.875,2.875,0,0,0,.132-1.018,3.231,3.231,0,0,1,.543.71,2.2,2.2,0,0,0-.066-1.129,1.664,1.664,0,0,1,.568.753,1.154,1.154,0,0,0-.363-1.345,1.5,1.5,0,0,1,.676.01c-.1-.438-.542-.592-1.062-.592a.612.612,0,0,1,.461-.258c-.362-.4-.824-.238-1.152-.2a1.16,1.16,0,0,0-.3-.659.971.971,0,0,0-.312.6" fill="none"/>
    </clipPath>
    <linearGradient id="linear-gradient" x1="-88.777" y1="133.331" x2="-88.539" y2="133.331" gradientUnits="objectBoundingBox">
      <stop offset="0" stop-color="#f1f1ba"/>
      <stop offset="1" stop-color="#d5e16a"/>
    </linearGradient>
    <clipPath id="clip-path-2">
      <path id="Path_145412" data-name="Path 145412" d="M372.05,170a3,3,0,0,1-1.927.22l-3.375,6.151a4.342,4.342,0,0,0,3.093-.174,5.526,5.526,0,0,1,4.282.078c.05-2.115.1-4.238.149-6.355a3.93,3.93,0,0,0-1.134-.2,2.454,2.454,0,0,0-1.088.279" fill="none"/>
    </clipPath>
    <linearGradient id="linear-gradient-2" x1="-48.744" y1="128.28" x2="-48.611" y2="128.28" gradientUnits="objectBoundingBox">
      <stop offset="0" stop-color="#b9d66f"/>
      <stop offset="1" stop-color="#1b5d32"/>
    </linearGradient>
    <clipPath id="clip-path-3">
      <path id="Path_145414" data-name="Path 145414" d="M375.44,169.917c.05,2.117.1,4.24.149,6.355a5.526,5.526,0,0,1,4.282-.078,4.343,4.343,0,0,0,3.093.174l-3.375-6.151a3,3,0,0,1-1.928-.22,2.454,2.454,0,0,0-1.088-.279,3.924,3.924,0,0,0-1.133.2" fill="none"/>
    </clipPath>
    <linearGradient id="linear-gradient-3" x1="-49.899" y1="128.28" x2="-49.766" y2="128.28" xlink:href="#linear-gradient-2"/>
  </defs>
  <g id="Client_16" transform="translate(-16674.143 -14259.748)">
    <path id="Path_145398" data-name="Path 145398" d="M374.535,134.975c5.359,1.738,10.4,5.225,13.08,10.7V185.71H361.924V145.92c-.123-2.989,8.932-11.194,12.611-10.945" transform="translate(16322 14135)" fill="#f1f2f1"/>
    <path id="Path_145399" data-name="Path 145399" d="M369.67,142.965a17.565,17.565,0,0,1,4.585,2.278c-.519.326-1.037.652-1.556.944-.321-.43-.823-.1-.527.377-.4.255-.963.7-1.136.162-.452.487.009.975.445.778.321-.18.634-.358.955-.539.206.539.88.205.559-.292.528-.324,1.144-.71,1.787-1.112.642.4,1.259.788,1.786,1.112-.321.5.354.831.56.292.321.181.633.359.955.539.436.19.9-.3.444-.778-.173.53-.732.093-1.136-.162.3-.473-.206-.807-.526-.377-.528-.292-1.046-.61-1.556-.944a17.687,17.687,0,0,1,4.585-2.278c-1.515-.367-3.268.754-5.112,1.944-1.844-1.18-3.6-2.3-5.112-1.944" transform="translate(16322 14135)" fill="#8c6334"/>
    <path id="Path_145400" data-name="Path 145400" d="M369.974,142.974a9.263,9.263,0,0,1,1.8.764c.8.419,1.678.931,2.518,1.455l.082.05-.082.051c-.263.163-.518.326-.775.49s-.518.307-.781.454l-.042.024-.031-.042a.365.365,0,0,0-.323-.172.277.277,0,0,0-.107.043.175.175,0,0,0-.065.086.371.371,0,0,0,.057.352l.033.05-.048.036c-.05.034-.091.059-.133.086a2.615,2.615,0,0,1-.543.3.362.362,0,0,1-.51-.163.46.46,0,0,0-.107.309.346.346,0,0,0,.057.181.331.331,0,0,0,.148.12.427.427,0,0,0,.347,0l.954-.54.059-.036.023.061a.322.322,0,0,0,.272.239.353.353,0,0,0,.132-.025.221.221,0,0,0,.1-.1.33.33,0,0,0-.042-.349l-.032-.052.048-.034c.379-.233.8-.49,1.243-.772.149-.1.3-.2.545-.343l.024-.016.024.016c.247.156.4.248.543.343.445.275.864.539,1.243.772l.051.034-.034.052a.327.327,0,0,0-.041.349.271.271,0,0,0,.1.1.188.188,0,0,0,.132.025.337.337,0,0,0,.272-.239l.025-.061.057.036.956.54a.448.448,0,0,0,.345,0,.34.34,0,0,0,.139-.12.331.331,0,0,0,.059-.181.566.566,0,0,0-.108-.309c-.107.214-.3.233-.509.163a3.1,3.1,0,0,1-.543-.3.952.952,0,0,0-.141-.086l-.049-.036.032-.05a.37.37,0,0,0,.059-.352.257.257,0,0,0-.067-.086.261.261,0,0,0-.106-.043.363.363,0,0,0-.322.172l-.033.042-.04-.024c-.264-.147-.527-.3-.783-.454s-.519-.318-.773-.49l-.082-.051.082-.05c.84-.524,1.72-1.045,2.518-1.455a9.443,9.443,0,0,1,1.795-.764,4.071,4.071,0,0,0-2.107.436,22.022,22.022,0,0,0-2.676,1.551l-.033.017-.032-.017a22.022,22.022,0,0,0-2.676-1.551,4.071,4.071,0,0,0-2.091-.436m1.746.873a8.019,8.019,0,0,0-2.059-.812l-.287-.051.28-.071a3.819,3.819,0,0,1,2.47.4,20.285,20.285,0,0,1,2.657,1.541,21.427,21.427,0,0,1,2.659-1.541,3.878,3.878,0,0,1,2.47-.4l.279.071-.288.051a8.024,8.024,0,0,0-2.057.812c-.774.4-1.614.9-2.429,1.4.231.147.461.291.692.428.247.146.493.291.741.43a.446.446,0,0,1,.4-.182.312.312,0,0,1,.157.062.306.306,0,0,1,.107.135.443.443,0,0,1-.042.411c.025.018.057.036.091.061a2.871,2.871,0,0,0,.518.291c.172.061.33.043.4-.18l.033-.093.066.067a.657.657,0,0,1,.2.463.428.428,0,0,1-.082.248.483.483,0,0,1-.191.163.514.514,0,0,1-.436,0l-.9-.506a.4.4,0,0,1-.346.249.33.33,0,0,1-.2-.043.346.346,0,0,1-.139-.137.421.421,0,0,1,.016-.418c-.362-.224-.766-.473-1.193-.747-.19-.12-.388-.24-.512-.317-.131.086-.329.206-.518.326-.428.265-.832.524-1.194.738a.424.424,0,0,1,.017.418.306.306,0,0,1-.139.137.382.382,0,0,1-.2.043.426.426,0,0,1-.345-.249l-.907.506a.514.514,0,0,1-.436,0,.477.477,0,0,1-.272-.411.7.7,0,0,1,.2-.463l.065-.067.034.093c.065.222.221.241.394.18a2.885,2.885,0,0,0,.52-.291c.033-.018.057-.043.09-.061a.473.473,0,0,1-.041-.411.441.441,0,0,1,.107-.135.339.339,0,0,1,.157-.062.446.446,0,0,1,.394.182c.247-.139.495-.284.741-.43.23-.146.461-.291.691-.428-.807-.506-1.646-1.009-2.419-1.4" transform="translate(16322 14135)"/>
    <g id="Group_125095" data-name="Group 125095" transform="translate(16322 14135)">
      <g id="Group_125094" data-name="Group 125094" clip-path="url(#clip-path)">
        <rect id="Rectangle_17712" data-name="Rectangle 17712" width="4.198" height="7.073" transform="translate(372.683 136.955)" fill="url(#linear-gradient)"/>
      </g>
    </g>
    <path id="Path_145402" data-name="Path 145402" d="M376.939,138.649h0l.025.094-.091-.024a1.816,1.816,0,0,0-.511-.043h-.024a1.331,1.331,0,0,1,.395.926.986.986,0,0,1-.025.221.807.807,0,0,1-.074.205l-.049.1-.049-.1a2.114,2.114,0,0,0-.42-.641,3.864,3.864,0,0,1,.074.42,1.782,1.782,0,0,1-.041.582l-.033.129-.074-.1c-.017-.025-.05-.077-.074-.12a3.189,3.189,0,0,0-.362-.487,3.052,3.052,0,0,1-.058.607c-.008.043-.025.1-.033.146s-.025.093-.041.145l-.041.12-.066-.1a.6.6,0,0,0-.272-.241c-.008,0-.016-.007-.025-.007.025.727.017,1.506,0,2.252,0,.145-.008.283-.008.418h.165v.052a.63.63,0,0,1-.23.61.409.409,0,0,1-.223.067.43.43,0,0,1-.222-.067.666.666,0,0,1-.239-.619v-.059h.148V140.5a.272.272,0,0,0-.041.053,1.421,1.421,0,0,0-.131.248l-.05.11-.058-.11a2.286,2.286,0,0,1-.181-.524,3.708,3.708,0,0,1-.066-.42,2.04,2.04,0,0,0-.123.2c-.074.129-.148.291-.23.469l-.066.138-.042-.138a2.534,2.534,0,0,1-.024-.993V139.5a2.779,2.779,0,0,0-.206.215,3.587,3.587,0,0,0-.288.386l-.082.129-.025-.156a1.913,1.913,0,0,1,.173-1.223c.033-.062.066-.113.1-.163a.146.146,0,0,1,.025-.036,1.666,1.666,0,0,0-.288.043l-.074.027a.267.267,0,0,0-.074.033l-.115.053.033-.129a.88.88,0,0,1,.872-.71l.049-.011a.427.427,0,0,0-.156-.024h-.074a.188.188,0,0,0-.066.007l-.115.017.057-.109a.882.882,0,0,1,.873-.377c.074,0,.149.008.223.008.057.007.114.007.164.016a.845.845,0,0,1,.1-.282,1.449,1.449,0,0,1,.222-.291l.041-.052.042.052a1.4,1.4,0,0,1,.222.35,1.261,1.261,0,0,1,.082.285c.033-.01.074-.01.107-.019a1.014,1.014,0,0,1,1.037.239l.091.1h-.14a.6.6,0,0,0-.321.129l-.009.009a1.157,1.157,0,0,1,.815.3.581.581,0,0,1,.108.146.361.361,0,0,1,.09.188m-.14-.068c-.008-.018-.016-.043-.025-.061a.406.406,0,0,0-.09-.119,1.155,1.155,0,0,0-.856-.264h-.1l.049-.086s0-.01.009-.01a.16.16,0,0,1,.049-.06l.058-.059a.763.763,0,0,1,.263-.138.964.964,0,0,0-.856-.119l-.165.025-.057.009-.009-.059a1.416,1.416,0,0,0-.082-.309,1.141,1.141,0,0,0-.164-.266,1.188,1.188,0,0,0-.157.214.717.717,0,0,0-.09.3l-.009.068-.065-.007a1.788,1.788,0,0,0-.214-.027,1.726,1.726,0,0,0-.215-.009.954.954,0,0,0-.708.223h.05c.156.019.321.086.337.163l.017.061-.058.016a1.155,1.155,0,0,1-.173.035.792.792,0,0,0-.74.513c.016-.009.032-.009.041-.015a1.255,1.255,0,0,1,.444-.053l.124.01-.083.092c-.033.043-.074.086-.107.129a.771.771,0,0,0-.09.147,1.743,1.743,0,0,0-.173.992c.066-.094.14-.189.206-.266a1.969,1.969,0,0,1,.329-.316l.107-.086-.008.138a1.278,1.278,0,0,1-.017.172,3.123,3.123,0,0,0-.016.787c.057-.119.115-.232.164-.327a1.571,1.571,0,0,1,.223-.325l.09-.092.008.126a3.893,3.893,0,0,0,.083.548,2.526,2.526,0,0,0,.115.386c.033-.06.066-.11.091-.153a.43.43,0,0,1,.164-.147l.083-.052v2.973h-.149a.529.529,0,0,0,.19.454.283.283,0,0,0,.156.051.267.267,0,0,0,.157-.051.509.509,0,0,0,.181-.446h-.165v-.067c0-.156.008-.318.008-.472.009-.771.025-1.584-.008-2.33v-.076l.074.016a.2.2,0,0,1,.058.018.558.558,0,0,0,.065.025.824.824,0,0,1,.247.19c0-.01.009-.019.009-.027.008-.044.024-.086.033-.136a2.7,2.7,0,0,0,.049-.72l-.008-.138.1.086a2.569,2.569,0,0,1,.485.608,1.3,1.3,0,0,0,.008-.4,3.33,3.33,0,0,0-.107-.555l-.033-.138.124.068a1.5,1.5,0,0,1,.535.668.2.2,0,0,0,.016-.067.746.746,0,0,0,.025-.2,1.2,1.2,0,0,0-.428-.9l-.066-.042.058-.052a.241.241,0,0,1,.074-.034.647.647,0,0,1,.09-.015.946.946,0,0,1,.445-.019" transform="translate(16322 14135)"/>
    <path id="Path_145403" data-name="Path 145403" d="M385.491,159.958l-7.976,8.3-.231-.24,7.977-8.3Z" transform="translate(16322 14135)" fill="#c2923d"/>
    <path id="Path_145404" data-name="Path 145404" d="M384.281,154.279l-7.5,13.4-.28-.164,7.5-13.4Z" transform="translate(16322 14135)" fill="#c2923d"/>
    <path id="Path_145405" data-name="Path 145405" d="M375.583,167.248l6.5-25.214.317.089L375.9,167.338Z" transform="translate(16322 14135)" fill="#c2923d"/>
    <path id="Path_145406" data-name="Path 145406" d="M374.667,167.066l-.1-19.688h.321l.1,19.688Z" transform="translate(16322 14135)" fill="#c2923d"/>
    <path id="Path_145407" data-name="Path 145407" d="M364.075,159.951l.233-.241,7.974,8.3-.233.242Z" transform="translate(16322 14135)" fill="#c2923d"/>
    <path id="Path_145408" data-name="Path 145408" d="M365.283,154.279l7.5,13.4.28-.164-7.5-13.4Z" transform="translate(16322 14135)" fill="#c2923d"/>
    <path id="Path_145409" data-name="Path 145409" d="M367.167,142.128l.31-.087,6.5,25.215-.31.087Z" transform="translate(16322 14135)" fill="#c2923d"/>
    <path id="Path_145410" data-name="Path 145410" d="M369.621,169.318c2.749.66,2.469-1.268,5.293-.042l-.083,8.437c-4.181-2.374-4.65.794-9.639-.764Z" transform="translate(16322 14135)" fill="#9f7b35"/>
    <path id="Path_145411" data-name="Path 145411" d="M380.149,169.318c-2.75.66-2.469-1.268-5.285-.042l.083,8.437c4.181-2.374,4.65.794,9.639-.764Z" transform="translate(16322 14135)" fill="#9f7b35"/>
    <g id="Group_125099" data-name="Group 125099" transform="translate(16322 14135)">
      <g id="Group_125098" data-name="Group 125098" clip-path="url(#clip-path-2)">
        <rect id="Rectangle_17714" data-name="Rectangle 17714" width="7.524" height="7.096" transform="translate(366.748 169.718)" fill="url(#linear-gradient-2)"/>
      </g>
    </g>
    <path id="Path_145413" data-name="Path 145413" d="M372.049,169.859a2.982,2.982,0,0,1,2.354-.034l-.156,6.653a5.8,5.8,0,0,0-4.462-.119,4.452,4.452,0,0,1-3.218.086l3.49-6.365a3.3,3.3,0,0,0,1.992-.221m.1.238a3.107,3.107,0,0,1-1.959.267l-3.26,5.934a4.29,4.29,0,0,0,2.782-.2,5.731,5.731,0,0,1,4.289-.018l.14-6.063a2.418,2.418,0,0,0-1.992.077" transform="translate(16322 14135)" fill="#ffc929"/>
    <g id="Group_125103" data-name="Group 125103" transform="translate(16322 14135)">
      <g id="Group_125102" data-name="Group 125102" clip-path="url(#clip-path-3)">
        <rect id="Rectangle_17716" data-name="Rectangle 17716" width="7.524" height="7.096" transform="translate(375.44 169.718)" fill="url(#linear-gradient-3)"/>
      </g>
    </g>
    <path id="Path_145415" data-name="Path 145415" d="M379.523,170.363a3.1,3.1,0,0,1-1.959-.265,2.466,2.466,0,0,0-2-.086l.14,6.065a5.718,5.718,0,0,1,4.289.015,4.231,4.231,0,0,0,2.782.2Zm-1.86-.505a3.3,3.3,0,0,0,1.992.224l3.49,6.362a4.478,4.478,0,0,1-3.218-.086,5.765,5.765,0,0,0-4.462.12l-.156-6.653a2.991,2.991,0,0,1,2.354.033" transform="translate(16322 14135)" fill="#ffc929"/>
    <path id="Path_145416" data-name="Path 145416" d="M360.9,146.571a2.175,2.175,0,0,0,2.214,2.4v2.107c-.362-.017-2.131-.017-2.131,2.244l.123,34.636.527-.558-.074-33.649c0-1.765.938-2.056,2.255-2.038l-.008-3.374c-1.3.007-2.247-.524-2.247-1.842.8-4.83,8.206-10.251,13.178-11.707a22.755,22.755,0,0,1,12.314,9.087c1.252,2.071,1.6,4.591-1.292,4.333v3.623c2.231-.01,2.247.548,2.214,2.268l.083,33.2.757.847-.074-33.958c.058-1.662-.321-3.083-2.239-3.075v-2.184c3.161-.264,2.354-3.871,1.087-5.618-2.717-4.025-7.747-7.982-12.768-9.216-4.617.541-13.919,7.94-13.919,12.479" transform="translate(16322 14135)" fill="#bdd873"/>
    <path id="Path_145417" data-name="Path 145417" d="M360.187,146.366a3.131,3.131,0,0,0,2.239,3.221v.821c-.659.01-2.074.77-2.074,2.86l.016,36.228.724-.7-.115-35.064c-.041-2.287,1.062-2.645,2.14-2.655v-2.133a2.254,2.254,0,0,1-2.2-2.73c.8-4.83,8.816-10.733,13.787-12.189a24.589,24.589,0,0,1,12.932,9.311c1.408,2.14,1.712,5.283-1.136,5.55l.008,2.174c1.853.051,2.256,1.277,2.223,2.99l.074,34.746.642.65v-35.3c.14-2.74-1.424-3.648-2.223-3.648l.009-1.045c3.045-.754,2.321-4.959.872-6.62a25.886,25.886,0,0,0-13.335-9.489c-5.638,1.294-14.586,8.487-14.586,13.026" transform="translate(16322 14135)" fill="#349b6f"/>
    <path id="Path_145418" data-name="Path 145418" d="M361.6,146.4c0,1.465.872,1.953,2.255,1.858v3.5a1.793,1.793,0,0,0-2.23,1.968l.024,32.949.716-.661.074-32.048c0-1.619.873-1.3,2.2-1.292l.009-5.4c-1.3-.034-2.19.291-2.19-.932.675-3.5,7.82-9.841,12.248-10.7a21.438,21.438,0,0,1,11.862,8.882c.634,1.49,1.416,2.946-1.564,2.7v5.372c1.967.034,2.181-.327,2.124,1.4l.164,31.911.758.849-.05-32.673c.124-1.867-.37-2.4-2.255-2.287l.016-3.589c3.087.119,2.47-2.733,1.2-4.48a21.88,21.88,0,0,0-12.224-8.95c-4.593.567-12.479,7.134-13.137,11.631" transform="translate(16322 14135)" fill="#9c724a"/>
    <path id="Path_145419" data-name="Path 145419" d="M359.6,146.358a3.492,3.492,0,0,0,2.288,3.527v.267a2.978,2.978,0,0,0-2.231,3.117l.017,37.306h-7.029V152.849c-.157-8.7.008-11.888,5.218-17.677a33.306,33.306,0,0,1,16.965-9.97,33.306,33.306,0,0,1,16.965,9.97c5.219,5.78,5.384,8.966,5.219,17.677v37.642h-7.03L389.993,154c.157-2.989-1.637-3.922-2.247-3.957v-.231c3.244-1.173,2.157-5.779.708-7.442a24.912,24.912,0,0,0-13.614-9.738c-7.623,1.927-15.237,9.191-15.237,13.73m-7.392,44.654h7.9v-.7h.289v-.677h-.313l.313-.257-.116-35.644c-.041-2.287,1.062-3.316,2.141-3.324v-.823a3.094,3.094,0,0,1-2.2-3.374c.642-5.18,8.889-11.432,14.536-12.888a25.906,25.906,0,0,1,13.541,9.719c1.539,2.323,1.548,5.782-1.078,6.4l-.009,1.045c1.186.043,2.314,1.327,2.231,3.424l-.016,35.517.247.224h-.247v.607h.189v.659h7.828V152.806c.28-8.967-.09-12.2-5.227-18.027a33.389,33.389,0,0,0-17.228-10l-.165-.028-.164.028a33.315,33.315,0,0,0-17.229,10c-5.136,5.824-5.507,9.06-5.227,18.027Z" transform="translate(16322 14135)"/>
    <path id="Path_145420" data-name="Path 145420" d="M361.85,187.338h26.085l.626.651H361.15Z" transform="translate(16322 14135)" fill="#fff"/>
    <path id="Path_145421" data-name="Path 145421" d="M362.393,185.942H387.31l.593.659H361.726Z" transform="translate(16322 14135)" fill="#fff"/>
    <path id="Path_145422" data-name="Path 145422" d="M360.994,188.973h27.847l.667.583H360.245Z" transform="translate(16322 14135)" fill="#fff"/>
    <path id="Path_145423" data-name="Path 145423" d="M361.077,188.8v-.864l.567-.524v-.846l.725-.711h24.982l.7.769v.653l.749.839v.684l.914.822v.685H360.039v-.685Zm.773-1.465-.7.653h27.4l-.617-.653Zm.543-1.394-.666.649H387.9l-.593-.649Zm-1.4,3.03-.749.574h29.263l-.659-.574Z" transform="translate(16322 14135)"/>
    <path id="Path_145424" data-name="Path 145424" d="M359.093,189.959h-5.836V149.005c-.173-4.558.033-6.484,2.3-10.142,4.454-7.194,13.41-11.971,19.3-12.958V125.9h.033v.008c5.713,1.422,14.381,5.37,18.908,12.83,2.3,3.794,2.692,5.654,2.692,10.27v40.954h-5.836V152.8a5.488,5.488,0,0,0-1.713-2.922c2.083-2.055,1.984-4.171.757-6.619-2.9-5.817-10.215-10.013-14.816-11.3-4.626,1.226-12.018,5.661-14.9,11.049-1.317,2.473-1.6,5.017.84,6.936a5.319,5.319,0,0,0-1.713,2.862v37.151Z" transform="translate(16322 14135)" fill="#cdd984"/>
    <path id="Path_145425" data-name="Path 145425" d="M353.142,190.078V149.27a27.458,27.458,0,0,1,.238-5.7,14.371,14.371,0,0,1,2.075-4.77,25.387,25.387,0,0,1,4.658-5.473,31.082,31.082,0,0,1,14.759-7.545,35.484,35.484,0,0,1,5.4,1.824c6.568,2.809,13.919,8.375,15.845,15.921a21.933,21.933,0,0,1,.494,5.473v41.075h-6.067V153.113c0-1.223-1-2.406-1.761-3.236,1.992-1.97,2.033-4.129.815-6.56a16.126,16.126,0,0,0-1.449-2.331,26.053,26.053,0,0,0-13.269-8.907c-5.581,1.49-12,5.747-14.792,10.982-1.325,2.491-1.449,5.008.914,6.858-.807.849-1.77,1.842-1.77,3.135v37.015h-6.091Zm.23-.24h5.606V153.113a4.723,4.723,0,0,1,1.654-3.151c-2.3-1.893-2.066-4.563-.765-7.006,2.823-5.284,9.351-9.65,15-11.116a26.048,26.048,0,0,1,13.451,9,15.313,15.313,0,0,1,1.473,2.364c1.2,2.406,1.26,4.694-.691,6.68a5.121,5.121,0,0,1,1.662,3.213l-.008,36.74h5.614V149a21.461,21.461,0,0,0-.486-5.413c-1.909-7.477-9.2-12.982-15.7-15.758a34.962,34.962,0,0,0-5.318-1.8,31.556,31.556,0,0,0-14.6,7.477,24.872,24.872,0,0,0-4.609,5.423,13.88,13.88,0,0,0-2.042,4.691,27.592,27.592,0,0,0-.23,5.646Z" transform="translate(16322 14135)"/>
    <path id="Path_145426" data-name="Path 145426" d="M373.53,127.747c.033.549.593.043,1.021-.23a8.256,8.256,0,0,1,1.259-.738l-.016-.454Z" transform="translate(16322 14135)"/>
    <path id="Path_145427" data-name="Path 145427" d="M371.547,127.292v.088c0,.453.255,1.188.576,1.188.19,0,.247-.058.247-.254v-.6h-.164v.429c-.725-.062-.272-.883-.576-1.117-.058.114-.083.1-.083.266" transform="translate(16322 14135)"/>
    <path id="Path_145428" data-name="Path 145428" d="M378.025,128.4c0,.2.107.43.329.43.288,0,.387-.31.412-.6H378.6c-.033.129-.016.257-.164.257-.116,0-.165-.12-.165-.257v-.085c0-.412.206-.386.247-.856a1.472,1.472,0,0,0-.494,1.112" transform="translate(16322 14135)"/>
    <path id="Path_145429" data-name="Path 145429" d="M380.24,128.577l.164.687h.247a1.221,1.221,0,0,0,.412-.086l.246.6c.181-.015.576-.077.576-.257a5.161,5.161,0,0,0-.082-.616l-.716.094-.181-.523Z" transform="translate(16322 14135)"/>
    <path id="Path_145430" data-name="Path 145430" d="M374.173,129.339v.086c0,.282.247.685.412.685.312,0,.329-.427.279-.788l-.115.37c-.3-.071-.411-.138-.411-.516a.889.889,0,0,1,.172-.514l-.172-.257a3.441,3.441,0,0,0-.165.934" transform="translate(16322 14135)"/>
    <path id="Path_145431" data-name="Path 145431" d="M366.624,129.433c-.008.387-.083.274-.083.593,0,.6.354.23.5.6.28-.077.8-.694.658-1.018l-.658.5-.371-.138.469-.2-.189-.429Z" transform="translate(16322 14135)"/>
    <path id="Path_145432" data-name="Path 145432" d="M375.976,128.4c0-.119.115-.171.247-.171.255,0,.354.214.411.428-.2.069-.658.078-.658-.257m-.247.1c0,.429.024.856.576.856.329,0,.428-.077.494-.341.255.359.3.368-.033.711a4.04,4.04,0,0,1-2.346,1.165c-1.663,0-1.259-1.235-1.037-2.237a2.181,2.181,0,0,0-.527,1.636,1.246,1.246,0,0,0,1.309,1.275c2.231,0,4.264-2.67,2.329-3.972-.452-.309-.765.521-.765.907" transform="translate(16322 14135)"/>
    <path id="Path_145433" data-name="Path 145433" d="M383.277,132.157c0,.053.115.181.165.259h.411c.082.137.107.256.329.256h.083c.3,0,.551-.437.526-.815l-.526.559s-.083-.163-.083-.173c0-.161.107-.273.107-.565l-.46.5-.231-.276.173-.343a.589.589,0,0,0-.494.6" transform="translate(16322 14135)"/>
    <path id="Path_145434" data-name="Path 145434" d="M362.525,132.243c0,.24.033.154.165.257.106-.487.436-.572.847-.754l-.559,1.156.107.077.592-.822V131.3c-.477.016-1.152.411-1.152.941" transform="translate(16322 14135)"/>
    <path id="Path_145435" data-name="Path 145435" d="M378.272,132.842l1.506.111.215-.349-1.474-.105c-.231-.015-.247.113-.247.343" transform="translate(16322 14135)"/>
    <path id="Path_145436" data-name="Path 145436" d="M386.479,133.185c.082.138.107.258.329.258h.083c.23,0,.312-.2.4-.361l-.4.1c.016-.72.263-.463.576-.941-.552.043-.79.54-.988.941" transform="translate(16322 14135)"/>
    <path id="Path_145437" data-name="Path 145437" d="M368.015,134.033l.156-.257-.238-.6v.427c-.733-.059-.478-.617-.823-1.028.008.849.255,1.3.905,1.456" transform="translate(16322 14135)"/>
    <path id="Path_145438" data-name="Path 145438" d="M385.713,134.822c.058-.036.346-.19.354-.19.536,0,.33.651.206.969Zm-8.264-3.436c0,1.475,1.49.206,2.247-.043.4-.128.544-.1.519.369-.049.806.131,1.173,1.02,1.712a2.69,2.69,0,0,0,1.869.19,1.48,1.48,0,0,0-.165.684c0,.942,1.433,1.312,2.215.772.131.255.707,1.285.987,1.285.256,0,.552-.447.733-.884.091-.214.337-1.24-.107-1.259-1.1-.043-1.194.61-1.86.61-.922,0-1.894-.567-1.235-1.679a2.922,2.922,0,0,1-2.519-.567c-.445-.436-.436-.675-.428-1.361.008-.66-.568-.549-.955-.343-.428.214-1.827,1.3-1.827.1a4.087,4.087,0,0,1,.576-1.7,2.931,2.931,0,0,0-1.07,2.114" transform="translate(16322 14135)"/>
    <path id="Path_145439" data-name="Path 145439" d="M389.673,135.489a4.353,4.353,0,0,0,1.473.771.2.2,0,0,0,.165-.17,4.956,4.956,0,0,0-1.473-.772.2.2,0,0,0-.165.171" transform="translate(16322 14135)"/>
    <path id="Path_145440" data-name="Path 145440" d="M386.479,137.022c-.083-.326-1.926-.977-2.132-.686a3.881,3.881,0,0,0,2.132.686" transform="translate(16322 14135)"/>
    <path id="Path_145441" data-name="Path 145441" d="M359.982,136.508a1.425,1.425,0,0,0,.832,1.02l-.346-.018-1.087.258.025.11c.09.147.181.342.411.342.313,0,.338-.051.412-.256l.741.009.485.043.033-.087-1.177-1.154c.412-.1.387.152.494-.258a3.274,3.274,0,0,1-.411-.172.888.888,0,0,0-.412.163" transform="translate(16322 14135)"/>
    <path id="Path_145442" data-name="Path 145442" d="M357.981,137.9l.239.4.955-2.734-.256-.325Z" transform="translate(16322 14135)"/>
    <path id="Path_145443" data-name="Path 145443" d="M392.052,138.469v.171c0,.283.164.182.164.344,0,.641-.3.659-.411,1.112a2.648,2.648,0,0,0,.979-.428c.724-.435.51-.283.493.342.181-.094.412-.145.412-.428V139.5c0-.187-.065-.187-.172-.368l-1.137.54a3.438,3.438,0,0,0,.248-1.113v-.172c0-.137-.05-.257-.164-.257-.191.009-.412.12-.412.343" transform="translate(16322 14135)"/>
    <path id="Path_145444" data-name="Path 145444" d="M390.331,140.944c0,.163.3.258.494.258h.082a1.181,1.181,0,0,0,.412-.085v-.181l-.412.008c-.263-.572.609-.385.823-.685-.568.009-1.4.171-1.4.685" transform="translate(16322 14135)"/>
    <path id="Path_145445" data-name="Path 145445" d="M354.318,141.63c0,.087.313.43.494.43s.494-.343.494-.43c0-.11-.33-.352-.412-.428-.107.061-.576.309-.576.428" transform="translate(16322 14135)"/>
    <path id="Path_145446" data-name="Path 145446" d="M393.2,141.2c.477.43.741.4.741,1.448l-.939-.669c.206.549,1.737,1.671,1.671.687-.066-.873-.263-1.466-1.473-1.466" transform="translate(16322 14135)"/>
    <path id="Path_145447" data-name="Path 145447" d="M357.471,143.917a1.145,1.145,0,0,1-.445.1c-.592,0-.362-.377-.9-.429a1.19,1.19,0,0,0,.988.684h.329a.553.553,0,0,0,.411-.341c0-.31-.362-.4-.584-.505Z" transform="translate(16322 14135)"/>
    <path id="Path_145448" data-name="Path 145448" d="M394.677,143.942c-.247-.352-.37-.1-.823-.086l-.527.565.683.241.009-.214h-.248l.165-.4Z" transform="translate(16322 14135)"/>
    <path id="Path_145449" data-name="Path 145449" d="M353.907,143.248c.247.5.765.6,1.473.6-.247.178-1.226.617-1.226.941,0,.2.057.258.247.258h.164c.2,0,.239-.138.412-.258-.107-.54.551-.548.988-.771-.321-.454-1.037-.368-1.671-.565l.436-.206c-.049-.187-.016-.256-.247-.256-.411.008-.28.153-.576.256" transform="translate(16322 14135)"/>
    <path id="Path_145450" data-name="Path 145450" d="M356.533,141.545c.107-.113.741-.763.741-.171,0,.377-.272.435-.576.514Zm-.568-.344c0,.951,1.885,1.448,1.885.6v-.086c0-.4-.156-.342-.247-.686h.329c.56,0,.717,2.74.527,3.451a1.717,1.717,0,0,1-.839,1.259c-.9.353-.864-.094-1.49-.272a1.6,1.6,0,0,0,1.226.769h.247c.947,0,1.556-1.036,1.556-1.961v-.684c0-1.44-.486-2.99-1.8-2.99h-.164c-.371.008-1.227.318-1.227.6" transform="translate(16322 14135)"/>
    <path id="Path_145451" data-name="Path 145451" d="M394.842,147.093c0,.31.362.334.658.344l-.008-.156-.321-.1c.091-.146.181-.343.412-.343h.165a1.17,1.17,0,0,1,.411.086c-.074-.205-.091-.257-.411-.257H395.5c-.255,0-.658.162-.658.428" transform="translate(16322 14135)"/>
    <path id="Path_145452" data-name="Path 145452" d="M390.742,149.312c.033.359.263,1.027.576,1.113v-.77c0-.239.066-.205.231-.248l.09.163c-.1.144-.28.343.083.343.131,0,.247-.052.247-.172,0-.224-.436-.6-.577-.6-.428,0-.148.283-.65.172" transform="translate(16322 14135)"/>
    <path id="Path_145453" data-name="Path 145453" d="M355.553,148.2c.008-.437.139-.495.411-.685l.173.343-.189.42Zm-.741-.171a1.524,1.524,0,0,0,1.07.6.858.858,0,0,0,.914-.781l-.428-.582c.222-.05.156-.086.329-.086.5,0,1.523,1.569,1.671,2.176a1.315,1.315,0,0,1-.329,1.345c-.478.42-.914.025-1.5-.027v.171a3.636,3.636,0,0,0,.987.258h.576a1.152,1.152,0,0,0,.988-1.027v-.429c0-.975-1.523-2.731-2.543-2.731h-.33a1.884,1.884,0,0,0-1.407,1.112" transform="translate(16322 14135)"/>
    <path id="Path_145454" data-name="Path 145454" d="M394.76,152.044c0,.291.3.317.576.344v-.171h-.247c.058-.224.157-.344.412-.344a.853.853,0,0,1,.493.171v-.257c-.32,0-1.234-.205-1.234.257" transform="translate(16322 14135)"/>
    <path id="Path_145455" data-name="Path 145455" d="M391.228,153.577c0,1.346,1.1,3.5,2.3,3.5.552,0,.89-.309,1.392-.428l.041.3.781-.812-.74-.085a6.1,6.1,0,0,1-1.556.769c-.609,0-1.556-2.124-1.556-3.075a1.341,1.341,0,0,1,1.227-1.446,5,5,0,0,1,1.218.291,1.884,1.884,0,0,0-1.547-.539,1.5,1.5,0,0,0-1.556,1.523" transform="translate(16322 14135)"/>
    <path id="Path_145456" data-name="Path 145456" d="M393.525,154.519c0,.273.23.325.453.454l.436-.684-.56-.284c-.033.051-.329.5-.329.514" transform="translate(16322 14135)"/>
    <path id="Path_145457" data-name="Path 145457" d="M395.418,153.748l-.741.687c1.169,0,1.243-.009.823.6.231.052.659.062.659-.343,0-.264-.239-.341-.494-.341h-.412c.173-.489.766-.539.823-1.2-.625-.136-.708.027-.658.6" transform="translate(16322 14135)"/>
    <path id="Path_145458" data-name="Path 145458" d="M353.421,159.469c.272.419.815,1.918,1.309,1.961-.025-.315-.963-2.371-1.309-1.961" transform="translate(16322 14135)"/>
    <path id="Path_145459" data-name="Path 145459" d="M395.007,161.344h-.247v-.171h-.247c.066.3.214,1.327.659,1.362v-.684a1.353,1.353,0,0,1,.082-.429c.206-.052.411-.181.411.171v.258H395.5v.257c.3-.01.493-.035.493-.344v-.086c-.008-.367-.806-1.026-.987-.334" transform="translate(16322 14135)"/>
    <path id="Path_145460" data-name="Path 145460" d="M354.508,162.638l-.428-.273-.527.393.42.325-.206.575.461.427.321-.368-.428-.436Z" transform="translate(16322 14135)"/>
    <path id="Path_145461" data-name="Path 145461" d="M390.825,163.734c0,.258.461.531.658.258-.123-.034-.246-.018-.246-.171,0-.068.172-.258.246-.258a.747.747,0,0,1,.585.19l.033-.086-.042-.181a3.933,3.933,0,0,0-.576-.086H391.4c-.238-.009-.576.163-.576.334" transform="translate(16322 14135)"/>
    <path id="Path_145462" data-name="Path 145462" d="M395.517,165.114c.33.016.3.033.3.41l-.173.053-.337-.061Zm-.617.53-.222.053.041.324.535-.41c.181.094.988.264.988-.087,0-.377-.412-.548-.659-.685a1.369,1.369,0,0,0-.337.162c-.124.1-.083.266-.239.266-.428,0-.56-.735-.988-.855l-.066.067Z" transform="translate(16322 14135)"/>
    <path id="Path_145463" data-name="Path 145463" d="M393.451,167.237a.815.815,0,0,0,.329.344c.3,0,.321-.291.329-.6l-.493-.077c-.083.283-.165.214-.165.334" transform="translate(16322 14135)"/>
    <path id="Path_145464" data-name="Path 145464" d="M394.183,167.409l.412.429c.074-.113.329-.368.329-.429,0-.119-.288-.257-.329-.257-.223,0-.3.128-.412.257" transform="translate(16322 14135)"/>
    <path id="Path_145465" data-name="Path 145465" d="M395.171,166.894c0,.188.066.188.173.344l-.091.163c.1.144.264.428.494.428h.412c-.206-.6-.321.221-.478-.395l.321-.223-.4-.068-.082-.23.23-.276H395.5a.35.35,0,0,0-.329.257" transform="translate(16322 14135)"/>
    <path id="Path_145466" data-name="Path 145466" d="M354.895,168.17c-.017-.6-.758-2.448-1.227-2.217.346.539.758,2.089,1.227,2.217" transform="translate(16322 14135)"/>
    <path id="Path_145467" data-name="Path 145467" d="M393.607,168.084c0,.07.173.257.247.257a.55.55,0,0,0,.411-.341c0-.1-.4-.344-.411-.344-.124,0-.247.292-.247.428" transform="translate(16322 14135)"/>
    <path id="Path_145468" data-name="Path 145468" d="M390.908,170.474c0,.154.386.326.575.344v-.171h-.173l.107-.387.642.31.239-.182c-.378-.034-.387-.257-.823-.257-.23,0-.567.172-.567.343" transform="translate(16322 14135)"/>
    <path id="Path_145469" data-name="Path 145469" d="M390.916,171.819l-.008.111a3.473,3.473,0,0,0,.576.086h.741a16.693,16.693,0,0,0,2.872-.513l-.074.455,1.268-.8-.066-.181Z" transform="translate(16322 14135)"/>
    <path id="Path_145470" data-name="Path 145470" d="M357.274,174.063v.172l.271.137-.345.213c-.453-.111-.56-.35-.741-.093a1.385,1.385,0,0,0,.659.257h.247c.255,0,.493-.079.493-.342-.008-.2-.362-.326-.584-.344" transform="translate(16322 14135)"/>
    <path id="Path_145471" data-name="Path 145471" d="M395.229,173.961l.444.359-.279.447.42.291.419-.241c-.049-.6-.411-.335-.411-.6,0-.2.172-.257.23-.573l-.568-.284Z" transform="translate(16322 14135)"/>
    <path id="Path_145472" data-name="Path 145472" d="M392.3,174.407a1.364,1.364,0,0,1,.082-.43l.93.249v.119l-.708.883-.066-.061a1.5,1.5,0,0,1-.246-.685v-.075Zm1.152-.344c-.3-.076-1.8-.874-1.8.087v.085c0,1.147,1.342,1.652,2.132.429l1.153.5-.033-.205-.963-.574.255-.505h.247v.171h.173l.239-.941h-.494c-.264.009-.8.735-.906.95" transform="translate(16322 14135)"/>
    <path id="Path_145473" data-name="Path 145473" d="M392.792,177.214c0,.181.436.353.576.43-.074-.291-.164-.224-.164-.344,0-.1.172-.257.329-.257a4.373,4.373,0,0,1,.823.257c-.1-.377-.543-.428-.988-.428-.238.008-.576.18-.576.342" transform="translate(16322 14135)"/>
    <path id="Path_145474" data-name="Path 145474" d="M353.824,177.471c0-.324.058-.161.083-.514l.485.9.09-.043c-.008-.481-.354-1.284-.74-1.284-.239,0-.223.71-.33.94l.536.644c-.025-.343-.124-.327-.124-.644" transform="translate(16322 14135)"/>
    <path id="Path_145475" data-name="Path 145475" d="M395.986,179.013c-.041-.514-.617-2.1-1.07-2.133.123.5.642,2.014,1.07,2.133" transform="translate(16322 14135)"/>
    <path id="Path_145476" data-name="Path 145476" d="M354.549,180.443c.206.146.3.36.51.36a.562.562,0,0,0,.33-.427c0-.156-.3-.284-.428-.361Z" transform="translate(16322 14135)"/>
    <path id="Path_145477" data-name="Path 145477" d="M356.3,179.878c-.107-.162-.2-.358-.428-.358s-.313.2-.412.341c.124.188.33.3.33.514,0,.008-.214.367-.248.43l.544.385c.123-.4.189-.2.189-.471,0-.061-.255-.319-.329-.43Z" transform="translate(16322 14135)"/>
    <path id="Path_145478" data-name="Path 145478" d="M356.648,182.833a1.089,1.089,0,0,1-.436.1c-.3,0-.288-.1-.576-.171a.8.8,0,0,0,.741.427h.082c.395,0,.436-.163.576-.427l-.576-.257Z" transform="translate(16322 14135)"/>
    <path id="Path_145479" data-name="Path 145479" d="M392.875,183.535l.634.3.066-.086-.288-.215c.049-.187.016-.256.246-.256h.248c.3,0,.287.1.576.171-.091-.343-.593-.429-.988-.429-.3,0-.469.2-.494.514" transform="translate(16322 14135)"/>
    <path id="Path_145480" data-name="Path 145480" d="M354.565,182.336c.148.505.271,1.4.823,1.448-.132-.583-.411-1.113-.576-1.706-.058-.229-.461-1.693-.749-1.393a8.638,8.638,0,0,0,.5,1.651" transform="translate(16322 14135)"/>
    <path id="Path_145481" data-name="Path 145481" d="M395.3,183.775a1.029,1.029,0,0,0,.436.188c.395,0,.025-.212.494-.341l-.008-.241-.634-.179Z" transform="translate(16322 14135)"/>
    <path id="Path_145482" data-name="Path 145482" d="M357.438,178.756h-.906v.258c.4.033.354.153.676.1s.469-.188.469.156a.881.881,0,0,1-.247.6l-.494-.163c.065.634.988.1.988,1.355,0,.238-.165.6-.33.6-.312,0-.156-.059-.494-.086v.172a1.123,1.123,0,0,1,.741,1.029v.512c0,1.406-2.28.944-2.955.944-.23,0-1.3-.036-1.391.341l3.285.036c1.028.034,1.72-.328,1.72-1.407a1.478,1.478,0,0,0-.576-1.2.789.789,0,0,0,.658-.77,1.279,1.279,0,0,0-.658-1.029c.214-.343.411-.334.411-.942.008-.189-.65-.505-.9-.505" transform="translate(16322 14135)"/>
    <path id="Path_145483" data-name="Path 145483" d="M353.43,175.6h.312a13.562,13.562,0,0,0,1.992-1.772c.51-.532,1.259-1.449,2.2-1.473.19.719.741,1.112.741,2.39v.341c.182-.05.247-.016.247-.257v-.942a2.456,2.456,0,0,0-2.131-2.474h-.412l-1.8.2c.469-.754-.815.094-1.07.229a.594.594,0,0,0,.494.344c.214,0,1.687-.292,1.819-.316a2.37,2.37,0,0,1,1.786.058c-.09.343-.634.326-1.037.54a3.377,3.377,0,0,0-.9.687,7.506,7.506,0,0,1-1.589,1.5c.058-.24.083-.147.083-.344,0-.008-.083-.171-.083-.171l-.634,1.149Z" transform="translate(16322 14135)"/>
    <path id="Path_145484" data-name="Path 145484" d="M358.911,179.861c0-1.866-.634-4.437-2.3-4.437h-.247c-.4,0-.717.334-1.071.428l.058-.428-.914.9.618.2a7.368,7.368,0,0,1,1.8-.839c.692,0,1.779,3.579,1.968,4.437Z" transform="translate(16322 14135)"/>
    <path id="Path_145485" data-name="Path 145485" d="M358.969,171.331l-.14-.428h-.156v.343a1.375,1.375,0,0,1-.082.429h-.165c.049-.215.173-.429-.165-.429-.115,0-.165.119-.165.256,0,.173.363.351.495.43l.395-.1Z" transform="translate(16322 14135)"/>
    <path id="Path_145486" data-name="Path 145486" d="M358.944,168.419c-.494-.881-.748-2.38-2.239-2.38a1.826,1.826,0,0,0-1.391.855,1.14,1.14,0,0,0,1.062.694c.667.1.642-.086.906-.608l-.453-.557c.963-.043,1.6,1.7,1.6,2.691a1.042,1.042,0,0,1-.9,1.112c-.593,0-.857-.309-1.227-.343a2.143,2.143,0,0,0,1.638.687h.083c.51,0,.724-.43.938-.712Zm-2.428-1.816.016.368a.327.327,0,0,1-.329.343c-.173,0-.23-.223-.238-.4Z" transform="translate(16322 14135)"/>
    <path id="Path_145487" data-name="Path 145487" d="M358.911,161.3c-.576-.95-.485-1.9-1.967-2.259a7.5,7.5,0,0,0-.839-1.945c-.371-.65-.461-1.181-1.292-1.388.123.471.831,1.192.921,1.687.091.473-.452,1.389-1,1.389-.4,0-.9-1.012-.823-1.535l.1-.674h-.182c-.082.358-.329.616-.329,1.026,0,1.269.881,1.242,1.639,1.618l1.078-.753.271.738c-.378.178-1.1.462-1.1.95,0,.377,1.8,1.413,1.8-.258,0-.324-.058-.161-.082-.514.782.215,2.066,2.9.658,3.666a1.353,1.353,0,0,0-.988-.684h-.082c-.494,0-.65.35-.9.6l-1.178-.923-.049.077c.124.487.988.718.988,1.189,0,.138-.626.772-.741.944l-.321-.1.058.069-.322.428-.065-.052v.172a1.193,1.193,0,0,0,.411.085,2.356,2.356,0,0,0,1.474-1.2l1.547.557c.445-.285.379-.429.346-.9a1.368,1.368,0,0,0,1-.607Zm-2.864-1.068c0-.267.313-.387.494-.516v.257c0,.267-.074.515-.329.515-.124,0-.165-.113-.165-.256m.922,2.413.058.062c.09.341.247.341.247.855,0,.138-.05.258-.165.258a2.644,2.644,0,0,1-.856-.472Z" transform="translate(16322 14135)"/>
    <path id="Path_145488" data-name="Path 145488" d="M358.92,156.163a6.827,6.827,0,0,0-.56-1.231c-.411-.6-.551-.514-1-.925.708,0,1.556-.4,1.556-1.115v-.255c0-.412-.708-.687-1.153-.687H357.6c-1.177,0-2.272.515-3.12.515l.1-.334-1.144.625-.017.136c.255.027.321.121.494.085l4.33-.779.016.1v.513c0,1.413-3.5.873-3.77,1.961.338.027.182.086.494.086a11.256,11.256,0,0,1,2.132-.684c.362,0,1.227,1.584,1.227,2.216v.172c0,.334-.313.772-.577.772a5.215,5.215,0,0,1-1.308-.344c.1.387.9.6,1.391.6h.329c.47,0,.568-.327.757-.6Z" transform="translate(16322 14135)"/>
    <path id="Path_145489" data-name="Path 145489" d="M366.542,134.2a1.806,1.806,0,0,0-1.967-1.959c-.708,0-.132,1.705.658,1.705.535,0,.519-.568.494-.944.536.266.527.214.437.8a6.244,6.244,0,0,1-.28,1.233c-.3.83-1.326,2.142-2.042,1.036,0-.788.157-.88-.346-1.428a2.013,2.013,0,0,0-1.785-.617c-.371,0-.322.325-.239.574.452,1.293,1.63,1.413,1.63.539,0-.31-.2-.163-.083-.429a.274.274,0,0,1,.412.257c0,1.781-1.7,5.035-3.367,5.035-1.4,0-2.23-1.48-3.531-1.789.082.153.2.4.263.539,1.136.463,2.363,1.851,3.589,1.851a3.012,3.012,0,0,0,2.157-1.594,9.2,9.2,0,0,0,1.2-2.586c.2.273.362.686.9.686.815,0,1.391-1.045,1.622-1.541a3.069,3.069,0,0,0,.271-1.373m-1.885-1.1c0-.358.412-.257.659-.257v.343c-.214.111-.659.359-.659-.086m-2.683,1.5c.214-.061.625-.12.625.12,0,.309-.18.4-.411.472-.329.1-.37-.549-.214-.592" transform="translate(16322 14135)"/>
    <path id="Path_145490" data-name="Path 145490" d="M392.594,163.136c.107.292.165.5.362,1.027-.79,0-1.555.359-1.555,1.113,0,.531.493,1.036.493,1.113-.329.428-.8.54.247,1.449-.181.273-.494.478-.494.941,0,1.618,2.742,1.027,3.622.6l-.09.512,1.062-.693c-.189-.729-2.931.343-3.853.343-.181-.8.066-1.011.494-1.618-.872-.019-.732-.548-.485-1.131l.321.1c-.05-.47-.659-.608-.659-1.276a1.1,1.1,0,0,1,.988-1.19l.634-.027-.552-1.43c.272-.154,1.144-.583,1.144-.942,0-.53-.765-.769-1.309-.769-.477,0-.707.889-.493,1.36-.922-.1-2.034-3.5-.247-3.5a2.742,2.742,0,0,0,1.638.771c.461,0,1.391-.522,1.391-.942,0-.368-.667-.6-1.07-.6-1.062,0-.782.7-.412,1.278-1.358,0-2.461-3.341-2.873-4.7a7.97,7.97,0,0,0,.988,3.923c-.938,0-1.127.505-1.168,1.158-.067,1.188.749,3.089,1.876,3.125m1.507-4.266a.247.247,0,1,1,.493,0c0,.291-.255.368-.493.429Zm-.8,2.663c.091.043.313.1.313.24,0,.361-.338.558-.576.687l.1-.754Z" transform="translate(16322 14135)"/>
    <path id="Path_145491" data-name="Path 145491" d="M382.512,135.4h.189c.188,0,.246-.06.246-.257v-.514l-.658.086-.173-.6c-.247.058-.667.042-.692.229-.016.156.14.533.37.533h.412l.066.334Z" transform="translate(16322 14135)"/>
    <path id="Path_145492" data-name="Path 145492" d="M390.7,174.491h.041c0,1.886.659,4.779,2.3,4.779h.082c.272,0,.626-.257.963-.334l.123.361.717-.7v-.257a3.112,3.112,0,0,0-2.132.684c-1.1-.761-1.523-3.4-1.885-5.036h-.2Z" transform="translate(16322 14135)"/>
    <path id="Path_145493" data-name="Path 145493" d="M358.986,186.7h-.074c-.009-.573-.511-1.594-.988-1.705a5.386,5.386,0,0,0,1.037,1.944Z" transform="translate(16322 14135)"/>
    <path id="Path_145494" data-name="Path 145494" d="M353.372,186.619a2.08,2.08,0,0,0,.708.162c.3,0,.288-.1.576-.171l.082-.068-.5-.591-.09.076.205.405a1.066,1.066,0,0,1-.427.092.655.655,0,0,1-.519-.171Z" transform="translate(16322 14135)"/>
    <path id="Path_145495" data-name="Path 145495" d="M353.388,169.292l.535.112.223-.128,3.366-.393.749.067c-.28-.8-3.177-.086-4.017-.086l.19-.325-.067-.086-.954.567Z" transform="translate(16322 14135)"/>
    <path id="Path_145496" data-name="Path 145496" d="M353.38,154.459c.132.087-.091.062.2.062h.247c-.058.693-.149.042-.412.426.214.113-.066.086.247.086h.247v.343h-.247c.132.5.658.111.658,0,0-.018-.214-.882-.247-1.027l-.683-.061Z" transform="translate(16322 14135)"/>
    <path id="Path_145497" data-name="Path 145497" d="M353.33,150.682l.42.053,1.646-.525,2.79-.659c-.2-.11-.205-.153-.427-.153h-.577c-.889,0-2.008.607-2.873.684l.091-.334-.066-.077-1,.781h-.008Z" transform="translate(16322 14135)"/>
    <path id="Path_145498" data-name="Path 145498" d="M353.314,147.239c.37.4.461,1.576,1.012,1.73l-.839-2.209-.165-.008v.487Z" transform="translate(16322 14135)"/>
    <path id="Path_145499" data-name="Path 145499" d="M360.072,134.461l-.658.2a2.48,2.48,0,0,0,.074.66l.765-.283c-.272-.6.148-.65.626-.66v-.342c0-.469-.478-.325-.733-.257-.239.207-.123.37-.074.685" transform="translate(16322 14135)"/>
    <path id="Path_145500" data-name="Path 145500" d="M367.629,128.526a6.938,6.938,0,0,0,1.062,1.738c.247.326,1.053,1.294,1.053,1.722v.258a6.779,6.779,0,0,0-1.646-1.106c-.51-.172-1.687-.292-2.288-.436l.518-.189a8.775,8.775,0,0,0-1.58-.154l.494.771c.231-.051,1.762.394,2.321.489a3.983,3.983,0,0,1,2.116.787,4.04,4.04,0,0,1-1.556,2.3,2.552,2.552,0,0,0,1.959-2.3c0-1.345-1.012-2.219-1.556-3.074h.494l-1.1-.969Z" transform="translate(16322 14135)"/>
    <path id="Path_145501" data-name="Path 145501" d="M369.415,127.669c.148,1.175,2.749,3.742,2.939,5.012l.172-.1a4.255,4.255,0,0,0-.93-2.1c-.238-.428-1.136-1.636-1.2-1.911h.33l.057-.086-1.16-.908Z" transform="translate(16322 14135)"/>
    <path id="Path_145502" data-name="Path 145502" d="M386.536,131.438c.008.018.016.025.016.042a21.114,21.114,0,0,0-4.346-1.112v.258l4.256,1.137.222-.221Z" transform="translate(16322 14135)"/>
    <path id="Path_145503" data-name="Path 145503" d="M391.451,136.593c-.7.687-2.059,2.124-2.923,2.391a3.545,3.545,0,0,0,.658-2.134l-.205-2.389.386.539-.551-1.91a5.715,5.715,0,0,0-.42.531c.049,1.158.206,2.338.214,3.487a2.951,2.951,0,0,1-.329,1.876,6.678,6.678,0,0,1-2.577-1.021c1.054,1.079,1.7,1.859,3.318,1.192-1.334,1.712.132,2.962,1.416,3.844a1.834,1.834,0,0,0-.108.506,1.306,1.306,0,0,0,1.227,1.2c-.42,1.876,1.35,1.379,2.041.806a2.413,2.413,0,0,0-.238-.206c-.149.1-1.021.479-1.128.317a.873.873,0,0,1-.107-.574c0-.358.469-.272.716-.291a.54.54,0,0,0-.551-.223c-.963,0-1.136-.393-1.309-1.2l.527-.548a2.982,2.982,0,0,1-2.421-2.43c0-1.193,2.124-3.084,2.923-3.9a1.808,1.808,0,0,0-.559.137" transform="translate(16322 14135)"/>
    <path id="Path_145504" data-name="Path 145504" d="M396.258,150.237c-1.333-.281-3.1.607-4.774.607l-1.21-.049c1.119.941,4.025-.121,4.75-.121l-.067.385,1.326-.625Z" transform="translate(16322 14135)"/>
    <path id="Path_145505" data-name="Path 145505" d="M390.743,181.548l.082-.231a4.474,4.474,0,0,0,.387,2.072c.19.471.856,1.294.93,1.594h-.411c-.584,0-.906.668-.906,1.275,0,1.278,1.433,3.16,2.626,3.16.56,0,1.556-.667,1.556-1.2,0-.47-1.046-.549-1.375-.737l-.617.841.51.726-.321.1a4.1,4.1,0,0,1-1.465-1.8c-.255-.72-.461-2.21.568-2.21.189,0,.527.43,1.227.43.526,0,.749-.4,1.235-.516l-.083.429c.37-.043.716-.711.823-1.035l-.5-.173-1.712,1.037c-.782-.429-1.054-1.284-1.507-2.1a22.2,22.2,0,0,0-1-2.578Zm2.947,6.766c.058-.11.181-.428.329-.428.1,0,.247.18.247.342v.086a.565.565,0,0,1-.329.43c-.156,0-.173-.284-.247-.43" transform="translate(16322 14135)"/>
    <path id="Path_145506" data-name="Path 145506" d="M396.365,180.572l-.453-.2a17.405,17.405,0,0,1-4.511.6v.257c.453.009.47.214.749.24l3.038-.488-.214.4.066.079,1.341-.643Z" transform="translate(16322 14135)"/>
    <path id="Path_145507" data-name="Path 145507" d="M396.381,187.115l-1.21-.171,1.062-1.112c-.148-.1-.14-.173-.329-.173-.371,0-.445.5-.462.651l-.847.463c.247.95,2.016-.4,1.152.943.1.059.091.086.247.086.189,0,.239-.122.379-.233v-.017a.007.007,0,0,1,.008-.007Z" transform="translate(16322 14135)"/>
    <path id="Path_145508" data-name="Path 145508" d="M395.822,148.207a10.427,10.427,0,0,1-2.791.678.987.987,0,0,1-.74-.258c2.264-.548,2.107-2.654,3.2-3.417l.173.344.37-1.285h-.461c-.584,0-2.19,4.178-3.449,4.178-.436,0-1.383-2.482-1.6-3.031-.008-.01-.008-.025-.016-.034.107,1.352.238,2.945,1.638,3.554s2.091.078,3.177-.061c-.09.139-.173.292-.206.344.47-.233.947-.532,1.161-.668Z" transform="translate(16322 14135)"/>
    <path id="Path_145509" data-name="Path 145509" d="M354.648,188.485c1.259-.873,1.309-2.218,2.05-2.73a6.174,6.174,0,0,1,1.391,3.074c0,.889-1.795.136-2.371.016a5.033,5.033,0,0,0,2.371.745.8.8,0,0,0,.658-.685c0-1.122-1.243-3.417-2.3-3.417-1.219,0-1.029,2.048-1.968,2.3l-.115-.37-.444.882Z" transform="translate(16322 14135)"/>
    <path id="Path_145510" data-name="Path 145510" d="M364.69,178.277h1.078a3.84,3.84,0,0,1-.946-.393l.288-.892c5.21,1.432,6.108-1.722,9.787.807,3.927-2.529,4.783.683,9.746-.807l.255.874a9.2,9.2,0,0,1-1.514.411h1.588v.616h-9.441c-.51-.582-.766-.565-1.268,0H364.69Zm5.112,0h3.408a4.212,4.212,0,0,0-3.408,0m6.651,0h3.457a4.324,4.324,0,0,0-3.457,0m-1.926-.325h0v-.018c-1.457-1.242-2.783-.985-4.338-.694a8.625,8.625,0,0,1-4.931-.137l-.008.077a8.724,8.724,0,0,0,4.939.138c1.547-.3,2.872-.549,4.329.694l.009-.018h-.009l.009-.017-.009-.007Zm-9.351-.6a8.776,8.776,0,0,0,4.864.113c1.573-.3,2.914-.559,4.388.744l.008-.018h-.008l.008-.016-.008-.008.008-.019h-.008l.008-.015c-1.482-1.3-2.823-1.045-4.4-.746a8.758,8.758,0,0,1-4.864-.113Zm-.058.128a8.737,8.737,0,0,0,4.856.1c1.573-.3,2.915-.558,4.4.754l.008-.018h-.008l.008-.017-.008-.008.008-.018h-.008l.008-.016c-1.481-1.312-2.831-1.054-4.4-.754a8.72,8.72,0,0,1-4.848-.113Zm-.058.137a8.712,8.712,0,0,0,4.857.1c1.572-.3,2.914-.555,4.4.753l.008-.025h-.008l.008-.017-.008-.007.008-.019h-.008l.008-.017c-1.482-1.31-2.832-1.052-4.4-.752a8.72,8.72,0,0,1-4.848-.113Zm-.057.12a8.738,8.738,0,0,0,4.856.1c1.573-.3,2.914-.558,4.4.754l.008-.019h-.008l.008-.017-.008-.007.008-.018h-.008l.008-.018c-1.482-1.309-2.823-1.051-4.4-.754a8.689,8.689,0,0,1-4.848-.11Zm-.058.129a8.741,8.741,0,0,0,4.857.1c1.572-.3,2.914-.558,4.395.752l.009-.016.008-.018-.008-.009.008-.017.008-.017c-1.482-1.309-2.832-1.052-4.4-.754a8.7,8.7,0,0,1-4.848-.111Zm10.289.12c.017.026,0,.042.009.076,1.457-1.266,2.782-1.027,4.329-.744a8.713,8.713,0,0,0,4.939-.129c-.008-.024,0-.043-.008-.077a8.614,8.614,0,0,1-4.931.12c-1.555-.273-2.88-.512-4.338.754m9.351-.634c-.008-.026,0-.043-.008-.078a8.761,8.761,0,0,1-4.865.113c-1.572-.3-2.913-.556-4.4.746l.009.015h-.009l.009.019-.009.008.009.016h-.009l.009.018c1.482-1.3,2.815-1.044,4.387-.744a8.808,8.808,0,0,0,4.873-.113m.058.128-.008-.077a8.786,8.786,0,0,1-4.849.111c-1.572-.3-2.922-.555-4.4.754l.008.018h-.008l.008.017-.008.008.008.017h-.008l.008.017c1.482-1.31,2.823-1.052,4.4-.752a8.752,8.752,0,0,0,4.857-.113m.066.137c-.017-.043,0-.033-.008-.076a8.8,8.8,0,0,1-4.849.111c-1.572-.3-2.922-.557-4.4.753l.008.019.008.015-.008.009.008.019.008.024c1.482-1.311,2.824-1.054,4.4-.754a8.831,8.831,0,0,0,4.84-.12m.049.12c-.008-.024,0-.051-.008-.077a8.8,8.8,0,0,1-4.857.111c-1.572-.3-2.913-.555-4.4.754l.008.018h-.008l.008.016-.008.009.008.019h-.008l.008.015c1.482-1.309,2.823-1.052,4.4-.754a8.759,8.759,0,0,0,4.865-.111m.058.129c-.008-.025,0-.043-.008-.076a8.794,8.794,0,0,1-4.849.11c-1.572-.3-2.922-.555-4.4.754l.008.018.008.016-.008.008.008.019.008.015c1.482-1.308,2.824-1.051,4.4-.753a8.671,8.671,0,0,0,4.84-.111" transform="translate(16322 14135)"/>
    <path id="Path_145511" data-name="Path 145511" d="M372.082,169.089a33.169,33.169,0,0,0,5.614,0,3.744,3.744,0,0,0,2.494.162l4.486,7.732a8.766,8.766,0,0,1-5.03.148,5.669,5.669,0,0,0-4.757.683,5.721,5.721,0,0,0-4.758-.683,8.686,8.686,0,0,1-5.029-.148l4.486-7.732a3.744,3.744,0,0,0,2.494-.162m2.881.214-.025,2.4.058,5.91a5.408,5.408,0,0,1,4.667-.6,7.947,7.947,0,0,0,4.824-.1l-4.363-7.529a3.577,3.577,0,0,1-2.478-.189,2.875,2.875,0,0,0-2.683.1m-.14,2.4-.025-2.4a2.875,2.875,0,0,0-2.683-.1,3.531,3.531,0,0,1-2.478.189l-4.371,7.529a7.947,7.947,0,0,0,4.824.1,5.381,5.381,0,0,1,4.667.6Z" transform="translate(16322 14135)"/>
  </g>
</svg>
