<svg xmlns="http://www.w3.org/2000/svg" width="63.574" height="45.819" viewBox="0 0 63.574 45.819">
  <g id="Client_70" transform="translate(-16776.469 -14701.827)">
    <path id="Path_143722" data-name="Path 143722" d="M485.973,574.982c0,2.409.058,4.82-.013,7.229a9.315,9.315,0,0,1-7.027,8.767,10.1,10.1,0,0,1-8.747-1.577,9.324,9.324,0,0,1-3.763-7.336c-.034-.687.006-1.378-.015-2.064-.014-.445.185-.485.5-.334a1.385,1.385,0,0,1,.8,1.42,9.661,9.661,0,0,0,1.036,4.92,8.507,8.507,0,0,0,7.163,4.857c2.968.189,5.313-1.329,7.084-3.759a9.037,9.037,0,0,0,1.7-5.446q0-6.593,0-13.185a1.522,1.522,0,0,1,.74-1.526c.439-.234.546-.139.547.38q0,3.825,0,7.654h0" transform="translate(16322 14135)" fill="#717578"/>
    <path id="Path_143723" data-name="Path 143723" d="M485.7,595.961V589.4a9.479,9.479,0,0,1,9.343-9.84,9.555,9.555,0,0,1,10.256,9.932c0,.488-.01.973,0,1.459.009.337-.149.365-.4.288a1.38,1.38,0,0,1-.9-1.465,11.532,11.532,0,0,0-.517-3.706c-1.181-3.63-5.062-6.409-8.552-6.1a9.139,9.139,0,0,0-7.815,7.759,15.158,15.158,0,0,0-.123,2q0,6.38.005,12.759a1.425,1.425,0,0,1-.76,1.442c-.363.18-.548.145-.544-.365.02-2.533.009-5.064.009-7.6" transform="translate(16322 14135)" fill="#075983"/>
    <path id="Path_143724" data-name="Path 143724" d="M476.224,580.723a3.612,3.612,0,1,1-3.562,3.622,3.569,3.569,0,0,1,3.562-3.622" transform="translate(16322 14135)" fill="#075983"/>
    <path id="Path_143725" data-name="Path 143725" d="M495.237,569.371a3.6,3.6,0,1,1-3.555,3.57,3.542,3.542,0,0,1,3.555-3.57" transform="translate(16322 14135)" fill="#717578"/>
    <path id="Path_143726" data-name="Path 143726" d="M498.143,598.006q0-1.912,0-3.829c0-.132-.064-.315.1-.38s.294.053.408.165a1.086,1.086,0,0,1,.253.84q-.006,3.34,0,6.684c0,1.25.5,1.771,1.7,1.773,1.11,0,2.22.01,3.329,0a1.462,1.462,0,0,0,1.549-1.634c.007-1.4,0-2.8.008-4.192,0-.156-.126-.409.121-.463.2-.042.361.115.481.288a1.062,1.062,0,0,1,.111.646c0,1.2.005,2.389,0,3.585a1.53,1.53,0,0,0,.821,1.607,2.114,2.114,0,0,0,2.069-.114,1.451,1.451,0,0,0,.6-1.309q-.015-2.125,0-4.253c0-.154-.125-.409.137-.451a.5.5,0,0,1,.475.3,1.158,1.158,0,0,1,.112.646c0,1.2,0,2.391,0,3.585a1.526,1.526,0,0,0,.828,1.6,2.125,2.125,0,0,0,2.07-.127,1.4,1.4,0,0,0,.582-1.256q-.01-2.16,0-4.316c0-.145-.1-.363.1-.427s.366.089.49.251a1.065,1.065,0,0,1,.167.69c0,1.256.008,2.513,0,3.77a2.2,2.2,0,0,1-2.283,2.354,2.456,2.456,0,0,1-2.131-.746c-.184-.217-.294-.041-.426.073a2.732,2.732,0,0,1-3.721-.018c-.223-.213-.319-.176-.5.02a2.085,2.085,0,0,1-1.634.668c-1.187-.01-2.375,0-3.562-.005a2.175,2.175,0,0,1-2.248-2.319c-.011-1.234,0-2.472,0-3.707" transform="translate(16322 14135)" fill="#075983"/>
    <path id="Path_143727" data-name="Path 143727" d="M463.972,604.036c-.467,0-.934,0-1.4,0-.106,0-.247.052-.3-.1-.049-.127.028-.232.094-.332a.881.881,0,0,1,.822-.357c.661,0,1.323.009,1.985,0a1.184,1.184,0,1,0-.028-2.362c-.35,0-.7.01-1.05-.008a1.952,1.952,0,0,1-1.865-1.945,1.916,1.916,0,0,1,1.8-2c.932-.049,1.868-.014,2.8-.013.113,0,.255-.026.306.111a.4.4,0,0,1-.115.385.835.835,0,0,1-.725.313c-.7,0-1.4-.011-2.1,0a1.146,1.146,0,0,0-1.2,1.192,1.164,1.164,0,0,0,1.179,1.164,14.078,14.078,0,0,1,1.454.062,1.932,1.932,0,0,1,1.583,1.96,1.974,1.974,0,0,1-1.776,1.922c-.484.033-.973.006-1.459.006Z" transform="translate(16322 14135)" fill="#717578"/>
    <path id="Path_143728" data-name="Path 143728" d="M495.768,600.492c0,.445.006.893,0,1.338a2.15,2.15,0,0,1-2,2.193c-.875.04-1.752,0-2.629.016-.351.006-.352-.15-.214-.4a.758.758,0,0,1,.749-.374c.6,0,1.207,0,1.811,0a1.459,1.459,0,0,0,1.558-1.574c.022-.808.025-1.621,0-2.429a1.441,1.441,0,0,0-1.52-1.545c-.6-.015-1.208-.008-1.812,0a.818.818,0,0,1-.646-.214c-.125-.13-.271-.28-.2-.47s.274-.1.416-.1c.76-.009,1.519-.015,2.279,0a2.177,2.177,0,0,1,2.216,2.35c0,.405,0,.812,0,1.216" transform="translate(16322 14135)" fill="#075983"/>
    <path id="Path_143729" data-name="Path 143729" d="M517.024,598.575c0-1.437,0-2.875.006-4.312,0-.16-.115-.413.114-.466s.389.138.515.328a.9.9,0,0,1,.093.528q0,4.465,0,8.928c0,.141.094.361-.113.413-.177.045-.331-.09-.445-.233a1.132,1.132,0,0,1-.166-.752v-4.434" transform="translate(16322 14135)" fill="#075983"/>
    <path id="Path_143730" data-name="Path 143730" d="M516.885,605.956c-.208,0-.409-.011-.094-.477.232-.341.121-.76.659-.7.106.013.258-.054.3.088.051.165-.085.24-.208.315s-.282-.02-.264.228c.013.182.123.164.242.215s.284.155.24.3Z" transform="translate(16322 14135)" fill="#075983"/>
    <path id="Path_143731" data-name="Path 143731" d="M481.851,598.924c0-1.538,0-3.077-.006-4.615,0-.178.128-.467-.133-.519s-.437.171-.525.405a1.792,1.792,0,0,0-.1.592c-.012.544-.02,1.092,0,1.638.015.362-.1.513-.461.493-.5-.026-1.011-.012-1.517,0a2.2,2.2,0,0,0-2.23,2.292c-.02.85-.02,1.7,0,2.55a2.118,2.118,0,0,0,1.383,2.118,2.961,2.961,0,0,0,2.492-.132c.166-.091.311-.266.457.042a.4.4,0,0,0,.5.226c.249-.092.134-.348.135-.531.01-1.519.005-3.036.005-4.555m-.762,2.386c0,.146,0,.293-.006.44a1.381,1.381,0,0,1-1.426,1.491,2.241,2.241,0,0,1-1.258-.154,1.376,1.376,0,0,1-.747-1.216c-.014-.933-.022-1.866,0-2.795a1.34,1.34,0,0,1,1.256-1.349c.6-.037,1.207,0,1.81-.021.285-.007.389.122.364.4,0,.02,0,.04,0,.06v1.825c0,.439.005.881,0,1.321" transform="translate(16322 14135)" fill="#717578"/>
    <path id="Path_143732" data-name="Path 143732" d="M456.018,600.881c.468,0,.935,0,1.4,0v-.005c.507,0,1.014.022,1.519-.006a.912.912,0,0,0,.922-.965c.011-.2,0-.406,0-.609a2.219,2.219,0,0,0-2.321-2.383c-1.661-.014-2.631.837-2.658,2.352-.015.831-.012,1.662,0,2.492a2.178,2.178,0,0,0,2.174,2.277q1.138.02,2.278,0c.168,0,.44.139.488-.154.038-.236-.16-.4-.35-.515a1.129,1.129,0,0,0-.624-.116c-.545,0-1.091-.006-1.636,0-1.363.024-1.667-1.019-1.544-2.152.027-.24.2-.213.348-.214m2.279-3.038a1.809,1.809,0,0,1,.8,2.034c-.076.233-.243.234-.417.236-.447,0-.894,0-1.341,0-.389,0-.78-.027-1.165.007-.426.038-.514-.149-.514-.555a1.748,1.748,0,0,1,2.642-1.723" transform="translate(16322 14135)" fill="#717578"/>
    <path id="Path_143733" data-name="Path 143733" d="M474.5,603.55c.011-1.029.005-2.061.005-3.093s-.01-2.06.007-3.092c.005-.335-.086-.467-.425-.459-.8.02-1.593-.013-2.389.011a2.153,2.153,0,0,0-2.117,2.257c-.011.91-.012,1.819,0,2.731a2,2,0,0,0,1.269,1.929,3.016,3.016,0,0,0,2.492-.049c.243-.111.419-.266.6.079a.356.356,0,0,0,.414.154c.238-.077.138-.306.139-.468m-.712-3.54c0,.547.008,1.094,0,1.641a1.447,1.447,0,0,1-1.523,1.594c-1.488.034-1.962-.447-1.962-1.989,0-.668-.008-1.335,0-2a1.446,1.446,0,0,1,1.459-1.539c.543-.016,1.088.01,1.633-.01.31-.01.4.115.4.424,0,.157-.007.316-.008.471,0,.472,0,.94,0,1.411" transform="translate(16322 14135)" fill="#717578"/>
    <path id="Path_143734" data-name="Path 143734" d="M491.556,611.275a.243.243,0,0,1,.145.031.127.127,0,0,1,.034.1.257.257,0,0,1-.062.167.26.26,0,0,1-.218.077,1.108,1.108,0,0,1-.473-.086.522.522,0,0,1-.266-.3,1.412,1.412,0,0,1-.345.043,1.149,1.149,0,0,1-.408-.065.628.628,0,0,1-.269-.188.442.442,0,0,1-.094-.282.693.693,0,0,1,.124-.375,1.312,1.312,0,0,1,.363-.362,2.049,2.049,0,0,1,.569-.276v-.234l.326-.152.032.008v1.482a.5.5,0,0,0,.055.267.277.277,0,0,0,.168.117,1.506,1.506,0,0,0,.319.027m-1.382-2.208-.372-.271.225-.365.372.268Zm.22,1.873a1.317,1.317,0,0,0,.262-.027v-.766a1.872,1.872,0,0,0-.517.251.577.577,0,0,0-.245.3.3.3,0,0,0,.188.182.8.8,0,0,0,.312.061m.418-1.873-.372-.271.235-.365.372.268Zm2.287,2.208a.239.239,0,0,1,.145.033.122.122,0,0,1,.038.1.264.264,0,0,1-.059.167.251.251,0,0,1-.215.077,1.11,1.11,0,0,1-.754-.228.641.641,0,0,1-.266.172,1.111,1.111,0,0,1-.372.056h-.156l.092-.373h.137a.857.857,0,0,0,.2-.023.419.419,0,0,0,.147-.068,1.19,1.19,0,0,0,.1-.249c.036-.114.077-.272.123-.476l.354-.091.046.028c-.034.162-.069.3-.1.42a2.691,2.691,0,0,1-.112.312.839.839,0,0,0,.252.106,1.619,1.619,0,0,0,.4.041m-1.1,1.371-.372-.271.225-.36.372.263Zm.657,0-.372-.271.234-.36.372.263Zm.441-1.371a1.61,1.61,0,0,0,.25-.017.4.4,0,0,0,.181-.074,1.811,1.811,0,0,0,.032-.378v-2.332l.322-.086.037.015v2.36a1.093,1.093,0,0,1-.108.533.6.6,0,0,1-.306.273,1.327,1.327,0,0,1-.5.079Zm2.218.373a.9.9,0,0,1-.588-.177.761.761,0,0,1-.211-.612v-2.385l.33-.086.028.015v2.413a.607.607,0,0,0,.053.284.272.272,0,0,0,.165.137,1.035,1.035,0,0,0,.315.038.253.253,0,0,1,.147.033.121.121,0,0,1,.041.1.242.242,0,0,1-.28.244m2.53-.373a.288.288,0,0,1,.148.031.112.112,0,0,1,.046.1.226.226,0,0,1-.079.178.3.3,0,0,1-.206.066.794.794,0,0,1-.26-.039.542.542,0,0,1-.2-.119.357.357,0,0,1-.138.163.431.431,0,0,1-.22.053,1.239,1.239,0,0,1-.446-.1,1.853,1.853,0,0,1-.468-.266.984.984,0,0,1-.184.2.53.53,0,0,1-.2.088,1.72,1.72,0,0,1-.31.023l.1-.373a.467.467,0,0,0,.158-.023.288.288,0,0,0,.115-.086,1.78,1.78,0,0,0,.131-.187,1.28,1.28,0,0,0,.1-.178c.077-.141.145-.258.2-.349a.948.948,0,0,1,.221-.239.457.457,0,0,1,.3-.1.41.41,0,0,1,.28.1.815.815,0,0,1,.19.233c.051.091.119.228.205.408a1.66,1.66,0,0,0,.154.277.36.36,0,0,0,.149.119.725.725,0,0,0,.229.03m-1,.062a.314.314,0,0,0,.147-.029.205.205,0,0,0,.1-.091l-.036-.086a3.274,3.274,0,0,0-.239-.5c-.065-.1-.127-.147-.189-.147a.283.283,0,0,0-.215.15,3.051,3.051,0,0,0-.235.423,1.95,1.95,0,0,0,.365.2.82.82,0,0,0,.306.079m3.523-.062a.249.249,0,0,1,.149.033.129.129,0,0,1,.039.1.254.254,0,0,1-.062.164.273.273,0,0,1-.219.074,2.043,2.043,0,0,1-.638-.1,1.791,1.791,0,0,1-.537-.274,2.4,2.4,0,0,1-.6.272,2.537,2.537,0,0,1-.745.1l.087-.373a2.042,2.042,0,0,0,1.006-.249,2.349,2.349,0,0,0-.292-.311,1.651,1.651,0,0,0-.347-.228l-.013-.039.165-.4a1.483,1.483,0,0,1,.386-.131,2.044,2.044,0,0,1,.445-.047,1.833,1.833,0,0,1,.471.06,1.194,1.194,0,0,1,.4.184l.014.043-.1.353c-.07.055-.177.15-.321.289-.1.1-.193.191-.276.261a1.651,1.651,0,0,0,.453.162,2.442,2.442,0,0,0,.526.058m-1.81-.932a1.068,1.068,0,0,1,.225.165c.074.07.187.182.34.341a4.243,4.243,0,0,0,.551-.519,1.566,1.566,0,0,0-.528-.092,1.738,1.738,0,0,0-.588.105m1.814.932a1.6,1.6,0,0,0,.25-.017.4.4,0,0,0,.182-.074,1.882,1.882,0,0,0,.032-.378v-2.332l.322-.086.036.015v2.36a1.093,1.093,0,0,1-.108.533.6.6,0,0,1-.3.273,1.336,1.336,0,0,1-.5.079Zm1.447.4-.028-.014v-3.183l.336-.091.023.02-.005,3.2Zm5.121-1.628a3.441,3.441,0,0,1,.156.462,1.551,1.551,0,0,1,.054.37.879.879,0,0,1-.068.354.525.525,0,0,1-.216.251,2.451,2.451,0,0,1-1.244.221h-.313a3.58,3.58,0,0,1-.858-.087,1.029,1.029,0,0,1-.517-.278.732.732,0,0,1-.177-.515,2.075,2.075,0,0,1,.021-.294,1.3,1.3,0,0,1,.053-.24l.271-.107.036.021a2.351,2.351,0,0,0-.046.433.585.585,0,0,0,.147.428.8.8,0,0,0,.43.208,3.835,3.835,0,0,0,.737.059h.321a5.039,5.039,0,0,0,.646-.041,1.587,1.587,0,0,0,.438-.109,1.062,1.062,0,0,0,.009-.109,1.041,1.041,0,0,0-.052-.314q-.053-.165-.186-.469l.317-.244Zm-1.672-.205-.372-.274.225-.362.372.266Zm.639,0-.372-.274.234-.362.372.266Zm2.617,1.81a.9.9,0,0,1-.588-.177.764.764,0,0,1-.211-.612v-2.385l.331-.086.027.015v2.413a.607.607,0,0,0,.053.284.274.274,0,0,0,.166.137,1.032,1.032,0,0,0,.314.038.248.248,0,0,1,.147.033.119.119,0,0,1,.042.1.242.242,0,0,1-.281.244m1.323-1.539a.581.581,0,0,1,.384.153,1.07,1.07,0,0,1,.28.4,1.364,1.364,0,0,1,.1.527.553.553,0,0,1-.119.375.436.436,0,0,1-.349.137,1.28,1.28,0,0,1-.434-.094,1.947,1.947,0,0,1-.489-.271.673.673,0,0,1-.285.239,1.071,1.071,0,0,1-.409.068l.087-.373a.459.459,0,0,0,.175-.03.378.378,0,0,0,.124-.1.942.942,0,0,0,.115-.179l.068-.129c.077-.143.146-.263.207-.363a1.032,1.032,0,0,1,.232-.258.484.484,0,0,1,.31-.11m.409,1.166a.286.286,0,0,0,.005-.062.983.983,0,0,0-.06-.306,1.013,1.013,0,0,0-.159-.3.27.27,0,0,0-.2-.124.212.212,0,0,0-.149.064.663.663,0,0,0-.12.159q-.053.091-.186.345a1.875,1.875,0,0,0,.377.208.863.863,0,0,0,.3.076.3.3,0,0,0,.2-.059m2.824,0a.264.264,0,0,1,.15.033.117.117,0,0,1,.043.1.254.254,0,0,1-.064.167.267.267,0,0,1-.22.077.636.636,0,0,1-.283-.056.516.516,0,0,1-.2-.2,1.248,1.248,0,0,1-.942.277,2.539,2.539,0,0,1-.255-.014,1.8,1.8,0,0,1-.278-.043l.051-.349.023-.017a2.048,2.048,0,0,0,.253.034c.1.009.183.013.248.013a2.13,2.13,0,0,0,.431-.045.9.9,0,0,0,.322-.127l-.014-.025c-.067-.139-.165-.338-.294-.593s-.233-.454-.312-.6l.271-.3h.037q.128.3.282.647c.1.236.184.42.246.557a1.853,1.853,0,0,0,.16.292.389.389,0,0,0,.148.131.482.482,0,0,0,.2.036m2.8,0a.228.228,0,0,1,.142.033.129.129,0,0,1,.037.1.285.285,0,0,1-.055.167.242.242,0,0,1-.212.077,2.222,2.222,0,0,1-.51-.051.856.856,0,0,1-.333-.15.81.81,0,0,1-.208-.253c-.157.049-.331.106-.524.178a7.177,7.177,0,0,1-.7.215,2.146,2.146,0,0,1-.514.061l.087-.373a2.265,2.265,0,0,0,.448-.046,5.572,5.572,0,0,0,.586-.164,5.291,5.291,0,0,1,.725-.206c-.089-.041-.194-.1-.317-.167a3.225,3.225,0,0,0-.443-.22.927.927,0,0,0-.319-.061,1.267,1.267,0,0,0-.459.094l-.014-.018.138-.35a.951.951,0,0,1,.192-.069.886.886,0,0,1,.212-.025.853.853,0,0,1,.319.071c.118.049.281.127.489.239a4.843,4.843,0,0,0,.533.263,1.228,1.228,0,0,0,.363.087l-.083.343c-.144.019-.259.038-.345.052a.535.535,0,0,0,.278.139,2.477,2.477,0,0,0,.49.038m-1.98-1.776-.377-.274.235-.363.376.267Zm3.311,1.776a.251.251,0,0,1,.15.033.123.123,0,0,1,.039.1.265.265,0,0,1-.06.167.254.254,0,0,1-.216.077.914.914,0,0,1-.333-.061.491.491,0,0,1-.25-.221.613.613,0,0,1-.3.219,1.429,1.429,0,0,1-.462.063l.092-.373a1.61,1.61,0,0,0,.25-.017.4.4,0,0,0,.182-.074,1.882,1.882,0,0,0,.032-.378v-2.332l.321-.086.037.015v2.348a.738.738,0,0,0,.062.344.294.294,0,0,0,.168.148,1.023,1.023,0,0,0,.284.032m.005,0a1.61,1.61,0,0,0,.25-.017.4.4,0,0,0,.182-.074,1.882,1.882,0,0,0,.032-.378v-2.332l.321-.086.037.015v2.36a1.093,1.093,0,0,1-.108.533.6.6,0,0,1-.3.273,1.336,1.336,0,0,1-.5.079Z" transform="translate(16322 14135)" fill="#005682"/>
    <text id="Manpower_Services" data-name="Manpower Services" transform="translate(16776.469 14746.485)" fill="#6d7174" font-size="3.028" font-family="SegoeUI, Segoe UI"><tspan x="0" y="0" letter-spacing="0.004em">M</tspan><tspan y="0">an</tspan><tspan y="0" letter-spacing="0.003em">p</tspan><tspan y="0" letter-spacing="-0.011em">o</tspan><tspan y="0" letter-spacing="-0.008em">w</tspan><tspan y="0">er </tspan><tspan y="0" letter-spacing="0.009em">S</tspan><tspan y="0">e</tspan><tspan y="0" letter-spacing="0.033em">r</tspan><tspan y="0" letter-spacing="0.008em">v</tspan><tspan y="0">i</tspan><tspan y="0" letter-spacing="-0.007em">c</tspan><tspan y="0" letter-spacing="0.006em">e</tspan><tspan y="0">s</tspan></text>
  </g>
</svg>
