<svg xmlns="http://www.w3.org/2000/svg" width="67.516" height="40.698" viewBox="0 0 67.516 40.698">
  <g id="Client_48" transform="translate(-16831.299 -14494.986)">
    <path id="Path_146043" data-name="Path 146043" d="M540.169,366.664a1.554,1.554,0,0,0,.9-.235.139.139,0,0,0,.035-.185.126.126,0,0,0-.162-.047.714.714,0,0,1-.321.079c-.48,0-.634-.347-.634-1.776v-.118c0-1.129.163-1.645.634-1.645s.634.516.634,1.645v.527c0,1.585.427,1.755,1.062,1.755a1.434,1.434,0,0,0,.75-.18.161.161,0,0,0,.075-.166.154.154,0,0,0-.146-.13c-.287-.009-.308-.073-.308-.516v-1.29c0-1.369-.393-2.226-2.067-2.226s-2.066.906-2.066,2.226v.118c0,.924.306,2.164,1.615,2.164m3.029-4.242c.151.065.479.3.479,1.146v2.588c0,1.591-.774,1.5-1.044,1.373a.135.135,0,0,0-.16.041.145.145,0,0,0,.01.183,1.512,1.512,0,0,0,1.043.5c1.058,0,1.583-.707,1.583-2.329v-2.482c0-1.036-.6-1.286-1.5-1.286a3.332,3.332,0,0,0-.377.023.128.128,0,0,0-.034.243m-9.785-2.17c.151.065.479.3.479,1.148v3.04c0,1.37.392,2.224,2.066,2.224s2.067-.9,2.067-2.224v-.148c0-1.49-.6-2.1-1.5-2.1a3.452,3.452,0,0,0-.376.02.128.128,0,0,0-.109.126.123.123,0,0,0,.075.117c.151.068.479.289.479,1.822v.165c0,1.128-.164,1.643-.635,1.643s-.634-.515-.634-1.643v-2.758a1.507,1.507,0,0,0-1.5-1.7,3.111,3.111,0,0,0-.376.022.124.124,0,0,0-.109.125.127.127,0,0,0,.074.119m10.853,1.3c.568,0,.843-.326.843-.729s-.275-.727-.843-.727-.842.326-.842.727.275.729.842.729m3.1,5.112a1.547,1.547,0,0,0,.9-.235.137.137,0,0,0,.036-.185.126.126,0,0,0-.162-.047.718.718,0,0,1-.321.079c-.48,0-.634-.347-.634-1.776v-.118c0-1.129.164-1.645.634-1.645s.635.516.635,1.645v.527c0,1.585.426,1.755,1.061,1.755a1.434,1.434,0,0,0,.75-.18.162.162,0,0,0,.075-.166.154.154,0,0,0-.146-.13c-.286-.009-.308-.073-.308-.516v-1.29c0-1.369-.392-2.226-2.067-2.226s-2.066.906-2.066,2.226v.118c0,.924.306,2.164,1.615,2.164M523.5,368.253c2.186,0,3.249-1.254,3.249-2.8s-1.063-2.8-3.249-2.8-3.249,1.253-3.249,2.8,1.062,2.8,3.249,2.8m43.176,26.822c-2.187,0-3.249,1.255-3.249,2.8s1.062,2.807,3.249,2.807,3.249-1.255,3.249-2.807-1.062-2.8-3.249-2.8m2.754-24.252a16.657,16.657,0,0,0-1.851.1.633.633,0,0,0-.168,1.2c.743.32,2.353,1.419,2.353,8.952v.818c0,5.553-.8,8.089-3.119,8.089s-3.121-2.536-3.121-8.089V368.322c0-5.093-2.941-8.336-7.38-8.336a16.65,16.65,0,0,0-1.852.105.618.618,0,0,0-.536.623.626.626,0,0,0,.368.578c.743.319,2.354,1.489,2.354,5.642V381.9c0,6.735,1.928,10.948,10.167,10.948s10.166-4.448,10.166-10.948v-.726c0-7.339-2.941-10.349-7.381-10.349m-26.178,24.252c-2.187,0-3.25,1.255-3.25,2.8s1.063,2.807,3.25,2.807,3.249-1.255,3.249-2.807-1.063-2.8-3.249-2.8m.1-24.61c-6.272,0-9.863,3.014-10.593,7.071a8.652,8.652,0,0,0-.1,2.239.719.719,0,0,0,.561.652l.026.005a.693.693,0,0,0,.7-.291,4.128,4.128,0,0,1,1.3-1.209c.926-.532,2.967-1.336,8.1-1.336,5.339,0,7.583,1.237,7.583,3.98s-2.244,4.156-7.583,4.156H532.29c-2.608,0-2.659-1.086-2.659-3.54v-.58c0-6.734-1.929-10.946-10.167-10.946S509.3,375.112,509.3,381.612v.58c0,4.552,1.505,10.654,7.946,10.654a7.547,7.547,0,0,0,4.42-1.169.67.67,0,0,0,.174-.9.61.61,0,0,0-.795-.233,3.467,3.467,0,0,1-1.579.4c-2.364,0-3.12-1.718-3.12-8.745v-.58c0-5.552.8-8.087,3.12-8.087s3.12,2.535,3.12,8.087v.588c0,7.019,1.589,10.448,9.365,10.448l10.851.015h.556c6.474,0,10.522-1.947,10.522-11.087,0-8.9-4.274-11.111-10.522-11.111m-27.907-2.212c2.187,0,3.249-1.254,3.249-2.8s-1.062-2.8-3.249-2.8-3.25,1.253-3.25,2.8,1.063,2.8,3.25,2.8" transform="translate(16322 14135)" fill="#23376e"/>
  </g>
</svg>
