<svg xmlns="http://www.w3.org/2000/svg" width="59.191" height="56.574" viewBox="0 0 59.191 56.574">
  <g id="Client_26" transform="translate(-17498.982 -14382.937)">
    <path id="Path_140899" data-name="Path 140899" d="M1197.4,253.869s-.011,0-.012.006a.017.017,0,0,1-.015.005l-.1.007c.031-.027.06-.053.095-.079a.216.216,0,0,0,.037.061m-4.893,7.865a6.244,6.244,0,0,1,.178-.766c.033-.13.042-.1.172-.136s1.119-.3,1.2-.352c.187-.1.133-.33-.051-.331-.082,0-.79.251-.953.3-.086.024-.16.058-.247.078a2.21,2.21,0,0,0,.073-.221l.25-.689c.041-.064.127-.054.223-.067.078-.009.179-.024.271-.035.173-.019.375-.05.541-.072s.387-.009.453-.145a.15.15,0,0,0-.072-.206,10.569,10.569,0,0,0-1.281.206l.1-.234c.079-.208.242-.526.339-.717.15,0,.218.023.362.022s.627-.01.752.012c.365.058.376-.31.126-.31-.061,0-.084.019-.172.019-.319,0-.654.041-.953.041l.457-.832,1.014.114c.234.031.333-.266.034-.275-.115,0-.16-.019-.286-.018h-.63c.073-.143.35-.518.438-.655h.706c.106,0,.237.007.341,0,.277-.02.281-.3,0-.263-.255.036-.721.075-.928.126l.385-.512c.119-.129.072-.151.171-.148l.854.046c.228.01.509.119.438-.2a1.184,1.184,0,0,0-.306-.019c-.086,0-.081.012-.153.018-.055.005-.114,0-.17,0-.194.017-.433.041-.628.06l.642-.7c.345-.362.111-.287,1.012-.212.191.014.493.106.555-.043a.089.089,0,0,0,0-.08c-.019-.047-.006-.049-.085-.07a10.939,10.939,0,0,0-1.117.051.761.761,0,0,1,.166-.164l.431-.386c.089-.075.133-.018.244-.007.263.03.871.024,1.141.024.032-.052.069-.055.053-.135-.035-.171-.333-.081-.473-.063l-.724.079v-.1l.645-.479c.08-.061.075-.064.182-.025a7.393,7.393,0,0,0,1.032.36c.1-.024.218-.194-.094-.264a6.921,6.921,0,0,0-.907-.205,2.613,2.613,0,0,1,.558-.37c.119-.072.143-.023.166-.107a.346.346,0,0,1,.152.039c.24.105.5.179.743.28.492.205.429-.12.3-.171a7.865,7.865,0,0,1-.965-.285,1.07,1.07,0,0,0,.242-.125c.088-.047.153-.08.241-.125a9.115,9.115,0,0,1,1.005-.461,2.269,2.269,0,0,0,.46-.236c.034-.021.013-.006.034-.025a.692.692,0,0,0-.537.058,10.3,10.3,0,0,0-1.463.617,6.37,6.37,0,0,1,.165-.781c.034-.155.042-.136-.031-.25-.247,0-.216.18-.247.477-.022.2-.078.451-.078.651a6.833,6.833,0,0,1-.648.337l.172-.852c.028-.139.021-.168-.076-.238-.209.051-.154.277-.185.521l-.044.669a1.816,1.816,0,0,0-.38.22c-.117.073-.242.171-.362.236.03-.131.052-.334.07-.462s.078-.389-.09-.389-.114.245-.114.414v.537l-.724.535c-.048.039-.052.06-.114.079,0-.152.052-.4.071-.541.013-.107.017-.161.03-.27s.013-.133-.082-.2c-.206.019-.151.264-.151.495s.018.408.018.635c-.206.145-.627.562-.7.614a3.69,3.69,0,0,1,.025-.371,3,3,0,0,0,.015-.382c-.065-.044-.1-.112-.19-.017-.059.059-.043.157-.041.275s.021.163.02.3c0,.388.117.266-.194.552-.1.094-.3.347-.376.4a3.583,3.583,0,0,1-.04-.5.7.7,0,0,0-.094-.455h-.115c-.115.18-.058.241-.01.487.036.186.067.349.1.536.026.165-.076.192-.157.292a2.728,2.728,0,0,1-.367.428,4.178,4.178,0,0,0-.078-.57c-.014-.083-.025-.181-.044-.274-.024-.117-.053-.146-.183-.146-.122.189-.063.211.013.482.048.175.089.346.137.511.069.235-.006.222-.147.416l-.225.32a.57.57,0,0,1-.045.054,3.713,3.713,0,0,0-.14-.566c-.027-.1-.047-.183-.072-.281-.079-.3-.326-.183-.274.026l.336.94c.032.1-.017.145-.063.214a3.071,3.071,0,0,0-.244.4,5.107,5.107,0,0,1-.315-.782c-.056-.122-.052-.15-.218-.15-.129.2-.088.191.046.469l.321.691c.015.074-.18.356-.214.425a.809.809,0,0,1-.133.218,1.12,1.12,0,0,0-.134-.278,5.507,5.507,0,0,0-.283-.577c-.067-.1-.224-.122-.263.011-.051.176.156.448.238.59a5.766,5.766,0,0,1,.308.551.409.409,0,0,1-.04.1,5.529,5.529,0,0,0-.321.737h-.039a8.467,8.467,0,0,0-.381-.833c-.052-.111-.116-.344-.3-.291-.078.022-.116.1-.1.208a.883.883,0,0,0,.095.221l.417.814c.187.393.16.167,0,.655-.029.086-.037.17-.1.216a7.6,7.6,0,0,0-.557-.967.141.141,0,0,0-.209.011c-.143.181.169.535.322.8l.3.488c.034.052.043.048.038.092-.016.173-.178.512-.2.743-.16-.113-.535-.748-.725-.853-.14-.077-.486-.011-.1.421l.437.518c.067.082.27.276.272.369l-.152.833-.459-.513a2.278,2.278,0,0,0-.3-.338.178.178,0,0,0-.232.011.261.261,0,0,0-.034.267c.042.1.155.174.224.261.033.039.033.048.068.088l.477.517c.191.2.2.109.167.441-.016.217-.04.4-.04.632-.081-.058-.091-.1-.156-.174s-.1-.1-.164-.184c-.093-.121-.235-.247-.329-.371-.051-.067-.084-.128-.177-.155-.247-.068-.291.22-.2.369s.432.491.558.649l.246.277c.211.216.187.21.187.522a3.728,3.728,0,0,0,.019.692,1.2,1.2,0,0,1-.186-.184l-.533-.592c-.294-.353-.669-.072-.458.2.141.177.312.322.458.494.038.045.042.063.085.109.062.068.124.121.181.189l.353.406c.073.078.142.109.156.234.021.2.074.523.078.693a.326.326,0,0,1-.121-.074l-.336-.244c-.15-.11-.3-.206-.453-.323-.369-.291-.608.109-.324.377a4.186,4.186,0,0,0,.453.342c.122.091.83.592.889.659a4.3,4.3,0,0,1,.159.629,2.931,2.931,0,0,1,.075.336c-.307-.168-.717-.442-1.006-.638a.428.428,0,0,0-.288-.116.21.21,0,0,0-.193.239c.006.216.265.337.406.432l1.237.814a.452.452,0,0,1,.156.274l.165.463c.017.05.044.1.057.157a3.289,3.289,0,0,1-.558-.191l-.545-.206c-.16-.062-.441-.157-.491.108a.287.287,0,0,0,.1.257,4.092,4.092,0,0,0,.8.339l.806.31c.141.053.157.017.225.162.083.181.166.359.253.53-.344,0-.719-.03-1.067-.059a3.836,3.836,0,0,0-.54-.01c-.285.085-.18.4.047.484a1.95,1.95,0,0,0,.253.036c.192.025.348,0,.537.032l1.076.071a5.514,5.514,0,0,0,.4.7c-.471,0-.945.04-1.428.039-.2,0-.495,0-.434.293a.281.281,0,0,0,.178.19,13.866,13.866,0,0,0,1.8.013c.348,0,.23-.008.618.506a1.491,1.491,0,0,1,.163.225c-.381,0-.773.061-1.142.062l-.4.018a.639.639,0,0,0-.355.047.269.269,0,0,0,.1.477,4.881,4.881,0,0,0,.771.011c.155,0,.239-.021.38-.021l.991-.02c.1,0,.118-.014.176.036a2.681,2.681,0,0,1,.2.209,4.684,4.684,0,0,1,.405.43c-.109,0-.271.033-.381.038l-1.179.122c-.246.026-.58,0-.555.316.032.41.664.254.973.237.137-.007.277-.006.413-.024a3.259,3.259,0,0,1,.386-.034c.26,0,.541-.044.8-.061.087-.006.106-.037.174,0s.382.33.484.409a.414.414,0,0,1,.122.112c-.133,0-.279.03-.418.04-.423.028-.856.108-1.276.137-.2.015-.612-.005-.676.27a.307.307,0,0,0,.142.307.485.485,0,0,0,.382.058c.426-.037.87-.05,1.3-.1l1.312-.1c.147,0,.392.19.532.279l.077.061c-.114,0-1.862.362-2.1.409-.431.086-.409.418-.193.549a.526.526,0,0,0,.416.041l1.74-.289c.278-.04.575-.1.867-.148.265-.047.264-.025.565.13a.671.671,0,0,0,.189.079c-.052.074-.28.134-.37.17l-1.6.615c-.153.055-.275.081-.356.206-.2.3.154.544.495.434l.818-.277c.268-.094.555-.184.827-.289a12.328,12.328,0,0,1,1.228-.417c.107.008.291.123.423.133a1.888,1.888,0,0,1-.349.211c-.052.03-.076.04-.124.071s-.076.041-.124.068l-.475.277c-.052.032-.065.042-.122.074a6.312,6.312,0,0,0-.95.576c-.236.32.15.587.488.428.548-.257,1.457-.78,2.005-1.065.179-.093.323-.177.5-.269.214-.113.23-.057.6.02a13.942,13.942,0,0,0,5.8-.061c.261-.065.313.047.54.167l1.26.669c.328.186.663.345,1,.526a.455.455,0,0,0,.3.064.3.3,0,0,0,.222-.454,1.214,1.214,0,0,0-.449-.3l-.248-.14c-.167-.1-.322-.193-.489-.283-.048-.028-.068-.044-.121-.075l-.806-.467-.011-.008c-.037-.027-.011-.006-.032-.026.132-.01.281-.11.407-.13.089-.017,1.822.617,2.041.692l.819.277c.405.145.675-.156.527-.409-.1-.176-.543-.284-.737-.361-.26-.106-1.471-.594-1.592-.6v-.04a2.55,2.55,0,0,0,.347-.155c.2-.084.131-.1.391-.058l2.61.438a.553.553,0,0,0,.405-.026c.292-.172.18-.484-.135-.553l-2.131-.417.133-.1c.122-.075.316-.238.457-.24l2.155.179c.156.016.295.011.454.021s.22.042.375-.046a.288.288,0,0,0-.094-.544l-.433-.044c-.413-.027-.846-.094-1.259-.136a4.307,4.307,0,0,0-.437-.041l.118-.1.116-.1.355-.3c.061-.045.086-.037.159-.026l.794.067a3.3,3.3,0,0,1,.411.028c.262.041.567.029.814.064.305.043.565-.011.6-.256.058-.382-.582-.322-.916-.367-.243-.032-.995-.124-1.195-.124a4.465,4.465,0,0,1,.491-.519c.2-.215.038-.155.48-.155.273,0,.495.021.782.02.147,0,.224.02.38.02a5.311,5.311,0,0,0,.772-.008.3.3,0,0,0,.212-.2.218.218,0,0,0-.088-.267.591.591,0,0,0-.364-.06l-.38-.019c-.385,0-.782-.061-1.181-.061.035-.052.094-.12.137-.176a3.449,3.449,0,0,0,.4-.555l1.714.018c.226,0,.364.011.471-.124a.219.219,0,0,0-.1-.364,1.749,1.749,0,0,0-.566-.025c-.122,0-.156-.021-.266-.023l-.877-.017c.022-.084.346-.586.4-.7.158,0,.36-.036.513-.041l1.083-.06c.191-.023.327-.017.426-.153a.222.222,0,0,0-.1-.359,5.175,5.175,0,0,0-1.066.038l-.552.021c.036-.142.177-.354.237-.507s.071-.121.2-.169l.819-.319c.181-.067.358-.13.545-.207s.392-.124.372-.382c-.021-.286-.329-.18-.48-.122l-.813.3a1.548,1.548,0,0,1-.288.1c.008-.107.211-.591.263-.756.044-.138.1-.138.217-.211l1.13-.745c.146-.1.4-.211.409-.429a.218.218,0,0,0-.174-.236.411.411,0,0,0-.308.112c-.124.078-.911.611-1.023.64a3.513,3.513,0,0,0,.16-.626c.071-.322.027-.3.29-.49.309-.225.6-.445.9-.666.04-.029.072-.052.111-.082.109-.084.242-.164.253-.335a.22.22,0,0,0-.151-.241.319.319,0,0,0-.286.087c-.23.164-.681.519-.917.651a2.6,2.6,0,0,1,.037-.339c.071-.518-.05-.356.359-.776l.7-.792c.083-.1.336-.26.239-.477a.223.223,0,0,0-.244-.106c-.171.037-.437.388-.594.551a3.137,3.137,0,0,1-.367.392c0-.139.018-.2.02-.315a5.478,5.478,0,0,1,0-.691,2.954,2.954,0,0,1,.315-.365l.493-.56c.082-.111.271-.238.209-.459s-.314-.1-.415.031a1.7,1.7,0,0,1-.154.174l-.323.377a1.4,1.4,0,0,1-.166.183c0-.3-.056-.6-.077-.87.084-.061.4-.432.519-.551.094-.1.161-.186.257-.288.073-.074.209-.2.214-.332a.181.181,0,0,0-.286-.178,4.039,4.039,0,0,0-.386.43l-.395.423a4.514,4.514,0,0,0-.152-.871c.07-.048.411-.469.471-.541a1.253,1.253,0,0,1,.116-.139c.051-.054.063-.085.114-.139.079-.087.2-.2.2-.332-.01-.167-.181-.185-.3-.107a9.563,9.563,0,0,0-.7.841l-.194-.71c-.014-.056-.014-.053.017-.108.167-.3.354-.562.528-.859.052-.09.224-.282.116-.434a.144.144,0,0,0-.206-.036c-.074.051-.087.109-.129.185a8.3,8.3,0,0,0-.437.793h-.038a3.467,3.467,0,0,0-.152-.455c-.072-.186-.037-.2.091-.42.154-.263.267-.554.419-.814.067-.113.172-.327.007-.417s-.265.172-.314.277c-.068.14-.37.756-.394.857l-.026-.051c-.013-.029-.021-.046-.031-.066l-.307-.676c-.033-.091.044-.182.092-.264.142-.245.292-.481.413-.738.076-.161.018-.187-.045-.285-.16,0-.171.021-.229.139a4.847,4.847,0,0,0-.38.793h-.039a2,2,0,0,0-.24-.464,1.535,1.535,0,0,0-.084-.152c.024-.1.338-.738.407-.882a.241.241,0,0,0-.026-.3c-.235,0-.23.173-.318.4-.034.091-.067.174-.1.256a2.013,2.013,0,0,0-.1.276l-.331-.493c-.058-.1.051-.259.086-.359a7.477,7.477,0,0,0,.255-.739c.009-.15-.191-.324-.285.036l-.136.531a1.357,1.357,0,0,0-.066.289,3.1,3.1,0,0,1-.263-.358c-.255-.356-.243-.145-.03-.916.054-.2.138-.335.026-.509h-.114a1.08,1.08,0,0,0-.125.465c-.029.178-.047.364-.084.525l-.291-.35c-.059-.065-.082-.109-.142-.169-.091-.091-.1-.061-.077-.206.031-.175.065-.359.1-.553s.145-.458-.1-.465c-.071.051-.087.065-.094.179-.017.239-.057.524-.057.771a3.91,3.91,0,0,1-.589-.635c-.026-.145.054-.65.036-.79-.015-.105-.135-.213-.218-.087a2.928,2.928,0,0,0,.027.76c-.059-.042-.095-.092-.163-.146l-.518-.451c-.127-.181.133-1.142-.138-1.147-.185,0-.086.368-.073.475.018.177.059.378.073.555l-.411-.324c-.15-.106-.279-.207-.427-.308V252.8c0-.165.038-.409-.115-.416a.131.131,0,0,0-.125.125,1.686,1.686,0,0,0,.028.236,3.252,3.252,0,0,1,.06.471c-.161-.043-.542-.384-.723-.435l-.053-.658c-.03-.241.032-.481-.176-.532-.173.025-.051.414-.027.525a3.645,3.645,0,0,0,.122.565,3.1,3.1,0,0,1-.419-.216c-.265-.138-.213-.047-.26-.382a3.637,3.637,0,0,0-.142-.825.132.132,0,0,0-.1-.05c-.158-.007-.1.218-.078.309s.029.156.05.245c.042.165.072.327.107.485l-.461-.213c-.323-.144-.651-.283-.988-.4a.717.717,0,0,0-.551-.062.182.182,0,0,0,.045.033,6.562,6.562,0,0,0,.946.444c.167.078.328.159.495.238a4.188,4.188,0,0,0,.5.257c-.046.063-.2.076-.271.093-.1.032-.186.046-.289.079s-.185.05-.287.078c-.127.032-.191.037-.221.166.052.1.094.149.232.1l.281-.1a5.518,5.518,0,0,1,.758-.269,3.787,3.787,0,0,1,.749.469,8.247,8.247,0,0,0-.926.205c-.28.071-.206.241-.077.265a8.268,8.268,0,0,0,1.062-.37c.106-.037.245.1.354.182a4.626,4.626,0,0,1,.407.312c.051.049.036.009.036.12l.024-.036c.024-.026-.009-.006.033-.025l.062.076a9.221,9.221,0,0,1-1.078-.128c-.147-.023-.24,0-.24.171l.062.055a6.623,6.623,0,0,0,1.248-.042c.108-.02.267.151.379.251a2.393,2.393,0,0,1,.348.33c-.313,0-.636-.058-.97-.058-.171,0-.187-.021-.249.1.031.137.111.158.281.135l.767-.074c.207-.009.2-.073.347.054a9.455,9.455,0,0,1,.834.9c-.083,0-.068-.017-.152-.021-.285-.013-.577-.059-.857-.059-.184,0-.22-.03-.286.1.031.138.088.141.248.14l1.124-.08c.149.233.361.438.513.675l-.6-.086c-.11-.016-.522-.125-.538.064.016.215.333.159.552.159h.7l.222.326c.074.117.144.216.216.329h-.609c-.124,0-.189.013-.287.018-.3.014-.2.2-.163.233.1.091.345.018.485,0a5.615,5.615,0,0,1,.688-.076c.084.128.158.262.24.4s.161.278.236.428l-1.173-.053c-.064.012-.079.043-.121.071v.141c.229.159.261.079.647.079.128,0,.254,0,.381,0,.149,0,.224-.022.382-.022.154.3.282.647.438.951a3.321,3.321,0,0,1-.342-.061,8.056,8.056,0,0,0-.9-.154c-.079.008-.081.04-.135.078,0,.148.034.205.149.241.152.05.87.114,1.049.137.078.009.258,0,.305.08a5.99,5.99,0,0,1,.307.908c-.177-.088-.857-.281-1.088-.354-.123-.04-.313-.01-.259.187.047.169.483.237.687.3.135.039.254.066.375.1a2.5,2.5,0,0,0,.4.1c.017.222.188.6.209.871-.123-.011-.766-.294-.906-.345a.4.4,0,0,0-.251-.049.152.152,0,0,0-.115.191.231.231,0,0,0,.138.175,2.354,2.354,0,0,0,.237.09c.151.052.294.111.451.165.084.028.148.045.228.08.4.162.3.008.392.583.014.087.025.176.039.275a2.609,2.609,0,0,1,.034.3.9.9,0,0,1-.184-.086c-.248-.124-.488-.264-.744-.375-.121-.055-.289-.187-.417-.088a.219.219,0,0,0-.053.219c.046.134.2.2.315.248.257.107.5.244.753.365l.387.191c0,.2.016.442.035.619s0,.475,0,.669c-.062-.015-.066-.039-.114-.079l-.776-.62c-.1-.091-.353-.342-.5-.128a.25.25,0,0,0,.022.286,2.341,2.341,0,0,0,.43.364l.776.62a.668.668,0,0,1,.107.087c.047.055.033.068.033.164,0,.264-.078.731-.078.951a.734.734,0,0,1-.168-.182l-.811-.959a.218.218,0,0,0-.37.2c.028.173.388.538.524.706l.487.584c.036.042.038.054.076.1a1.645,1.645,0,0,1,.167.2l-.113.6a1.849,1.849,0,0,0-.039.2c-.115-.079-.849-.986-.959-1.082-.279-.244-.51.131-.31.4l.627.735a6.935,6.935,0,0,0,.49.561c-.051.11-.167.585-.227.754a1.116,1.116,0,0,0-.078.255c-.064-.016-.073-.061-.111-.123l-.849-1.3c-.188-.265-.549-.07-.409.268.066.161.446.724.554.891.064.1.532.789.554.869.015.05-.022.1-.046.162a5.055,5.055,0,0,1-.4.835,2.836,2.836,0,0,0-.142-.328l-.221-.485a6.112,6.112,0,0,0-.376-.817.218.218,0,0,0-.32-.008.4.4,0,0,0-.04.383c.047.117.1.223.148.341.176.448.39.88.575,1.325.112.27.078.174-.182.634a4.575,4.575,0,0,1-.375.581,2.244,2.244,0,0,0-.093-.38c-.037-.125-.064-.245-.1-.371-.055-.192-.226-.974-.3-1.113a.217.217,0,0,0-.3-.111c-.243.143-.1.491-.046.726s.127.507.191.753l.241.96c.021.088.018.091-.029.151l-.418.52a1.2,1.2,0,0,1-.1.126l-.055.063c-.033.042-.013.045-.074.062,0-.289-.1-1.07-.138-1.363-.013-.1-.024-.219-.036-.339-.01-.091-.019-.239-.04-.335a.233.233,0,0,0-.422-.112c-.136.176-.068.386-.051.624l.192,2.1a.476.476,0,0,0-.09.085.94.94,0,0,1-.094.079l-.354.345c-.041.041-.053.041-.094.081a.819.819,0,0,1-.092.084c0-.133-.018-.208-.018-.358,0-.126,0-.251,0-.377,0-.149-.019-.223-.019-.354a5.443,5.443,0,0,0-.009-.746c-.027-.189.055-.5-.148-.6a.254.254,0,0,0-.286.049c-.151.141-.129.337-.129.62v2.277l-.971.7a2.7,2.7,0,0,1,.011-.385l.047-1.181c0-.155.018-.241.018-.376,0-.23.077-.515-.147-.622s-.382.109-.423.306c-.062.295-.061.818-.094,1.132l-.1,1.542-.85.443a1.73,1.73,0,0,1-.311.132c.012-.163.468-1.982.534-2.24a.622.622,0,0,0,.016-.472c-.159-.266-.515-.1-.608.255-.037.143-.079.273-.121.426s-.083.3-.124.448l-.479,1.759c-.063.229-.077.177-.287.256-.272.1-.56.178-.844.252-.156.041-.28.076-.443.114a11.122,11.122,0,0,1-1.891.292,4.56,4.56,0,0,1-.754.031,1.785,1.785,0,0,0-.275-.012l-.491-.044a12.431,12.431,0,0,1-2.291-.45l-.615-.191a.669.669,0,0,0-.22-.069,2.672,2.672,0,0,0-.1-.392l-.652-2.372c-.176-.646-.733-.492-.661-.048.04.25.137.567.2.823.132.553.271,1.089.392,1.634a1.542,1.542,0,0,1-.3-.126l-.864-.449a1.5,1.5,0,0,0-.017-.179l-.086-1.339c-.036-.246-.026-.506-.052-.759s-.012-.5-.163-.641a.262.262,0,0,0-.454.15l.043,1.147c.019.134-.006.275.009.41l.036.795c-.247-.171-.494-.325-.73-.509-.086-.069-.156-.124-.242-.186V273.8c0-.266.014-.513-.13-.636-.182-.159-.377-.061-.428.157a5.648,5.648,0,0,0-.014.737c0,.488-.038,1-.038,1.488-.088-.063-.151-.14-.234-.212a1.151,1.151,0,0,1-.122-.112,1.278,1.278,0,0,0-.117-.116,1.488,1.488,0,0,1-.227-.221c-.046-.07-.01-.094,0-.193.03-.491.224-2.046.188-2.376-.029-.264-.357-.37-.474-.119a1.656,1.656,0,0,0-.058.413l-.138,1.265c-.014.117-.026.3-.052.422a.385.385,0,0,1-.111-.123l-.318-.38c-.257-.338-.292-.239-.187-.615.072-.254.126-.492.191-.754s.135-.52.194-.767.186-.568-.035-.71c-.288-.189-.357.249-.412.444-.043.165-.385,1.379-.387,1.519a4.164,4.164,0,0,1-.374-.565c-.346-.591-.3-.379-.052-.967.186-.449.4-.877.572-1.329a.363.363,0,0,0-.01-.375.2.2,0,0,0-.313-.04.873.873,0,0,0-.172.316l-.37.825c-.029.063-.039.1-.068.165s-.051.1-.077.159a1.239,1.239,0,0,0-.069.185,1.082,1.082,0,0,1-.166-.3,4.232,4.232,0,0,1-.286-.67c0-.07.656-1.051.74-1.181a6.242,6.242,0,0,0,.365-.592c.136-.322-.172-.553-.392-.289-.188.221-.828,1.344-.967,1.451a3.767,3.767,0,0,0-.2-.648,1.73,1.73,0,0,1-.1-.336c-.008-.068-.013-.016.012-.063a4.874,4.874,0,0,1,.343-.4l.3-.344a.972.972,0,0,1,.095-.117.986.986,0,0,0,.1-.119c.034-.045.065-.068.1-.111.128-.148.31-.338.2-.555a.212.212,0,0,0-.293-.078c-.1.058-.135.14-.212.217l-.4.456c-.09.093-.33.4-.4.45-.051-.224-.092-.449-.14-.687-.03-.151.036-.179.115-.268l.381-.457a7.166,7.166,0,0,0,.726-.929.221.221,0,0,0-.375-.23l-.656.783c-.045.049-.051.072-.1.119a1.28,1.28,0,0,1-.2.223c0-.159-.049-.376-.056-.534-.009-.182-.026-.385-.038-.556.179-.1.88-.7,1.083-.853.065-.052.115-.093.182-.149.283-.225.113-.6-.172-.417-.182.118-.548.434-.723.575a2.722,2.722,0,0,1-.37.289c0-.216,0-.436,0-.654s.039-.413.039-.634c.362-.2.755-.366,1.124-.553.148-.076.475-.223.293-.444a.208.208,0,0,0-.228-.045l-.934.475a.962.962,0,0,1-.2.093,6.03,6.03,0,0,1,.153-1.051c.119-.028.23-.083.354-.126l.706-.259c.157-.052.4-.176.274-.369-.037-.057-.091-.069-.189-.058a.878.878,0,0,0-.172.061l-.524.207a2.276,2.276,0,0,1-.353.128" transform="translate(16322 14135)" fill="#0ba354" fill-rule="evenodd"/>
    <path id="Path_140900" data-name="Path 140900" d="M1188.719,266.153a17.754,17.754,0,0,1,1.153-6.35l.643-1.49.557-1.045c.257-.448.535-.878.83-1.3.077-.109.136-.2.22-.307l.829-1.039c.286-.335.591-.652.895-.971a15.36,15.36,0,0,1,1.394-1.245c.1-.083.192-.152.294-.228a15.551,15.551,0,0,1,2.25-1.444c.232-.122.465-.251.707-.354l.724-.316c.126-.053.238-.1.371-.151a16.4,16.4,0,0,1,5.758-1.06,15.713,15.713,0,0,1,7.491,1.854l.673.37c.437.242.854.544,1.263.825.3.209.6.451.884.685a12.673,12.673,0,0,1,1.1.994l.327.334.029.029c.136.148.3.294.423.454l.24.285a14.653,14.653,0,0,1,1.142,1.485c.3.41.551.866.805,1.305l.452.856c.033.071.054.114.088.186a14.681,14.681,0,0,1,.763,1.9c.089.278.172.522.251.81s.15.552.218.842a18.624,18.624,0,0,1,.457,4.321c0,.36-.03.669-.038,1.011a8.744,8.744,0,0,1-.1.968,18.15,18.15,0,0,1-.319,1.809c-.1.419-.2.828-.334,1.236-.024.072-.04.119-.061.2a15.665,15.665,0,0,1-.986,2.441l-.556,1.025c-.194.336-.388.655-.61.971l-.764,1.048a19.426,19.426,0,0,1-1.353,1.524l-.536.513c-.287.239-.555.491-.849.723l-1.835,1.279c-.11.07-.221.122-.331.19a15.077,15.077,0,0,1-2.662,1.213c-.075.025-.125.04-.2.069a14.532,14.532,0,0,1-2.922.683,16.541,16.541,0,0,1-2.874.12c-.081-.005-.168.005-.248,0l-.476-.04a16.316,16.316,0,0,1-3.836-.823l-2.281-1-.086-.049c-.059-.034-.1-.055-.164-.087s-.1-.06-.172-.1a10.951,10.951,0,0,1-.968-.6l-.614-.431a14.68,14.68,0,0,1-1.435-1.181l-.266-.258c-.275-.251-.53-.533-.79-.8l-.363-.416c-.274-.339-.56-.673-.819-1.029-.078-.109-.144-.2-.22-.307-.225-.309-.415-.633-.624-.956a15.658,15.658,0,0,1-.915-1.723l-.17-.378c-.053-.133-.1-.24-.155-.374a18.135,18.135,0,0,1-.881-2.846c-.067-.281-.125-.6-.172-.893a18.448,18.448,0,0,1-.247-2.971m16.549,18.188.649-.019c.082-.005.181,0,.266,0,.3,0,.956-.081,1.26-.116.337-.039.635-.088.948-.141a14.2,14.2,0,0,0,1.764-.423c.149-.047.266-.079.414-.124a19.826,19.826,0,0,0,1.985-.788c.071-.033.118-.063.182-.089a1.892,1.892,0,0,0,.181-.089c.48-.25.951-.508,1.41-.792l.341-.22c.117-.082.22-.145.335-.225l.794-.581a15.5,15.5,0,0,0,1.34-1.163l.829-.841c.045-.047.091-.089.132-.141.283-.352.587-.674.884-1.06.324-.422.631-.853.919-1.3.079-.122.14-.231.218-.35a11.77,11.77,0,0,0,.695-1.236c.037-.074.06-.125.1-.2a18.78,18.78,0,0,0,1.648-5.1,19.2,19.2,0,0,0-.662-9.074,16.329,16.329,0,0,0-.834-2.106c-.05-.1-.093-.192-.14-.291-.088-.184-.194-.37-.285-.553l-.3-.538c-.1-.182-.2-.35-.315-.525l-1.212-1.712-.575-.688a11.442,11.442,0,0,0-.913-.952,1.361,1.361,0,0,1-.106-.109l-.321-.3c-.049-.04-.064-.065-.109-.1s-.066-.054-.113-.1a14.258,14.258,0,0,0-1.511-1.2l-2.338-1.391-.856-.4c-.491-.2-1-.391-1.5-.558-.422-.138-.868-.248-1.3-.351a17.631,17.631,0,0,0-2.123-.348c-.1-.01-.274-.035-.383-.036-.336,0-1.27-.1-1.576-.054s-.669.007-.963.048c-.068.01-.13,0-.2.012-.111.016-.255.022-.383.037a17.283,17.283,0,0,0-5.748,1.689c-.177.085-.377.184-.545.284-.09.052-.176.094-.26.145a19.332,19.332,0,0,0-2.237,1.518c-.083.065-.146.111-.227.18l-1.1.992a1.4,1.4,0,0,1-.114.1l-.315.329a18.215,18.215,0,0,0-2.841,3.86c-.05.091-.088.173-.142.266a19.031,19.031,0,0,0-1.7,4.629,18.816,18.816,0,0,0,.6,10.347,14.4,14.4,0,0,0,.6,1.5c.131.276.264.6.416.857l.295.543c.145.272.313.519.464.787a11.64,11.64,0,0,0,.676,1c.248.342.5.63.731.941l.194.234a14.607,14.607,0,0,0,1,1.08c.046.045.068.052.115.1a13.01,13.01,0,0,0,1.2,1.084c.495.388.932.695,1.444,1.055.09.061.174.106.259.166l.518.312c.254.16.8.45,1.08.581.087.04.18.082.275.129a15.618,15.618,0,0,0,3.391,1.168c.462.107.92.183,1.393.255.245.037.5.078.733.09l.571.04c.1,0,.1.017.19.019.279.017.534.02.819.02" transform="translate(16322 14135)" fill="#0ba354" fill-rule="evenodd"/>
    <path id="Path_140901" data-name="Path 140901" d="M1205.973,274.019c-.093,0-.114-.091-.21-.119a.361.361,0,0,1,.172-.238,2.48,2.48,0,0,1,.228.18c-.026.041-.135.177-.19.177m-1.634-.373a1.978,1.978,0,0,0,.187.135l.13-.123c.076.045.123.1.193.144-.019.075-.094.136-.133.2-.085-.047-.151-.106-.228-.158l-.11.123a1.2,1.2,0,0,1-.2-.145Zm-.956-.8c0,.148.028.141.247.178a7.043,7.043,0,0,0,1.01.119.612.612,0,0,1,.209-.474,2.331,2.331,0,0,0-.037.434.188.188,0,0,0,.133.061h.742c.174,0,.268-.021.438-.021a1.736,1.736,0,0,0-.072-.181.388.388,0,0,0-.118-.156,3.15,3.15,0,0,0,.095-.317.9.9,0,0,1,.248.535l-.019.416-.359.024c-.234.026-.755.016-1.012.016a.208.208,0,0,1-.229-.218.477.477,0,0,0-.114.2c-.346-.032-.862-.1-1.206-.173-.179-.038-.146-.147-.146-.344-.14.038-.112.247-.291.166a1.9,1.9,0,0,0-.357-.166.852.852,0,0,1,.685-.555.449.449,0,0,1,.191-.337c0,.288-.038.5-.038.793m-.571-1.009a.325.325,0,0,0,.133.176.294.294,0,0,1,.152-.079.3.3,0,0,0,.133.158c.066-.043.077-.1.153-.118-.01-.128-.084-.081-.114-.2a1.023,1.023,0,0,1-.172.1.486.486,0,0,1-.1-.16c-.084.024-.106.1-.19.121m-.838,1.068a4.5,4.5,0,0,1,.28-.956c.047-.055.153-.176.215-.192a5.209,5.209,0,0,1-.174.65.815.815,0,0,1-.321.5m6.97-1.645c0,.147.019.239.019.359.106.024.113.041.169.12.044.063.078.1.125.167a1.444,1.444,0,0,1,.22.347l-.244.1a5.718,5.718,0,0,1-.708.276c0-.155.023-.236-.062-.314a.368.368,0,0,0-.243-.1c-.362,0-.294.341-.324.474a.23.23,0,0,1,.324.061l-.814.2c-.372.078-.355.082-.533-.129-.028-.031-.1-.115-.119-.134-.021.092-.056.187-.077.279.1.15.309.2.111.452-.252.312-.352.4-.682.22.023.089.126.125.237.17.335.139.522.169.651-.315.053-.2-.025-.18.14-.172a1.221,1.221,0,0,0,.275-.051,5.313,5.313,0,0,0,.562-.129c.388-.116.384-.059.4-.275.2.058-.107.239.758-.121.1-.041.189-.083.3-.127a2.383,2.383,0,0,1,.278-.129,1.044,1.044,0,0,0-.206-.519c-.231-.35-.137-.133-.137-.549a1.506,1.506,0,0,1-.245-.043c-.122-.036-.088-.057-.174-.118m.571-.137.394.48a1.039,1.039,0,0,1,.273.628,1.389,1.389,0,0,1-.2-.227c-.284-.376-.468-.439-.468-.881m.724-.318h-.19v.16a2.268,2.268,0,0,1-.229-.021v-.218c.047.025.229.059.229-.04v-.1h.247c0,.156.02.217-.057.217m-10.112.455c-.169.015-.325.178-.362.179a4.413,4.413,0,0,1-.652-.471c-.075-.063-.17-.121-.186-.182a.266.266,0,0,0,.218-.445c-.223-.243-.421-.064-.561-.05.041.063.1.085.112.164.026.133-.007.155-.078.082l-.758-.821a.817.817,0,0,0,.268-.3c.165-.361-.664-.124-.729-.065-.131.122.046.32.061.381a.747.747,0,0,1-.591-.315c-.018-.038-.026-.065-.046-.111-.03-.063.017-.047-.067-.069a.671.671,0,0,0,.178.567.888.888,0,0,0,.64.047,7.236,7.236,0,0,0,.482.55c.506.527.331.367.585.361-.023.051-.034.109-.057.159l.473.4c.114.094.4.334.536.334.033.071.013.071.079.116.277.193.216.152.34.143,0,.084.009.077.064.111.311.2.2.117.336.1-.021.094-.016.084.069.126.055.029.092.047.141.074l.72.34a.336.336,0,0,0,.175.036,2.544,2.544,0,0,1,.149-.222c.207-.326.012-.4.46-.649a1.129,1.129,0,0,0-.1-.193c-.058-.118-.034-.081-.031-.205-.082.024-.192.166-.267.218.01.12.038.076-.006.212l-.184.542a7.6,7.6,0,0,1-.9-.416c0-.152.018-.178.134-.358-.135.034-.272.089-.305.239-.108-.01-.107-.057-.19-.079.009-.113.1-.125.228-.319a.712.712,0,0,0-.362.219c-.118-.028-.167-.131-.285-.158.022-.084.067-.087.128-.145a.708.708,0,0,0,.139-.134m-3.428-2.673c.087-.044.2-.058.286-.1.077.152.188.282.266.437a.459.459,0,0,0,.171-.416c.107-.009.223-.051.324-.061a.685.685,0,0,1-.5.646c-.245.1-.224.022-.327-.138a2.044,2.044,0,0,1-.217-.368m-.667-.5a.4.4,0,0,0,.19.08c0,.116-.019.137-.019.236-.345-.008-.231-.142-.228-.3a.427.427,0,0,0-.172-.06c0-.263.025-.279.267-.158a1.536,1.536,0,0,0-.038.2m17.273-1.545a.735.735,0,0,0,.187.164c.09.062.074-.027.231-.029.108,0,.173.025.306.024a2.594,2.594,0,0,1,.3.018,4.379,4.379,0,0,1-.286.734c-.021.044-.036.083-.054.123-.049.112-.237.146-.362.133s-.183-.063-.194.1c-.028.375.147.31.191.478a1.175,1.175,0,0,1-.125.225,3.4,3.4,0,0,1-.409.607l-.507-.226a2.979,2.979,0,0,0-.5-.211,1.8,1.8,0,0,0,.141.249,4.838,4.838,0,0,0,.773.345.958.958,0,0,1-.118.175l-.391.484c-.163.194-.142.124-.443.133l-.552.02c.01-.129.218-.341.247-.475a.466.466,0,0,0-.209-.218.865.865,0,0,1-.094.181c-.215.369-.252.359-.138.516.184.253.147.238.307.236.19,0,.332.018.5.018l-.4.4c-.145.12-.275.236-.422.352-.094.075-.134.136-.253.047-.078-.058-.135-.113-.212-.177s-.131-.114-.209-.177l-.106-.088c-.047-.039-.055-.064-.115-.079.064.285.037.272.153.337-.061.267-.233.356.019.85l.457-.2c0-.118-.036-.151-.038-.259.092.022.114.074.2.112.1.045.139.013.211-.044.286-.226.547-.471.815-.716a1.346,1.346,0,0,1,.148-.145c-.157-.308-.022-.236.228-.236a1.415,1.415,0,0,1,.243-.3l.31-.391c.016-.021.022-.032.041-.055a.352.352,0,0,1,.035-.043.9.9,0,0,1-.115-.2.419.419,0,0,0,.21.079l.442-.709c.2-.325.13-.232.034-.381a3.224,3.224,0,0,1,.533-.358c-.032-.063-.045-.07-.114-.119.059-.114.1-.227.159-.348l.29-.729c.033-.092.036-.253.237-.268v-.041c-.074-.021-.056-.047-.15-.084-.256-.093-.229.131-.411.175a2.643,2.643,0,0,1-.391-.032c-.1-.03-.118-.121-.229-.2-.187.131-.225.218-.4.218m-17.539-.516c.049.107.011.3.047.426.042.148.218.059.3.169-.083.019-.247.072-.247.177a11.191,11.191,0,0,0,.685,1.546,2.257,2.257,0,0,0,.488-.127.919.919,0,0,0,.312-.308,1.053,1.053,0,0,1-.2-.016c-.1-.015-.109-.013-.162.038-.067.066-.117.168-.212.2a7.838,7.838,0,0,1-.572-1.309c0-.061.327-.157.4-.181.132-.042.292-.1.421-.134l-.039-.02-.044-.015c-.391-.11-.231,0-.34-.042-.128-.046-.275-.4-.833-.4m1.219.14c.072.016.079.041.151.058a.632.632,0,0,1-.057.2.577.577,0,0,1-.228-.1.691.691,0,0,0,.057-.2c-.189-.105-.138-.069-.095-.258a.681.681,0,0,1,.229.1c-.022.1-.055.08-.057.2m16.662-.22c.1,0,.1-.02.21-.02.272,0,.869-.04,1.009.179h-.342a2.2,2.2,0,0,1-.66-.007Zm-8.626,8.62a10.384,10.384,0,0,0,2.108-.164,9.743,9.743,0,0,0,1.25-.3c.084-.024.151-.045.234-.074a10.575,10.575,0,0,0,1.734-.752c.145-.075.255-.144.393-.225a10.526,10.526,0,0,0,1.46-1.037,12.574,12.574,0,0,0,1.412-1.4c.048-.061.094-.127.146-.186l.407-.528c.046-.063.081-.12.127-.182a11.991,11.991,0,0,0,1.311-2.482l.509-1.688a1.459,1.459,0,0,0,.05-.287h-2.971a7.885,7.885,0,0,1-.455,1.332,8.588,8.588,0,0,1-2.307,3.067,8.347,8.347,0,0,1-1.029.732,8.109,8.109,0,0,1-2.931,1.052,8.063,8.063,0,0,1-6.4-1.789c-.079-.066-.156-.126-.228-.2-.047-.048-.069-.056-.115-.1l-.229-.218c-.042-.043-.071-.074-.113-.119a8.667,8.667,0,0,1-1.32-1.816l-.3-.6a7.088,7.088,0,0,1-.463-1.34H1194.3a11.971,11.971,0,0,0,.558,1.976,11.6,11.6,0,0,0,2.418,3.864l.542.545c.042.042.053.044.094.08.115.1.215.2.33.291l.7.539c.128.089.245.178.379.26a10.663,10.663,0,0,0,3.487,1.486,10.038,10.038,0,0,0,2.213.272" transform="translate(16322 14135)" fill="#0ba354" fill-rule="evenodd"/>
    <path id="Path_140902" data-name="Path 140902" d="M1207.515,268.926c-.3,0-.118-.647-.114-.852.371.089.59.02.59.476,0,.173-.286.376-.476.376m-1.143-.555c0-.15.039-.223.039-.356a.158.158,0,0,1,.031.047c.118.21.532.972.311,1.141-.035-.16-.381-.747-.381-.832m-.209.616c0,.419.045.329-.335.383a2.715,2.715,0,0,1-.427.033.592.592,0,0,1-.057-.16c-.162.045.028.16-.286.16a3.3,3.3,0,0,1-.59-.04.863.863,0,0,1,.069-.287.4.4,0,0,1,.141-.229,2.017,2.017,0,0,0-.02.237.9.9,0,0,0,.134.022h.495c0-.178-.095-.337-.095-.5a.663.663,0,0,1,.062-.154c.012-.028.015-.044.027-.071a.2.2,0,0,1,.044-.072,2.534,2.534,0,0,0,.267.793c.467-.115.472.146.259-.529-.046-.144-.027-.161-.145-.224.056-.122.068-.288.133-.338.013.154.215.226.343.259-.257.506-.019.383-.019.713m-2.171.315c.047-.211.084-.46.12-.688,0-.037.018-.133.027-.168a1.218,1.218,0,0,1,.272-.332c-.084.374-.056.99-.419,1.188m-.819-1.466a.922.922,0,0,1,.266-.079c.008.085.037.126.039.219-.25.125-.281.054-.305-.14m3.923.179c.065,0,.071-.073.076-.139h.286v-.2c-.317-.076-.263.041-.286.14a.76.76,0,0,1-.247-.04c0,.091-.032.131-.038.216a1.887,1.887,0,0,0,.209.021m1.01-.258a1.33,1.33,0,0,1,.54.132.588.588,0,0,1,.195.811.434.434,0,0,1-.2.124,1.891,1.891,0,0,1-.569.1v-.04a.618.618,0,0,0,.533-.416c.215-.5-.047-.411-.276-.444-.182-.028-.1-.037-.218-.269m-7.58-.119c.091.022.195.037.286.06.032.4.16.186.286.3a.975.975,0,0,1,.075.241h-.285a1.13,1.13,0,0,1-.059-.178c-.029-.11.009-.106-.106-.127-.081-.016-.119.012-.152-.079a1.448,1.448,0,0,1-.045-.212m8.646.238-.818-.457a.88.88,0,0,1-.154-.3,4.052,4.052,0,0,1,.56.29c.154.087.407.241.412.463m-.152-.89c.276-.026.606-.131.871.141.3.316.237.525-.129.731a1.121,1.121,0,0,1-.438.176v-.04a.555.555,0,0,0,.408-.74c-.064-.214-.208-.115-.474-.078-.12.018-.2-.1-.238-.19m-.553-.218a1.451,1.451,0,0,0,.286-.04.65.65,0,0,1,.019.2,1.857,1.857,0,0,1-.266.039c-.007-.076-.029-.118-.039-.2m1.638.652a1.728,1.728,0,0,1,.142-.249c.215-.367.089-.8-.161-.82.029.11.174.062.071.27-.121.246-.431.171-.649-.126-.045-.06-.05-.062-.05-.165.459-.32,1.316.023,1.189.464a1.7,1.7,0,0,1-.542.626m-9.845-1.108c.058.114.107.272.159.407s.139.166.373.166c-.029.114-.171.118-.171.219,0,.085.174.284.233.351a3.264,3.264,0,0,1,.281.3.916.916,0,0,1,.248-.018c-.091.139-.087.19.095.335.257.207.113.178.438.1-.082.128-.174.123,0,.238.035.025.063.043.1.073.694.485.745.226,1.094.367.278.109.382.214.506.125a1.3,1.3,0,0,0,.2-.149c-.129-.01-.371-.243-.441-.334-.091-.118-.252-.36-.417-.36a.98.98,0,0,0-.419.141.5.5,0,0,1,.439.336.888.888,0,0,1-.432-.165,1.31,1.31,0,0,1-.349-.233,1.624,1.624,0,0,1,.167-.2l.5-.608a1.558,1.558,0,0,0-.3.08c-.09.03-.108.065-.2.187a3.683,3.683,0,0,0-.335.425c-.08-.007-.11-.057-.212-.136-.372-.288.069-.265.193-.459-.1.026-.231.005-.316.03s-.129.109-.236.109c0,0-.44-.395-.476-.555a7.207,7.207,0,0,1,.7-.474,1.087,1.087,0,0,1-.215-.016.3.3,0,0,0-.194.025c-.063.012-.236-.1-.3-.129a1.147,1.147,0,0,0-.723-.177m1.294-.021a.649.649,0,0,0,.191.06v.179a2.159,2.159,0,0,1-.267-.041v-.2a.822.822,0,0,0-.171-.058v-.18c.343.029.247.145.247.238m10.551-1.031h-3.085a4.271,4.271,0,0,1-.614.868l-.471.442a4.274,4.274,0,0,1-2.572.969,4.162,4.162,0,0,1-2.685-.872,4.673,4.673,0,0,1-1.219-1.407h-3.1l.2.568c.04.093.068.181.108.265l.247.516c.044.088.091.156.14.251a8.183,8.183,0,0,0,.693,1,7.637,7.637,0,0,0,1.708,1.511,7.057,7.057,0,0,0,3.064,1.074l.718.045.7-.042A7.129,7.129,0,0,0,1208,269.9a7.518,7.518,0,0,0,.981-.526,7.845,7.845,0,0,0,1.446-1.21l.672-.845a7.8,7.8,0,0,0,.911-1.768c.019-.056.028-.089.047-.149a1.27,1.27,0,0,0,.051-.146" transform="translate(16322 14135)" fill="#0ba354" fill-rule="evenodd"/>
    <path id="Path_140903" data-name="Path 140903" d="M1204.964,250.5a.3.3,0,0,0,.019.1c-.1,0-.066.014-.112-.042-.2-.25-.319-.495-.726-.495l.07.046c.048.031.039.017.079.057a.4.4,0,0,1,.087.167,2.025,2.025,0,0,1,.031.483c-.38-.189-.177-.249-.706-.255-.115,0-.416-.052-.494.057.175,0,.475-.14.609.456-.618,0-1.495-.1-1.619.455a3.666,3.666,0,0,1,.952-.057l.039.137a2.2,2.2,0,0,0-.778.3.544.544,0,0,0-.209.338.736.736,0,0,0-.023.473c.228-.056.039-.179.743-.179a1.061,1.061,0,0,1-.205.2,1.242,1.242,0,0,0-.366.867c0,.129.03.432.114.495.2-.053.146-.488.457-.513a2.9,2.9,0,0,0,.2,1.337c.05.106.111.129.194.194.05.04.011.033.082.054,0-.118-.011-.305,0-.414.015-.134.1-.2.112-.3h.115a1.249,1.249,0,0,0,.058.574,3.136,3.136,0,0,0,.167.361.212.212,0,0,0,.156.117,2.28,2.28,0,0,1,0-.275.407.407,0,0,1,.106-.186c.074-.1.164-.274.31-.274s.285.193.285.358a1.609,1.609,0,0,0,.04.632.361.361,0,0,1,.056.179c-.089.026-.057.079-.057.2s-.016.142-.02.258a1.328,1.328,0,0,0,0,.495c-.211.119-.019.362-.019.555,0,.108-.057.077-.057.317,0,.087.021.07.008.148a1.193,1.193,0,0,0-.028.169c-.017.211,0,.349,0,.575-.355,0-.381.066-.381.438,0,.293.057.537.057.831h1.847c0-.367.231-1.269-.152-1.269h-.171a4.357,4.357,0,0,0-.01-.7c-.022-.142.029-.12.029-.227a.58.58,0,0,1-.133-.316c0-.149.133-.141.133-.417,0-.079-.018-.1-.076-.118a7.2,7.2,0,0,0-.053-.857c-.018-.072.015-.052-.061-.075,0-.037.113-.419.141-.625s-.034-.544.258-.544c.141,0,.372.326.4.474a1,1,0,0,1,0,.261c.217-.02.24-.33.332-.489.131-.221.013-.335.049-.5.041-.194.2.048.229.24.043.313-.091.494.106.348s.168-.107.272-.43a2.967,2.967,0,0,0,.117-.851c0-.1-.019-.122-.019-.236.16.012.2.105.266.219.047.084.087.266.191.294.108-.082.114-.38.114-.535a1.489,1.489,0,0,0-.332-.842.9.9,0,0,1-.144-.267c.52,0,.513.244.667.259v-.24a1.094,1.094,0,0,0-.041-.235.534.534,0,0,0-.208-.338,2.457,2.457,0,0,0-.359-.18,1.49,1.49,0,0,0-.422-.118.7.7,0,0,1,.034-.1c.055-.1.231-.056.328-.056.23,0,.411.074.628.078-.045-.563-1.229-.455-1.6-.455,0-.15.163-.474.343-.474.108,0,.131.018.247.018-.085-.12-.537-.061-.667-.059-.233,0-.329.157-.513.257a2.4,2.4,0,0,1,.017-.475.357.357,0,0,1,.185-.244c.04-.026.017-.007.045-.034a.659.659,0,0,0-.479.2c-.181.15-.2.337-.34.34,0-.253-.093-.179-.142-.546-.025-.191-.005-.383-.125-.466-.121.086-.124.257-.133.455a1.761,1.761,0,0,1-.152.457" transform="translate(16322 14135)" fill="#0ba354" fill-rule="evenodd"/>
    <path id="Path_140904" data-name="Path 140904" d="M1199.021,259.495h.687a7.417,7.417,0,0,1,1.022.125,9.656,9.656,0,0,1,1.8.53c.107.044.224.088.324.139a12.806,12.806,0,0,1,1.225.647,6.638,6.638,0,0,0,.584.365,2,2,0,0,1-.359.3c-.176.146-.436.389-.612.511a.5.5,0,0,0-.149-.22.411.411,0,0,0-.572.576c.067.1.116.085.169.161-.1.025-.893.862-.991.93,0-.712-.763-.759-.9-.363a.841.841,0,0,0,.06.544.812.812,0,0,0,.8.571c.256,0,.446-.244.633-.372a2.786,2.786,0,0,0,.362-.316l.357-.341c.063-.051.106-.136.191-.159a.4.4,0,0,0,.781-.139.436.436,0,0,0-.229-.376.517.517,0,0,1,.112-.122l.916-.75a2.12,2.12,0,0,1,.267.2c.092.072.177.144.267.217l.386.33c.062.055.081.054.128.126a.42.42,0,0,0,.171.792.414.414,0,0,0,.381-.277,2.554,2.554,0,0,1,.358.322,3.605,3.605,0,0,0,.526.484c.358.244.6.549,1.065.292.313-.174.678-.911.345-1.165-.368-.282-.771.013-.808.483a3.927,3.927,0,0,1-.357-.342l-.372-.346a1.844,1.844,0,0,1-.242-.243.424.424,0,0,0-.128-.8.4.4,0,0,0-.425.3c-.177-.123-.535-.446-.731-.6a1.309,1.309,0,0,1-.24-.206c.382-.211.672-.441,1.162-.7a9.776,9.776,0,0,1,3.145-1.046,8.823,8.823,0,0,1,1.33-.063,3.76,3.76,0,0,0-1.448-.355c-.116,0-.14-.023-.247-.023-.182,0-.777.074-.933.1a5.644,5.644,0,0,0-.841.214,7.759,7.759,0,0,0-.746.293c-.125.058-.242.106-.356.165-.457.241-.9.5-1.329.778-.111.071-.219.153-.328.214-.307-.214-.623-.43-.952-.616a7.538,7.538,0,0,0-.674-.368c-.128-.053-.233-.11-.354-.166a6.91,6.91,0,0,0-2.515-.615l-.478.037a4.432,4.432,0,0,0-1.056.248c-.069.027-.142.04-.179.092" transform="translate(16322 14135)" fill="#0ba354" fill-rule="evenodd"/>
    <path id="Path_140905" data-name="Path 140905" d="M1207.42,268.491c0,.328.314.043.4.021-.015-.059-.014-.049-.061-.077a.557.557,0,0,0-.1-.032,1.744,1.744,0,0,0-.218-.051,1.2,1.2,0,0,0-.019.139" transform="translate(16322 14135)" fill="#0ba354" fill-rule="evenodd"/>
    <path id="Path_140906" data-name="Path 140906" d="M1200.907,266.846a.7.7,0,0,0,.228-.158c-.217,0-.252-.111-.362-.118a1.361,1.361,0,0,0,.134.276" transform="translate(16322 14135)" fill="#0ba354" fill-rule="evenodd"/>
    <path id="Path_140907" data-name="Path 140907" d="M1202.945,272.731a2.123,2.123,0,0,0,.248.079,1.129,1.129,0,0,0,.019-.276l-.214.134c-.055.03-.037,0-.053.063" transform="translate(16322 14135)" fill="#0ba354" fill-rule="evenodd"/>
    <path id="Path_140908" data-name="Path 140908" d="M1210.619,271.383c.1-.009.147-.073.247-.1a.166.166,0,0,0-.083-.111.81.81,0,0,0-.126-.087c0,.272-.027.162-.038.3" transform="translate(16322 14135)" fill="#0ba354" fill-rule="evenodd"/>
    <path id="Path_140909" data-name="Path 140909" d="M1196.222,266.568a.391.391,0,0,0,.248-.1c-.162-.012-.2-.131-.286-.158a.7.7,0,0,0,.038.257" transform="translate(16322 14135)" fill="#0ba354" fill-rule="evenodd"/>
    <path id="Path_140910" data-name="Path 140910" d="M1197.651,269.4c0,.1.037.079.057.158.1-.009.133-.079.133-.2-.039-.009-.19-.051-.19.04" transform="translate(16322 14135)" fill="#0ba354" fill-rule="evenodd"/>
    <path id="Path_140911" data-name="Path 140911" d="M1209.7,266.529c0,.221.375-.118.152-.118-.074,0-.152.042-.152.118" transform="translate(16322 14135)" fill="#0ba354" fill-rule="evenodd"/>
    <path id="Path_140912" data-name="Path 140912" d="M1213.629,268.054c.087-.023.091-.074.19-.1l-.152-.058a.229.229,0,0,0-.038.157" transform="translate(16322 14135)" fill="#0ba354" fill-rule="evenodd"/>
    <path id="Path_140913" data-name="Path 140913" d="M1180.564,291.626v-1.935c-.2,0-.436.119-.436.607v1.328h-3.146a4.611,4.611,0,0,1,.256-1.418,1.609,1.609,0,0,1,1.74-1.062v.607a1,1,0,0,0-1.069.54,2.586,2.586,0,0,0-.191.68h1.728a3.828,3.828,0,0,0,0-.743c0-1.186.96-1.248,1.8-1.248v1.991h.681v.653Zm-2.8.436h.616v.709h-.616Zm.878,0h.616v.709h-.616Zm3.12-.436v-.653h.507a1.356,1.356,0,0,1-.169-.725c0-.353.18-1.329,1.106-1.329a.979.979,0,0,1,.954.665c-.163.04-.676.147-.676.147a.3.3,0,0,0-.261-.182c-.365,0-.437.477-.437.681,0,.432.219.743.518.743h.9l.2.653Zm3.162-1.164v-2.511h.682v2.5c0,.345.152.526.621.526v.653c-.856,0-1.3-.443-1.3-1.164m2.912,1.164a1.251,1.251,0,0,1-.823-.279,1.138,1.138,0,0,1-.807.279h-.2v-.653h.2a.391.391,0,0,0,.441-.408v-1.589h.687v1.607c0,.238.164.39.5.39h.2v.653Zm-1.2-3.852h.692v.709h-.692Zm1.222,3.852v-.653h.861v-2h.665v1.044a1.611,1.611,0,0,1,1.358-.98,1.124,1.124,0,0,1,1.1,1.2,1.935,1.935,0,0,1-.169.736h.562v.653Zm2.867-1.957c-.648,0-.981.793-1.15,1.3h1.031c.4,0,.55-.323.55-.749,0-.283-.142-.555-.431-.555m1.408,1.957v-.653c.469,0,.687-.181.687-.515v-2.5h.682V290.5c0,.7-.524,1.128-1.369,1.128m1.9-3.675h.681v3.676h-.681Zm5.1,3.675a1.136,1.136,0,0,1-.616-.17v.022a1.1,1.1,0,0,1-1.1,1.162,1.214,1.214,0,0,1-.148,0,1.1,1.1,0,0,1-1.095-1.168v-2.5h.681v2.48c0,.339.153.521.5.521s.48-.182.48-.521v-2.48h.687v1.51c0,.311.256.487.616.487h.081v.653Zm-2.143-3.852h.687v.709h-.687Zm3.8,3.852a.88.88,0,0,1-.812-.419.953.953,0,0,1-.927.419v-.653c.578,0,.561-.56.578-.935a1.166,1.166,0,0,1,1.161-1.244c.741,0,1.161.569,1.161,1.418s-.414,1.414-1.161,1.414m0-2.23c-.273,0-.458.2-.458.828,0,.6.18.8.458.8s.463-.21.463-.794c0-.63-.185-.834-.463-.834m1.282-1.759v-.276h.24V287.3a.463.463,0,0,1,.447-.52.413.413,0,0,1,.42.282l-.29.052a.142.142,0,0,0-.119-.07c-.159,0-.159.171-.159.25v.064h.627v.276Zm3.243,3.989a1.272,1.272,0,0,1-.823-.294h-.011a1.029,1.029,0,0,1-.752.294h-1.254v-.653h.458v-3.012h.7v3.012h.087a.441.441,0,0,0,.36-.265,1.621,1.621,0,0,0,.06-.58v-2.177h.681v2.489c0,.063,0,.119-.005.171.016.222.18.362.5.362h.2v.653Zm.034,0v-.653c.469,0,.687-.181.687-.515v-2.5h.681V290.5c0,.7-.523,1.128-1.368,1.128m3.936,0a1.147,1.147,0,0,1-1.1-1.3c0-.9.4-1.34,1.1-1.34h1.123v1.991h.8v.653Zm-.485-3.852h.6v.709h-.6Zm.927,1.832h-.4c-.376,0-.458.432-.458.716,0,.322.174.651.458.651h.4Zm-.049-1.832h.611v.709h-.611Zm3.108,3.852a.88.88,0,0,1-.812-.419.952.952,0,0,1-.927.419v-.653c.578,0,.562-.56.578-.935a1.167,1.167,0,0,1,1.161-1.244c.742,0,1.161.569,1.161,1.418s-.414,1.414-1.161,1.414m0-2.23c-.272,0-.458.2-.458.828,0,.6.18.8.458.8s.464-.21.464-.794c0-.63-.186-.834-.464-.834m1.685,1.066v-2.511h.682v2.5c0,.345.153.526.621.526v.653c-.856,0-1.3-.443-1.3-1.164m3.512,1.164a1.706,1.706,0,0,1-.529-.081,1.763,1.763,0,0,1-.534.081h-1.363v-.653h1.085l-.687-.624a1.5,1.5,0,0,1,3,0l-.692.624h1.09v.653Zm-.524-2.105a.721.721,0,0,0-.779.647c.2.187.6.555.774.7l.768-.7a.726.726,0,0,0-.763-.647m1.724,2.105v-.653c.469,0,.687-.181.687-.515v-2.5h.681V290.5c0,.7-.523,1.128-1.368,1.128m1.9-3.675h.682v3.676h-.682Zm3.245,3.675a1.147,1.147,0,0,1-1.1-1.3c0-.9.4-1.34,1.1-1.34h1.123v1.991h.8v.653Zm-.486-3.852h.6v.709h-.6Zm.927,1.832h-.4c-.376,0-.458.432-.458.716,0,.322.174.651.458.651h.4Zm-.049-1.832h.611v.709h-.611Zm3.2,3.852a1.255,1.255,0,0,1-.824-.279,1.134,1.134,0,0,1-.806.279h-.2v-.653h.2a.391.391,0,0,0,.441-.408v-1.589h.687v1.607c0,.238.164.39.5.39h.2v.653Zm-1.718-3.143v-.317h.24V288.1a.529.529,0,0,1,.518-.59.48.48,0,0,1,.469.313c-.055.01-.333.073-.333.073-.043-.063-.081-.085-.125-.085-.18,0-.18.192-.18.277v.075h.644v.317Zm1.555,3.579h.6v.709h-.6Zm2.022-.436a1.251,1.251,0,0,1-.823-.279,1.138,1.138,0,0,1-.807.279h-.2v-.653h.2a.391.391,0,0,0,.442-.408v-1.583h.686v1.6c0,.238.164.39.5.39h.2v.653Zm-1.145.436h.605v.709h-.605Zm.906-.436v-.653h.654v-.947a1.274,1.274,0,0,1,1.117-1.254v-.436h.622v.436a1.271,1.271,0,0,1,1.123,1.254v.947h.332v.653Zm1.771-2.2a.666.666,0,0,0-.463.6v.947h.463Zm1.1.6a.688.688,0,0,0-.474-.607v1.554h.474Zm.791,1.6v-.653c.469,0,.687-.181.687-.515v-2.5h.682V290.5c0,.7-.524,1.128-1.369,1.128m1.9-3.675h.681v3.676h-.681Z" transform="translate(16322 14135)" fill="#33a857"/>
    <path id="Path_140914" data-name="Path 140914" d="M1217.2,296.76a.814.814,0,0,1-.781-.925c0-.639.286-.95.781-.95h.8V296.3h.568v.463Zm-.344-2.73h.429v.5h-.429Zm.657,1.3h-.286c-.267,0-.325.3-.325.506,0,.229.124.462.325.462h.286Zm-.035-1.3h.433v.5h-.433Zm2.2,2.73a.624.624,0,0,1-.576-.3.672.672,0,0,1-.657.3V296.3c.41,0,.4-.4.41-.664a.825.825,0,0,1,.823-.88c.526,0,.824.4.824,1.005s-.294,1-.824,1m0-1.581c-.193,0-.325.146-.325.587,0,.423.128.568.325.568s.329-.149.329-.564c0-.445-.132-.591-.329-.591m1.194.756v-1.78h.483v1.768c0,.246.109.374.441.374v.463c-.607,0-.924-.313-.924-.825m2.49.825a1.213,1.213,0,0,1-.375-.055,1.265,1.265,0,0,1-.379.055h-.967V296.3h.769l-.487-.442a1.064,1.064,0,0,1,2.127,0l-.491.442h.773v.463Zm-.372-1.492a.512.512,0,0,0-.553.458c.14.133.426.4.55.5l.544-.5a.514.514,0,0,0-.541-.458m1.221,1.492V296.3c.333,0,.487-.128.487-.366v-1.768h.484v1.8c0,.5-.371.8-.971.8m1.345-2.605h.483v2.605h-.483Zm2.3,2.605a.814.814,0,0,1-.781-.925c0-.639.286-.95.781-.95h.8V296.3h.569v.463Zm-.344-2.73h.429v.5h-.429Zm.657,1.3h-.286c-.267,0-.325.3-.325.506,0,.229.124.462.325.462h.286Zm-.035-1.3h.433v.5h-.433Zm.97,2.73V296.3c.333,0,.487-.125.487-.362v-1.054h.483v1.079c0,.5-.371.8-.97.8m.483-2.73h.483v.5h-.483Zm.862,1.9v-1.78h.483v1.768c0,.246.108.374.441.374v.463c-.607,0-.924-.313-.924-.825m2,.825a.624.624,0,0,1-.576-.3.673.673,0,0,1-.657.3V296.3c.41,0,.4-.4.41-.664a.825.825,0,0,1,.823-.88c.526,0,.824.4.824,1.005s-.294,1-.824,1m0-1.581c-.193,0-.324.146-.324.587,0,.423.127.568.324.568s.329-.149.329-.564c0-.445-.132-.591-.329-.591m.908-1.247v-.2h.17v-.04a.329.329,0,0,1,.317-.37.292.292,0,0,1,.3.2l-.2.036a.1.1,0,0,0-.085-.048c-.112,0-.112.12-.112.177v.045h.444v.2Zm1.175,2.828h-.889V296.3h.325v-2.134h.495V296.3h.062a.314.314,0,0,0,.255-.189,1.141,1.141,0,0,0,.042-.409v-1.544h.484v1.764a.77.77,0,0,1-.774.841m1.148-2.605h.483v2.605h-.483Z" transform="translate(16322 14135)" fill="#33a857"/>
    <path id="Path_140915" data-name="Path 140915" d="M1211.3,303.393a1.121,1.121,0,0,1-1.075-1.275c0-.878.394-1.305,1.075-1.305h1.1v1.942h.782v.638Zm-.473-3.76h.591v.691h-.591Zm.9,1.788h-.393c-.368,0-.447.421-.447.7,0,.318.17.637.447.637h.393Zm-.047-1.788h.6v.691h-.6Zm1.143,4.187h.591v.691h-.591Zm1.974-.427a1.224,1.224,0,0,1-.8-.272,1.118,1.118,0,0,1-.788.272h-.192v-.638h.192a.38.38,0,0,0,.431-.4v-1.545h.671v1.56c0,.234.159.382.489.382h.192v.638Zm-1.117.427h.591v.691h-.591Zm2.931-.427a1.224,1.224,0,0,1-.8-.272,1.118,1.118,0,0,1-.788.272h-.191v-.638h.191a.38.38,0,0,0,.431-.4v-2.541h.671v2.556c0,.234.159.382.489.382h.192v.638Zm.032,0v-.638h1.734a1.277,1.277,0,0,0-1.357-1.316v-.62a1.873,1.873,0,0,1,2.039,2.043v.531Zm.84-3.76h.665v.691h-.665Zm2.086.171h.665v3.589h-.665Zm1.176,3.589v-.638h1.127v-.747c0-.5-.116-.626-.441-.626l.117-.613c.681,0,.979.343.979,1.012v.974h.681v.638Zm2.3,0v-.638c.458,0,.67-.177.67-.5v-2.434h.665v2.473c0,.681-.51,1.1-1.335,1.1m1.851-3.589h.665v3.589h-.665Zm3.219,3.589c-.718,0-1.128-.422-1.128-1.275,0-.813.415-1.305,1.128-1.305s1.118.492,1.118,1.317c0,.841-.4,1.263-1.118,1.263m-.75-3.76h.6v.691h-.6Zm.75,1.755c-.282,0-.447.16-.447.726,0,.542.16.654.447.654s.447-.112.447-.638c0-.582-.175-.742-.447-.742m.107-1.755h.6v.691h-.6Zm1.228,4.75v-.62c.543,0,.522-.459.522-.836v-2.114h.654s.011.06,0,2.4a1.1,1.1,0,0,1-1.176,1.174m1.692-4.579h.665v3.589h-.665Zm.883,4.579v-.62c.543,0,.521-.459.521-.836v-2.114h.655s.011.06,0,2.4a1.1,1.1,0,0,1-1.176,1.174m.506-4.75h.665v.691h-.665Zm2.176,4.739.005-.576c.255,0,.681-.094.665-.607a.7.7,0,0,1-.638.358c-.692,0-1.022-.459-1.022-1.355,0-.869.388-1.379,1.08-1.379h1.091v2.4a1.054,1.054,0,0,1-1.181,1.157m.516-2.945h-.378c-.388,0-.463.466-.463.753s.005.759.426.759.415-.42.415-.732Z" transform="translate(16322 14135)" fill="#8d8f90"/>
  </g>
</svg>
