<svg xmlns="http://www.w3.org/2000/svg" width="59.543" height="41.809" viewBox="0 0 59.543 41.809">
  <g id="Client_46" transform="translate(-17008.619 -14492.497)">
    <path id="Path_143735" data-name="Path 143735" d="M745.656,388.287a2.3,2.3,0,0,0-.882-.225.783.783,0,0,0-.773.857v.969l.01.027v6.222a.775.775,0,1,0,1.548,0v-6.746a.437.437,0,0,0,.59-.315c.086-.378-.287-.682-.493-.789" transform="translate(16322 14135)" fill="#5d3034"/>
    <path id="Path_143736" data-name="Path 143736" d="M735.757,391.81a.814.814,0,0,0-.641-.8.736.736,0,0,0-.183-.025.774.774,0,0,0-.7.477l-.023.051-.048-.025a2.543,2.543,0,0,0-1.095-.248,2.7,2.7,0,0,0-2.645,2.753v.168a2.465,2.465,0,0,0,2.191,2.658,1.9,1.9,0,0,0,1.58-.648l0,.136a1.39,1.39,0,0,1-.855,1.314c-.6.348-1.2.276-1.235.936-.021.407.382.778,1.026.737h0c1.564,0,2.628-1.763,2.628-3.675l.007-.075.005-1.313a.177.177,0,0,1,0-.033Zm-1.6,2.348a1.093,1.093,0,1,1-2.185,0v-.168a1.093,1.093,0,1,1,2.185,0Z" transform="translate(16322 14135)" fill="#5d3034"/>
    <path id="Path_143737" data-name="Path 143737" d="M715.188,390.13a1.006,1.006,0,1,0-.966-1.005.985.985,0,0,0,.966,1.005" transform="translate(16322 14135)" fill="#5d3034"/>
    <path id="Path_143738" data-name="Path 143738" d="M716.213,391.806c0-.01,0-.017,0-.029a1.1,1.1,0,0,0-.012-.11.52.52,0,0,1-.008-.053.737.737,0,0,0-.752-.639h0a2.322,2.322,0,0,0-.882.222c-.2.111-.579.412-.491.788a.43.43,0,0,0,.556.324v1.948h.026c0,.772-.33,1.13-.915,1.169a1.035,1.035,0,0,1-1.194-1.154v-2.466a.783.783,0,1,0-1.564,0v2.451c0,.772-.235,1.169-.687,1.169-.409,0-.635-.4-.635-1.169v-2.451a.783.783,0,1,0-1.564,0v2.451c0,.772-.236,1.169-.687,1.169-.409,0-.635-.4-.635-1.169v-2.451a.829.829,0,0,0-.03-.209.727.727,0,0,0-.744-.622,2.314,2.314,0,0,0-.881.222c-.206.111-.58.412-.493.788a.429.429,0,0,0,.554.322v.369c-.206.783-1.7,2.73-6.259,2.73l-.521-.008c-1.411,0-2.919-.505-2.919-1.9v-.733s0-.62,0-.972v-.021c0-.009,0-.017,0-.027a1.046,1.046,0,0,0-.012-.109c0-.02-.006-.036-.01-.055a.735.735,0,0,0-.75-.641,2.3,2.3,0,0,0-.882.225c-.205.107-.579.411-.492.788a.435.435,0,0,0,.584.317v1.956c0,.771-.331,1.143-.916,1.168a1.1,1.1,0,0,1-1.076-1.166v-2.47a.8.8,0,0,0-.777-.81.775.775,0,0,0-.706.478l-.023.05-.049-.024a2.522,2.522,0,0,0-1.094-.249,2.7,2.7,0,0,0-2.645,2.752v.171a2.6,2.6,0,0,0,2.507,2.756,2.066,2.066,0,0,0,1.786-1.268,1.972,1.972,0,0,0,.65.813,2.652,2.652,0,0,0,1.674.477s.006.005.071,0a2.168,2.168,0,0,0,1.873-.988c0,.008.12-.3.128-.287a4.385,4.385,0,0,0,3.53,1.269h.071a9.97,9.97,0,0,0,6.485-2.065l.122.36a2.254,2.254,0,0,0,2.27,1.705,1.859,1.859,0,0,0,1.617-.919l0,.008a1.589,1.589,0,0,0,2.886-.008v.008a2.223,2.223,0,0,0,2.059.911,1.835,1.835,0,0,0,1.861-2.109v-.537h.005v-2.451Zm-25.854,2.324a1.094,1.094,0,1,1-2.186,0v-.171a1.094,1.094,0,1,1,2.186,0Z" transform="translate(16322 14135)" fill="#5d3034"/>
    <path id="Path_143739" data-name="Path 143739" d="M687.7,390.272a8.726,8.726,0,0,0,3.438,0c.471-.132.847-.5.617-1-.193-.415-.726-.4-1.222-.212a1.8,1.8,0,0,1-2.228,0c-.5-.186-1.029-.2-1.221.212-.232.494.145.866.616,1" transform="translate(16322 14135)" fill="#5d3034"/>
    <path id="Path_143740" data-name="Path 143740" d="M694.86,397.647a8.627,8.627,0,0,0-3.438,0c-.472.13-.846.5-.617,1,.192.413.725.4,1.221.212a1.806,1.806,0,0,1,2.229,0c.495.186,1.028.2,1.221-.212.231-.5-.146-.867-.616-1" transform="translate(16322 14135)" fill="#5d3034"/>
    <path id="Path_143741" data-name="Path 143741" d="M742.851,388.832c0-.008,0-.016,0-.026a.925.925,0,0,0-.012-.113c0-.015-.006-.034-.009-.049a.732.732,0,0,0-.747-.638,2.3,2.3,0,0,0-.879.222c-.206.105-.578.411-.491.787a.434.434,0,0,0,.581.314v4.908c0,.77-.329,1.125-.912,1.164a1,1,0,0,1-1.17-.9v-.3a.169.169,0,0,1,0-.03l-.007-2.044V391.8c0-.012,0-.02,0-.03a1.09,1.09,0,0,0-.011-.111l0-.01c0-.01-.005-.026-.009-.04v0a.731.731,0,0,0-.747-.634,2.319,2.319,0,0,0-.879.221c-.2.109-.576.411-.49.786a.429.429,0,0,0,.562.32l.015,3.615a2.033,2.033,0,0,1-.908,1.926.885.885,0,0,0-.517.868c.042.455.607.721,1.226.537h0a3.265,3.265,0,0,0,1.76-2.966l.006-.077v.077a2.355,2.355,0,0,0,1.789.593,1.829,1.829,0,0,0,1.856-2.1v-4.95s0-.619,0-.965v-.024Z" transform="translate(16322 14135)" fill="#5d3034"/>
    <path id="Path_143742" data-name="Path 143742" d="M727.022,391.237a2.543,2.543,0,0,0-1.095.248l-.044.022a.714.714,0,0,0-.719-.525h-.014a.794.794,0,0,0-.777.81v1.056a2.724,2.724,0,0,1-5.44,0v-3.457a.437.437,0,0,0,.585-.316c.085-.376-.287-.681-.493-.788a2.3,2.3,0,0,0-.882-.225.734.734,0,0,0-.749.641l-.011.053c-.006.039-.008.076-.01.111,0,.01,0,.02,0,.027v4.065a3.79,3.79,0,0,0,4.13,3.98h.154c.005,0,0,0,0,0a3.51,3.51,0,0,0,3.131-1.529,2.58,2.58,0,0,0,4.884-1.252v-.168a2.7,2.7,0,0,0-2.646-2.753m1.091,2.921a1.093,1.093,0,1,1-2.185,0v-.168a1.093,1.093,0,1,1,2.185,0Z" transform="translate(16322 14135)" fill="#5d3034"/>
    <path id="Path_143743" data-name="Path 143743" d="M731.8,371.241a3.365,3.365,0,0,0-1.247-.015,19.989,19.989,0,0,0-2.064-.089c-.886,0-.886.065-1.771.065-.074,0-.142,0-.206,0a5.412,5.412,0,0,0-1.05-.1c-.846,0-.846-.023-1.693-.023-.744,0-.836.118-1.415.147-.246-.006-.467-.013-.954-.013a6.659,6.659,0,0,0-1.038.076c-.576,0-.759.019-1.1.03-.54-.028-.662-.121-1.4-.121-.219,0-.384.009-.52.018-.1,0-.213-.009-.347-.009-.848,0-.848-.064-1.694-.064s-.85.03-1.7.03c-.084,0-.157,0-.227,0-.205-.013-.423-.026-.83-.026-.886,0-.886.075-1.771.075s-.888.015-1.772.015h-.119c-.105,0-.223,0-.367,0-.222,0-.385,0-.521,0h-.766c-.372,0-.586.008-.778.014a11.392,11.392,0,0,0-1.327-.124,5.891,5.891,0,0,0-1.142.129c-.085,0-.182,0-.294,0-.291,0-.487,0-.649,0a2.969,2.969,0,0,0-1.248.007c-.755-.018-.744-.227-1.272,0a.592.592,0,0,0-.017,1.131,4.774,4.774,0,0,0,1.24.178,5.175,5.175,0,0,0,.038.588,6.125,6.125,0,0,0,.536,1.894,4.785,4.785,0,0,0,1.241,1.449,11.835,11.835,0,0,0,1.606.888c.482.269.981.624,1.574.929a8.588,8.588,0,0,0,1.747.581c.6.161,1.178.369,1.77.487a17.3,17.3,0,0,1,1.82.257,6.932,6.932,0,0,1,1.668.849,5.6,5.6,0,0,1,1.379,1.187,7.58,7.58,0,0,1,1.017,1.472,5.138,5.138,0,0,1,.877-1.491,4.935,4.935,0,0,1,1.47-1.2,7.27,7.27,0,0,1,1.7-.782c.586-.16,1.215-.151,1.829-.266s1.183-.326,1.776-.5a7.642,7.642,0,0,0,1.774-.548c.579-.333,1.082-.673,1.555-.952a12.513,12.513,0,0,0,1.52-1.03,4.812,4.812,0,0,0,1.276-1.379,6.075,6.075,0,0,0,.4-1.893c.024-.161.058-.323.093-.489a3.748,3.748,0,0,0,1.539-.245c.341-.241.186-1.067-.152-1.151" transform="translate(16322 14135)" fill="#ed3b6e"/>
    <path id="Path_143744" data-name="Path 143744" d="M732.544,359c.015-.379-.2-.54-.4-.561-.406-.041-.283-.232-.278-.3a.522.522,0,0,0-.41-.619c-.384-.106-.792.262-.9.726a1.325,1.325,0,0,0-.01.881c-.061.071-.131.148-.206.231-.212.207-.424.476-.776.862a1.9,1.9,0,0,0-1.583.278,8.206,8.206,0,0,0-1.513,1.1,7.241,7.241,0,0,0-1.315-.74,7.316,7.316,0,0,0-1.443-.447,7.614,7.614,0,0,0-1.527-.021,5.821,5.821,0,0,0-1.759.2,7.586,7.586,0,0,0-1.572.879,13.292,13.292,0,0,0-1.522.981c-.472.388-.873.874-1.328,1.284a2.226,2.226,0,0,1-1.992-.012c-.485-.288-1.021-.485-1.516-.762a9.151,9.151,0,0,0-1.49-.807,5.215,5.215,0,0,0-1.647-.371,6.735,6.735,0,0,0-1.56.387,6.632,6.632,0,0,0-1.5.518,7.394,7.394,0,0,0-1.38.846,7.694,7.694,0,0,0-1.173,1.179,8.026,8.026,0,0,0-.83,1.484,8.235,8.235,0,0,0-.654,1.591,9.5,9.5,0,0,0-.141,1.817c.132.17.383.16.614.194.749.273.809-.024,1.6-.024s.787-.083,1.574-.083.786.142,1.574.142.789-.12,1.573-.12.79.071,1.576.071.79-.074,1.578-.074h1.572c.788,0,.788.074,1.577.074s.785-.025,1.573-.025.786.036,1.574.036.788-.1,1.575-.1.788.018,1.576.018.786-.036,1.577-.036.786.018,1.573.018.788.154,1.576.154.79-.044,1.578-.044a10.025,10.025,0,0,0,1.567-.183,1.775,1.775,0,0,0,.518-.187.513.513,0,0,0,.189-.446,9.493,9.493,0,0,0-.179-1.7,8.942,8.942,0,0,0-.637-1.552,9.277,9.277,0,0,0-.633-1.541,10.211,10.211,0,0,0,1.2-1.491,2.65,2.65,0,0,0,.346-1.889c.161-.161.367-.35.534-.534.14-.153.26-.276.367-.381a1.718,1.718,0,0,0,.619-.05.871.871,0,0,0,.7-.846" transform="translate(16322 14135)" fill="#f37b33"/>
  </g>
</svg>
