<svg xmlns="http://www.w3.org/2000/svg" width="50.23" height="68.827" viewBox="0 0 50.23 68.827">
  <g id="Client_12" transform="translate(-17141.359 -14257.392)">
    <path id="Path_145564" data-name="Path 145564" d="M844.351,154.8c1.8,1.237,4.275,3.012,4.179,3.612a1.255,1.255,0,0,1-.16.4c-.065.1-.194.3-.354.266-.193,0-.193-.335-.482-.535a.918.918,0,0,0-.965.033,1.013,1.013,0,0,0-.385.77.983.983,0,0,0,.642.87,1.459,1.459,0,0,0,1.093-.134c.836-.4.9-1.037,1.35-1.07.29,0,.515.334,1.157.9,1.479,1.338,2.637,1.84,3.344,1.84a1.235,1.235,0,0,0,1.285-.636.986.986,0,0,0-.321-1.1.951.951,0,0,0-1.189-.1c-.225.168-.193.5-.354.5a21.466,21.466,0,0,1-3.215-2.975c-.1-.1.483-1.105.676-1.139.321-.067.418.5.9.6a.872.872,0,0,0,.9-.434,1.215,1.215,0,0,0,0-.869,1.245,1.245,0,0,0-1.286-.57c-.868.134-1.35,1.1-1.415,1.17-.16.269-.224.469-.417.536s-.418-.2-.708-.569c-.482-.535-2.185-2.14-2.25-2.273a.107.107,0,0,0-.032-.068c-.032-.234,3.5-2.074,6.526-2.776,2.732-.635,7.3-.836,7.232-.97.193-.2-4.146-1.2-7.393-1.07a14.529,14.529,0,0,0-8.39,3.277h-.032a14.6,14.6,0,0,0-8.39-3.277c-3.247-.167-7.619.87-7.394,1.07-.064.134,4.533.335,7.233.97,3.021.7,6.59,2.542,6.526,2.776a.125.125,0,0,1-.032.068c-.065.133-1.8,1.706-2.251,2.273-.321.368-.514.6-.707.569s-.257-.267-.418-.536a2.162,2.162,0,0,0-1.414-1.17,1.245,1.245,0,0,0-1.286.57,1.056,1.056,0,0,0,0,.869.871.871,0,0,0,.9.434c.482-.067.578-.634.9-.6.193.034.772,1.037.675,1.139a23.107,23.107,0,0,1-3.215,2.975c-.16,0-.128-.3-.353-.5a1,1,0,0,0-1.189.1,1.1,1.1,0,0,0-.322,1.1,1.237,1.237,0,0,0,1.286.636c.707,0,1.864-.469,3.343-1.84.643-.6.868-.935,1.157-.9.483.033.547.67,1.35,1.07a1.322,1.322,0,0,0,1.093.134,1.023,1.023,0,0,0,.643-.87.975.975,0,0,0-.385-.77.917.917,0,0,0-.965-.033c-.289.2-.289.535-.482.535-.129,0-.257-.167-.354-.266a1.254,1.254,0,0,1-.16-.4c-.129-.6,2.379-2.375,4.179-3.612Z" transform="translate(16322 14135)" fill="#006b4f"/>
    <path id="Path_145565" data-name="Path 145565" d="M838.886,128.948a8.144,8.144,0,0,0-3.665,3.445c-.932,1.806-1.093,4.047-.675,4.115.386.033.386-1.5,1.7-3.48a4.125,4.125,0,0,1,3.214-2.141c.033,0,.29,0-.064.335a7.483,7.483,0,0,0-2.7,3.913,6.677,6.677,0,0,0,.225,4.014c.386-.033.161-1.739,1.028-3.644.1-.2,1.094-2.309,2.154-2.243.065,0,.354,0,.354.167a18.168,18.168,0,0,1-1.061,1.639,4.65,4.65,0,0,0-.514,2.543c.1,1.337.482,2.508.8,2.441s-.064-1.6.74-3.445c.129-.3,1.125-2.607,1.9-2.074a1.645,1.645,0,0,1,.676,1.306c.1,3.412.1,6.487-.032,10.233-.065,1.371-.418,2.609-.515,3.913,0,.034.321.136.321.167l.033.034a16.736,16.736,0,0,1,1.382,1.037.092.092,0,0,0,.129,0,10.862,10.862,0,0,1,1.286-.969c.031-.035.353-.167.353-.2-.129-1.3-.482-2.575-.547-3.947a91.483,91.483,0,0,1,.033-10.3,2.032,2.032,0,0,1,.675-1.3c.8-.535,1.768,1.771,1.9,2.073.8,1.873.418,3.378.74,3.444s.707-1.1.8-2.441a4.6,4.6,0,0,0-.514-2.542c-.547-.937-1.061-1.4-1.061-1.639,0-.134.289-.167.354-.167,1.093-.066,2.089,2.04,2.153,2.241.868,1.908.644,3.613,1.029,3.646a7.009,7.009,0,0,0,.225-4.014,7.676,7.676,0,0,0-2.7-3.914c-.354-.367-.1-.334-.064-.334A4.076,4.076,0,0,1,852.194,133c1.35,1.973,1.35,3.512,1.7,3.477.418-.033.257-2.306-.675-4.113a7.958,7.958,0,0,0-3.665-3.444c-.482-.236-.128-.5-.1-.535.257-.269,2.186.132,3.15.968.322.3.868.87.675.134a3.985,3.985,0,0,0-1.9-2.073,24.613,24.613,0,0,0-2.476-.9c-.45-.2-.578-.4-.482-.5.45-.436,1.929-.436,2.765-.57.45-.067-.932-.634-1.865-.7-1.768-.133-2.314.837-2.636.536a.469.469,0,0,1-.128-.4c.1-.669,1.9-1.4,1.446-1.538-.771-.2-2.153.735-2.957,1.5-.1.1-.289.033-.257-.3a2.572,2.572,0,0,0-.226-1.738c-.1-.167-.256-.4-.385-.4-.1,0-.289.236-.386.4a2.577,2.577,0,0,0-.225,1.738c.032.335-.161.368-.257.3-.8-.737-2.186-1.705-2.957-1.5-.451.1,1.35.869,1.446,1.538a.466.466,0,0,1-.128.4c-.322.3-.868-.669-2.636-.536-.933.069-2.315.636-1.865.7.836.134,2.347.134,2.765.57.1.1-.033.3-.483.5-.8.334-1.478.433-2.475.9a3.746,3.746,0,0,0-1.9,2.073c-.161.736.353.134.675-.134.932-.836,2.893-1.237,3.15-.968.129.065.45.3-.032.567" transform="translate(16322 14135)" fill="#006b4f"/>
    <path id="Path_145566" data-name="Path 145566" d="M866.964,166.69c0,.536-10,.972-22.342.972s-22.341-.436-22.341-.972,10-.97,22.341-.97,22.342.436,22.342.97" transform="translate(16322 14135)" fill="#767a7b"/>
    <path id="Path_145567" data-name="Path 145567" d="M821.741,179a2.138,2.138,0,0,1-2.051-2.43c0-1.678.751-2.493,2.051-2.493h2.091v3.708h1.493V179Zm-.9-7.172h1.127v1.32h-1.127Zm1.726,3.411h-.751c-.7,0-.853.8-.853,1.331,0,.6.325,1.215.853,1.215h.751Zm-.091-3.411h1.137v1.32h-1.137Zm2.549,5.957h1.9V179h-1.9Zm1.615,0h1.9V179h-1.9Zm4.7,1.215H828.19v-1.215h1.34c-.274-.189-.345-.77-.345-1.266,0-1.584.791-2.557,2.152-2.557s2.142.962,2.142,2.588S832.7,179,831.337,179m0-3.907c-.518,0-.853.305-.853,1.426,0,1.044.3,1.266.853,1.266s.853-.231.853-1.257c0-1.13-.325-1.435-.853-1.435m-.65-3.265h1.289v1.32h-1.289Zm3.778,5.007v-4.68h1.269V176.8c0,.643.284.981,1.158.981V179c-1.594,0-2.427-.823-2.427-2.165M840.354,179a3.733,3.733,0,0,1-1.147-.169,3.834,3.834,0,0,1-1.147.169h-1.574v-1.215h1.229a2.6,2.6,0,0,1-.7-2.027,2.1,2.1,0,0,1,2.193-1.839,2.064,2.064,0,0,1,2.173,1.839,2.594,2.594,0,0,1-.691,2.027h1.229V179Zm-2.548-7.172h1.147v1.32h-1.147Zm1.4,3.191a.9.9,0,0,0-.9.792,1.777,1.777,0,0,0,.9,1.689,1.739,1.739,0,0,0,.893-1.689.917.917,0,0,0-.893-.792m.233-3.191h1.147v1.32H839.44ZM845.015,179a2.326,2.326,0,0,1-1.533-.518,2.126,2.126,0,0,1-1.5.518h-.366v-1.215h.366a.728.728,0,0,0,.822-.761v-2.957h1.279v2.991c0,.442.3.727.934.727h.366V179Zm-3.37-7.172h1.025v1.32h-1.025Zm.751-1.585h1.015v1.151H842.4Zm.782,1.585h1.015v1.32h-1.015Zm1.9,7.172v-1.215c.873,0,1.279-.338,1.279-.961v-4.647h1.269v4.72c0,1.3-.974,2.1-2.548,2.1m3.534-6.845h1.269V179h-1.269ZM854.754,179c-1.371,0-2.153-.8-2.153-2.43,0-1.551.792-2.493,2.153-2.493s2.132.942,2.132,2.516c0,1.6-.772,2.407-2.132,2.407m-1.432-7.172h1.137v1.32h-1.137Zm1.432,3.349c-.538,0-.853.305-.853,1.384,0,1.035.3,1.247.853,1.247.527,0,.852-.212.852-1.215,0-1.111-.335-1.416-.852-1.416m.2-3.349H856.1v1.32h-1.147Zm2.346,9.064v-1.184c1.036,0,.995-.877.995-1.6v-4.035h1.249s.02.116,0,4.574a2.092,2.092,0,0,1-2.244,2.241m3.229-8.737H861.8V179h-1.269Zm1.686,8.737v-1.184c1.035,0,.995-.877.995-1.6v-4.035h1.249s.02.116,0,4.574a2.092,2.092,0,0,1-2.244,2.241m.964-9.064h1.269v1.32h-1.269Zm4.153,9.041.01-1.1c.488,0,1.3-.178,1.269-1.162a1.333,1.333,0,0,1-1.218.688c-1.32,0-1.949-.878-1.949-2.589,0-1.657.741-2.631,2.061-2.631h2.081v4.585a2.012,2.012,0,0,1-2.254,2.207m.985-5.619H867.6c-.741,0-.883.889-.883,1.437,0,.571.01,1.448.812,1.448.823,0,.792-.8.792-1.4Z" transform="translate(16322 14135)" fill="#767a7b"/>
    <text id="Ministry_of_Culture" data-name="Ministry of Culture" transform="translate(17141.359 14324.219)" fill="#767a7b" font-size="5.498" font-family="SegoeUI, Segoe UI"><tspan x="0" y="0">Ministry of Culture</tspan></text>
  </g>
</svg>
