<svg xmlns="http://www.w3.org/2000/svg" width="50.76" height="52.762" viewBox="0 0 50.76 52.762">
  <g id="Client_29" transform="translate(-17245.979 -14385.433)">
    <path id="Path_145155" data-name="Path 145155" d="M964.335,277.059a51.3,51.3,0,0,0-8.256-8.8c-7.954-6.8-17.4-11.168-25.018-11.673-.184.106-.385.209-.569.331a24.77,24.77,0,0,0-3.9,2.806s-.151.121-.2.175h.016l2.395-.245.988-.105c.4-.034,1.541-.14,2.244-.14,7.787,0,17.851,4.461,26.258,11.639.971.819,1.892,1.673,2.78,2.526,1.172,1.133,2.26,2.3,3.265,3.486m2.83-16.135c-.653-.592-1.34-1.148-2.06-1.707a22.457,22.457,0,0,1,6.3,10.541,18.429,18.429,0,0,1-2.194,14.3,4.857,4.857,0,0,1-.318.487c-.067.1-.117.191-.184.3a.333.333,0,0,1-.068.087,1.422,1.422,0,0,1,.135.277c.017.019.017.053.033.07,0,0,.218-.314.251-.366l.151.4c-.017.016-.2.279-.251.347.05.141.134.418.134.418.033.122.084.244.117.366,1.424,4.9.653,8.9-2.21,11.377-1.909,1.657-4.723,2.528-8.1,2.528a33.794,33.794,0,0,1-13.464-3.364l-.921-.051c-.62-.036-1.256-.106-1.876-.193l-.871-.1,2.4,1.376.955.506c.016,0,.016.016.033.016l.034.019c5.71,3,11.437,4.634,16.143,4.634a12.634,12.634,0,0,0,8.322-2.6c3.149-2.719,3.869-7.2,2.044-12.651a.687.687,0,0,0-.051-.138l-.133-.418c5.71-8.537,3.616-19.219-4.338-26.467" transform="translate(16322 14135)" fill="#109784"/>
    <path id="Path_145156" data-name="Path 145156" d="M968.638,284.951h0" transform="translate(16322 14135)" fill="#1a8687"/>
    <path id="Path_145157" data-name="Path 145157" d="M966.729,281.171c4.153-9.479-.67-20.192-11.487-25.473a29.912,29.912,0,0,0-12.978-2.963,27.691,27.691,0,0,0-14.971,4.252l-.067.036-.067.016a18.656,18.656,0,0,1,2.461-.174c7.787,0,17.851,4.461,26.258,11.638a47.339,47.339,0,0,1,10.784,12.809,1.259,1.259,0,0,0,.067-.141m2.462,4.163a.31.31,0,0,0-.051.07l-.066.088c-4.706,6.742-13.263,10.766-22.892,10.766a32.975,32.975,0,0,1-3.466-.174h-.067c5.727,3.017,11.471,4.669,16.209,4.669a12.623,12.623,0,0,0,8.323-2.6c3.2-2.77,3.9-7.3,2.01-12.824" transform="translate(16322 14135)" fill="#76c16d"/>
    <path id="Path_145158" data-name="Path 145158" d="M957.922,253.8c-11.488-5.645-25.437-3.973-33.743,3.4,0,0-.151.124-.2.175h.017l2.495-.26c.117-.087.62-.418.636-.418,7.753-5.053,18.923-5.856,28.267-1.29,11.069,5.4,15.791,16.481,11.655,25.925a20.121,20.121,0,0,1-1.641,2.98c-5.124,7.6-15.255,11.272-25.2,9.983l-.871-.1L941.8,295.6c.05.033,2.043.224,2.562.261a.72.72,0,0,1,.15.016c9.763.505,19.258-3.293,24.332-10.576a2.246,2.246,0,0,0,.151-.227c7.234-10.713,2.294-24.706-11.069-31.274" transform="translate(16322 14135)" fill="#b8d561"/>
    <path id="Path_145159" data-name="Path 145159" d="M950.453,285.281c0-2.054.821-2.317,1.541-2.317s1.54.263,1.54,2.3c0,2.073-.87,2.3-1.524,2.3a1.358,1.358,0,0,1-1.1-.453,2.77,2.77,0,0,1-.452-1.832m-1.859-.016c0,2.351,1.34,3.867,3.433,3.867,2.077,0,3.366-1.479,3.366-3.885,0-2.37-1.306-3.849-3.4-3.849s-3.4,1.479-3.4,3.867m-6.012-.034c0,2.368,1.323,3.78,3.517,3.78h.05a3.729,3.729,0,0,0,2.278-.609,4.137,4.137,0,0,0-.855-1.342,3.23,3.23,0,0,1-1.339.384c-1.155-.019-1.792-.821-1.792-2.267,0-.991.3-2.178,1.759-2.194a2.893,2.893,0,0,1,1.372.382,4.026,4.026,0,0,0,.855-1.34,4.194,4.194,0,0,0-2.278-.611,3.46,3.46,0,0,0-3.567,3.817m-5.157,1.6a4.026,4.026,0,0,0-.8,1.377,4.321,4.321,0,0,0,2.763.82c1.641-.052,2.663-.995,2.612-2.388a2.4,2.4,0,0,0-.519-1.394,3.553,3.553,0,0,0-1.155-.8l-.553-.28a3.47,3.47,0,0,1-.619-.347.48.48,0,0,1-.184-.368c0-.138-.018-.435.569-.488a3.18,3.18,0,0,1,1.641.488,4.09,4.09,0,0,0,.82-1.376,4.056,4.056,0,0,0-2.562-.678,2.26,2.26,0,0,0-2.344,2.335,1.9,1.9,0,0,0,.6,1.427,4.383,4.383,0,0,0,1.071.7l.871.434c.419.193.486.418.486.575.017.471-.5.558-.821.577a3.218,3.218,0,0,1-1.875-.612m-5.393-.035c0-.433.051-.661,1.122-1.026l.938-.331v1.427c0,.3-.017.3-.184.384a2.567,2.567,0,0,1-.971.193c-.905,0-.905-.437-.905-.647m-1.858.053c0,1.047.719,2.161,2.746,2.161,2.194,0,2.964-.977,2.964-1.813V283.54c0-.8-.318-2.142-2.445-2.142a4.368,4.368,0,0,0-2.847.9,4.336,4.336,0,0,0,.854,1.342c.067-.034.117-.088.2-.14s.184-.1.268-.157a4.463,4.463,0,0,1,.469-.209,2.531,2.531,0,0,1,.905-.175c.786,0,.786.316.786.524v.332a.6.6,0,0,1-.167.085l-.938.314a8.679,8.679,0,0,0-1.858.871,2.14,2.14,0,0,0-.938,1.76m-5.292-.018a4.024,4.024,0,0,0-.8,1.377,4.322,4.322,0,0,0,2.763.82c1.641-.052,2.663-.995,2.612-2.388a2.4,2.4,0,0,0-.518-1.394,3.548,3.548,0,0,0-1.156-.8l-.553-.28a3.511,3.511,0,0,1-.619-.347.48.48,0,0,1-.184-.368c0-.138-.017-.435.569-.488a3.176,3.176,0,0,1,1.641.488,4.073,4.073,0,0,0,.82-1.376,4.053,4.053,0,0,0-2.561-.678,2.261,2.261,0,0,0-2.345,2.335,1.9,1.9,0,0,0,.6,1.427,4.372,4.372,0,0,0,1.072.7l.87.434c.419.193.486.418.486.575.017.471-.5.558-.82.577a3.219,3.219,0,0,1-1.876-.612m2.545-10.522h-1.189c-.485,0-.653-.662-.653-1.115a2.418,2.418,0,0,1,.1-.8.947.947,0,0,1,.435-.612,1.589,1.589,0,0,1,.5-.1h.118a2.16,2.16,0,0,1,.318.035l.2.053a.274.274,0,0,1,.15.121.505.505,0,0,1,.017.192v2.231Zm16.863-.384v-3.555h-.418c-.117.018-.251.035-.385.053a4.162,4.162,0,0,0-.7.209c-.017,0-.05.019-.067.019V275.7c0,.418-.134.577-.519.592h-.05a1.406,1.406,0,0,1-.251-.015c-.251-.054-.352-.228-.352-.577v-3.344h-.419a1.356,1.356,0,0,0-.267.034c-.034,0-.084.017-.118.017-.017,0-.033.018-.066.018a3.861,3.861,0,0,0-.637.209c-.017,0-.05.019-.067.019V275.7c0,.349-.1.523-.352.577a1.406,1.406,0,0,1-.251.015c-.419,0-.569-.156-.569-.592v-3.344h-.419c-.134.016-.251.034-.4.051-.016,0-.033.018-.05.018a3.88,3.88,0,0,0-.636.209.24.24,0,0,0-.067.034v3.171c-.017.244-.1.384-.3.438a2.3,2.3,0,0,1-.319.034h-.5v-.942c0-1.514-.737-2.317-2.127-2.317h-2.194a1.558,1.558,0,0,1,1.206-.871,2.589,2.589,0,0,1,.9,0,3.531,3.531,0,0,1,.5.122l.3.1a1.494,1.494,0,0,0,.218.087c.033-.051.05-.087.084-.138a3.575,3.575,0,0,0,.184-.331c.016-.019.016-.036.033-.053.051-.105.084-.191.134-.3.017-.052.034-.1.05-.155a3.334,3.334,0,0,0,.118-.385.741.741,0,0,0,.016-.087,1.216,1.216,0,0,1-.134-.068,3.3,3.3,0,0,0-.569-.228,3.475,3.475,0,0,0-1.038-.191h-.2a5.829,5.829,0,0,0-.905.088h-.033a.132.132,0,0,0-.067.016,3.086,3.086,0,0,0-2.378,2.406v.034a2.267,2.267,0,0,1-.033.243,4.652,4.652,0,0,0-.034.836.228.228,0,0,0,.017.1c0,.017.017.034.017.052a.4.4,0,0,0,.385.278h3.316c.368,0,.569.122.569.767v.906h-5.409v-2.316a1.954,1.954,0,0,0-.151-.715,1.023,1.023,0,0,0-.151-.262,1.187,1.187,0,0,0-.368-.346c-.084-.054-.2-.107-.3-.159a2.056,2.056,0,0,0-.285-.087,4,4,0,0,0-.971-.122h-.2a5.707,5.707,0,0,0-.871.105,2.005,2.005,0,0,0-1.206.731,3.327,3.327,0,0,0-.552,2.039,2.867,2.867,0,0,0,.552,1.829,2.13,2.13,0,0,0,1.675.836h1.222v.262c0,.278-.268.453-.72.453h-.871v.018a3.183,3.183,0,0,0-.184.681c-.033.19-.05.381-.067.556v.315h1.223a2.222,2.222,0,0,0,1.942-.978,1.746,1.746,0,0,0,.235-.608,3.13,3.13,0,0,0,.033-.4v-.279h7.352a3.05,3.05,0,0,0,1.473-.4,2.087,2.087,0,0,0,1.307.418,3.264,3.264,0,0,0,1.59-.455,3.069,3.069,0,0,0,1.591.455,1.82,1.82,0,0,0,1.959-1.935m11.1,0v-3.555h-.419c-.134.018-.251.035-.4.053a4.162,4.162,0,0,0-.7.209c-.017,0-.05.019-.067.019V275.7c0,.418-.134.577-.519.592h-.05a1.406,1.406,0,0,1-.251-.015c-.252-.054-.352-.228-.352-.577v-3.344h-.419a1.375,1.375,0,0,0-.268.034c-.033,0-.084.017-.117.017-.016,0-.033.018-.067.018a3.882,3.882,0,0,0-.636.209c-.017,0-.051.019-.067.019V275.7c0,.349-.1.523-.352.577a1.406,1.406,0,0,1-.251.015c-.419,0-.569-.156-.569-.592v-3.344h-.419c-.134.016-.251.034-.4.051-.017,0-.034.018-.05.018a3.85,3.85,0,0,0-.636.209.24.24,0,0,0-.067.034v3.171c-.017.244-.1.384-.3.438a2.291,2.291,0,0,1-.318.034h-.034c-.4,0-.535-.157-.535-.593v-5.14H946.7c-.117.017-.251.036-.385.052a4.165,4.165,0,0,0-.7.209c-.016.019-.05.019-.067.035v5.071a1.828,1.828,0,0,0,1.96,1.933,3.052,3.052,0,0,0,1.473-.418,2.076,2.076,0,0,0,1.306.418,3.3,3.3,0,0,0,1.591-.453,3.113,3.113,0,0,0,1.591.453,1.832,1.832,0,0,0,1.926-1.951" transform="translate(16322 14135)" fill="#0fb8af"/>
  </g>
</svg>
